# Blender v2.80 (sub 75) OBJ File: 'TilesExport.blend'
# www.blender.org
mtllib farm_wheat.mtl
o farm_wheat_Cube.399
v -0.020198 0.084575 0.509549
v -0.589051 0.084575 0.509549
v -0.020198 0.084575 0.263684
v -0.589051 0.084575 0.263684
v 0.595731 0.083992 0.509549
v 0.071606 0.083992 0.509549
v 0.595731 0.083992 0.263684
v 0.071606 0.083992 0.263684
v -0.214969 0.083992 -0.507143
v 0.583605 0.083992 -0.507143
v -0.214969 0.083992 -0.261278
v 0.583605 0.083992 -0.261278
v -0.591522 0.086074 -0.507144
v -0.297118 0.086074 -0.507143
v -0.591522 0.086074 -0.261278
v -0.297118 0.086074 -0.261278
v 0.219255 0.085480 -0.122933
v 0.595361 0.085480 -0.122932
v 0.219255 0.085480 0.122933
v 0.595361 0.085480 0.122933
v -0.581326 0.083992 -0.122933
v 0.135546 0.083992 -0.122933
v -0.581326 0.083992 0.122932
v 0.135546 0.083992 0.122933
v -0.597196 0.372059 0.514287
v -0.597196 0.372059 0.258945
v -0.006417 0.387001 0.514288
v -0.006416 0.387001 0.258946
v 0.058282 0.352449 0.514288
v 0.058282 0.352449 0.258946
v 0.602610 0.321111 0.514288
v 0.602610 0.321111 0.258946
v 0.602610 0.379869 -0.511882
v 0.602610 0.379869 -0.256540
v -0.226745 0.440655 -0.256540
v -0.226745 0.440655 -0.511882
v -0.291444 0.357003 -0.511882
v -0.291444 0.357003 -0.256540
v -0.597196 0.357003 -0.256540
v -0.597196 0.357003 -0.511882
v 0.602609 0.435882 -0.127671
v 0.602609 0.435882 0.127671
v 0.212006 0.435882 0.127671
v 0.212006 0.435882 -0.127671
v 0.147307 0.415840 -0.127671
v 0.147307 0.415840 0.127671
v -0.597197 0.380768 0.127671
v -0.597196 0.380768 -0.127671
v 0.487626 0.083992 0.509549
v 0.458399 0.083992 0.509549
v 0.473012 0.083992 0.509549
v 0.458399 0.083992 0.263684
v 0.487626 0.083992 0.263684
v 0.473012 0.083992 0.263684
v 0.498323 0.321111 0.514288
v 0.459984 0.352449 0.514288
v 0.475161 0.279885 0.514288
v 0.459984 0.352449 0.258946
v 0.498323 0.321111 0.258946
v 0.475161 0.279885 0.258946
v -0.119428 0.083992 0.122933
v -0.148654 0.083992 0.122933
v -0.134041 0.083992 0.122933
v -0.148654 0.083992 -0.122933
v -0.119428 0.083992 -0.122933
v -0.134041 0.083992 -0.122933
v -0.095898 0.415840 0.127671
v -0.147848 0.380768 0.127671
v -0.125246 0.336110 0.127671
v -0.147848 0.380768 -0.127671
v -0.095898 0.415840 -0.127671
v -0.125246 0.336110 -0.127671
v 0.042641 0.083992 -0.261278
v 0.013415 0.083992 -0.261278
v 0.028028 0.083992 -0.261278
v 0.013415 0.083992 -0.507143
v 0.042641 0.083992 -0.507143
v 0.028028 0.083992 -0.507143
v 0.061300 0.379869 -0.256540
v 0.010442 0.440655 -0.256540
v 0.025618 0.340333 -0.256540
v 0.010442 0.440655 -0.511882
v 0.061300 0.379869 -0.511882
v 0.025618 0.340333 -0.511882
v -0.411871 0.084575 0.509549
v -0.441098 0.084575 0.509549
v -0.426484 0.084575 0.509549
v -0.441098 0.084575 0.263684
v -0.411871 0.084575 0.263684
v -0.426484 0.084575 0.263684
v -0.413186 0.387001 0.514288
v -0.463585 0.372059 0.514288
v -0.428363 0.321357 0.514288
v -0.463585 0.372059 0.258945
v -0.413186 0.387001 0.258945
v -0.428363 0.321357 0.258945
vt 0.231606 0.902742
vt 0.231606 0.896205
vt 0.221930 0.896290
vt 0.221930 0.903079
vt 0.939117 0.178782
vt 0.939117 0.186080
vt 0.948120 0.186417
vt 0.948120 0.179456
vt 0.939331 0.813630
vt 0.939331 0.826014
vt 0.947383 0.826469
vt 0.947383 0.813607
vt 0.939117 0.165561
vt 0.939117 0.177946
vt 0.947169 0.177969
vt 0.947169 0.165107
vt 0.954612 0.610597
vt 0.954612 0.613692
vt 0.961045 0.613888
vt 0.961045 0.610903
vt 0.961549 0.466466
vt 0.961549 0.455394
vt 0.954265 0.455013
vt 0.954265 0.466511
vt 0.970484 0.782649
vt 0.963175 0.782649
vt 0.963175 0.794292
vt 0.970484 0.794292
vt 0.301063 0.990476
vt 0.301063 0.983167
vt 0.298078 0.983167
vt 0.298078 0.990476
vt 0.961921 0.613888
vt 0.954612 0.613888
vt 0.954612 0.629383
vt 0.961921 0.629383
vt 0.344147 0.886650
vt 0.336838 0.886650
vt 0.336838 0.895402
vt 0.344147 0.895402
vt 0.937149 0.742765
vt 0.929840 0.742765
vt 0.929840 0.753945
vt 0.937149 0.753945
vt 0.660642 0.978896
vt 0.660642 0.971587
vt 0.653681 0.971587
vt 0.653681 0.978896
vt 0.961549 0.470397
vt 0.961549 0.467302
vt 0.955115 0.467608
vt 0.955115 0.470594
vt 0.948010 0.964276
vt 0.940972 0.964276
vt 0.940837 0.973232
vt 0.948146 0.973232
vt 0.483213 0.971625
vt 0.483213 0.978662
vt 0.490508 0.978798
vt 0.490508 0.971489
vt 0.136584 0.973341
vt 0.136584 0.980378
vt 0.142986 0.980514
vt 0.142986 0.973205
vt 0.007173 0.967529
vt 0.000136 0.967529
vt 0.000000 0.975492
vt 0.007309 0.975492
vt 0.820589 0.635751
vt 0.820589 0.644178
vt 0.827940 0.644340
vt 0.827940 0.635589
vt 0.970690 0.855986
vt 0.963381 0.855986
vt 0.963381 0.867485
vt 0.970690 0.867485
vt 0.939331 0.805495
vt 0.939331 0.812793
vt 0.948334 0.812120
vt 0.948334 0.805158
vt 0.976632 0.014389
vt 0.969594 0.014389
vt 0.969459 0.022123
vt 0.976767 0.022123
vt 0.820589 0.644178
vt 0.820589 0.635751
vt 0.813239 0.635589
vt 0.813239 0.644340
vt 0.918780 0.967409
vt 0.911742 0.967409
vt 0.911606 0.975377
vt 0.918915 0.975377
vt 0.964635 0.910326
vt 0.957326 0.910326
vt 0.957326 0.923188
vt 0.964635 0.923188
vt 0.959685 0.840248
vt 0.959685 0.829037
vt 0.951480 0.828999
vt 0.951480 0.840642
vt 0.971554 0.445475
vt 0.964517 0.445475
vt 0.964381 0.454942
vt 0.971690 0.454942
vt 0.604801 0.962480
vt 0.597764 0.962480
vt 0.597628 0.972071
vt 0.604937 0.972071
vt 0.704689 0.966561
vt 0.697651 0.966561
vt 0.697516 0.974717
vt 0.704825 0.974717
vt 0.116993 0.962921
vt 0.109955 0.962921
vt 0.109820 0.972356
vt 0.117128 0.972356
vt 0.840415 0.386084
vt 0.840415 0.370600
vt 0.832388 0.371134
vt 0.832388 0.386628
vt 0.988402 0.374709
vt 0.988402 0.367401
vt 0.984578 0.367401
vt 0.984578 0.374709
vt 0.276587 0.952990
vt 0.276587 0.963755
vt 0.286093 0.963963
vt 0.286093 0.952782
vt 0.668376 0.979000
vt 0.668376 0.971691
vt 0.661587 0.971691
vt 0.661587 0.979000
vt 0.835722 0.971705
vt 0.835722 0.978742
vt 0.842929 0.978878
vt 0.842929 0.971569
vt 0.368456 0.952652
vt 0.368456 0.963418
vt 0.377962 0.963625
vt 0.377962 0.952445
vt 0.960854 0.694335
vt 0.953816 0.694335
vt 0.953680 0.701655
vt 0.960989 0.701655
vt 0.840415 0.369763
vt 0.840415 0.363226
vt 0.830740 0.362889
vt 0.830740 0.369678
vt 0.231606 0.895368
vt 0.231606 0.879884
vt 0.223579 0.879340
vt 0.223579 0.894834
vt 0.951139 0.923654
vt 0.951139 0.927889
vt 0.958939 0.927245
vt 0.958939 0.923421
vt 0.959685 0.828200
vt 0.959685 0.823965
vt 0.951886 0.823732
vt 0.951886 0.827556
vt 0.951139 0.928726
vt 0.951139 0.939937
vt 0.959344 0.940331
vt 0.959344 0.928688
vt 0.956233 0.466945
vt 0.961549 0.466884
vt 0.959927 0.610240
vt 0.954612 0.610179
vt 0.961895 0.609806
vt 0.954612 0.609761
vt 0.255066 0.987231
vt 0.255066 0.994539
vt 0.257060 0.994539
vt 0.257060 0.987231
vt 0.991032 0.547897
vt 0.991032 0.540588
vt 0.989853 0.540588
vt 0.989853 0.547897
vt 0.946172 0.812960
vt 0.939331 0.813211
vt 0.945958 0.178616
vt 0.939117 0.178364
vt 0.762730 0.972932
vt 0.762730 0.980241
vt 0.763984 0.980241
vt 0.763984 0.972932
vt 0.923412 0.993626
vt 0.923412 0.986317
vt 0.921175 0.986317
vt 0.921175 0.993626
vt 0.833461 0.370112
vt 0.840415 0.370181
vt 0.224651 0.895856
vt 0.231606 0.895787
vt 0.071391 0.983697
vt 0.071391 0.991006
vt 0.074136 0.991006
vt 0.074136 0.983697
vt 0.764034 0.998743
vt 0.764034 0.991434
vt 0.762863 0.991434
vt 0.762863 0.998743
vt 0.953261 0.828565
vt 0.959685 0.828618
vt 0.957564 0.928254
vt 0.951139 0.928307
vt 0.230336 0.969304
vt 0.230336 0.976613
vt 0.231778 0.976613
vt 0.231778 0.969304
vt 0.439013 0.994704
vt 0.439013 0.987395
vt 0.437197 0.987395
vt 0.437197 0.994704
vt 0.954612 0.598689
vt 0.961895 0.598308
vn -0.0000 -0.0133 0.9999
vn -0.0269 -0.0146 0.9995
vn -0.0044 -0.0135 0.9999
vn 0.0171 -0.0162 0.9997
vn -0.0000 -0.0143 0.9999
vn 0.0048 -0.0148 0.9999
vn -0.0101 -0.0164 -0.9998
vn 0.0000 -0.0160 -0.9999
vn -0.0047 -0.0162 -0.9999
vn -0.0000 -0.0160 0.9999
vn -0.0101 -0.0164 0.9998
vn -0.0047 -0.0162 0.9999
vn 0.0127 -0.0213 0.9997
vn -0.0000 -0.0200 0.9998
vn 0.0055 -0.0206 0.9998
vn -0.0243 -0.0188 -0.9995
vn 0.0000 -0.0176 -0.9998
vn -0.0058 -0.0179 -0.9998
vn 0.0000 1.0000 -0.0000
vn 0.0000 -0.0200 -0.9998
vn 0.0127 -0.0213 -0.9997
vn 0.0055 -0.0206 -0.9998
vn 0.9994 -0.0354 0.0000
vn -0.9998 -0.0209 -0.0000
vn 0.9996 -0.0290 0.0000
vn -0.9986 -0.0534 -0.0000
vn -0.0000 -0.0175 0.9998
vn 0.0000 -0.0143 -0.9999
vn 0.0171 -0.0162 -0.9997
vn 0.0048 -0.0148 -0.9999
vn -0.9996 -0.0283 -0.0000
vn 0.0000 -0.0175 -0.9998
vn 0.9979 -0.0641 0.0000
vn 0.0000 -0.0157 -0.9999
vn 0.0190 -0.0165 -0.9997
vn 0.0049 -0.0159 -0.9999
vn 0.9998 -0.0207 0.0000
vn -0.9995 -0.0330 -0.0000
vn 0.9990 -0.0455 0.0000
vn -0.9998 -0.0207 -0.0000
vn 0.0072 -0.0168 -0.9998
vn 0.0040 -0.0165 -0.9999
vn -0.0000 -0.0135 0.9999
vn -0.9988 -0.0496 -0.0000
vn 0.0000 -0.0135 -0.9999
vn 0.9998 -0.0209 0.0000
vn -0.0269 -0.0146 -0.9995
vn 0.0000 -0.0133 -0.9999
vn -0.0044 -0.0135 -0.9999
vn 0.0072 -0.0168 0.9998
vn 0.0040 -0.0165 0.9999
vn -0.0000 -0.0165 0.9999
vn -0.0101 -0.0178 0.9998
vn -0.0047 -0.0171 0.9998
vn -0.0101 -0.0178 -0.9998
vn 0.0000 -0.0165 -0.9999
vn -0.0047 -0.0171 -0.9998
vn 0.0190 -0.0165 0.9997
vn -0.0000 -0.0157 0.9999
vn 0.0049 -0.0159 0.9999
vn -0.0139 -0.0212 -0.9997
vn -0.0123 -0.0213 -0.9997
vn -0.0139 -0.0212 0.9997
vn -0.0123 -0.0213 0.9997
vn -0.0058 -0.0179 0.9998
vn -0.0243 -0.0188 0.9995
vn 0.9788 0.2047 0.0000
vn -0.8718 0.4898 -0.0000
vn 0.0071 -0.0175 -0.9998
vn 0.0056 -0.0175 -0.9998
vn 0.0071 -0.0175 0.9998
vn 0.0056 -0.0175 0.9998
vn 0.8922 0.4516 0.0000
vn -0.9384 0.3454 -0.0000
vn -0.0236 -0.0167 -0.9996
vn -0.0197 -0.0167 -0.9997
vn -0.0236 -0.0167 0.9996
vn -0.0197 -0.0167 0.9997
vn 0.9888 0.1496 0.0000
vn -0.7424 0.6700 -0.0000
vn 0.0114 -0.0181 -0.9998
vn 0.0096 -0.0182 -0.9998
vn 0.0114 -0.0181 0.9998
vn 0.0096 -0.0182 0.9998
vn 0.8213 0.5705 0.0000
vn -0.9743 0.2253 -0.0000
vn -0.0000 -0.0176 0.9998
usemtl Yellow
s 1
f 11/1/1 74/2/2 80/3/3 35/4/1
s 2
f 61/5/4 24/6/5 46/7/5 67/8/6
s 3
f 64/9/7 21/10/8 48/11/8 70/12/9
s 4
f 23/13/10 62/14/11 68/15/12 47/16/10
s 5
f 49/17/13 5/18/14 31/19/14 55/20/15
s 6
f 52/21/16 8/22/17 30/23/17 58/24/18
s 7
f 27/25/19 28/26/19 95/27/19 91/28/19
s 8
f 31/29/19 32/30/19 59/31/19 55/32/19
s 9
f 34/33/19 33/34/19 83/35/19 79/36/19
s 10
f 38/37/19 37/38/19 40/39/19 39/40/19
s 11
f 42/41/19 41/42/19 44/43/19 43/44/19
s 12
f 46/45/19 45/46/19 71/47/19 67/48/19
s 13
f 7/49/20 53/50/21 59/51/22 32/52/20
s 14
f 24/53/23 22/54/23 45/55/23 46/56/23
s 15
f 13/57/24 15/58/24 39/59/24 40/60/24
s 16
f 5/61/25 7/62/25 32/63/25 31/64/25
s 17
f 21/65/26 23/66/26 47/67/26 48/68/26
s 18
f 15/69/27 16/70/27 38/71/27 39/72/27
s 19
f 56/73/19 58/74/19 30/75/19 29/76/19
s 20
f 22/77/28 65/78/29 71/79/30 45/80/28
s 21
f 4/81/31 2/82/31 25/83/31 26/84/31
s 22
f 14/85/32 13/86/32 40/87/32 37/88/32
s 23
f 12/89/33 10/90/33 33/91/33 34/92/33
s 24
f 68/93/19 70/94/19 48/95/19 47/96/19
s 25
f 3/97/34 89/98/35 95/99/36 28/100/34
s 26
f 20/101/37 18/102/37 41/103/37 42/104/37
s 27
f 9/105/38 11/106/38 35/107/38 36/108/38
s 28
f 1/109/39 3/110/39 28/111/39 27/112/39
s 29
f 17/113/40 19/114/40 43/115/40 44/116/40
s 30
f 10/117/8 77/118/41 83/119/42 33/120/8
s 31
f 92/121/19 94/122/19 26/123/19 25/124/19
s 32
f 19/125/43 20/126/43 42/127/43 43/128/43
s 33
f 80/129/19 82/130/19 36/131/19 35/132/19
s 34
f 8/133/44 6/134/44 29/135/44 30/136/44
s 35
f 18/137/45 17/138/45 44/139/45 41/140/45
s 36
f 16/141/46 14/142/46 37/143/46 38/144/46
s 37
f 76/145/47 9/146/48 36/147/48 82/148/49
s 38
f 73/149/50 12/150/10 34/151/10 79/152/51
s 39
f 2/153/52 86/154/53 92/155/54 25/156/52
s 40
f 88/157/55 4/158/56 26/159/56 94/160/57
s 41
f 85/161/58 1/162/59 27/163/59 91/164/60
s 42
f 52/21/16 58/24/18 60/165/61 54/166/62
s 43
f 54/166/62 60/165/61 59/51/22 53/50/21
s 44
f 49/17/13 55/20/15 57/167/63 51/168/64
s 45
f 51/168/64 57/167/63 56/169/65 50/170/66
s 46
f 58/171/67 56/172/67 57/173/67 60/174/67
s 47
f 60/175/68 57/176/68 55/177/68 59/178/68
s 48
f 64/9/7 70/12/9 72/179/69 66/180/70
s 49
f 66/180/70 72/179/69 71/79/30 65/78/29
s 50
f 61/5/4 67/8/6 69/181/71 63/182/72
s 51
f 63/182/72 69/181/71 68/15/12 62/14/11
s 52
f 70/183/73 68/184/73 69/185/73 72/186/73
s 53
f 72/187/74 69/188/74 67/189/74 71/190/74
s 54
f 76/145/47 82/148/49 84/191/75 78/192/76
s 55
f 78/192/76 84/191/75 83/119/42 77/118/41
s 56
f 73/149/50 79/152/51 81/193/77 75/194/78
s 57
f 75/194/78 81/193/77 80/3/3 74/2/2
s 58
f 82/195/79 80/196/79 81/197/79 84/198/79
s 59
f 84/199/80 81/200/80 79/201/80 83/202/80
s 60
f 88/157/55 94/160/57 96/203/81 90/204/82
s 61
f 90/204/82 96/203/81 95/99/36 89/98/35
s 62
f 85/161/58 91/164/60 93/205/83 87/206/84
s 63
f 87/206/84 93/205/83 92/155/54 86/154/53
s 64
f 94/207/85 92/208/85 93/209/85 96/210/85
s 65
f 96/211/86 93/212/86 91/213/86 95/214/86
s 66
f 6/215/87 50/170/66 56/169/65 29/216/87
