# Blender v2.80 (sub 75) OBJ File: 'TilesExport.blend'
# www.blender.org
mtllib hex_rock_waterD_empty.mtl
o hex_rock_waterD_empty_Cylinder.604
v 0.218458 0.000000 0.175219
v 0.042837 1.001184 -1.110177
v 0.000000 0.951184 -1.154700
v 0.021418 0.994485 -1.132438
v 0.005739 0.976184 -1.148735
v 0.956376 1.001184 -0.588026
v 1.000000 0.951184 -0.577350
v 0.978188 0.994485 -0.582688
v 0.994156 0.976184 -0.578780
v 0.966859 1.001184 0.558216
v 1.000000 0.951184 0.577350
v 0.983429 0.994485 0.567783
v 0.995560 0.976184 0.574787
v -0.025677 1.001184 1.127645
v -0.000000 0.951184 1.154700
v -0.012839 0.994485 1.141173
v -0.003440 0.976184 1.151075
v -0.974042 1.001184 0.571756
v -1.000000 0.951184 0.577350
v -0.987021 0.994485 0.574553
v -0.996522 0.976184 0.576600
v -0.065074 0.951184 -0.837999
v -0.015542 1.001184 -0.825878
v -0.058438 0.976184 -0.836375
v -0.040308 0.994485 -0.831939
v -0.210721 0.951184 -0.615885
v -0.175804 1.001184 -0.581472
v -0.206043 0.976184 -0.611275
v -0.193262 0.994485 -0.598679
v -0.174202 0.951184 -0.232624
v -0.141256 1.001184 -0.209897
v -0.169788 0.976184 -0.229579
v -0.157729 0.994485 -0.221261
v -0.365391 0.951184 0.105096
v -0.328673 1.001184 0.117796
v -0.360472 0.976184 0.106797
v -0.347032 0.994485 0.111446
v -0.788674 1.001184 0.323717
v -0.805308 0.951184 0.306191
v -0.796991 0.994485 0.314954
v -0.803079 0.976184 0.308539
v 1.000000 0.000000 0.577350
v -0.000000 0.000000 1.154700
v 1.000000 0.000000 -0.577350
v 0.000000 0.000000 -1.154700
v -1.000000 0.000000 0.577350
v -0.805308 0.000000 0.306191
v -0.065074 0.000000 -0.837999
v -0.210721 0.000000 -0.615885
v -0.174202 0.000000 -0.232624
v -0.365391 0.000000 0.105096
vt 0.484057 0.523928
vt 0.647710 0.524729
vt 0.017928 0.014553
vt 0.010327 0.011178
vt 0.000000 0.000000
vt 0.000000 0.000000
vt 0.297101 0.482360
vt 0.247584 0.482360
vt 0.000000 0.000000
vt 0.000000 0.000000
vt 0.099034 0.482360
vt 0.049517 0.482360
vt 0.648712 0.526609
vt 0.018705 0.015185
vt 0.500000 0.541184
vt 0.500000 0.541184
vt 0.333333 0.541184
vt 0.333333 0.541184
vt 0.000000 0.000000
vt -0.000000 0.482360
vt 0.038755 0.025168
vt 0.019227 0.015608
vt 0.646669 0.526470
vt 0.799201 0.519018
vt 0.000000 0.000000
vt 0.148551 0.482360
vt 0.000000 0.000000
vt 0.198068 0.482360
vt 0.666667 0.541184
vt 0.666667 0.541184
vt 0.007756 0.008394
vt 0.647635 0.525734
vt 0.833333 0.541184
vt 0.833333 0.541184
vt 1.000000 0.541184
vt 1.000000 0.541184
vt 0.038727 0.025150
vt 0.816267 0.530101
vt 0.019363 0.012575
vt 0.829164 0.538477
vt 0.005739 0.003727
vt 0.998852 0.541184
vt 0.834167 0.541184
vt 0.656927 0.533391
vt 0.666667 0.541184
vt 0.833540 0.541184
vt 0.492029 0.532556
vt 0.499831 0.541184
vt 0.003878 0.004197
vt 0.001142 0.001236
vt 0.497925 0.538938
vt 0.499308 0.541184
vt 0.333714 0.541184
vt 0.314890 0.511772
vt 0.262755 0.511772
vt 0.331695 0.541184
vt 0.278155 0.541184
vt 0.005164 0.005589
vt 0.052568 0.511772
vt 0.000612 0.511772
vt 0.055555 0.541184
vt 0.003006 0.541184
vt 0.019377 0.012584
vt 0.105277 0.511772
vt 0.052177 0.511772
vt 0.111111 0.541184
vt 0.009613 0.007804
vt 0.157954 0.511772
vt 0.105609 0.511772
vt 0.166667 0.541184
vt 0.113822 0.541184
vt 0.009353 0.007592
vt 0.210048 0.511772
vt 0.157657 0.511772
vt 0.221718 0.541184
vt 0.166920 0.541184
vt 0.008964 0.007277
vt 0.262598 0.511772
vt 0.209860 0.511772
vt 0.277327 0.541184
vt 0.222222 0.541184
vt 0.628161 0.513204
vt 0.697265 0.469232
vt 0.139989 0.098884
vt 0.476691 0.507774
vt 0.249973 0.354845
vt 0.146243 0.106364
vt 0.104416 0.081512
vt 0.176955 0.148297
vt 0.186746 0.190104
vt 0.187493 0.253617
vn -0.1212 0.9276 0.3535
vn 0.1732 0.9793 0.1052
vn -0.1049 0.9892 -0.1020
vn -0.1866 0.9555 -0.2284
vn -0.6353 0.0000 -0.7722
vn -0.8123 0.0000 -0.5832
vn -0.8108 0.0535 -0.5829
vn -0.6345 0.0621 -0.7704
vn -0.9243 0.0000 -0.3816
vn -0.9707 0.0000 -0.2403
vn -0.9618 0.1094 -0.2508
vn -0.9151 0.1335 -0.3805
vn -0.1329 0.9904 -0.0373
vn -0.5000 0.0000 0.8660
vn -0.4999 0.0355 0.8654
vn -0.4998 0.0367 0.8653
vn -0.9795 0.0000 -0.2013
vn -0.9719 0.1248 -0.1997
vn -0.1060 0.9935 -0.0419
vn -0.2046 0.9787 -0.0187
vn 0.2338 0.9324 -0.2757
vn -0.9780 0.0000 -0.2085
vn -0.9749 0.0984 -0.1997
vn -0.6759 0.0000 -0.7370
vn -0.6654 0.0892 -0.7411
vn 0.5000 0.0000 0.8660
vn 0.4980 0.0888 0.8627
vn 0.4977 0.0931 0.8623
vn -0.2788 0.9379 -0.2062
vn 1.0000 0.0000 0.0000
vn 0.9947 0.1030 -0.0003
vn 0.9952 0.0979 -0.0003
vn 0.5000 0.0000 -0.8660
vn 0.4996 0.0354 -0.8655
vn 0.4996 0.0366 -0.8655
vn 0.3327 0.7431 -0.5806
vn 0.5818 0.6956 -0.4216
vn 0.4673 0.3492 -0.8122
vn 0.4940 0.1473 -0.8569
vn 0.4948 0.1374 -0.8581
vn 0.5256 0.7916 0.3117
vn 0.9225 0.3861 -0.0014
vn 0.9031 0.4294 -0.0015
vn -0.0596 0.6803 0.7305
vn 0.4586 0.3964 0.7953
vn 0.4667 0.3572 0.8091
vn -0.3464 0.7266 0.5933
vn -0.4547 0.4249 0.7827
vn -0.4945 0.1596 0.8544
vn -0.4955 0.1462 0.8562
vn -0.7893 0.2273 -0.5704
vn -0.6124 0.2718 -0.7423
vn -0.6790 0.5420 -0.4952
vn -0.4825 0.6534 -0.5833
vn -0.7903 0.5161 -0.3301
vn -0.8730 0.4535 -0.1794
vn -0.4379 0.8808 -0.1800
vn -0.5598 0.8206 -0.1150
vn -0.1588 0.9868 -0.0326
vn -0.8746 0.4303 -0.2234
vn -0.5944 0.7964 -0.1111
vn -0.8934 0.4144 -0.1735
vn -0.5525 0.8257 -0.1137
vn -0.6057 0.3786 -0.6999
vn -0.3935 0.7983 -0.4559
vn 0.0000 -1.0000 0.0000
usemtl Brown
s 1
f 14/1/1 10/2/2 35/3/3 38/4/4
s 2
f 47/5/5 46/6/6 19/7/7 39/8/8
s 3
f 48/9/9 49/10/10 26/11/11 22/12/12
s 4
f 10/13/2 31/14/13 35/3/3
s 5
f 43/15/14 15/16/15 19/17/16 46/18/14
s 6
f 45/19/17 48/9/9 22/12/12 3/20/18
s 7
f 23/21/19 27/22/20 10/23/2 6/24/21
s 8
f 49/10/10 50/25/22 30/26/23 26/11/11
s 9
f 50/25/22 51/27/24 34/28/25 30/26/23
s 10
f 51/27/24 47/5/5 39/8/8 34/28/25
s 11
f 42/29/26 11/30/27 15/16/28 43/15/26
s 12
f 14/1/1 38/4/4 18/31/29
s 13
f 10/32/2 27/22/20 31/14/13
s 14
f 44/33/30 7/34/31 11/30/32 42/29/30
s 15
f 45/35/33 3/36/34 7/34/35 44/33/33
s 16
f 2/37/36 6/24/21 8/38/37 4/39/38
s 17
f 4/39/38 8/38/37 9/40/39 5/41/40
s 18
f 5/42/40 9/43/39 7/34/35 3/36/34
s 19
f 6/24/21 10/23/2 12/44/41 8/38/37
s 20
f 8/38/37 12/44/41 13/45/42 9/46/43
s 21
f 9/46/43 13/45/42 11/30/32 7/34/31
s 22
f 10/2/2 14/1/1 16/47/44 12/44/41
s 23
f 12/44/41 16/47/44 17/48/45 13/45/46
s 24
f 13/45/46 17/48/45 15/16/28 11/30/27
s 25
f 14/1/1 18/31/47 20/49/48 16/47/44
s 26
f 16/47/44 20/49/48 21/50/49 17/51/50
s 27
f 17/52/50 21/53/49 19/17/16 15/16/15
s 28
f 39/8/8 19/7/7 21/54/51 41/55/52
s 29
f 41/55/52 21/54/51 20/56/53 40/57/54
s 30
f 40/58/54 20/49/53 18/31/29 38/4/4
s 31
f 3/20/18 22/12/12 24/59/55 5/60/56
s 32
f 5/60/56 24/59/55 25/61/57 4/62/58
s 33
f 4/39/58 25/63/57 23/21/19 2/37/59
s 34
f 22/12/12 26/11/11 28/64/60 24/65/55
s 35
f 24/65/55 28/64/60 29/66/61 25/61/57
s 36
f 25/63/57 29/67/61 27/22/20 23/21/19
s 37
f 26/11/11 30/26/23 32/68/62 28/69/60
s 38
f 28/69/60 32/68/62 33/70/63 29/71/61
s 39
f 29/67/61 33/72/63 31/14/13 27/22/20
s 40
f 30/26/23 34/28/25 36/73/64 32/74/62
s 41
f 32/74/62 36/73/64 37/75/65 33/76/63
s 42
f 33/72/63 37/77/65 35/3/3 31/14/13
s 43
f 34/28/25 39/8/8 41/78/52 36/79/64
s 44
f 36/79/64 41/78/52 40/80/54 37/81/65
s 45
f 37/77/65 40/58/54 38/4/4 35/3/3
s 46
f 2/37/59 23/21/19 6/24/21
s 47
f 1/82/66 42/29/66 43/15/66
s 48
f 1/83/66 44/33/66 42/29/66
s 49
f 1/84/66 45/19/66 44/33/66
s 50
f 1/85/66 43/15/66 46/18/66
s 51
f 1/86/66 46/18/66 47/5/66
s 52
f 1/87/66 48/9/66 45/19/66
s 53
f 1/88/66 49/10/66 48/9/66
s 54
f 1/89/66 50/25/66 49/10/66
s 55
f 1/90/66 51/27/66 50/25/66
s 56
f 1/91/66 47/5/66 51/27/66
