# Blender v2.80 (sub 75) OBJ File: 'TilesExport.blend'
# www.blender.org
mtllib hex_sand_waterC_empty.mtl
o hex_sand_waterC_empty_Cylinder.642
v 0.744895 -0.000000 -0.010769
v 0.052966 1.001184 -1.066385
v 0.000000 0.951184 -1.154700
v 0.026483 0.994485 -1.110543
v 0.007096 0.976184 -1.142868
v 0.950000 1.001184 -0.548482
v 1.000000 0.951184 -0.577350
v 0.975000 0.994485 -0.562916
v 0.993301 0.976184 -0.573483
v 0.950000 1.001184 0.548483
v 1.000000 0.951184 0.577350
v 0.975000 0.994485 0.562916
v 0.993301 0.976184 0.573483
v 0.067511 1.001184 1.057987
v -0.000000 0.951184 1.154700
v 0.033755 0.994485 1.106344
v 0.009045 0.976184 1.141743
v 0.950000 1.001184 -0.403732
v 1.000000 0.951184 -0.384900
v 0.975000 0.994485 -0.394316
v 0.993301 0.976184 -0.387423
v 0.950000 1.001184 -0.204863
v 1.000000 0.951184 -0.192450
v 0.975000 0.994485 -0.198657
v 0.993301 0.976184 -0.194113
v 0.950000 1.001184 -0.005753
v 1.000000 0.951184 0.000000
v 0.975000 0.994485 -0.002876
v 0.993301 0.976184 -0.000771
v 0.950000 1.001184 0.208409
v 1.000000 0.951184 0.192450
v 0.975000 0.994485 0.200430
v 0.993301 0.976184 0.194588
v 1.000000 0.951184 0.384900
v 0.950000 1.001184 0.405775
v 0.993301 0.976184 0.387697
v 0.975000 0.994485 0.395338
v -0.021946 0.951184 -0.769800
v 0.035146 1.001184 -0.748297
v -0.014297 0.976184 -0.766919
v 0.006600 0.994485 -0.759048
v 0.083396 0.951184 -0.420014
v 0.138909 1.001184 -0.406232
v 0.090833 0.976184 -0.418168
v 0.111152 0.994485 -0.413123
v 0.237020 0.951184 -0.087785
v 0.289544 1.001184 -0.081742
v 0.244057 0.976184 -0.086976
v 0.263282 0.994485 -0.084764
v 0.245799 0.951184 0.433182
v 0.298328 1.001184 0.416415
v 0.252836 0.976184 0.430936
v 0.272064 0.994485 0.424799
v 0.113569 1.001184 0.754986
v 0.057060 0.951184 0.778579
v 0.085315 0.994485 0.766782
v 0.064631 0.976184 0.775418
v 0.000000 -0.000000 -1.154700
v 1.000000 -0.000000 -0.577350
v 1.000000 -0.000000 0.384900
v 1.000000 -0.000000 0.577350
v -0.000000 -0.000000 1.154700
v 0.057060 -0.000000 0.778579
v 1.000000 -0.000000 -0.384900
v 1.000000 -0.000000 -0.192450
v 1.000000 -0.000000 0.000000
v 1.000000 -0.000000 0.192450
v -0.021946 -0.000000 -0.769800
v 0.083396 -0.000000 -0.420014
v 0.237020 -0.000000 -0.087785
v 0.245799 -0.000000 0.433182
vt 0.694444 0.541184
vt 0.694444 0.541184
vt 0.666667 0.541184
vt 0.666667 0.541184
vt 0.805556 0.541184
vt 0.805555 0.541184
vt 0.777778 0.541184
vt 0.777778 0.541184
vt 0.000000 0.000000
vt 0.000000 0.000000
vt 0.000000 0.000000
vt 0.000000 0.000000
vt 0.500000 0.541184
vt 0.500000 0.541184
vt 0.000000 0.000000
vt 0.000000 0.000000
vt 0.000000 0.000000
vt 0.000000 0.000000
vt 1.000000 0.541184
vt 1.000000 0.541184
vt 0.833333 0.541184
vt 0.833333 0.541184
vt 0.750000 0.541184
vt 0.750000 0.541184
vt 0.722222 0.541184
vt 0.722222 0.541184
vt 0.000000 0.000000
vt 0.000000 0.000000
vt 0.041617 0.032432
vt 0.038948 0.031461
vt 0.639096 0.513218
vt 0.657621 0.512487
vt 0.045004 0.030234
vt 0.047105 0.032776
vt 0.735351 0.511663
vt 0.766143 0.514706
vt 0.051631 0.037255
vt 0.700851 0.505719
vt 0.050302 0.037693
vt 0.674342 0.505306
vt 0.000000 0.000000
vt 0.000000 0.000000
vt 0.000000 0.000000
vt 0.000000 0.000000
vt 0.046464 0.030338
vt 0.785357 0.514443
vt 0.809249 0.527798
vt 0.023255 0.015172
vt 0.830542 0.539371
vt 0.008705 0.005653
vt 0.998259 0.541184
vt 0.833892 0.541184
vt 0.653006 0.527245
vt 0.676033 0.526836
vt 0.667225 0.541184
vt 0.694041 0.541184
vt 0.019447 0.015721
vt 0.008263 0.006708
vt 0.664434 0.539371
vt 0.666108 0.541184
vt 0.502066 0.541184
vt 0.000000 0.000000
vt 0.000000 0.000000
vt 0.020809 0.016216
vt 0.785849 0.527945
vt 0.805920 0.541184
vt 0.832775 0.541184
vt 0.756564 0.526424
vt 0.778018 0.541184
vt 0.725425 0.523451
vt 0.750111 0.541184
vt 0.698282 0.523245
vt 0.721914 0.541184
vt 0.000000 0.000000
vt 0.000000 0.000000
vt 0.022502 0.015117
vt 0.000000 0.000000
vt 0.023553 0.016388
vt 0.000000 0.000000
vt 0.025815 0.018628
vt 0.000000 0.000000
vt 0.025151 0.018847
vt 0.167380 0.111622
vt 0.508069 0.394447
vt 0.505489 0.396332
vt 0.164817 0.129852
vt 0.602319 0.402544
vt 0.594534 0.400725
vt 0.567608 0.395288
vt 0.542845 0.391705
vt 0.522422 0.391103
vt 0.172342 0.114523
vt 0.204171 0.138517
vt 0.283065 0.199820
vt 0.275913 0.214634
vt 0.175251 0.140013
vn 1.0000 0.0000 0.0000
vn 0.9914 0.1305 0.0000
vn 0.9923 0.1241 0.0000
vn -0.9475 0.0000 -0.3196
vn -0.9887 0.0000 -0.1500
vn -0.9826 0.1104 -0.1491
vn -0.9439 0.1210 -0.3072
vn 0.5000 0.0000 0.8660
vn 0.4961 0.1241 0.8593
vn 0.4972 0.1055 0.8612
vn -0.9984 0.0000 -0.0569
vn -0.9931 0.0000 0.1175
vn -0.9841 0.1399 0.1092
vn -0.9902 0.1276 -0.0564
vn 0.5000 0.0000 -0.8660
vn 0.4970 0.1095 -0.8608
vn 0.4961 0.1241 -0.8593
vn -0.9349 0.0000 0.3549
vn -0.9291 0.1228 0.3489
vn -0.1556 0.9854 -0.0687
vn -0.0503 0.9953 0.0824
vn 0.1306 0.9886 0.0754
vn 0.1305 0.9914 0.0000
vn -0.1360 0.9904 0.0247
vn -0.1359 0.9891 0.0561
vn -0.1105 0.9937 0.0212
vn -0.1101 0.9937 -0.0188
vn -0.9748 0.0000 0.2231
vn -0.9649 0.1317 0.2273
vn -0.9709 0.0000 -0.2393
vn -0.9604 0.1235 -0.2498
vn -0.0375 0.9942 -0.1009
vn 0.1306 0.9886 -0.0754
vn 0.4435 0.8589 -0.2561
vn -0.1516 0.9270 -0.3431
vn 0.4448 0.4566 -0.7705
vn 0.4625 0.3801 -0.8010
vn 0.4435 0.8589 0.2561
vn 0.5000 0.8660 0.0000
vn 0.8897 0.4566 0.0000
vn 0.8660 0.5000 0.0000
vn -0.1844 0.9400 0.2870
vn 0.4653 0.3658 0.8060
vn 0.4448 0.4566 0.7705
vn -0.9142 0.3809 -0.1387
vn -0.8391 0.4686 -0.2763
vn -0.5205 0.8309 -0.1966
vn -0.8509 0.5162 0.0975
vn -0.8992 0.4345 -0.0512
vn -0.4928 0.8673 0.0712
vn -0.8228 0.4769 0.3092
vn -0.4939 0.8478 0.1929
vn -0.8356 0.5111 0.2012
vn -0.4633 0.8799 0.1055
vn -0.8425 0.4874 -0.2293
vn -0.4758 0.8715 -0.1184
vn 0.0000 -1.0000 -0.0000
usemtl Beige
s 1
f 60/1/1 34/2/2 11/3/3 61/4/1
s 2
f 64/5/1 19/6/2 23/7/2 65/8/1
s 3
f 63/9/4 62/10/5 15/11/6 55/12/7
s 4
f 62/13/8 61/4/8 11/3/9 15/14/10
s 5
f 58/15/11 68/16/12 38/17/13 3/18/14
s 6
f 58/19/15 3/20/16 7/21/17 59/22/15
s 7
f 65/8/1 23/7/2 27/23/2 66/24/1
s 8
f 66/24/1 27/23/2 31/25/2 67/26/1
s 9
f 67/26/1 31/25/2 34/2/2 60/1/1
s 10
f 68/16/12 69/27/18 42/28/19 38/17/13
s 11
f 54/29/20 14/30/21 10/31/22 35/32/23
s 12
f 39/33/24 43/34/25 22/35/23 18/36/23
s 13
f 43/34/25 47/37/26 26/38/23 22/35/23
s 14
f 47/37/26 51/39/27 30/40/23 26/38/23
s 15
f 51/39/27 54/29/20 35/32/23 30/40/23
s 16
f 59/22/1 7/21/3 19/6/2 64/5/1
s 17
f 69/27/18 70/41/28 46/42/29 42/28/19
s 18
f 70/41/28 71/43/30 50/44/31 46/42/29
s 19
f 71/43/30 63/9/4 55/12/7 50/44/31
s 20
f 2/45/32 6/46/33 8/47/34 4/48/35
s 21
f 4/48/35 8/47/34 9/49/36 5/50/37
s 22
f 5/51/37 9/52/36 7/21/17 3/20/16
s 23
f 35/32/23 10/31/22 12/53/38 37/54/39
s 24
f 37/54/39 12/53/38 13/55/40 36/56/41
s 25
f 36/56/41 13/55/40 11/3/3 34/2/2
s 26
f 10/31/22 14/30/21 16/57/42 12/53/38
s 27
f 12/53/38 16/57/42 17/58/43 13/59/44
s 28
f 13/60/44 17/61/43 15/14/10 11/3/9
s 29
f 55/12/7 15/11/6 17/62/45 57/63/46
s 30
f 57/63/46 17/62/45 16/57/42 56/64/47
s 31
f 56/64/47 16/57/42 14/30/21 54/29/20
s 32
f 6/46/33 18/36/23 20/65/39 8/47/34
s 33
f 8/47/34 20/65/39 21/66/41 9/67/40
s 34
f 9/67/40 21/66/41 19/6/2 7/21/3
s 35
f 18/36/23 22/35/23 24/68/39 20/65/39
s 36
f 20/65/39 24/68/39 25/69/41 21/66/41
s 37
f 21/66/41 25/69/41 23/7/2 19/6/2
s 38
f 22/35/23 26/38/23 28/70/39 24/68/39
s 39
f 24/68/39 28/70/39 29/71/41 25/69/41
s 40
f 25/69/41 29/71/41 27/23/2 23/7/2
s 41
f 26/38/23 30/40/23 32/72/39 28/70/39
s 42
f 28/70/39 32/72/39 33/73/41 29/71/41
s 43
f 29/71/41 33/73/41 31/25/2 27/23/2
s 44
f 30/40/23 35/32/23 37/54/39 32/72/39
s 45
f 32/72/39 37/54/39 36/56/41 33/73/41
s 46
f 33/73/41 36/56/41 34/2/2 31/25/2
s 47
f 3/18/14 38/17/13 40/74/48 5/75/49
s 48
f 5/75/49 40/74/48 41/76/50 4/48/35
s 49
f 4/48/35 41/76/50 39/33/24 2/45/32
s 50
f 38/17/13 42/28/19 44/77/51 40/74/48
s 51
f 40/74/48 44/77/51 45/78/52 41/76/50
s 52
f 41/76/50 45/78/52 43/34/25 39/33/24
s 53
f 42/28/19 46/42/29 48/79/53 44/77/51
s 54
f 44/77/51 48/79/53 49/80/54 45/78/52
s 55
f 45/78/52 49/80/54 47/37/26 43/34/25
s 56
f 46/42/29 50/44/31 52/81/55 48/79/53
s 57
f 48/79/53 52/81/55 53/82/56 49/80/54
s 58
f 49/80/54 53/82/56 51/39/27 47/37/26
s 59
f 50/44/31 55/12/7 57/63/46 52/81/55
s 60
f 52/81/55 57/63/46 56/64/47 53/82/56
s 61
f 53/82/56 56/64/47 54/29/20 51/39/27
s 62
f 2/45/32 39/33/24 18/36/23 6/46/33
s 63
f 1/83/57 58/15/57 59/22/57
s 64
f 1/84/57 60/1/57 61/4/57
s 65
f 1/85/57 61/4/57 62/10/57
s 66
f 1/86/57 62/10/57 63/9/57
s 67
f 1/87/57 59/22/57 64/5/57
s 68
f 1/88/57 64/5/57 65/8/57
s 69
f 1/89/57 65/8/57 66/24/57
s 70
f 1/90/57 66/24/57 67/26/57
s 71
f 1/91/57 67/26/57 60/1/57
s 72
f 1/92/57 68/16/57 58/15/57
s 73
f 1/93/57 69/27/57 68/16/57
s 74
f 1/94/57 70/41/57 69/27/57
s 75
f 1/95/57 71/43/57 70/41/57
s 76
f 1/96/57 63/9/57 71/43/57
