# Blender v2.80 (sub 75) OBJ File: 'TilesExport.blend'
# www.blender.org
mtllib hex_sand_transitionA.mtl
o hex_sand_transitionA_Cylinder.817
v 0.000000 0.000000 -1.154700
v 1.000000 0.000000 -0.577350
v 1.000000 0.000000 0.577350
v -0.000000 0.000000 1.154700
v -1.000000 0.000000 0.577350
v -1.000000 0.000000 -0.577350
v 0.000000 0.458816 -1.154700
v 0.000000 0.541184 -1.154700
v -0.000000 0.500000 -1.123598
v 1.000000 0.541184 -0.577350
v 1.000000 0.458816 -0.577350
v 0.973064 0.500000 -0.561799
v 1.000000 0.541184 0.577350
v 1.000000 0.458816 0.577350
v 0.973064 0.500000 0.561799
v -0.000000 0.541184 1.154700
v -0.000000 0.458816 1.154700
v -0.000000 0.500000 1.123598
v -1.000000 0.541184 0.577350
v -1.000000 0.458816 0.577350
v -0.973064 0.500000 0.561799
v -1.000000 0.541184 -0.577350
v -1.000000 0.458816 -0.577350
v -0.973064 0.500000 -0.561799
v 0.000000 0.950000 -1.154700
v 0.000000 0.975000 -1.146965
v 0.000000 0.993301 -1.125833
v 1.000000 0.950000 -0.577350
v 0.975000 0.993301 -0.562916
v 0.993301 0.975000 -0.573483
v 1.000000 0.950000 0.577350
v 0.975000 0.993301 0.562916
v 0.993301 0.975000 0.573483
v -0.000000 0.950000 1.154700
v -0.000000 0.993301 1.125833
v -0.000000 0.975000 1.146965
v -1.000000 0.950000 0.577350
v -0.975000 0.993301 0.562916
v -0.993301 0.975000 0.573482
v -1.000000 0.950000 -0.577350
v -0.975000 0.993301 -0.562916
v -0.993301 0.975000 -0.573482
v 0.000000 1.000000 -1.099788
v 0.950000 1.000000 -0.548482
v 0.950000 1.000000 0.548483
v -0.000000 1.000000 1.094142
v -0.950000 1.000000 0.548482
v -0.950000 1.000000 -0.548482
v 0.798800 1.000000 -0.461187
v 0.798800 1.000000 0.461187
v -0.798800 1.000000 0.461187
v -0.798800 1.000000 -0.461187
v 0.635683 1.000000 -0.367012
v 0.635683 1.000000 0.367012
v -0.635683 1.000000 0.367012
v -0.635683 1.000000 -0.367012
v 0.484767 1.000000 -0.279880
v 0.484767 1.000000 0.279880
v -0.369525 1.000000 0.151871
v -0.365251 1.000000 -0.185360
v 0.342304 1.000000 -0.197629
v 0.342304 1.000000 0.197629
v 0.225125 1.028028 -0.129975
v 0.225125 1.000000 0.129975
v 0.125906 1.038802 -0.072691
v 0.125906 1.000000 0.072691
v -0.118306 1.000000 -0.002823
v 0.066683 1.024894 0.012010
v 0.000218 0.937196 0.003518
v -0.112784 1.000000 -0.890317
v 0.057768 1.000000 -0.889022
v -0.000775 0.937196 -0.902389
v 0.057245 1.000000 0.889323
v -0.105738 1.000000 0.888738
v 0.001135 0.937196 0.903669
v -0.216524 1.000000 -0.692892
v -0.040119 1.000000 -0.704150
v -0.101252 0.937196 -0.712400
v 0.057103 1.000000 0.701055
v -0.105441 1.000000 0.700559
v 0.001181 0.937196 0.715393
v -0.116137 1.000000 -0.518423
v 0.063769 1.000000 -0.522944
v 0.000000 0.937196 -0.536043
v -0.040399 1.068827 0.531234
v -0.218427 1.000000 0.431157
v -0.102078 0.937196 0.534156
v -0.117235 1.000000 -0.306497
v 0.063287 1.000000 -0.358719
v -0.000327 0.937196 -0.378187
v -0.040270 1.068827 0.368570
v -0.101667 0.937196 0.379192
v -0.131661 0.945759 -0.141186
v 0.063004 1.038802 -0.223576
v -0.000681 0.937196 -0.241648
v 0.067645 1.000000 0.220897
v -0.118277 1.000000 0.230780
v 0.000509 0.937196 0.240795
v -0.025761 1.013447 -0.121495
v -0.094786 0.937196 -0.134213
v 0.066919 1.000000 0.106748
v -0.118094 1.000000 0.100262
v 0.000349 0.937196 0.121678
v 0.061630 1.000000 -0.653391
v 0.065055 1.038802 -0.092272
vt 0.379504 0.654174
vt 0.368456 0.654174
vt 0.370814 0.669835
vt 0.381862 0.669835
vt 0.542464 0.108032
vt 0.553386 0.108033
vt 0.553386 0.076710
vt 0.542464 0.076709
vt 0.485223 0.608452
vt 0.496270 0.608572
vt 0.498798 0.592937
vt 0.487751 0.592817
vt 0.994335 0.223630
vt 0.994335 0.192308
vt 0.993605 0.192730
vt 0.993605 0.223208
vt 0.541491 0.077131
vt 0.541491 0.107610
vt 0.996293 0.677103
vt 0.996293 0.708426
vt 0.997023 0.708004
vt 0.997023 0.677525
vt 0.558093 0.123683
vt 0.558761 0.123474
vt 0.554085 0.107928
vt 0.208112 0.464766
vt 0.181277 0.449224
vt 0.181321 0.449800
vt 0.207662 0.465056
vt 0.181338 0.450660
vt 0.207003 0.465449
vt 0.554085 0.076815
vt 0.554660 0.107641
vt 0.554660 0.077101
vt 0.207662 0.495595
vt 0.207003 0.495205
vt 0.558093 0.061038
vt 0.558761 0.061248
vt 0.181277 0.511448
vt 0.208112 0.495878
vt 0.181321 0.510878
vt 0.181338 0.510172
vt 0.198511 0.490286
vt 0.187187 0.499132
vt 0.184385 0.504489
vt 0.202918 0.492839
vt 0.184186 0.461335
vt 0.198511 0.470376
vt 0.202918 0.467819
vt 0.184194 0.456231
vt 0.191205 0.485363
vt 0.184475 0.494401
vt 0.187239 0.468641
vt 0.191321 0.476215
vt 0.184505 0.488652
vt 0.184534 0.480415
vt 0.184762 0.484159
vt 0.181203 0.486885
vt 0.183745 0.483969
vt 0.184533 0.474078
vt 0.181171 0.473798
vt 0.183931 0.470043
vt 0.184528 0.477618
vt 0.181205 0.504808
vt 0.181154 0.455818
vt 0.183920 0.499653
vt 0.181153 0.460925
vt 0.181184 0.494871
vt 0.183942 0.465839
vt 0.181193 0.490589
vt 0.181175 0.477030
vt 0.181179 0.480235
vt 0.384088 0.701158
vt 0.381730 0.716819
vt 0.394128 0.716819
vt 0.396487 0.701158
vt 0.482659 0.639749
vt 0.482997 0.608428
vt 0.470599 0.608294
vt 0.470261 0.639615
vt 0.485525 0.592793
vt 0.473127 0.592659
vt 0.540264 0.108032
vt 0.540264 0.076709
vt 0.528007 0.076708
vt 0.528007 0.108031
vt 0.381730 0.654174
vt 0.384088 0.669835
vt 0.396487 0.669835
vt 0.394128 0.654174
vt 0.156093 0.015661
vt 0.156093 0.046984
vt 0.183219 0.062645
vt 0.210345 0.046984
vt 0.210345 0.015661
vt 0.183219 0.000000
vt 0.382911 0.670257
vt 0.382911 0.700736
vt 0.735361 0.678501
vt 0.735361 0.648023
vt 0.734533 0.647595
vt 0.734533 0.678917
vt 0.483839 0.639340
vt 0.484169 0.608863
vt 0.696805 0.907784
vt 0.696805 0.938163
vt 0.697490 0.938491
vt 0.697490 0.907271
vt 0.546072 0.061881
vt 0.544971 0.061037
vt 0.381862 0.701158
vt 0.370814 0.701158
vt 0.368456 0.716819
vt 0.379504 0.716819
vt 0.484884 0.639773
vt 0.495931 0.639892
vt 0.995770 0.558876
vt 0.995770 0.527554
vt 0.995039 0.527975
vt 0.995039 0.558454
vt 0.370123 0.669940
vt 0.370123 0.701053
vt 0.369585 0.670227
vt 0.369585 0.700766
vt 0.154980 0.495622
vt 0.155672 0.495231
vt 0.498120 0.655578
vt 0.498798 0.655376
vt 0.496624 0.639795
vt 0.154441 0.464794
vt 0.154441 0.495906
vt 0.154980 0.465083
vt 0.155672 0.465475
vt 0.496960 0.608684
vt 0.497165 0.639514
vt 0.497495 0.608976
vt 0.159757 0.492861
vt 0.159757 0.467841
vt 0.179791 0.456217
vt 0.164164 0.470393
vt 0.179795 0.461324
vt 0.179777 0.504456
vt 0.164164 0.490304
vt 0.179615 0.494526
vt 0.168241 0.487939
vt 0.179673 0.498064
vt 0.168241 0.472755
vt 0.179628 0.490071
vt 0.172090 0.485705
vt 0.182597 0.465940
vt 0.172090 0.474984
vt 0.179730 0.486411
vt 0.175324 0.483873
vt 0.182593 0.470352
vt 0.175256 0.476817
vt 0.178031 0.482319
vt 0.179510 0.474349
vt 0.177936 0.478370
vt 0.179530 0.477445
vt 0.179597 0.480019
vt 0.179675 0.482850
vt 0.783258 0.892600
vt 0.781305 0.892238
vt 0.781577 0.897954
vt 0.781302 0.843998
vt 0.783243 0.843608
vt 0.781570 0.838442
vt 0.783731 0.887445
vt 0.781765 0.887222
vt 0.783244 0.848716
vt 0.781303 0.849105
vt 0.783253 0.882662
vt 0.781275 0.882308
vt 0.783731 0.853631
vt 0.779924 0.853711
vt 0.783254 0.878380
vt 0.781277 0.877853
vt 0.783729 0.857834
vt 0.779924 0.858123
vt 0.783256 0.874676
vt 0.780241 0.874187
vt 0.783248 0.861590
vt 0.781255 0.862130
vt 0.783698 0.871761
vt 0.781336 0.871417
vt 0.783250 0.864821
vt 0.781258 0.865227
vt 0.783251 0.868026
vt 0.780595 0.867796
vt 0.182422 0.499440
vt 0.182066 0.483637
vn -0.4835 -0.2546 -0.8375
vn -0.4961 0.1241 -0.8593
vn -0.9670 -0.2546 0.0000
vn -0.9923 0.1241 0.0000
vn -0.4835 -0.2546 0.8375
vn -0.4961 0.1241 0.8593
vn -0.4184 -0.5474 0.7248
vn -0.8369 -0.5474 0.0000
vn -0.4184 -0.5474 -0.7248
vn -0.4448 0.4566 0.7705
vn 0.0000 0.8607 0.5091
vn -0.4426 0.8599 0.2544
vn 0.0498 0.9908 0.1256
vn -0.1286 0.9891 0.0722
vn -0.8897 0.4566 0.0000
vn -0.4445 0.8578 -0.2579
vn -0.1328 0.9880 -0.0789
vn -0.4448 0.4566 -0.7705
vn 0.0000 0.8570 -0.5153
vn 0.0481 0.9889 -0.1404
vn 0.0000 1.0000 0.0000
vn 0.1689 0.9856 -0.0081
vn 0.2575 0.9565 0.1367
vn 0.3239 0.9413 -0.0954
vn 0.2292 0.9723 -0.0456
vn 0.0388 0.9992 0.0047
vn 0.2712 0.9594 -0.0777
vn 0.2069 0.9783 0.0098
vn 0.2390 0.9648 0.1098
vn 0.2696 0.9525 -0.1418
vn 0.3018 0.9530 -0.0255
vn 0.3758 0.9117 0.1661
vn 0.3750 0.9263 -0.0370
vn 0.2781 0.9558 0.0954
vn 0.4547 0.8806 0.1333
vn 0.5011 0.8429 0.1959
vn 0.2415 0.9704 -0.0002
vn 0.4937 0.8288 0.2635
vn 0.5162 0.8454 -0.1369
vn 0.4809 0.8765 0.0234
vn 0.5398 0.8352 -0.1051
vn 0.4583 0.8813 -0.1150
vn 0.5573 0.8038 -0.2082
vn 0.4746 0.8802 0.0016
vn 0.4681 0.8837 -0.0003
vn 0.4549 0.8813 -0.1282
vn 0.9670 0.2546 0.0000
vn 1.0000 0.0000 0.0000
vn 0.4835 0.2546 0.8375
vn 0.5000 0.0000 0.8660
vn -0.4835 0.2546 0.8375
vn -0.5000 0.0000 0.8660
vn -0.9670 0.2546 0.0000
vn -1.0000 0.0000 0.0000
vn -0.4835 0.2546 -0.8375
vn -0.5000 0.0000 -0.8660
vn 0.0000 -1.0000 0.0000
vn 0.4184 0.5474 -0.7248
vn 0.4835 0.2546 -0.8375
vn 0.8369 0.5474 0.0000
vn 0.4184 0.5474 0.7248
vn -0.4184 0.5474 0.7248
vn -0.8369 0.5474 0.0000
vn -0.4184 0.5474 -0.7248
vn 0.5000 0.0000 -0.8660
vn 0.9670 -0.2546 0.0000
vn 0.9923 0.1241 0.0000
vn 0.4835 -0.2546 0.8375
vn 0.4961 0.1241 0.8593
vn 0.4835 -0.2546 -0.8375
vn 0.4184 -0.5474 -0.7248
vn 0.8369 -0.5474 0.0000
vn 0.4184 -0.5474 0.7248
vn 0.4961 0.1241 -0.8593
vn 0.4448 0.4566 -0.7705
vn 0.4445 0.8578 -0.2579
vn 0.1328 0.9880 -0.0789
vn 0.8897 0.4566 0.0000
vn 0.4426 0.8599 0.2544
vn 0.1286 0.9891 0.0722
vn 0.4448 0.4566 0.7705
vn 0.0222 0.9995 0.0225
vn 0.0571 0.9967 0.0580
vn 0.0644 0.9973 0.0360
vn 0.0529 0.9956 -0.0777
vn 0.0596 0.9979 -0.0265
vn 0.1271 0.9908 0.0464
vn 0.0391 0.9980 -0.0504
vn 0.0456 0.9905 -0.1294
vn 0.1726 0.9848 -0.0211
vn 0.0863 0.9847 -0.1511
vn 0.0254 0.9991 0.0331
vn 0.0430 0.9943 0.0976
vn -0.0232 0.9616 -0.2734
vn 0.0659 0.9881 0.1390
vn 0.0496 0.9951 0.0858
vn 0.0383 0.9754 0.2172
vn -0.1550 0.9857 0.0668
vn -0.7180 0.6894 -0.0960
vn -0.7190 0.6891 -0.0901
vn -0.7375 0.6444 0.2021
vn -0.7530 0.6522 -0.0873
vn -0.7538 0.6479 -0.1094
vn -0.7524 0.6242 -0.2103
vn -0.6496 0.6781 -0.3438
vn -0.7602 0.5941 0.2629
vn -0.7589 0.5865 0.2828
vn -0.6846 0.6140 0.3928
vn -0.7059 0.6676 0.2365
vn -0.7093 0.6880 0.1533
vn -0.8493 0.4671 0.2458
vn -0.8481 0.4675 0.2494
vn -0.7364 0.6753 -0.0403
vn -0.7485 0.6609 -0.0546
vn -0.8629 0.4222 -0.2777
vn -0.8481 0.4184 -0.3252
vn -0.7296 0.6110 -0.3071
vn -0.7315 0.6118 -0.3010
vn -0.7040 0.3702 -0.6061
vn -0.6510 0.5721 -0.4989
vn -0.7129 0.7003 0.0368
vn -0.6843 0.7292 0.0026
vn -0.7205 0.6919 0.0463
vn -0.7099 0.5260 0.4684
vn -0.7408 0.5971 0.3078
vn -0.7459 0.6167 0.2518
vn -0.2838 0.9575 0.0512
usemtl Beige
s 5
f 22/1/1 40/2/2 25/3/2 8/4/1
s 9
f 19/5/3 37/6/4 40/7/4 22/8/3
s 11
f 16/9/5 34/10/6 37/11/6 19/12/5
s 18
f 16/13/5 19/14/5 21/15/7 18/16/7
s 20
f 19/5/3 22/8/3 24/17/8 21/18/8
s 22
f 22/19/1 8/20/1 9/21/9 24/22/9
s 34
f 37/6/6 34/23/6 36/24/10 39/25/10
s 35
f 39/26/10 36/27/10 35/28/11 38/29/12
s 36
f 38/29/12 35/28/11 46/30/13 47/31/14
s 37
f 40/7/4 37/6/4 39/25/15 42/32/15
s 38
f 42/32/15 39/25/15 38/33/12 41/34/16
s 39
f 41/35/16 38/29/12 47/31/14 48/36/17
s 40
f 25/37/2 40/7/2 42/32/18 26/38/18
s 41
f 26/39/18 42/40/18 41/35/16 27/41/19
s 42
f 27/41/19 41/35/16 48/36/17 43/42/20
s 44
f 56/43/21 76/44/22 70/45/23 52/46/21
s 46
f 80/47/24 55/48/21 51/49/21 74/50/25
s 48
f 51/49/21 52/46/21 48/36/17 47/31/14
s 52
f 46/30/13 74/50/25 51/49/21 47/31/14
s 54
f 55/48/21 56/43/21 52/46/21 51/49/21
s 55
f 52/46/21 70/45/23 43/42/20 48/36/17
s 56
f 60/51/26 82/52/27 76/44/22 56/43/21
s 58
f 86/53/28 59/54/21 55/48/21 80/47/24
s 60
f 59/54/21 60/51/26 56/43/21 55/48/21
s 62
f 60/51/26 88/55/29 82/52/27
s 64
f 60/51/26 67/56/30 93/57/31
s 67
f 95/58/32 88/55/29 93/57/31 100/59/33
s 69
f 97/60/34 59/54/21 86/53/28
s 71
f 98/61/35 97/60/34 92/62/36
s 74
f 102/63/37 59/54/21 97/60/34
s 78
f 67/56/30 59/54/21 102/63/37
s 81
f 70/45/23 72/64/38 43/42/20
s 84
f 75/65/39 74/50/25 46/30/13
s 85
f 70/45/23 76/44/22 78/66/40 72/64/38
s 87
f 80/47/24 74/50/25 75/65/39 81/67/41
s 89
f 76/44/22 82/52/27 84/68/42 78/66/40
s 91
f 86/53/28 80/47/24 81/67/41 87/69/43
s 93
f 82/52/27 88/55/29 90/70/44 84/68/42
s 95
f 86/53/28 87/69/43 92/62/36
s 97
f 88/55/29 95/58/32 90/70/44
s 99
f 97/60/34 86/53/28 92/62/36
s 101
f 88/55/29 60/51/26 93/57/31
s 103
f 102/63/37 97/60/34 98/61/35 103/71/45
s 105
f 67/56/30 69/72/46 100/59/33 93/57/31
s 107
f 67/56/30 102/63/37 103/71/45 69/72/46
s 109
f 67/56/30 60/51/26 59/54/21
usemtl BrownDark
s 2
f 11/73/47 14/74/47 3/75/48 2/76/48
s 3
f 14/77/49 17/78/49 4/79/50 3/80/50
s 4
f 17/78/51 20/81/51 5/82/52 4/79/52
s 6
f 20/83/53 23/84/53 6/85/54 5/86/54
s 7
f 23/87/55 7/88/55 1/89/56 6/90/56
s 8
f 1/91/57 2/92/57 3/93/57 4/94/57 5/95/57 6/96/57
s 13
f 9/97/58 12/98/58 11/73/59 7/88/59
s 15
f 12/99/60 15/100/60 14/101/47 11/102/47
s 17
f 15/103/61 18/104/61 17/78/49 14/77/49
s 19
f 18/105/62 21/106/62 20/107/51 17/108/51
s 21
f 21/18/63 24/17/63 23/84/53 20/83/53
s 23
f 24/17/64 9/109/64 7/110/55 23/84/55
s 24
f 7/88/59 11/73/59 2/76/65 1/89/65
usemtl Green
s 1
f 10/111/66 28/112/67 31/113/67 13/114/66
s 10
f 13/115/68 31/116/69 34/10/69 16/9/68
s 12
f 8/4/70 10/111/70 12/98/71 9/97/71
s 14
f 10/117/66 13/118/66 15/119/72 12/120/72
s 16
f 13/115/68 16/9/68 18/104/73 15/103/73
s 25
f 28/112/74 25/3/74 26/121/75 30/122/75
s 26
f 30/122/75 26/121/75 27/123/19 29/124/76
s 27
f 29/125/76 27/41/19 43/42/20 44/126/77
s 28
f 31/116/67 28/127/67 30/128/78 33/129/78
s 29
f 33/130/78 30/131/78 29/125/76 32/132/79
s 30
f 32/132/79 29/125/76 44/126/77 45/133/80
s 31
f 34/10/69 31/116/69 33/129/81 36/134/81
s 32
f 36/134/81 33/129/81 32/135/79 35/136/11
s 33
f 35/28/11 32/132/79 45/133/80 46/30/13
s 43
f 8/4/70 25/3/74 28/112/74 10/111/70
s 45
f 49/137/21 50/138/21 45/133/80 44/126/77
s 47
f 50/138/21 73/139/21 46/30/13 45/133/80
s 49
f 54/140/82 79/141/83 73/139/21 50/138/21
s 50
f 43/42/20 71/142/21 49/137/21 44/126/77
s 51
f 53/143/21 54/140/82 50/138/21 49/137/21
s 53
f 83/144/21 57/145/21 53/143/21 104/146/21
s 57
f 57/145/21 58/147/84 54/140/82 53/143/21
s 59
f 89/148/85 61/149/86 57/145/21 83/144/21
s 61
f 58/147/84 85/150/87 79/141/83 54/140/82
s 63
f 61/149/86 62/151/88 58/147/84 57/145/21
s 65
f 94/152/89 63/153/90 61/149/86 89/148/85
s 66
f 62/151/88 91/154/91 85/150/87 58/147/84
s 68
f 64/155/92 62/151/88 61/149/86
s 70
f 65/156/93 63/153/90 94/152/89
s 72
f 96/157/94 91/154/91 62/151/88
s 73
f 65/156/93 66/158/95 64/155/92 63/153/90
s 75
f 66/158/95 101/159/96 96/157/94
s 76
f 68/160/97 66/158/95 65/156/93
s 77
f 68/160/97 101/159/96 66/158/95
s 79
f 104/146/21 53/143/21 49/137/21 71/142/21
s 80
f 68/160/97 65/156/93 105/161/98
s 82
f 72/162/99 71/163/100 43/164/101
s 83
f 73/165/102 75/166/103 46/167/104
s 86
f 72/162/99 78/168/105 77/169/105 71/163/100
s 88
f 81/170/106 75/166/103 73/165/102 79/171/107
s 90
f 78/168/108 84/172/109 83/173/110 77/169/108
s 92
f 87/174/111 81/170/106 79/171/107 85/175/112
s 94
f 84/172/109 90/176/113 89/177/114 83/173/110
s 96
f 92/178/115 87/174/111 85/175/112 91/179/116
s 98
f 90/176/113 95/180/117 94/181/118 89/177/114
s 100
f 98/182/119 92/178/115 91/179/116 96/183/119
s 102
f 95/180/117 100/184/120 99/185/120 94/181/118
s 104
f 103/186/121 98/182/122 96/183/122 101/187/123
s 106
f 100/184/124 69/188/125 68/189/126 99/185/124
s 108
f 69/188/125 103/186/121 101/187/123 68/189/126
s 110
f 77/190/21 83/144/21 104/146/21
s 111
f 77/190/21 104/146/21 71/142/21
s 112
f 64/155/92 96/157/94 62/151/88
s 113
f 105/161/98 65/156/93 94/152/89
s 114
f 64/155/92 66/158/95 96/157/94
s 115
f 63/153/90 64/155/92 61/149/86
s 116
f 99/191/127 105/161/98 94/152/89
s 117
f 99/191/127 68/160/97 105/161/98
