# Blender v2.80 (sub 75) OBJ File: 'TilesExport.blend'
# www.blender.org
mtllib hex_forest_waterA_empty.mtl
o hex_forest_waterA_empty_Cylinder.511
v -1.000000 0.000000 0.577350
v 0.000000 0.000000 -1.154700
v -1.000000 0.000000 -0.577350
v -0.173188 0.000000 -0.655849
v -0.576812 0.000000 -0.358172
v -0.728054 0.000000 0.243096
v -0.950000 1.000000 -0.548482
v -1.000000 0.950000 -0.577350
v -0.975000 0.993301 -0.562916
v -0.993301 0.975000 -0.573482
v -1.000000 0.950000 0.577350
v -0.950000 1.000000 0.424565
v -0.993301 0.975000 0.556881
v -0.975000 0.993301 0.500957
v -0.103483 1.000000 -1.037219
v 0.000000 0.950000 -1.154700
v -0.051741 0.993301 -1.095960
v -0.013864 0.975000 -1.138961
v -0.238425 1.000000 -0.649655
v -0.173188 0.950000 -0.655849
v -0.205807 0.993301 -0.652752
v -0.181928 0.975000 -0.655019
v -0.610876 1.000000 -0.375814
v -0.576812 0.950000 -0.358172
v -0.593844 0.993301 -0.366993
v -0.581376 0.975000 -0.360535
v -0.728054 0.950000 0.243096
v -0.749677 1.000000 0.177860
v -0.730951 0.975000 0.234356
v -0.738865 0.993301 0.210478
vt 0.167155 1.000000
vt 0.166667 1.000000
vt 0.089908 1.000000
vt 0.166667 0.541184
vt 0.166667 0.950000
vt 0.891024 0.950000
vt -0.000000 0.541184
vt 0.000000 0.000000
vt 0.000000 0.000000
vt 0.000000 0.000000
vt 0.000000 0.000000
vt 0.333333 0.541184
vt 0.333333 0.950000
vt 0.000000 0.000000
vt 0.000000 0.000000
vt 0.000000 0.000000
vt 0.000000 0.000000
vt 0.167031 1.000000
vt 0.243374 1.000000
vt 0.025131 1.000000
vt 0.166218 1.000000
vt 0.000000 0.000000
vt 0.000000 0.000000
vt 0.330379 0.975000
vt 0.167225 0.975000
vt 0.319081 1.000000
vt 0.165524 1.000000
vt 0.304829 1.000000
vt 0.164382 1.000000
vt 0.168169 0.975000
vt 0.935980 0.975000
vt 0.177083 1.000000
vt 0.946466 1.000000
vt 0.012566 1.000000
vt 0.166442 1.000000
vt 0.246687 1.000000
vt 0.329445 1.000000
vt 0.250000 1.000000
vt 0.000000 0.000000
vt 0.000000 0.000000
vt 0.086621 1.000000
vt 0.083333 1.000000
vt 0.003064 1.000000
vt 0.000000 0.000000
vt 0.000000 0.000000
vt 0.166667 1.000000
vt 0.166667 1.000000
vt 0.084584 1.000000
vt 0.000000 0.000000
vt 0.248956 1.000000
vn -0.1306 0.9886 -0.0754
vn 0.1114 0.9912 0.0720
vn 0.1293 0.9822 0.1365
vn -0.5000 0.0000 -0.8660
vn -0.4961 0.1241 -0.8593
vn -0.4977 0.0961 -0.8620
vn 0.8305 0.0000 0.5571
vn 0.8052 0.0000 0.5930
vn 0.8094 0.1289 0.5729
vn 0.8246 0.1020 0.5564
vn -1.0000 0.0000 0.0000
vn -0.9955 0.0951 0.0000
vn -0.9923 0.1241 0.0000
vn 0.9447 0.0000 0.3280
vn 0.9385 0.1144 0.3258
vn 0.8940 0.0000 0.4482
vn 0.8795 0.1286 0.4582
vn 0.1645 0.9847 0.0574
vn 0.0340 0.9969 -0.0703
vn 0.7757 0.0000 0.6311
vn 0.7710 0.1101 0.6273
vn -0.9413 0.3377 0.0000
vn -0.8897 0.4566 0.0000
vn -0.1204 0.9630 0.2413
vn -0.4435 0.8589 -0.2561
vn -0.0398 0.9971 0.0645
vn -0.4448 0.4566 -0.7705
vn -0.4702 0.3399 -0.8145
vn 0.1444 0.9611 -0.2354
vn 0.5058 0.8347 0.2179
vn 0.7161 0.3846 0.5825
vn 0.7785 0.4864 0.3967
vn 0.4243 0.8263 0.3704
vn 0.7076 0.4834 0.5155
vn 0.8672 0.3966 0.3011
vn 0.4528 0.8370 0.3072
vn 0.7464 0.4298 0.5082
vn 0.0000 -1.0000 0.0000
usemtl Green
s 1
f 7/1/1 23/2/2 19/3/3
s 2
f 3/4/4 8/5/5 16/6/6 2/7/4
s 3
f 5/8/7 4/9/8 20/10/9 24/11/10
s 4
f 1/12/11 11/13/12 8/5/13 3/4/11
s 5
f 4/9/8 2/14/14 16/15/15 20/10/9
s 6
f 6/16/16 5/8/7 24/11/10 27/17/17
s 7
f 23/2/2 7/18/1 28/19/18
s 8
f 15/20/19 7/21/1 19/3/3
s 9
f 1/22/20 6/16/16 27/17/17 11/23/21
s 10
f 8/5/13 11/13/12 13/24/22 10/25/23
s 11
f 10/25/23 13/24/22 14/26/24 9/27/25
s 12
f 9/27/25 14/26/24 12/28/26 7/29/1
s 13
f 16/6/6 8/5/5 10/30/27 18/31/28
s 14
f 18/31/28 10/30/27 9/32/25 17/33/29
s 15
f 17/34/29 9/35/25 7/21/1 15/20/19
s 16
f 28/19/18 12/28/26 14/26/24 30/36/30
s 17
f 30/36/30 14/26/24 13/37/31 29/38/32
s 18
f 29/39/32 13/40/31 11/23/21 27/17/17
s 19
f 15/20/19 19/3/3 21/41/33 17/34/29
s 20
f 17/34/29 21/41/33 22/42/34 18/43/35
s 21
f 18/44/35 22/45/34 20/10/9 16/15/15
s 22
f 19/3/3 23/2/2 25/46/36 21/41/33
s 23
f 21/41/33 25/46/36 26/47/37 22/48/34
s 24
f 22/45/34 26/49/37 24/11/10 20/10/9
s 25
f 23/2/2 28/19/18 30/36/30 25/46/36
s 26
f 25/46/36 30/36/30 29/50/32 26/47/37
s 27
f 26/49/37 29/39/32 27/17/17 24/11/10
s 28
f 7/29/1 12/28/26 28/19/18
s 29
f 6/16/38 1/12/38 3/4/38
s 30
f 5/8/38 6/16/38 3/4/38
s 31
f 4/9/38 5/8/38 3/4/38
s 32
f 2/14/38 4/9/38 3/4/38
