# Blender v2.80 (sub 75) OBJ File: 'TilesExport.blend'
# www.blender.org
mtllib hex_sand_roadB_detail.mtl
o hex_sand_roadB_detail_Cylinder.607
v 1.000000 0.900000 -0.173206
v 1.000000 0.900000 0.173205
v -1.000000 0.900000 0.173208
v -1.000000 0.900000 -0.173206
v 0.615096 0.900000 0.178372
v 0.651447 0.900000 -0.200895
v 0.328508 0.900000 0.240037
v 0.334633 0.900000 -0.311625
v 0.024860 0.900000 0.246354
v 0.013008 0.900000 -0.327338
v -0.254433 0.900000 0.241311
v -0.299837 0.900000 -0.276297
v -0.573870 0.900000 0.189614
v -0.555911 0.900000 -0.179542
v -0.000004 1.000000 -1.098815
v -0.000004 0.951603 -1.154699
v -0.000004 0.993516 -1.126757
v -0.000004 0.975802 -1.147212
v 0.951600 1.000000 -0.549407
v 0.999996 0.951603 -0.577349
v 0.975798 0.993516 -0.563378
v 0.993512 0.975802 -0.573605
v 0.951600 1.000000 0.549409
v 0.999996 0.951603 0.577351
v 0.975798 0.993516 0.563380
v 0.993512 0.975802 0.573608
v -0.000004 1.000000 1.098818
v -0.000004 0.951603 1.154701
v -0.000004 0.993516 1.126760
v -0.000004 0.975802 1.147214
v -0.951607 1.000000 0.549409
v -1.000004 0.951603 0.577351
v -0.975805 0.993516 0.563380
v -0.993520 0.975802 0.573608
v -0.951607 1.000000 -0.549407
v -1.000004 0.951603 -0.577349
v -0.975805 0.993516 -0.563378
v -0.993520 0.975802 -0.573605
v 1.000000 0.951603 -0.173206
v 0.951603 1.000000 -0.225600
v 0.993516 0.975802 -0.180226
v 0.975801 0.993516 -0.199403
v 0.951603 1.000000 0.222255
v 1.000000 0.951603 0.173205
v 0.975801 0.993516 0.197730
v 0.993516 0.975802 0.179776
v -1.000000 0.951603 0.173208
v -0.951604 1.000000 0.223504
v -0.993516 0.975802 0.179946
v -0.975802 0.993516 0.198356
v -0.951604 1.000000 -0.222298
v -1.000000 0.951603 -0.173206
v -0.975802 0.993516 -0.197752
v -0.993516 0.975802 -0.179783
v 0.615096 0.951603 0.178372
v 0.620565 1.000000 0.226700
v 0.615829 0.975802 0.184847
v 0.617831 0.993516 0.202536
v 0.661512 1.000000 -0.248645
v 0.651447 0.951603 -0.200895
v 0.656479 0.993516 -0.224770
v 0.652795 0.975802 -0.207293
v 0.334153 1.000000 0.288327
v 0.328508 0.951603 0.240037
v 0.331330 0.993516 0.264182
v 0.329264 0.975802 0.246507
v 0.343990 1.000000 -0.359622
v 0.334633 0.951603 -0.311625
v 0.339312 0.993516 -0.335624
v 0.335887 0.975802 -0.318055
v 0.024860 0.951603 0.246354
v 0.024927 1.000000 0.294760
v 0.024869 0.975802 0.252839
v 0.024894 0.993516 0.270557
v 0.010262 1.000000 -0.375926
v 0.013008 0.951603 -0.327338
v 0.011635 0.993516 -0.351632
v 0.012641 0.975802 -0.333847
v -0.254433 0.951603 0.241311
v -0.258758 1.000000 0.289637
v -0.255012 0.975802 0.247785
v -0.256595 0.993516 0.265474
v -0.312411 1.000000 -0.323282
v -0.299837 0.951603 -0.276297
v -0.306124 0.993516 -0.299789
v -0.301522 0.975802 -0.282592
v -0.573870 0.951603 0.189614
v -0.578685 1.000000 0.237861
v -0.574515 0.975802 0.196078
v -0.576277 0.993516 0.213737
v -0.565082 1.000000 -0.227812
v -0.555911 0.951603 -0.179542
v -0.560497 0.993516 -0.203677
v -0.557140 0.975802 -0.186009
v -0.000004 0.000000 -1.154699
v 0.999996 0.000000 -0.577349
v 0.999996 0.000000 0.577351
v -0.000004 0.000000 1.154701
v -1.000004 0.000000 0.577351
v -1.000004 0.000000 -0.577349
v -0.000004 0.458816 -1.154699
v -0.000004 0.541184 -1.154699
v -0.000004 0.500000 -1.123596
v 0.999996 0.541184 -0.577349
v 0.999996 0.458816 -0.577349
v 0.973061 0.500000 -0.561797
v 0.999996 0.541184 0.577351
v 0.999996 0.458816 0.577351
v 0.973061 0.500000 0.561800
v -0.000004 0.541184 1.154701
v -0.000004 0.458816 1.154701
v -0.000004 0.500000 1.123599
v -1.000004 0.541184 0.577351
v -1.000004 0.458816 0.577351
v -0.973068 0.500000 0.561800
v -1.000004 0.541184 -0.577349
v -1.000004 0.458816 -0.577349
v -0.973068 0.500000 -0.561797
v 0.492673 1.000000 -0.501638
v -0.455129 1.000000 0.475002
v 0.485502 1.000000 0.479233
v -0.470365 1.000000 -0.496542
vt 1.000000 0.543391
vt 1.000000 0.975802
vt 0.833333 0.975802
vt 0.833333 0.543391
vt 0.457846 0.292364
vt 0.363153 0.310970
vt 0.363153 0.310970
vt 0.457846 0.292364
vt 0.374307 0.224050
vt 0.457846 0.207636
vt 0.457846 0.207636
vt 0.374307 0.224050
vt 0.178462 0.300439
vt 0.126367 0.280238
vt 0.126367 0.280238
vt 0.178462 0.300439
vt 0.185345 0.213938
vt 0.233820 0.203550
vt 0.233820 0.203550
vt 0.185345 0.213938
vt 0.302867 0.281904
vt 0.302867 0.281904
vt 0.318988 0.197379
vt 0.318988 0.197379
vt 0.245591 0.286054
vt 0.245591 0.286054
vt 0.136286 0.194915
vt 0.136286 0.194915
vt 0.042154 0.208029
vt 0.042154 0.208029
vt 0.042154 0.291971
vt 0.042154 0.291971
vt 0.833874 0.987901
vt 0.999460 0.987901
vt 0.997983 1.000000
vt 0.835350 1.000000
vt 0.452518 0.367428
vt 0.249860 0.484003
vt 0.249711 0.477988
vt 0.447141 0.364859
vt 0.500000 0.975802
vt 0.666667 0.975802
vt 0.666126 0.987901
vt 0.500540 0.987901
vt 0.664650 1.000000
vt 0.502016 1.000000
vt 0.249916 0.015820
vt 0.452767 0.132738
vt 0.447681 0.135514
vt 0.249823 0.021643
vt 0.333333 0.975802
vt 0.499460 0.987901
vt 0.333874 0.987901
vt 0.497983 1.000000
vt 0.335350 1.000000
vt 0.047194 0.132542
vt 0.052240 0.135079
vt -0.000000 0.975802
vt 0.166667 0.975802
vt 0.166126 0.987901
vt 0.000540 0.987901
vt 0.164650 1.000000
vt 0.002016 1.000000
vt 0.047079 0.367240
vt 0.051990 0.364448
vt 0.445606 0.303756
vt 0.369296 0.315477
vt 0.366299 0.313049
vt 0.451689 0.298099
vt 0.363191 0.310911
vt 0.455945 0.292738
vt 0.376278 0.210909
vt 0.447493 0.199610
vt 0.452665 0.203654
vt 0.375328 0.217381
vt 0.456420 0.207916
vt 0.374316 0.224007
vt 0.307115 0.299372
vt 0.305019 0.290877
vt 0.302866 0.281857
vt 0.318428 0.188960
vt 0.318601 0.193258
vt 0.319016 0.197344
vt 0.245175 0.301233
vt 0.245355 0.293727
vt 0.245603 0.286043
vt 0.237833 0.193130
vt 0.235926 0.198358
vt 0.233814 0.203549
vt 0.177152 0.309751
vt 0.177833 0.305013
vt 0.178455 0.300477
vt 0.186094 0.199879
vt 0.185736 0.206761
vt 0.185340 0.213960
vt 0.125541 0.291722
vt 0.125965 0.286022
vt 0.126367 0.280295
vt 0.133445 0.188560
vt 0.134804 0.191851
vt 0.136272 0.194933
vt 0.051610 0.300551
vt 0.046874 0.296246
vt 0.043401 0.291797
vt 0.052632 0.197496
vt 0.047404 0.202746
vt 0.043641 0.207822
vt 0.779419 1.000000
vt 0.832820 0.987906
vt 0.780402 0.996742
vt 0.831470 1.000000
vt 0.782914 1.000000
vt 0.220854 1.000000
vt 0.219930 0.996921
vt 0.167182 0.987905
vt 0.217562 1.000000
vt 0.168540 1.000000
vt 0.457846 0.130719
vt 0.457846 0.206374
vt 0.719659 0.996923
vt 0.667180 0.987906
vt 0.720581 1.000000
vt 0.279146 1.000000
vt 0.332818 0.987906
vt 0.280092 0.996855
vt 0.331460 1.000000
vt 0.282518 1.000000
vt 0.779419 1.000000
vt 0.720581 1.000000
vt 0.666667 0.543391
vt 0.500000 0.543391
vt 0.333333 0.543391
vt 0.279146 1.000000
vt 0.166667 0.543391
vt -0.000000 0.543391
vt 0.833333 0.500000
vt 1.000000 0.500000
vt 0.666667 0.500000
vt 0.500000 0.500000
vt 0.333333 0.500000
vt 0.166667 0.500000
vt -0.000000 0.500000
vt 0.426681 0.355076
vt 0.267634 0.441840
vt 0.263520 0.323607
vt 0.314699 0.326899
vt 0.379355 0.326562
vt 0.424128 0.323119
vt 0.230190 0.053829
vt 0.222401 0.175042
vt 0.186040 0.176353
vt 0.128778 0.174955
vt 0.071435 0.178711
vt 0.070824 0.144538
vt 0.422193 0.178390
vt 0.379647 0.181628
vt 0.318239 0.166522
vt 0.268183 0.167136
vt 0.273201 0.065674
vt 0.422443 0.149772
vt 0.221473 0.331099
vt 0.224423 0.431421
vt 0.075677 0.349914
vt 0.075036 0.321938
vt 0.123031 0.317834
vt 0.173067 0.332724
vt 0.220854 1.000000
vt 0.333333 0.500000
vt 0.166667 0.500000
vt 0.166667 0.500000
vt 0.333333 0.500000
vt 0.666667 0.500000
vt 0.500000 0.500000
vt 0.500000 0.500000
vt 0.666667 0.500000
vt 0.833333 0.500000
vt 0.833333 0.500000
vt -0.000000 0.500000
vt -0.000000 0.500000
vt 0.750000 0.490000
vt 0.957846 0.370000
vt 0.957846 0.130000
vt 0.750000 0.010000
vt 0.542154 0.130000
vt 0.542154 0.370000
vt 1.000000 0.500000
vt 1.000000 0.500000
vn 0.4835 -0.2546 -0.8375
vn 0.4961 0.1241 -0.8593
vn -0.0786 0.1181 0.9899
vn -0.2045 0.1302 0.9702
vn -0.2063 0.0000 0.9785
vn -0.0792 0.0000 0.9969
vn -0.1115 0.1301 -0.9852
vn -0.0133 0.1189 -0.9928
vn -0.0134 0.0000 -0.9999
vn -0.1124 0.0000 -0.9937
vn 0.2563 0.1322 0.9575
vn 0.1851 0.1305 0.9740
vn 0.1867 0.0000 0.9824
vn 0.2585 0.0000 0.9660
vn 0.0884 0.1316 -0.9874
vn -0.0014 0.1308 -0.9914
vn -0.0014 0.0000 -1.0000
vn 0.0891 0.0000 -0.9960
vn -0.1896 0.1334 0.9727
vn -0.1913 0.0000 0.9815
vn -0.1151 0.1321 -0.9845
vn -0.1161 0.0000 -0.9932
vn 0.0559 0.1324 0.9896
vn 0.0564 0.0000 0.9984
vn 0.0985 0.1301 -0.9866
vn 0.0993 0.0000 -0.9951
vn 0.0382 0.1186 -0.9922
vn 0.0385 0.0000 -0.9993
vn 0.0142 0.1189 0.9928
vn 0.0143 0.0000 0.9999
vn 0.4448 0.4566 -0.7705
vn -0.0000 0.8589 -0.5121
vn 0.4435 0.8589 -0.2561
vn -0.0000 0.9886 -0.1508
vn 0.1306 0.9886 -0.0754
vn 0.4961 0.1241 0.8593
vn 0.4448 0.4566 0.7705
vn 0.4435 0.8589 0.2561
vn 0.0000 0.8589 0.5121
vn 0.1306 0.9886 0.0754
vn 0.0000 0.9886 0.1508
vn -0.4961 0.1241 0.8593
vn -0.4448 0.4566 0.7705
vn -0.4435 0.8589 0.2561
vn -0.1306 0.9886 0.0754
vn -0.4961 0.1241 -0.8593
vn -0.4448 0.4566 -0.7705
vn -0.4435 0.8589 -0.2561
vn -0.1306 0.9886 -0.0754
vn 0.0923 0.9907 0.0999
vn -0.0289 0.9902 0.1369
vn -0.1058 0.8585 0.5018
vn 0.3131 0.8872 0.3389
vn -0.1794 0.4937 0.8509
vn -0.0719 0.4204 0.9045
vn -0.0155 0.9904 -0.1371
vn 0.0974 0.9903 -0.0987
vn 0.3298 0.8829 -0.3343
vn -0.0574 0.8599 -0.5072
vn -0.0122 0.4251 -0.9051
vn -0.0977 0.4946 -0.8636
vn -0.0225 0.9931 0.1154
vn -0.0916 0.8781 0.4696
vn -0.1641 0.5140 0.8420
vn -0.0142 0.9925 -0.1213
vn -0.0565 0.8737 -0.4832
vn -0.1000 0.5084 -0.8553
vn 0.0068 0.9926 0.1211
vn 0.0274 0.8745 0.4842
vn 0.0486 0.5095 0.8591
vn -0.0002 0.9917 -0.1289
vn -0.0007 0.8674 -0.4975
vn -0.0012 0.5015 -0.8652
vn 0.0315 0.9926 0.1176
vn 0.1256 0.8740 0.4693
vn 0.2225 0.5089 0.8316
vn 0.0111 0.9922 -0.1239
vn 0.0437 0.8716 -0.4883
vn 0.0769 0.5060 -0.8591
vn 0.0266 0.9898 0.1401
vn 0.0963 0.8566 0.5068
vn 0.1624 0.4928 0.8548
vn 0.0134 0.9908 -0.1346
vn 0.0503 0.8620 -0.5044
vn 0.0862 0.4963 -0.8639
vn -0.0974 0.9903 0.0988
vn -0.3296 0.8829 0.3343
vn 0.0129 0.4250 0.9051
vn -0.0955 0.9905 -0.0992
vn -0.3235 0.8845 -0.3362
vn 0.0349 0.4233 -0.9053
vn 0.9930 0.1181 -0.0000
vn 0.9923 0.1241 -0.0000
vn 0.8897 0.4566 -0.0000
vn 0.9073 0.4204 -0.0000
vn -0.9923 0.1241 0.0000
vn -0.9929 0.1189 0.0000
vn -0.9052 0.4250 0.0000
vn -0.8897 0.4566 0.0000
vn 0.9052 0.4251 0.0000
vn 0.9929 0.1189 0.0000
vn -0.9929 0.1186 -0.0000
vn -0.9060 0.4233 -0.0000
vn 0.9670 -0.2546 -0.0000
vn 1.0000 -0.0000 -0.0000
vn -0.4835 -0.2546 0.8375
vn -1.0000 0.0000 -0.0000
vn -0.9670 -0.2546 -0.0000
vn 0.4835 -0.2546 0.8375
vn -0.4835 -0.2546 -0.8375
vn 0.4184 -0.5474 -0.7248
vn 0.8369 -0.5474 0.0000
vn 0.4184 -0.5474 0.7248
vn -0.4184 -0.5474 0.7248
vn -0.8369 -0.5474 0.0000
vn -0.4184 -0.5474 -0.7248
vn 0.0000 1.0000 0.0000
vn -0.9670 0.2546 0.0000
vn 0.4835 0.2546 0.8375
vn 0.5000 0.0000 0.8660
vn 0.9670 0.2546 0.0000
vn -0.4835 0.2546 -0.8375
vn -0.5000 0.0000 -0.8660
vn -0.4835 0.2546 0.8375
vn -0.5000 0.0000 0.8660
vn 0.0000 -1.0000 0.0000
vn 0.4184 0.5474 -0.7248
vn 0.4835 0.2546 -0.8375
vn 0.8369 0.5474 0.0000
vn 0.4184 0.5474 0.7248
vn -0.4184 0.5474 0.7248
vn -0.8369 0.5474 0.0000
vn -0.4184 0.5474 -0.7248
vn 0.5000 0.0000 -0.8660
usemtl Beige
s 1
f 102/1/1 16/2/2 20/3/2 104/4/1
s 3
f 39/5/3 60/6/4 6/7/5 1/8/6
s 6
f 55/9/7 44/10/8 2/11/9 5/12/10
s 7
f 84/13/11 92/14/12 14/15/13 12/16/14
s 8
f 79/17/15 71/18/16 9/19/17 11/20/18
s 9
f 60/6/4 68/21/19 8/22/20 6/7/5
s 17
f 64/23/21 55/9/7 5/12/10 7/24/22
s 18
f 68/21/19 76/25/23 10/26/24 8/22/20
s 19
f 87/27/25 79/17/15 11/20/18 13/28/26
s 20
f 47/29/27 87/27/25 13/28/26 3/30/28
s 21
f 92/14/12 52/31/29 4/32/30 14/15/13
s 22
f 71/18/16 64/23/21 7/24/22 9/19/17
s 23
f 76/25/23 84/13/11 12/16/14 10/26/24
s 25
f 22/33/31 18/34/31 17/35/32 21/36/33
s 26
f 21/37/33 17/38/32 15/39/34 19/40/35
s 27
f 28/41/36 24/42/36 26/43/37 30/44/37
s 28
f 30/44/37 26/43/37 25/45/38 29/46/39
s 29
f 29/47/39 25/48/38 23/49/40 27/50/41
s 30
f 32/51/42 28/41/42 30/52/43 34/53/43
s 31
f 34/53/43 30/52/43 29/54/39 33/55/44
s 32
f 33/56/44 29/47/39 27/50/41 31/57/45
s 33
f 16/58/46 36/59/46 38/60/47 18/61/47
s 34
f 18/61/47 38/60/47 37/62/48 17/63/32
s 35
f 17/38/32 37/64/48 35/65/49 15/39/34
s 36
f 40/66/50 59/67/51 61/68/52 42/69/53
s 37
f 42/69/53 61/68/52 62/70/54 41/71/55
s 38
f 41/71/55 62/70/54 60/6/4 39/5/3
s 39
f 56/72/56 43/73/57 45/74/58 58/75/59
s 40
f 58/75/59 45/74/58 46/76/60 57/77/61
s 41
f 57/77/61 46/76/60 44/10/8 55/9/7
s 42
f 59/67/51 67/78/62 69/79/63 61/68/52
s 43
f 61/68/52 69/79/63 70/80/64 62/70/54
s 44
f 62/70/54 70/80/64 68/21/19 60/6/4
s 45
f 63/81/65 56/72/56 58/75/59 65/82/66
s 46
f 65/82/66 58/75/59 57/77/61 66/83/67
s 47
f 66/83/67 57/77/61 55/9/7 64/23/21
s 48
f 67/78/62 75/84/68 77/85/69 69/79/63
s 49
f 69/79/63 77/85/69 78/86/70 70/80/64
s 50
f 70/80/64 78/86/70 76/25/23 68/21/19
s 51
f 72/87/71 63/81/65 65/82/66 74/88/72
s 52
f 74/88/72 65/82/66 66/83/67 73/89/73
s 53
f 73/89/73 66/83/67 64/23/21 71/18/16
s 54
f 75/84/68 83/90/74 85/91/75 77/85/69
s 55
f 77/85/69 85/91/75 86/92/76 78/86/70
s 56
f 78/86/70 86/92/76 84/13/11 76/25/23
s 57
f 80/93/77 72/87/71 74/88/72 82/94/78
s 58
f 82/94/78 74/88/72 73/89/73 81/95/79
s 59
f 81/95/79 73/89/73 71/18/16 79/17/15
s 60
f 83/90/74 91/96/80 93/97/81 85/91/75
s 61
f 85/91/75 93/97/81 94/98/82 86/92/76
s 62
f 86/92/76 94/98/82 92/14/12 84/13/11
s 63
f 88/99/83 80/93/77 82/94/78 90/100/84
s 64
f 90/100/84 82/94/78 81/95/79 89/101/85
s 65
f 89/101/85 81/95/79 79/17/15 87/27/25
s 66
f 91/96/80 51/102/86 53/103/87 93/97/81
s 67
f 93/97/81 53/103/87 54/104/88 94/98/82
s 68
f 94/98/82 54/104/88 52/31/29 92/14/12
s 69
f 48/105/89 88/99/83 90/100/84 50/106/90
s 70
f 50/106/90 90/100/84 89/101/85 49/107/91
s 71
f 49/107/91 89/101/85 87/27/25 47/29/27
s 72
f 39/108/92 20/3/93 22/109/94 41/110/95
s 73
f 41/110/95 22/109/94 21/111/33 42/112/53
s 74
f 42/69/53 21/37/33 19/40/35 40/66/50
s 75
f 36/59/96 52/113/97 54/114/98 38/115/99
s 76
f 38/115/99 54/114/98 53/116/87 37/117/48
s 77
f 37/64/48 53/103/87 51/102/86 35/65/49
s 78
f 43/73/57 23/49/40 25/48/38 45/74/58
s 79
f 45/74/58 25/48/38 26/118/94 46/119/100
s 80
f 46/120/100 26/121/94 24/42/93 44/122/101
s 81
f 47/123/102 32/51/96 34/124/99 49/125/103
s 82
f 49/125/103 34/124/99 33/126/44 50/127/90
s 83
f 50/106/90 33/56/44 31/57/45 48/105/89
s 84
f 104/4/104 1/128/105 2/129/105 107/130/104
s 85
f 20/3/2 16/2/2 18/34/31 22/33/31
s 87
f 110/131/106 28/41/42 32/51/42 113/132/106
s 88
f 39/108/92 1/128/105 104/4/104 20/3/93
s 89
f 47/123/102 3/133/107 113/132/108 32/51/96
s 90
f 107/130/109 24/42/36 28/41/36 110/131/109
s 91
f 116/134/110 36/59/46 16/58/46 102/135/110
s 92
f 102/1/1 104/4/1 106/136/111 103/137/111
s 94
f 104/4/104 107/130/104 109/138/112 106/136/112
s 96
f 107/130/109 110/131/109 112/139/113 109/138/113
s 98
f 110/131/106 113/132/106 115/140/114 112/139/114
s 100
f 113/132/108 116/134/108 118/141/115 115/140/115
s 102
f 116/134/110 102/135/110 103/142/116 118/141/116
s 105
f 107/130/104 2/129/105 44/122/101 24/42/93
s 106
f 19/40/35 15/39/34 119/143/117
s 107
f 15/39/34 75/84/68 119/144/117
s 108
f 75/84/68 67/78/62 119/145/117
s 109
f 67/78/62 59/67/51 119/146/117
s 110
f 59/67/51 40/66/50 119/147/117
s 111
f 40/66/50 19/40/35 119/148/117
s 112
f 27/50/41 72/87/71 120/149/117
s 113
f 72/87/71 80/93/77 120/150/117
s 114
f 80/93/77 88/99/83 120/151/117
s 115
f 88/99/83 48/105/89 120/152/117
s 116
f 48/105/89 31/57/45 120/153/117
s 117
f 31/57/45 27/50/41 120/154/117
s 118
f 43/73/57 56/72/56 121/155/117
s 119
f 56/72/56 63/81/65 121/156/117
s 120
f 63/81/65 72/87/71 121/157/117
s 121
f 72/87/71 27/50/41 121/158/117
s 122
f 27/50/41 23/49/40 121/159/117
s 123
f 23/49/40 43/73/57 121/160/117
s 124
f 75/84/68 15/39/34 122/161/117
s 125
f 15/39/34 35/65/49 122/162/117
s 126
f 35/65/49 51/102/86 122/163/117
s 127
f 51/102/86 91/96/80 122/164/117
s 128
f 91/96/80 83/90/74 122/165/117
s 129
f 83/90/74 75/84/68 122/166/117
s 130
f 113/132/108 3/133/107 4/167/107 116/134/108
s 131
f 116/134/108 4/167/107 52/113/97 36/59/96
usemtl BrownDark
s 2
f 114/168/118 117/169/118 100/170/107 99/171/107
s 4
f 108/172/119 111/173/119 98/174/120 97/175/120
s 5
f 105/176/121 108/172/121 97/175/105 96/177/105
s 10
f 117/169/122 101/178/122 95/179/123 100/170/123
s 24
f 111/173/124 114/168/124 99/171/125 98/174/125
s 86
f 95/180/126 96/181/126 97/182/126 98/183/126 99/184/126 100/185/126
s 93
f 103/137/127 106/136/127 105/176/128 101/186/128
s 95
f 106/136/129 109/138/129 108/172/121 105/176/121
s 97
f 109/138/130 112/139/130 111/173/119 108/172/119
s 99
f 112/139/131 115/140/131 114/168/124 111/173/124
s 101
f 115/140/132 118/141/132 117/169/118 114/168/118
s 103
f 118/141/133 103/142/133 101/178/122 117/169/122
s 104
f 101/186/128 105/176/128 96/177/134 95/187/134
usemtl Brown
s 11
f 1/8/117 6/7/117 5/12/117 2/11/117
s 12
f 6/7/117 8/22/117 7/24/117 5/12/117
s 13
f 8/22/117 10/26/117 9/19/117 7/24/117
s 14
f 10/26/117 12/16/117 11/20/117 9/19/117
s 15
f 12/16/117 14/15/117 13/28/117 11/20/117
s 16
f 14/15/117 4/32/117 3/30/117 13/28/117
