# Blender v2.80 (sub 75) OBJ File: 'TilesExport.blend'
# www.blender.org
mtllib hex_forest_waterC_detail.mtl
o hex_forest_waterC_detail_Cylinder.479
v 0.000000 0.000000 -1.154700
v 1.000000 0.000000 -0.577350
v 1.000000 0.000000 0.577350
v -0.000000 0.000000 1.154700
v -1.000000 0.000000 0.577350
v -1.000000 0.000000 -0.577350
v 0.000000 0.458816 -1.154700
v -0.000000 0.500000 -1.123598
v 1.000000 0.458816 -0.577350
v 0.973064 0.500000 -0.561799
v 1.000000 0.458816 0.577350
v 0.973064 0.500000 0.561799
v -0.000000 0.458816 1.154700
v -0.000000 0.500000 1.123598
v -1.000000 0.458816 0.577350
v -0.973064 0.500000 0.561799
v -1.000000 0.458816 -0.577350
v -0.973064 0.500000 -0.561799
v 0.000000 0.541184 -1.154700
v -0.000000 0.500000 -1.123598
v 1.000000 0.541184 -0.577350
v 0.973064 0.500000 -0.561799
v 1.000000 0.541184 0.577350
v 0.973064 0.500000 0.561799
v -0.000000 0.541184 1.154700
v -0.000000 0.500000 1.123598
v -0.000000 0.500000 1.123598
v -0.000000 0.541184 1.154700
v -0.000000 0.500000 -1.123598
v 0.000000 0.541184 -1.154700
v -1.000000 0.541184 0.577350
v -0.973064 0.500000 0.561799
v -1.000000 0.541184 -0.577350
v -0.973064 0.500000 -0.561799
v 0.000000 0.901184 -1.154700
v -0.000000 0.901184 1.154700
v -1.000000 0.901184 0.577350
v -1.000000 0.901184 -0.577350
v -0.973064 0.500000 -0.374532
v -0.973064 0.500000 -0.187266
v -0.973064 0.500000 0.000000
v -0.973064 0.500000 0.187266
v -0.973064 0.500000 0.374532
v -1.000000 0.541184 0.384900
v -1.000000 0.541184 0.192450
v -1.000000 0.541184 -0.000000
v -1.000000 0.541184 -0.192450
v -1.000000 0.541184 -0.384900
v -1.000000 0.901184 0.384900
v -1.000000 0.901184 0.192450
v -1.000000 0.901184 -0.000000
v -1.000000 0.901184 -0.192450
v -1.000000 0.901184 -0.384900
v -0.021946 0.901184 -0.769800
v 0.083396 0.901184 -0.420014
v 0.237020 0.901184 -0.087785
v 0.245799 0.901184 0.433182
v 0.057060 0.901184 0.778579
v 1.000000 0.541184 -0.384900
v 1.000000 0.541184 -0.192450
v 1.000000 0.541184 0.000000
v 1.000000 0.541184 0.192450
v 1.000000 0.541184 0.384900
v 0.973064 0.500000 0.374533
v 0.973064 0.500000 0.187266
v 0.973064 0.500000 -0.000000
v 0.973064 0.500000 -0.187266
v 0.973064 0.500000 -0.374533
v -0.021946 0.500000 -0.749065
v 0.083396 0.500000 -0.409647
v 0.237020 0.500000 -0.087785
v 0.245799 0.500000 0.422815
v 0.057060 0.500000 0.757844
v -0.021946 0.541184 -0.769800
v 0.083396 0.541184 -0.420014
v 0.237020 0.541184 -0.087785
v 0.245799 0.541184 0.433182
v 0.057060 0.541184 0.778579
v 0.052966 1.001184 -1.066385
v 0.000000 0.951184 -1.154700
v 0.026483 0.994485 -1.110543
v 0.007096 0.976184 -1.142868
v 0.950000 1.001184 -0.548482
v 1.000000 0.951184 -0.577350
v 0.975000 0.994485 -0.562916
v 0.993301 0.976184 -0.573483
v 0.950000 1.001184 0.548483
v 1.000000 0.951184 0.577350
v 0.975000 0.994485 0.562916
v 0.993301 0.976184 0.573483
v 0.067511 1.001184 1.057987
v -0.000000 0.951184 1.154700
v 0.033755 0.994485 1.106344
v 0.009045 0.976184 1.141743
v 0.950000 1.001184 -0.403732
v 1.000000 0.951184 -0.384900
v 0.975000 0.994485 -0.394316
v 0.993301 0.976184 -0.387423
v 0.950000 1.001184 -0.204863
v 1.000000 0.951184 -0.192450
v 0.975000 0.994485 -0.198657
v 0.993301 0.976184 -0.194113
v 0.950000 1.001184 -0.005753
v 1.000000 0.951184 0.000000
v 0.975000 0.994485 -0.002876
v 0.993301 0.976184 -0.000771
v 0.950000 1.001184 0.208409
v 1.000000 0.951184 0.192450
v 0.975000 0.994485 0.200430
v 0.993301 0.976184 0.194588
v 1.000000 0.951184 0.384900
v 0.950000 1.001184 0.405775
v 0.993301 0.976184 0.387697
v 0.975000 0.994485 0.395338
v -0.021946 0.951184 -0.769800
v 0.035146 1.001184 -0.748297
v -0.014297 0.976184 -0.766919
v 0.006600 0.994485 -0.759048
v 0.083396 0.951184 -0.420014
v 0.138909 1.001184 -0.406232
v 0.090833 0.976184 -0.418168
v 0.111152 0.994485 -0.413123
v 0.237020 0.951184 -0.087785
v 0.289544 1.001184 -0.081742
v 0.244057 0.976184 -0.086976
v 0.263282 0.994485 -0.084764
v 0.245799 0.951184 0.433182
v 0.298328 1.001184 0.416415
v 0.252836 0.976184 0.430936
v 0.272064 0.994485 0.424799
v 0.113569 1.001184 0.754986
v 0.057060 0.951184 0.778579
v 0.085315 0.994485 0.766782
v 0.064631 0.976184 0.775418
vt 0.000000 0.000000
vt 0.000000 0.000000
vt 0.000000 0.000000
vt 0.000000 0.000000
vt 1.000000 0.541184
vt 0.833333 0.541184
vt 0.833333 0.500000
vt 1.000000 0.500000
vt 0.694444 0.541184
vt 0.666667 0.541184
vt 0.666667 0.500000
vt 0.694444 0.500000
vt 0.500000 0.541184
vt 0.500000 0.500000
vt 0.694444 0.541184
vt 0.666667 0.541184
vt 0.805556 0.541184
vt 0.805555 0.541184
vt 0.777778 0.541184
vt 0.777778 0.541184
vt 0.000000 0.000000
vt 0.000000 0.000000
vt 0.000000 0.000000
vt 0.000000 0.000000
vt 0.500000 0.541184
vt 0.000000 0.000000
vt 0.000000 0.000000
vt 1.000000 0.541184
vt 0.833333 0.541184
vt 0.750000 0.541184
vt 0.750000 0.541184
vt 0.722222 0.541184
vt 0.722222 0.541184
vt 0.000000 0.000000
vt 0.000000 0.000000
vt 0.041617 0.032432
vt 0.038948 0.031461
vt 0.639096 0.513218
vt 0.657621 0.512487
vt 0.045004 0.030234
vt 0.047105 0.032776
vt 0.735351 0.511663
vt 0.766143 0.514706
vt 0.051631 0.037255
vt 0.700851 0.505719
vt 0.050302 0.037693
vt 0.674342 0.505306
vt 0.000000 0.000000
vt 0.000000 0.000000
vt 0.000000 0.000000
vt 0.000000 0.000000
vt 0.805555 0.500000
vt 0.777778 0.500000
vt 0.750000 0.500000
vt 0.722222 0.500000
vt 0.000000 0.000000
vt 0.000000 0.000000
vt 0.000000 0.000000
vt 0.000000 0.000000
vt 0.000000 0.000000
vt 0.046464 0.030338
vt 0.785357 0.514443
vt 0.809249 0.527798
vt 0.023255 0.015172
vt 0.830542 0.539371
vt 0.008705 0.005653
vt 0.998259 0.541184
vt 0.833892 0.541184
vt 0.653006 0.527245
vt 0.676033 0.526836
vt 0.667225 0.541184
vt 0.694041 0.541184
vt 0.019447 0.015721
vt 0.008263 0.006708
vt 0.664434 0.539371
vt 0.666108 0.541184
vt 0.502066 0.541184
vt 0.000000 0.000000
vt 0.000000 0.000000
vt 0.020809 0.016216
vt 0.785849 0.527945
vt 0.805920 0.541184
vt 0.832775 0.541184
vt 0.756564 0.526424
vt 0.778018 0.541184
vt 0.725425 0.523451
vt 0.750111 0.541184
vt 0.698282 0.523245
vt 0.721914 0.541184
vt 0.000000 0.000000
vt 0.000000 0.000000
vt 0.022502 0.015117
vt 0.000000 0.000000
vt 0.023553 0.016388
vt 0.000000 0.000000
vt 0.025815 0.018628
vt 0.000000 0.000000
vt 0.025151 0.018847
vt 0.833333 0.500000
vt 0.666667 0.500000
vt 0.666667 0.500000
vt 0.833333 0.500000
vt 0.500000 0.500000
vt 0.500000 0.500000
vt 0.333333 0.500000
vt 0.333333 0.500000
vt 0.166667 0.500000
vt 0.166667 0.500000
vt -0.000000 0.500000
vt -0.000000 0.500000
vt 0.750000 0.490000
vt 0.957846 0.370000
vt 0.957846 0.130000
vt 0.750000 0.010000
vt 0.542154 0.130000
vt 0.542154 0.370000
vt 0.000000 0.000000
vt 0.000000 0.000000
vt 0.000000 0.000000
vt 0.000000 0.000000
vt 1.000000 0.500000
vt 0.833333 0.500000
vt 1.000000 0.500000
vt 0.666667 0.500000
vt 0.500000 0.500000
vt 0.333333 0.500000
vt 0.166667 0.500000
vt -0.000000 0.500000
vt 1.000000 0.500000
vt 0.000000 0.000000
vt 0.000000 0.000000
vt 0.194444 0.541184
vt 0.166667 0.541184
vt 0.166667 0.500000
vt 0.194444 0.500000
vt 0.000000 0.000000
vt 0.000000 0.000000
vt 0.000000 0.000000
vt 0.000000 0.000000
vt -0.000000 0.541184
vt -0.000000 0.500000
vt 0.166667 0.541184
vt -0.000000 0.541184
vt 0.500000 0.541184
vt 0.333333 0.541184
vt 0.333333 0.500000
vt 0.500000 0.500000
vt 0.500000 0.541184
vt 0.333333 0.541184
vt 0.305555 0.541184
vt 0.305555 0.541184
vt 0.194444 0.541184
vt 0.222222 0.541184
vt 0.222222 0.541184
vt 0.250000 0.541184
vt 0.250000 0.541184
vt 0.277778 0.541184
vt 0.277778 0.541184
vt 0.000000 0.000000
vt 0.000000 0.000000
vt 0.000000 0.000000
vt 0.000000 0.000000
vt 0.000000 0.000000
vt 0.000000 0.000000
vt 0.000000 0.000000
vt 0.000000 0.000000
vt 0.000000 0.000000
vt 0.000000 0.000000
vt 0.305555 0.500000
vt 0.277778 0.500000
vt 0.250000 0.500000
vt 0.222222 0.500000
vn -0.9837 0.0590 0.1701
vn -0.9957 0.0080 0.0924
vn -0.9983 -0.0135 -0.0572
vn -0.9977 -0.0363 -0.0577
vn 0.4835 -0.2546 -0.8375
vn 0.4184 -0.5474 -0.7248
vn 0.9584 -0.2856 0.0000
vn 0.9670 -0.2546 0.0000
vn 0.8369 -0.5474 0.0000
vn 0.4835 -0.2546 0.8375
vn 0.4184 -0.5474 0.7248
vn 0.9914 0.1305 0.0000
vn 0.9923 0.1241 0.0000
vn -0.9525 0.0648 -0.2974
vn -0.9879 0.0355 -0.1507
vn -0.9826 0.1104 -0.1491
vn -0.9439 0.1210 -0.3072
vn 0.4961 0.1241 0.8593
vn 0.4972 0.1055 0.8612
vn -0.9841 0.1399 0.1092
vn -0.9902 0.1276 -0.0564
vn 0.4970 0.1095 -0.8608
vn 0.4961 0.1241 -0.8593
vn -0.9349 0.0431 0.3522
vn -0.9291 0.1228 0.3489
vn -0.1556 0.9854 -0.0687
vn -0.0503 0.9953 0.0824
vn 0.1306 0.9886 0.0754
vn 0.1305 0.9914 0.0000
vn -0.1360 0.9904 0.0247
vn -0.1359 0.9891 0.0561
vn -0.1105 0.9937 0.0212
vn -0.1101 0.9937 -0.0188
vn -0.9744 0.0131 0.2245
vn -0.9649 0.1317 0.2273
vn -0.9646 0.0530 -0.2585
vn -0.9604 0.1235 -0.2498
vn -0.9839 0.0952 -0.1513
vn -0.9184 0.1519 -0.3653
vn -0.9763 0.0787 -0.2017
vn -0.9738 0.0262 0.2259
vn -0.9264 0.0777 0.3684
vn -0.0375 0.9942 -0.1009
vn 0.1306 0.9886 -0.0754
vn 0.4435 0.8589 -0.2561
vn -0.1516 0.9270 -0.3431
vn 0.4448 0.4566 -0.7705
vn 0.4625 0.3801 -0.8010
vn 0.4435 0.8589 0.2561
vn 0.5000 0.8660 0.0000
vn 0.8897 0.4566 0.0000
vn 0.8660 0.5000 0.0000
vn -0.1844 0.9400 0.2870
vn 0.4653 0.3658 0.8060
vn 0.4448 0.4566 0.7705
vn -0.9142 0.3809 -0.1387
vn -0.8391 0.4686 -0.2763
vn -0.5205 0.8309 -0.1966
vn -0.8509 0.5162 0.0975
vn -0.8992 0.4345 -0.0512
vn -0.4928 0.8673 0.0712
vn -0.8228 0.4769 0.3092
vn -0.4939 0.8478 0.1929
vn -0.8356 0.5111 0.2012
vn -0.4633 0.8799 0.1055
vn -0.8425 0.4874 -0.2293
vn -0.4758 0.8715 -0.1184
vn 0.9670 0.2546 0.0000
vn 1.0000 0.0000 0.0000
vn 0.4835 0.2546 0.8375
vn 0.5000 0.0000 0.8660
vn -0.4835 0.2546 0.8375
vn -0.5000 0.0000 0.8660
vn -0.9670 0.2546 0.0000
vn -1.0000 0.0000 0.0000
vn -0.4835 0.2546 -0.8375
vn -0.5000 0.0000 -0.8660
vn 0.0000 -1.0000 0.0000
vn 0.0000 1.0000 -0.0000
vn 0.4184 0.5474 -0.7248
vn 0.4835 0.2546 -0.8375
vn 0.8369 0.5474 0.0000
vn 0.4184 0.5474 0.7248
vn -0.4184 0.5474 0.7248
vn -0.8369 0.5474 0.0000
vn -0.4184 0.5474 -0.7248
vn 0.5000 0.0000 -0.8660
vn -0.9584 -0.2856 0.0000
vn -0.9670 -0.2546 0.0000
vn -0.8369 -0.5474 0.0000
vn -0.4835 -0.2546 -0.8375
vn -0.4184 -0.5474 -0.7248
vn -0.4835 -0.2546 0.8375
vn -0.4184 -0.5474 0.7248
usemtl Green
s 16
f 69/1/1 74/2/2 19/3/3 20/4/4
s 17
f 19/5/5 21/6/5 22/7/6 20/8/6
s 18
f 63/9/7 23/10/8 24/11/9 64/12/9
s 19
f 23/10/10 25/13/10 26/14/11 24/11/11
s 20
f 63/9/7 111/15/12 88/16/13 23/10/8
s 21
f 59/17/7 96/18/12 100/19/12 60/20/7
s 22
f 78/21/14 25/22/15 92/23/16 132/24/17
s 24
f 25/13/10 23/10/10 88/16/18 92/25/19
s 29
f 19/3/3 74/2/2 115/26/20 80/27/21
s 47
f 19/5/5 80/28/22 84/29/23 21/6/5
s 48
f 60/20/7 100/19/12 104/30/12 61/31/7
s 49
f 61/31/7 104/30/12 108/32/12 62/33/7
s 50
f 62/33/7 108/32/12 111/15/12 63/9/7
s 51
f 74/2/2 75/34/24 119/35/25 115/26/20
s 52
f 131/36/26 91/37/27 87/38/28 112/39/29
s 53
f 116/40/30 120/41/31 99/42/29 95/43/29
s 54
f 120/41/31 124/44/32 103/45/29 99/42/29
s 55
f 124/44/32 128/46/33 107/47/29 103/45/29
s 56
f 128/46/33 131/36/26 112/39/29 107/47/29
s 57
f 21/6/8 84/29/13 96/18/12 59/17/7
s 58
f 75/34/24 76/48/34 123/49/35 119/35/25
s 59
f 76/48/34 77/50/36 127/51/37 123/49/35
s 60
f 77/50/36 78/21/14 132/24/17 127/51/37
s 61
f 21/6/8 59/17/7 68/52/9 22/7/9
s 62
f 59/17/7 60/20/7 67/53/9 68/52/9
s 63
f 60/20/7 61/31/7 66/54/9 67/53/9
s 64
f 61/31/7 62/33/7 65/55/9 66/54/9
s 65
f 62/33/7 63/9/7 64/12/9 65/55/9
s 66
f 26/56/38 25/22/15 78/21/14 73/57/39
s 67
f 73/57/39 78/21/14 77/50/36 72/58/40
s 68
f 72/58/40 77/50/36 76/48/34 71/59/41
s 69
f 71/59/41 76/48/34 75/34/24 70/60/42
s 70
f 70/60/42 75/34/24 74/2/2 69/1/1
s 71
f 79/61/43 83/62/44 85/63/45 81/64/46
s 72
f 81/64/46 85/63/45 86/65/47 82/66/48
s 73
f 82/67/48 86/68/47 84/29/23 80/28/22
s 74
f 112/39/29 87/38/28 89/69/49 114/70/50
s 75
f 114/70/50 89/69/49 90/71/51 113/72/52
s 76
f 113/72/52 90/71/51 88/16/13 111/15/12
s 77
f 87/38/28 91/37/27 93/73/53 89/69/49
s 78
f 89/69/49 93/73/53 94/74/54 90/75/55
s 79
f 90/76/55 94/77/54 92/25/19 88/16/18
s 80
f 132/24/17 92/23/16 94/78/56 134/79/57
s 81
f 134/79/57 94/78/56 93/73/53 133/80/58
s 82
f 133/80/58 93/73/53 91/37/27 131/36/26
s 83
f 83/62/44 95/43/29 97/81/50 85/63/45
s 84
f 85/63/45 97/81/50 98/82/52 86/83/51
s 85
f 86/83/51 98/82/52 96/18/12 84/29/13
s 86
f 95/43/29 99/42/29 101/84/50 97/81/50
s 87
f 97/81/50 101/84/50 102/85/52 98/82/52
s 88
f 98/82/52 102/85/52 100/19/12 96/18/12
s 89
f 99/42/29 103/45/29 105/86/50 101/84/50
s 90
f 101/84/50 105/86/50 106/87/52 102/85/52
s 91
f 102/85/52 106/87/52 104/30/12 100/19/12
s 92
f 103/45/29 107/47/29 109/88/50 105/86/50
s 93
f 105/86/50 109/88/50 110/89/52 106/87/52
s 94
f 106/87/52 110/89/52 108/32/12 104/30/12
s 95
f 107/47/29 112/39/29 114/70/50 109/88/50
s 96
f 109/88/50 114/70/50 113/72/52 110/89/52
s 97
f 110/89/52 113/72/52 111/15/12 108/32/12
s 98
f 80/27/21 115/26/20 117/90/59 82/91/60
s 99
f 82/91/60 117/90/59 118/92/61 81/64/46
s 100
f 81/64/46 118/92/61 116/40/30 79/61/43
s 101
f 115/26/20 119/35/25 121/93/62 117/90/59
s 102
f 117/90/59 121/93/62 122/94/63 118/92/61
s 103
f 118/92/61 122/94/63 120/41/31 116/40/30
s 104
f 119/35/25 123/49/35 125/95/64 121/93/62
s 105
f 121/93/62 125/95/64 126/96/65 122/94/63
s 106
f 122/94/63 126/96/65 124/44/32 120/41/31
s 107
f 123/49/35 127/51/37 129/97/66 125/95/64
s 108
f 125/95/64 129/97/66 130/98/67 126/96/65
s 109
f 126/96/65 130/98/67 128/46/33 124/44/32
s 110
f 127/51/37 132/24/17 134/79/57 129/97/66
s 111
f 129/97/66 134/79/57 133/80/58 130/98/67
s 112
f 130/98/67 133/80/58 131/36/26 128/46/33
s 113
f 79/61/43 116/40/30 95/43/29 83/62/44
usemtl BrownDark
s 1
f 9/99/68 11/100/68 3/101/69 2/102/69
s 2
f 11/100/70 13/103/70 4/104/71 3/101/71
s 3
f 13/103/72 15/105/72 5/106/73 4/104/73
s 4
f 15/105/74 17/107/74 6/108/75 5/106/75
s 5
f 17/107/76 7/109/76 1/110/77 6/108/77
s 6
f 1/111/78 2/112/78 3/113/78 4/114/78 5/115/78 6/116/78
s 7
f 12/117/79 10/118/79 8/119/79 14/120/79
s 8
f 8/121/80 10/122/80 9/99/81 7/123/81
s 9
f 10/122/82 12/124/82 11/100/68 9/99/68
s 10
f 12/124/83 14/125/83 13/103/70 11/100/70
s 11
f 14/125/84 16/126/84 15/105/72 13/103/72
s 12
f 16/126/85 18/127/85 17/107/74 15/105/74
s 13
f 18/127/86 8/128/86 7/109/76 17/107/76
s 14
f 7/123/81 9/99/81 2/102/87 1/129/87
s 15
f 14/120/79 8/119/79 18/130/79 16/131/79
usemtl Water
s 23
f 48/132/88 33/133/89 34/134/90 39/135/90
s 25
f 54/136/79 35/137/79 38/138/79 53/139/79
s 26
f 33/133/91 30/140/91 29/141/92 34/134/92
s 27
f 30/140/91 33/133/91 38/142/77 35/143/77
s 28
f 28/144/93 31/145/93 32/146/94 27/147/94
s 30
f 31/145/93 28/144/93 36/148/73 37/149/73
s 31
f 44/150/88 31/145/89 37/149/75 49/151/75
s 32
f 33/133/89 48/132/88 53/152/75 38/142/75
s 33
f 48/132/88 47/153/88 52/154/75 53/152/75
s 34
f 47/153/88 46/155/88 51/156/75 52/154/75
s 35
f 46/155/88 45/157/88 50/158/75 51/156/75
s 36
f 45/157/88 44/150/88 49/151/75 50/158/75
s 37
f 36/159/79 58/160/79 49/161/79 37/162/79
s 38
f 58/160/79 57/163/79 50/164/79 49/161/79
s 39
f 57/163/79 56/165/79 51/166/79 50/164/79
s 40
f 56/165/79 55/167/79 52/168/79 51/166/79
s 41
f 55/167/79 54/136/79 53/139/79 52/168/79
s 42
f 31/145/89 44/150/88 43/169/90 32/146/90
s 43
f 44/150/88 45/157/88 42/170/90 43/169/90
s 44
f 45/157/88 46/155/88 41/171/90 42/170/90
s 45
f 46/155/88 47/153/88 40/172/90 41/171/90
s 46
f 47/153/88 48/132/88 39/135/90 40/172/90
