# Blender v2.80 (sub 75) OBJ File: 'TilesExport.blend'
# www.blender.org
mtllib hex_forest_transitionA.mtl
o hex_forest_transitionA_Cylinder.815
v 0.000000 0.000000 -1.154700
v 1.000000 0.000000 -0.577350
v 1.000000 0.000000 0.577350
v -0.000000 0.000000 1.154700
v -1.000000 0.000000 0.577350
v -1.000000 0.000000 -0.577350
v 0.000000 0.458816 -1.154700
v 0.000000 0.541184 -1.154700
v -0.000000 0.500000 -1.123598
v 1.000000 0.541184 -0.577350
v 1.000000 0.458816 -0.577350
v 0.973064 0.500000 -0.561799
v 1.000000 0.541184 0.577350
v 1.000000 0.458816 0.577350
v 0.973064 0.500000 0.561799
v -0.000000 0.541184 1.154700
v -0.000000 0.458816 1.154700
v -0.000000 0.500000 1.123598
v -1.000000 0.541184 0.577350
v -1.000000 0.458816 0.577350
v -0.973064 0.500000 0.561799
v -1.000000 0.541184 -0.577350
v -1.000000 0.458816 -0.577350
v -0.973064 0.500000 -0.561799
v 0.000000 0.950000 -1.154700
v 0.000000 0.975000 -1.146965
v 0.000000 0.993301 -1.125833
v 1.000000 0.950000 -0.577350
v 0.975000 0.993301 -0.562916
v 0.993301 0.975000 -0.573483
v 1.000000 0.950000 0.577350
v 0.975000 0.993301 0.562916
v 0.993301 0.975000 0.573483
v -0.000000 0.950000 1.154700
v -0.000000 0.993301 1.125833
v -0.000000 0.975000 1.146965
v -1.000000 0.950000 0.577350
v -0.975000 0.993301 0.562916
v -0.993301 0.975000 0.573482
v -1.000000 0.950000 -0.577350
v -0.975000 0.993301 -0.562916
v -0.993301 0.975000 -0.573482
v 0.000000 1.000000 -1.099788
v 0.950000 1.000000 -0.548482
v 0.950000 1.000000 0.548483
v -0.000000 1.000000 1.094142
v -0.950000 1.000000 0.548482
v -0.950000 1.000000 -0.548482
v 0.798800 1.000000 -0.461187
v 0.798800 1.000000 0.461187
v -0.798800 1.000000 0.461187
v -0.798800 1.000000 -0.461187
v 0.635683 1.000000 -0.367012
v 0.635683 1.000000 0.367012
v -0.635683 1.000000 0.367012
v -0.635683 1.000000 -0.367012
v 0.484767 1.000000 -0.279880
v 0.484767 1.000000 0.279880
v -0.369525 1.000000 0.151871
v -0.365251 1.000000 -0.185360
v 0.342304 1.000000 -0.197629
v 0.342304 1.000000 0.197629
v 0.225125 1.028028 -0.129975
v 0.225125 1.000000 0.129975
v 0.125906 1.038802 -0.072691
v 0.125906 1.000000 0.072691
v -0.118306 1.000000 -0.002823
v 0.066683 1.024894 0.012010
v 0.000218 0.937196 0.003518
v -0.112784 1.000000 -0.890317
v 0.057768 1.000000 -0.889022
v -0.000775 0.937196 -0.902389
v 0.057245 1.000000 0.889323
v -0.105738 1.000000 0.888738
v 0.001135 0.937196 0.903669
v -0.216524 1.000000 -0.692892
v -0.040119 1.000000 -0.704150
v -0.101252 0.937196 -0.712400
v 0.057103 1.000000 0.701055
v -0.105441 1.000000 0.700559
v 0.001181 0.937196 0.715393
v -0.116137 1.000000 -0.518423
v 0.063769 1.000000 -0.522944
v 0.000000 0.937196 -0.536043
v -0.040399 1.068827 0.531234
v -0.218427 1.000000 0.431157
v -0.102078 0.937196 0.534156
v -0.117235 1.000000 -0.306497
v 0.063287 1.000000 -0.358719
v -0.000327 0.937196 -0.378187
v -0.040270 1.068827 0.368570
v -0.101667 0.937196 0.379192
v -0.131661 0.945759 -0.141186
v 0.063004 1.038802 -0.223576
v -0.000681 0.937196 -0.241648
v 0.067645 1.000000 0.220897
v -0.118277 1.000000 0.230780
v 0.000509 0.937196 0.240795
v -0.025761 1.013447 -0.121495
v -0.094786 0.937196 -0.134213
v 0.066919 1.000000 0.106748
v -0.118094 1.000000 0.100262
v 0.000349 0.937196 0.121678
v 0.061630 1.000000 -0.653391
v 0.065055 1.038802 -0.092272
vt 0.430703 0.654596
vt 0.419655 0.654596
vt 0.422013 0.670257
vt 0.433061 0.670257
vt 0.542135 0.170678
vt 0.553056 0.170679
vt 0.553056 0.139356
vt 0.542135 0.139355
vt 0.641612 0.340566
vt 0.652659 0.340686
vt 0.655186 0.325051
vt 0.644139 0.324931
vt 0.994136 0.953187
vt 0.994136 0.921864
vt 0.993405 0.922286
vt 0.993405 0.952765
vt 0.541161 0.139777
vt 0.541161 0.170256
vt 0.996220 0.798211
vt 0.996220 0.829534
vt 0.996951 0.829112
vt 0.996951 0.798633
vt 0.557763 0.186329
vt 0.558431 0.186120
vt 0.553755 0.170574
vt 0.262001 0.464766
vt 0.235165 0.449224
vt 0.235210 0.449800
vt 0.261551 0.465056
vt 0.235226 0.450660
vt 0.260892 0.465449
vt 0.553755 0.139461
vt 0.554330 0.170287
vt 0.554330 0.139747
vt 0.261551 0.495595
vt 0.260892 0.495205
vt 0.557763 0.123684
vt 0.558431 0.123894
vt 0.235165 0.511448
vt 0.262001 0.495878
vt 0.235210 0.510878
vt 0.235226 0.510172
vt 0.252400 0.490286
vt 0.241076 0.499132
vt 0.238273 0.504489
vt 0.256807 0.492839
vt 0.238075 0.461335
vt 0.252400 0.470376
vt 0.256807 0.467819
vt 0.238083 0.456231
vt 0.245094 0.485363
vt 0.238364 0.494401
vt 0.241127 0.468641
vt 0.245210 0.476215
vt 0.238394 0.488652
vt 0.238423 0.480415
vt 0.238651 0.484159
vt 0.235092 0.486885
vt 0.237634 0.483969
vt 0.238422 0.474078
vt 0.235059 0.473798
vt 0.237820 0.470043
vt 0.238417 0.477618
vt 0.235094 0.504808
vt 0.235043 0.455818
vt 0.237809 0.499653
vt 0.235041 0.460925
vt 0.235073 0.494871
vt 0.237831 0.465839
vt 0.235082 0.490589
vt 0.235064 0.477030
vt 0.235067 0.480235
vt 0.435287 0.701580
vt 0.432928 0.717241
vt 0.445327 0.717241
vt 0.447685 0.701580
vt 0.639047 0.371863
vt 0.639386 0.340542
vt 0.626988 0.340408
vt 0.626649 0.371729
vt 0.641913 0.324907
vt 0.629515 0.324773
vt 0.539934 0.170678
vt 0.539934 0.139355
vt 0.527677 0.139354
vt 0.527677 0.170677
vt 0.432928 0.654596
vt 0.435287 0.670257
vt 0.447685 0.670257
vt 0.445327 0.654596
vt 0.208694 0.215144
vt 0.208694 0.246467
vt 0.235820 0.262128
vt 0.262946 0.246467
vt 0.262946 0.215144
vt 0.235820 0.199483
vt 0.434110 0.670679
vt 0.434110 0.701158
vt 0.262145 0.853113
vt 0.262145 0.822634
vt 0.261317 0.822206
vt 0.261317 0.853528
vt 0.640228 0.371454
vt 0.640558 0.340976
vt 0.811439 0.913150
vt 0.811439 0.943530
vt 0.812124 0.943858
vt 0.812124 0.912637
vt 0.545742 0.124527
vt 0.544641 0.123683
vt 0.433061 0.701580
vt 0.422013 0.701580
vt 0.419655 0.717241
vt 0.430703 0.717241
vt 0.641273 0.371887
vt 0.652320 0.372006
vt 0.995533 0.108927
vt 0.995533 0.077604
vt 0.994803 0.078026
vt 0.994803 0.108505
vt 0.421322 0.670362
vt 0.421322 0.701475
vt 0.420784 0.670649
vt 0.420784 0.701188
vt 0.208869 0.495622
vt 0.209561 0.495231
vt 0.654508 0.387692
vt 0.655186 0.387490
vt 0.653012 0.371909
vt 0.208330 0.464794
vt 0.208330 0.495906
vt 0.208869 0.465083
vt 0.209561 0.465475
vt 0.653349 0.340798
vt 0.653553 0.371628
vt 0.653883 0.341090
vt 0.213646 0.492861
vt 0.213646 0.467841
vt 0.233680 0.456217
vt 0.218053 0.470393
vt 0.233684 0.461324
vt 0.233666 0.504456
vt 0.218053 0.490304
vt 0.233504 0.494526
vt 0.222130 0.487939
vt 0.233561 0.498064
vt 0.222130 0.472755
vt 0.233517 0.490071
vt 0.225979 0.485705
vt 0.236486 0.465940
vt 0.225979 0.474984
vt 0.233619 0.486411
vt 0.229213 0.483873
vt 0.236482 0.470352
vt 0.229144 0.476817
vt 0.231919 0.482319
vt 0.233399 0.474349
vt 0.231825 0.478370
vt 0.233418 0.477445
vt 0.233485 0.480019
vt 0.233563 0.482850
vt 0.469615 0.646109
vt 0.467661 0.645747
vt 0.467934 0.651464
vt 0.467658 0.597507
vt 0.469600 0.597118
vt 0.467927 0.591951
vt 0.470087 0.640954
vt 0.468121 0.640731
vt 0.469600 0.602225
vt 0.467659 0.602614
vt 0.469610 0.636171
vt 0.467632 0.635817
vt 0.470087 0.607140
vt 0.466280 0.607220
vt 0.469611 0.631889
vt 0.467634 0.631362
vt 0.470086 0.611343
vt 0.466280 0.611632
vt 0.469612 0.628186
vt 0.466598 0.627696
vt 0.469605 0.615099
vt 0.467611 0.615639
vt 0.470055 0.625270
vt 0.467693 0.624926
vt 0.469606 0.618330
vt 0.467615 0.618736
vt 0.469607 0.621535
vt 0.466951 0.621306
vt 0.236310 0.499440
vt 0.235955 0.483637
vn -0.4835 -0.2546 -0.8375
vn -0.4961 0.1241 -0.8593
vn -0.9670 -0.2546 0.0000
vn -0.9923 0.1241 0.0000
vn -0.4835 -0.2546 0.8375
vn -0.4961 0.1241 0.8593
vn -0.4184 -0.5474 0.7248
vn -0.8369 -0.5474 0.0000
vn -0.4184 -0.5474 -0.7248
vn -0.4448 0.4566 0.7705
vn 0.0000 0.8607 0.5091
vn -0.4426 0.8599 0.2544
vn 0.0498 0.9908 0.1256
vn -0.1286 0.9891 0.0722
vn -0.8897 0.4566 0.0000
vn -0.4445 0.8578 -0.2579
vn -0.1328 0.9880 -0.0789
vn -0.4448 0.4566 -0.7705
vn 0.0000 0.8570 -0.5153
vn 0.0481 0.9889 -0.1404
vn 0.0000 1.0000 0.0000
vn 0.1689 0.9856 -0.0081
vn 0.2575 0.9565 0.1367
vn 0.3239 0.9413 -0.0954
vn 0.2292 0.9723 -0.0456
vn 0.0388 0.9992 0.0047
vn 0.2712 0.9594 -0.0777
vn 0.2069 0.9783 0.0098
vn 0.2390 0.9648 0.1098
vn 0.2696 0.9525 -0.1418
vn 0.3018 0.9530 -0.0255
vn 0.3758 0.9117 0.1661
vn 0.3750 0.9263 -0.0370
vn 0.2781 0.9558 0.0954
vn 0.4547 0.8806 0.1333
vn 0.5011 0.8429 0.1959
vn 0.2415 0.9704 -0.0002
vn 0.4937 0.8288 0.2635
vn 0.5162 0.8454 -0.1369
vn 0.4809 0.8765 0.0234
vn 0.5398 0.8352 -0.1051
vn 0.4583 0.8813 -0.1150
vn 0.5573 0.8038 -0.2082
vn 0.4746 0.8802 0.0016
vn 0.4681 0.8837 -0.0003
vn 0.4549 0.8813 -0.1282
vn 0.9670 0.2546 0.0000
vn 1.0000 0.0000 0.0000
vn 0.4835 0.2546 0.8375
vn 0.5000 0.0000 0.8660
vn -0.4835 0.2546 0.8375
vn -0.5000 0.0000 0.8660
vn -0.9670 0.2546 0.0000
vn -1.0000 0.0000 0.0000
vn -0.4835 0.2546 -0.8375
vn -0.5000 0.0000 -0.8660
vn 0.0000 -1.0000 0.0000
vn 0.4184 0.5474 -0.7248
vn 0.4835 0.2546 -0.8375
vn 0.8369 0.5474 0.0000
vn 0.4184 0.5474 0.7248
vn -0.4184 0.5474 0.7248
vn -0.8369 0.5474 0.0000
vn -0.4184 0.5474 -0.7248
vn 0.5000 0.0000 -0.8660
vn 0.9670 -0.2546 0.0000
vn 0.9923 0.1241 0.0000
vn 0.4835 -0.2546 0.8375
vn 0.4961 0.1241 0.8593
vn 0.4835 -0.2546 -0.8375
vn 0.4184 -0.5474 -0.7248
vn 0.8369 -0.5474 0.0000
vn 0.4184 -0.5474 0.7248
vn 0.4961 0.1241 -0.8593
vn 0.4448 0.4566 -0.7705
vn 0.4445 0.8578 -0.2579
vn 0.1328 0.9880 -0.0789
vn 0.8897 0.4566 0.0000
vn 0.4426 0.8599 0.2544
vn 0.1286 0.9891 0.0722
vn 0.4448 0.4566 0.7705
vn 0.0222 0.9995 0.0225
vn 0.0571 0.9967 0.0580
vn 0.0644 0.9973 0.0360
vn 0.0529 0.9956 -0.0777
vn 0.0596 0.9979 -0.0265
vn 0.1271 0.9908 0.0464
vn 0.0391 0.9980 -0.0504
vn 0.0456 0.9905 -0.1294
vn 0.1726 0.9848 -0.0211
vn 0.0863 0.9847 -0.1511
vn 0.0254 0.9991 0.0331
vn 0.0430 0.9943 0.0976
vn -0.0232 0.9616 -0.2734
vn 0.0659 0.9881 0.1390
vn 0.0496 0.9951 0.0858
vn 0.0383 0.9754 0.2172
vn -0.1550 0.9857 0.0668
vn -0.7180 0.6894 -0.0960
vn -0.7190 0.6891 -0.0901
vn -0.7375 0.6444 0.2021
vn -0.7530 0.6522 -0.0873
vn -0.7538 0.6479 -0.1094
vn -0.7524 0.6242 -0.2103
vn -0.6496 0.6781 -0.3438
vn -0.7602 0.5941 0.2629
vn -0.7589 0.5865 0.2828
vn -0.6846 0.6140 0.3928
vn -0.7059 0.6676 0.2365
vn -0.7093 0.6880 0.1533
vn -0.8493 0.4671 0.2458
vn -0.8481 0.4675 0.2494
vn -0.7364 0.6753 -0.0403
vn -0.7485 0.6609 -0.0546
vn -0.8629 0.4222 -0.2777
vn -0.8481 0.4184 -0.3252
vn -0.7296 0.6110 -0.3071
vn -0.7315 0.6118 -0.3010
vn -0.7040 0.3702 -0.6061
vn -0.6510 0.5721 -0.4989
vn -0.7129 0.7003 0.0368
vn -0.6843 0.7292 0.0026
vn -0.7205 0.6919 0.0463
vn -0.7099 0.5260 0.4684
vn -0.7408 0.5971 0.3078
vn -0.7459 0.6167 0.2518
vn -0.2838 0.9575 0.0512
usemtl Green
s 5
f 22/1/1 40/2/2 25/3/2 8/4/1
s 9
f 19/5/3 37/6/4 40/7/4 22/8/3
s 11
f 16/9/5 34/10/6 37/11/6 19/12/5
s 18
f 16/13/5 19/14/5 21/15/7 18/16/7
s 20
f 19/5/3 22/8/3 24/17/8 21/18/8
s 22
f 22/19/1 8/20/1 9/21/9 24/22/9
s 34
f 37/6/6 34/23/6 36/24/10 39/25/10
s 35
f 39/26/10 36/27/10 35/28/11 38/29/12
s 36
f 38/29/12 35/28/11 46/30/13 47/31/14
s 37
f 40/7/4 37/6/4 39/25/15 42/32/15
s 38
f 42/32/15 39/25/15 38/33/12 41/34/16
s 39
f 41/35/16 38/29/12 47/31/14 48/36/17
s 40
f 25/37/2 40/7/2 42/32/18 26/38/18
s 41
f 26/39/18 42/40/18 41/35/16 27/41/19
s 42
f 27/41/19 41/35/16 48/36/17 43/42/20
s 44
f 56/43/21 76/44/22 70/45/23 52/46/21
s 46
f 80/47/24 55/48/21 51/49/21 74/50/25
s 48
f 51/49/21 52/46/21 48/36/17 47/31/14
s 52
f 46/30/13 74/50/25 51/49/21 47/31/14
s 54
f 55/48/21 56/43/21 52/46/21 51/49/21
s 55
f 52/46/21 70/45/23 43/42/20 48/36/17
s 56
f 60/51/26 82/52/27 76/44/22 56/43/21
s 58
f 86/53/28 59/54/21 55/48/21 80/47/24
s 60
f 59/54/21 60/51/26 56/43/21 55/48/21
s 62
f 60/51/26 88/55/29 82/52/27
s 64
f 60/51/26 67/56/30 93/57/31
s 67
f 95/58/32 88/55/29 93/57/31 100/59/33
s 69
f 97/60/34 59/54/21 86/53/28
s 71
f 98/61/35 97/60/34 92/62/36
s 74
f 102/63/37 59/54/21 97/60/34
s 78
f 67/56/30 59/54/21 102/63/37
s 81
f 70/45/23 72/64/38 43/42/20
s 84
f 75/65/39 74/50/25 46/30/13
s 85
f 70/45/23 76/44/22 78/66/40 72/64/38
s 87
f 80/47/24 74/50/25 75/65/39 81/67/41
s 89
f 76/44/22 82/52/27 84/68/42 78/66/40
s 91
f 86/53/28 80/47/24 81/67/41 87/69/43
s 93
f 82/52/27 88/55/29 90/70/44 84/68/42
s 95
f 86/53/28 87/69/43 92/62/36
s 97
f 88/55/29 95/58/32 90/70/44
s 99
f 97/60/34 86/53/28 92/62/36
s 101
f 88/55/29 60/51/26 93/57/31
s 103
f 102/63/37 97/60/34 98/61/35 103/71/45
s 105
f 67/56/30 69/72/46 100/59/33 93/57/31
s 107
f 67/56/30 102/63/37 103/71/45 69/72/46
s 109
f 67/56/30 60/51/26 59/54/21
usemtl BrownDark
s 2
f 11/73/47 14/74/47 3/75/48 2/76/48
s 3
f 14/77/49 17/78/49 4/79/50 3/80/50
s 4
f 17/78/51 20/81/51 5/82/52 4/79/52
s 6
f 20/83/53 23/84/53 6/85/54 5/86/54
s 7
f 23/87/55 7/88/55 1/89/56 6/90/56
s 8
f 1/91/57 2/92/57 3/93/57 4/94/57 5/95/57 6/96/57
s 13
f 9/97/58 12/98/58 11/73/59 7/88/59
s 15
f 12/99/60 15/100/60 14/101/47 11/102/47
s 17
f 15/103/61 18/104/61 17/78/49 14/77/49
s 19
f 18/105/62 21/106/62 20/107/51 17/108/51
s 21
f 21/18/63 24/17/63 23/84/53 20/83/53
s 23
f 24/17/64 9/109/64 7/110/55 23/84/55
s 24
f 7/88/59 11/73/59 2/76/65 1/89/65
usemtl Brown
s 1
f 10/111/66 28/112/67 31/113/67 13/114/66
s 10
f 13/115/68 31/116/69 34/10/69 16/9/68
s 12
f 8/4/70 10/111/70 12/98/71 9/97/71
s 14
f 10/117/66 13/118/66 15/119/72 12/120/72
s 16
f 13/115/68 16/9/68 18/104/73 15/103/73
s 25
f 28/112/74 25/3/74 26/121/75 30/122/75
s 26
f 30/122/75 26/121/75 27/123/19 29/124/76
s 27
f 29/125/76 27/41/19 43/42/20 44/126/77
s 28
f 31/116/67 28/127/67 30/128/78 33/129/78
s 29
f 33/130/78 30/131/78 29/125/76 32/132/79
s 30
f 32/132/79 29/125/76 44/126/77 45/133/80
s 31
f 34/10/69 31/116/69 33/129/81 36/134/81
s 32
f 36/134/81 33/129/81 32/135/79 35/136/11
s 33
f 35/28/11 32/132/79 45/133/80 46/30/13
s 43
f 8/4/70 25/3/74 28/112/74 10/111/70
s 45
f 49/137/21 50/138/21 45/133/80 44/126/77
s 47
f 50/138/21 73/139/21 46/30/13 45/133/80
s 49
f 54/140/82 79/141/83 73/139/21 50/138/21
s 50
f 43/42/20 71/142/21 49/137/21 44/126/77
s 51
f 53/143/21 54/140/82 50/138/21 49/137/21
s 53
f 83/144/21 57/145/21 53/143/21 104/146/21
s 57
f 57/145/21 58/147/84 54/140/82 53/143/21
s 59
f 89/148/85 61/149/86 57/145/21 83/144/21
s 61
f 58/147/84 85/150/87 79/141/83 54/140/82
s 63
f 61/149/86 62/151/88 58/147/84 57/145/21
s 65
f 94/152/89 63/153/90 61/149/86 89/148/85
s 66
f 62/151/88 91/154/91 85/150/87 58/147/84
s 68
f 64/155/92 62/151/88 61/149/86
s 70
f 65/156/93 63/153/90 94/152/89
s 72
f 96/157/94 91/154/91 62/151/88
s 73
f 65/156/93 66/158/95 64/155/92 63/153/90
s 75
f 66/158/95 101/159/96 96/157/94
s 76
f 68/160/97 66/158/95 65/156/93
s 77
f 68/160/97 101/159/96 66/158/95
s 79
f 104/146/21 53/143/21 49/137/21 71/142/21
s 80
f 68/160/97 65/156/93 105/161/98
s 82
f 72/162/99 71/163/100 43/164/101
s 83
f 73/165/102 75/166/103 46/167/104
s 86
f 72/162/99 78/168/105 77/169/105 71/163/100
s 88
f 81/170/106 75/166/103 73/165/102 79/171/107
s 90
f 78/168/108 84/172/109 83/173/110 77/169/108
s 92
f 87/174/111 81/170/106 79/171/107 85/175/112
s 94
f 84/172/109 90/176/113 89/177/114 83/173/110
s 96
f 92/178/115 87/174/111 85/175/112 91/179/116
s 98
f 90/176/113 95/180/117 94/181/118 89/177/114
s 100
f 98/182/119 92/178/115 91/179/116 96/183/119
s 102
f 95/180/117 100/184/120 99/185/120 94/181/118
s 104
f 103/186/121 98/182/122 96/183/122 101/187/123
s 106
f 100/184/124 69/188/125 68/189/126 99/185/124
s 108
f 69/188/125 103/186/121 101/187/123 68/189/126
s 110
f 77/190/21 83/144/21 104/146/21
s 111
f 77/190/21 104/146/21 71/142/21
s 112
f 64/155/92 96/157/94 62/151/88
s 113
f 105/161/98 65/156/93 94/152/89
s 114
f 64/155/92 66/158/95 96/157/94
s 115
f 63/153/90 64/155/92 61/149/86
s 116
f 99/191/127 105/161/98 94/152/89
s 117
f 99/191/127 68/160/97 105/161/98
