# Blender v2.80 (sub 75) OBJ File: 'TilesExport.blend'
# www.blender.org
mtllib hex_sand_roadH.mtl
o hex_sand_roadH_Cylinder.629
v 1.000000 0.900000 -0.173205
v 1.000000 0.900000 0.173205
v 0.650000 0.900000 0.779423
v 0.350000 0.900000 0.952631
v -0.350001 0.900000 0.952629
v -0.649999 0.900000 0.779425
v 0.769565 0.900000 0.162351
v 0.764966 0.900000 -0.179552
v 0.657868 0.900000 0.183641
v 0.489499 0.900000 -0.258077
v 0.033507 0.900000 0.323944
v -0.030232 0.900000 -0.175413
v -0.057324 0.900000 0.381926
v -0.170843 0.900000 -0.034886
v -0.145758 0.900000 0.449137
v -0.398622 0.900000 0.146337
v -0.242469 0.900000 0.674936
v -0.542100 0.900000 0.459141
v 0.125221 0.900000 0.370239
v 0.601262 0.900000 0.274308
v 0.217878 0.900000 -0.217569
v 0.569516 0.900000 0.405471
v 0.127008 0.900000 0.525025
v 0.576632 0.900000 0.496836
v 0.223359 0.900000 0.627384
v 0.593821 0.900000 0.620695
v 0.280830 0.900000 0.813896
v 0.000000 1.000000 -1.098817
v 0.000000 0.951603 -1.154700
v 0.000000 0.993516 -1.126758
v 0.000000 0.975802 -1.147213
v 0.951603 1.000000 -0.549408
v 1.000000 0.951603 -0.577350
v 0.975802 0.993516 -0.563379
v 0.993516 0.975802 -0.573606
v 0.951603 1.000000 0.549408
v 1.000000 0.951603 0.577350
v 0.975802 0.993516 0.563379
v 0.993516 0.975802 0.573607
v -0.000000 1.000000 1.098817
v -0.000000 0.951603 1.154700
v -0.000000 0.993516 1.126758
v -0.000000 0.975802 1.147213
v -0.951603 1.000000 0.549408
v -1.000000 0.951603 0.577350
v -0.975802 0.993516 0.563379
v -0.993516 0.975802 0.573606
v -0.951603 1.000000 -0.549408
v -1.000000 0.951603 -0.577350
v -0.975802 0.993516 -0.563379
v -0.993516 0.975802 -0.573606
v 0.951603 1.000000 -0.222926
v 1.000000 0.951603 -0.173205
v 0.975802 0.993516 -0.198066
v 0.993516 0.975802 -0.179867
v 0.951603 1.000000 0.219376
v 1.000000 0.951603 0.173205
v 0.975802 0.993516 0.196291
v 0.993516 0.975802 0.179391
v 0.650000 0.951603 0.779423
v 0.676204 1.000000 0.708410
v 0.653511 0.975802 0.769909
v 0.663102 0.993516 0.743917
v 0.286374 1.000000 0.933481
v 0.350000 0.951603 0.952631
v 0.318187 0.993516 0.943056
v 0.341476 0.975802 0.950065
v -0.350001 0.951603 0.952629
v -0.289899 1.000000 0.931445
v -0.341949 0.975802 0.949791
v -0.319950 0.993516 0.942037
v -0.676992 1.000000 0.707957
v -0.649999 0.951603 0.779425
v -0.663496 0.993516 0.743691
v -0.653616 0.975802 0.769850
v 0.769565 0.951603 0.162351
v 0.773005 1.000000 0.210963
v 0.770026 0.975802 0.168864
v 0.771285 0.993516 0.186657
v 0.772368 1.000000 -0.227766
v 0.764966 0.951603 -0.179552
v 0.768667 0.993516 -0.203659
v 0.765957 0.975802 -0.186011
v 0.657868 0.951603 0.183641
v 0.687715 1.000000 0.227220
v 0.661867 0.975802 0.189480
v 0.672792 0.993516 0.205431
v 0.492706 1.000000 -0.307487
v 0.489499 0.951603 -0.258077
v 0.491102 0.993516 -0.282782
v 0.489928 0.975802 -0.264696
v 0.036310 1.000000 0.379571
v 0.033507 0.951603 0.323944
v 0.034908 0.993516 0.351757
v 0.033883 0.975802 0.331396
v -0.053538 1.000000 -0.220543
v -0.030232 0.951603 -0.175413
v -0.041885 0.993516 -0.197978
v -0.033354 0.975802 -0.181460
v -0.057324 0.951603 0.381926
v -0.029615 1.000000 0.421655
v -0.053611 0.975802 0.387249
v -0.043469 0.993516 0.401790
v -0.203117 1.000000 -0.071053
v -0.170843 0.951603 -0.034886
v -0.186980 0.993516 -0.052970
v -0.175167 0.975802 -0.039731
v -0.145758 0.951603 0.449137
v -0.106301 1.000000 0.479937
v -0.140472 0.975802 0.453263
v -0.126029 0.993516 0.464537
v -0.437795 1.000000 0.115658
v -0.398622 0.951603 0.146337
v -0.418209 0.993516 0.130998
v -0.403870 0.975802 0.142227
v -0.242469 0.951603 0.674936
v -0.197646 1.000000 0.693208
v -0.236464 0.975802 0.677384
v -0.220057 0.993516 0.684072
v -0.587152 1.000000 0.441278
v -0.542100 0.951603 0.459141
v -0.564626 0.993516 0.450210
v -0.548136 0.975802 0.456748
v 0.077167 1.000000 0.400196
v 0.125221 0.951603 0.370239
v 0.101194 0.993516 0.385217
v 0.118783 0.975802 0.374253
v 0.646460 1.000000 0.293299
v 0.601262 0.951603 0.274308
v 0.623861 0.993516 0.283803
v 0.607317 0.975802 0.276852
v 0.217878 0.951603 -0.217569
v 0.210275 1.000000 -0.265367
v 0.216859 0.975802 -0.223973
v 0.214076 0.993516 -0.241468
v 0.569516 0.951603 0.405471
v 0.618364 1.000000 0.409381
v 0.576061 0.975802 0.405995
v 0.593940 0.993516 0.407426
v 0.078832 1.000000 0.544455
v 0.127008 0.951603 0.525025
v 0.102920 0.993516 0.534740
v 0.120553 0.975802 0.527628
v 0.624769 1.000000 0.491626
v 0.576632 0.951603 0.496836
v 0.600701 0.993516 0.494231
v 0.583081 0.975802 0.496138
v 0.180418 1.000000 0.652373
v 0.223359 0.951603 0.627384
v 0.201889 0.993516 0.639879
v 0.217606 0.975802 0.630732
v 0.593821 0.951603 0.620695
v 0.641083 1.000000 0.609178
v 0.600152 0.975802 0.619152
v 0.617452 0.993516 0.614937
v 0.235748 1.000000 0.831939
v 0.280830 0.951603 0.813896
v 0.258289 0.993516 0.822918
v 0.274790 0.975802 0.816313
v 0.000000 0.000000 -1.154700
v 1.000000 0.000000 -0.577350
v 1.000000 0.000000 0.577350
v -0.000000 0.000000 1.154700
v -1.000000 0.000000 0.577350
v -1.000000 0.000000 -0.577350
v 0.021652 1.000000 0.675552
v 0.734852 1.000000 0.414634
v 0.475445 1.000000 -0.449428
v -0.648213 1.000000 -0.213094
vt 1.000000 0.759596
vt 1.000000 0.975802
vt 0.833333 0.975802
vt 0.833333 0.759596
vt 0.457846 0.293055
vt 0.391475 0.300903
vt 0.391475 0.300903
vt 0.457846 0.293055
vt 0.327801 0.195242
vt 0.345145 0.204155
vt 0.345145 0.204155
vt 0.327801 0.195242
vt 0.356654 0.147169
vt 0.340000 0.175738
vt 0.340000 0.175738
vt 0.356654 0.147169
vt 0.182754 0.048824
vt 0.198737 0.118500
vt 0.198737 0.118500
vt 0.182754 0.048824
vt 0.163471 0.205713
vt 0.129675 0.165025
vt 0.129675 0.165025
vt 0.163471 0.205713
vt 0.391602 0.091754
vt 0.380657 0.123336
vt 0.380657 0.123336
vt 0.391602 0.091754
vt 0.217600 0.142059
vt 0.234687 0.156445
vt 0.234687 0.156445
vt 0.217600 0.142059
vt 0.281255 0.107087
vt 0.301896 0.087045
vt 0.301896 0.087045
vt 0.281255 0.107087
vt 0.250976 0.246873
vt 0.256730 0.250788
vt 0.256730 0.250788
vt 0.250976 0.246873
vt 0.256516 0.147876
vt 0.258127 0.145271
vt 0.258127 0.145271
vt 0.256516 0.147876
vt 0.381918 0.210921
vt 0.457846 0.206945
vt 0.457846 0.206945
vt 0.381918 0.210921
vt 0.316269 0.286420
vt 0.316269 0.286420
vt 0.291774 0.173832
vt 0.291774 0.173832
vt 0.316244 0.048246
vt 0.316244 0.048246
vt 0.109399 0.091176
vt 0.109399 0.091176
vt 0.202140 0.236734
vt 0.202140 0.236734
vt 0.833874 0.987901
vt 0.999460 0.987901
vt 0.997983 1.000000
vt 0.835350 1.000000
vt 0.452453 0.367388
vt 0.249821 0.483987
vt 0.249631 0.477955
vt 0.446998 0.364760
vt 0.166667 0.975802
vt 0.333333 0.975802
vt 0.332793 0.987901
vt 0.167207 0.987901
vt 0.331317 1.000000
vt 0.168683 1.000000
vt 0.047112 0.366969
vt 0.046898 0.133149
vt 0.051642 0.136307
vt 0.052067 0.363928
vt -0.000000 0.975802
vt 0.166126 0.987901
vt 0.000540 0.987901
vt 0.164650 1.000000
vt 0.002016 1.000000
vt 0.445330 0.303583
vt 0.395845 0.307399
vt 0.393689 0.304044
vt 0.451553 0.298368
vt 0.391483 0.300869
vt 0.455966 0.293277
vt 0.385128 0.201400
vt 0.443091 0.198592
vt 0.450410 0.202767
vt 0.383494 0.206058
vt 0.455810 0.207052
vt 0.381920 0.210891
vt 0.322651 0.299528
vt 0.319525 0.293021
vt 0.316251 0.286485
vt 0.357161 0.198253
vt 0.351040 0.201379
vt 0.345374 0.204121
vt 0.257808 0.264137
vt 0.243781 0.265316
vt 0.249698 0.258129
vt 0.254611 0.255593
vt 0.257037 0.250877
vt 0.250968 0.246868
vt 0.267866 0.158232
vt 0.261385 0.150759
vt 0.260107 0.149942
vt 0.278260 0.165443
vt 0.257213 0.148341
vt 0.290162 0.173067
vt 0.199401 0.245410
vt 0.200982 0.241015
vt 0.202166 0.236727
vt 0.244392 0.149905
vt 0.240723 0.153270
vt 0.234737 0.156449
vt 0.155297 0.215097
vt 0.159344 0.210522
vt 0.163444 0.205722
vt 0.225496 0.138574
vt 0.221486 0.140422
vt 0.217666 0.142088
vt 0.121759 0.166085
vt 0.125755 0.165468
vt 0.129668 0.165042
vt 0.207916 0.110073
vt 0.203354 0.114046
vt 0.198738 0.118492
vt 0.104316 0.106571
vt 0.106854 0.098897
vt 0.109874 0.092906
vt 0.193682 0.054522
vt 0.188211 0.051723
vt 0.183053 0.050124
vt 0.347050 0.189717
vt 0.337705 0.192400
vt 0.327933 0.195210
vt 0.255476 0.133090
vt 0.257315 0.137934
vt 0.257932 0.145593
vt 0.353942 0.170265
vt 0.346944 0.172688
vt 0.340047 0.175651
vt 0.275269 0.106519
vt 0.278275 0.107136
vt 0.281211 0.107214
vt 0.367333 0.149747
vt 0.362000 0.148769
vt 0.356655 0.147181
vt 0.292827 0.078729
vt 0.297296 0.082476
vt 0.301899 0.087084
vt 0.385461 0.125385
vt 0.382722 0.124328
vt 0.380615 0.123337
vt 0.303873 0.054226
vt 0.310076 0.051362
vt 0.315679 0.049772
vt 0.395387 0.105640
vt 0.393622 0.098694
vt 0.391095 0.093217
vt 0.779899 1.000000
vt 0.832822 0.987905
vt 0.780830 0.996886
vt 0.831486 1.000000
vt 0.783186 1.000000
vt 0.387256 1.000000
vt 0.386149 0.996390
vt 0.333847 0.987906
vt 0.383312 1.000000
vt 0.335197 1.000000
vt 0.446801 0.135595
vt 0.452393 0.132788
vt 0.457846 0.130713
vt 0.457846 0.205767
vt 0.719235 0.997082
vt 0.667178 0.987905
vt 0.666667 0.975802
vt 0.720101 1.000000
vt 0.613547 1.000000
vt 0.666158 0.987906
vt 0.614631 0.996437
vt 0.664830 1.000000
vt 0.617372 1.000000
vt 0.249702 0.021085
vt 0.249858 0.015527
vt 0.250614 0.010354
vt 0.315244 0.047669
vt 0.552268 0.997118
vt 0.500509 0.987906
vt 0.500000 0.975802
vt 0.553119 1.000000
vt 0.446077 1.000000
vt 0.499486 0.987906
vt 0.446858 0.997348
vt 0.498136 1.000000
vt 0.448843 1.000000
vt 0.333333 0.759596
vt 0.166667 0.759596
vt -0.000000 0.759596
vt 0.666667 0.759596
vt 0.500000 0.759596
vt 0.298166 0.056458
vt 0.288808 0.075794
vt 0.272459 0.105179
vt 0.253591 0.129492
vt 0.260732 0.150041
vt 0.261741 0.152626
vt 0.246819 0.146640
vt 0.229376 0.136604
vt 0.212065 0.106717
vt 0.198694 0.056851
vt 0.249545 0.026216
vt 0.439077 0.196222
vt 0.386052 0.198816
vt 0.360688 0.196295
vt 0.352086 0.188214
vt 0.357940 0.169130
vt 0.370348 0.150121
vt 0.387280 0.126007
vt 0.396186 0.109546
vt 0.443615 0.137178
vt 0.427388 0.355029
vt 0.265292 0.445094
vt 0.253388 0.288145
vt 0.269974 0.292259
vt 0.333900 0.320721
vt 0.403276 0.320187
vt 0.424430 0.320215
vt 0.228530 0.275813
vt 0.235241 0.451748
vt 0.065266 0.355653
vt 0.064108 0.144526
vt 0.097611 0.126153
vt 0.110776 0.168028
vt 0.144802 0.225608
vt 0.193695 0.256236
vt 0.613547 1.000000
vt 0.779899 1.000000
vt 0.446077 1.000000
vt 0.720101 1.000000
vt 0.553119 1.000000
vt 0.387256 1.000000
vn 0.5000 0.0000 -0.8660
vn 0.4961 0.1241 -0.8593
vn -0.0268 0.1187 0.9926
vn -0.1505 0.1302 0.9800
vn -0.1518 0.0000 0.9884
vn -0.0270 0.0000 0.9996
vn -0.9140 0.1304 -0.3841
vn -0.8415 0.1257 -0.5254
vn -0.8483 0.0000 -0.5296
vn -0.9219 0.0000 -0.3874
vn -0.9857 0.1303 0.1067
vn -0.9883 0.1304 -0.0791
vn -0.9968 0.0000 -0.0798
vn -0.9942 0.0000 0.1076
vn -0.9257 0.1208 -0.3585
vn -0.9181 0.1304 -0.3742
vn -0.9260 0.0000 -0.3775
vn -0.9325 0.0000 -0.3611
vn 0.7799 0.1367 0.6108
vn 0.9215 0.1313 0.3654
vn 0.9296 0.0000 0.3686
vn 0.7873 0.0000 0.6166
vn -0.9363 0.1166 0.3314
vn -0.9633 0.1301 0.2348
vn -0.9716 0.0000 0.2368
vn -0.9427 0.0000 0.3337
vn -0.7814 0.1319 -0.6099
vn -0.5672 0.1302 -0.8132
vn -0.5721 0.0000 -0.8202
vn -0.7883 0.0000 -0.6153
vn 0.8568 0.1313 -0.4986
vn 0.9203 0.1318 -0.3683
vn 0.9284 0.0000 -0.3716
vn 0.8643 0.0000 -0.5030
vn 0.1562 0.1306 0.9791
vn 0.4543 0.1404 0.8797
vn 0.4589 0.0000 0.8885
vn 0.1575 0.0000 0.9875
vn 0.9923 0.1237 -0.0115
vn 0.9908 0.1346 -0.0114
vn 0.9999 0.0000 -0.0115
vn -0.0700 0.1301 -0.9890
vn 0.0467 0.1196 -0.9917
vn 0.0471 0.0000 -0.9989
vn -0.0706 0.0000 -0.9975
vn -0.0642 0.1358 0.9887
vn -0.0648 0.0000 0.9979
vn -0.1858 0.1257 -0.9745
vn -0.1872 0.0000 -0.9823
vn 0.4471 0.1241 -0.8858
vn 0.4472 0.1237 -0.8859
vn 0.4506 0.0000 -0.8927
vn 0.8885 0.1198 -0.4430
vn 0.8949 0.0000 -0.4462
vn 0.9412 0.1164 0.3171
vn 0.9477 0.0000 0.3193
vn 0.7215 0.1346 -0.6792
vn 0.7281 0.0000 -0.6854
vn 0.6601 0.1301 0.7398
vn 0.6658 0.0000 0.7461
vn -0.5339 0.1241 -0.8364
vn -0.5381 0.0000 -0.8429
vn 0.4448 0.4566 -0.7705
vn 0.0000 0.8589 -0.5121
vn 0.4435 0.8589 -0.2561
vn 0.0000 0.9886 -0.1508
vn 0.1306 0.9886 -0.0754
vn -0.9923 0.1241 0.0000
vn -0.8897 0.4566 0.0000
vn -0.4435 0.8589 0.2561
vn -0.4435 0.8589 -0.2561
vn -0.1306 0.9886 0.0754
vn -0.1306 0.9886 -0.0754
vn -0.4961 0.1241 -0.8593
vn -0.4448 0.4566 -0.7705
vn 0.0964 0.9904 0.0990
vn -0.0212 0.9902 0.1381
vn -0.0778 0.8586 0.5067
vn 0.3264 0.8837 0.3353
vn -0.1320 0.4938 0.8595
vn -0.0244 0.4241 0.9053
vn -0.0098 0.9903 -0.1388
vn 0.1020 0.9900 -0.0973
vn 0.3448 0.8792 -0.3289
vn -0.0361 0.8590 -0.5107
vn 0.0425 0.4291 -0.9022
vn -0.0614 0.4940 -0.8673
vn -0.0072 0.9939 0.1104
vn -0.0302 0.8851 0.4645
vn -0.0552 0.5235 0.8503
vn -0.0852 0.9886 -0.1245
vn -0.2932 0.8548 -0.4281
vn -0.4895 0.4997 -0.7147
vn 0.0204 0.9916 0.1281
vn 0.0461 0.9949 0.0892
vn 0.2040 0.8957 0.3951
vn 0.0786 0.8668 0.4925
vn 0.3863 0.5397 0.7480
vn 0.1363 0.5007 0.8548
vn -0.0076 0.9886 -0.1507
vn 0.1277 0.9886 -0.0796
vn 0.4328 0.8601 -0.2698
vn -0.0258 0.8586 -0.5120
vn 0.4014 0.4543 -0.7953
vn 0.4008 0.4572 -0.7940
vn 0.0898 0.9909 0.1007
vn 0.3372 0.8623 0.3778
vn 0.5779 0.4965 0.6477
vn -0.0765 0.9910 -0.1097
vn -0.2887 0.8633 -0.4140
vn -0.4785 0.4572 -0.7497
vn -0.4963 0.4974 -0.7116
vn 0.0853 0.9941 0.0668
vn 0.3630 0.8874 0.2843
vn 0.6692 0.5268 0.5241
vn -0.1157 0.9892 -0.0903
vn -0.4096 0.8544 -0.3197
vn -0.6858 0.4930 -0.5353
vn 0.1172 0.9920 0.0465
vn 0.4583 0.8700 0.1817
vn 0.8028 0.5042 0.3183
vn -0.1222 0.9913 -0.0498
vn -0.4650 0.8648 -0.1895
vn -0.8026 0.4988 -0.3272
vn 0.0461 0.9915 0.1219
vn 0.1570 0.8958 0.4158
vn 0.8637 0.4116 0.2910
vn -0.1362 0.9895 0.0480
vn -0.4596 0.8732 0.1620
vn -0.8392 0.4360 -0.3250
vn -0.1308 0.9899 -0.0549
vn -0.4749 0.8571 -0.1995
vn -0.8021 0.4930 -0.3370
vn 0.0866 0.9956 -0.0349
vn 0.3979 0.9033 -0.1605
vn 0.7729 0.5527 -0.3117
vn 0.8908 0.4543 -0.0103
vn -0.1412 0.9899 -0.0113
vn -0.5133 0.8572 -0.0411
vn -0.8672 0.4930 -0.0694
vn 0.1257 0.9894 -0.0731
vn 0.4482 0.8550 -0.2608
vn 0.7521 0.4927 -0.4377
vn -0.1322 0.9911 0.0143
vn -0.5006 0.8640 0.0542
vn -0.8621 0.4980 0.0933
vn 0.1146 0.9924 -0.0459
vn 0.4537 0.8725 -0.1816
vn 0.8002 0.5070 -0.3203
vn -0.1342 0.9904 0.0327
vn -0.4961 0.8598 0.1209
vn -0.8444 0.4946 0.2058
vn 0.1354 0.9899 0.0408
vn 0.4577 0.8783 0.1378
vn 0.8080 0.4301 -0.4028
vn -0.0454 0.9914 0.1230
vn -0.1547 0.8946 0.4192
vn -0.8587 0.4127 0.3039
vn 0.9929 0.1187 -0.0000
vn 0.9923 0.1241 -0.0000
vn 0.8897 0.4566 -0.0000
vn 0.9056 0.4241 -0.0000
vn -0.4961 0.1241 0.8593
vn -0.4966 0.1164 0.8601
vn -0.4557 0.4116 0.7893
vn -0.4448 0.4566 0.7705
vn 0.1306 0.9886 0.0754
vn 0.4435 0.8589 0.2561
vn 0.9032 0.4291 0.0000
vn 0.9928 0.1196 0.0000
vn 0.4966 0.1166 0.8601
vn 0.4961 0.1241 0.8593
vn 0.4448 0.4566 0.7705
vn 0.4554 0.4127 0.7888
vn -0.0000 0.9886 0.1508
vn -0.0000 0.8589 0.5121
vn 0.4514 0.4301 0.7819
vn 0.4964 0.1198 0.8598
vn -0.4963 0.1208 0.8597
vn -0.4500 0.4360 0.7794
vn -1.0000 0.0000 0.0000
vn -0.5000 0.0000 -0.8660
vn 0.0000 -1.0000 0.0000
vn 0.0000 1.0000 -0.0000
vn 0.5000 -0.0000 0.8660
vn 1.0000 -0.0000 0.0000
vn -0.5000 -0.0000 0.8660
usemtl Beige
s 1
f 160/1/1 29/2/2 33/3/2 161/4/1
s 2
f 53/5/3 81/6/4 8/7/5 1/8/6
s 3
f 129/9/7 84/10/8 9/11/9 20/12/10
s 4
f 145/13/11 136/14/12 22/15/13 24/16/14
s 5
f 68/17/15 116/18/16 17/19/17 5/20/18
s 6
f 113/21/19 121/22/20 18/23/21 16/24/22
s 7
f 60/25/23 152/26/24 26/27/25 3/28/26
s 8
f 108/29/27 100/30/28 13/31/29 15/32/30
s 9
f 149/33/31 157/34/32 27/35/33 25/36/34
s 10
f 136/14/12 129/9/7 20/12/10 22/15/13
s 11
f 132/37/35 97/38/36 12/39/37 21/40/38
s 12
f 125/41/39 141/42/40 23/43/41 19/44/41
s 13
f 76/45/42 57/46/43 2/47/44 7/48/45
s 14
f 89/49/46 132/37/35 21/40/38 10/50/47
s 28
f 84/10/48 76/45/42 7/48/45 9/11/49
s 29
f 93/51/50 125/41/51 19/44/52 11/52/52
s 30
f 152/26/24 145/13/11 24/16/14 26/27/25
s 31
f 157/34/32 65/53/53 4/54/54 27/35/33
s 32
f 116/18/16 108/29/27 15/32/30 17/19/17
s 33
f 81/6/4 89/49/46 10/50/47 8/7/5
s 34
f 121/22/20 73/55/55 6/56/56 18/23/21
s 35
f 141/42/57 149/33/31 25/36/34 23/43/58
s 36
f 97/38/36 105/57/59 14/58/60 12/39/37
s 37
f 100/30/28 93/51/61 11/52/62 13/31/29
s 38
f 105/57/59 113/21/19 16/24/22 14/58/60
s 39
f 35/59/63 31/60/63 30/61/64 34/62/65
s 40
f 34/63/65 30/64/64 28/65/66 32/66/67
s 41
f 49/67/68 45/68/68 47/69/69 51/70/69
s 42
f 51/70/69 47/69/69 46/71/70 50/72/71
s 43
f 50/73/71 46/74/70 44/75/72 48/76/73
s 44
f 29/77/74 49/67/74 51/78/75 31/79/75
s 45
f 31/79/75 51/78/75 50/80/71 30/81/64
s 46
f 30/64/64 50/73/71 48/76/73 28/65/66
s 47
f 52/82/76 80/83/77 82/84/78 54/85/79
s 48
f 54/85/79 82/84/78 83/86/80 55/87/81
s 49
f 55/87/81 83/86/80 81/6/4 53/5/3
s 50
f 77/88/82 56/89/83 58/90/84 79/91/85
s 51
f 79/91/85 58/90/84 59/92/86 78/93/87
s 52
f 78/93/87 59/92/86 57/46/43 76/45/42
s 53
f 80/83/77 88/94/88 90/95/89 82/84/78
s 54
f 82/84/78 90/95/89 91/96/90 83/86/80
s 55
f 83/86/80 91/96/90 89/49/46 81/6/4
s 56
f 85/97/91 77/88/82 79/91/85 87/98/92
s 57
f 87/98/92 79/91/85 78/93/87 86/99/93
s 58
f 86/99/93 78/93/87 76/45/42 84/10/48
s 59
f 133/100/94 96/101/95 98/102/96 135/103/97
s 60
f 135/103/97 98/102/96 99/104/98 134/105/99
s 61
f 134/105/99 99/104/98 97/38/36 132/37/35
s 62
f 92/106/100 124/107/101 126/108/102 94/109/103
s 63
f 94/109/103 126/108/102 127/110/104 95/111/105
s 64
f 95/111/105 127/110/104 125/41/51 93/51/50
s 65
f 96/101/95 104/112/106 106/113/107 98/102/96
s 66
f 98/102/96 106/113/107 107/114/108 99/104/98
s 67
f 99/104/98 107/114/108 105/57/59 97/38/36
s 68
f 101/115/109 92/106/100 94/109/103 103/116/110
s 69
f 103/116/110 94/109/103 95/111/111 102/117/112
s 70
f 102/117/112 95/111/111 93/51/61 100/30/28
s 71
f 104/112/106 112/118/113 114/119/114 106/113/107
s 72
f 106/113/107 114/119/114 115/120/115 107/114/108
s 73
f 107/114/108 115/120/115 113/21/19 105/57/59
s 74
f 109/121/116 101/115/109 103/116/110 111/122/117
s 75
f 111/122/117 103/116/110 102/117/112 110/123/118
s 76
f 110/123/118 102/117/112 100/30/28 108/29/27
s 77
f 112/118/113 120/124/119 122/125/120 114/119/114
s 78
f 114/119/114 122/125/120 123/126/121 115/120/115
s 79
f 115/120/115 123/126/121 121/22/20 113/21/19
s 80
f 117/127/122 109/121/116 111/122/117 119/128/123
s 81
f 119/128/123 111/122/117 110/123/118 118/129/124
s 82
f 118/129/124 110/123/118 108/29/27 116/18/16
s 83
f 120/124/119 72/130/125 74/131/126 122/125/120
s 84
f 122/125/120 74/131/126 75/132/127 123/126/121
s 85
f 123/126/121 75/132/127 73/55/55 121/22/20
s 86
f 69/133/128 117/127/122 119/128/123 71/134/129
s 87
f 71/134/129 119/128/123 118/129/124 70/135/130
s 88
f 70/135/130 118/129/124 116/18/16 68/17/15
s 89
f 88/94/88 133/100/94 135/103/97 90/95/89
s 90
f 90/95/89 135/103/97 134/105/99 91/96/90
s 91
f 91/96/90 134/105/99 132/37/35 89/49/46
s 92
f 128/136/131 85/97/91 87/98/92 130/137/132
s 93
f 130/137/132 87/98/92 86/99/93 131/138/133
s 94
f 131/138/133 86/99/93 84/10/8 129/9/7
s 95
f 124/107/101 140/139/134 142/140/135 126/108/102
s 96
f 126/108/102 142/140/135 143/141/136 127/110/137
s 97
f 127/110/137 143/141/136 141/42/40 125/41/39
s 98
f 137/142/138 128/136/131 130/137/132 139/143/139
s 99
f 139/143/139 130/137/132 131/138/133 138/144/140
s 100
f 138/144/140 131/138/133 129/9/7 136/14/12
s 101
f 140/139/134 148/145/141 150/146/142 142/140/135
s 102
f 142/140/135 150/146/142 151/147/143 143/141/136
s 103
f 143/141/136 151/147/143 149/33/31 141/42/57
s 104
f 144/148/144 137/142/138 139/143/139 146/149/145
s 105
f 146/149/145 139/143/139 138/144/140 147/150/146
s 106
f 147/150/146 138/144/140 136/14/12 145/13/11
s 107
f 148/145/141 156/151/147 158/152/148 150/146/142
s 108
f 150/146/142 158/152/148 159/153/149 151/147/143
s 109
f 151/147/143 159/153/149 157/34/32 149/33/31
s 110
f 153/154/150 144/148/144 146/149/145 155/155/151
s 111
f 155/155/151 146/149/145 147/150/146 154/156/152
s 112
f 154/156/152 147/150/146 145/13/11 152/26/24
s 113
f 156/151/147 64/157/153 66/158/154 158/152/148
s 114
f 158/152/148 66/158/154 67/159/155 159/153/149
s 115
f 159/153/149 67/159/155 65/53/53 157/34/32
s 116
f 61/160/156 153/154/150 155/155/151 63/161/157
s 117
f 63/161/157 155/155/151 154/156/152 62/162/158
s 118
f 62/162/158 154/156/152 152/26/24 60/25/23
s 119
f 53/163/159 33/3/160 35/164/161 55/165/162
s 120
f 55/165/162 35/164/161 34/166/65 54/167/79
s 121
f 54/85/79 34/63/65 32/66/67 52/82/76
s 122
f 45/68/163 73/168/164 75/169/165 47/170/166
s 123
f 47/170/166 75/169/165 74/171/126 46/172/70
s 124
f 46/74/70 74/131/126 72/130/125 44/75/72
s 125
f 56/89/83 36/173/167 38/174/168 58/90/84
s 126
f 58/90/84 38/174/168 39/175/161 59/176/169
s 127
f 59/177/169 39/178/161 37/179/160 57/180/170
s 128
f 60/181/171 37/179/172 39/182/173 62/183/174
s 129
f 62/183/174 39/182/173 38/184/168 63/185/157
s 130
f 63/161/157 38/174/168 36/173/167 61/160/156
s 131
f 64/157/153 40/186/175 42/187/176 66/158/154
s 132
f 66/158/154 42/187/176 43/188/173 67/189/177
s 133
f 67/190/177 43/191/173 41/192/172 65/193/178
s 134
f 68/194/179 41/192/163 43/195/166 70/196/180
s 135
f 70/196/180 43/195/166 42/197/176 71/198/129
s 136
f 71/134/129 42/187/176 40/186/175 69/133/128
s 137
f 33/3/2 29/2/2 31/60/63 35/59/63
s 138
f 164/199/181 45/68/68 49/67/68 165/200/181
s 139
f 165/200/182 49/67/74 29/77/74 160/201/182
s 140
f 160/201/183 161/4/183 162/202/183 163/203/183 164/199/183 165/200/183
s 141
f 64/157/153 156/151/147 166/204/184
s 142
f 156/151/147 148/145/141 166/205/184
s 143
f 148/145/141 140/139/134 166/206/184
s 144
f 140/139/134 124/107/101 166/207/184
s 145
f 124/107/101 92/106/100 166/208/184
s 146
f 92/106/100 101/115/109 166/209/184
s 147
f 101/115/109 109/121/116 166/210/184
s 148
f 109/121/116 117/127/122 166/211/184
s 149
f 117/127/122 69/133/128 166/212/184
s 150
f 69/133/128 40/186/175 166/213/184
s 151
f 40/186/175 64/157/153 166/214/184
s 152
f 56/89/83 77/88/82 167/215/184
s 153
f 77/88/82 85/97/91 167/216/184
s 154
f 85/97/91 128/136/131 167/217/184
s 155
f 128/136/131 137/142/138 167/218/184
s 156
f 137/142/138 144/148/144 167/219/184
s 157
f 144/148/144 153/154/150 167/220/184
s 158
f 153/154/150 61/160/156 167/221/184
s 159
f 61/160/156 36/173/167 167/222/184
s 160
f 36/173/167 56/89/83 167/223/184
s 161
f 32/66/67 28/65/66 168/224/184
s 162
f 28/65/66 96/101/95 168/225/184
s 163
f 96/101/95 133/100/94 168/226/184
s 164
f 133/100/94 88/94/88 168/227/184
s 165
f 88/94/88 80/83/77 168/228/184
s 166
f 80/83/77 52/82/76 168/229/184
s 167
f 52/82/76 32/66/67 168/230/184
s 168
f 96/101/95 28/65/66 169/231/184
s 169
f 28/65/66 48/76/73 169/232/184
s 170
f 48/76/73 44/75/72 169/233/184
s 171
f 44/75/72 72/130/125 169/234/184
s 172
f 72/130/125 120/124/119 169/235/184
s 173
f 120/124/119 112/118/113 169/236/184
s 174
f 112/118/113 104/112/106 169/237/184
s 175
f 104/112/106 96/101/95 169/238/184
s 176
f 60/181/171 3/239/185 162/202/185 37/179/172
s 177
f 53/163/159 1/240/186 161/4/186 33/3/160
s 178
f 68/194/179 5/241/187 163/203/187 41/192/163
s 179
f 161/4/186 1/240/186 2/242/186 162/202/186
s 180
f 162/202/185 3/239/185 4/243/185 163/203/185
s 181
f 162/202/186 2/242/186 57/180/170 37/179/160
s 182
f 163/203/187 5/241/187 6/244/187 164/199/187
s 183
f 163/203/185 4/243/185 65/193/178 41/192/172
s 184
f 164/199/187 6/244/187 73/168/164 45/68/163
usemtl Brown
s 15
f 19/44/184 20/12/184 21/40/184
s 16
f 1/8/184 8/7/184 7/48/184 2/47/184
s 17
f 8/7/184 10/50/184 9/11/184 7/48/184
s 18
f 21/40/184 12/39/184 11/52/184 19/44/184
s 19
f 12/39/184 14/58/184 13/31/184 11/52/184
s 20
f 14/58/184 16/24/184 15/32/184 13/31/184
s 21
f 16/24/184 18/23/184 17/19/184 15/32/184
s 22
f 18/23/184 6/56/184 5/20/184 17/19/184
s 23
f 10/50/184 21/40/184 20/12/184 9/11/184
s 24
f 19/44/184 23/43/184 22/15/184 20/12/184
s 25
f 23/43/184 25/36/184 24/16/184 22/15/184
s 26
f 25/36/184 27/35/184 26/27/184 24/16/184
s 27
f 27/35/184 4/54/184 3/28/184 26/27/184
