# Blender v2.80 (sub 75) OBJ File: 'TilesExport.blend'
# www.blender.org
mtllib hex_rock_waterA_detail.mtl
o hex_rock_waterA_detail_Cylinder.580
v -1.000000 0.541184 0.577350
v -0.000000 0.500000 -1.123598
v 0.000000 0.541184 -1.154700
v 0.000000 0.000000 -1.154700
v 1.000000 0.000000 -0.577350
v 1.000000 0.000000 0.577350
v -0.000000 0.000000 1.154700
v -1.000000 0.000000 0.577350
v -1.000000 0.000000 -0.577350
v 0.000000 0.458816 -1.154700
v -0.000000 0.500000 -1.123598
v 1.000000 0.458816 -0.577350
v 0.973064 0.500000 -0.561799
v 1.000000 0.458816 0.577350
v 0.973064 0.500000 0.561799
v -0.000000 0.458816 1.154700
v -0.000000 0.500000 1.123598
v -1.000000 0.458816 0.577350
v -0.973064 0.500000 0.561799
v -1.000000 0.458816 -0.577350
v -0.973064 0.500000 -0.561799
v 0.000000 0.900000 -1.154700
v 1.000000 0.900000 -0.577350
v 1.000000 0.900000 0.577350
v -0.000000 0.900000 1.154700
v -1.000000 0.900000 0.577350
v 0.000000 0.541184 -1.154700
v -0.000000 0.500000 -1.123598
v 1.000000 0.541184 -0.577350
v 0.973064 0.500000 -0.561799
v 1.000000 0.541184 0.577350
v 0.973064 0.500000 0.561799
v -0.000000 0.541184 1.154700
v -0.000000 0.500000 1.123598
v -1.000000 0.541184 0.577350
v -0.973064 0.500000 0.561799
v -0.973064 0.500000 0.561799
v -1.000000 0.541184 -0.577350
v -0.973064 0.500000 -0.561799
v -0.173188 0.900000 -0.655849
v -0.576812 0.900000 -0.358172
v -0.728054 0.900000 0.243096
v -0.173188 0.541184 -0.655849
v -0.576812 0.541184 -0.358172
v -0.728054 0.541184 0.243096
v -0.166454 0.500000 -0.636410
v -0.563344 0.500000 -0.350396
v -0.707852 0.500000 0.239208
v -0.950000 1.000000 -0.548482
v -1.000000 0.950000 -0.577350
v -0.975000 0.993301 -0.562916
v -0.993301 0.975000 -0.573482
v -1.000000 0.950000 0.577350
v -0.950000 1.000000 0.424565
v -0.993301 0.975000 0.556881
v -0.975000 0.993301 0.500957
v -0.103483 1.000000 -1.037219
v 0.000000 0.950000 -1.154700
v -0.051741 0.993301 -1.095960
v -0.013864 0.975000 -1.138961
v -0.238425 1.000000 -0.649655
v -0.173188 0.950000 -0.655849
v -0.205807 0.993301 -0.652752
v -0.181928 0.975000 -0.655019
v -0.610876 1.000000 -0.375814
v -0.576812 0.950000 -0.358172
v -0.593844 0.993301 -0.366993
v -0.581376 0.975000 -0.360535
v -0.728054 0.950000 0.243096
v -0.749677 1.000000 0.177860
v -0.730951 0.975000 0.234356
v -0.738865 0.993301 0.210478
vt 0.167155 1.000000
vt 0.166667 1.000000
vt 0.089908 1.000000
vt 0.166667 0.541184
vt 0.166667 0.950000
vt 0.891024 0.950000
vt -0.000000 0.541184
vt 0.833333 0.541184
vt 0.833333 0.500000
vt 1.000000 0.500000
vt 1.000000 0.541184
vt -0.000000 0.500000
vt 0.166667 0.500000
vt 0.333333 0.541184
vt 0.333333 0.500000
vt 0.000000 0.000000
vt 0.000000 0.000000
vt 0.000000 0.000000
vt 0.000000 0.000000
vt 0.333333 0.950000
vt 0.000000 0.000000
vt 0.000000 0.000000
vt 0.000000 0.000000
vt 0.000000 0.000000
vt 0.500000 0.500000
vt 0.500000 0.541184
vt 0.666667 0.500000
vt 0.666667 0.541184
vt 0.167031 1.000000
vt 0.243374 1.000000
vt 0.025131 1.000000
vt 0.166218 1.000000
vt 0.000000 0.000000
vt 0.000000 0.000000
vt 0.330379 0.975000
vt 0.167225 0.975000
vt 0.319081 1.000000
vt 0.165524 1.000000
vt 0.304829 1.000000
vt 0.164382 1.000000
vt 0.168169 0.975000
vt 0.935980 0.975000
vt 0.177083 1.000000
vt 0.946466 1.000000
vt 0.012566 1.000000
vt 0.166442 1.000000
vt 0.246687 1.000000
vt 0.329445 1.000000
vt 0.250000 1.000000
vt 0.000000 0.000000
vt 0.000000 0.000000
vt 0.086621 1.000000
vt 0.083333 1.000000
vt 0.003064 1.000000
vt 0.000000 0.000000
vt 0.000000 0.000000
vt 0.166667 1.000000
vt 0.166667 1.000000
vt 0.084584 1.000000
vt 0.000000 0.000000
vt 0.248956 1.000000
vt 0.833333 0.500000
vt 0.666667 0.500000
vt 0.666667 0.500000
vt 0.833333 0.500000
vt 0.500000 0.500000
vt 0.500000 0.500000
vt 0.333333 0.500000
vt 0.333333 0.500000
vt 0.166667 0.500000
vt 0.166667 0.500000
vt -0.000000 0.500000
vt -0.000000 0.500000
vt 0.750000 0.490000
vt 0.957846 0.370000
vt 0.957846 0.130000
vt 0.750000 0.010000
vt 0.542154 0.130000
vt 0.542154 0.370000
vt 1.000000 0.500000
vt 0.833333 0.500000
vt 1.000000 0.500000
vt 0.666667 0.500000
vt 0.500000 0.500000
vt 0.333333 0.500000
vt 0.166667 0.500000
vt -0.000000 0.500000
vt 1.000000 0.500000
vt 0.000000 0.000000
vt 0.000000 0.000000
vt 0.000000 0.000000
vt 0.000000 0.000000
vt 0.000000 0.000000
vt 1.000000 0.541184
vt 1.000000 1.000000
vt 0.833333 1.000000
vt 0.833333 0.541184
vt 0.500000 0.541184
vt 0.500000 1.000000
vt 0.333333 1.000000
vt 0.333333 0.541184
vt 0.666667 1.000000
vt 0.666667 0.541184
vt 0.833333 0.500000
vt 1.000000 0.500000
vt 0.666667 0.500000
vt 0.500000 0.500000
vt 0.333333 0.500000
vt 0.833333 1.000000
vt 0.666667 1.000000
vt 0.500000 1.000000
vn -0.1306 0.9886 -0.0754
vn 0.1114 0.9912 0.0720
vn 0.1293 0.9822 0.1365
vn -0.4835 -0.2546 -0.8375
vn -0.4961 0.1241 -0.8593
vn -0.4977 0.0961 -0.8620
vn 0.8077 0.1731 0.5636
vn 0.7275 0.3478 0.5915
vn 0.9111 0.2671 0.3138
vn 0.9400 0.1025 0.3254
vn -0.4184 -0.5474 -0.7248
vn -0.9670 -0.2546 0.0000
vn -0.8369 -0.5474 0.0000
vn 0.8154 0.1969 0.5445
vn 0.8094 0.1289 0.5729
vn 0.8246 0.1020 0.5564
vn -0.9955 0.0951 0.0000
vn -0.9923 0.1241 0.0000
vn 0.9385 0.1144 0.3258
vn 0.8717 0.1713 0.4592
vn 0.8795 0.1286 0.4582
vn 0.7705 0.1088 0.6281
vn 0.7428 0.2817 0.6074
vn 0.8537 0.3461 0.3892
vn 0.7582 0.3997 0.5152
vn 0.1645 0.9847 0.0574
vn 0.0340 0.9969 -0.0703
vn 0.7710 0.1101 0.6273
vn -0.9413 0.3377 0.0000
vn -0.8897 0.4566 0.0000
vn -0.1204 0.9630 0.2413
vn -0.4435 0.8589 -0.2561
vn -0.0398 0.9971 0.0645
vn -0.4448 0.4566 -0.7705
vn -0.4702 0.3399 -0.8145
vn 0.1444 0.9611 -0.2354
vn 0.5058 0.8347 0.2179
vn 0.7161 0.3846 0.5825
vn 0.7785 0.4864 0.3967
vn 0.4243 0.8263 0.3704
vn 0.7076 0.4834 0.5155
vn 0.8672 0.3966 0.3011
vn 0.4528 0.8370 0.3072
vn 0.7464 0.4298 0.5082
vn 0.9670 0.2546 0.0000
vn 1.0000 0.0000 0.0000
vn 0.4835 0.2546 0.8375
vn 0.5000 0.0000 0.8660
vn -0.4835 0.2546 0.8375
vn -0.5000 0.0000 0.8660
vn -0.9670 0.2546 0.0000
vn -1.0000 0.0000 0.0000
vn -0.4835 0.2546 -0.8375
vn -0.5000 0.0000 -0.8660
vn 0.0000 -1.0000 0.0000
vn 0.4184 0.5474 -0.7248
vn 0.4835 0.2546 -0.8375
vn 0.8369 0.5474 0.0000
vn 0.4184 0.5474 0.7248
vn -0.4184 0.5474 0.7248
vn -0.8369 0.5474 0.0000
vn -0.4184 0.5474 -0.7248
vn 0.5000 0.0000 -0.8660
vn 0.0000 1.0000 -0.0000
vn 0.4835 -0.2546 -0.8375
vn -0.4835 -0.2546 0.8375
vn 0.9670 -0.2546 0.0000
vn 0.4835 -0.2546 0.8375
vn 0.4184 -0.5474 -0.7248
vn 0.8369 -0.5474 0.0000
vn 0.4184 -0.5474 0.7248
vn -0.4184 -0.5474 0.7248
usemtl Brown
s 4
f 49/1/1 65/2/2 61/3/3
s 7
f 38/4/4 50/5/5 58/6/6 3/7/4
s 9
f 43/8/7 46/9/8 2/10/9 3/11/10
s 10
f 38/4/4 3/7/4 2/12/11 39/13/11
s 12
f 1/14/12 38/4/12 39/13/13 37/15/13
s 14
f 44/16/14 43/17/7 62/18/15 66/19/16
s 22
f 1/14/12 53/20/17 50/5/18 38/4/12
s 32
f 43/17/7 3/21/10 58/22/19 62/18/15
s 33
f 45/23/20 44/16/14 66/19/16 69/24/21
s 34
f 1/14/22 37/15/23 48/25/24 45/26/20
s 35
f 45/26/20 48/25/24 47/27/25 44/28/14
s 36
f 44/28/14 47/27/25 46/9/8 43/8/7
s 37
f 65/2/2 49/29/1 70/30/26
s 38
f 57/31/27 49/32/1 61/3/3
s 39
f 1/33/22 45/23/20 69/24/21 53/34/28
s 40
f 50/5/18 53/20/17 55/35/29 52/36/30
s 41
f 52/36/30 55/35/29 56/37/31 51/38/32
s 42
f 51/38/32 56/37/31 54/39/33 49/40/1
s 43
f 58/6/6 50/5/5 52/41/34 60/42/35
s 44
f 60/42/35 52/41/34 51/43/32 59/44/36
s 45
f 59/45/36 51/46/32 49/32/1 57/31/27
s 46
f 70/30/26 54/39/33 56/37/31 72/47/37
s 47
f 72/47/37 56/37/31 55/48/38 71/49/39
s 48
f 71/50/39 55/51/38 53/34/28 69/24/21
s 49
f 57/31/27 61/3/3 63/52/40 59/45/36
s 50
f 59/45/36 63/52/40 64/53/41 60/54/42
s 51
f 60/55/42 64/56/41 62/18/15 58/22/19
s 52
f 61/3/3 65/2/2 67/57/43 63/52/40
s 53
f 63/52/40 67/57/43 68/58/44 64/59/41
s 54
f 64/56/41 68/60/44 66/19/16 62/18/15
s 55
f 65/2/2 70/30/26 72/47/37 67/57/43
s 56
f 67/57/43 72/47/37 71/61/39 68/58/44
s 57
f 68/60/44 71/50/39 69/24/21 66/19/16
s 58
f 49/40/1 54/39/33 70/30/26
usemtl BrownDark
s 1
f 12/62/45 14/63/45 6/64/46 5/65/46
s 2
f 14/63/47 16/66/47 7/67/48 6/64/48
s 3
f 16/66/49 18/68/49 8/69/50 7/67/50
s 5
f 18/68/51 20/70/51 9/71/52 8/69/52
s 6
f 20/70/53 10/72/53 4/73/54 9/71/54
s 8
f 4/74/55 5/75/55 6/76/55 7/77/55 8/78/55 9/79/55
s 11
f 11/80/56 13/81/56 12/62/57 10/82/57
s 13
f 13/81/58 15/83/58 14/63/45 12/62/45
s 15
f 15/83/59 17/84/59 16/66/47 14/63/47
s 16
f 17/84/60 19/85/60 18/68/49 16/66/49
s 17
f 19/85/61 21/86/61 20/70/51 18/68/51
s 18
f 21/86/62 11/87/62 10/72/53 20/70/53
s 19
f 10/82/57 12/62/57 5/65/63 4/88/63
s 20
f 13/89/64 11/90/64 19/91/64 17/92/64 15/93/64
s 21
f 21/86/64 19/85/64 11/87/64
usemtl Water
s 23
f 27/94/65 22/95/63 23/96/63 29/97/65
s 24
f 33/98/66 25/99/50 26/100/50 35/101/66
s 25
f 29/97/67 23/96/46 24/102/46 31/103/67
s 26
f 31/103/68 24/102/48 25/99/48 33/98/68
s 27
f 27/94/65 29/97/65 30/104/69 28/105/69
s 28
f 29/97/67 31/103/67 32/106/70 30/104/70
s 29
f 31/103/68 33/98/68 34/107/71 32/106/71
s 30
f 33/98/66 35/101/66 36/108/72 34/107/72
s 31
f 23/96/64 22/95/64 40/109/64 41/110/64 42/111/64 26/100/64 25/99/64 24/102/64
