# Blender v2.80 (sub 75) OBJ File: 'TilesExport.blend'
# www.blender.org
mtllib hex_forest.mtl
o hex_forest_Cylinder.506
v 0.000000 0.000000 -1.154700
v 1.000000 0.000000 -0.577350
v 1.000000 0.000000 0.577350
v -0.000000 0.000000 1.154700
v -1.000000 0.000000 0.577350
v -1.000000 0.000000 -0.577350
v 0.000000 0.950000 -1.154700
v 0.000000 1.000000 -1.096965
v 0.000000 0.975000 -1.146965
v 0.000000 0.993301 -1.125833
v 0.950000 1.000000 -0.548482
v 1.000000 0.950000 -0.577350
v 0.975000 0.993301 -0.562916
v 0.993301 0.975000 -0.573483
v 0.950000 1.000000 0.548483
v 1.000000 0.950000 0.577350
v 0.975000 0.993301 0.562916
v 0.993301 0.975000 0.573483
v -0.000000 1.000000 1.096965
v -0.000000 0.950000 1.154700
v -0.000000 0.993301 1.125833
v -0.000000 0.975000 1.146965
v -0.950000 1.000000 0.548482
v -1.000000 0.950000 0.577350
v -0.975000 0.993301 0.562916
v -0.993301 0.975000 0.573482
v -0.950000 1.000000 -0.548482
v -1.000000 0.950000 -0.577350
v -0.975000 0.993301 -0.562916
v -0.993301 0.975000 -0.573482
vt 0.671829 0.553624
vt 0.646159 0.553346
vt 0.643631 0.568981
vt 0.669302 0.569259
vt 0.668963 0.600580
vt 0.643292 0.600302
vt 0.645481 0.615988
vt 0.671152 0.616265
vt 0.453935 0.060869
vt 0.479705 0.045991
vt 0.479705 0.016235
vt 0.453935 0.001356
vt 0.428165 0.016235
vt 0.428165 0.045991
vt 0.100189 0.089854
vt 0.100189 0.121176
vt 0.127315 0.136838
vt 0.154441 0.121176
vt 0.154441 0.089854
vt 0.127315 0.074193
vt 0.877989 0.207124
vt 0.852317 0.207124
vt 0.852317 0.238447
vt 0.877989 0.238447
vt 0.342035 0.606065
vt 0.316363 0.606065
vt 0.316363 0.637388
vt 0.342035 0.637388
vt 0.344394 0.590404
vt 0.318721 0.590404
vt 0.669656 0.600482
vt 0.669992 0.569371
vt 0.670196 0.600201
vt 0.670527 0.569664
vt 0.453935 0.061652
vt 0.480383 0.046382
vt 0.344394 0.653049
vt 0.345069 0.652839
vt 0.342727 0.637283
vt 0.426991 0.046669
vt 0.453935 0.062225
vt 0.427487 0.046382
vt 0.342727 0.606170
vt 0.343264 0.636996
vt 0.343264 0.606457
vt 0.427487 0.015843
vt 0.345069 0.590614
vt 0.453935 0.000000
vt 0.426991 0.015556
vt 0.453935 0.000573
vt 0.878680 0.238342
vt 0.878680 0.207229
vt 0.879218 0.238055
vt 0.879218 0.207516
vt 0.480383 0.015843
vt 0.671829 0.616063
vt 0.480880 0.046669
vt 0.480880 0.015556
vn 0.9923 0.1241 0.0000
vn 1.0000 0.0000 0.0000
vn -0.4961 0.1241 -0.8593
vn -0.5000 0.0000 -0.8660
vn 0.1306 0.9886 -0.0754
vn 0.0000 0.9886 -0.1508
vn -0.1306 0.9886 -0.0754
vn -0.1306 0.9886 0.0754
vn 0.0000 0.9886 0.1508
vn 0.1306 0.9886 0.0754
vn 0.0000 -1.0000 0.0000
vn -0.9923 0.1241 0.0000
vn -1.0000 0.0000 0.0000
vn 0.4961 0.1241 0.8593
vn 0.5000 0.0000 0.8660
vn -0.4961 0.1241 0.8593
vn -0.5000 0.0000 0.8660
vn 0.4961 0.1241 -0.8593
vn 0.4448 0.4566 -0.7705
vn 0.0000 0.8589 -0.5121
vn 0.4435 0.8589 -0.2561
vn 0.8897 0.4566 0.0000
vn 0.4435 0.8589 0.2561
vn 0.4448 0.4566 0.7705
vn 0.0000 0.8589 0.5121
vn -0.4448 0.4566 0.7705
vn -0.4435 0.8589 0.2561
vn -0.8897 0.4566 0.0000
vn -0.4435 0.8589 -0.2561
vn -0.4448 0.4566 -0.7705
vn 0.5000 0.0000 -0.8660
usemtl Green
s 1
f 16/1/1 3/2/2 2/3/2 12/4/1
s 2
f 7/5/3 1/6/4 6/7/4 28/8/3
s 3
f 11/9/5 8/10/6 27/11/7 23/12/8 19/13/9 15/14/10
s 4
f 1/15/11 2/16/11 3/17/11 4/18/11 5/19/11 6/20/11
s 5
f 28/21/12 6/22/13 5/23/13 24/24/12
s 6
f 20/25/14 4/26/15 3/27/15 16/28/14
s 7
f 24/29/16 5/30/17 4/26/17 20/25/16
s 8
f 12/4/18 7/5/18 9/31/19 14/32/19
s 9
f 14/32/19 9/31/19 10/33/20 13/34/21
s 10
f 13/35/21 10/36/20 8/10/6 11/9/5
s 11
f 16/28/1 12/37/1 14/38/22 18/39/22
s 12
f 18/40/22 14/41/22 13/35/21 17/42/23
s 13
f 17/42/23 13/35/21 11/9/5 15/14/10
s 14
f 20/25/14 16/28/14 18/39/24 22/43/24
s 15
f 22/43/24 18/39/24 17/44/23 21/45/25
s 16
f 21/46/25 17/42/23 15/14/10 19/13/9
s 17
f 24/29/16 20/25/16 22/43/26 26/47/26
s 18
f 26/48/26 22/49/26 21/46/25 25/50/27
s 19
f 25/50/27 21/46/25 19/13/9 23/12/8
s 20
f 28/21/12 24/24/12 26/51/28 30/52/28
s 21
f 30/52/28 26/51/28 25/53/27 29/54/29
s 22
f 29/55/29 25/50/27 23/12/8 27/11/7
s 23
f 7/5/3 28/8/3 30/56/30 9/31/30
s 24
f 9/57/30 30/58/30 29/55/29 10/36/20
s 25
f 10/36/20 29/55/29 27/11/7 8/10/6
s 26
f 12/4/18 2/3/31 1/6/31 7/5/18
