# Blender v2.80 (sub 75) OBJ File: 'TilesExport.blend'
# www.blender.org
mtllib hex_sand_waterD_detail.mtl
o hex_sand_waterD_detail_Cylinder.621
v 0.000000 0.000000 -1.154700
v 1.000000 0.000000 -0.577350
v 1.000000 0.000000 0.577350
v -0.000000 0.000000 1.154700
v -1.000000 0.000000 0.577350
v -1.000000 0.000000 -0.577350
v 0.000000 0.458816 -1.154700
v -0.000000 0.500000 -1.123598
v 1.000000 0.458816 -0.577350
v 0.973064 0.500000 -0.561799
v 1.000000 0.458816 0.577350
v 0.973064 0.500000 0.561799
v -0.000000 0.458816 1.154700
v -0.000000 0.500000 1.123598
v -1.000000 0.458816 0.577350
v -0.973064 0.500000 0.561799
v -1.000000 0.458816 -0.577350
v -0.973064 0.500000 -0.561799
v 1.000000 0.541184 0.577350
v 0.973064 0.500000 -0.561799
v 1.000000 0.541184 -0.577350
v -0.000000 0.500000 -1.123598
v 0.000000 0.541184 -1.154700
v 0.000000 0.541184 -1.154700
v -0.000000 0.500000 -1.123598
v -1.000000 0.541184 0.577350
v -0.973064 0.500000 0.561799
v -1.000000 0.541184 -0.577350
v -0.973064 0.500000 -0.561799
v 0.000000 0.901184 -1.154700
v -1.000000 0.901184 0.577350
v -1.000000 0.901184 -0.577350
v 0.973064 0.500000 0.561799
v -0.000000 0.541184 1.154700
v -0.000000 0.500000 1.123598
v -1.000000 0.541184 0.577350
v -0.973064 0.500000 0.561799
v -0.060585 0.500000 -0.814673
v -0.201743 0.500000 -0.600334
v -0.160734 0.500000 -0.224848
v -0.347434 0.500000 0.105096
v -0.782861 0.500000 0.298415
v -0.065074 0.541184 -0.837999
v -0.210721 0.541184 -0.615885
v -0.174202 0.541184 -0.232624
v -0.365391 0.541184 0.105096
v -0.805308 0.541184 0.306191
v -0.065074 0.901184 -0.837999
v -0.210721 0.901184 -0.615885
v -0.174202 0.901184 -0.232624
v -0.365391 0.901184 0.105096
v -0.805308 0.901184 0.306191
v 0.042837 1.001184 -1.110177
v 0.000000 0.951184 -1.154700
v 0.021418 0.994485 -1.132438
v 0.005739 0.976184 -1.148735
v 0.956376 1.001184 -0.588026
v 1.000000 0.951184 -0.577350
v 0.978188 0.994485 -0.582688
v 0.994156 0.976184 -0.578780
v 0.966859 1.001184 0.558216
v 1.000000 0.951184 0.577350
v 0.983429 0.994485 0.567783
v 0.995560 0.976184 0.574787
v -0.025677 1.001184 1.127645
v -0.000000 0.951184 1.154700
v -0.012839 0.994485 1.141173
v -0.003440 0.976184 1.151075
v -0.974042 1.001184 0.571756
v -1.000000 0.951184 0.577350
v -0.987021 0.994485 0.574553
v -0.996522 0.976184 0.576600
v -0.065074 0.951184 -0.837999
v -0.015542 1.001184 -0.825878
v -0.058438 0.976184 -0.836375
v -0.040308 0.994485 -0.831939
v -0.210721 0.951184 -0.615885
v -0.175804 1.001184 -0.581472
v -0.206043 0.976184 -0.611275
v -0.193262 0.994485 -0.598679
v -0.174202 0.951184 -0.232624
v -0.141256 1.001184 -0.209897
v -0.169788 0.976184 -0.229579
v -0.157729 0.994485 -0.221261
v -0.365391 0.951184 0.105096
v -0.328673 1.001184 0.117796
v -0.360472 0.976184 0.106797
v -0.347032 0.994485 0.111446
v -0.788674 1.001184 0.323717
v -0.805308 0.951184 0.306191
v -0.796991 0.994485 0.314954
v -0.803079 0.976184 0.308539
vt 0.484057 0.523928
vt 0.647710 0.524729
vt 0.017928 0.014553
vt 0.010327 0.011178
vt 0.666667 0.541184
vt 0.500000 0.541184
vt 0.500000 0.500000
vt 0.666667 0.500000
vt 0.000000 0.000000
vt 0.000000 0.000000
vt 0.000000 0.000000
vt 0.000000 0.000000
vt 1.000000 0.541184
vt 0.833333 0.541184
vt 0.833333 0.500000
vt 1.000000 0.500000
vt 0.333333 0.541184
vt 0.333333 0.500000
vt 0.000000 0.000000
vt 0.000000 0.000000
vt 0.297101 0.482360
vt 0.247584 0.482360
vt 0.000000 0.000000
vt 0.099034 0.482360
vt 0.049517 0.482360
vt 0.648712 0.526609
vt 0.018705 0.015185
vt 0.500000 0.541184
vt 0.333333 0.541184
vt -0.000000 0.482360
vt 0.038755 0.025168
vt 0.019227 0.015608
vt 0.646669 0.526470
vt 0.799201 0.519018
vt 0.000000 0.000000
vt 0.148551 0.482360
vt 0.000000 0.000000
vt 0.198068 0.482360
vt 0.000000 0.000000
vt 0.000000 0.000000
vt 0.000000 0.000000
vt 0.000000 0.000000
vt 0.000000 0.000000
vt 0.666667 0.541184
vt 0.007756 0.008394
vt 0.647635 0.525734
vt 0.833333 0.541184
vt 1.000000 0.541184
vt 0.038727 0.025150
vt 0.816267 0.530101
vt 0.019363 0.012575
vt 0.829164 0.538477
vt 0.005739 0.003727
vt 0.998852 0.541184
vt 0.834167 0.541184
vt 0.656927 0.533391
vt 0.666667 0.541184
vt 0.833540 0.541184
vt 0.492029 0.532556
vt 0.499831 0.541184
vt 0.003878 0.004197
vt 0.001142 0.001236
vt 0.497925 0.538938
vt 0.499308 0.541184
vt 0.333714 0.541184
vt 0.314890 0.511772
vt 0.262755 0.511772
vt 0.331695 0.541184
vt 0.278155 0.541184
vt 0.005164 0.005589
vt 0.052568 0.511772
vt 0.000612 0.511772
vt 0.055555 0.541184
vt 0.003006 0.541184
vt 0.019377 0.012584
vt 0.105277 0.511772
vt 0.052177 0.511772
vt 0.111111 0.541184
vt 0.009613 0.007804
vt 0.157954 0.511772
vt 0.105609 0.511772
vt 0.166667 0.541184
vt 0.113822 0.541184
vt 0.009353 0.007592
vt 0.210048 0.511772
vt 0.157657 0.511772
vt 0.221718 0.541184
vt 0.166920 0.541184
vt 0.008964 0.007277
vt 0.262598 0.511772
vt 0.209860 0.511772
vt 0.277327 0.541184
vt 0.222222 0.541184
vt 0.833333 0.500000
vt 0.666667 0.500000
vt 0.666667 0.500000
vt 0.833333 0.500000
vt 0.500000 0.500000
vt 0.500000 0.500000
vt 0.333333 0.500000
vt 0.333333 0.500000
vt 0.166667 0.500000
vt 0.166667 0.500000
vt -0.000000 0.500000
vt -0.000000 0.500000
vt 0.750000 0.490000
vt 0.957846 0.370000
vt 0.957846 0.130000
vt 0.750000 0.010000
vt 0.542154 0.130000
vt 0.542154 0.370000
vt 0.000000 0.000000
vt 0.000000 0.000000
vt 0.000000 0.000000
vt 0.000000 0.000000
vt 0.000000 0.000000
vt 1.000000 0.500000
vt 0.833333 0.500000
vt 1.000000 0.500000
vt 0.666667 0.500000
vt 0.500000 0.500000
vt 0.333333 0.500000
vt 0.166667 0.500000
vt -0.000000 0.500000
vt 1.000000 0.500000
vt 0.000000 0.000000
vt 0.333333 0.541184
vt 0.166667 0.541184
vt 0.166667 0.500000
vt 0.333333 0.500000
vt -0.000000 0.541184
vt -0.000000 0.500000
vt 0.166667 0.541184
vt -0.000000 0.541184
vt 0.333333 0.541184
vt 0.277778 0.541184
vt 0.222222 0.541184
vt 0.166667 0.541184
vt 0.111111 0.541184
vt 0.055555 0.541184
vn -0.1212 0.9276 0.3535
vn 0.1732 0.9793 0.1052
vn -0.1049 0.9892 -0.1020
vn -0.1866 0.9555 -0.2284
vn 0.4835 -0.2546 0.8375
vn 0.4184 -0.5474 0.7248
vn -0.8616 -0.3067 -0.4046
vn -0.9268 -0.1308 -0.3520
vn -0.9776 -0.0678 -0.1992
vn -0.9643 -0.1805 -0.1937
vn 0.4835 -0.2546 -0.8375
vn 0.4184 -0.5474 -0.7248
vn -0.4835 -0.2546 0.8375
vn -0.4184 -0.5474 0.7248
vn 0.9670 -0.2546 0.0000
vn 0.8369 -0.5474 0.0000
vn -0.6576 -0.1231 -0.7433
vn -0.8062 -0.1195 -0.5795
vn -0.8108 0.0535 -0.5829
vn -0.6345 0.0621 -0.7704
vn -0.9511 -0.1634 -0.2623
vn -0.9618 0.1094 -0.2508
vn -0.9151 0.1335 -0.3805
vn -0.1329 0.9904 -0.0373
vn -0.4999 0.0355 0.8654
vn -0.4998 0.0367 0.8653
vn -0.9719 0.1248 -0.1997
vn -0.1060 0.9935 -0.0419
vn -0.2046 0.9787 -0.0187
vn 0.2338 0.9324 -0.2757
vn -0.9685 -0.1591 -0.1915
vn -0.9749 0.0984 -0.1997
vn -0.6456 -0.1164 -0.7547
vn -0.6654 0.0892 -0.7411
vn -0.7727 -0.3057 -0.5564
vn -0.5563 -0.1888 -0.8093
vn -0.6857 -0.2715 -0.6753
vn -0.9261 -0.3130 -0.2107
vn -0.9375 -0.3071 -0.1640
vn 0.4980 0.0888 0.8627
vn 0.4977 0.0931 0.8623
vn -0.2788 0.9379 -0.2062
vn 0.9947 0.1030 -0.0003
vn 0.9952 0.0979 -0.0003
vn 0.4996 0.0354 -0.8655
vn 0.4996 0.0366 -0.8655
vn 0.3327 0.7431 -0.5806
vn 0.5818 0.6956 -0.4216
vn 0.4673 0.3492 -0.8122
vn 0.4940 0.1473 -0.8569
vn 0.4948 0.1374 -0.8581
vn 0.5256 0.7916 0.3117
vn 0.9225 0.3861 -0.0014
vn 0.9031 0.4294 -0.0015
vn -0.0596 0.6803 0.7305
vn 0.4586 0.3964 0.7953
vn 0.4667 0.3572 0.8091
vn -0.3464 0.7266 0.5933
vn -0.4547 0.4249 0.7827
vn -0.4945 0.1596 0.8544
vn -0.4955 0.1462 0.8562
vn -0.7893 0.2273 -0.5704
vn -0.6124 0.2718 -0.7423
vn -0.6790 0.5420 -0.4952
vn -0.4825 0.6534 -0.5833
vn -0.7903 0.5161 -0.3301
vn -0.8730 0.4535 -0.1794
vn -0.4379 0.8808 -0.1800
vn -0.5598 0.8206 -0.1150
vn -0.1588 0.9868 -0.0326
vn -0.8746 0.4303 -0.2234
vn -0.5944 0.7964 -0.1111
vn -0.8934 0.4144 -0.1735
vn -0.5525 0.8257 -0.1137
vn -0.6057 0.3786 -0.6999
vn -0.3935 0.7983 -0.4559
vn 0.9670 0.2546 0.0000
vn 1.0000 0.0000 0.0000
vn 0.4835 0.2546 0.8375
vn 0.5000 0.0000 0.8660
vn -0.4835 0.2546 0.8375
vn -0.5000 0.0000 0.8660
vn -0.9670 0.2546 0.0000
vn -1.0000 0.0000 0.0000
vn -0.4835 0.2546 -0.8375
vn -0.5000 0.0000 -0.8660
vn 0.0000 -1.0000 0.0000
vn 0.0000 1.0000 0.0000
vn 0.4184 0.5474 -0.7248
vn 0.4835 0.2546 -0.8375
vn 0.8369 0.5474 0.0000
vn 0.4184 0.5474 0.7248
vn -0.4184 0.5474 0.7248
vn -0.8369 0.5474 0.0000
vn -0.4184 0.5474 -0.7248
vn 0.5000 0.0000 -0.8660
vn -0.9670 -0.2546 0.0000
vn -0.8369 -0.5474 0.0000
vn -0.4835 -0.2546 -0.8375
vn -0.4184 -0.5474 -0.7248
usemtl Beige
s 16
f 65/1/1 61/2/2 86/3/3 89/4/4
s 17
f 19/5/5 34/6/5 35/7/6 33/8/6
s 18
f 38/9/7 43/10/8 23/11/9 22/12/10
s 19
f 23/13/11 21/14/11 20/15/12 22/16/12
s 20
f 34/6/13 36/17/13 37/18/14 35/7/14
s 21
f 21/14/15 19/5/15 33/8/16 20/15/16
s 27
f 47/19/17 36/20/18 70/21/19 90/22/20
s 28
f 43/10/8 44/23/21 77/24/22 73/25/23
s 29
f 61/26/2 82/27/24 86/3/3
s 30
f 34/6/13 66/28/25 70/29/26 36/17/13
s 31
f 23/11/9 43/10/8 73/25/23 54/30/27
s 32
f 74/31/28 78/32/29 61/33/2 57/34/30
s 33
f 44/23/21 45/35/31 81/36/32 77/24/22
s 34
f 45/35/31 46/37/33 85/38/34 81/36/32
s 35
f 46/37/33 47/19/17 90/22/20 85/38/34
s 36
f 37/39/35 36/20/18 47/19/17 42/40/36
s 37
f 42/40/36 47/19/17 46/37/33 41/41/37
s 38
f 41/41/37 46/37/33 45/35/31 40/42/38
s 39
f 40/42/38 45/35/31 44/23/21 39/43/39
s 40
f 39/43/39 44/23/21 43/10/8 38/9/7
s 41
f 19/5/5 62/44/40 66/28/41 34/6/5
s 42
f 65/1/1 89/4/4 69/45/42
s 43
f 61/46/2 78/32/29 82/27/24
s 44
f 21/14/15 58/47/43 62/44/44 19/5/15
s 45
f 23/13/11 54/48/45 58/47/46 21/14/11
s 46
f 53/49/47 57/34/30 59/50/48 55/51/49
s 47
f 55/51/49 59/50/48 60/52/50 56/53/51
s 48
f 56/54/51 60/55/50 58/47/46 54/48/45
s 49
f 57/34/30 61/33/2 63/56/52 59/50/48
s 50
f 59/50/48 63/56/52 64/57/53 60/58/54
s 51
f 60/58/54 64/57/53 62/44/44 58/47/43
s 52
f 61/2/2 65/1/1 67/59/55 63/56/52
s 53
f 63/56/52 67/59/55 68/60/56 64/57/57
s 54
f 64/57/57 68/60/56 66/28/41 62/44/40
s 55
f 65/1/1 69/45/58 71/61/59 67/59/55
s 56
f 67/59/55 71/61/59 72/62/60 68/63/61
s 57
f 68/64/61 72/65/60 70/29/26 66/28/25
s 58
f 90/22/20 70/21/19 72/66/62 92/67/63
s 59
f 92/67/63 72/66/62 71/68/64 91/69/65
s 60
f 91/70/65 71/61/64 69/45/42 89/4/4
s 61
f 54/30/27 73/25/23 75/71/66 56/72/67
s 62
f 56/72/67 75/71/66 76/73/68 55/74/69
s 63
f 55/51/69 76/75/68 74/31/28 53/49/70
s 64
f 73/25/23 77/24/22 79/76/71 75/77/66
s 65
f 75/77/66 79/76/71 80/78/72 76/73/68
s 66
f 76/75/68 80/79/72 78/32/29 74/31/28
s 67
f 77/24/22 81/36/32 83/80/73 79/81/71
s 68
f 79/81/71 83/80/73 84/82/74 80/83/72
s 69
f 80/79/72 84/84/74 82/27/24 78/32/29
s 70
f 81/36/32 85/38/34 87/85/75 83/86/73
s 71
f 83/86/73 87/85/75 88/87/76 84/88/74
s 72
f 84/84/74 88/89/76 86/3/3 82/27/24
s 73
f 85/38/34 90/22/20 92/90/63 87/91/75
s 74
f 87/91/75 92/90/63 91/92/65 88/93/76
s 75
f 88/89/76 91/70/65 89/4/4 86/3/3
s 76
f 53/49/70 74/31/28 57/34/30
usemtl BrownDark
s 1
f 9/94/77 11/95/77 3/96/78 2/97/78
s 2
f 11/95/79 13/98/79 4/99/80 3/96/80
s 3
f 13/98/81 15/100/81 5/101/82 4/99/82
s 4
f 15/100/83 17/102/83 6/103/84 5/101/84
s 5
f 17/102/85 7/104/85 1/105/86 6/103/86
s 6
f 1/106/87 2/107/87 3/108/87 4/109/87 5/110/87 6/111/87
s 7
f 12/112/88 10/113/88 8/114/88 16/115/88 14/116/88
s 8
f 8/117/89 10/118/89 9/94/90 7/119/90
s 9
f 10/118/91 12/120/91 11/95/77 9/94/77
s 10
f 12/120/92 14/121/92 13/98/79 11/95/79
s 11
f 14/121/93 16/122/93 15/100/81 13/98/81
s 12
f 16/122/94 18/123/94 17/102/83 15/100/83
s 13
f 18/123/95 8/124/95 7/104/85 17/102/85
s 14
f 7/119/90 9/94/90 2/97/96 1/125/96
s 15
f 16/115/88 8/114/88 18/126/88
usemtl Water
s 22
f 26/127/97 28/128/97 29/129/98 27/130/98
s 23
f 28/128/99 24/131/99 25/132/100 29/129/100
s 24
f 24/131/99 28/128/99 32/133/86 30/134/86
s 25
f 30/134/88 32/133/88 31/135/88 52/136/88 51/137/88 50/138/88 49/139/88 48/140/88
s 26
f 28/128/97 26/127/97 31/135/84 32/133/84
