# Blender v2.80 (sub 75) OBJ File: 'TilesExport.blend'
# www.blender.org
mtllib hex_forest_roadC_detail.mtl
o hex_forest_roadC_detail_Cylinder.464
v 1.000000 0.900000 -0.173206
v 1.000000 0.900000 0.173206
v 0.650000 0.900000 0.779422
v 0.350000 0.900000 0.952628
v 0.793935 0.900000 0.182604
v 0.693893 0.900000 -0.169926
v 0.650199 0.900000 0.238636
v 0.417494 0.900000 -0.058913
v 0.583650 0.900000 0.322011
v 0.227459 0.900000 0.196056
v 0.555863 0.900000 0.455826
v 0.165682 0.900000 0.437582
v 0.582256 0.900000 0.616307
v 0.222566 0.900000 0.733757
v -0.000003 1.000000 -1.098812
v -0.000003 0.951603 -1.154696
v -0.000003 0.993516 -1.126754
v -0.000003 0.975802 -1.147209
v 0.951601 1.000000 -0.549404
v 0.999997 0.951603 -0.577346
v 0.975799 0.993516 -0.563375
v 0.993513 0.975802 -0.573602
v 0.951601 1.000000 0.549412
v 0.999997 0.951603 0.577354
v 0.975799 0.993516 0.563383
v 0.993513 0.975802 0.573611
v -0.000003 1.000000 1.098820
v -0.000003 0.951603 1.154704
v -0.000003 0.993516 1.126762
v -0.000003 0.975802 1.147217
v -0.951606 1.000000 0.549412
v -1.000003 0.951603 0.577354
v -0.975805 0.993516 0.563383
v -0.993519 0.975802 0.573610
v -0.951606 1.000000 -0.549404
v -1.000003 0.951603 -0.577346
v -0.975805 0.993516 -0.563375
v -0.993519 0.975802 -0.573602
v 0.951603 1.000000 -0.221087
v 1.000000 0.951603 -0.173206
v 0.975802 0.993516 -0.197146
v 0.993516 0.975802 -0.179621
v 0.951603 1.000000 0.223861
v 1.000000 0.951603 0.173206
v 0.975802 0.993516 0.198533
v 0.993516 0.975802 0.179993
v 0.650000 0.951603 0.779422
v 0.673549 1.000000 0.709943
v 0.653154 0.975802 0.770114
v 0.661774 0.993516 0.744683
v 0.283736 1.000000 0.935003
v 0.350000 0.951603 0.952628
v 0.316868 0.993516 0.943816
v 0.341123 0.975802 0.950267
v 0.793935 0.951603 0.182604
v 0.804095 1.000000 0.230588
v 0.795297 0.975802 0.189033
v 0.799015 0.993516 0.206596
v 0.684288 1.000000 -0.218223
v 0.693893 0.951603 -0.169926
v 0.689090 0.993516 -0.194074
v 0.692606 0.975802 -0.176397
v 0.650199 0.951603 0.238636
v 0.679904 1.000000 0.279001
v 0.654178 0.975802 0.244044
v 0.665051 0.993516 0.258819
v 0.386825 1.000000 -0.098750
v 0.417494 0.951603 -0.058913
v 0.402160 0.993516 -0.078832
v 0.413385 0.975802 -0.064250
v 0.583650 0.951603 0.322011
v 0.628686 1.000000 0.343168
v 0.589684 0.975802 0.324845
v 0.606168 0.993516 0.332590
v 0.182941 1.000000 0.174800
v 0.227459 0.951603 0.196056
v 0.205200 0.993516 0.185428
v 0.221494 0.975802 0.193208
v 0.555863 0.951603 0.455826
v 0.605079 1.000000 0.456853
v 0.562457 0.975802 0.455963
v 0.580471 0.993516 0.456339
v 0.116112 1.000000 0.436079
v 0.165682 0.951603 0.437582
v 0.140897 0.993516 0.436831
v 0.159041 0.975802 0.437381
v 0.582256 0.951603 0.616307
v 0.629101 1.000000 0.602921
v 0.588532 0.975802 0.614513
v 0.605679 0.993516 0.609614
v 0.176593 1.000000 0.750982
v 0.222566 0.951603 0.733757
v 0.199580 0.993516 0.742370
v 0.216407 0.975802 0.736065
v -0.000003 0.000000 -1.154696
v 0.999997 0.000000 -0.577346
v 0.999997 0.000000 0.577354
v -0.000003 0.000000 1.154704
v -1.000003 0.000000 0.577354
v -1.000003 0.000000 -0.577346
v -0.000003 0.458816 -1.154696
v -0.000003 0.541184 -1.154696
v -0.000003 0.500000 -1.123594
v 0.999997 0.541184 -0.577346
v 0.999997 0.458816 -0.577346
v 0.973062 0.500000 -0.561795
v 0.999997 0.541184 0.577354
v 0.999997 0.458816 0.577354
v 0.973062 0.500000 0.561803
v -0.000003 0.541184 1.154704
v -0.000003 0.458816 1.154704
v -0.000003 0.500000 1.123602
v -1.000003 0.541184 0.577354
v -1.000003 0.458816 0.577354
v -0.973067 0.500000 0.561803
v -1.000003 0.541184 -0.577346
v -1.000003 0.458816 -0.577346
v -0.973067 0.500000 -0.561795
v 0.746404 1.000000 0.427252
v 0.309998 1.000000 -0.376357
v -0.182645 1.000000 0.489012
vt 0.457846 0.291624
vt 0.374503 0.287342
vt 0.374503 0.287342
vt 0.457846 0.291624
vt 0.166667 0.543391
vt 0.166667 0.975802
vt -0.000000 0.975802
vt -0.000000 0.543391
vt 0.377557 0.189783
vt 0.401365 0.205474
vt 0.401365 0.205474
vt 0.377557 0.189783
vt 0.457846 0.208376
vt 0.457846 0.208376
vt 0.274830 0.157029
vt 0.289687 0.101032
vt 0.289687 0.101032
vt 0.274830 0.157029
vt 0.359972 0.160316
vt 0.362208 0.172454
vt 0.362208 0.172454
vt 0.359972 0.160316
vt 0.322617 0.253144
vt 0.322617 0.253144
vt 0.284636 0.210263
vt 0.284636 0.210263
vt 0.367481 0.132017
vt 0.367481 0.132017
vt 0.389934 0.090791
vt 0.389934 0.090791
vt 0.317912 0.049209
vt 0.317912 0.049209
vt 0.833874 0.987901
vt 0.999460 0.987901
vt 0.997983 1.000000
vt 0.835350 1.000000
vt 0.452676 0.367326
vt 0.249937 0.484188
vt 0.249870 0.478374
vt 0.447471 0.364637
vt 0.333333 0.975802
vt 0.500000 0.975802
vt 0.499460 0.987901
vt 0.333874 0.987901
vt 0.497983 1.000000
vt 0.335350 1.000000
vt 0.047140 0.132901
vt 0.249779 0.015728
vt 0.249561 0.021471
vt 0.052124 0.135802
vt 0.332793 0.987901
vt 0.167207 0.987901
vt 0.331317 1.000000
vt 0.168683 1.000000
vt 0.047140 0.367091
vt 0.052124 0.364181
vt 0.166126 0.987901
vt 0.000540 0.987901
vt 0.164650 1.000000
vt 0.002016 1.000000
vt 0.446006 0.300670
vt 0.377096 0.296953
vt 0.375956 0.292124
vt 0.451883 0.296144
vt 0.374444 0.287403
vt 0.456100 0.291534
vt 0.407503 0.195947
vt 0.445540 0.198381
vt 0.451623 0.203379
vt 0.404626 0.200654
vt 0.455988 0.208280
vt 0.401428 0.205427
vt 0.317779 0.263708
vt 0.320193 0.258511
vt 0.322567 0.253162
vt 0.383674 0.183548
vt 0.380482 0.186638
vt 0.377566 0.189730
vt 0.276894 0.213822
vt 0.280783 0.211992
vt 0.284585 0.210313
vt 0.373202 0.171555
vt 0.367786 0.172188
vt 0.362307 0.172511
vt 0.265770 0.158108
vt 0.270316 0.157614
vt 0.274765 0.157008
vt 0.370574 0.157370
vt 0.365236 0.158690
vt 0.360010 0.160264
vt 0.281180 0.096033
vt 0.285455 0.098457
vt 0.289652 0.101042
vt 0.378499 0.131257
vt 0.373067 0.131498
vt 0.367511 0.131994
vt 0.304611 0.053930
vt 0.311259 0.051591
vt 0.317187 0.050541
vt 0.392377 0.105999
vt 0.391120 0.098472
vt 0.388995 0.092515
vt 0.778906 1.000000
vt 0.833333 0.975802
vt 0.832816 0.987906
vt 0.779808 0.996987
vt 0.831452 1.000000
vt 0.782130 1.000000
vt 0.554457 1.000000
vt 0.553541 0.996949
vt 0.500517 0.987906
vt 0.551184 1.000000
vt 0.501882 1.000000
vt 0.447577 0.135528
vt 0.452743 0.132760
vt 0.457846 0.130726
vt 0.457846 0.207060
vt 0.720140 0.996836
vt 0.667184 0.987905
vt 0.666667 0.975802
vt 0.721094 1.000000
vt 0.612210 1.000000
vt 0.666150 0.987906
vt 0.613247 0.996597
vt 0.664784 1.000000
vt 0.615924 1.000000
vt 1.000000 0.975802
vt 0.500000 0.543391
vt 0.333333 0.543391
vt 0.778906 1.000000
vt 0.833333 0.543391
vt 0.612210 1.000000
vt 0.666667 0.543391
vt 1.000000 0.543391
vt 0.833333 0.500000
vt 1.000000 0.500000
vt 0.666667 0.500000
vt 0.500000 0.500000
vt 0.333333 0.500000
vt 0.166667 0.500000
vt -0.000000 0.500000
vt 0.440414 0.193950
vt 0.409797 0.191856
vt 0.386721 0.180799
vt 0.377886 0.170681
vt 0.375360 0.156400
vt 0.383215 0.131193
vt 0.393621 0.112421
vt 0.442928 0.138005
vt 0.721094 1.000000
vt 0.440707 0.361183
vt 0.249727 0.470949
vt 0.064236 0.363905
vt 0.275600 0.222073
vt 0.314616 0.270387
vt 0.378205 0.303211
vt 0.438740 0.306459
vt 0.264944 0.208561
vt 0.062874 0.343685
vt 0.063134 0.142284
vt 0.248932 0.034349
vt 0.289629 0.058840
vt 0.271216 0.090947
vt 0.254952 0.158956
vt 0.554457 1.000000
vt 0.833333 0.500000
vt 0.666667 0.500000
vt 0.666667 0.500000
vt 0.833333 0.500000
vt 0.333333 0.500000
vt 0.166667 0.500000
vt 0.166667 0.500000
vt 0.333333 0.500000
vt 0.500000 0.500000
vt 0.500000 0.500000
vt -0.000000 0.500000
vt -0.000000 0.500000
vt 0.750000 0.490000
vt 0.957846 0.370000
vt 0.957846 0.130000
vt 0.750000 0.010000
vt 0.542154 0.130000
vt 0.542154 0.370000
vt 1.000000 0.500000
vt 1.000000 0.500000
vn 0.0106 0.1192 0.9928
vn 0.1933 0.1348 0.9718
vn 0.1951 0.0000 0.9808
vn 0.0107 0.0000 0.9999
vn -0.4835 -0.2546 -0.8375
vn -0.4961 0.1241 -0.8593
vn -0.5875 0.1320 -0.7984
vn -0.2054 0.1304 -0.9700
vn -0.2071 0.0000 -0.9783
vn -0.5927 0.0000 -0.8054
vn -0.0452 0.1185 -0.9919
vn -0.0456 0.0000 -0.9990
vn 0.9902 0.1361 0.0300
vn 0.9280 0.1342 -0.3477
vn 0.9364 0.0000 -0.3509
vn 0.9995 0.0000 0.0303
vn -0.9912 0.1307 -0.0207
vn -0.8972 0.1314 -0.4215
vn -0.9051 0.0000 -0.4252
vn -0.9998 0.0000 -0.0209
vn 0.6042 0.1386 0.7847
vn 0.6100 0.0000 0.7924
vn 0.8941 0.1351 0.4269
vn 0.9024 0.0000 0.4309
vn -0.9533 0.1301 0.2724
vn -0.9615 0.0000 0.2747
vn -0.9171 0.1174 0.3809
vn -0.9235 0.0000 0.3835
vn 0.8580 0.1190 -0.4996
vn 0.8642 0.0000 -0.5032
vn 0.4448 0.4566 -0.7705
vn 0.0000 0.8589 -0.5121
vn 0.4435 0.8589 -0.2561
vn 0.0000 0.9886 -0.1508
vn 0.1306 0.9886 -0.0754
vn -0.4961 0.1241 0.8593
vn -0.4448 0.4566 0.7705
vn 0.0000 0.8589 0.5121
vn -0.4435 0.8589 0.2561
vn 0.0000 0.9886 0.1508
vn -0.1306 0.9886 0.0754
vn -0.9923 0.1241 0.0000
vn -0.8897 0.4566 0.0000
vn -0.4435 0.8589 -0.2561
vn -0.1306 0.9886 -0.0754
vn -0.4448 0.4566 -0.7705
vn 0.0993 0.9902 0.0982
vn 0.0221 0.9935 0.1112
vn 0.0918 0.8822 0.4618
vn 0.3358 0.8814 0.3323
vn 0.1667 0.5195 0.8381
vn 0.0097 0.4267 0.9043
vn -0.0294 0.9899 -0.1389
vn 0.0949 0.9905 -0.0994
vn 0.3217 0.8850 -0.3367
vn -0.1067 0.8570 -0.5041
vn -0.0413 0.4228 -0.9053
vn -0.1802 0.4930 -0.8512
vn 0.0635 0.9946 0.0825
vn 0.2760 0.8918 0.3585
vn 0.5160 0.5335 0.6702
vn -0.0871 0.9891 -0.1183
vn -0.3080 0.8544 -0.4186
vn -0.5157 0.4931 -0.7007
vn 0.1015 0.9937 0.0485
vn 0.4232 0.8832 0.2021
vn 0.7704 0.5208 0.3678
vn -0.1319 0.9893 -0.0620
vn -0.4696 0.8549 -0.2206
vn -0.7876 0.4927 -0.3700
vn 0.1098 0.9939 0.0033
vn 0.4638 0.8858 0.0141
vn 0.8510 0.5246 0.0258
vn -0.1431 0.9897 -0.0030
vn -0.5164 0.8563 -0.0108
vn -0.8700 0.4927 -0.0182
vn 0.1078 0.9934 -0.0404
vn 0.4438 0.8805 -0.1663
vn 0.8015 0.5172 -0.3003
vn -0.1337 0.9903 0.0382
vn -0.4921 0.8591 0.1406
vn -0.8360 0.4941 0.2389
vn 0.1344 0.9903 0.0358
vn 0.4549 0.8823 0.1210
vn 0.7820 0.4257 -0.4553
vn -0.0429 0.9910 0.1266
vn -0.1459 0.8907 0.4305
vn -0.8395 0.4168 0.3487
vn 0.9929 0.1192 -0.0000
vn 0.9923 0.1241 -0.0000
vn 0.8897 0.4566 -0.0000
vn 0.9044 0.4267 -0.0000
vn 0.4961 0.1241 0.8593
vn 0.4964 0.1190 0.8599
vn 0.4524 0.4257 0.7836
vn 0.4448 0.4566 0.7705
vn 0.1306 0.9886 0.0754
vn 0.4435 0.8589 0.2561
vn 0.9062 0.4228 0.0000
vn 0.9930 0.1185 0.0000
vn 0.4965 0.1174 0.8600
vn 0.4545 0.4168 0.7872
vn 0.4961 0.1241 -0.8593
vn -0.4835 -0.2546 0.8375
vn 1.0000 -0.0000 -0.0000
vn 0.9670 -0.2546 -0.0000
vn -0.9670 -0.2546 0.0000
vn 0.5000 0.0000 0.8660
vn 0.4835 -0.2546 0.8375
vn 0.4835 -0.2546 -0.8375
vn 0.4184 -0.5474 -0.7248
vn 0.8369 -0.5474 0.0000
vn 0.4184 -0.5474 0.7248
vn -0.4184 -0.5474 0.7248
vn -0.8369 -0.5474 0.0000
vn -0.4184 -0.5474 -0.7248
vn 0.0000 1.0000 0.0000
vn 0.9670 0.2546 0.0000
vn -0.9670 0.2546 0.0000
vn -1.0000 0.0000 0.0000
vn 0.4835 0.2546 0.8375
vn -0.4835 0.2546 -0.8375
vn -0.5000 0.0000 -0.8660
vn -0.4835 0.2546 0.8375
vn -0.5000 0.0000 0.8660
vn 0.0000 -1.0000 0.0000
vn 0.4835 0.2546 -0.8375
vn 0.5000 0.0000 -0.8660
vn 0.4184 0.5474 -0.7248
vn 0.8369 0.5474 0.0000
vn 0.4184 0.5474 0.7248
vn -0.4184 0.5474 0.7248
vn -0.8369 0.5474 0.0000
vn -0.4184 0.5474 -0.7248
usemtl Green
s 3
f 40/1/1 60/2/2 6/3/3 1/4/4
s 5
f 116/5/5 36/6/6 16/7/6 102/8/5
s 6
f 63/9/7 55/10/8 5/11/9 7/12/10
s 7
f 55/10/8 44/13/11 2/14/12 5/11/9
s 8
f 84/15/13 92/16/14 14/17/15 12/18/16
s 9
f 79/19/17 71/20/18 9/21/19 11/22/20
s 10
f 60/2/2 68/23/21 8/24/22 6/3/3
s 18
f 68/23/21 76/25/23 10/26/24 8/24/22
s 19
f 87/27/25 79/19/17 11/22/20 13/28/26
s 20
f 47/29/27 87/27/25 13/28/26 3/30/28
s 21
f 92/16/14 52/31/29 4/32/30 14/17/15
s 22
f 71/20/18 63/9/7 7/12/10 9/21/19
s 23
f 76/25/23 84/15/13 12/18/16 10/26/24
s 25
f 22/33/31 18/34/31 17/35/32 21/36/33
s 26
f 21/37/33 17/38/32 15/39/34 19/40/35
s 27
f 32/41/36 28/42/36 30/43/37 34/44/37
s 28
f 34/44/37 30/43/37 29/45/38 33/46/39
s 29
f 33/47/39 29/48/38 27/49/40 31/50/41
s 30
f 36/6/42 32/41/42 34/51/43 38/52/43
s 31
f 38/52/43 34/51/43 33/53/39 37/54/44
s 32
f 37/55/44 33/47/39 31/50/41 35/56/45
s 33
f 16/7/6 36/6/6 38/57/46 18/58/46
s 34
f 18/58/46 38/57/46 37/59/44 17/60/32
s 35
f 17/38/32 37/55/44 35/56/45 15/39/34
s 36
f 39/61/47 59/62/48 61/63/49 41/64/50
s 37
f 41/64/50 61/63/49 62/65/51 42/66/52
s 38
f 42/66/52 62/65/51 60/2/2 40/1/1
s 39
f 56/67/53 43/68/54 45/69/55 58/70/56
s 40
f 58/70/56 45/69/55 46/71/57 57/72/58
s 41
f 57/72/58 46/71/57 44/13/11 55/10/8
s 42
f 59/62/48 67/73/59 69/74/60 61/63/49
s 43
f 61/63/49 69/74/60 70/75/61 62/65/51
s 44
f 62/65/51 70/75/61 68/23/21 60/2/2
s 45
f 64/76/62 56/67/53 58/70/56 66/77/63
s 46
f 66/77/63 58/70/56 57/72/58 65/78/64
s 47
f 65/78/64 57/72/58 55/10/8 63/9/7
s 48
f 67/73/59 75/79/65 77/80/66 69/74/60
s 49
f 69/74/60 77/80/66 78/81/67 70/75/61
s 50
f 70/75/61 78/81/67 76/25/23 68/23/21
s 51
f 72/82/68 64/76/62 66/77/63 74/83/69
s 52
f 74/83/69 66/77/63 65/78/64 73/84/70
s 53
f 73/84/70 65/78/64 63/9/7 71/20/18
s 54
f 75/79/65 83/85/71 85/86/72 77/80/66
s 55
f 77/80/66 85/86/72 86/87/73 78/81/67
s 56
f 78/81/67 86/87/73 84/15/13 76/25/23
s 57
f 80/88/74 72/82/68 74/83/69 82/89/75
s 58
f 82/89/75 74/83/69 73/84/70 81/90/76
s 59
f 81/90/76 73/84/70 71/20/18 79/19/17
s 60
f 83/85/71 91/91/77 93/92/78 85/86/72
s 61
f 85/86/72 93/92/78 94/93/79 86/87/73
s 62
f 86/87/73 94/93/79 92/16/14 84/15/13
s 63
f 88/94/80 80/88/74 82/89/75 90/95/81
s 64
f 90/95/81 82/89/75 81/90/76 89/96/82
s 65
f 89/96/82 81/90/76 79/19/17 87/27/25
s 66
f 91/91/77 51/97/83 53/98/84 93/92/78
s 67
f 93/92/78 53/98/84 54/99/85 94/93/79
s 68
f 94/93/79 54/99/85 52/31/29 92/16/14
s 69
f 48/100/86 88/94/80 90/95/81 50/101/87
s 70
f 50/101/87 90/95/81 89/96/82 49/102/88
s 71
f 49/102/88 89/96/82 87/27/25 47/29/27
s 72
f 40/103/89 20/104/90 22/105/91 42/106/92
s 73
f 42/106/92 22/105/91 21/107/33 41/108/50
s 74
f 41/64/50 21/37/33 19/40/35 39/61/47
s 75
f 28/42/93 52/109/94 54/110/95 30/111/96
s 76
f 30/111/96 54/110/95 53/112/84 29/113/38
s 77
f 29/48/38 53/98/84 51/97/83 27/49/40
s 78
f 43/68/54 23/114/97 25/115/98 45/69/55
s 79
f 45/69/55 25/115/98 26/116/91 46/117/99
s 80
f 46/118/99 26/119/91 24/120/90 44/121/100
s 81
f 47/122/101 24/120/93 26/123/96 49/124/102
s 82
f 49/124/102 26/123/96 25/125/98 50/126/87
s 83
f 50/101/87 25/115/98 23/114/97 48/100/86
s 84
f 20/104/103 16/127/103 18/34/31 22/33/31
s 87
f 110/128/104 28/42/36 32/41/36 113/129/104
s 88
f 40/103/89 1/130/105 104/131/106 20/104/90
s 89
f 113/129/107 32/41/42 36/6/42 116/5/107
s 90
f 47/122/101 3/132/108 107/133/109 24/120/93
s 91
f 102/134/110 104/131/110 106/135/111 103/136/111
s 93
f 104/131/106 107/133/106 109/137/112 106/135/112
s 95
f 107/133/109 110/128/109 112/138/113 109/137/113
s 97
f 110/128/104 113/129/104 115/139/114 112/138/114
s 99
f 113/129/107 116/5/107 118/140/115 115/139/115
s 101
f 116/5/5 102/8/5 103/141/116 118/140/116
s 103
f 102/134/110 16/127/103 20/104/103 104/131/110
s 104
f 43/68/54 56/67/53 119/142/117
s 105
f 56/67/53 64/76/62 119/143/117
s 106
f 64/76/62 72/82/68 119/144/117
s 107
f 72/82/68 80/88/74 119/145/117
s 108
f 80/88/74 88/94/80 119/146/117
s 109
f 88/94/80 48/100/86 119/147/117
s 110
f 48/100/86 23/114/97 119/148/117
s 111
f 23/114/97 43/68/54 119/149/117
s 112
f 104/131/106 1/130/105 2/150/105 107/133/106
s 113
f 19/40/35 15/39/34 120/151/117
s 114
f 15/39/34 35/56/45 120/152/117
s 115
f 35/56/45 75/79/65 120/153/117
s 116
f 75/79/65 67/73/59 120/154/117
s 117
f 67/73/59 59/62/48 120/155/117
s 118
f 59/62/48 39/61/47 120/156/117
s 119
f 39/61/47 19/40/35 120/157/117
s 120
f 75/79/65 35/56/45 121/158/117
s 121
f 35/56/45 31/50/41 121/159/117
s 122
f 31/50/41 27/49/40 121/160/117
s 123
f 27/49/40 51/97/83 121/161/117
s 124
f 51/97/83 91/91/77 121/162/117
s 125
f 91/91/77 83/85/71 121/163/117
s 126
f 83/85/71 75/79/65 121/164/117
s 127
f 107/133/109 3/132/108 4/165/108 110/128/109
s 128
f 107/133/106 2/150/105 44/121/100 24/120/90
s 129
f 110/128/109 4/165/108 52/109/94 28/42/93
usemtl BrownDark
s 1
f 105/166/118 108/167/118 97/168/105 96/169/105
s 2
f 114/170/119 117/171/119 100/172/120 99/173/120
s 4
f 108/167/121 111/174/121 98/175/108 97/168/108
s 11
f 117/171/122 101/176/122 95/177/123 100/172/123
s 24
f 111/174/124 114/170/124 99/173/125 98/175/125
s 85
f 95/178/126 96/179/126 97/180/126 98/181/126 99/182/126 100/183/126
s 86
f 101/184/127 105/166/127 96/169/128 95/185/128
s 92
f 103/136/129 106/135/129 105/166/127 101/184/127
s 94
f 106/135/130 109/137/130 108/167/118 105/166/118
s 96
f 109/137/131 112/138/131 111/174/121 108/167/121
s 98
f 112/138/132 115/139/132 114/170/124 111/174/124
s 100
f 115/139/133 118/140/133 117/171/119 114/170/119
s 102
f 118/140/134 103/141/134 101/176/122 117/171/122
usemtl Beige
s 12
f 1/4/117 6/3/117 5/11/117 2/14/117
s 13
f 6/3/117 8/24/117 7/12/117 5/11/117
s 14
f 8/24/117 10/26/117 9/21/117 7/12/117
s 15
f 10/26/117 12/18/117 11/22/117 9/21/117
s 16
f 12/18/117 14/17/117 13/28/117 11/22/117
s 17
f 14/17/117 4/32/117 3/30/117 13/28/117
