# Blender v2.80 (sub 75) OBJ File: 'TilesExport.blend'
# www.blender.org
mtllib hex_forest_roadD_detail.mtl
o hex_forest_roadD_detail_Cylinder.468
v 1.000000 0.900000 -0.173205
v 1.000000 0.900000 0.173208
v -0.349999 0.900000 0.952629
v -0.650000 0.900000 0.779424
v 0.723915 0.900000 0.175589
v 0.733808 0.900000 -0.193064
v 0.468983 0.900000 0.174630
v 0.424611 0.900000 -0.215640
v 0.248761 0.900000 0.226767
v 0.107715 0.900000 -0.180935
v 0.056438 0.900000 0.325210
v -0.183078 0.900000 -0.047670
v -0.083288 0.900000 0.464935
v -0.427767 0.900000 0.197020
v -0.187276 0.900000 0.690515
v -0.584316 0.900000 0.529185
v -0.000001 1.000000 -1.098821
v -0.000001 0.951603 -1.154704
v -0.000001 0.993516 -1.126763
v -0.000001 0.975802 -1.147217
v 0.951602 1.000000 -0.549412
v 0.999999 0.951603 -0.577354
v 0.975800 0.993516 -0.563383
v 0.993515 0.975802 -0.573611
v 0.951602 1.000000 0.549404
v 0.999999 0.951603 0.577346
v 0.975800 0.993516 0.563375
v 0.993515 0.975802 0.573602
v -0.000002 1.000000 1.098812
v -0.000001 0.951603 1.154696
v -0.000002 0.993516 1.126754
v -0.000001 0.975802 1.147209
v -0.951605 1.000000 0.549404
v -1.000001 0.951603 0.577346
v -0.975803 0.993516 0.563375
v -0.993518 0.975802 0.573602
v -0.951605 1.000000 -0.549412
v -1.000001 0.951603 -0.577354
v -0.975803 0.993516 -0.563383
v -0.993518 0.975802 -0.573611
v 0.951604 1.000000 -0.225346
v 1.000000 0.951603 -0.173205
v 0.975802 0.993516 -0.199276
v 0.993517 0.975802 -0.180190
v 0.951604 1.000000 0.222023
v 1.000000 0.951603 0.173208
v 0.975802 0.993516 0.197615
v 0.993517 0.975802 0.179748
v -0.349999 0.951603 0.952629
v -0.282526 1.000000 0.935701
v -0.340960 0.975802 0.950361
v -0.316263 0.993516 0.944165
v -0.680712 1.000000 0.705808
v -0.650000 0.951603 0.779424
v -0.665356 0.993516 0.742616
v -0.654114 0.975802 0.769561
v 0.723915 0.951603 0.175589
v 0.724044 1.000000 0.223987
v 0.723932 0.975802 0.182073
v 0.723979 0.993516 0.199788
v 0.737368 1.000000 -0.241330
v 0.733808 0.951603 -0.193064
v 0.735588 0.993516 -0.217197
v 0.734285 0.975802 -0.199530
v 0.468983 0.951603 0.174630
v 0.474544 1.000000 0.223048
v 0.469728 0.975802 0.181117
v 0.471763 0.993516 0.198839
v 0.423731 1.000000 -0.264230
v 0.424611 0.951603 -0.215640
v 0.424171 0.993516 -0.239935
v 0.424493 0.975802 -0.222150
v 0.248761 0.951603 0.226767
v 0.265604 1.000000 0.272514
v 0.251017 0.975802 0.232896
v 0.257182 0.993516 0.249641
v 0.094667 1.000000 -0.228192
v 0.107715 0.951603 -0.180935
v 0.101191 0.993516 -0.204563
v 0.105967 0.975802 -0.187266
v 0.085271 1.000000 0.364819
v 0.056438 0.951603 0.325210
v 0.070854 0.993516 0.345014
v 0.060301 0.975802 0.330516
v -0.211149 1.000000 -0.088042
v -0.183078 0.951603 -0.047670
v -0.197113 0.993516 -0.067856
v -0.186839 0.975802 -0.053078
v -0.042955 1.000000 0.493045
v -0.083288 0.951603 0.464935
v -0.063121 0.993516 0.478990
v -0.077884 0.975802 0.468701
v -0.467951 1.000000 0.168760
v -0.427767 0.951603 0.197020
v -0.447859 0.993516 0.182890
v -0.433151 0.975802 0.193234
v -0.187276 0.951603 0.690515
v -0.144579 1.000000 0.713496
v -0.181556 0.975802 0.693594
v -0.165928 0.993516 0.702006
v -0.629995 1.000000 0.512585
v -0.584316 0.951603 0.529185
v -0.607155 0.993516 0.520885
v -0.590436 0.975802 0.526961
v -0.000001 0.000000 -1.154704
v 0.999999 0.000000 -0.577354
v 0.999999 0.000000 0.577346
v -0.000001 0.000000 1.154696
v -1.000001 0.000000 0.577346
v -1.000001 0.000000 -0.577354
v -0.000001 0.458816 -1.154704
v -0.000001 0.541184 -1.154704
v -0.000001 0.500000 -1.123602
v 0.999999 0.541184 -0.577354
v 0.999999 0.458816 -0.577354
v 0.973063 0.500000 -0.561803
v 0.999999 0.541184 0.577346
v 0.999999 0.458816 0.577346
v 0.973063 0.500000 0.561795
v -0.000001 0.541184 1.154696
v -0.000001 0.458816 1.154696
v -0.000001 0.500000 1.123593
v -1.000001 0.541184 0.577346
v -1.000001 0.458816 0.577346
v -0.973066 0.500000 0.561794
v -1.000001 0.541184 -0.577354
v -1.000001 0.458816 -0.577354
v -0.973066 0.500000 -0.561803
v 0.311360 1.000000 0.532292
v 0.528992 1.000000 -0.463998
v -0.675213 1.000000 0.202829
vt 1.000000 0.543391
vt 1.000000 0.975802
vt 0.833333 0.975802
vt 0.833333 0.543391
vt 0.457846 0.293155
vt 0.411222 0.301937
vt 0.411222 0.301937
vt 0.457846 0.293155
vt 0.666667 0.543391
vt 0.666667 0.975802
vt 0.500000 0.975802
vt 0.500000 0.543391
vt 0.204522 0.154544
vt 0.231649 0.181733
vt 0.231649 0.181733
vt 0.204522 0.154544
vt 0.331983 0.301938
vt 0.254713 0.283022
vt 0.254713 0.283022
vt 0.331983 0.301938
vt 0.394564 0.217698
vt 0.457846 0.206845
vt 0.457846 0.206845
vt 0.394564 0.217698
vt 0.186488 0.251672
vt 0.138434 0.202911
vt 0.138434 0.202911
vt 0.186488 0.251672
vt 0.280242 0.203612
vt 0.280242 0.203612
vt 0.183360 0.048475
vt 0.192432 0.113899
vt 0.192432 0.113899
vt 0.183360 0.048475
vt 0.117390 0.141686
vt 0.117390 0.141686
vt 0.337435 0.217264
vt 0.337435 0.217264
vt 0.108794 0.091525
vt 0.108794 0.091525
vt 0.833874 0.987901
vt 0.999460 0.987901
vt 0.997983 1.000000
vt 0.835350 1.000000
vt 0.452890 0.367519
vt 0.249899 0.484205
vt 0.249790 0.478410
vt 0.447946 0.365040
vt 0.666126 0.987901
vt 0.500540 0.987901
vt 0.664650 1.000000
vt 0.502016 1.000000
vt 0.249893 0.015734
vt 0.452593 0.132680
vt 0.447318 0.135394
vt 0.249716 0.021493
vt 0.166667 0.975802
vt 0.333333 0.975802
vt 0.332793 0.987901
vt 0.167207 0.987901
vt 0.331317 1.000000
vt 0.168683 1.000000
vt 0.047012 0.367065
vt 0.046736 0.133038
vt 0.051301 0.136064
vt 0.051858 0.364128
vt -0.000000 0.975802
vt 0.166126 0.987901
vt 0.000540 0.987901
vt 0.164650 1.000000
vt 0.002016 1.000000
vt 0.448935 0.303793
vt 0.409468 0.310084
vt 0.410255 0.305979
vt 0.453425 0.298489
vt 0.411222 0.301937
vt 0.456626 0.293385
vt 0.395085 0.205959
vt 0.446932 0.198813
vt 0.452383 0.202861
vt 0.394841 0.211752
vt 0.456347 0.207102
vt 0.394564 0.217699
vt 0.333015 0.311079
vt 0.332539 0.306495
vt 0.331979 0.301955
vt 0.338380 0.206560
vt 0.337869 0.211905
vt 0.337424 0.217241
vt 0.254237 0.293876
vt 0.254498 0.288476
vt 0.254698 0.283042
vt 0.285462 0.194158
vt 0.282853 0.198889
vt 0.280253 0.203596
vt 0.183997 0.261247
vt 0.185285 0.256471
vt 0.186445 0.251697
vt 0.240981 0.173934
vt 0.236343 0.177844
vt 0.231694 0.181715
vt 0.133384 0.209876
vt 0.135958 0.206415
vt 0.138388 0.202926
vt 0.215712 0.148850
vt 0.210114 0.151715
vt 0.204574 0.154529
vt 0.109550 0.144838
vt 0.113487 0.143254
vt 0.117383 0.141694
vt 0.204505 0.106762
vt 0.198562 0.110222
vt 0.192428 0.113909
vt 0.102543 0.106161
vt 0.105660 0.098843
vt 0.109076 0.093173
vt 0.193981 0.053509
vt 0.188624 0.051021
vt 0.183557 0.049894
vt 0.779969 1.000000
vt 0.832823 0.987905
vt 0.780943 0.996756
vt 0.831489 1.000000
vt 0.783411 1.000000
vt 0.386770 1.000000
vt 0.385589 0.996172
vt 0.333844 0.987906
vt 0.382578 1.000000
vt 0.335180 1.000000
vt 0.457846 0.130712
vt 0.457846 0.205602
vt 0.719118 0.996936
vt 0.667177 0.987905
vt 0.720031 1.000000
vt 0.446563 1.000000
vt 0.499489 0.987906
vt 0.447498 0.996873
vt 0.498153 1.000000
vt 0.449867 1.000000
vt 0.166667 0.543391
vt -0.000000 0.543391
vt 0.446563 1.000000
vt 0.779969 1.000000
vt 0.333333 0.543391
vt 0.833333 0.500000
vt 1.000000 0.500000
vt 0.666667 0.500000
vt 0.500000 0.500000
vt 0.333333 0.500000
vt 0.166667 0.500000
vt -0.000000 0.500000
vt 0.433459 0.188217
vt 0.395626 0.191961
vt 0.340000 0.193247
vt 0.291984 0.182309
vt 0.252314 0.164070
vt 0.229713 0.141505
vt 0.218839 0.098762
vt 0.208096 0.059229
vt 0.249015 0.035945
vt 0.434108 0.142305
vt 0.720031 1.000000
vt 0.427148 0.354609
vt 0.273162 0.439428
vt 0.276996 0.319302
vt 0.332970 0.329635
vt 0.407029 0.327444
vt 0.428538 0.325193
vt 0.160802 0.259398
vt 0.065844 0.333902
vt 0.065799 0.145769
vt 0.092326 0.129935
vt 0.096195 0.149973
vt 0.123667 0.220621
vt 0.386770 1.000000
vt 0.333333 0.500000
vt 0.166667 0.500000
vt 0.166667 0.500000
vt 0.333333 0.500000
vt 0.500000 0.500000
vt 0.500000 0.500000
vt -0.000000 0.500000
vt -0.000000 0.500000
vt 0.666667 0.500000
vt 0.666667 0.500000
vt 0.750000 0.490000
vt 0.957846 0.370000
vt 0.957846 0.130000
vt 0.750000 0.010000
vt 0.542154 0.130000
vt 0.542154 0.370000
vt 0.833333 0.500000
vt 0.833333 0.500000
vt 1.000000 0.500000
vt 1.000000 0.500000
vn 0.4835 -0.2546 -0.8375
vn 0.4961 0.1241 -0.8593
vn -0.0739 0.1181 0.9902
vn -0.0730 0.1305 0.9888
vn -0.0736 0.0000 0.9973
vn -0.0744 0.0000 0.9972
vn 0.4835 -0.2546 0.8375
vn 0.4961 0.1241 0.8593
vn -0.8134 0.1306 -0.5669
vn -0.5835 0.1304 -0.8016
vn -0.5885 0.0000 -0.8085
vn -0.8204 0.0000 -0.5718
vn 0.0179 0.1320 0.9911
vn 0.2638 0.1339 0.9552
vn 0.2662 0.0000 0.9639
vn 0.0181 0.0000 0.9998
vn -0.0024 0.1306 -0.9914
vn -0.0086 0.1190 -0.9929
vn -0.0086 0.0000 -1.0000
vn -0.0024 0.0000 -1.0000
vn 0.5657 0.1345 0.8136
vn 0.8106 0.1343 0.5700
vn 0.8180 0.0000 0.5753
vn 0.5709 0.0000 0.8210
vn -0.3426 0.1301 -0.9304
vn -0.3455 0.0000 -0.9384
vn -0.8436 0.1187 -0.5237
vn -0.8729 0.1314 -0.4698
vn -0.8806 0.0000 -0.4739
vn -0.8496 0.0000 -0.5274
vn 0.9316 0.1321 0.3386
vn 0.9399 0.0000 0.3415
vn -0.1131 0.1301 -0.9850
vn -0.1141 0.0000 -0.9935
vn 0.9608 0.1154 0.2522
vn 0.9672 0.0000 0.2539
vn 0.4448 0.4566 -0.7705
vn -0.0000 0.8589 -0.5121
vn 0.4435 0.8589 -0.2561
vn 0.0000 0.9886 -0.1508
vn 0.1306 0.9886 -0.0754
vn 0.4448 0.4566 0.7705
vn 0.4435 0.8589 0.2561
vn 0.0000 0.8589 0.5121
vn 0.1306 0.9886 0.0754
vn 0.0000 0.9886 0.1508
vn -0.9923 0.1241 0.0000
vn -0.8897 0.4566 0.0000
vn -0.4435 0.8589 0.2561
vn -0.4435 0.8589 -0.2561
vn -0.1306 0.9886 0.0754
vn -0.1306 0.9886 -0.0754
vn -0.4961 0.1241 -0.8593
vn -0.4448 0.4566 -0.7705
vn 0.0927 0.9907 0.0998
vn -0.0096 0.9915 0.1301
vn -0.0368 0.8661 0.4985
vn 0.3143 0.8869 0.3386
vn -0.0637 0.5001 0.8636
vn -0.0675 0.4208 0.9046
vn -0.0003 0.9915 -0.1300
vn 0.0978 0.9903 -0.0986
vn 0.3310 0.8826 -0.3339
vn -0.0012 0.8665 -0.4992
vn -0.0078 0.4254 -0.9050
vn -0.0021 0.5004 -0.8658
vn 0.0022 0.9925 0.1226
vn 0.0088 0.8733 0.4872
vn 0.0156 0.5080 0.8612
vn -0.0159 0.9903 -0.1383
vn -0.0584 0.8590 -0.5087
vn -0.0992 0.4940 -0.8638
vn 0.0309 0.9933 0.1118
vn 0.1266 0.8797 0.4584
vn 0.2280 0.5161 0.8256
vn -0.0482 0.9902 -0.1308
vn -0.1770 0.8589 -0.4807
vn -0.3004 0.4939 -0.8160
vn 0.0652 0.9935 0.0938
vn 0.2696 0.8814 0.3878
vn 0.4882 0.5184 0.7021
vn -0.0833 0.9899 -0.1145
vn -0.3030 0.8573 -0.4162
vn -0.5120 0.4931 -0.7034
vn 0.0939 0.9934 0.0660
vn 0.3871 0.8809 0.2723
vn 0.6998 0.5177 0.4922
vn -0.1171 0.9898 -0.0816
vn -0.4234 0.8565 -0.2951
vn -0.7139 0.4928 -0.4975
vn 0.1151 0.9925 0.0418
vn 0.4578 0.8733 0.1664
vn 0.8095 0.5081 0.2942
vn -0.1103 0.9921 -0.0594
vn -0.4329 0.8708 -0.2330
vn -0.7600 0.5051 -0.4090
vn 0.0488 0.9919 0.1169
vn 0.1669 0.9011 0.4002
vn 0.8839 0.4061 0.2320
vn -0.1338 0.9904 0.0336
vn -0.4533 0.8841 0.1137
vn -0.7695 0.4238 -0.4777
vn 0.9930 0.1181 -0.0000
vn 0.9923 0.1241 -0.0000
vn 0.8897 0.4566 -0.0000
vn 0.9072 0.4208 -0.0000
vn -0.4961 0.1241 0.8593
vn -0.4967 0.1154 0.8602
vn -0.4569 0.4061 0.7914
vn -0.4448 0.4566 0.7705
vn 0.9050 0.4254 0.0000
vn 0.9929 0.1190 0.0000
vn -0.4965 0.1187 0.8599
vn -0.4529 0.4238 0.7844
vn -0.4835 -0.2546 -0.8375
vn -0.5000 -0.0000 0.8660
vn -0.4835 -0.2546 0.8375
vn 1.0000 -0.0000 -0.0000
vn 0.9670 -0.2546 -0.0000
vn -0.9670 -0.2546 0.0000
vn 0.4184 -0.5474 -0.7248
vn 0.8369 -0.5474 0.0000
vn 0.4184 -0.5474 0.7248
vn -0.4184 -0.5474 0.7248
vn -0.8369 -0.5474 0.0000
vn -0.4184 -0.5474 -0.7248
vn 0.0000 1.0000 -0.0000
vn -0.9670 0.2546 0.0000
vn -1.0000 0.0000 0.0000
vn -0.4835 0.2546 0.8375
vn -0.4835 0.2546 -0.8375
vn -0.5000 0.0000 -0.8660
vn 0.4835 0.2546 0.8375
vn 0.5000 0.0000 0.8660
vn 0.0000 -1.0000 0.0000
vn 0.9670 0.2546 0.0000
vn 0.4184 0.5474 -0.7248
vn 0.4835 0.2546 -0.8375
vn 0.8369 0.5474 0.0000
vn 0.4184 0.5474 0.7248
vn -0.4184 0.5474 0.7248
vn -0.8369 0.5474 0.0000
vn -0.4184 0.5474 -0.7248
vn 0.5000 0.0000 -0.8660
usemtl Green
s 1
f 112/1/1 18/2/2 22/3/2 114/4/1
s 3
f 42/5/3 62/6/4 6/7/5 1/8/6
s 4
f 117/9/7 26/10/8 30/11/8 120/12/7
s 6
f 90/13/9 82/14/10 11/15/11 13/16/12
s 7
f 70/17/13 78/18/14 10/19/15 8/20/16
s 8
f 57/21/17 46/22/18 2/23/19 5/24/20
s 9
f 86/25/21 94/26/22 14/27/23 12/28/24
s 10
f 82/14/10 73/29/25 9/30/26 11/15/11
s 19
f 49/31/27 97/32/28 15/33/29 3/34/30
s 20
f 94/26/22 102/35/31 16/36/32 14/27/23
s 21
f 73/29/25 65/37/33 7/38/34 9/30/26
s 22
f 65/37/33 57/21/17 5/24/20 7/38/34
s 23
f 78/18/14 86/25/21 12/28/24 10/19/15
s 24
f 97/32/28 90/13/9 13/16/12 15/33/29
s 25
f 62/6/4 70/17/13 8/20/16 6/7/5
s 26
f 102/35/31 54/39/35 4/40/36 16/36/32
s 28
f 24/41/37 20/42/37 19/43/38 23/44/39
s 29
f 23/45/39 19/46/38 17/47/40 21/48/41
s 30
f 30/11/8 26/10/8 28/49/42 32/50/42
s 31
f 32/50/42 28/49/42 27/51/43 31/52/44
s 32
f 31/53/44 27/54/43 25/55/45 29/56/46
s 33
f 38/57/47 34/58/47 36/59/48 40/60/48
s 34
f 40/60/48 36/59/48 35/61/49 39/62/50
s 35
f 39/63/50 35/64/49 33/65/51 37/66/52
s 36
f 18/67/53 38/57/53 40/68/54 20/69/54
s 37
f 20/69/54 40/68/54 39/70/50 19/71/38
s 38
f 19/46/38 39/63/50 37/66/52 17/47/40
s 39
f 41/72/55 61/73/56 63/74/57 43/75/58
s 40
f 43/75/58 63/74/57 64/76/59 44/77/60
s 41
f 44/77/60 64/76/59 62/6/4 42/5/3
s 42
f 58/78/61 45/79/62 47/80/63 60/81/64
s 43
f 60/81/64 47/80/63 48/82/65 59/83/66
s 44
f 59/83/66 48/82/65 46/22/18 57/21/17
s 45
f 61/73/56 69/84/67 71/85/68 63/74/57
s 46
f 63/74/57 71/85/68 72/86/69 64/76/59
s 47
f 64/76/59 72/86/69 70/17/13 62/6/4
s 48
f 66/87/70 58/78/61 60/81/64 68/88/71
s 49
f 68/88/71 60/81/64 59/83/66 67/89/72
s 50
f 67/89/72 59/83/66 57/21/17 65/37/33
s 51
f 69/84/67 77/90/73 79/91/74 71/85/68
s 52
f 71/85/68 79/91/74 80/92/75 72/86/69
s 53
f 72/86/69 80/92/75 78/18/14 70/17/13
s 54
f 74/93/76 66/87/70 68/88/71 76/94/77
s 55
f 76/94/77 68/88/71 67/89/72 75/95/78
s 56
f 75/95/78 67/89/72 65/37/33 73/29/25
s 57
f 77/90/73 85/96/79 87/97/80 79/91/74
s 58
f 79/91/74 87/97/80 88/98/81 80/92/75
s 59
f 80/92/75 88/98/81 86/25/21 78/18/14
s 60
f 81/99/82 74/93/76 76/94/77 83/100/83
s 61
f 83/100/83 76/94/77 75/95/78 84/101/84
s 62
f 84/101/84 75/95/78 73/29/25 82/14/10
s 63
f 85/96/79 93/102/85 95/103/86 87/97/80
s 64
f 87/97/80 95/103/86 96/104/87 88/98/81
s 65
f 88/98/81 96/104/87 94/26/22 86/25/21
s 66
f 89/105/88 81/99/82 83/100/83 91/106/89
s 67
f 91/106/89 83/100/83 84/101/84 92/107/90
s 68
f 92/107/90 84/101/84 82/14/10 90/13/9
s 69
f 93/102/85 101/108/91 103/109/92 95/103/86
s 70
f 95/103/86 103/109/92 104/110/93 96/104/87
s 71
f 96/104/87 104/110/93 102/35/31 94/26/22
s 72
f 98/111/94 89/105/88 91/106/89 100/112/95
s 73
f 100/112/95 91/106/89 92/107/90 99/113/96
s 74
f 99/113/96 92/107/90 90/13/9 97/32/28
s 75
f 101/108/91 53/114/97 55/115/98 103/109/92
s 76
f 103/109/92 55/115/98 56/116/99 104/110/93
s 77
f 104/110/93 56/116/99 54/39/35 102/35/31
s 78
f 50/117/100 98/111/94 100/112/95 52/118/101
s 79
f 52/118/101 100/112/95 99/113/96 51/119/102
s 80
f 51/119/102 99/113/96 97/32/28 49/31/27
s 81
f 42/120/103 22/3/104 24/121/105 44/122/106
s 82
f 44/122/106 24/121/105 23/123/39 43/124/58
s 83
f 43/75/58 23/45/39 21/48/41 41/72/55
s 84
f 34/58/107 54/125/108 56/126/109 36/127/110
s 85
f 36/127/110 56/126/109 55/128/98 35/129/49
s 86
f 35/64/49 55/115/98 53/114/97 33/65/51
s 87
f 45/79/62 25/55/45 27/54/43 47/80/63
s 88
f 47/80/63 27/54/43 28/130/105 48/131/111
s 89
f 48/132/111 28/133/105 26/10/104 46/134/112
s 90
f 49/135/113 30/11/107 32/136/110 51/137/114
s 91
f 51/137/114 32/136/110 31/138/44 52/139/101
s 92
f 52/118/101 31/53/44 29/56/46 50/117/100
s 93
f 22/3/2 18/2/2 20/42/37 24/41/37
s 95
f 126/140/115 38/57/53 18/67/53 112/141/115
s 97
f 49/135/113 3/142/116 120/12/117 30/11/107
s 98
f 42/120/103 1/143/118 114/4/119 22/3/104
s 99
f 123/144/120 34/58/47 38/57/47 126/140/120
s 100
f 112/1/1 114/4/1 116/145/121 113/146/121
s 102
f 114/4/119 117/9/119 119/147/122 116/145/122
s 104
f 117/9/7 120/12/7 122/148/123 119/147/123
s 106
f 120/12/117 123/144/117 125/149/124 122/148/124
s 108
f 123/144/120 126/140/120 128/150/125 125/149/125
s 110
f 126/140/115 112/141/115 113/151/126 128/150/126
s 113
f 45/79/62 58/78/61 129/152/127
s 114
f 58/78/61 66/87/70 129/153/127
s 115
f 66/87/70 74/93/76 129/154/127
s 116
f 74/93/76 81/99/82 129/155/127
s 117
f 81/99/82 89/105/88 129/156/127
s 118
f 89/105/88 98/111/94 129/157/127
s 119
f 98/111/94 50/117/100 129/158/127
s 120
f 50/117/100 29/56/46 129/159/127
s 121
f 29/56/46 25/55/45 129/160/127
s 122
f 25/55/45 45/79/62 129/161/127
s 123
f 77/90/73 17/47/40 37/66/52 85/96/79
s 124
f 117/9/119 2/162/118 46/134/112 26/10/104
s 125
f 21/48/41 17/47/40 130/163/127
s 126
f 17/47/40 77/90/73 130/164/127
s 127
f 77/90/73 69/84/67 130/165/127
s 128
f 69/84/67 61/73/56 130/166/127
s 129
f 61/73/56 41/72/55 130/167/127
s 130
f 41/72/55 21/48/41 130/168/127
s 131
f 85/96/79 37/66/52 131/169/127
s 132
f 37/66/52 33/65/51 131/170/127
s 133
f 33/65/51 53/114/97 131/171/127
s 134
f 53/114/97 101/108/91 131/172/127
s 135
f 101/108/91 93/102/85 131/173/127
s 136
f 93/102/85 85/96/79 131/174/127
s 137
f 120/12/117 3/142/116 4/175/116 123/144/117
s 138
f 123/144/117 4/175/116 54/125/108 34/58/107
s 139
f 114/4/119 1/143/118 2/162/118 117/9/119
usemtl BrownDark
s 2
f 124/176/128 127/177/128 110/178/129 109/179/129
s 5
f 121/180/130 124/176/130 109/179/116 108/181/116
s 11
f 127/177/131 111/182/131 105/183/132 110/178/132
s 27
f 118/184/133 121/180/133 108/181/134 107/185/134
s 94
f 105/186/135 106/187/135 107/188/135 108/189/135 109/190/135 110/191/135
s 96
f 115/192/136 118/184/136 107/185/118 106/193/118
s 101
f 113/146/137 116/145/137 115/192/138 111/194/138
s 103
f 116/145/139 119/147/139 118/184/136 115/192/136
s 105
f 119/147/140 122/148/140 121/180/133 118/184/133
s 107
f 122/148/141 125/149/141 124/176/130 121/180/130
s 109
f 125/149/142 128/150/142 127/177/128 124/176/128
s 111
f 128/150/143 113/151/143 111/182/131 127/177/131
s 112
f 111/194/138 115/192/138 106/193/144 105/195/144
usemtl Beige
s 12
f 1/8/127 6/7/127 5/24/127 2/23/127
s 13
f 6/7/127 8/20/127 7/38/127 5/24/127
s 14
f 8/20/127 10/19/127 9/30/127 7/38/127
s 15
f 10/19/127 12/28/127 11/15/127 9/30/127
s 16
f 12/28/127 14/27/127 13/16/127 11/15/127
s 17
f 14/27/127 16/36/127 15/33/127 13/16/127
s 18
f 16/36/127 4/40/127 3/34/127 15/33/127
