# Blender v2.80 (sub 75) OBJ File: 'TilesExport.blend'
# www.blender.org
mtllib square_forest_waterOuterCorner.mtl
o square_forest_waterOuterCorner_Cube.308
v -1.000000 0.000000 1.000000
v -1.000000 0.000000 -1.000000
v 1.000000 0.000000 1.000000
v 1.000000 0.000000 -1.000000
v -0.976450 0.500000 0.976450
v -0.976450 0.500000 -0.976450
v 0.976450 0.500000 -0.976450
v 0.976450 0.500000 0.976450
v -1.000000 0.541184 1.000000
v -1.000000 0.541184 -1.000000
v 1.000000 0.541184 -1.000000
v 1.000000 0.541184 1.000000
v -1.000000 0.458816 -1.000000
v 1.000000 0.458816 -1.000000
v 1.000000 0.458816 1.000000
v -1.000000 0.458816 1.000000
v 0.000000 0.000000 -1.000000
v 0.000000 0.458816 -1.000000
v 0.000000 0.541184 -1.000000
v 0.000000 0.000000 1.000000
v 0.000000 0.458816 1.000000
v 0.000000 0.541184 1.000000
v 0.000000 0.500000 0.976450
v 0.000000 0.500000 -0.976450
v -1.000000 0.000000 0.000000
v 1.000000 0.000000 0.000000
v -1.000000 0.458816 0.000000
v -1.000000 0.541184 0.000000
v 1.000000 0.458816 0.000000
v 1.000000 0.541184 0.000000
v 0.976450 0.500000 0.000000
v -0.976450 0.500000 0.000000
v 0.000000 0.000000 0.000000
v -0.361496 1.000000 0.361496
v 0.000000 0.900000 -1.000000
v -1.000000 0.900000 -1.000000
v 0.000000 0.900000 1.000000
v 1.000000 0.900000 1.000000
v 1.000000 0.900000 0.000000
v 1.000000 0.900000 -1.000000
v -1.000000 0.900000 0.000000
v -0.200000 0.900000 0.200000
v 0.000000 0.541184 0.304633
v -0.304633 0.541184 0.000000
v -0.023189 0.541184 0.188055
v -0.089225 0.541184 0.089225
v -0.188055 0.541184 0.023189
v -0.304633 0.500000 0.000000
v 0.000000 0.500000 0.304633
v 0.152317 0.500000 -0.152316
v -0.188055 0.500000 0.023189
v -0.089225 0.500000 0.089225
v -0.023189 0.500000 0.188055
v -1.000000 1.000000 1.000000
v -0.892527 1.000000 0.060847
v -1.000000 0.938092 0.000000
v -1.000000 1.000000 0.061909
v -1.000001 0.981867 0.017822
v 0.000000 0.938092 1.000000
v -0.060847 1.000000 0.892527
v -0.061909 1.000000 1.000000
v -0.017822 0.981867 1.000000
v -0.023189 0.938092 0.188055
v -0.079999 1.000000 0.217180
v -0.039828 0.981867 0.196585
v -0.060805 1.000000 0.314197
v 0.000000 0.938092 0.304633
v -0.017809 0.981867 0.307434
v -0.089225 0.938092 0.089225
v -0.134904 1.000000 0.134904
v -0.102604 0.981867 0.102604
v -0.188055 0.938092 0.023189
v -0.217180 1.000000 0.079999
v -0.196585 0.981867 0.039828
v -0.304633 0.938092 0.000000
v -0.314197 1.000000 0.060805
v -0.307434 0.981867 0.017809
vt 0.000000 0.000000
vt 0.000000 0.000000
vt 0.000000 0.000000
vt 0.000000 0.000000
vt 0.000000 0.000000
vt 0.000000 0.000000
vt 0.000000 0.000000
vt 0.000000 0.000000
vt 0.000000 0.000000
vt 0.000000 0.000000
vt 0.000000 0.000000
vt 0.000000 0.000000
vt 0.000000 0.000000
vt 0.000000 0.000000
vt 0.500000 1.000000
vt 0.500000 0.875000
vt 0.516706 0.875000
vt 0.516706 1.000000
vt 0.516706 0.000000
vt 0.516706 0.125000
vt 0.500000 0.125000
vt 0.500000 0.000000
vt 0.516706 0.472684
vt 0.516706 0.125000
vt 0.516706 0.472684
vt 0.516706 0.839511
vt 0.516706 0.869027
vt 0.516706 0.724430
vt 0.516706 0.701158
vt 0.516706 0.701158
vt 0.516706 0.875000
vt 0.516706 0.530516
vt 0.516706 0.482411
vt 0.516706 0.193256
vt 0.516706 0.670125
vt 0.516706 0.672014
vt 0.516706 0.625000
vt 0.516706 0.621881
vt 0.516706 0.641634
vt 0.516706 0.665096
vt 0.516706 0.624790
vt 0.516706 0.609134
vt 0.516706 0.619337
vt 0.516706 0.547105
vt 0.516706 0.571223
vt 0.516706 0.540739
vt 0.516706 0.489258
vt 0.516706 0.000000
vt 0.516706 0.117261
vt 0.516706 0.882739
vt 0.516706 1.000000
vt 0.516706 0.530973
vt 0.516706 0.534099
vt 0.516706 0.885350
vt 0.516706 0.876742
vt 0.516706 0.670265
vt 0.516706 0.695962
vt 0.516706 0.669903
vt 0.516706 0.178737
vt 0.516706 0.140739
vt 0.516706 0.125000
vt 0.516706 0.867130
vt 0.516706 0.875000
vt 0.516706 0.848132
vt 0.516706 0.700967
vt 0.516706 0.671180
vt 0.516706 0.668954
vt 0.516706 0.622898
vt 0.516706 0.618698
vt 0.516706 0.536158
vt 0.516706 0.531920
vt 0.516706 0.473062
vt 0.516706 0.471283
vt 0.516706 0.701859
vt 0.516706 0.289509
vt 0.516706 0.152690
vt 0.516706 0.179170
vt 0.000000 0.000000
vt 0.000000 0.000000
vt 0.000000 0.000000
vt 0.000000 0.000000
vt 0.000000 0.000000
vt 0.000000 0.000000
vt 0.483294 0.875000
vt 0.483294 1.000000
vt 0.483294 0.500000
vt 0.500000 0.500000
vt 0.500000 0.625000
vt 0.483294 0.625000
vt 0.483294 0.000000
vt 0.483294 0.125000
vt 0.483294 0.375000
vt 0.500000 0.375000
vt 0.500000 0.750000
vt 0.483294 0.750000
vt 0.375000 0.875000
vt 0.375000 1.000000
vt 0.250000 0.625000
vt 0.125000 0.625000
vt 0.125000 0.500000
vt 0.250000 0.500000
vt 0.500000 0.250000
vt 0.483294 0.250000
vt 0.375000 0.125000
vt 0.375000 0.000000
vt 0.375000 0.625000
vt 0.375000 0.750000
vt 0.375000 0.375000
vt 0.375000 0.500000
vt 0.375000 0.250000
vt 0.250000 0.750000
vt 0.125000 0.750000
vt 0.516706 0.375000
vt 0.516706 0.500000
vt 0.516706 0.250000
vt 0.516706 0.750000
vt 0.516706 0.625000
vt 0.516706 0.125000
vt 0.516706 0.250000
vt 0.516706 0.625000
vt 0.516706 0.750000
vt 0.516706 0.625000
vt 0.516706 0.875000
vt 0.516706 0.500000
vt 0.516706 0.375000
vn 0.0000 0.0000 -1.0000
vn 0.9808 0.0000 -0.1951
vn 0.8315 0.0000 -0.5556
vn 0.5556 0.0000 -0.8315
vn 0.1951 0.0000 -0.9808
vn 1.0000 0.0000 0.0000
vn 0.0000 -0.4964 0.8681
vn 0.0000 -0.2568 0.9665
vn 0.0000 -0.2125 0.9772
vn -0.9772 -0.2125 0.0000
vn -0.9665 -0.2568 0.0000
vn -0.8681 -0.4964 0.0000
vn 0.0980 0.0000 -0.9952
vn -0.0000 0.1920 -0.9814
vn 0.0968 0.1915 -0.9767
vn 0.0000 1.0000 0.0000
vn 0.1982 0.9802 0.0003
vn 0.2072 0.9781 -0.0196
vn 0.9952 0.0000 -0.0980
vn 0.9767 0.1915 -0.0968
vn 0.9814 0.1920 0.0000
vn 0.0196 0.9781 -0.2072
vn -0.0003 0.9802 -0.1982
vn 0.9055 0.1953 -0.3768
vn 0.9239 0.0000 -0.3827
vn 0.7071 0.0000 -0.7071
vn 0.6931 0.1978 -0.6931
vn 0.1980 0.9770 -0.0793
vn 0.1487 0.9777 -0.1487
vn 0.0793 0.9770 -0.1980
vn -1.0000 -0.0000 0.0000
vn 0.0000 0.0000 1.0000
vn 0.3827 0.0000 -0.9239
vn 0.3768 0.1953 -0.9055
vn 0.1927 0.9813 0.0019
vn -0.0028 0.9240 -0.3825
vn -0.0019 0.9813 -0.1927
vn 0.3825 0.9240 0.0028
vn 0.3832 0.9228 -0.0388
vn 0.3440 0.9276 -0.1456
vn 0.8516 0.3917 -0.3484
vn 0.9206 0.3801 -0.0893
vn 0.2608 0.9295 -0.2608
vn 0.6490 0.3969 -0.6490
vn 0.1456 0.9276 -0.3440
vn 0.3484 0.3917 -0.8516
vn 0.0388 0.9228 -0.3832
vn 0.0893 0.3801 -0.9206
vn -0.0000 0.3769 -0.9262
vn 0.9262 0.3769 0.0000
vn 0.0000 0.2568 0.9665
vn 0.0000 0.4964 0.8681
vn 0.0000 0.2125 0.9772
vn 0.9772 0.2124 0.0000
vn 0.8681 0.4964 0.0000
vn 0.9665 0.2568 0.0000
vn -0.9772 0.2125 0.0000
vn -0.8681 0.4964 0.0000
vn -0.9665 0.2568 0.0000
vn 0.0000 0.2568 -0.9665
vn 0.0000 0.4964 -0.8681
vn 0.0000 0.2125 -0.9772
vn 0.0000 -1.0000 0.0000
vn 0.0000 -0.4964 -0.8681
vn 0.0000 -0.2568 -0.9665
vn 0.0000 -0.2125 -0.9772
vn 0.9772 -0.2124 0.0000
vn 0.9665 -0.2568 0.0000
vn 0.8681 -0.4964 0.0000
usemtl Green
s off
f 28/1/1 44/2/1 48/3/1 32/4/1
f 43/5/2 49/6/2 53/7/2 45/8/2
f 45/8/3 53/7/3 52/9/3 46/10/3
f 46/10/4 52/9/4 51/11/4 47/12/4
f 47/12/5 51/11/5 48/3/5 44/2/5
f 23/13/6 49/6/6 43/5/6 22/14/6
s 4
f 5/15/7 23/16/7 22/17/8 9/18/9
s 7
f 9/19/10 28/20/11 32/21/12 5/22/12
s 29
f 44/23/13 28/20/1 56/24/14 75/25/15
s 33
f 34/26/16 60/27/17 66/28/18
s 34
f 22/17/6 43/29/19 67/30/20 59/31/21
s 44
f 34/32/16 76/33/22 55/34/23
s 46
f 63/35/24 45/36/25 46/37/26 69/38/27
s 47
f 34/39/16 64/40/28 70/41/29
s 48
f 34/42/16 70/43/29 73/44/30
s 49
f 34/45/16 73/46/30 76/47/22
s 53
f 28/20/11 9/19/10 54/48/31 57/49/31 56/24/31
s 54
f 9/18/9 22/17/8 59/31/32 61/50/32 54/51/32
s 55
f 67/30/20 43/29/19 45/36/25 63/35/24
s 56
f 69/38/27 46/37/26 47/52/33 72/53/34
s 57
f 72/53/34 47/52/33 44/23/13 75/25/15
s 58
f 34/54/16 54/51/16 61/50/35 60/55/17
s 59
f 34/56/16 66/57/18 64/58/28
s 60
f 55/59/23 58/60/36 57/61/37
s 61
f 58/60/31 56/24/31 57/61/31
s 62
f 59/31/32 62/62/32 61/63/32
s 63
f 62/62/38 60/64/17 61/63/35
s 64
f 64/58/28 66/57/18 68/65/39 65/66/40
s 65
f 65/66/41 68/65/42 67/30/20 63/35/24
s 66
f 70/41/29 64/40/28 65/67/40 71/68/43
s 67
f 71/68/44 65/67/41 63/35/24 69/38/27
s 68
f 73/44/30 70/43/29 71/69/43 74/70/45
s 69
f 74/70/46 71/69/44 69/38/27 72/53/34
s 70
f 76/47/22 73/46/30 74/71/45 77/72/47
s 71
f 77/72/48 74/71/46 72/53/34 75/25/15
s 72
f 55/34/23 76/33/22 77/73/47 58/60/36
s 73
f 58/60/49 77/73/48 75/25/15 56/24/14
s 74
f 66/28/18 60/27/17 62/62/38 68/74/39
s 75
f 68/74/42 62/62/50 59/31/21 67/30/20
s 76
f 34/75/16 55/76/23 57/77/37 54/51/16
usemtl BrownDark
s off
f 32/4/16 48/3/16 50/78/16 24/79/16 6/80/16
f 23/13/16 8/81/16 31/82/16 50/78/16 49/6/16
f 50/78/16 31/82/16 7/83/16 24/79/16
f 48/3/16 51/11/16 52/9/16 53/7/16 49/6/16 50/78/16
s 3
f 21/84/51 23/16/52 5/15/52 16/85/53
s 5
f 14/86/54 7/87/55 31/88/55 29/89/56
s 10
f 16/90/57 5/22/58 32/21/58 27/91/59
s 11
f 18/92/60 24/93/61 7/87/61 14/86/62
s 12
f 31/88/55 8/94/55 15/95/54 29/89/56
s 13
f 20/96/32 21/84/51 16/85/53 1/97/32
s 14
f 33/98/63 25/99/63 2/100/63 17/101/63
s 15
f 27/91/59 32/21/58 6/102/58 13/103/57
s 16
f 25/104/31 1/105/31 16/90/57 27/91/59
s 18
f 26/106/6 29/89/56 15/95/54 3/107/6
s 19
f 17/108/1 18/92/60 14/86/62 4/109/1
s 20
f 13/103/62 6/102/61 24/93/61 18/92/60
s 21
f 2/110/1 13/103/62 18/92/60 17/108/1
s 22
f 26/106/63 33/98/63 17/101/63 4/109/63
s 23
f 3/107/32 15/95/53 21/84/51 20/96/32
s 24
f 3/107/63 20/111/63 33/98/63 26/106/63
s 25
f 4/109/6 14/86/54 29/89/56 26/106/6
s 26
f 2/110/31 25/104/31 27/91/59 13/103/57
s 27
f 20/111/63 1/112/63 25/99/63 33/98/63
s 28
f 15/95/53 8/94/52 23/16/52 21/84/51
usemtl Water
s 1
f 7/87/64 24/93/64 19/113/65 11/114/66
s 2
f 6/102/12 32/21/12 28/20/11 10/115/10
s 6
f 10/115/66 19/113/65 24/93/64 6/102/64
s 8
f 12/116/9 22/17/8 23/16/7 8/94/7
s 9
f 11/114/67 30/117/68 31/88/69 7/87/69
s 17
f 8/94/69 31/88/69 30/117/68 12/116/67
s 30
f 10/115/10 28/20/11 41/118/31 36/119/31
s 31
f 12/116/67 30/117/68 39/120/6 38/121/6
s 35
f 39/120/16 42/122/16 37/123/16 38/121/16
s 36
f 40/124/16 35/125/16 42/122/16 39/120/16
s 37
f 35/125/16 36/119/16 41/118/16 42/122/16
s 38
f 19/113/65 10/115/66 36/119/1 35/125/1
s 39
f 30/117/68 11/114/67 40/124/6 39/120/6
s 40
f 22/17/8 12/116/9 38/121/32 37/123/32
s 41
f 11/114/66 19/113/65 35/125/1 40/124/1
