# Blender v2.80 (sub 75) OBJ File: 'TilesExport.blend'
# www.blender.org
mtllib square_water_detail.mtl
o square_water_detail_Cube.309
v -1.000000 0.000000 1.000000
v -1.000000 0.000000 -1.000000
v -0.976450 0.500000 0.976450
v -0.976450 0.500000 -0.976450
v -1.000000 0.541184 1.000000
v -1.000000 0.541184 -1.000000
v -1.000000 0.458816 -1.000000
v -1.000000 0.458816 1.000000
v -1.000000 0.900000 -1.000000
v -1.000000 0.900000 1.000000
v 1.000000 0.000000 1.000000
v 1.000000 0.000000 -1.000000
v 0.976450 0.500000 0.976450
v 0.976450 0.500000 -0.976450
v 1.000000 0.541184 1.000000
v 1.000000 0.541184 -1.000000
v 1.000000 0.458816 -1.000000
v 1.000000 0.458816 1.000000
v 1.000000 0.900000 -1.000000
v 1.000000 0.900000 1.000000
vt 0.000000 0.000000
vt 0.000000 0.000000
vt 0.000000 0.000000
vt 0.000000 0.000000
vt 0.483294 0.250000
vt 0.483294 0.250000
vt 0.500000 0.250000
vt 0.500000 0.250000
vt 0.500000 0.000000
vt 0.483294 0.000000
vt 0.483294 1.000000
vt 0.483294 1.000000
vt 0.500000 1.000000
vt 0.500000 1.000000
vt 0.375000 0.250000
vt 0.375000 0.000000
vt 0.125000 0.500000
vt 0.125000 0.500000
vt 0.125000 0.750000
vt 0.125000 0.750000
vt 0.375000 1.000000
vt 0.375000 1.000000
vt 0.500000 0.000000
vt 0.483294 0.000000
vt 0.375000 0.250000
vt 0.375000 0.000000
vt 0.516706 0.000000
vt 0.516706 0.000000
vt 0.516706 0.250000
vt 0.516706 0.250000
vt 0.516706 0.250000
vt 0.516706 1.000000
vt 0.516706 1.000000
vt 0.516706 1.000000
vt 0.516706 1.000000
vt 0.516706 0.250000
vt 0.516706 0.000000
vt 0.516706 0.000000
vn 0.0000 1.0000 0.0000
vn 0.0000 0.2125 -0.9772
vn 0.0000 0.4964 -0.8681
vn -0.8681 0.4964 0.0000
vn -0.9772 0.2125 0.0000
vn 0.0000 0.2125 0.9772
vn 0.0000 0.4964 0.8681
vn -1.0000 0.0000 0.0000
vn 0.0000 -1.0000 0.0000
vn 0.0000 0.0000 1.0000
vn 0.8681 0.4964 0.0000
vn 0.9772 0.2125 0.0000
vn 1.0000 0.0000 0.0000
vn 0.0000 0.0000 -1.0000
vn -0.9772 -0.2125 0.0000
vn 0.0000 -0.2125 -0.9772
vn 0.0000 -0.4964 -0.8681
vn 0.0000 -0.4964 0.8681
vn 0.0000 -0.2125 0.9772
vn -0.8681 -0.4964 0.0000
vn 0.9772 -0.2125 0.0000
vn 0.8681 -0.4964 0.0000
usemtl BrownDark
s off
f 13/1/1 14/2/1 4/3/1 3/4/1
s 2
f 17/5/2 7/6/2 4/7/3 14/8/3
s 4
f 3/9/4 4/7/4 7/6/5 8/10/5
s 5
f 8/11/6 18/12/6 13/13/7 3/14/7
s 8
f 2/15/8 1/16/8 8/10/5 7/6/5
s 9
f 2/17/9 12/18/9 11/19/9 1/20/9
s 10
f 1/21/10 11/22/10 18/12/6 8/11/6
s 16
f 13/23/11 18/24/12 17/5/12 14/8/11
s 17
f 12/25/13 17/5/12 18/24/12 11/26/13
s 19
f 12/25/14 2/15/14 7/6/2 17/5/2
usemtl Water
s 1
f 5/27/15 10/28/8 9/29/8 6/30/15
s 3
f 16/31/16 14/8/17 4/7/17 6/30/16
s 6
f 13/13/18 15/32/19 5/33/19 3/14/18
s 7
f 10/34/1 20/35/1 19/36/1 9/29/1
s 11
f 9/29/14 19/36/14 16/31/16 6/30/16
s 12
f 15/32/19 20/35/10 10/34/10 5/33/19
s 14
f 5/27/15 6/30/15 4/7/20 3/9/20
s 15
f 15/37/21 16/31/21 19/36/13 20/38/13
s 18
f 15/37/21 13/23/22 14/8/22 16/31/21
