# Blender v2.80 (sub 75) OBJ File: 'TilesExport.blend'
# www.blender.org
mtllib square_forest_roadC.mtl
o square_forest_roadC_Cube.318
v -1.000000 0.900000 1.000000
v -1.000000 0.900000 -1.000000
v 1.000000 0.900000 1.000000
v 1.000000 0.900000 -1.000000
v -1.000000 0.000000 1.000000
v -1.000000 0.000000 -1.000000
v 1.000000 0.000000 -1.000000
v 1.000000 0.000000 1.000000
v -0.000002 0.900000 -1.000000
v 0.173203 0.900000 1.000000
v -0.173207 0.900000 1.000000
v -0.000002 0.000000 1.000000
v -0.000002 0.000000 -1.000000
v -1.000000 0.900000 -0.000001
v 1.000000 0.900000 0.173203
v 1.000000 0.900000 -0.173206
v 1.000000 0.000000 -0.000001
v -1.000000 0.000000 -0.000001
v -0.173207 0.900000 0.173203
v 0.173203 0.900000 -0.173206
v -0.000002 1.000000 -1.000000
v 0.462795 1.000000 0.462795
v -1.000000 1.000000 -0.000001
v 1.000000 1.000000 -1.000000
v -1.000000 1.000000 -1.000000
v -1.000000 1.000000 1.000000
v 0.173203 0.900000 0.342233
v 0.342233 0.900000 0.173203
v 0.088689 0.900000 0.088688
v 0.186070 0.900000 0.277548
v 0.222711 0.900000 0.222711
v 0.277548 0.900000 0.186070
v -0.004178 0.900000 -0.173206
v -0.173207 0.900000 -0.004176
v -0.068862 0.900000 -0.160339
v -0.123699 0.900000 -0.123698
v -0.160340 0.900000 -0.068861
v -0.257722 1.000000 -0.257721
v 1.000000 1.000000 1.000000
v -0.173207 0.939563 0.173203
v -0.222536 1.000000 0.173203
v -0.187655 0.982298 0.173203
v 0.173203 1.000000 -0.222535
v 0.173203 0.939563 -0.173206
v 0.173203 0.982298 -0.187654
v -0.173207 0.939563 1.000000
v -0.222963 1.000000 1.000000
v -0.187780 0.982298 1.000000
v 1.000000 1.000000 -0.222962
v 1.000000 0.939563 -0.173206
v 1.000000 0.982298 -0.187779
v -0.229543 1.000000 -0.104917
v -0.173207 0.939563 -0.004176
v -0.187270 0.982298 -0.046364
v -0.004178 0.939563 -0.173206
v -0.104918 1.000000 -0.229542
v -0.046365 0.982298 -0.187268
v -0.160340 0.939563 -0.068861
v -0.183047 0.982298 -0.066740
v -0.123699 0.939563 -0.123698
v -0.167272 1.000000 -0.167271
v -0.136462 0.982298 -0.136460
v -0.068862 0.939563 -0.160339
v -0.066741 0.982298 -0.183046
v 1.000000 0.939563 0.173203
v 0.895033 1.000000 0.229788
v 1.000000 1.000000 0.233640
v 1.000002 0.982298 0.189776
v 0.229788 1.000000 0.895033
v 0.173203 0.939563 1.000000
v 0.233640 1.000000 1.000000
v 0.189777 0.982298 1.000000
v 0.277548 0.939563 0.186070
v 0.313455 1.000000 0.239708
v 0.288065 0.982298 0.201780
v 0.365726 1.000000 0.229634
v 0.342233 0.939563 0.173203
v 0.349114 0.982298 0.189731
v 0.222711 0.939563 0.222711
v 0.269133 1.000000 0.269133
v 0.236308 0.982298 0.236307
v 0.186070 0.939563 0.277548
v 0.239709 1.000000 0.313455
v 0.201780 0.982298 0.288065
v 0.173203 0.939563 0.342233
v 0.229634 1.000000 0.365726
v 0.189731 0.982298 0.349113
v -0.000002 0.000000 -0.000001
vt 0.771875 0.500000
vt 0.771875 0.582042
vt 0.762655 0.591148
vt 0.728125 0.596972
vt 0.516706 0.896875
vt 0.625000 0.896875
vt 0.625000 1.000000
vt 0.516706 1.000000
vt 0.516706 0.646875
vt 0.625000 0.646875
vt 0.625000 0.750000
vt 0.516706 0.750000
vt 0.516706 0.500000
vt 0.625000 0.500000
vt 0.625000 0.603125
vt 0.516706 0.603125
vt 0.625000 0.250000
vt 0.625000 0.146875
vt 0.625000 0.146875
vt 0.625000 0.250000
vt 0.516706 0.000000
vt 0.625000 0.000000
vt 0.625000 0.103125
vt 0.516706 0.103125
vt 0.516706 0.146875
vt 0.516706 0.250000
vt 0.625000 0.896875
vt 0.722917 0.799564
vt 0.625000 0.903081
vt 0.625000 1.000000
vt 0.625000 0.853125
vt 0.516706 0.853125
vt 0.516706 0.396875
vt 0.625000 0.396875
vt 0.625000 0.353125
vt 0.516706 0.353125
vt 0.709659 0.669335
vt 0.724527 0.668226
vt 0.724517 0.734239
vt 0.625000 0.353125
vt 0.644007 0.665827
vt 0.628714 0.650578
vt 0.694759 0.650568
vt 0.625000 0.000000
vt 0.625000 0.103125
vt 0.728125 0.603125
vt 0.625000 0.603125
vt 0.728125 0.603125
vt 0.771875 0.646875
vt 0.771875 0.624473
vt 0.771875 0.624473
vt 0.771875 0.646875
vt 0.875000 0.500000
vt 0.875000 0.603125
vt 0.625000 0.500000
vt 0.728125 0.500000
vt 0.625000 0.596919
vt 0.625000 0.602519
vt 0.875000 0.646875
vt 0.778028 0.646875
vt 0.783852 0.612345
vt 0.792958 0.603125
vt 0.771875 0.750000
vt 0.771875 0.750000
vt 0.707042 0.646875
vt 0.707042 0.646875
vt 0.625000 0.646875
vt 0.771333 0.616303
vt 0.771548 0.616303
vt 0.728125 0.667958
vt 0.728125 0.750000
vt 0.728125 0.750000
vt 0.728125 0.667958
vt 0.750527 0.603125
vt 0.750527 0.603125
vt 0.625000 0.396875
vt 0.758697 0.603452
vt 0.758697 0.603667
vt 0.769791 0.605209
vt 0.770615 0.604385
vt 0.643996 0.731004
vt 0.625000 0.750000
vt 0.625000 0.654413
vt 0.628712 0.663313
vt 0.780729 0.608357
vt 0.783852 0.603125
vt 0.715110 0.647087
vt 0.715110 0.646875
vt 0.728125 0.646875
vt 0.727311 0.647689
vt 0.708268 0.665788
vt 0.713784 0.650972
vt 0.722625 0.652192
vt 0.708839 0.666161
vt 0.722736 0.652264
vt 0.723956 0.661105
vt 0.709212 0.666732
vt 0.724028 0.661216
vt 0.724440 0.667719
vt 0.625000 0.845587
vt 0.625000 0.853125
vt 0.728125 0.659890
vt 0.727913 0.659890
vt 0.705665 0.665341
vt 0.706774 0.650473
vt 0.713279 0.650886
vt 0.709173 0.730993
vt 0.724422 0.746286
vt 0.720587 0.750000
vt 0.628835 0.646875
vt 0.625000 0.646875
vt 0.638092 0.646875
vt 0.728125 0.736908
vt 0.728125 0.746165
vt 0.728125 0.750000
vt 0.778081 0.750000
vt 0.771875 0.646875
vt 0.728125 0.603125
vt 0.771875 0.617110
vt 0.771875 0.622080
vt 0.771875 0.603125
vt 0.771875 0.616303
vt 0.771875 0.609378
vt 0.781032 0.621854
vt 0.758697 0.603125
vt 0.771875 0.604750
vt 0.781032 0.599595
vt 0.755313 0.603125
vt 0.757890 0.603125
vt 0.771875 0.604590
vt 0.771875 0.604077
vt 0.707042 0.646875
vt 0.714667 0.647381
vt 0.725798 0.649202
vt 0.727619 0.660333
vt 0.728125 0.668387
vt 0.706184 0.646875
vt 0.750527 0.603125
vt 0.875000 0.750000
vt 0.516706 0.603125
vt 0.728125 0.625527
vt 0.728125 0.653050
vt 0.728125 0.648480
vt 0.728125 0.646875
vt 0.749473 0.646875
vn 0.0000 1.0000 -0.0000
vn 0.0509 0.9920 0.1152
vn -0.0014 0.9743 0.2252
vn 0.0000 0.0000 1.0000
vn 1.0000 -0.0000 0.0000
vn -1.0000 0.0000 0.0000
vn 0.0000 0.0000 -1.0000
vn -0.2132 0.9769 -0.0167
vn -0.2070 0.9783 0.0010
vn 0.0010 0.9783 -0.2070
vn -0.0167 0.9769 -0.2132
vn 0.0000 0.1629 0.9866
vn 0.0003 0.1617 0.9868
vn 0.9952 0.0000 0.0980
vn 0.9801 0.1841 0.0748
vn 0.9868 0.1617 0.0003
vn 0.0001 0.9728 0.2317
vn 0.2252 0.9743 -0.0014
vn 0.1152 0.9920 0.0509
vn 0.9866 0.1629 0.0000
vn -0.0980 0.0000 -0.9952
vn -0.0993 0.1874 -0.9773
vn 0.0000 0.1837 -0.9830
vn 0.9239 0.0000 0.3827
vn 0.8951 0.2220 0.3866
vn -0.9952 0.0000 -0.0980
vn -0.9830 0.1837 0.0000
vn -0.9773 0.1874 -0.0993
vn 0.0980 0.0000 0.9952
vn 0.0748 0.1841 0.9801
vn 0.3866 0.2220 0.8951
vn 0.3827 0.0000 0.9239
vn 0.7071 0.0000 0.7071
vn 0.6923 0.2034 0.6923
vn 0.0068 0.9825 -0.1863
vn 0.1154 0.9866 0.1154
vn -0.3787 0.1988 -0.9039
vn -0.3827 0.0000 -0.9239
vn -0.7071 0.0000 -0.7071
vn -0.6921 0.2049 -0.6921
vn -0.0747 0.9775 -0.1971
vn -0.1435 0.9792 -0.1435
vn -0.1971 0.9775 -0.0747
vn -0.9239 0.0000 -0.3827
vn -0.9039 0.1988 -0.3787
vn -0.1863 0.9825 0.0068
vn 1.0000 -0.0001 0.0001
vn 0.0103 0.9241 -0.3820
vn -0.3820 0.9241 0.0103
vn 0.2317 0.9728 0.0001
vn 0.4510 0.8925 0.0002
vn 0.4358 0.9000 -0.0027
vn 0.9477 0.3192 0.0005
vn 0.9469 0.3215 0.0001
vn -0.0027 0.9000 0.4358
vn 0.0002 0.8925 0.4510
vn 0.0001 0.3215 0.9469
vn 0.0005 0.3192 0.9477
vn 0.8413 0.4324 0.3245
vn 0.8973 0.4220 0.1293
vn 0.3926 0.9196 0.0123
vn 0.2847 0.9506 0.1240
vn 0.6514 0.3891 0.6514
vn 0.2278 0.9467 0.2278
vn 0.3245 0.4324 0.8413
vn 0.1240 0.9506 0.2847
vn 0.1293 0.4220 0.8973
vn 0.0123 0.9196 0.3926
vn -0.0439 0.9197 -0.3902
vn -0.1461 0.9304 -0.3362
vn -0.3417 0.3975 -0.8516
vn -0.0840 0.3710 -0.9248
vn -0.2516 0.9345 -0.2516
vn -0.6447 0.4108 -0.6447
vn -0.3362 0.9304 -0.1461
vn -0.8516 0.3975 -0.3417
vn -0.3902 0.9197 -0.0439
vn -0.9248 0.3710 -0.0840
vn -0.9325 0.3611 0.0000
vn 0.0000 0.3611 -0.9325
vn 0.0000 -1.0000 0.0000
usemtl Green
s 1
f 21/1/1 38/2/1 56/3/2 43/4/3
s 2
f 12/5/4 11/6/4 1/7/4 5/8/4
s 3
f 17/9/5 15/10/5 3/11/5 8/12/5
s 4
f 7/13/5 4/14/5 16/15/5 17/16/5
s 5
f 2/17/6 14/18/6 23/19/6 25/20/6
s 6
f 5/21/6 1/22/6 14/23/6 18/24/6
s 7
f 18/25/6 14/18/6 2/17/6 6/26/6
s 8
f 1/7/4 11/6/4 46/27/4 48/28/4 47/29/4 26/30/4
s 9
f 8/12/4 3/11/4 10/31/4 12/32/4
s 10
f 13/33/7 9/34/7 4/14/7 7/13/7
s 11
f 6/26/7 2/17/7 9/35/7 13/36/7
s 12
f 22/37/1 86/38/8 69/39/9
s 13
f 11/6/4 12/32/4 10/31/4
s 15
f 9/35/7 2/17/7 25/20/7 21/40/7
s 16
f 22/41/1 66/42/10 76/43/11
s 17
f 15/10/5 17/16/5 16/15/5
s 18
f 14/23/6 1/22/6 26/44/6 23/45/6
s 19
f 20/46/4 16/15/4 50/47/12 44/48/13
s 20
f 19/49/5 34/50/14 53/51/15 40/52/16
s 21
f 21/1/1 25/53/1 23/54/1 38/2/1
s 22
f 24/55/1 21/56/1 43/4/3 49/57/17
s 24
f 16/15/5 4/14/5 24/55/5 49/57/5 51/58/5 50/47/5
s 25
f 23/59/1 41/60/18 52/61/19 38/62/1
s 26
f 11/63/5 19/49/5 40/52/16 46/64/20
s 27
f 15/10/7 28/65/21 77/66/22 65/67/23
s 28
f 37/68/24 58/69/25 53/51/15 34/50/14
s 29
f 27/70/26 10/71/6 70/72/27 85/73/28
s 30
f 33/74/29 20/46/4 44/48/13 55/75/30
s 31
f 4/14/7 9/34/7 21/76/7 24/55/7
s 33
f 33/74/29 55/75/30 63/77/31 35/78/32
s 34
f 36/79/33 60/80/34 58/69/25 37/68/24
s 35
f 22/81/1 39/82/1 67/83/35 66/84/10
s 36
f 35/78/32 63/77/31 60/80/34 36/79/33
s 37
f 61/85/36 56/86/2 38/62/1
s 38
f 73/87/37 32/88/38 31/89/39 79/90/40
s 39
f 22/91/1 74/92/41 80/93/42
s 40
f 22/94/1 80/95/42 83/96/43
s 41
f 22/97/1 83/98/43 86/99/8
s 43
f 3/11/5 15/10/5 65/67/5 67/83/5 39/82/5
s 44
f 10/31/4 3/11/4 39/82/4 71/100/4 70/101/4
s 45
f 77/66/22 28/65/21 32/88/38 73/87/37
s 46
f 79/90/40 31/89/39 30/102/44 82/103/45
s 47
f 82/103/45 30/102/44 27/70/26 85/73/28
s 48
f 22/104/1 76/105/11 74/106/41
s 49
f 22/107/1 69/108/9 71/109/46 39/82/1
s 50
f 65/67/5 68/110/47 67/111/5
s 51
f 68/110/48 66/112/10 67/111/35
s 52
f 69/113/9 72/114/49 71/115/46
s 53
f 72/114/4 70/72/4 71/115/4
s 54
f 41/60/18 47/116/50 48/28/51 42/117/52
s 55
f 42/117/53 48/28/54 46/64/20 40/52/16
s 56
f 49/57/17 43/4/3 45/118/55 51/58/56
s 57
f 51/58/57 45/118/58 44/48/13 50/47/12
s 58
f 53/51/15 58/69/25 59/119/59 54/120/60
s 59
f 54/120/61 59/119/62 52/61/19
s 60
f 58/69/25 60/80/34 62/121/63 59/122/59
s 61
f 59/122/62 62/123/64 61/85/36 52/124/19
s 62
f 60/80/34 63/77/31 64/125/65 62/121/63
s 63
f 62/123/64 64/126/66 56/127/2 61/85/36
s 64
f 63/77/31 55/75/30 57/128/67 64/129/65
s 65
f 64/130/66 57/131/68 56/127/2
s 66
f 74/106/41 76/105/11 78/132/69 75/133/70
s 67
f 75/133/71 78/132/72 77/66/22 73/87/37
s 68
f 80/93/42 74/92/41 75/133/70 81/134/73
s 69
f 81/134/74 75/133/71 73/87/37 79/90/40
s 70
f 83/96/43 80/95/42 81/134/73 84/135/75
s 71
f 84/135/76 81/134/74 79/90/40 82/103/45
s 72
f 86/99/8 83/98/43 84/135/75 87/136/77
s 73
f 87/136/78 84/135/76 82/103/45 85/73/28
s 74
f 69/39/9 86/38/8 87/136/77 72/114/49
s 75
f 72/114/79 87/136/78 85/73/28 70/72/27
s 76
f 76/43/11 66/42/10 68/110/48 78/137/69
s 77
f 78/137/72 68/110/80 65/67/23 77/66/22
s 78
f 52/61/19 41/60/18 42/117/52 54/120/61
s 79
f 54/120/60 42/117/53 40/52/16 53/51/15
s 80
f 43/4/3 56/3/2 57/138/68 45/118/55
s 81
f 45/118/58 57/138/67 55/75/30 44/48/13
s 82
f 41/60/18 23/59/1 26/139/1 47/116/50
s 83
f 52/124/19 61/85/36 38/62/1
s 84
f 88/140/81 17/16/81 8/12/81 12/32/81
s 85
f 18/24/81 88/140/81 12/32/81 5/8/81
s 86
f 6/26/81 13/36/81 88/140/81 18/24/81
s 87
f 13/36/81 7/13/81 17/16/81 88/140/81
usemtl Beige
s 14
f 29/141/1 20/46/1 33/74/1 35/78/1
s 23
f 29/141/1 28/65/1 15/10/1 16/15/1 20/46/1
s 32
f 27/70/1 30/102/1 31/142/1 32/143/1 28/144/1 29/145/1
s 42
f 19/49/1 11/63/1 10/71/1 27/70/1 29/145/1
s 88
f 29/141/1 35/78/1 36/79/1 37/68/1
s 89
f 19/49/1 29/141/1 37/68/1 34/50/1
