# Blender v2.80 (sub 75) OBJ File: 'TilesExport.blend'
# www.blender.org
mtllib square_rock_roadE.mtl
o square_rock_roadE_Cube.336
v -1.000000 0.900000 1.000000
v -1.000000 0.900000 -1.000000
v 1.000000 0.900000 1.000000
v 1.000000 0.900000 -1.000000
v -1.000000 0.000000 1.000000
v -1.000000 0.000000 -1.000000
v 1.000000 0.000000 -1.000000
v 1.000000 0.000000 1.000000
v -0.173207 0.900000 -1.000000
v 0.173203 0.900000 -1.000000
v 0.173203 0.900000 1.000000
v -0.173207 0.900000 1.000000
v -0.000002 0.000000 1.000000
v -0.000002 0.000000 -1.000000
v -1.000000 0.900000 0.173203
v -1.000000 0.900000 -0.173206
v 1.000000 0.900000 0.173203
v 1.000000 0.900000 -0.173206
v 1.000000 0.000000 -0.000001
v -1.000000 0.000000 -0.000001
v -0.470303 1.000000 0.470299
v 0.470300 1.000000 0.470299
v -0.470303 1.000000 -0.470302
v 0.470300 1.000000 -0.470302
v -0.342237 0.900000 0.173203
v -0.173207 0.900000 0.342233
v -0.000002 0.900000 -0.000001
v -0.277552 0.900000 0.186070
v -0.222715 0.900000 0.222711
v -0.186074 0.900000 0.277548
v 0.173203 0.900000 0.342233
v 0.342233 0.900000 0.173203
v 0.186070 0.900000 0.277548
v 0.222711 0.900000 0.222711
v 0.277548 0.900000 0.186070
v 0.342233 0.900000 -0.173206
v 0.173203 0.900000 -0.342235
v 0.277548 0.900000 -0.186072
v 0.222711 0.900000 -0.222714
v 0.186070 0.900000 -0.277551
v -0.173207 0.900000 -0.342235
v -0.342237 0.900000 -0.173206
v -0.186074 0.900000 -0.277551
v -0.222715 0.900000 -0.222713
v -0.277552 0.900000 -0.186072
v 1.000000 1.000000 -1.000000
v -1.000000 1.000000 -1.000000
v -1.000000 1.000000 1.000000
v 1.000000 1.000000 1.000000
v 0.899393 1.000000 -0.229634
v 1.000000 0.939563 -0.173206
v 1.000000 1.000000 -0.233643
v 0.999997 0.982298 -0.189733
v 0.173203 0.939563 -1.000000
v 0.229632 1.000000 -0.899393
v 0.233640 1.000000 -1.000000
v 0.189731 0.982298 -1.000000
v -0.229635 1.000000 -0.899393
v -0.173207 0.939563 -1.000000
v -0.233644 1.000000 -1.000000
v -0.189735 0.982298 -1.000000
v -1.000000 0.939563 -0.173206
v -0.899393 1.000000 -0.229634
v -1.000000 1.000000 -0.233643
v -0.999998 0.982298 -0.189733
v -0.173207 0.939563 1.000000
v -0.229635 1.000000 0.899392
v -0.233644 1.000000 1.000000
v -0.189735 0.982298 1.000000
v 1.000000 0.939563 0.173203
v 0.899393 1.000000 0.229631
v 1.000000 1.000000 0.233640
v 0.999998 0.982298 0.189730
v 0.229632 1.000000 0.899393
v 0.173203 0.939563 1.000000
v 0.233640 1.000000 1.000000
v 0.189731 0.982298 1.000000
v -0.899393 1.000000 0.229631
v -1.000000 0.939563 0.173203
v -1.000000 1.000000 0.233640
v -0.999998 0.982298 0.189731
v 0.342233 0.939563 -0.173206
v 0.366488 1.000000 -0.229474
v 0.349337 0.982298 -0.189686
v 0.313854 1.000000 -0.239609
v 0.277548 0.939563 -0.186072
v 0.288182 0.982298 -0.201753
v 0.269228 1.000000 -0.269231
v 0.222711 0.939563 -0.222713
v 0.236335 0.982298 -0.236338
v 0.239606 1.000000 -0.313856
v 0.186070 0.939563 -0.277551
v 0.201750 0.982298 -0.288184
v 0.229471 1.000000 -0.366490
v 0.173203 0.939563 -0.342235
v 0.189684 0.982298 -0.349339
v -0.186074 0.939563 0.277548
v -0.239610 1.000000 0.313854
v -0.201754 0.982298 0.288182
v -0.229475 1.000000 0.366488
v -0.173207 0.939563 0.342233
v -0.189688 0.982298 0.349337
v -0.222715 0.939563 0.222711
v -0.269232 1.000000 0.269228
v -0.236339 0.982298 0.236335
v -0.277552 0.939563 0.186070
v -0.313858 1.000000 0.239606
v -0.288186 0.982298 0.201750
v -0.342237 0.939563 0.173203
v -0.366491 1.000000 0.229471
v -0.349341 0.982298 0.189684
v -0.173207 0.939563 -0.342235
v -0.229475 1.000000 -0.366490
v -0.189688 0.982298 -0.349339
v -0.239610 1.000000 -0.313857
v -0.186074 0.939563 -0.277551
v -0.201754 0.982298 -0.288184
v -0.269232 1.000000 -0.269231
v -0.222715 0.939563 -0.222713
v -0.236339 0.982298 -0.236338
v -0.313858 1.000000 -0.239609
v -0.277552 0.939563 -0.186072
v -0.288186 0.982298 -0.201753
v -0.366491 1.000000 -0.229474
v -0.342237 0.939563 -0.173206
v -0.349341 0.982298 -0.189686
v 0.277548 0.939563 0.186070
v 0.313854 1.000000 0.239606
v 0.288182 0.982298 0.201750
v 0.366488 1.000000 0.229471
v 0.342233 0.939563 0.173203
v 0.349337 0.982298 0.189684
v 0.222711 0.939563 0.222711
v 0.269228 1.000000 0.269228
v 0.236335 0.982298 0.236335
v 0.186070 0.939563 0.277548
v 0.239606 1.000000 0.313854
v 0.201750 0.982298 0.288182
v 0.173203 0.939563 0.342233
v 0.229471 1.000000 0.366487
v 0.189684 0.982298 0.349337
v -0.000002 0.000000 -0.000001
vt 0.728125 0.667958
vt 0.728125 0.750000
vt 0.728125 0.750000
vt 0.728125 0.667958
vt 0.516706 0.896875
vt 0.625000 0.896875
vt 0.625000 1.000000
vt 0.516706 1.000000
vt 0.516706 0.646875
vt 0.625000 0.646875
vt 0.625000 0.750000
vt 0.516706 0.750000
vt 0.516706 0.500000
vt 0.625000 0.500000
vt 0.625000 0.603125
vt 0.516706 0.603125
vt 0.707042 0.603125
vt 0.625000 0.603125
vt 0.707042 0.603125
vt 0.516706 0.000000
vt 0.625000 0.000000
vt 0.625000 0.103125
vt 0.516706 0.103125
vt 0.516706 0.146875
vt 0.625000 0.146875
vt 0.625000 0.250000
vt 0.516706 0.250000
vt 0.793890 0.580271
vt 0.776045 0.581707
vt 0.776056 0.515246
vt 0.707042 0.646875
vt 0.707042 0.646875
vt 0.625000 0.646875
vt 0.625000 0.853125
vt 0.516706 0.853125
vt 0.516706 0.396875
vt 0.625000 0.396875
vt 0.625000 0.353125
vt 0.516706 0.353125
vt 0.794729 0.668890
vt 0.793293 0.651045
vt 0.859754 0.651056
vt 0.705271 0.581109
vt 0.706707 0.598955
vt 0.640246 0.598944
vt 0.647495 0.669300
vt 0.629273 0.651134
vt 0.695764 0.651122
vt 0.705700 0.522495
vt 0.723866 0.504273
vt 0.723878 0.570764
vt 0.794300 0.727505
vt 0.776134 0.745727
vt 0.776122 0.679236
vt 0.728125 0.500000
vt 0.728125 0.582042
vt 0.728125 0.582042
vt 0.728125 0.500000
vt 0.792958 0.646875
vt 0.875000 0.646875
vt 0.875000 0.646875
vt 0.792958 0.646875
vt 0.771875 0.582042
vt 0.771875 0.500000
vt 0.771875 0.500000
vt 0.771875 0.582042
vt 0.875000 0.603125
vt 0.792958 0.603125
vt 0.792958 0.603125
vt 0.875000 0.603125
vt 0.706110 0.669729
vt 0.723956 0.668293
vt 0.723944 0.734754
vt 0.771875 0.750000
vt 0.771875 0.667958
vt 0.771875 0.667958
vt 0.771875 0.750000
vt 0.852505 0.580700
vt 0.870727 0.598866
vt 0.804236 0.598878
vt 0.706813 0.580826
vt 0.713547 0.598491
vt 0.706999 0.598902
vt 0.706219 0.581219
vt 0.722338 0.597338
vt 0.713436 0.598565
vt 0.705826 0.581813
vt 0.723491 0.588547
vt 0.722264 0.597449
vt 0.706110 0.580271
vt 0.723955 0.581707
vt 0.723544 0.588257
vt 0.772087 0.659890
vt 0.771875 0.659890
vt 0.771875 0.646875
vt 0.772689 0.647689
vt 0.794174 0.668187
vt 0.776509 0.661453
vt 0.777736 0.652551
vt 0.793781 0.668781
vt 0.777662 0.652662
vt 0.786565 0.651435
vt 0.793187 0.669174
vt 0.786453 0.651509
vt 0.793001 0.651098
vt 0.794174 0.581813
vt 0.776509 0.588547
vt 0.776098 0.581999
vt 0.793781 0.581219
vt 0.777662 0.597338
vt 0.776435 0.588436
vt 0.793187 0.580826
vt 0.786453 0.598491
vt 0.777551 0.597264
vt 0.794729 0.581110
vt 0.793293 0.598955
vt 0.786743 0.598544
vt 0.715110 0.647087
vt 0.715110 0.646875
vt 0.728125 0.646875
vt 0.727311 0.647689
vt 0.706813 0.669174
vt 0.713548 0.651509
vt 0.722449 0.652736
vt 0.706219 0.668781
vt 0.722338 0.652662
vt 0.723565 0.661565
vt 0.705826 0.668187
vt 0.723491 0.661453
vt 0.723902 0.668001
vt 0.625000 0.500000
vt 0.625000 0.595587
vt 0.625000 0.396875
vt 0.625000 0.404413
vt 0.625000 0.250000
vt 0.625000 0.345587
vt 0.625000 0.353125
vt 0.625000 0.146875
vt 0.625000 0.154413
vt 0.625000 0.896875
vt 0.625000 0.904413
vt 0.625000 1.000000
vt 0.625000 0.654413
vt 0.625000 0.750000
vt 0.625000 0.845587
vt 0.625000 0.853125
vt 0.625000 0.000000
vt 0.625000 0.095587
vt 0.625000 0.103125
vt 0.715110 0.603125
vt 0.715110 0.602913
vt 0.727311 0.602311
vt 0.728125 0.603125
vt 0.727913 0.590110
vt 0.728125 0.590110
vt 0.793891 0.669729
vt 0.776045 0.668293
vt 0.776456 0.661743
vt 0.784890 0.646875
vt 0.784890 0.647087
vt 0.772087 0.590110
vt 0.771875 0.590110
vt 0.772689 0.602311
vt 0.771875 0.603125
vt 0.784890 0.602913
vt 0.784890 0.603125
vt 0.705271 0.668890
vt 0.706707 0.651045
vt 0.713257 0.651456
vt 0.728125 0.659890
vt 0.727913 0.659890
vt 0.647481 0.727519
vt 0.629270 0.662192
vt 0.705700 0.727505
vt 0.723866 0.745727
vt 0.720587 0.750000
vt 0.852505 0.669300
vt 0.870727 0.651134
vt 0.875000 0.654413
vt 0.875000 0.750000
vt 0.647481 0.522481
vt 0.720587 0.500000
vt 0.712808 0.504270
vt 0.794300 0.522495
vt 0.776134 0.504273
vt 0.779413 0.500000
vt 0.875000 0.500000
vt 0.852519 0.522481
vt 0.875000 0.595587
vt 0.870730 0.587808
vt 0.852519 0.727519
vt 0.779413 0.750000
vt 0.787192 0.745730
vt 0.637549 0.603125
vt 0.628675 0.603125
vt 0.625000 0.603125
vt 0.728125 0.503675
vt 0.728125 0.500000
vt 0.728125 0.512549
vt 0.625000 0.346087
vt 0.625000 0.353125
vt 0.625000 0.146875
vt 0.625000 0.153913
vt 0.625000 0.896875
vt 0.625000 0.903913
vt 0.628675 0.646875
vt 0.625000 0.646875
vt 0.637549 0.646875
vt 0.728125 0.737451
vt 0.728125 0.746325
vt 0.728125 0.750000
vt 0.625000 0.096087
vt 0.625000 0.103125
vt 0.714659 0.602620
vt 0.706599 0.603125
vt 0.725798 0.600798
vt 0.727620 0.589659
vt 0.728125 0.582042
vt 0.771875 0.667958
vt 0.772380 0.660341
vt 0.774202 0.649202
vt 0.785341 0.647380
vt 0.793401 0.646875
vt 0.772380 0.589660
vt 0.771875 0.581599
vt 0.774202 0.600798
vt 0.785341 0.602620
vt 0.792958 0.603125
vt 0.707042 0.646875
vt 0.714660 0.647380
vt 0.725798 0.649202
vt 0.727620 0.660341
vt 0.728125 0.668401
vt 0.871325 0.646875
vt 0.771875 0.746325
vt 0.771875 0.668844
vt 0.706156 0.646875
vt 0.728125 0.581156
vt 0.771875 0.503675
vt 0.871325 0.603125
vt 0.793844 0.603125
vt 0.647495 0.580700
vt 0.629273 0.598866
vt 0.516706 0.603125
vt 0.749473 0.603125
vt 0.778050 0.646875
vt 0.773480 0.646875
vt 0.771875 0.646875
vt 0.771875 0.625527
vt 0.728125 0.653050
vt 0.728125 0.648480
vt 0.728125 0.646875
vt 0.749473 0.646875
vt 0.721950 0.603125
vt 0.726520 0.603125
vt 0.728125 0.603125
vt 0.728125 0.624473
vt 0.771875 0.596950
vt 0.771875 0.601520
vt 0.771875 0.603125
vt 0.750527 0.603125
vt 0.771875 0.624473
vt 0.728125 0.625527
vt 0.750527 0.646875
vn -0.9952 0.0000 -0.0980
vn -1.0000 0.0000 0.0000
vn -0.9831 0.1832 0.0000
vn -0.9773 0.1872 -0.0994
vn 0.0000 0.0000 1.0000
vn 1.0000 -0.0000 0.0000
vn -0.0980 -0.0000 0.9952
vn 0.0000 0.1832 0.9831
vn -0.0994 0.1872 0.9773
vn 0.0000 1.0000 0.0000
vn 0.2135 0.9768 0.0165
vn 0.2076 0.9782 -0.0011
vn 0.0000 0.0000 -1.0000
vn -0.0980 0.0000 -0.9952
vn -0.0994 0.1872 -0.9773
vn 0.0000 0.1832 -0.9831
vn 0.0165 0.9768 -0.2135
vn -0.0011 0.9782 -0.2076
vn -0.0165 0.9768 0.2135
vn 0.0011 0.9782 0.2076
vn 0.0011 0.9782 -0.2076
vn -0.0165 0.9768 -0.2135
vn -0.2076 0.9782 -0.0011
vn -0.2135 0.9768 0.0165
vn 0.2076 0.9782 0.0011
vn 0.2135 0.9768 -0.0165
vn -0.9952 -0.0000 0.0980
vn -0.9773 0.1872 0.0994
vn 0.0980 0.0000 -0.9952
vn 0.0994 0.1872 -0.9773
vn 0.9952 -0.0000 0.0980
vn 0.9831 0.1832 -0.0000
vn 0.9773 0.1872 0.0994
vn 0.0980 0.0000 0.9952
vn 0.0994 0.1872 0.9773
vn -0.2135 0.9768 -0.0165
vn -0.2076 0.9782 0.0011
vn 0.9952 0.0000 -0.0980
vn 0.9773 0.1872 -0.0994
vn -0.0011 0.9782 0.2076
vn 0.0165 0.9768 0.2135
vn -0.0745 0.9776 0.1971
vn -0.1432 0.9793 0.1432
vn -0.1971 0.9776 0.0745
vn 0.9038 0.1989 -0.3788
vn 0.9239 0.0000 -0.3827
vn 0.7071 0.0000 -0.7071
vn 0.6921 0.2053 -0.6921
vn 0.1971 0.9776 -0.0745
vn 0.1432 0.9793 -0.1432
vn 0.0745 0.9776 -0.1971
vn 0.1971 0.9776 0.0745
vn 0.1432 0.9793 0.1432
vn 0.0745 0.9776 0.1971
vn -0.3788 0.1989 -0.9038
vn -0.3827 0.0000 -0.9239
vn -0.7071 0.0000 -0.7071
vn -0.6921 0.2053 -0.6921
vn -0.0745 0.9776 -0.1971
vn -0.1432 0.9793 -0.1432
vn -0.1971 0.9776 -0.0745
vn -0.3827 -0.0000 0.9239
vn -0.3788 0.1989 0.9038
vn -0.6921 0.2053 0.6921
vn -0.7071 -0.0000 0.7071
vn -0.9038 0.1989 0.3788
vn -0.9239 -0.0000 0.3827
vn 0.3827 0.0000 -0.9239
vn 0.3788 0.1989 -0.9038
vn 0.9038 0.1989 0.3788
vn 0.9239 0.0000 0.3827
vn 0.6921 0.2053 0.6921
vn 0.7071 0.0000 0.7071
vn 0.3788 0.1989 0.9038
vn 0.3827 0.0000 0.9239
vn -0.9239 0.0000 -0.3827
vn -0.9038 0.1989 -0.3788
vn 0.0074 0.9826 -0.1858
vn -0.1858 0.9826 0.0074
vn -0.0074 0.9826 -0.1858
vn -0.1858 0.9826 -0.0074
vn 0.1858 0.9826 -0.0074
vn -0.0074 0.9826 0.1858
vn 0.1858 0.9826 0.0074
vn 0.0110 0.9240 0.3823
vn 0.0074 0.9826 0.1858
vn 1.0000 0.0001 0.0001
vn -0.3823 0.9240 -0.0110
vn 0.3823 0.9240 -0.0110
vn -1.0000 0.0001 0.0001
vn -0.0110 0.9240 0.3823
vn 0.3823 0.9240 0.0110
vn 1.0000 0.0001 -0.0001
vn 0.0110 0.9240 -0.3823
vn -0.3823 0.9240 0.0110
vn -0.0110 0.9240 -0.3823
vn -1.0000 0.0001 -0.0001
vn -0.1462 0.9305 0.3358
vn -0.0442 0.9195 0.3905
vn -0.0837 0.3704 0.9251
vn -0.3413 0.3977 0.8517
vn -0.2512 0.9348 0.2512
vn -0.6445 0.4115 0.6445
vn -0.3358 0.9305 0.1462
vn -0.8517 0.3977 0.3413
vn -0.3905 0.9195 0.0442
vn -0.9251 0.3704 0.0837
vn 0.3905 0.9195 -0.0442
vn 0.3358 0.9305 -0.1462
vn 0.8517 0.3977 -0.3413
vn 0.9251 0.3704 -0.0837
vn 0.2512 0.9348 -0.2512
vn 0.6445 0.4115 -0.6445
vn 0.1462 0.9305 -0.3358
vn 0.3413 0.3977 -0.8517
vn 0.0442 0.9195 -0.3905
vn 0.0837 0.3704 -0.9251
vn 0.3358 0.9305 0.1462
vn 0.3905 0.9195 0.0442
vn 0.9251 0.3704 0.0837
vn 0.8517 0.3977 0.3413
vn 0.2512 0.9348 0.2512
vn 0.6445 0.4115 0.6445
vn 0.1462 0.9305 0.3358
vn 0.3413 0.3977 0.8517
vn 0.0442 0.9195 0.3905
vn 0.0837 0.3704 0.9251
vn -0.0442 0.9195 -0.3905
vn -0.1462 0.9305 -0.3358
vn -0.3413 0.3977 -0.8517
vn -0.0837 0.3704 -0.9251
vn -0.2512 0.9348 -0.2512
vn -0.6445 0.4115 -0.6445
vn -0.3358 0.9305 -0.1462
vn -0.8517 0.3977 -0.3413
vn -0.3905 0.9195 -0.0442
vn -0.9251 0.3704 -0.0837
vn -0.0000 0.3603 -0.9329
vn 0.9329 0.3603 0.0000
vn -0.9329 0.3603 0.0000
vn 0.0000 0.3603 0.9329
vn 0.0000 -1.0000 0.0000
usemtl Brown
s 1
f 31/1/1 11/2/2 75/3/3 139/4/4
s 2
f 13/5/5 12/6/5 1/7/5 5/8/5
s 3
f 19/9/6 17/10/6 3/11/6 8/12/6
s 4
f 7/13/6 4/14/6 18/15/6 19/16/6
s 5
f 36/17/7 18/15/5 51/18/8 82/19/9
s 6
f 5/20/2 1/21/2 15/22/2 20/23/2
s 7
f 20/24/2 16/25/2 2/26/2 6/27/2
s 8
f 23/28/10 113/29/11 58/30/12
s 9
f 17/10/13 32/31/14 131/32/15 70/33/16
s 10
f 8/12/5 3/11/5 11/34/5 13/35/5
s 11
f 14/36/13 10/37/13 4/14/13 7/13/13
s 12
f 6/27/13 2/26/13 9/38/13 14/39/13
s 14
f 12/6/5 13/35/5 11/34/5
s 15
f 10/37/13 14/39/13 9/38/13
s 16
f 21/40/10 110/41/17 78/42/18
s 17
f 24/43/10 83/44/19 50/45/20
s 18
f 22/46/10 71/47/21 130/48/22
s 19
f 16/25/2 20/23/2 15/22/2
s 20
f 17/10/6 19/16/6 18/15/6
s 21
f 24/49/10 55/50/23 94/51/24
s 22
f 21/52/10 67/53/25 100/54/26
s 23
f 10/55/2 37/56/27 95/57/28 54/58/3
s 24
f 25/59/29 15/60/13 79/61/16 109/62/30
s 25
f 41/63/31 9/64/6 59/65/32 112/66/33
s 26
f 16/67/5 42/68/34 125/69/35 62/70/8
s 29
f 22/71/10 140/72/36 74/73/37
s 30
f 12/74/6 26/75/38 101/76/39 66/77/32
s 31
f 23/78/10 63/79/40 124/80/41
s 36
f 24/81/10 85/82/42 83/83/19
s 37
f 24/84/10 88/85/43 85/86/42
s 38
f 24/87/10 91/88/44 88/89/43
s 39
f 24/90/10 94/91/24 91/92/44
s 40
f 97/93/45 30/94/46 29/95/47 103/96/48
s 41
f 21/97/10 98/98/49 104/99/50
s 42
f 21/100/10 104/101/50 107/102/51
s 43
f 21/103/10 107/104/51 110/105/17
s 44
f 23/106/10 115/107/52 113/108/11
s 45
f 23/109/10 118/110/53 115/111/52
s 46
f 23/112/10 121/113/54 118/114/53
s 47
f 23/115/10 124/116/41 121/117/54
s 48
f 127/118/55 35/119/56 34/120/57 133/121/58
s 49
f 22/122/10 128/123/59 134/124/60
s 50
f 22/125/10 134/126/60 137/127/61
s 51
f 22/128/10 137/129/61 140/130/36
s 57
f 18/15/6 4/14/6 46/131/6 52/132/6 51/18/6
s 58
f 4/14/13 10/37/13 54/133/13 56/134/13 46/131/13
s 59
f 9/38/13 2/26/13 47/135/13 60/136/13 59/137/13
s 60
f 2/26/2 16/25/2 62/138/2 64/139/2 47/135/2
s 61
f 1/7/5 12/6/5 66/140/5 68/141/5 48/142/5
s 62
f 3/11/6 17/10/6 70/33/6 72/143/6 49/144/6
s 63
f 11/34/5 3/11/5 49/144/5 76/145/5 75/146/5
s 64
f 15/22/2 1/21/2 48/147/2 80/148/2 79/149/2
s 65
f 38/150/62 86/151/63 89/152/64 39/153/65
s 66
f 39/153/65 89/152/64 92/154/66 40/155/67
s 67
f 40/155/67 92/154/66 95/57/28 37/56/27
s 68
f 21/156/10 100/157/26 98/158/49
s 69
f 101/76/39 26/75/38 30/94/46 97/93/45
s 70
f 103/96/48 29/95/47 28/159/68 106/160/69
s 71
f 106/160/69 28/159/68 25/59/29 109/62/30
s 72
f 41/63/31 112/66/33 116/161/70 43/162/71
s 73
f 43/162/71 116/161/70 119/163/72 44/164/73
s 74
f 44/164/73 119/163/72 122/165/74 45/166/75
s 75
f 45/166/75 122/165/74 125/69/35 42/68/34
s 76
f 22/167/10 130/168/22 128/169/59
s 77
f 131/32/15 32/31/14 35/119/56 127/118/55
s 78
f 133/121/58 34/120/57 33/170/76 136/171/77
s 79
f 136/171/77 33/170/76 31/1/1 139/4/4
s 80
f 36/17/7 82/19/9 86/151/63 38/150/62
s 81
f 22/172/10 49/144/10 72/143/78 71/173/21
s 82
f 22/174/10 74/175/37 76/176/79 49/144/10
s 83
f 21/177/10 78/178/18 80/179/80 48/180/10
s 84
f 24/181/10 46/131/10 56/182/81 55/183/23
s 85
f 23/184/10 58/185/12 60/186/82 47/187/10
s 86
f 23/188/10 47/187/10 64/189/83 63/190/40
s 87
f 21/191/10 48/180/10 68/192/84 67/193/25
s 88
f 50/194/20 53/195/85 52/196/86
s 89
f 53/195/87 51/18/6 52/196/6
s 90
f 54/58/13 57/197/13 56/198/13
s 91
f 57/197/88 55/199/23 56/198/81
s 92
f 58/200/12 61/201/89 60/136/82
s 93
f 61/201/13 59/137/13 60/136/13
s 94
f 62/138/2 65/202/90 64/139/2
s 95
f 65/202/91 63/203/40 64/139/83
s 96
f 66/140/5 69/204/5 68/141/5
s 97
f 69/204/92 67/205/25 68/141/84
s 98
f 70/33/6 73/206/93 72/207/6
s 99
f 73/206/94 71/208/21 72/207/78
s 100
f 74/209/37 77/210/95 76/211/79
s 101
f 77/210/5 75/3/5 76/211/5
s 102
f 78/212/18 81/213/96 80/148/80
s 103
f 81/213/97 79/149/2 80/148/2
s 104
f 83/83/19 85/82/42 87/214/98 84/215/99
s 105
f 84/215/100 87/214/101 86/151/63 82/19/9
s 106
f 85/86/42 88/85/43 90/216/102 87/214/98
s 107
f 87/214/101 90/216/103 89/152/64 86/151/63
s 108
f 88/89/43 91/88/44 93/217/104 90/216/102
s 109
f 90/216/103 93/217/105 92/154/66 89/152/64
s 110
f 91/92/44 94/91/24 96/218/106 93/217/104
s 111
f 93/217/105 96/218/107 95/57/28 92/154/66
s 112
f 98/158/49 100/157/26 102/219/108 99/220/109
s 113
f 99/220/110 102/219/111 101/76/39 97/93/45
s 114
f 104/99/50 98/98/49 99/220/109 105/221/112
s 115
f 105/221/113 99/220/110 97/93/45 103/96/48
s 116
f 107/102/51 104/101/50 105/221/112 108/222/114
s 117
f 108/222/115 105/221/113 103/96/48 106/160/69
s 118
f 110/105/17 107/104/51 108/222/114 111/223/116
s 119
f 111/223/117 108/222/115 106/160/69 109/62/30
s 120
f 113/108/11 115/107/52 117/224/118 114/225/119
s 121
f 114/225/120 117/224/121 116/161/70 112/66/33
s 122
f 115/111/52 118/110/53 120/226/122 117/224/118
s 123
f 117/224/121 120/226/123 119/163/72 116/161/70
s 124
f 118/114/53 121/113/54 123/227/124 120/226/122
s 125
f 120/226/123 123/227/125 122/165/74 119/163/72
s 126
f 121/117/54 124/116/41 126/228/126 123/227/124
s 127
f 123/227/125 126/228/127 125/69/35 122/165/74
s 128
f 128/169/59 130/168/22 132/229/128 129/230/129
s 129
f 129/230/130 132/229/131 131/32/15 127/118/55
s 130
f 134/124/60 128/123/59 129/230/129 135/231/132
s 131
f 135/231/133 129/230/130 127/118/55 133/121/58
s 132
f 137/127/61 134/126/60 135/231/132 138/232/134
s 133
f 138/232/135 135/231/133 133/121/58 136/171/77
s 134
f 140/130/36 137/129/61 138/232/134 141/233/136
s 135
f 141/233/137 138/232/135 136/171/77 139/4/4
s 136
f 78/42/18 110/41/17 111/223/116 81/234/96
s 137
f 81/234/138 111/223/117 109/62/30 79/61/16
s 138
f 100/54/26 67/53/25 69/235/92 102/236/108
s 139
f 102/236/111 69/235/139 66/77/32 101/76/39
s 140
f 130/48/22 71/47/21 73/206/94 132/237/128
s 141
f 132/237/131 73/206/138 70/33/16 131/32/15
s 142
f 74/73/37 140/72/36 141/233/136 77/210/95
s 143
f 77/210/140 141/233/137 139/4/4 75/3/3
s 144
f 50/45/20 83/44/19 84/215/99 53/195/85
s 145
f 53/195/141 84/215/100 82/19/9 51/18/8
s 146
f 94/51/24 55/50/23 57/197/88 96/238/106
s 147
f 96/238/107 57/197/140 54/58/3 95/57/28
s 148
f 58/30/12 113/29/11 114/225/119 61/239/89
s 149
f 61/239/139 114/225/120 112/66/33 59/65/32
s 150
f 124/80/41 63/79/40 65/240/91 126/241/126
s 151
f 126/241/127 65/240/141 62/70/8 125/69/35
s 152
f 24/242/10 50/243/20 52/132/86 46/131/10
s 153
f 142/244/142 20/23/142 6/27/142 14/39/142
s 154
f 19/16/142 142/244/142 14/39/142 7/13/142
s 155
f 13/35/142 5/8/142 20/23/142 142/244/142
s 156
f 8/12/142 13/35/142 142/244/142 19/16/142
usemtl Beige
s 13
f 26/75/10 12/74/10 11/2/10 31/1/10
s 27
f 32/31/10 17/10/10 18/15/10 36/17/10
s 28
f 41/63/10 27/245/10 37/56/10
s 32
f 25/59/10 28/159/10 29/246/10 30/247/10 26/248/10 27/249/10
s 33
f 31/1/10 33/170/10 34/250/10 35/251/10 32/252/10 27/253/10
s 34
f 36/17/10 38/150/10 39/254/10 40/255/10 37/256/10 27/257/10
s 35
f 41/63/10 43/162/10 44/258/10 45/259/10 42/260/10 27/261/10
s 52
f 25/59/10 27/262/10 42/68/10
s 53
f 27/263/10 32/31/10 36/17/10
s 54
f 27/264/10 26/75/10 31/1/10
s 55
f 15/60/10 25/59/10 42/68/10 16/67/10
s 56
f 9/64/10 41/63/10 37/56/10 10/55/10
