# Blender v2.80 (sub 75) OBJ File: 'TilesExport.blend'
# www.blender.org
mtllib square_sand_waterInnerCorner_noSides.mtl
o square_sand_waterInnerCorner_noSides_Cube.476
v -1.000000 0.000000 1.000000
v -1.000000 0.000000 -1.000000
v 1.000000 0.000000 1.000000
v 1.000000 0.000000 -1.000000
v -0.345075 0.500000 0.345075
v -0.976450 0.500000 -0.976450
v 0.976450 0.500000 -0.976450
v 0.976450 0.500000 0.976450
v -1.000000 0.541184 -1.000000
v 1.000000 0.541184 -1.000000
v 1.000000 0.541184 1.000000
v -1.000000 0.458816 -1.000000
v 1.000000 0.458816 -1.000000
v 1.000000 0.458816 1.000000
v -1.000000 0.458816 1.000000
v 0.000000 0.000000 -1.000000
v 0.000000 0.458816 -1.000000
v 0.000000 0.541184 -1.000000
v 0.000000 0.000000 1.000000
v 0.000000 0.458816 1.000000
v 0.000000 0.541184 1.000000
v 0.000000 0.500000 -0.976450
v -1.000000 0.000000 0.000000
v 1.000000 0.000000 0.000000
v -1.000000 0.458816 0.000000
v -1.000000 0.541184 0.000000
v 1.000000 0.458816 0.000000
v 1.000000 0.541184 0.000000
v 0.976450 0.500000 0.000000
v 0.000000 0.000000 0.000000
v 0.000000 1.000000 -1.000000
v -1.000000 1.000000 -1.000000
v 1.000000 1.000000 1.000000
v 1.000000 1.000000 0.000000
v 1.000000 1.000000 -1.000000
v -1.000000 0.900000 0.000000
v -1.000000 0.900000 1.000000
v 0.000000 0.900000 1.000000
v 0.000000 0.900000 0.000000
v -0.304633 0.541184 0.000000
v 0.000000 0.541184 0.304633
v -0.188055 0.541184 0.023189
v -0.089225 0.541184 0.089225
v -0.023189 0.541184 0.188055
v 0.152316 1.000000 -0.152316
v -0.976450 0.500000 0.000000
v -0.976450 0.500000 0.976450
v 0.000000 0.500000 0.976450
v -0.304633 0.500000 0.000000
v -0.188055 0.500000 0.023189
v -0.089225 0.500000 0.089225
v -0.023189 0.500000 0.188055
v 0.000000 0.500000 0.304633
v 0.061909 1.000000 1.000000
v 0.000000 0.938092 1.000000
v 0.018133 0.981867 1.000000
v -1.000000 0.938092 0.000000
v -1.000000 1.000000 -0.061909
v -1.000000 0.981867 -0.018133
v -0.298535 1.000000 -0.061909
v -0.304633 0.938092 0.000000
v -0.302847 0.981867 -0.018133
v 0.000000 0.938092 0.304633
v 0.061909 1.000000 0.298535
v 0.018133 0.981867 0.302847
v -0.188055 0.938092 0.023189
v -0.163899 1.000000 -0.035128
v -0.180980 0.981867 0.006108
v -0.089225 0.938092 0.089225
v -0.044591 1.000000 0.044591
v -0.076152 0.981867 0.076152
v -0.023189 0.938092 0.188055
v 0.035128 1.000000 0.163899
v -0.006108 0.981867 0.180980
vt 0.000000 0.000000
vt 0.000000 0.000000
vt 0.000000 0.000000
vt 0.000000 0.000000
vt 0.000000 0.000000
vt 0.000000 0.000000
vt 0.000000 0.000000
vt 0.000000 0.000000
vt 0.000000 0.000000
vt 0.000000 0.000000
vt 0.000000 0.000000
vt 0.000000 0.000000
vt 0.000000 0.000000
vt 0.000000 0.000000
vt 0.500000 0.500000
vt 0.500000 0.375000
vt 0.516706 0.375000
vt 0.516706 0.500000
vt 0.500000 0.250000
vt 0.500000 0.125000
vt 0.516706 0.125000
vt 0.516706 0.250000
vt 0.516706 0.750000
vt 0.516706 0.875000
vt 0.500000 0.875000
vt 0.500000 0.750000
vt 0.516706 0.625000
vt 0.500000 0.625000
vt 0.516706 0.472684
vt 0.516706 0.472684
vt 0.516706 0.125000
vt 0.516706 0.625000
vt 0.516706 0.750000
vt 0.516706 0.125756
vt 0.516706 0.132739
vt 0.516706 0.250000
vt 0.516706 0.500000
vt 0.516706 0.375000
vt 0.516706 0.625000
vt 0.516706 0.483471
vt 0.516706 0.701158
vt 0.516706 0.875000
vt 0.516706 0.701158
vt 0.516706 0.691895
vt 0.516706 0.867261
vt 0.516706 0.467397
vt 0.516706 0.548842
vt 0.516706 0.530973
vt 0.516706 0.530973
vt 0.516706 0.672014
vt 0.516706 0.672014
vt 0.516706 0.625000
vt 0.516706 0.625000
vt 0.516706 0.697253
vt 0.516706 0.561797
vt 0.516706 0.600928
vt 0.516706 0.530973
vt 0.516706 0.472684
vt 0.516706 0.501414
vt 0.516706 0.450274
vt 0.516706 0.625000
vt 0.516706 0.580388
vt 0.516706 0.672014
vt 0.516706 0.613406
vt 0.516706 0.701158
vt 0.516706 0.625000
vt 0.516706 0.630497
vt 0.516706 0.874244
vt 0.000000 0.000000
vt 0.000000 0.000000
vt 0.483294 0.875000
vt 0.500000 1.000000
vt 0.483294 1.000000
vt 0.483294 0.500000
vt 0.483294 0.625000
vt 0.483294 0.000000
vt 0.500000 0.000000
vt 0.483294 0.125000
vt 0.483294 0.375000
vt 0.483294 0.750000
vt 0.375000 0.875000
vt 0.375000 1.000000
vt 0.250000 0.625000
vt 0.125000 0.625000
vt 0.125000 0.500000
vt 0.250000 0.500000
vt 0.483294 0.250000
vt 0.375000 0.125000
vt 0.375000 0.000000
vt 0.375000 0.625000
vt 0.375000 0.750000
vt 0.375000 0.375000
vt 0.375000 0.500000
vt 0.375000 0.250000
vt 0.250000 0.750000
vt 0.125000 0.750000
vt 0.516706 0.625000
vt 0.516706 0.125000
vt 0.516706 1.000000
vt 0.516706 0.875000
vn 0.0000 0.0000 1.0000
vn -0.1951 -0.0000 0.9808
vn -0.5556 -0.0000 0.8315
vn -0.8315 -0.0000 0.5556
vn -0.9808 -0.0000 0.1951
vn -1.0000 -0.0000 0.0000
vn 0.0000 -0.4964 -0.8681
vn 0.0000 -0.2568 -0.9665
vn 0.0000 -0.2125 -0.9772
vn -0.8681 -0.4964 0.0000
vn -0.9665 -0.2568 0.0000
vn -0.9772 -0.2125 0.0000
vn 0.0000 -0.2125 0.9772
vn 0.0000 -0.2568 0.9665
vn 0.0000 -0.4964 0.8681
vn 0.9772 -0.2124 0.0000
vn 0.9665 -0.2568 0.0000
vn 0.8681 -0.4964 0.0000
vn -0.0980 0.0000 0.9952
vn -0.0961 0.1983 0.9754
vn 0.0000 0.1951 0.9808
vn 1.0000 0.0000 0.0000
vn 0.0000 1.0000 0.0000
vn 0.0000 0.0000 -1.0000
vn 0.0000 0.9808 0.1951
vn -0.0179 0.9832 0.1816
vn -0.9952 0.0000 0.0980
vn -0.9808 0.1951 0.0000
vn -0.9754 0.1983 0.0961
vn -0.1816 0.9832 0.0179
vn -0.1951 0.9808 -0.0000
vn -0.3827 0.0000 0.9239
vn -0.3747 0.2034 0.9046
vn -0.9046 0.2034 0.3747
vn -0.9239 0.0000 0.3827
vn -0.6923 0.2034 0.6923
vn -0.7071 0.0000 0.7071
vn -0.1191 0.9857 0.1191
vn -0.1556 0.9857 0.0645
vn -0.3525 0.3891 0.8511
vn -0.0905 0.3843 0.9188
vn -0.0374 0.9245 0.3793
vn -0.1440 0.9265 0.3477
vn -0.0645 0.9857 0.1556
vn -0.6514 0.3891 0.6514
vn -0.2661 0.9265 0.2661
vn -0.8511 0.3891 0.3525
vn -0.3477 0.9265 0.1440
vn -0.9188 0.3843 0.0905
vn -0.3793 0.9245 0.0374
vn -0.3827 0.9239 0.0000
vn -0.9239 0.3827 0.0000
vn 0.0000 0.9239 0.3827
vn 0.0000 0.3827 0.9239
vn 0.0000 0.2568 0.9665
vn 0.0000 0.4964 0.8681
vn 0.0000 0.2125 0.9772
vn 0.9772 0.2124 0.0000
vn 0.8681 0.4964 0.0000
vn 0.9665 0.2568 0.0000
vn -0.9772 0.2125 0.0000
vn -0.8681 0.4964 0.0000
vn -0.9665 0.2568 0.0000
vn 0.0000 0.2568 -0.9665
vn 0.0000 0.4964 -0.8681
vn 0.0000 0.2125 -0.9772
vn 0.0000 -1.0000 0.0000
usemtl Beige
s off
f 40/1/1 26/2/1 46/3/1 49/4/1
f 40/1/2 49/4/2 50/5/2 42/6/2
f 42/6/3 50/5/3 51/7/3 43/8/3
f 43/8/4 51/7/4 52/9/4 44/10/4
f 44/10/5 52/9/5 53/11/5 41/12/5
f 53/11/6 48/13/6 21/14/6 41/12/6
s 1
f 7/15/7 22/16/7 18/17/8 10/18/9
s 2
f 6/19/10 46/20/10 26/21/11 9/22/12
s 5
f 9/22/9 18/17/8 22/16/7 6/19/7
s 6
f 11/23/13 21/24/14 48/25/15 8/26/15
s 7
f 10/18/16 28/27/17 29/28/18 7/15/18
s 15
f 8/26/18 29/28/18 28/27/17 11/23/16
s 27
f 26/21/1 40/29/19 61/30/20 57/31/21
s 28
f 11/23/16 28/27/17 34/32/22 33/33/22
s 29
f 9/22/12 26/21/11 57/31/6 59/34/6 58/35/6 32/36/6
s 30
f 35/37/23 31/38/23 45/39/23 34/32/23
s 31
f 18/17/8 9/22/9 32/36/24 31/38/24
s 32
f 28/27/17 10/18/16 35/37/22 34/32/22
s 33
f 32/36/23 58/35/25 60/40/26
s 34
f 41/41/27 21/24/6 55/42/28 63/43/29
s 35
f 10/18/9 18/17/8 31/38/24 35/37/24
s 37
f 33/33/23 64/44/30 54/45/31
s 38
f 31/38/23 32/36/23 60/46/26 45/47/23
s 39
f 61/30/20 40/29/19 42/48/32 66/49/33
s 40
f 72/50/34 44/51/35 41/41/27 63/43/29
s 41
f 69/52/36 43/53/37 44/51/35 72/50/34
s 42
f 34/32/23 45/39/23 64/54/30 33/33/23
s 50
f 45/47/23 70/55/38 73/56/39
s 51
f 66/49/33 42/48/32 43/53/37 69/52/36
s 52
f 61/30/20 66/49/33 68/57/40 62/58/41
s 53
f 62/58/42 68/57/43 67/59/44 60/60/26
s 54
f 66/49/33 69/52/36 71/61/45 68/57/40
s 55
f 68/57/43 71/62/46 70/55/38 67/59/44
s 56
f 69/52/36 72/50/34 74/63/47 71/61/45
s 57
f 71/62/46 74/64/48 73/56/39 70/55/38
s 58
f 72/50/34 63/43/29 65/65/49 74/63/47
s 59
f 74/64/48 65/66/50 64/67/30 73/56/39
s 60
f 54/45/31 64/44/30 65/65/50 56/68/51
s 61
f 56/68/52 65/65/49 63/43/29 55/42/28
s 62
f 60/40/26 58/35/25 59/34/53 62/58/42
s 63
f 62/58/41 59/34/54 57/31/21 61/30/20
s 64
f 21/24/14 11/23/13 33/33/1 54/45/1 56/68/1 55/42/1
s 65
f 67/59/44 70/55/38 45/47/23
s 66
f 64/67/30 45/47/23 73/56/39
s 67
f 60/60/26 67/59/44 45/47/23
usemtl BrownDark
s off
f 5/69/23 46/3/23 47/70/23
f 5/69/23 47/70/23 48/13/23
f 5/69/23 50/5/23 49/4/23
f 5/69/23 51/7/23 50/5/23
f 5/69/23 52/9/23 51/7/23
f 5/69/23 53/11/23 52/9/23
f 5/69/23 48/13/23 53/11/23
f 5/69/23 49/4/23 46/3/23
s 3
f 20/71/55 48/25/56 47/72/56 15/73/57
s 4
f 13/74/58 7/15/59 29/28/59 27/75/60
s 8
f 15/76/61 47/77/62 46/20/62 25/78/63
s 9
f 17/79/64 22/16/65 7/15/65 13/74/66
s 10
f 29/28/59 8/26/59 14/80/58 27/75/60
s 11
f 19/81/1 20/71/55 15/73/57 1/82/1
s 12
f 30/83/67 23/84/67 2/85/67 16/86/67
s 13
f 25/78/63 46/20/62 6/19/62 12/87/61
s 14
f 23/88/6 1/89/6 15/76/61 25/78/63
s 16
f 24/90/22 27/75/60 14/80/58 3/91/22
s 17
f 16/92/24 17/79/64 13/74/66 4/93/24
s 18
f 12/87/66 6/19/65 22/16/65 17/79/64
s 19
f 2/94/24 12/87/66 17/79/64 16/92/24
s 20
f 24/90/67 30/83/67 16/86/67 4/93/67
s 21
f 3/91/1 14/80/57 20/71/55 19/81/1
s 22
f 3/91/67 19/95/67 30/83/67 24/90/67
s 23
f 4/93/22 13/74/58 27/75/60 24/90/22
s 24
f 2/94/6 23/88/6 25/78/63 12/87/61
s 25
f 19/95/67 1/96/67 23/84/67 30/83/67
s 26
f 14/80/57 8/26/56 48/25/56 20/71/55
usemtl Water
s 36
f 39/97/23 36/98/23 37/99/23 38/100/23
