# Blender v2.80 (sub 75) OBJ File: 'TilesExport.blend'
# www.blender.org
mtllib square_forest_roadB_detail.mtl
o square_forest_roadB_detail_Cube.301
v -1.000000 0.000000 1.000000
v -1.000000 0.900000 1.000000
v -1.000000 0.000000 -1.000000
v -1.000000 0.900000 -1.000000
v 1.000000 0.000000 1.000000
v 1.000000 0.900000 1.000000
v 1.000000 0.000000 -1.000000
v 1.000000 0.900000 -1.000000
v -0.976450 0.500000 0.976450
v -0.976450 0.500000 -0.976450
v 0.976450 0.500000 -0.976450
v 0.976450 0.500000 0.976450
v -1.000000 0.541184 1.000000
v -1.000000 0.541184 -1.000000
v 1.000000 0.541184 -1.000000
v 1.000000 0.541184 1.000000
v -1.000000 0.458816 -1.000000
v 1.000000 0.458816 -1.000000
v 1.000000 0.458816 1.000000
v -1.000000 0.458816 1.000000
v -0.000002 0.000000 -1.000000
v -0.173207 0.900000 -1.000000
v 0.173203 0.900000 -1.000000
v -0.000002 0.000000 1.000000
v 0.173203 0.900000 1.000000
v -0.173207 0.900000 1.000000
v -0.000002 0.500000 0.976450
v -0.000002 0.500000 -0.976450
v -0.000002 0.541184 1.000000
v -0.000002 0.541184 -1.000000
v -0.000002 0.458816 -1.000000
v -0.000002 0.458816 1.000000
v 1.000000 1.000000 -1.000000
v -1.000000 1.000000 -1.000000
v -1.000000 1.000000 1.000000
v 1.000000 1.000000 1.000000
v -0.173207 0.939563 1.000000
v -0.233644 1.000000 1.000000
v -0.190909 0.982298 1.000000
v 0.233640 1.000000 1.000000
v 0.173203 0.939563 1.000000
v 0.190905 0.982298 1.000000
v -0.233644 1.000000 -1.000000
v -0.173207 0.939563 -1.000000
v -0.190909 0.982298 -1.000000
v 0.173203 0.939563 -1.000000
v 0.233640 1.000000 -1.000000
v 0.190905 0.982298 -1.000000
vt 0.516706 0.853125
vt 0.500000 0.852613
vt 0.500000 0.750000
vt 0.516706 0.750000
vt 0.500000 0.250000
vt 0.500000 0.000000
vt 0.516706 0.000000
vt 0.516706 0.250000
vt 0.625000 0.353125
vt 0.625000 0.250000
vt 0.625000 0.250000
vt 0.625000 0.345587
vt 0.722917 0.450306
vt 0.625000 0.353125
vt 0.516706 0.896875
vt 0.625000 0.896875
vt 0.625000 1.000000
vt 0.516706 1.000000
vt 0.516706 0.500000
vt 0.625000 0.500000
vt 0.625000 0.750000
vt 0.625000 0.000000
vt 0.500000 0.397387
vt 0.516706 0.396875
vt 0.500000 0.500000
vt 0.500000 0.897387
vt 0.500000 1.000000
vt 0.516706 0.353125
vt 0.500000 0.352613
vt 0.625000 0.853125
vt 0.625000 0.396875
vt 0.625000 0.500000
vt 0.625000 0.750000
vt 0.625000 0.845587
vt 0.693750 0.783639
vt 0.625000 0.853125
vt 0.625000 0.896875
vt 0.722917 0.799694
vt 0.625000 0.904413
vt 0.625000 1.000000
vt 0.779413 0.750000
vt 0.779413 0.500000
vt 0.875000 0.500000
vt 0.875000 0.750000
vt 0.625000 0.396875
vt 0.693750 0.466361
vt 0.625000 0.404413
vt 0.720587 0.500000
vt 0.720587 0.750000
vt 0.625000 0.000000
vt 0.728125 0.500000
vt 0.728125 0.750000
vt 0.728125 0.750000
vt 0.728125 0.500000
vt 0.771875 0.750000
vt 0.771875 0.500000
vt 0.771875 0.500000
vt 0.771875 0.750000
vt 0.483294 0.500000
vt 0.483294 0.396875
vt 0.271875 0.500000
vt 0.375000 0.500000
vt 0.375000 0.750000
vt 0.271875 0.750000
vt 0.483294 0.750000
vt 0.483294 0.250000
vt 0.483294 0.353125
vt 0.483294 0.853125
vt 0.483294 0.000000
vt 0.375000 0.853125
vt 0.125000 0.500000
vt 0.228125 0.500000
vt 0.228125 0.750000
vt 0.125000 0.750000
vt 0.375000 0.896875
vt 0.483294 0.896875
vt 0.483294 1.000000
vt 0.375000 1.000000
vt 0.375000 0.250000
vt 0.375000 0.353125
vt 0.375000 0.000000
vt 0.375000 0.396875
vn 0.0000 -0.2568 0.9665
vn 0.0000 -0.4964 0.8681
vn 0.0000 -0.2125 0.9772
vn -0.8681 -0.4964 0.0000
vn -0.9772 -0.2125 0.0000
vn 0.0000 0.0000 -1.0000
vn 0.0000 0.0000 1.0000
vn 0.9772 -0.2125 0.0000
vn 1.0000 0.0000 0.0000
vn -1.0000 0.0000 0.0000
vn 0.0000 -0.4964 -0.8681
vn 0.0000 -0.2568 -0.9665
vn 0.0000 -0.2125 -0.9772
vn 0.8681 -0.4964 0.0000
vn 0.1951 0.9808 0.0000
vn 0.0000 1.0000 0.0000
vn -0.1951 0.9808 0.0000
vn -0.9808 0.1951 0.0000
vn -0.3827 0.9239 0.0000
vn -0.9239 0.3827 0.0000
vn 0.3827 0.9239 0.0000
vn 0.9239 0.3827 0.0000
vn 0.9808 0.1951 0.0000
vn 0.0000 0.2125 -0.9772
vn 0.0000 0.2568 -0.9665
vn 0.0000 0.4964 -0.8681
vn 0.0000 -1.0000 0.0000
vn 0.9772 0.2125 0.0000
vn 0.8681 0.4964 0.0000
vn 0.0000 0.2125 0.9772
vn 0.0000 0.4964 0.8681
vn 0.0000 0.2568 0.9665
vn -0.9772 0.2125 0.0000
vn -0.8681 0.4964 0.0000
usemtl Green
s 1
f 29/1/1 27/2/2 12/3/2 16/4/3
s 2
f 10/5/4 9/6/4 13/7/5 14/8/5
s 3
f 22/9/6 4/10/6 34/11/6 43/12/6 45/13/6 44/14/6
s 4
f 29/15/1 26/16/7 2/17/7 13/18/3
s 7
f 16/4/8 15/19/8 8/20/9 6/21/9
s 10
f 14/8/5 13/7/5 2/22/10 4/10/10
s 12
f 28/23/11 30/24/12 15/19/13 11/25/11
s 13
f 12/3/14 11/25/14 15/19/8 16/4/8
s 14
f 27/26/2 29/15/1 13/18/3 9/27/2
s 15
f 30/28/12 28/29/11 10/5/11 14/8/13
s 19
f 16/4/3 6/21/7 25/30/7 29/1/1
s 22
f 30/24/12 23/31/6 8/20/6 15/19/13
s 25
f 14/8/13 4/10/6 22/9/6 30/28/12
s 28
f 26/16/7 29/1/1 25/30/7
s 29
f 23/31/6 30/28/12 22/9/6
s 30
f 6/21/9 8/20/9 33/32/9 36/33/9
s 31
f 25/30/7 6/21/7 36/33/7 40/34/7 42/35/7 41/36/7
s 32
f 2/17/7 26/16/7 37/37/7 39/38/7 38/39/7 35/40/7
s 33
f 38/41/15 43/42/15 34/43/16 35/44/16
s 34
f 8/20/6 23/31/6 46/45/6 48/46/6 47/47/6 33/32/6
s 35
f 33/32/16 47/48/17 40/49/17 36/33/16
s 36
f 4/10/10 2/22/10 35/50/10 34/11/10
s 37
f 23/51/10 25/52/10 41/53/18 46/54/18
s 38
f 40/49/17 47/48/17 48/46/19 42/35/19
s 39
f 42/35/20 48/46/20 46/54/18 41/53/18
s 40
f 43/42/15 38/41/15 39/38/21 45/13/21
s 41
f 45/13/22 39/38/22 37/55/23 44/56/23
s 42
f 22/57/9 44/56/23 37/55/23 26/58/9
usemtl Beige
s 27
f 22/57/16 26/58/16 25/52/16 23/51/16
usemtl BrownDark
s 5
f 18/59/24 31/60/25 28/23/26 11/25/26
s 6
f 21/61/27 7/62/27 5/63/27 24/64/27
s 8
f 18/59/28 11/25/29 12/3/29 19/65/28
s 9
f 17/66/24 10/5/26 28/29/26 31/67/25
s 11
f 19/65/30 12/3/31 27/2/31 32/68/32
s 16
f 20/69/33 9/6/34 10/5/34 17/66/33
s 17
f 5/63/7 19/65/30 32/68/32 24/70/7
s 18
f 3/71/27 21/72/27 24/73/27 1/74/27
s 20
f 24/75/7 32/76/32 20/77/30 1/78/7
s 21
f 3/79/6 17/66/24 31/67/25 21/80/6
s 23
f 3/79/10 1/81/10 20/69/33 17/66/33
s 24
f 7/62/9 18/59/28 19/65/28 5/63/9
s 26
f 21/82/6 31/60/25 18/59/24 7/62/6
s 43
f 20/77/30 32/76/32 27/26/31 9/27/31
