# Blender v2.80 (sub 75) OBJ File: 'TilesExport.blend'
# www.blender.org
mtllib square_forest_roadA.mtl
o square_forest_roadA_Cube.319
v -1.000000 0.900000 1.000000
v -1.000000 0.900000 -1.000000
v 1.000000 0.900000 1.000000
v 1.000000 0.900000 -1.000000
v -1.000000 0.000000 1.000000
v -1.000000 0.000000 -1.000000
v 1.000000 0.000000 -1.000000
v 1.000000 0.000000 1.000000
v -0.000002 0.900000 -1.000000
v 0.173203 0.900000 1.000000
v -0.173207 0.900000 1.000000
v -0.000002 0.000000 1.000000
v -0.000002 0.000000 -1.000000
v -1.000000 0.900000 -0.000001
v 1.000000 0.900000 -0.000001
v 1.000000 0.000000 -0.000001
v -1.000000 0.000000 -0.000001
v -0.173207 0.900000 0.173203
v 0.173203 0.900000 0.173203
v -0.000002 1.000000 -1.000000
v 1.000000 1.000000 -0.000001
v -1.000000 1.000000 -0.000001
v 1.000000 1.000000 -1.000000
v -1.000000 1.000000 -1.000000
v -1.000000 1.000000 1.000000
v 1.000000 1.000000 1.000000
v 0.173203 0.900000 -0.022190
v 0.022188 0.900000 -0.173206
v 0.161708 0.900000 -0.079981
v 0.128972 0.900000 -0.128974
v 0.079979 0.900000 -0.161710
v -0.022191 0.900000 -0.173206
v -0.173207 0.900000 -0.022190
v -0.079983 0.900000 -0.161710
v -0.128976 0.900000 -0.128974
v -0.161712 0.900000 -0.079981
v -0.470334 1.000000 -0.448714
v 0.470333 1.000000 -0.448714
v -0.173207 0.939563 0.173203
v -0.228492 1.000000 0.161621
v -0.189400 0.982298 0.169811
v 0.228488 1.000000 0.161621
v 0.173203 0.939563 0.173203
v 0.189396 0.982298 0.169811
v -0.173207 0.939563 1.000000
v -0.228690 1.000000 1.000000
v -0.189458 0.982298 1.000000
v 0.228687 1.000000 1.000000
v 0.173203 0.939563 1.000000
v 0.189454 0.982298 1.000000
v -0.229194 1.000000 -0.093241
v -0.173207 0.939563 -0.022190
v -0.189221 0.982298 -0.045178
v -0.022191 0.939563 -0.173206
v -0.098993 1.000000 -0.223735
v -0.045908 0.982298 -0.187786
v -0.161712 0.939563 -0.079981
v -0.181861 0.982298 -0.081688
v -0.128976 0.939563 -0.128974
v -0.172548 1.000000 -0.172547
v -0.141738 0.982298 -0.141737
v -0.079983 0.939563 -0.161710
v -0.084329 0.982298 -0.180096
v 0.098990 1.000000 -0.223735
v 0.022188 0.939563 -0.173206
v 0.045904 0.982298 -0.187786
v 0.173203 0.939563 -0.022190
v 0.229190 1.000000 -0.093241
v 0.189217 0.982298 -0.045178
v 0.079979 0.939563 -0.161710
v 0.084325 0.982298 -0.180096
v 0.128972 0.939563 -0.128974
v 0.172544 1.000000 -0.172547
v 0.141734 0.982298 -0.141737
v 0.161708 0.939563 -0.079981
v 0.181857 0.982298 -0.081688
v -0.000002 0.000000 -0.000001
vt 0.625000 0.103125
vt 0.625000 0.000000
vt 0.625000 0.000000
vt 0.625000 0.103125
vt 0.516706 0.896875
vt 0.625000 0.896875
vt 0.625000 1.000000
vt 0.516706 1.000000
vt 0.516706 0.646875
vt 0.625000 0.646875
vt 0.625000 0.750000
vt 0.516706 0.750000
vt 0.516706 0.500000
vt 0.625000 0.500000
vt 0.625000 0.603125
vt 0.516706 0.603125
vt 0.625000 0.396875
vt 0.625000 0.396875
vt 0.625000 0.500000
vt 0.516706 0.000000
vt 0.516706 0.103125
vt 0.516706 0.146875
vt 0.625000 0.146875
vt 0.625000 0.250000
vt 0.516706 0.250000
vt 0.771875 0.622198
vt 0.771875 0.622198
vt 0.771391 0.614899
vt 0.771583 0.614899
vt 0.625000 0.603125
vt 0.625000 0.853125
vt 0.516706 0.853125
vt 0.516706 0.396875
vt 0.625000 0.353125
vt 0.516706 0.353125
vt 0.771875 0.584289
vt 0.756249 0.599722
vt 0.743751 0.599722
vt 0.728125 0.584289
vt 0.625000 0.646875
vt 0.625000 0.750000
vt 0.875000 0.646875
vt 0.778771 0.646875
vt 0.775341 0.618688
vt 0.790711 0.603125
vt 0.771875 0.500000
vt 0.625000 0.896875
vt 0.722917 0.799634
vt 0.625000 0.903795
vt 0.625000 1.000000
vt 0.721229 0.643950
vt 0.709289 0.603125
vt 0.724659 0.618688
vt 0.771875 0.646875
vt 0.771875 0.646875
vt 0.875000 0.500000
vt 0.875000 0.603125
vt 0.728125 0.500000
vt 0.770013 0.604987
vt 0.770750 0.604250
vt 0.625000 0.250000
vt 0.625000 0.353125
vt 0.728125 0.646875
vt 0.728125 0.750000
vt 0.728125 0.750000
vt 0.728125 0.646875
vt 0.625000 0.146875
vt 0.875000 0.750000
vt 0.778795 0.750000
vt 0.728125 0.622198
vt 0.728125 0.622198
vt 0.625000 0.846205
vt 0.693750 0.783699
vt 0.625000 0.853125
vt 0.760101 0.603418
vt 0.760101 0.603609
vt 0.752802 0.603125
vt 0.752802 0.603125
vt 0.739899 0.603609
vt 0.739899 0.603417
vt 0.747198 0.603125
vt 0.747198 0.603125
vt 0.775117 0.620152
vt 0.775324 0.609580
vt 0.775278 0.603125
vt 0.744561 0.599844
vt 0.735080 0.599676
vt 0.728125 0.599659
vt 0.729987 0.604987
vt 0.729250 0.604250
vt 0.728609 0.614899
vt 0.728418 0.614899
vt 0.721229 0.646875
vt 0.721205 0.750000
vt 0.771875 0.646661
vt 0.771875 0.750000
vt 0.728125 0.646875
vt 0.771875 0.615179
vt 0.771875 0.620995
vt 0.771875 0.603125
vt 0.771875 0.614899
vt 0.771875 0.608711
vt 0.760101 0.603125
vt 0.771875 0.604577
vt 0.775156 0.602709
vt 0.755331 0.603125
vt 0.771875 0.603628
vt 0.739899 0.603125
vt 0.745933 0.603125
vt 0.728125 0.603125
vt 0.733711 0.603125
vt 0.728125 0.614899
vt 0.729577 0.603125
vt 0.727347 0.599883
vt 0.728125 0.619792
vt 0.728125 0.615178
vt 0.729521 0.603125
vt 0.728603 0.603125
vt 0.728125 0.622198
vt 0.728125 0.646447
vt 0.752802 0.603125
vt 0.771875 0.750000
vt 0.516706 0.353125
vn -1.0000 0.0000 0.0000
vn 0.0000 0.0000 1.0000
vn 1.0000 0.0000 0.0000
vn 0.0000 0.0000 -1.0000
vn 0.9769 0.1969 0.0832
vn 0.9952 0.0000 0.0980
vn 0.9239 0.0000 0.3827
vn 0.8990 0.2149 0.3817
vn 0.0000 1.0000 0.0000
vn 0.0519 0.9877 0.1473
vn -0.0519 0.9877 0.1473
vn 0.2100 0.9777 -0.0001
vn 0.1412 0.9888 0.0481
vn -0.2100 0.9777 -0.0001
vn -0.1412 0.9888 0.0481
vn 0.9837 0.1799 0.0001
vn 0.7071 0.0000 0.7071
vn 0.6923 0.2034 0.6923
vn -0.9836 0.1804 0.0000
vn -0.9837 0.1799 0.0001
vn 0.2106 0.9776 0.0000
vn -0.9952 0.0000 0.0980
vn -0.9769 0.1969 0.0832
vn 0.3782 0.2094 0.9017
vn 0.3827 0.0000 0.9239
vn 0.0980 0.0000 0.9952
vn 0.0826 0.1820 0.9798
vn -0.3827 -0.0000 0.9239
vn -0.3782 0.2094 0.9017
vn -0.0826 0.1820 0.9798
vn -0.0980 -0.0000 0.9952
vn 0.1327 0.9821 0.1338
vn -0.1327 0.9821 0.1338
vn -0.7071 0.0000 0.7071
vn -0.6923 0.2034 0.6923
vn -0.9239 0.0000 0.3827
vn -0.8990 0.2149 0.3817
vn -0.2106 0.9776 0.0000
vn 0.4119 0.9112 0.0001
vn 0.4106 0.9118 -0.0002
vn 0.9353 0.3537 0.0002
vn 0.9349 0.3549 0.0000
vn 0.9836 0.1804 0.0000
vn -0.4106 0.9118 -0.0002
vn -0.4119 0.9112 0.0001
vn -0.9349 0.3549 0.0000
vn -0.9353 0.3537 0.0002
vn 0.8463 0.4131 0.3362
vn 0.9086 0.4017 0.1141
vn 0.3888 0.9211 0.0184
vn 0.3199 0.9361 0.1462
vn 0.6514 0.3891 0.6514
vn 0.2596 0.9295 0.2621
vn 0.3445 0.4006 0.8490
vn 0.1447 0.9319 0.3327
vn 0.1160 0.3775 0.9187
vn 0.0177 0.9071 0.4205
vn -0.3445 0.4006 0.8490
vn -0.1160 0.3775 0.9187
vn -0.0177 0.9071 0.4205
vn -0.1447 0.9319 0.3327
vn -0.6514 0.3891 0.6514
vn -0.2596 0.9295 0.2621
vn -0.8463 0.4131 0.3362
vn -0.3199 0.9361 0.1462
vn -0.9086 0.4017 0.1141
vn -0.3888 0.9211 0.0184
vn 0.0000 -1.0000 0.0000
usemtl Green
s 1
f 14/1/1 1/2/1 25/3/1 22/4/1
s 2
f 12/5/2 11/6/2 1/7/2 5/8/2
s 3
f 16/9/3 15/10/3 3/11/3 8/12/3
s 4
f 7/13/3 4/14/3 15/15/3 16/16/3
s 5
f 4/14/4 9/17/4 20/18/4 23/19/4
s 6
f 5/20/1 1/2/1 14/1/1 17/21/1
s 7
f 17/22/1 14/23/1 2/24/1 6/25/1
s 8
f 52/26/5 33/27/6 36/28/7 57/29/8
s 9
f 15/15/3 4/14/3 23/19/3 21/30/3
s 10
f 8/12/2 3/11/2 10/31/2 12/32/2
s 11
f 13/33/4 9/17/4 4/14/4 7/13/4
s 12
f 6/25/4 2/24/4 9/34/4 13/35/4
s 13
f 37/36/9 55/37/10 64/38/11 38/39/9
s 14
f 11/6/2 12/32/2 10/31/2
s 16
f 3/11/3 15/10/3 21/40/3 26/41/3
s 17
f 22/42/9 40/43/12 51/44/13 37/45/9
s 18
f 20/46/9 37/36/9 38/39/9
s 19
f 1/7/2 11/6/2 45/47/2 47/48/2 46/49/2 25/50/2
s 20
f 42/51/14 21/30/9 38/52/9 68/53/15
s 21
f 18/54/3 33/27/6 52/26/5 39/55/16
s 22
f 20/46/9 24/56/9 22/57/9 37/36/9
s 23
f 23/19/9 20/58/9 38/52/9 21/30/9
s 24
f 57/29/8 36/28/7 35/59/17 59/60/18
s 25
f 9/34/4 2/24/4 24/61/4 20/62/4
s 26
f 19/63/1 10/64/1 49/65/19 43/66/20
s 27
f 2/24/1 14/23/1 22/67/1 24/61/1
s 28
f 40/43/12 22/42/9 25/68/9 46/69/21
s 30
f 27/70/22 19/63/1 43/66/20 67/71/23
s 31
f 10/31/2 3/11/2 26/41/2 48/72/2 50/73/2 49/74/2
s 32
f 62/75/24 34/76/25 32/77/26 54/78/27
s 33
f 31/79/28 70/80/29 65/81/30 28/82/31
s 34
f 51/83/13 60/84/32 55/85/10 37/45/9
s 35
f 59/60/18 35/59/17 34/76/25 62/75/24
s 36
f 64/86/11 73/87/33 68/88/15 38/39/9
s 37
f 32/77/26 28/82/31 65/81/30 54/78/27
s 38
f 30/89/34 72/90/35 70/80/29 31/79/28
s 39
f 29/91/36 75/92/37 72/90/35 30/89/34
s 40
f 27/70/22 67/71/23 75/92/37 29/91/36
s 41
f 21/40/9 42/93/14 48/94/38 26/41/9
s 42
f 40/43/12 46/69/21 47/48/39 41/95/40
s 43
f 41/95/41 47/48/42 45/96/43 39/55/16
s 44
f 48/94/38 42/93/14 44/97/44 50/73/45
s 45
f 50/73/46 44/97/47 43/66/20 49/65/19
s 46
f 52/26/5 57/29/8 58/98/48 53/99/49
s 47
f 53/99/50 58/98/51 51/44/13
s 48
f 57/29/8 59/60/18 61/100/52 58/101/48
s 49
f 58/101/51 61/102/53 60/84/32 51/83/13
s 50
f 59/60/18 62/75/24 63/103/54 61/100/52
s 51
f 61/102/53 63/104/55 55/105/10 60/84/32
s 52
f 62/75/24 54/78/27 56/106/56 63/103/54
s 53
f 63/104/55 56/107/57 55/105/10
s 54
f 65/81/30 70/80/29 71/108/58 66/109/59
s 55
f 66/109/60 71/108/61 64/38/11
s 56
f 70/80/29 72/90/35 74/110/62 71/108/58
s 57
f 71/108/61 74/111/63 73/87/33 64/86/11
s 58
f 72/90/35 75/92/37 76/112/64 74/110/62
s 59
f 74/111/63 76/113/65 68/114/15 73/87/33
s 60
f 75/92/37 67/71/23 69/115/66 76/116/64
s 61
f 76/117/65 69/118/67 68/114/15
s 62
f 42/51/14 68/53/15 69/119/67 44/120/44
s 63
f 44/120/47 69/119/66 67/71/23 43/66/20
s 64
f 64/38/11 55/37/10 56/121/57 66/109/60
s 65
f 66/109/59 56/121/56 54/78/27 65/81/30
s 66
f 51/44/13 40/43/12 41/95/40 53/99/50
s 67
f 53/99/49 41/95/41 39/55/16 52/26/5
s 68
f 11/122/3 18/54/3 39/55/16 45/96/43
s 69
f 77/123/68 16/16/68 8/12/68 12/32/68
s 70
f 13/35/68 7/13/68 16/16/68 77/123/68
s 71
f 6/25/68 13/35/68 77/123/68 17/21/68
s 72
f 17/21/68 77/123/68 12/32/68 5/8/68
usemtl Beige
s 15
f 18/54/9 11/122/9 10/64/9 19/63/9
s 29
f 18/54/9 19/63/9 27/70/9 29/91/9 30/89/9 31/79/9 28/82/9 32/77/9 34/76/9 35/59/9 36/28/9 33/27/9
