# Blender v2.80 (sub 75) OBJ File: 'DungeonExport.blend'
# www.blender.org
mtllib bookB.mtl
o bookB_Cube.4069
v -0.016840 -0.192245 0.029205
v -0.016840 0.192245 0.029205
v -0.016840 -0.192245 -0.029205
v -0.016840 0.192245 -0.029205
v 0.290753 -0.192245 0.029205
v 0.290753 0.192245 0.029205
v 0.290753 -0.192245 -0.029205
v 0.290753 0.192245 -0.029205
v -0.029467 -0.208030 -0.039278
v -0.029467 -0.208030 0.039278
v -0.029467 0.208030 0.039278
v -0.029467 0.208030 -0.039278
v 0.303380 -0.208030 -0.039278
v 0.303380 0.208030 -0.039278
v 0.303380 0.208030 0.039278
v 0.303380 -0.208030 0.039278
v 0.303380 -0.208030 -0.058471
v 0.303380 0.208030 -0.058471
v 0.303380 0.208030 0.058470
v 0.303380 -0.208030 0.058470
v -0.050118 -0.208030 -0.029870
v -0.021517 -0.208030 -0.058471
v -0.029495 -0.208030 -0.039304
v -0.046286 -0.208030 -0.044170
v -0.035817 -0.208030 -0.054639
v -0.021517 -0.208030 0.058470
v -0.050118 -0.208030 0.029870
v -0.029495 -0.208030 0.039304
v -0.035817 -0.208030 0.054639
v -0.046286 -0.208030 0.044170
v -0.050118 0.208030 0.029870
v -0.021517 0.208030 0.058470
v -0.029495 0.208030 0.039304
v -0.046286 0.208030 0.044170
v -0.035817 0.208030 0.054639
v -0.021517 0.208030 -0.058471
v -0.050118 0.208030 -0.029870
v -0.029495 0.208030 -0.039304
v -0.035817 0.208030 -0.054639
v -0.046286 0.208030 -0.044170
v 0.278432 0.182909 -0.071544
v 0.278432 -0.182909 -0.071544
v 0.278432 0.182909 0.071544
v 0.278432 -0.182909 0.071544
v -0.055176 -0.182909 -0.036549
v -0.051743 -0.182909 -0.054046
v -0.042366 -0.182909 -0.066856
v -0.029556 -0.182909 -0.071544
v -0.029556 -0.182909 0.071544
v -0.042366 -0.182909 0.066856
v -0.051743 -0.182909 0.054046
v -0.055176 -0.182909 0.036549
v -0.055176 0.182909 0.036549
v -0.051743 0.182909 0.054046
v -0.042366 0.182909 0.066856
v -0.029556 0.182909 0.071544
v -0.029556 0.182909 -0.071544
v -0.042366 0.182909 -0.066856
v -0.051743 0.182909 -0.054046
v -0.055176 0.182909 -0.036549
v 0.012007 0.062106 0.078909
v 0.022367 0.069206 0.086009
v 0.012007 0.137829 0.078909
v 0.022367 0.130729 0.086009
v 0.012007 0.062106 -0.078909
v 0.022367 0.069206 -0.086009
v 0.012007 0.137829 -0.078909
v 0.022367 0.130729 -0.086009
v 0.012007 -0.137829 0.078909
v 0.022367 -0.130729 0.086009
v 0.012007 -0.062106 0.078909
v 0.022367 -0.069206 0.086009
v 0.012007 -0.137829 -0.078909
v 0.022367 -0.130729 -0.086009
v 0.012007 -0.062106 -0.078909
v 0.022367 -0.069206 -0.086009
v -0.027690 0.062106 0.078909
v -0.028625 0.069206 0.086009
v -0.065318 0.062106 0.041280
v -0.072418 0.069206 0.042215
v -0.046846 0.062106 0.073776
v -0.050522 0.069206 0.080141
v -0.060185 0.062106 0.060437
v -0.066551 0.069206 0.064112
v -0.065318 0.137829 0.041280
v -0.072418 0.130729 0.042215
v -0.027690 0.137829 0.078909
v -0.028625 0.130729 0.086009
v -0.060185 0.137829 0.060437
v -0.066551 0.130729 0.064112
v -0.046846 0.137829 0.073776
v -0.050522 0.130729 0.080141
v -0.065318 0.062106 -0.041280
v -0.072418 0.069206 -0.042215
v -0.027690 0.062106 -0.078909
v -0.028625 0.069206 -0.086009
v -0.060185 0.062106 -0.060437
v -0.066551 0.069206 -0.064112
v -0.046846 0.062106 -0.073776
v -0.050522 0.069206 -0.080141
v -0.027690 0.137829 -0.078909
v -0.028625 0.130729 -0.086009
v -0.065318 0.137829 -0.041280
v -0.072418 0.130729 -0.042215
v -0.046846 0.137829 -0.073776
v -0.050522 0.130729 -0.080141
v -0.060185 0.137829 -0.060436
v -0.066551 0.130729 -0.064112
v -0.027690 -0.137829 0.078909
v -0.028625 -0.130729 0.086009
v -0.065318 -0.137829 0.041280
v -0.072418 -0.130729 0.042215
v -0.046846 -0.137829 0.073776
v -0.050522 -0.130729 0.080141
v -0.060185 -0.137829 0.060437
v -0.066551 -0.130729 0.064112
v -0.065318 -0.062106 0.041280
v -0.072418 -0.069206 0.042215
v -0.027690 -0.062106 0.078909
v -0.028625 -0.069206 0.086009
v -0.060185 -0.062106 0.060437
v -0.066551 -0.069206 0.064112
v -0.046846 -0.062106 0.073776
v -0.050522 -0.069206 0.080141
v -0.065318 -0.137829 -0.041280
v -0.072418 -0.130729 -0.042215
v -0.027690 -0.137829 -0.078909
v -0.028625 -0.130729 -0.086009
v -0.060185 -0.137829 -0.060436
v -0.066551 -0.130729 -0.064112
v -0.046846 -0.137829 -0.073776
v -0.050522 -0.130729 -0.080141
v -0.027690 -0.062106 -0.078909
v -0.028625 -0.069206 -0.086009
v -0.065318 -0.062106 -0.041280
v -0.072418 -0.069206 -0.042215
v -0.046846 -0.062106 -0.073776
v -0.050522 -0.069206 -0.080141
v -0.060185 -0.062106 -0.060436
v -0.066551 -0.069206 -0.064112
vt 0.625000 0.750000
vt 0.875000 0.750000
vt 0.875000 0.750000
vt 0.625000 0.750000
vt 0.875000 0.500000
vt 0.875000 0.500000
vt 0.375000 0.500000
vt 0.125000 0.500000
vt 0.125000 0.500000
vt 0.375000 0.500000
vt 0.125000 0.750000
vt 0.375000 0.750000
vt 0.375000 0.750000
vt 0.145227 0.750000
vt 0.125000 0.750000
vt 0.625000 0.500000
vt 0.375000 0.500000
vt 0.625000 0.500000
vt 0.864887 0.500000
vt 0.854773 0.500000
vt 0.854773 0.500000
vt 0.864887 0.500000
vt 0.125000 0.750000
vt 0.375000 0.750000
vt 0.625000 0.500000
vt 0.625000 0.750000
vt 0.854773 0.750000
vt 0.854773 0.750000
vt 0.625000 0.750000
vt 0.125000 0.500000
vt 0.145227 0.500000
vt 0.875000 0.500000
vt 0.875000 0.561143
vt 0.875000 0.688857
vt 0.875000 0.750000
vt 0.375000 0.750000
vt 0.145227 0.750000
vt 0.125000 0.561143
vt 0.125000 0.530572
vt 0.125000 0.500000
vt 0.125000 0.500000
vt 0.135113 0.750000
vt 0.125000 0.750000
vt 0.125000 0.750000
vt 0.875000 0.719428
vt 0.875000 0.750000
vt 0.875000 0.750000
vt 0.875000 0.500000
vt 0.875000 0.500000
vt 0.625000 0.500000
vt 0.125000 0.500000
vt 0.125000 0.500000
vt 0.145227 0.500000
vt 0.375000 0.500000
vt 0.125000 0.750000
vt 0.125000 0.750000
vt 0.125000 0.688857
vt 0.625000 0.979773
vt 0.375000 0.979773
vt 0.375000 0.270227
vt 0.625000 0.270227
vt 0.375000 0.061143
vt 0.625000 0.061143
vt 0.625000 0.188857
vt 0.375000 0.188857
vt 0.625000 0.989887
vt 0.375000 0.989887
vt 0.625000 1.000000
vt 0.375000 1.000000
vt 0.375000 0.030572
vt 0.625000 0.030572
vt 0.375000 0.260113
vt 0.625000 0.260113
vt 0.375000 0.219428
vt 0.625000 0.219428
vt 0.875000 0.688857
vt 0.875000 0.719428
vt 0.135113 0.750000
vt 0.875000 0.500000
vt 0.125000 0.688857
vt 0.125000 0.561143
vt 0.125000 0.530572
vt 0.875000 0.750000
vt 0.875000 0.500000
vt 0.875000 0.561143
vt 0.875000 0.750000
vt 0.642810 0.508413
vt 0.733164 0.488638
vt 0.702992 0.404910
vt 0.724077 0.384644
vt 0.832581 0.535082
vt 0.854757 0.683981
vt 0.840988 0.712122
vt 0.804611 0.731577
vt 0.752240 0.738980
vt 0.643972 0.739175
vt 0.642810 0.508413
vt 0.733164 0.488639
vt 0.702992 0.404910
vt 0.724077 0.384645
vt 0.832581 0.535082
vt 0.854757 0.683981
vt 0.840988 0.712122
vt 0.804611 0.731577
vt 0.752240 0.738980
vt 0.643973 0.739175
vt 0.398441 0.750000
vt 0.601559 0.750000
vt 0.601559 0.880378
vt 0.398441 0.880378
vt 0.398441 0.369622
vt 0.601559 0.369622
vt 0.601559 0.500000
vt 0.398441 0.500000
vt 0.398441 0.940189
vt 0.601559 0.940189
vt 0.601559 1.000000
vt 0.398441 1.000000
vt 0.398441 0.500000
vt 0.601559 0.500000
vt 0.601559 0.750000
vt 0.398441 0.750000
vt 0.167420 0.535082
vt 0.275923 0.384644
vt 0.297008 0.404910
vt 0.266836 0.488639
vt 0.357190 0.508413
vt 0.356027 0.739175
vt 0.247760 0.738980
vt 0.195389 0.731577
vt 0.159012 0.712122
vt 0.145243 0.683981
vt 0.601559 0.880378
vt 0.398441 0.880378
vt 0.398441 0.369622
vt 0.601559 0.369622
vt 0.398441 0.940189
vt 0.601559 0.940189
vt 0.601559 1.000000
vt 0.398441 1.000000
vt 0.398441 0.031824
vt 0.601559 0.031824
vt 0.601559 0.063647
vt 0.398441 0.063647
vt 0.664925 0.322726
vt 0.335075 0.322725
vt 0.398441 0.186353
vt 0.601559 0.186353
vt 0.653067 0.376050
vt 0.346933 0.376050
vt 0.398441 0.031824
vt 0.601559 0.031824
vt 0.601559 0.063647
vt 0.398441 0.063647
vt 0.664925 0.322725
vt 0.335075 0.322725
vt 0.398441 0.186353
vt 0.601559 0.186353
vt 0.653067 0.376050
vt 0.346933 0.376050
vt 0.356027 0.739175
vt 0.357190 0.508413
vt 0.195389 0.731577
vt 0.247760 0.738980
vt 0.244622 0.750000
vt 0.184811 0.741473
vt 0.815189 0.741473
vt 0.755378 0.750000
vt 0.159012 0.712122
vt 0.141026 0.718176
vt 0.858974 0.718176
vt 0.145243 0.683981
vt 0.125000 0.686353
vt 0.875000 0.686353
vt 0.755378 0.500000
vt 0.688396 0.376050
vt 0.266836 0.488639
vt 0.297008 0.404910
vt 0.311604 0.376050
vt 0.244622 0.500000
vt 0.275923 0.384644
vt 0.702991 0.322726
vt 0.875000 0.563647
vt 0.167420 0.535082
vt 0.125000 0.563647
vt 0.297009 0.322725
vt 0.244622 0.750000
vt 0.184811 0.741473
vt 0.815189 0.741473
vt 0.755378 0.750000
vt 0.141026 0.718176
vt 0.858974 0.718176
vt 0.125000 0.686353
vt 0.875000 0.686353
vt 0.755378 0.500000
vt 0.688396 0.376050
vt 0.311604 0.376050
vt 0.244622 0.500000
vt 0.702991 0.322726
vt 0.875000 0.563647
vt 0.125000 0.563647
vt 0.297009 0.322725
vt 0.375000 0.184994
vt 0.375000 0.065006
vt 0.375000 0.480606
vt 0.375000 0.372175
vt 0.375000 0.877825
vt 0.375000 0.769394
vt 0.625000 0.750000
vt 0.625000 0.372175
vt 0.625000 0.480606
vt 0.375000 0.184994
vt 0.375000 0.065006
vt 0.375000 0.480606
vt 0.375000 0.372175
vt 0.375000 0.877825
vt 0.375000 0.769394
vt 0.625000 0.750000
vt 0.625000 0.372175
vt 0.625000 0.480606
vn 0.0000 0.5380 -0.8430
vn 0.7809 0.6247 0.0000
vn 0.0000 -0.5380 0.8430
vn 0.0000 -1.0000 -0.0000
vn 1.0000 0.0000 0.0000
vn -0.4925 0.4729 -0.7307
vn -0.1144 0.4797 -0.8699
vn -0.1671 0.2436 -0.9554
vn -0.5601 0.2352 -0.7944
vn 0.7809 -0.6247 0.0000
vn 0.6236 0.0000 -0.7817
vn 0.0000 0.5380 0.8430
vn 0.0000 -0.5380 -0.8430
vn 0.6236 0.0000 0.7817
vn 0.0000 0.4617 0.8871
vn -0.1144 0.4797 0.8699
vn -0.1671 0.2436 0.9554
vn 0.1828 0.1813 0.9663
vn 0.0000 1.0000 -0.0000
vn -0.1144 -0.4797 0.8699
vn 0.0000 -0.4617 0.8871
vn 0.1828 -0.1813 0.9663
vn -0.1671 -0.2436 0.9554
vn 0.0000 0.4617 -0.8871
vn 0.1828 0.1813 -0.9663
vn 0.4642 0.0000 0.8857
vn -0.1144 -0.4797 -0.8699
vn -0.4925 -0.4729 -0.7307
vn -0.5601 -0.2352 -0.7944
vn -0.1671 -0.2436 -0.9554
vn 0.0000 -0.4617 -0.8871
vn 0.1828 -0.1813 -0.9663
vn -0.9690 -0.2289 0.0928
vn -0.8541 -0.3453 0.3890
vn -0.8840 -0.1828 0.4302
vn -0.9866 -0.1195 0.1112
vn 0.4642 0.0000 -0.8857
vn -0.9866 0.1195 0.1112
vn -0.9866 0.1195 -0.1112
vn -0.9866 -0.1195 -0.1112
vn -0.5601 0.2352 0.7944
vn -0.5601 -0.2352 0.7944
vn -0.8840 0.1828 0.4302
vn -0.8840 -0.1828 -0.4302
vn -0.8840 0.1828 -0.4302
vn -0.8541 0.3453 0.3890
vn -0.9690 0.2289 0.0928
vn -0.4925 -0.4729 0.7307
vn -0.8541 0.3453 -0.3890
vn -0.9690 -0.2289 -0.0928
vn -0.8541 -0.3453 -0.3890
vn -0.4925 0.4729 0.7307
vn -0.9690 0.2289 -0.0928
vn 0.0000 0.0000 1.0000
vn -0.1305 -0.0000 0.9914
vn -0.1305 0.0000 -0.9914
vn 0.0000 0.0000 -1.0000
vn -0.5000 -0.0000 0.8660
vn -0.7071 -0.0000 0.7071
vn -0.9659 -0.0000 0.2588
vn -0.9914 0.0000 0.1305
vn -0.9659 0.0000 -0.2588
vn -0.9914 0.0000 -0.1305
vn -0.5000 0.0000 -0.8660
vn -0.7071 0.0000 -0.7071
vn 0.5653 -0.8249 0.0000
vn 0.5653 0.8249 0.0000
vn -0.3474 -0.7193 0.6017
vn -0.0919 -0.7101 0.6980
vn -0.0919 0.7101 0.6980
vn -0.3474 0.7193 0.6017
vn -0.6017 -0.7193 0.3474
vn -0.6017 0.7193 0.3474
vn -0.6980 -0.7101 0.0919
vn -0.6980 0.7101 0.0919
vn -0.3474 0.7193 -0.6017
vn -0.0919 0.7101 -0.6980
vn -0.0919 -0.7101 -0.6980
vn -0.3474 -0.7193 -0.6017
vn -0.6017 0.7193 -0.3474
vn -0.6017 -0.7193 -0.3474
vn -0.6980 0.7101 -0.0919
vn -0.6980 -0.7101 -0.0919
vn 0.0000 -0.7071 -0.7071
vn 0.0000 -0.7071 0.7071
vn 0.0000 0.7071 0.7071
vn 0.0000 0.7071 -0.7071
usemtl PurpleDark
s 1
f 6/1/1 2/2/1 11/3/1 15/4/1
s 2
f 2/2/2 4/5/2 12/6/2 11/3/2
s 4
f 7/7/3 3/8/3 9/9/3 13/10/3
s 7
f 10/11/4 16/12/4 20/13/4 26/14/4 28/15/4
s 8
f 14/16/5 13/10/5 17/17/5 18/18/5
s 9
f 39/19/6 36/20/7 57/21/8 58/22/9
s 10
f 3/8/10 1/23/10 10/11/10 9/9/10
s 11
f 5/24/11 6/1/11 15/4/11 16/12/11
s 12
f 4/5/12 8/25/12 14/16/12 12/6/12
s 13
f 1/23/13 5/24/13 16/12/13 10/11/13
s 14
f 8/25/14 7/7/14 13/10/14 14/16/14
s 15
f 19/26/15 32/27/16 56/28/17 43/29/18
s 16
f 13/10/4 9/9/4 23/30/4 22/31/4 17/17/4
s 17
f 11/3/19 12/6/19 38/32/19 37/33/19 31/34/19 33/35/19
s 18
f 15/4/19 11/3/19 33/35/19 32/27/19 19/26/19
s 19
f 26/14/20 20/13/21 44/36/22 49/37/23
s 20
f 12/6/19 14/16/19 18/18/19 36/20/19 38/32/19
s 21
f 16/12/5 15/4/5 19/26/5 20/13/5
s 22
f 21/38/4 24/39/4 23/30/4
s 23
f 24/39/4 25/40/4 23/30/4
s 24
f 25/40/4 22/41/4 23/30/4
s 25
f 26/14/4 29/42/4 28/15/4
s 26
f 29/42/4 30/43/4 28/15/4
s 27
f 30/43/4 27/44/4 28/15/4
s 28
f 31/34/19 34/45/19 33/35/19
s 29
f 34/45/19 35/46/19 33/35/19
s 30
f 35/46/19 32/47/19 33/35/19
s 31
f 36/20/19 39/19/19 38/32/19
s 32
f 39/19/19 40/48/19 38/32/19
s 33
f 40/48/19 37/49/19 38/32/19
s 34
f 36/20/7 18/18/24 41/50/25 57/21/8
s 35
f 20/13/26 19/26/26 43/29/18 44/36/22
s 36
f 22/41/27 25/40/28 47/51/29 48/52/30
s 37
f 17/17/31 22/31/27 48/53/30 42/54/32
s 38
f 27/44/33 30/43/34 51/55/35 52/56/36
s 39
f 18/18/37 17/17/37 42/54/32 41/50/25
s 40
f 9/9/4 10/11/4 28/15/4 27/57/4 21/38/4 23/30/4
s 41
f 44/36/22 43/29/18 56/58/17 49/59/23
s 42
f 48/60/30 57/61/8 41/50/25 42/54/32
s 43
f 52/62/36 53/63/38 60/64/39 45/65/40
s 44
f 49/59/23 56/58/17 55/66/41 50/67/42
s 45
f 50/67/42 55/66/41 54/68/43 51/69/35
s 46
f 51/70/35 54/71/43 53/63/38 52/62/36
s 47
f 57/61/8 48/60/30 47/72/29 58/73/9
s 48
f 58/73/9 47/72/29 46/74/44 59/75/45
s 49
f 59/75/45 46/74/44 45/65/40 60/64/39
s 50
f 34/45/46 31/34/47 53/76/38 54/77/43
s 51
f 29/42/48 26/14/20 49/37/23 50/78/42
s 52
f 40/48/49 39/19/6 58/22/9 59/79/45
s 53
f 21/38/50 27/57/33 52/80/36 45/81/40
s 54
f 24/39/51 21/38/50 45/81/40 46/82/44
s 55
f 35/46/52 34/45/46 54/77/43 55/83/41
s 56
f 30/43/34 29/42/48 50/78/42 51/55/35
s 57
f 37/49/53 40/48/49 59/79/45 60/84/39
s 58
f 31/34/47 37/33/53 60/85/39 53/76/38
s 59
f 25/40/28 24/39/51 46/82/44 47/51/29
s 60
f 32/47/16 35/46/52 55/83/41 56/86/17
usemtl White
s 3
f 7/7/5 8/25/5 6/1/5 5/24/5
s 5
f 3/8/4 7/7/4 5/24/4 1/23/4
s 6
f 8/25/19 4/5/19 2/2/19 6/1/19
usemtl Metal
s 61
f 67/87/19 101/88/19 105/89/19 107/90/19 103/91/19 85/92/19 89/93/19 91/94/19 87/95/19 63/96/19
s 62
f 75/97/19 133/98/19 137/99/19 139/100/19 135/101/19 117/102/19 121/103/19 123/104/19 119/105/19 71/106/19
s 63
f 62/107/54 64/108/54 88/109/55 78/110/55
s 64
f 96/111/56 102/112/56 68/113/57 66/114/57
s 65
f 82/115/58 92/116/58 90/117/59 84/118/59
s 66
f 74/119/5 76/120/5 72/121/5 70/122/5
s 67
f 125/123/4 129/124/4 131/125/4 127/126/4 73/127/4 69/128/4 109/129/4 113/130/4 115/131/4 111/132/4
s 68
f 70/122/54 72/121/54 120/133/55 110/134/55
s 69
f 128/135/56 134/136/56 76/120/57 74/119/57
s 70
f 114/137/58 124/138/58 122/139/59 116/140/59
s 71
f 78/110/55 88/109/55 92/116/58 82/115/58
s 72
f 84/141/60 90/142/60 86/143/61 80/144/61
s 73
f 108/145/62 98/146/62 94/147/63 104/148/63
s 74
f 80/144/61 86/143/61 104/148/63 94/147/63
s 75
f 106/149/64 100/150/64 98/146/65 108/145/65
s 76
f 110/134/55 120/133/55 124/138/58 114/137/58
s 77
f 102/112/56 96/111/56 100/150/64 106/149/64
s 78
f 116/151/60 122/152/60 118/153/61 112/154/61
s 79
f 140/155/62 130/156/62 126/157/63 136/158/63
s 80
f 112/154/61 118/153/61 136/158/63 126/157/63
s 81
f 138/159/64 132/160/64 130/156/65 140/155/65
s 82
f 134/136/56 128/135/56 132/160/64 138/159/64
s 83
f 66/114/5 68/113/5 64/108/5 62/107/5
s 84
f 61/161/66 65/162/66 66/114/66 62/107/66
s 85
f 67/87/67 63/96/67 64/108/67 68/113/67
s 86
f 69/128/66 73/127/66 74/119/66 70/122/66
s 87
f 75/97/67 71/106/67 72/121/67 76/120/67
s 88
f 81/163/68 77/164/69 78/165/69 82/166/68
s 89
f 87/95/70 91/94/71 92/167/71 88/168/70
s 90
f 83/169/72 81/163/68 82/166/68 84/170/72
s 91
f 91/94/71 89/93/73 90/171/73 92/167/71
s 92
f 79/172/74 83/169/72 84/170/72 80/173/74
s 93
f 89/93/73 85/92/75 86/174/75 90/171/73
s 94
f 105/89/76 101/88/77 102/175/77 106/176/76
s 95
f 95/177/78 99/178/79 100/179/79 96/180/78
s 96
f 107/90/80 105/89/76 106/149/76 108/145/80
s 97
f 99/178/79 97/181/81 98/146/81 100/150/79
s 98
f 103/91/82 107/90/80 108/182/80 104/183/82
s 99
f 97/181/81 93/184/83 94/185/83 98/186/81
s 100
f 113/130/68 109/129/69 110/187/69 114/188/68
s 101
f 119/105/70 123/104/71 124/189/71 120/190/70
s 102
f 115/131/72 113/130/68 114/188/68 116/191/72
s 103
f 123/104/71 121/103/73 122/192/73 124/189/71
s 104
f 111/132/74 115/131/72 116/191/72 112/193/74
s 105
f 121/103/73 117/102/75 118/194/75 122/192/73
s 106
f 137/99/76 133/98/77 134/195/77 138/196/76
s 107
f 127/126/78 131/125/79 132/197/79 128/198/78
s 108
f 139/100/80 137/99/76 138/159/76 140/155/80
s 109
f 131/125/79 129/124/81 130/156/81 132/160/79
s 110
f 135/101/82 139/100/80 140/199/80 136/200/82
s 111
f 129/124/81 125/123/83 126/201/83 130/202/81
s 112
f 80/144/74 94/147/83 93/203/83 79/204/74
s 113
f 96/111/78 66/114/84 65/205/84 95/206/78
s 114
f 62/107/85 78/110/69 77/207/69 61/208/85
s 115
f 85/92/75 103/91/82 104/183/82 86/174/75
s 116
f 63/96/86 87/95/70 88/168/70 64/209/86
s 117
f 68/113/87 102/112/77 101/210/77 67/211/87
s 118
f 112/154/74 126/157/83 125/212/83 111/213/74
s 119
f 128/135/78 74/119/84 73/214/84 127/215/78
s 120
f 70/122/85 110/134/69 109/216/69 69/217/85
s 121
f 117/102/75 135/101/82 136/200/82 118/194/75
s 122
f 71/106/86 119/105/70 120/190/70 72/218/86
s 123
f 76/120/87 134/136/77 133/219/77 75/220/87
s 124
f 93/184/4 97/181/4 99/178/4 95/177/4 65/162/4 61/161/4 77/164/4 81/163/4 83/169/4 79/172/4
