# Blender v2.80 (sub 75) OBJ File: 'DungeonExport.blend'
# www.blender.org
mtllib dagger_uncommon.mtl
o dagger_uncommon_Cube.3837
v -0.000011 -0.096648 0.047144
v -0.040839 -0.096648 0.023572
v -0.040839 -0.096648 -0.023572
v -0.000011 -0.096648 -0.047144
v 0.040817 -0.096648 -0.023572
v 0.040817 -0.096648 0.023572
v -0.050556 -0.119849 0.029182
v -0.000011 -0.119849 0.058365
v -0.050556 -0.119849 -0.029182
v -0.000011 -0.119849 -0.058365
v 0.050534 -0.119849 -0.029182
v 0.050534 -0.119849 0.029182
v -0.024077 -0.151145 0.013894
v -0.000011 -0.151145 0.027789
v -0.024077 -0.151145 -0.013894
v -0.000011 -0.151145 -0.027789
v 0.024055 -0.151145 -0.013894
v 0.024055 -0.151145 0.013894
v -0.023434 -0.096648 0.040569
v -0.000011 0.141136 0.040290
v -0.034903 0.141136 0.020145
v -0.046857 -0.096648 -0.000000
v -0.034903 0.141136 -0.020145
v -0.023434 -0.096648 -0.040569
v -0.000011 0.141136 -0.040289
v 0.023412 -0.096648 -0.040569
v 0.034880 0.141136 -0.020145
v 0.046834 -0.096648 -0.000000
v 0.034880 0.141136 0.020145
v 0.023412 -0.096648 0.040569
v -0.029052 -0.119849 0.050300
v -0.058092 -0.119849 -0.000000
v -0.029052 -0.119849 -0.050300
v 0.029029 -0.119849 -0.050300
v 0.058070 -0.119849 -0.000000
v 0.029029 -0.119849 0.050300
v -0.012419 -0.151145 0.021491
v -0.024827 -0.151145 -0.000000
v -0.012419 -0.151145 -0.021491
v 0.012397 -0.151145 -0.021491
v 0.024805 -0.151145 -0.000000
v 0.012397 -0.151145 0.021491
v 0.040400 -0.139166 0.023331
v -0.000011 -0.139166 0.046663
v -0.040422 -0.139166 0.023331
v -0.040423 -0.139166 -0.023331
v -0.000011 -0.139166 -0.046663
v 0.040400 -0.139166 -0.023331
v 0.022577 -0.139166 -0.039124
v -0.045187 -0.139166 -0.000000
v 0.045165 -0.139166 -0.000000
v -0.022599 -0.139166 -0.039124
v -0.022599 -0.139166 0.039123
v 0.022577 -0.139166 0.039123
v 0.020133 0.141136 0.034892
v 0.040278 0.141136 0.000000
v 0.020133 0.141136 -0.034892
v -0.020156 0.141136 -0.034892
v -0.040301 0.141136 0.000000
v -0.020156 0.141136 0.034892
v -0.050146 0.180797 0.000000
v 0.050140 0.180797 0.000000
v -0.000003 0.879599 0.000000
v -0.000003 0.180797 -0.017721
v -0.000003 0.180797 0.017721
v -0.064210 0.585016 0.000000
v -0.000003 0.595355 0.022692
v -0.000003 0.595355 -0.022691
v 0.064204 0.585016 0.000000
v -0.149141 0.126626 0.045224
v -0.149141 0.190868 0.045224
v -0.149141 0.126626 -0.045224
v -0.149141 0.190868 -0.045224
v 0.149179 0.126626 0.045224
v 0.149179 0.190868 0.045224
v 0.149179 0.126626 -0.045224
v 0.149179 0.190868 -0.045224
v 0.060646 0.138823 -0.018035
v 0.000022 0.091826 -0.053605
v -0.060602 0.138823 -0.018035
v -0.060602 0.178670 -0.018035
v 0.000022 0.225669 -0.053605
v 0.060646 0.178670 -0.018035
v -0.060602 0.138823 0.018035
v 0.000022 0.091826 0.053605
v 0.060646 0.138823 0.018035
v 0.060646 0.178670 0.018035
v 0.000022 0.225669 0.053605
v -0.060602 0.178670 0.018035
v 0.124912 0.184769 -0.029503
v 0.124912 0.132725 0.029503
v 0.124912 0.132725 -0.029503
v 0.124912 0.184769 0.029503
v -0.124872 0.132725 -0.029503
v -0.124872 0.184769 0.029503
v -0.124872 0.184769 -0.029503
v -0.124872 0.132725 0.029503
v 0.193384 0.182318 0.000000
v -0.193346 0.182318 0.000000
v -0.000011 0.104897 0.042574
v -0.000011 0.027020 0.031566
v -0.027348 0.008730 0.015783
v -0.036882 0.104897 0.021287
v -0.027348 0.008730 -0.015783
v -0.036882 0.104897 -0.021287
v -0.000011 0.027020 -0.031566
v -0.000011 0.104897 -0.042574
v 0.027326 0.008730 -0.015783
v 0.036859 0.104897 -0.021287
v 0.027326 0.008730 0.015783
v 0.036859 0.104897 0.021287
v 0.015702 0.008730 0.027216
v 0.021226 0.104897 0.036784
v 0.031415 0.027020 -0.000000
v 0.042463 0.104897 0.000000
v 0.015702 0.008730 -0.027216
v 0.021226 0.104897 -0.036784
v -0.015724 0.008730 -0.027216
v -0.021249 0.104897 -0.036784
v -0.031437 0.027020 -0.000000
v -0.042486 0.104897 0.000000
v -0.015724 0.008730 0.027216
v -0.021249 0.104897 0.036784
v -0.000011 0.100921 0.048250
v -0.000011 0.029817 0.037489
v -0.032477 0.011527 0.018744
v -0.041797 0.100921 0.024125
v -0.032477 0.011527 -0.018744
v -0.041797 0.100922 -0.024125
v -0.000011 0.029817 -0.037489
v -0.000011 0.100922 -0.048250
v 0.032455 0.011527 -0.018744
v 0.041775 0.100921 -0.024125
v 0.032455 0.011527 0.018744
v 0.041775 0.100921 0.024125
v 0.018650 0.011527 0.032322
v 0.024057 0.100921 0.041688
v 0.037311 0.029817 -0.000000
v 0.048126 0.100921 0.000000
v 0.018650 0.011527 -0.032322
v 0.024057 0.100921 -0.041688
v -0.018673 0.011527 -0.032322
v -0.024080 0.100922 -0.041688
v -0.037334 0.029817 -0.000000
v -0.048149 0.100921 0.000000
v -0.018672 0.011527 0.032322
v -0.024080 0.100921 0.041688
vt 0.500000 1.000000
vt 0.461538 1.000000
vt 0.461538 0.875000
vt 0.500000 0.875000
vt 0.461538 0.750000
vt 0.500000 0.500000
vt 0.461538 0.500000
vt 0.461538 0.375000
vt 0.375000 0.500000
vt 0.375000 0.375000
vt 0.375000 0.875000
vt 0.375000 0.750000
vt 0.375000 1.000000
vt 0.461538 0.250000
vt 0.500000 0.375000
vt 0.375000 0.250000
vt 0.916667 0.916667
vt 0.833333 0.916667
vt 0.833333 1.000000
vt 0.916667 1.000000
vt 0.750000 0.916667
vt 0.666667 0.916667
vt 0.666667 1.000000
vt 0.750000 1.000000
vt 0.583333 0.916667
vt 0.500000 0.916667
vt 0.500000 1.000000
vt 0.583333 1.000000
vt 0.416667 0.916667
vt 0.333333 0.916667
vt 0.333333 1.000000
vt 0.416667 1.000000
vt 0.250000 0.916667
vt 0.166667 0.916667
vt 0.166667 1.000000
vt 0.250000 1.000000
vt 0.083333 0.916667
vt -0.000000 0.916667
vt -0.000000 1.000000
vt 0.083333 1.000000
vt 1.000000 0.916667
vt 1.000000 1.000000
vt 1.000000 0.750000
vt 0.916667 0.750000
vt 0.916667 0.833333
vt 1.000000 0.833333
vt 0.750000 0.916667
vt 0.666667 0.916667
vt 0.833333 0.750000
vt 0.750000 0.750000
vt 0.750000 0.833333
vt 0.833333 0.833333
vt 0.500000 0.833333
vt 0.416667 0.833333
vt 0.416667 0.833333
vt 0.500000 0.833333
vt 0.666667 0.750000
vt 0.583333 0.750000
vt 0.583333 0.833333
vt 0.666667 0.833333
vt 0.083333 0.916667
vt -0.000000 0.916667
vt 0.500000 0.750000
vt 0.416667 0.750000
vt 0.666667 0.833333
vt 0.750000 0.833333
vt 0.333333 0.750000
vt 0.250000 0.750000
vt 0.250000 0.833333
vt 0.333333 0.833333
vt 0.583333 0.916667
vt 0.166667 0.750000
vt 0.083333 0.750000
vt 0.083333 0.833333
vt 0.166667 0.833333
vt -0.000000 0.833333
vt -0.000000 0.833333
vt 0.083333 0.833333
vt -0.000000 0.750000
vt 0.500000 0.916667
vt 0.583333 0.833333
vt 0.166667 0.916667
vt 0.833333 0.916667
vt 0.166667 0.833333
vt 1.000000 0.833333
vt 0.916667 0.833333
vt 0.916667 0.916667
vt 1.000000 0.916667
vt 0.833333 0.833333
vt 0.416667 0.916667
vt 0.333333 0.833333
vt 0.250000 0.833333
vt 0.250000 0.916667
vt 0.333333 0.916667
vt 0.083333 1.000000
vt 0.083333 1.000000
vt 0.166667 1.000000
vt 0.166667 1.000000
vt 0.666667 1.000000
vt 0.750000 1.000000
vt -0.000000 1.000000
vt 0.083333 1.000000
vt 0.166667 1.000000
vt 0.250000 1.000000
vt 0.333333 1.000000
vt 0.416667 1.000000
vt 0.833333 1.000000
vt 0.916667 1.000000
vt 0.457846 0.370000
vt 0.457846 0.250000
vt 0.457846 0.130000
vt 0.353923 0.070000
vt 0.250000 0.010000
vt 0.146077 0.070000
vt 0.042154 0.130000
vt 0.042154 0.250000
vt 0.042154 0.370000
vt 0.146077 0.430000
vt 0.250000 0.490000
vt 0.353923 0.430000
vt 0.916667 1.000000
vt 0.916667 1.000000
vt 1.000000 1.000000
vt 1.000000 1.000000
vt 0.583333 1.000000
vt 0.583333 1.000000
vt 0.666667 1.000000
vt 0.666667 1.000000
vt 0.250000 1.000000
vt 0.250000 1.000000
vt 0.333333 1.000000
vt 0.333333 1.000000
vt 0.750000 1.000000
vt 0.750000 1.000000
vt 0.833333 1.000000
vt 0.833333 1.000000
vt 0.416667 1.000000
vt 0.416667 1.000000
vt 0.500000 1.000000
vt 0.500000 1.000000
vt 0.500000 1.000000
vt 0.583333 1.000000
vt 1.000000 1.000000
vt -0.000000 1.000000
vt -0.000000 1.000000
vt 0.875000 0.750000
vt 0.875000 0.500000
vt 0.875000 0.750000
vt 0.375000 0.484375
vt 0.625000 0.484375
vt 0.625000 0.500000
vt 0.375000 0.500000
vt 0.625000 0.750000
vt 0.375000 0.750000
vt 0.625000 0.750000
vt 0.375000 0.984375
vt 0.625000 0.984375
vt 0.625000 1.000000
vt 0.375000 1.000000
vt 0.359375 0.500000
vt 0.359375 0.750000
vt 0.859375 0.500000
vt 0.859375 0.750000
vt 0.640625 0.500000
vt 0.656250 0.500000
vt 0.656250 0.750000
vt 0.640625 0.750000
vt 0.625000 0.781250
vt 0.625000 0.875000
vt 0.375000 0.875000
vt 0.375000 0.781250
vt 0.843750 0.500000
vt 0.843750 0.750000
vt 0.750000 0.750000
vt 0.750000 0.500000
vt 0.250000 0.500000
vt 0.250000 0.750000
vt 0.156250 0.750000
vt 0.156250 0.500000
vt 0.343750 0.500000
vt 0.343750 0.750000
vt 0.140625 0.500000
vt 0.140625 0.750000
vt 0.625000 0.281250
vt 0.625000 0.375000
vt 0.375000 0.375000
vt 0.375000 0.281250
vt 0.625000 0.968750
vt 0.375000 0.968750
vt 0.375000 0.765625
vt 0.625000 0.765625
vt 0.625000 0.468750
vt 0.375000 0.468750
vt 0.375000 0.265625
vt 0.625000 0.265625
vt 0.375000 0.250000
vt 0.625000 0.250000
vt 0.125000 0.500000
vt 0.125000 0.750000
vt 0.125000 0.500000
vt 0.375000 0.750000
vt 0.625000 0.500000
vt 0.375000 0.500000
vt 0.625000 0.250000
vt 0.375000 1.000000
vn -0.3430 0.0748 0.9364
vn -0.3371 0.0247 0.9412
vn -0.3384 0.0355 0.9403
vn 0.3430 0.0748 0.9364
vn 0.3384 0.0355 0.9403
vn 0.3371 0.0247 0.9412
vn 0.3430 0.0748 -0.9364
vn 0.3371 0.0247 -0.9412
vn 0.3384 0.0355 -0.9403
vn 0.3323 -0.0114 -0.9431
vn 0.3323 -0.0114 0.9431
vn -0.3323 -0.0114 0.9431
vn -0.3371 0.0247 -0.9412
vn -0.3430 0.0748 -0.9364
vn -0.3384 0.0355 -0.9403
vn -0.3323 -0.0114 -0.9431
vn -0.4805 0.1370 0.8662
vn -0.8682 0.1377 0.4766
vn -0.8194 0.2987 0.4892
vn -0.4896 0.2966 0.8200
vn -0.9907 0.1358 -0.0000
vn -0.8682 0.1377 -0.4766
vn -0.8194 0.2987 -0.4892
vn -0.9549 0.2969 0.0000
vn -0.4805 0.1370 -0.8662
vn -0.0000 0.1366 -0.9906
vn 0.0000 0.2991 -0.9542
vn -0.4896 0.2966 -0.8200
vn 0.4805 0.1370 -0.8662
vn 0.8682 0.1377 -0.4766
vn 0.8194 0.2987 -0.4892
vn 0.4896 0.2966 -0.8200
vn 0.9907 0.1359 -0.0000
vn 0.8682 0.1377 0.4766
vn 0.8194 0.2987 0.4892
vn 0.9549 0.2969 -0.0000
vn 0.4805 0.1370 0.8662
vn -0.0000 0.1366 0.9906
vn 0.0000 0.2991 0.9542
vn 0.4896 0.2966 0.8200
vn -0.0000 0.0616 0.9981
vn -0.4991 0.0615 0.8644
vn -0.4881 -0.6592 0.5719
vn -0.8644 0.0616 0.4991
vn -0.9981 0.0615 -0.0000
vn 0.0000 0.8191 -0.5737
vn 0.2873 0.8185 -0.4976
vn -0.8644 0.0616 -0.4991
vn -0.4991 0.0615 -0.8644
vn -0.5692 -0.6618 0.4879
vn 0.0000 0.0616 -0.9981
vn 0.4991 0.0615 -0.8644
vn -0.5746 0.8185 0.0000
vn -0.4968 0.8191 -0.2868
vn 0.8644 0.0616 -0.4991
vn 0.9981 0.0615 -0.0000
vn -0.3086 -0.8980 -0.3138
vn 0.8644 0.0616 0.4991
vn 0.4991 0.0615 0.8644
vn 0.2873 0.8185 0.4976
vn -0.0000 0.8191 0.5737
vn 0.5692 -0.6618 -0.4879
vn -0.2873 0.8185 -0.4976
vn 0.3086 -0.8980 0.3138
vn -0.4881 -0.6592 -0.5719
vn 0.4968 0.8191 0.2868
vn -0.0000 -0.1316 0.9913
vn -0.4730 -0.1272 0.8719
vn -0.5485 -0.1246 0.8268
vn -0.8718 -0.1276 0.4730
vn -0.9914 -0.1312 -0.0000
vn -0.8246 -0.1250 0.5517
vn -0.8718 -0.1276 -0.4730
vn -0.4730 -0.1272 -0.8719
vn -0.5485 -0.1246 -0.8268
vn -0.8246 -0.1250 -0.5517
vn 0.0000 -0.1316 -0.9913
vn 0.4730 -0.1272 -0.8719
vn 0.5485 -0.1246 -0.8268
vn 0.8718 -0.1276 -0.4730
vn 0.9914 -0.1312 -0.0000
vn 0.8246 -0.1250 -0.5517
vn 0.8718 -0.1276 0.4730
vn 0.4730 -0.1272 0.8719
vn 0.5485 -0.1246 0.8268
vn 0.8246 -0.1250 0.5517
vn 0.5746 0.8185 -0.0000
vn -0.5692 -0.6618 -0.4879
vn -0.2873 0.8185 0.4976
vn -0.4968 0.8191 0.2868
vn 0.4881 -0.6592 -0.5719
vn 0.4968 0.8191 -0.2868
vn -0.3086 -0.8980 0.3138
vn 0.5692 -0.6618 0.4879
vn 0.4881 -0.6592 0.5719
vn 0.3086 -0.8980 -0.3138
vn 0.3599 -0.6942 0.6233
vn 0.1427 -0.9584 0.2472
vn 0.2898 -0.9424 0.1673
vn 0.6209 -0.6971 0.3585
vn -0.7791 0.4366 -0.4498
vn -0.9006 0.4346 0.0000
vn 0.0000 0.4366 0.8997
vn 0.4503 0.4346 0.7799
vn 0.7791 0.4366 0.4498
vn 0.9006 0.4346 -0.0000
vn 0.7791 0.4366 -0.4498
vn 0.4503 0.4346 -0.7799
vn -0.7791 0.4366 0.4498
vn -0.4503 0.4346 0.7799
vn -0.2898 -0.9424 0.1673
vn -0.2854 -0.9584 0.0000
vn -0.2898 -0.9424 -0.1673
vn -0.1427 -0.9584 -0.2472
vn -0.0000 -0.9424 -0.3346
vn 0.1427 -0.9584 -0.2472
vn 0.2898 -0.9424 -0.1673
vn 0.2854 -0.9584 -0.0000
vn 0.0000 -0.9424 0.3346
vn -0.1427 -0.9584 0.2472
vn -0.3599 -0.6942 0.6233
vn 0.0000 -0.6971 0.7169
vn -0.3599 -0.6942 -0.6233
vn -0.6209 -0.6971 -0.3585
vn 0.7198 -0.6942 0.0000
vn 0.6209 -0.6971 -0.3585
vn -0.7198 -0.6942 0.0000
vn -0.6209 -0.6971 0.3585
vn 0.3599 -0.6942 -0.6233
vn -0.0000 -0.6971 -0.7169
vn 0.7286 -0.5406 -0.4206
vn 0.4227 -0.5341 -0.7321
vn 0.0000 -0.5406 -0.8413
vn -0.7286 -0.5406 -0.4206
vn -0.8454 -0.5341 0.0000
vn -0.7286 -0.5406 0.4206
vn 0.7286 -0.5406 0.4206
vn 0.8454 -0.5341 0.0000
vn -0.4227 -0.5341 -0.7321
vn -0.4227 -0.5341 0.7321
vn 0.0000 -0.5406 0.8413
vn -0.4503 0.4346 -0.7799
vn 0.0000 0.4366 -0.8997
vn 0.4227 -0.5341 0.7321
vn 0.0556 0.9985 0.0000
vn -0.1899 0.9818 0.0000
vn -0.3842 0.0000 -0.9232
vn -0.5437 0.0000 -0.8393
vn 0.7151 0.0000 0.6990
vn 0.3842 0.0000 0.9232
vn 0.5437 0.0000 0.8393
vn -0.1852 -0.9827 -0.0000
vn -0.2437 -0.9698 -0.0000
vn 0.1852 0.9827 0.0000
vn -0.1852 0.9827 -0.0000
vn -0.0945 0.9955 -0.0000
vn 0.5061 0.0000 0.8625
vn -0.6127 0.7903 0.0000
vn -0.6127 -0.7903 0.0000
vn 0.6127 -0.7903 0.0000
vn 0.1852 -0.9827 0.0000
vn 0.0945 -0.9955 0.0000
vn -0.5061 0.0000 -0.8625
vn -0.5061 0.0000 0.8625
vn -0.3842 0.0000 0.9232
vn -0.1757 0.0000 0.9845
vn 0.5061 0.0000 -0.8625
vn 0.3842 0.0000 -0.9232
vn 0.1757 0.0000 -0.9845
vn 0.6127 0.7903 0.0000
vn -0.5437 0.0000 0.8393
vn -0.0556 0.9985 0.0000
vn -0.0945 -0.9955 -0.0000
vn -0.1757 0.0000 -0.9845
vn 0.5437 0.0000 -0.8393
vn 0.2437 -0.9698 0.0000
vn 0.0945 0.9955 0.0000
vn 0.1757 0.0000 0.9845
vn -0.7833 -0.6217 0.0000
vn 0.7833 -0.6217 0.0000
vn 0.1899 0.9818 0.0000
vn 0.7151 0.0000 -0.6990
vn -0.7151 0.0000 -0.6990
vn -0.7151 0.0000 0.6990
usemtl Metal
s 49
f 63/1/1 66/2/2 67/3/3
s 50
f 63/4/4 67/3/5 69/5/6
s 51
f 63/6/7 69/7/8 68/8/9
s 52
f 69/7/8 62/9/10 64/10/10 68/8/9
s 53
f 67/3/5 65/11/11 62/12/11 69/5/6
s 54
f 61/13/12 65/11/12 67/3/3 66/2/2
s 55
f 66/14/13 63/15/14 68/8/15
s 56
f 61/16/16 66/14/13 68/8/15 64/10/16
usemtl BrownDark
s 1
f 122/17/17 102/18/18 2/19/19 19/20/20
s 2
f 120/21/21 104/22/22 3/23/23 22/24/24
s 3
f 118/25/25 106/26/26 4/27/27 24/28/28
s 4
f 116/29/29 108/30/30 5/31/31 26/32/32
s 5
f 114/33/33 110/34/34 6/35/35 28/36/36
s 6
f 112/37/37 101/38/38 1/39/39 30/40/40
s 43
f 110/34/34 112/37/37 30/40/40 6/35/35
s 44
f 108/30/30 114/33/33 28/36/36 5/31/31
s 45
f 106/26/26 116/29/29 26/32/32 4/27/27
s 46
f 104/22/22 118/25/25 24/28/28 3/23/23
s 47
f 102/18/18 120/21/21 22/24/24 2/19/19
s 48
f 101/41/38 122/17/17 19/20/20 1/42/39
s 89
f 20/43/41 60/44/42 123/45/42 100/46/41
s 90
f 104/22/43 120/21/43 144/47/43 128/48/43
s 91
f 21/49/44 59/50/45 121/51/45 103/52/44
s 92
f 107/53/46 117/54/47 141/55/47 131/56/46
s 93
f 23/57/48 58/58/49 119/59/49 105/60/48
s 94
f 101/38/50 112/37/50 136/61/50 125/62/50
s 95
f 25/63/51 57/64/52 117/54/52 107/53/51
s 96
f 121/51/53 105/60/54 129/65/54 145/66/53
s 97
f 27/67/55 56/68/56 115/69/56 109/70/55
s 98
f 118/25/57 104/22/57 128/48/57 142/71/57
s 99
f 29/72/58 55/73/59 113/74/59 111/75/58
s 100
f 113/74/60 100/76/61 124/77/61 137/78/60
s 101
f 55/73/59 20/79/41 100/76/41 113/74/59
s 102
f 106/26/62 118/25/62 142/71/62 130/80/62
s 103
f 56/68/56 29/72/58 111/75/58 115/69/56
s 104
f 105/60/54 119/59/63 143/81/63 129/65/54
s 105
f 57/64/52 27/67/55 109/70/55 117/54/52
s 106
f 112/37/64 110/34/64 134/82/64 136/61/64
s 107
f 58/58/49 25/63/51 107/53/51 119/59/49
s 108
f 119/59/63 107/53/46 131/56/46 143/81/63
s 109
f 59/50/45 23/57/48 105/60/48 121/51/45
s 110
f 120/21/65 102/18/65 126/83/65 144/47/65
s 111
f 60/44/42 21/49/44 103/52/44 123/45/42
s 112
f 111/75/66 113/74/60 137/78/60 135/84/66
s 113
f 124/85/67 147/86/68 146/87/69 125/88/67
s 114
f 127/89/70 145/66/71 144/47/71 126/83/72
s 115
f 129/65/73 143/81/74 142/71/75 128/48/76
s 116
f 131/56/77 141/55/78 140/90/79 130/80/77
s 117
f 133/91/80 139/92/81 138/93/81 132/94/82
s 118
f 135/84/83 137/78/84 136/61/85 134/82/86
s 119
f 137/78/84 124/77/67 125/62/67 136/61/85
s 120
f 139/92/81 135/84/83 134/82/86 138/93/81
s 121
f 141/55/78 133/91/80 132/94/82 140/90/79
s 122
f 143/81/74 131/56/77 130/80/77 142/71/75
s 123
f 145/66/71 129/65/73 128/48/76 144/47/71
s 124
f 147/86/68 127/89/70 126/83/72 146/87/69
s 125
f 115/69/87 111/75/66 135/84/66 139/92/87
s 126
f 116/29/88 106/26/88 130/80/88 140/90/88
s 127
f 123/45/89 103/52/90 127/89/90 147/86/89
s 128
f 100/46/61 123/45/89 147/86/89 124/85/61
s 129
f 110/34/91 114/33/91 138/93/91 134/82/91
s 130
f 109/70/92 115/69/87 139/92/87 133/91/92
s 131
f 102/18/93 122/17/93 146/87/93 126/83/93
s 132
f 122/17/94 101/41/94 125/88/94 146/87/94
s 133
f 117/54/47 109/70/92 133/91/92 141/55/47
s 134
f 114/33/95 108/30/95 132/94/95 138/93/95
s 135
f 103/52/90 121/51/53 145/66/53 127/89/90
s 136
f 108/30/96 116/29/96 140/90/96 132/94/96
usemtl Stone
s 7
f 54/95/97 42/96/98 18/97/99 43/98/100
s 8
f 3/23/23 9/99/101 32/100/102 22/24/24
s 9
f 1/39/39 8/101/103 36/102/104 30/40/40
s 10
f 6/35/35 12/103/105 35/104/106 28/36/36
s 11
f 5/31/31 11/105/107 34/106/108 26/32/32
s 12
f 2/19/19 7/107/109 31/108/110 19/20/20
s 13
f 13/109/111 38/110/112 15/111/113 39/112/114 16/113/115 40/114/116 17/115/117 41/116/118 18/117/99 42/118/98 14/119/119 37/120/120
s 14
f 53/121/121 37/122/120 14/123/119 44/124/122
s 15
f 52/125/123 39/126/114 15/127/113 46/128/124
s 16
f 51/129/125 41/130/118 17/131/117 48/132/126
s 17
f 50/133/127 38/134/112 13/135/111 45/136/128
s 18
f 49/137/129 40/138/116 16/139/115 47/140/130
s 19
f 48/132/126 17/131/117 40/138/116 49/137/129
s 20
f 11/105/131 48/132/126 49/137/129 34/106/132
s 21
f 34/106/132 49/137/129 47/140/130 10/141/133
s 22
f 46/128/124 15/127/113 38/134/112 50/133/127
s 23
f 9/99/134 46/128/124 50/133/127 32/100/135
s 24
f 32/100/135 50/133/127 45/136/128 7/107/136
s 25
f 43/98/100 18/97/99 41/130/118 51/129/125
s 26
f 12/103/137 43/98/100 51/129/125 35/104/138
s 27
f 35/104/138 51/129/125 48/132/126 11/105/131
s 28
f 47/140/130 16/139/115 39/126/114 52/125/123
s 29
f 10/141/133 47/140/130 52/125/123 33/142/139
s 30
f 33/142/139 52/125/123 46/128/124 9/99/134
s 31
f 45/136/128 13/135/111 37/122/120 53/121/121
s 32
f 7/107/136 45/136/128 53/121/121 31/108/140
s 33
f 31/108/140 53/121/121 44/124/122 8/143/141
s 34
f 24/28/28 33/142/142 9/99/101 3/23/23
s 35
f 19/20/20 31/108/110 8/143/103 1/42/39
s 36
f 26/32/32 34/106/108 10/141/143 4/27/27
s 37
f 28/36/36 35/104/106 11/105/107 5/31/31
s 38
f 30/40/40 36/102/104 12/103/105 6/35/35
s 39
f 44/144/122 14/145/119 42/96/98 54/95/97
s 40
f 8/101/141 44/144/122 54/95/97 36/102/144
s 41
f 36/102/144 54/95/97 43/98/100 12/103/137
s 42
f 22/24/24 32/100/102 7/107/109 2/19/19
s 57
f 71/146/145 73/147/145 99/148/146
s 58
f 92/149/147 90/150/147 77/151/148 76/152/148
s 59
f 75/153/149 74/154/149 98/155/149
s 60
f 97/156/150 95/157/150 71/158/151 70/159/151
s 61
f 92/160/152 76/152/153 74/154/153 91/161/152
s 62
f 96/162/154 73/147/145 71/146/145 95/163/154
s 63
f 90/164/155 83/165/156 87/166/156 93/167/155
s 64
f 87/168/157 88/169/157 85/170/157 86/171/157
s 65
f 81/172/158 89/173/158 88/174/158 82/175/158
s 66
f 79/176/159 85/177/159 84/178/159 80/179/159
s 67
f 79/176/160 78/180/160 86/181/160 85/177/160
s 68
f 94/182/161 80/179/162 84/178/162 97/183/161
s 69
f 81/184/163 82/185/163 79/186/163 80/187/163
s 70
f 85/170/164 88/169/164 89/188/164 84/189/164
s 71
f 91/190/165 93/191/165 87/168/166 86/171/166
s 72
f 79/186/167 82/185/167 83/192/167 78/193/167
s 73
f 94/194/168 96/195/168 81/184/169 80/187/169
s 74
f 87/166/170 83/165/170 82/175/170 88/174/170
s 75
f 74/154/171 75/153/171 93/191/165 91/190/165
s 76
f 77/151/172 90/164/155 93/167/155 75/153/172
s 77
f 78/180/173 92/160/152 91/161/152 86/181/173
s 78
f 78/193/174 83/192/174 90/150/147 92/149/147
s 79
f 72/196/175 73/197/175 96/195/168 94/194/168
s 80
f 72/198/176 94/182/161 97/183/161 70/199/176
s 81
f 81/172/177 96/162/154 95/163/154 89/173/177
s 82
f 84/189/178 89/188/178 95/157/150 97/156/150
s 83
f 72/198/179 70/199/179 99/200/179
s 84
f 74/154/180 76/152/180 98/201/180
s 85
f 77/151/172 75/153/172 98/202/181
s 86
f 76/152/182 77/151/182 98/203/182
s 87
f 73/197/183 72/196/183 99/204/183
s 88
f 70/159/184 71/158/184 99/205/184
s 137
f 4/27/27 10/141/143 33/142/142 24/28/28
