# Blender v2.80 (sub 75) OBJ File: 'DungeonExport.blend'
# www.blender.org
mtllib floorDecoration_wood.mtl
o floorDecoration_wood_Cube.2485
v 1.000000 0.000000 0.500000
v 1.000000 0.000000 1.000000
v 0.000000 0.000000 0.500000
v 0.000000 0.000000 1.000000
v -1.000000 0.000000 0.500000
v -1.000000 0.000000 0.000000
v 1.000000 0.000000 0.500000
v 1.000000 0.000000 0.000000
v 0.000000 0.000000 0.500000
v 0.000000 0.000000 1.000000
v -1.000000 0.000000 0.500000
v -1.000000 0.000000 1.000000
v 1.000000 0.000000 -0.500000
v 1.000000 0.000000 0.000000
v 0.000000 0.000000 -0.500000
v 0.000000 0.000000 0.000000
v -1.000000 0.000000 -0.500000
v -1.000000 0.000000 -1.000000
v 1.000000 0.000000 -0.500000
v 1.000000 0.000000 -1.000000
v 0.000000 0.000000 -0.500000
v 0.000000 0.000000 0.000000
v -1.000000 0.000000 -0.500000
v -1.000000 0.000000 0.000000
v 1.000000 0.066705 0.500000
v 1.000000 0.100000 0.533295
v 1.000000 0.100000 0.966705
v 1.000000 0.066705 1.000000
v 0.033295 0.100000 0.533295
v 0.000000 0.066705 0.500000
v 0.033295 0.100000 0.966705
v 0.000000 0.066705 1.000000
v -0.966705 0.100000 0.466705
v -1.000000 0.066705 0.500000
v -1.000000 0.066705 0.000000
v -0.966705 0.100000 0.033295
v 0.966705 0.100000 0.466705
v 1.000000 0.066705 0.500000
v 0.966705 0.100000 0.033295
v 1.000000 0.066705 0.000000
v -0.033295 0.100000 0.533295
v 0.000000 0.066705 0.500000
v -0.033295 0.100000 0.966705
v 0.000000 0.066705 1.000000
v -1.000000 0.100000 0.533295
v -1.000000 0.066705 0.500000
v -1.000000 0.066705 1.000000
v -1.000000 0.100000 0.966705
v 1.000000 0.066705 -0.500000
v 1.000000 0.100000 -0.466705
v 1.000000 0.100000 -0.033295
v 1.000000 0.066705 0.000000
v 0.033295 0.100000 -0.466705
v 0.000000 0.066705 -0.500000
v 0.033295 0.100000 -0.033295
v 0.000000 0.066705 0.000000
v -0.966705 0.100000 -0.533295
v -1.000000 0.066705 -0.500000
v -1.000000 0.066705 -1.000000
v -0.966705 0.100000 -0.966705
v 0.966705 0.100000 -0.533295
v 1.000000 0.066705 -0.500000
v 0.966705 0.100000 -0.966705
v 1.000000 0.066705 -1.000000
v -0.033295 0.100000 -0.466705
v 0.000000 0.066705 -0.500000
v -0.033295 0.100000 -0.033295
v 0.000000 0.066705 0.000000
v -1.000000 0.100000 -0.466705
v -1.000000 0.066705 -0.500000
v -1.000000 0.066705 0.000000
v -1.000000 0.100000 -0.033295
vt 0.625000 0.516647
vt 0.866676 0.516647
vt 0.866676 0.733352
vt 0.625000 0.733352
vt 0.375000 0.000000
vt 0.541763 0.000000
vt 0.541763 0.250000
vt 0.375000 0.250000
vt 0.375000 0.000000
vt 0.541763 0.000000
vt 0.541763 0.250000
vt 0.375000 0.250000
vt 0.375000 0.500000
vt 0.541763 0.500000
vt 0.541763 0.750000
vt 0.375000 0.750000
vt 0.125000 0.500000
vt 0.125000 0.750000
vt 0.541763 1.000000
vt 0.375000 1.000000
vt 0.541763 0.500000
vt 0.375000 0.500000
vt 0.541763 0.750000
vt 0.375000 0.750000
vt 0.125000 0.500000
vt 0.125000 0.750000
vt 0.629162 0.516647
vt 0.870838 0.516647
vt 0.870838 0.733353
vt 0.629162 0.733353
vt 0.375000 0.250000
vt 0.541763 0.250000
vt 0.541763 0.500000
vt 0.375000 0.500000
vt 0.541763 1.000000
vt 0.375000 1.000000
vt 0.633324 0.516647
vt 0.875000 0.516647
vt 0.875000 0.733352
vt 0.633324 0.733352
vt 0.375000 0.000000
vt 0.541763 0.000000
vt 0.625000 0.016647
vt 0.625000 0.233353
vt 0.375000 0.250000
vt 0.541763 0.250000
vt 0.541763 0.500000
vt 0.375000 0.500000
vt 0.541763 0.750000
vt 0.375000 0.750000
vt 0.125000 0.500000
vt 0.125000 0.750000
vt 0.541763 1.000000
vt 0.375000 1.000000
vt 0.625000 0.516647
vt 0.866676 0.516647
vt 0.866676 0.733353
vt 0.625000 0.733353
vt 0.375000 0.000000
vt 0.541763 0.000000
vt 0.375000 0.000000
vt 0.541763 0.000000
vt 0.541763 0.250000
vt 0.375000 0.250000
vt 0.541763 0.750000
vt 0.375000 0.750000
vt 0.125000 0.500000
vt 0.125000 0.750000
vt 0.541763 1.000000
vt 0.375000 1.000000
vt 0.541763 0.500000
vt 0.375000 0.500000
vt 0.541763 0.750000
vt 0.375000 0.750000
vt 0.125000 0.500000
vt 0.125000 0.750000
vt 0.629162 0.516647
vt 0.870838 0.516647
vt 0.870838 0.733352
vt 0.629162 0.733352
vt 0.375000 0.250000
vt 0.541763 0.250000
vt 0.541763 0.500000
vt 0.375000 0.500000
vt 0.541763 1.000000
vt 0.375000 1.000000
vt 0.633324 0.516647
vt 0.875000 0.516647
vt 0.875000 0.733353
vt 0.633324 0.733353
vt 0.375000 0.000000
vt 0.541763 0.000000
vt 0.625000 0.016647
vt 0.625000 0.233353
vt 0.541763 0.750000
vt 0.375000 0.750000
vt 0.125000 0.500000
vt 0.125000 0.750000
vt 0.541763 1.000000
vt 0.375000 1.000000
vt 0.875000 0.750000
vt 0.625000 0.750000
vt 0.875000 0.500000
vt 0.625000 0.500000
vt 0.625000 0.500000
vt 0.875000 0.500000
vt 0.875000 0.750000
vt 0.625000 0.750000
vt 0.875000 0.750000
vt 0.625000 0.750000
vt 0.625000 0.500000
vt 0.875000 0.500000
vt 0.875000 0.750000
vt 0.625000 0.750000
vt 0.875000 0.500000
vt 0.625000 0.500000
vt 0.625000 0.500000
vt 0.875000 0.500000
vt 0.875000 0.750000
vt 0.625000 0.750000
vt 0.875000 0.750000
vt 0.625000 0.750000
vt 0.625000 0.500000
vt 0.875000 0.500000
vn 0.0000 1.0000 0.0000
vn -1.0000 0.0000 0.0000
vn 1.0000 0.0000 0.0000
vn 0.0000 -1.0000 0.0000
vn 0.0000 0.0000 1.0000
vn 0.0000 0.0000 -1.0000
vn 0.0000 0.7071 0.7071
vn -0.7071 0.7071 0.0000
vn 0.0000 0.7071 -0.7071
vn 0.7071 0.7071 0.0000
usemtl WoodDark
s 1
f 26/1/1 29/2/1 31/3/1 27/4/1
s 2
f 4/5/2 32/6/2 30/7/2 3/8/2
s 3
f 5/9/2 34/10/2 35/11/2 6/12/2
s 4
f 1/13/3 25/14/3 26/1/3 27/4/3 28/15/3 2/16/3
s 5
f 3/17/4 1/13/4 2/16/4 4/18/4
s 6
f 2/16/5 28/15/5 32/19/5 4/20/5
s 7
f 6/12/6 35/11/6 40/21/6 8/22/6
s 8
f 8/22/3 40/21/3 38/23/3 7/24/3
s 9
f 6/25/4 8/22/4 7/24/4 5/26/4
s 10
f 39/27/1 36/28/1 33/29/1 37/30/1
s 11
f 11/31/6 46/32/6 42/33/6 9/34/6
s 12
f 7/24/5 38/23/5 34/35/5 5/36/5
s 13
f 41/37/1 45/38/1 48/39/1 43/40/1
s 14
f 12/41/2 47/42/2 48/43/2 45/44/2 46/32/2 11/31/2
s 15
f 15/45/6 54/46/6 49/47/6 13/48/6
s 16
f 9/34/3 42/33/3 44/49/3 10/50/3
s 17
f 11/51/4 9/34/4 10/50/4 12/52/4
s 18
f 10/50/5 44/49/5 47/53/5 12/54/5
s 19
f 50/55/1 53/56/1 55/57/1 51/58/1
s 20
f 16/59/2 56/60/2 54/46/2 15/45/2
s 21
f 17/61/2 58/62/2 59/63/2 18/64/2
s 22
f 13/48/3 49/47/3 50/55/3 51/58/3 52/65/3 14/66/3
s 23
f 15/67/4 13/48/4 14/66/4 16/68/4
s 24
f 14/66/5 52/65/5 56/69/5 16/70/5
s 25
f 18/64/6 59/63/6 64/71/6 20/72/6
s 26
f 20/72/3 64/71/3 62/73/3 19/74/3
s 27
f 18/75/4 20/72/4 19/74/4 17/76/4
s 28
f 63/77/1 60/78/1 57/79/1 61/80/1
s 29
f 23/81/6 70/82/6 66/83/6 21/84/6
s 30
f 19/74/5 62/73/5 58/85/5 17/86/5
s 31
f 65/87/1 69/88/1 72/89/1 67/90/1
s 32
f 24/91/2 71/92/2 72/93/2 69/94/2 70/82/2 23/81/2
s 33
f 21/84/3 66/83/3 68/95/3 22/96/3
s 34
f 23/97/4 21/84/4 22/96/4 24/98/4
s 35
f 22/96/5 68/95/5 71/99/5 24/100/5
s 36
f 27/4/7 31/3/7 32/101/7 28/102/7
s 37
f 31/3/8 29/2/8 30/103/8 32/101/8
s 38
f 29/2/9 26/1/9 25/104/9 30/103/9
s 39
f 36/28/9 39/27/9 40/105/9 35/106/9
s 40
f 37/30/7 33/29/7 34/107/7 38/108/7
s 41
f 39/27/10 37/30/10 38/23/10 40/21/10
s 42
f 33/29/8 36/28/8 35/106/8 34/107/8
s 43
f 43/40/7 48/39/7 47/109/7 44/110/7
s 44
f 41/37/10 43/40/10 44/49/10 42/33/10
s 45
f 45/38/9 41/37/9 42/111/9 46/112/9
s 46
f 51/58/7 55/57/7 56/113/7 52/114/7
s 47
f 55/57/8 53/56/8 54/115/8 56/113/8
s 48
f 53/56/9 50/55/9 49/116/9 54/115/9
s 49
f 60/78/9 63/77/9 64/117/9 59/118/9
s 50
f 61/80/7 57/79/7 58/119/7 62/120/7
s 51
f 63/77/10 61/80/10 62/73/10 64/71/10
s 52
f 57/79/8 60/78/8 59/118/8 58/119/8
s 53
f 67/90/7 72/89/7 71/121/7 68/122/7
s 54
f 65/87/10 67/90/10 68/95/10 66/83/10
s 55
f 69/88/9 65/87/9 66/123/9 70/124/9
s 56
f 3/8/6 30/7/6 25/14/6 1/13/6
