# Blender v2.80 (sub 75) OBJ File: 'DungeonExport.blend'
# www.blender.org
mtllib floorDecoration_tilesLarge.mtl
o floorDecoration_tilesLarge_Cube.3047
v 1.300000 0.000000 1.300000
v 1.380000 0.050000 1.215000
v 1.300000 0.000000 -0.400000
v 1.380000 0.050000 -0.315000
v 2.900000 0.000000 1.300000
v 2.820000 0.050000 1.215000
v 2.900000 0.000000 -0.400000
v 2.820000 0.050000 -0.315000
v 0.500000 0.000000 2.900000
v 0.560000 0.050000 2.830000
v 0.500000 0.000000 1.500000
v 0.560000 0.050000 1.570000
v 1.700000 0.000000 2.900000
v 1.640000 0.050000 2.830000
v 1.700000 0.000000 1.500000
v 1.640000 0.050000 1.570000
v -2.900000 0.000000 2.900000
v -2.840000 0.050000 2.835000
v -2.900000 0.000000 1.600000
v -2.840000 0.050000 1.665000
v -1.700000 0.000000 2.900000
v -1.760000 0.050000 2.835000
v -1.700000 0.000000 1.600000
v -1.760000 0.050000 1.665000
v -1.500000 0.000000 2.900000
v -1.440000 0.050000 2.870000
v -1.500000 0.000000 2.300000
v -1.440000 0.050000 2.330000
v -0.300000 0.000000 2.900000
v -0.360000 0.050000 2.870000
v -0.300000 0.000000 2.300000
v -0.360000 0.050000 2.330000
v -1.500000 0.000000 2.100000
v -1.410000 0.050000 2.050000
v -1.500000 0.000000 1.100000
v -1.410000 0.050000 1.150000
v 0.300000 0.000000 2.100000
v 0.210000 0.050000 2.050000
v 0.300000 0.000000 1.100000
v 0.210000 0.050000 1.150000
v -0.100000 0.000000 2.900000
v -0.080000 0.050000 2.870000
v -0.100000 0.000000 2.300000
v -0.080000 0.050000 2.330000
v 0.300000 0.000000 2.900000
v 0.280000 0.050000 2.870000
v 0.300000 0.000000 2.300000
v 0.280000 0.050000 2.330000
v 1.900000 0.000000 2.900000
v 1.950000 0.050000 2.870000
v 1.900000 0.000000 2.300000
v 1.950000 0.050000 2.330000
v 2.900000 0.000000 2.900000
v 2.850000 0.050000 2.870000
v 2.900000 0.000000 2.300000
v 2.850000 0.050000 2.330000
v 2.500000 0.000000 2.100000
v 2.520000 0.050000 2.070000
v 2.500000 0.000000 1.500000
v 2.520000 0.050000 1.530000
v 2.900000 0.000000 2.100000
v 2.880000 0.050000 2.070000
v 2.900000 0.000000 1.500000
v 2.880000 0.050000 1.530000
v 1.900000 0.000000 2.100000
v 1.920000 0.050000 2.070000
v 1.900000 0.000000 1.500000
v 1.920000 0.050000 1.530000
v 2.300000 0.000000 2.100000
v 2.280000 0.050000 2.070000
v 2.300000 0.000000 1.500000
v 2.280000 0.050000 1.530000
v 0.500000 0.000000 1.300000
v 0.530000 0.050000 1.235000
v 0.500000 0.000000 0.000000
v 0.530000 0.050000 0.065000
v 1.100000 0.000000 1.300000
v 1.070000 0.050000 1.235000
v 1.100000 0.000000 0.000000
v 1.070000 0.050000 0.065000
v -0.500000 0.000000 -2.500000
v -0.490000 0.050000 -2.520000
v -0.500000 0.000000 -2.900000
v -0.490000 0.050000 -2.880000
v -0.300000 0.000000 -2.500000
v -0.310000 0.050000 -2.520000
v -0.300000 0.000000 -2.900000
v -0.310000 0.050000 -2.880000
v -0.740000 0.050000 -2.880000
v -0.700000 0.000000 -2.900000
v -0.740000 0.050000 -2.520000
v -0.700000 0.000000 -2.500000
v -1.460000 0.050000 -2.880000
v -1.500000 0.000000 -2.900000
v -1.460000 0.050000 -2.520000
v -1.500000 0.000000 -2.500000
v -1.500000 0.000000 -1.000000
v -1.440000 0.050000 -1.065000
v -1.500000 0.000000 -2.300000
v -1.440000 0.050000 -2.235000
v -0.300000 0.000000 -1.000000
v -0.360000 0.050000 -1.065000
v -0.300000 0.000000 -2.300000
v -0.360000 0.050000 -2.235000
v -1.760000 0.050000 -2.830000
v -1.700000 0.000000 -2.900000
v -1.760000 0.050000 -1.570000
v -1.700000 0.000000 -1.500000
v -2.840000 0.050000 -2.830000
v -2.900000 0.000000 -2.900000
v -2.840000 0.050000 -1.570000
v -2.900000 0.000000 -1.500000
v -0.100000 0.000000 -1.900000
v -0.040000 0.050000 -1.950000
v -0.100000 0.000000 -2.900000
v -0.040000 0.050000 -2.850000
v 1.100000 0.000000 -1.900000
v 1.040000 0.050000 -1.950000
v 1.100000 0.000000 -2.900000
v 1.040000 0.050000 -2.850000
v -2.900000 0.000000 0.900000
v -2.815000 0.050000 0.815000
v -2.900000 0.000000 -0.800000
v -2.815000 0.050000 -0.715000
v -1.200000 0.000000 0.900000
v -1.285000 0.050000 0.815000
v -1.200000 0.000000 -0.800000
v -1.285000 0.050000 -0.715000
v -2.235000 0.050000 -1.285000
v -2.200000 0.000000 -1.300000
v -2.235000 0.050000 -1.015000
v -2.200000 0.000000 -1.000000
v -2.865000 0.050000 -1.285000
v -2.900000 0.000000 -1.300000
v -2.865000 0.050000 -1.015000
v -2.900000 0.000000 -1.000000
v -1.715000 0.050000 -1.285000
v -1.700000 0.000000 -1.300000
v -1.715000 0.050000 -1.015000
v -1.700000 0.000000 -1.000000
v -1.985000 0.050000 -1.285000
v -2.000000 0.000000 -1.300000
v -1.985000 0.050000 -1.015000
v -2.000000 0.000000 -1.000000
v -1.725000 0.050000 1.115000
v -1.700000 0.000000 1.100000
v -1.725000 0.050000 1.385000
v -1.700000 0.000000 1.400000
v -2.175000 0.050000 1.115000
v -2.200000 0.000000 1.100000
v -2.175000 0.050000 1.385000
v -2.200000 0.000000 1.400000
v -2.425000 0.050000 1.115000
v -2.400000 0.000000 1.100000
v -2.425000 0.050000 1.385000
v -2.400000 0.000000 1.400000
v -2.875000 0.050000 1.115000
v -2.900000 0.000000 1.100000
v -2.875000 0.050000 1.385000
v -2.900000 0.000000 1.400000
v -0.100000 0.000000 -1.000000
v -0.040000 0.050000 -1.035000
v -0.100000 0.000000 -1.700000
v -0.040000 0.050000 -1.665000
v 1.100000 0.000000 -1.000000
v 1.040000 0.050000 -1.035000
v 1.100000 0.000000 -1.700000
v 1.040000 0.050000 -1.665000
v 1.300000 0.000000 -2.200000
v 1.380000 0.050000 -2.235000
v 1.300000 0.000000 -2.900000
v 1.380000 0.050000 -2.865000
v 2.900000 0.000000 -2.200000
v 2.820000 0.050000 -2.235000
v 2.900000 0.000000 -2.900000
v 2.820000 0.050000 -2.865000
v 1.300000 0.000000 -0.600000
v 1.345000 0.050000 -0.675000
v 1.300000 0.000000 -2.100000
v 1.345000 0.050000 -2.025000
v 2.200000 0.000000 -0.600000
v 2.155000 0.050000 -0.675000
v 2.200000 0.000000 -2.100000
v 2.155000 0.050000 -2.025000
v 2.400000 0.000000 -1.500000
v 2.425000 0.050000 -1.530000
v 2.400000 0.000000 -2.100000
v 2.425000 0.050000 -2.070000
v 2.900000 0.000000 -1.500000
v 2.875000 0.050000 -1.530000
v 2.900000 0.000000 -2.100000
v 2.875000 0.050000 -2.070000
v 2.400000 0.000000 -0.600000
v 2.425000 0.050000 -0.635000
v 2.400000 0.000000 -1.300000
v 2.425000 0.050000 -1.265000
v 2.900000 0.000000 -0.600000
v 2.875000 0.050000 -0.635000
v 2.900000 0.000000 -1.300000
v 2.875000 0.050000 -1.265000
v -0.240000 0.050000 -0.770000
v -0.200000 0.000000 -0.800000
v -0.240000 0.050000 -0.230000
v -0.200000 0.000000 -0.200000
v -0.960000 0.050000 -0.770000
v -1.000000 0.000000 -0.800000
v -0.960000 0.050000 -0.230000
v -1.000000 0.000000 -0.200000
v 1.045000 0.050000 -0.770000
v 1.100000 0.000000 -0.800000
v 1.045000 0.050000 -0.230000
v 1.100000 0.000000 -0.200000
v 0.055000 0.050000 -0.770000
v -0.000000 0.000000 -0.800000
v 0.055000 0.050000 -0.230000
v -0.000000 0.000000 -0.200000
v -1.000000 0.000000 0.900000
v -0.935000 0.050000 0.855000
v -1.000000 0.000000 0.000000
v -0.935000 0.050000 0.045000
v 0.300000 0.000000 0.900000
v 0.235000 0.050000 0.855000
v 0.300000 0.000000 0.000000
v 0.235000 0.050000 0.045000
vt 0.375000 0.000000
vt 0.625000 0.000000
vt 0.625000 0.250000
vt 0.375000 0.250000
vt 0.625000 0.500000
vt 0.375000 0.500000
vt 0.625000 0.750000
vt 0.375000 0.750000
vt 0.625000 1.000000
vt 0.375000 1.000000
vt 0.125000 0.500000
vt 0.125000 0.750000
vt 0.875000 0.500000
vt 0.875000 0.750000
vt 0.375000 0.000000
vt 0.625000 0.000000
vt 0.625000 0.250000
vt 0.375000 0.250000
vt 0.625000 0.500000
vt 0.375000 0.500000
vt 0.625000 0.750000
vt 0.375000 0.750000
vt 0.625000 1.000000
vt 0.375000 1.000000
vt 0.125000 0.500000
vt 0.125000 0.750000
vt 0.875000 0.500000
vt 0.875000 0.750000
vt 0.375000 0.000000
vt 0.625000 0.000000
vt 0.625000 0.250000
vt 0.375000 0.250000
vt 0.625000 0.500000
vt 0.375000 0.500000
vt 0.625000 0.750000
vt 0.375000 0.750000
vt 0.625000 1.000000
vt 0.375000 1.000000
vt 0.125000 0.500000
vt 0.125000 0.750000
vt 0.875000 0.500000
vt 0.875000 0.750000
vt 0.375000 0.000000
vt 0.625000 0.000000
vt 0.625000 0.250000
vt 0.375000 0.250000
vt 0.625000 0.500000
vt 0.375000 0.500000
vt 0.625000 0.750000
vt 0.375000 0.750000
vt 0.625000 1.000000
vt 0.375000 1.000000
vt 0.125000 0.500000
vt 0.125000 0.750000
vt 0.875000 0.500000
vt 0.875000 0.750000
vt 0.375000 0.000000
vt 0.625000 0.000000
vt 0.625000 0.250000
vt 0.375000 0.250000
vt 0.625000 0.500000
vt 0.375000 0.500000
vt 0.625000 0.750000
vt 0.375000 0.750000
vt 0.625000 1.000000
vt 0.375000 1.000000
vt 0.125000 0.500000
vt 0.125000 0.750000
vt 0.875000 0.500000
vt 0.875000 0.750000
vt 0.375000 0.000000
vt 0.625000 0.000000
vt 0.625000 0.250000
vt 0.375000 0.250000
vt 0.625000 0.500000
vt 0.375000 0.500000
vt 0.625000 0.750000
vt 0.375000 0.750000
vt 0.625000 1.000000
vt 0.375000 1.000000
vt 0.125000 0.500000
vt 0.125000 0.750000
vt 0.875000 0.500000
vt 0.875000 0.750000
vt 0.375000 0.000000
vt 0.625000 0.000000
vt 0.625000 0.250000
vt 0.375000 0.250000
vt 0.625000 0.500000
vt 0.375000 0.500000
vt 0.625000 0.750000
vt 0.375000 0.750000
vt 0.625000 1.000000
vt 0.375000 1.000000
vt 0.125000 0.500000
vt 0.125000 0.750000
vt 0.875000 0.500000
vt 0.875000 0.750000
vt 0.375000 0.000000
vt 0.625000 0.000000
vt 0.625000 0.250000
vt 0.375000 0.250000
vt 0.625000 0.500000
vt 0.375000 0.500000
vt 0.625000 0.750000
vt 0.375000 0.750000
vt 0.625000 1.000000
vt 0.375000 1.000000
vt 0.125000 0.500000
vt 0.125000 0.750000
vt 0.875000 0.500000
vt 0.875000 0.750000
vt 0.375000 0.000000
vt 0.625000 0.000000
vt 0.625000 0.250000
vt 0.375000 0.250000
vt 0.625000 0.500000
vt 0.375000 0.500000
vt 0.625000 0.750000
vt 0.375000 0.750000
vt 0.625000 1.000000
vt 0.375000 1.000000
vt 0.125000 0.500000
vt 0.125000 0.750000
vt 0.875000 0.500000
vt 0.875000 0.750000
vt 0.375000 0.000000
vt 0.625000 0.000000
vt 0.625000 0.250000
vt 0.375000 0.250000
vt 0.625000 0.500000
vt 0.375000 0.500000
vt 0.625000 0.750000
vt 0.375000 0.750000
vt 0.625000 1.000000
vt 0.375000 1.000000
vt 0.125000 0.500000
vt 0.125000 0.750000
vt 0.875000 0.500000
vt 0.875000 0.750000
vt 0.375000 0.000000
vt 0.625000 0.000000
vt 0.625000 0.250000
vt 0.375000 0.250000
vt 0.625000 0.500000
vt 0.375000 0.500000
vt 0.625000 0.750000
vt 0.375000 0.750000
vt 0.625000 1.000000
vt 0.375000 1.000000
vt 0.125000 0.500000
vt 0.125000 0.750000
vt 0.875000 0.500000
vt 0.875000 0.750000
vt 0.375000 0.500000
vt 0.625000 0.500000
vt 0.625000 0.750000
vt 0.375000 0.750000
vt 0.375000 0.250000
vt 0.625000 0.250000
vt 0.875000 0.500000
vt 0.875000 0.750000
vt 0.625000 1.000000
vt 0.375000 1.000000
vt 0.375000 0.000000
vt 0.625000 0.000000
vt 0.125000 0.500000
vt 0.125000 0.750000
vt 0.625000 0.500000
vt 0.875000 0.500000
vt 0.875000 0.750000
vt 0.625000 0.750000
vt 0.375000 0.250000
vt 0.625000 0.250000
vt 0.375000 0.500000
vt 0.125000 0.500000
vt 0.375000 0.750000
vt 0.125000 0.750000
vt 0.625000 1.000000
vt 0.375000 1.000000
vt 0.375000 0.000000
vt 0.625000 0.000000
vt 0.125000 0.500000
vt 0.375000 0.500000
vt 0.375000 0.750000
vt 0.125000 0.750000
vt 0.375000 0.250000
vt 0.625000 0.250000
vt 0.625000 0.500000
vt 0.375000 0.000000
vt 0.625000 0.000000
vt 0.625000 0.750000
vt 0.625000 1.000000
vt 0.375000 1.000000
vt 0.875000 0.500000
vt 0.875000 0.750000
vt 0.375000 0.000000
vt 0.625000 0.000000
vt 0.625000 0.250000
vt 0.375000 0.250000
vt 0.625000 0.500000
vt 0.375000 0.500000
vt 0.625000 0.750000
vt 0.375000 0.750000
vt 0.625000 1.000000
vt 0.375000 1.000000
vt 0.125000 0.500000
vt 0.125000 0.750000
vt 0.875000 0.500000
vt 0.875000 0.750000
vt 0.375000 0.000000
vt 0.625000 0.000000
vt 0.625000 0.250000
vt 0.375000 0.250000
vt 0.625000 0.500000
vt 0.375000 0.500000
vt 0.625000 0.750000
vt 0.375000 0.750000
vt 0.625000 1.000000
vt 0.375000 1.000000
vt 0.125000 0.500000
vt 0.125000 0.750000
vt 0.875000 0.500000
vt 0.875000 0.750000
vt 0.375000 0.500000
vt 0.625000 0.500000
vt 0.625000 0.750000
vt 0.375000 0.750000
vt 0.375000 0.250000
vt 0.625000 0.250000
vt 0.875000 0.500000
vt 0.875000 0.750000
vt 0.625000 1.000000
vt 0.375000 1.000000
vt 0.375000 0.000000
vt 0.625000 0.000000
vt 0.125000 0.500000
vt 0.125000 0.750000
vt 0.375000 0.500000
vt 0.625000 0.500000
vt 0.625000 0.750000
vt 0.375000 0.750000
vt 0.375000 0.250000
vt 0.625000 0.250000
vt 0.875000 0.500000
vt 0.875000 0.750000
vt 0.625000 1.000000
vt 0.375000 1.000000
vt 0.375000 0.000000
vt 0.625000 0.000000
vt 0.125000 0.500000
vt 0.125000 0.750000
vt 0.375000 0.500000
vt 0.625000 0.500000
vt 0.625000 0.750000
vt 0.375000 0.750000
vt 0.375000 0.250000
vt 0.625000 0.250000
vt 0.875000 0.500000
vt 0.875000 0.750000
vt 0.625000 1.000000
vt 0.375000 1.000000
vt 0.375000 0.000000
vt 0.625000 0.000000
vt 0.125000 0.500000
vt 0.125000 0.750000
vt 0.375000 0.500000
vt 0.625000 0.500000
vt 0.625000 0.750000
vt 0.375000 0.750000
vt 0.375000 0.250000
vt 0.625000 0.250000
vt 0.875000 0.500000
vt 0.875000 0.750000
vt 0.625000 1.000000
vt 0.375000 1.000000
vt 0.375000 0.000000
vt 0.625000 0.000000
vt 0.125000 0.500000
vt 0.125000 0.750000
vt 0.375000 0.000000
vt 0.625000 0.000000
vt 0.625000 0.250000
vt 0.375000 0.250000
vt 0.625000 0.500000
vt 0.375000 0.500000
vt 0.625000 0.750000
vt 0.375000 0.750000
vt 0.625000 1.000000
vt 0.375000 1.000000
vt 0.125000 0.500000
vt 0.125000 0.750000
vt 0.875000 0.500000
vt 0.875000 0.750000
vt 0.375000 0.000000
vt 0.625000 0.000000
vt 0.625000 0.250000
vt 0.375000 0.250000
vt 0.625000 0.500000
vt 0.375000 0.500000
vt 0.625000 0.750000
vt 0.375000 0.750000
vt 0.625000 1.000000
vt 0.375000 1.000000
vt 0.125000 0.500000
vt 0.125000 0.750000
vt 0.875000 0.500000
vt 0.875000 0.750000
vt 0.375000 0.000000
vt 0.625000 0.000000
vt 0.625000 0.250000
vt 0.375000 0.250000
vt 0.625000 0.500000
vt 0.375000 0.500000
vt 0.625000 0.750000
vt 0.375000 0.750000
vt 0.625000 1.000000
vt 0.375000 1.000000
vt 0.125000 0.500000
vt 0.125000 0.750000
vt 0.875000 0.500000
vt 0.875000 0.750000
vt 0.375000 0.000000
vt 0.625000 0.000000
vt 0.625000 0.250000
vt 0.375000 0.250000
vt 0.625000 0.500000
vt 0.375000 0.500000
vt 0.625000 0.750000
vt 0.375000 0.750000
vt 0.625000 1.000000
vt 0.375000 1.000000
vt 0.125000 0.500000
vt 0.125000 0.750000
vt 0.875000 0.500000
vt 0.875000 0.750000
vt 0.375000 0.000000
vt 0.625000 0.000000
vt 0.625000 0.250000
vt 0.375000 0.250000
vt 0.625000 0.500000
vt 0.375000 0.500000
vt 0.625000 0.750000
vt 0.375000 0.750000
vt 0.625000 1.000000
vt 0.375000 1.000000
vt 0.125000 0.500000
vt 0.125000 0.750000
vt 0.875000 0.500000
vt 0.875000 0.750000
vt 0.125000 0.500000
vt 0.375000 0.500000
vt 0.375000 0.750000
vt 0.125000 0.750000
vt 0.375000 0.250000
vt 0.625000 0.250000
vt 0.625000 0.500000
vt 0.375000 0.000000
vt 0.625000 0.000000
vt 0.625000 0.750000
vt 0.625000 1.000000
vt 0.375000 1.000000
vt 0.875000 0.500000
vt 0.875000 0.750000
vt 0.375000 0.500000
vt 0.625000 0.500000
vt 0.625000 0.750000
vt 0.375000 0.750000
vt 0.375000 0.250000
vt 0.625000 0.250000
vt 0.875000 0.500000
vt 0.875000 0.750000
vt 0.625000 1.000000
vt 0.375000 1.000000
vt 0.375000 0.000000
vt 0.625000 0.000000
vt 0.125000 0.500000
vt 0.125000 0.750000
vt 0.375000 0.000000
vt 0.625000 0.000000
vt 0.625000 0.250000
vt 0.375000 0.250000
vt 0.625000 0.500000
vt 0.375000 0.500000
vt 0.625000 0.750000
vt 0.375000 0.750000
vt 0.625000 1.000000
vt 0.375000 1.000000
vt 0.125000 0.500000
vt 0.125000 0.750000
vt 0.875000 0.500000
vt 0.875000 0.750000
vn -0.5300 0.8480 0.0000
vn 0.0000 0.8619 -0.5070
vn 0.5300 0.8480 0.0000
vn 0.0000 0.8619 0.5070
vn 0.0000 -1.0000 0.0000
vn 0.0000 1.0000 0.0000
vn -0.6402 0.7682 0.0000
vn 0.0000 0.8137 -0.5812
vn 0.6402 0.7682 0.0000
vn 0.0000 0.8137 0.5812
vn 0.0000 0.7926 -0.6097
vn 0.0000 0.7926 0.6097
vn 0.0000 0.5145 -0.8575
vn 0.0000 0.5145 0.8575
vn -0.4856 0.8742 0.0000
vn -0.2822 0.9593 0.0000
vn 0.0000 0.7071 -0.7071
vn 0.4856 0.8742 0.0000
vn 0.2822 0.9593 0.0000
vn 0.0000 0.7071 0.7071
vn -0.9285 0.3714 0.0000
vn 0.9285 0.3714 0.0000
vn -0.7071 0.7071 0.0000
vn 0.7071 0.7071 0.0000
vn -0.8575 0.5145 0.0000
vn 0.8575 0.5145 0.0000
vn -0.9806 0.1961 0.0000
vn 0.0000 0.3714 -0.9285
vn 0.9806 0.1961 0.0000
vn 0.0000 0.3714 0.9285
vn 0.7809 0.6247 0.0000
vn -0.7809 0.6247 0.0000
vn -0.5070 0.8619 0.0000
vn 0.5070 0.8619 0.0000
vn 0.8192 0.5735 0.0000
vn 0.0000 0.2873 -0.9578
vn 0.0000 0.2873 0.9578
vn -0.8192 0.5735 0.0000
vn 0.9578 0.2873 0.0000
vn -0.9578 0.2873 0.0000
vn 0.8944 0.4472 0.0000
vn -0.8944 0.4472 0.0000
vn 0.0000 0.5735 -0.8192
vn 0.0000 0.5735 0.8192
vn -0.7433 0.6690 0.0000
vn 0.0000 0.8321 -0.5547
vn 0.7433 0.6690 0.0000
vn 0.0000 0.8321 0.5547
vn 0.6727 0.7399 0.0000
vn -0.6727 0.7399 0.0000
vn -0.6097 0.7926 0.0000
vn 0.0000 0.6690 -0.7433
vn 0.6097 0.7926 0.0000
vn 0.0000 0.6690 0.7433
usemtl Stone
s 1
f 1/1/1 2/2/1 4/3/1 3/4/1
s 2
f 3/4/2 4/3/2 8/5/2 7/6/2
s 3
f 7/6/3 8/5/3 6/7/3 5/8/3
s 4
f 5/8/4 6/7/4 2/9/4 1/10/4
s 5
f 3/11/5 7/6/5 5/8/5 1/12/5
s 6
f 8/5/6 4/13/6 2/14/6 6/7/6
s 7
f 9/15/7 10/16/7 12/17/7 11/18/7
s 8
f 11/18/8 12/17/8 16/19/8 15/20/8
s 9
f 15/20/9 16/19/9 14/21/9 13/22/9
s 10
f 13/22/10 14/21/10 10/23/10 9/24/10
s 11
f 11/25/5 15/20/5 13/22/5 9/26/5
s 12
f 16/19/6 12/27/6 10/28/6 14/21/6
s 13
f 17/29/7 18/30/7 20/31/7 19/32/7
s 14
f 19/32/11 20/31/11 24/33/11 23/34/11
s 15
f 23/34/9 24/33/9 22/35/9 21/36/9
s 16
f 21/36/12 22/35/12 18/37/12 17/38/12
s 17
f 19/39/5 23/34/5 21/36/5 17/40/5
s 18
f 24/33/6 20/41/6 18/42/6 22/35/6
s 19
f 25/43/7 26/44/7 28/45/7 27/46/7
s 20
f 27/46/13 28/45/13 32/47/13 31/48/13
s 21
f 31/48/9 32/47/9 30/49/9 29/50/9
s 22
f 29/50/14 30/49/14 26/51/14 25/52/14
s 23
f 27/53/5 31/48/5 29/50/5 25/54/5
s 24
f 32/47/6 28/55/6 26/56/6 30/49/6
s 25
f 33/57/15 34/58/16 36/59/16 35/60/15
s 26
f 35/60/17 36/59/17 40/61/17 39/62/17
s 27
f 39/62/18 40/61/19 38/63/19 37/64/18
s 28
f 37/64/20 38/63/20 34/65/20 33/66/20
s 29
f 35/67/5 39/62/5 37/64/5 33/68/5
s 30
f 40/61/19 36/69/16 34/70/16 38/63/19
s 31
f 41/71/21 42/72/21 44/73/21 43/74/21
s 32
f 43/74/13 44/73/13 48/75/13 47/76/13
s 33
f 47/76/22 48/75/22 46/77/22 45/78/22
s 34
f 45/78/14 46/77/14 42/79/14 41/80/14
s 35
f 43/81/5 47/76/5 45/78/5 41/82/5
s 36
f 48/75/6 44/83/6 42/84/6 46/77/6
s 37
f 49/85/23 50/86/23 52/87/23 51/88/23
s 38
f 51/88/13 52/87/13 56/89/13 55/90/13
s 39
f 55/90/24 56/89/24 54/91/24 53/92/24
s 40
f 53/92/14 54/91/14 50/93/14 49/94/14
s 41
f 51/95/5 55/90/5 53/92/5 49/96/5
s 42
f 56/89/6 52/97/6 50/98/6 54/91/6
s 43
f 57/99/21 58/100/21 60/101/21 59/102/21
s 44
f 59/102/13 60/101/13 64/103/13 63/104/13
s 45
f 63/104/22 64/103/22 62/105/22 61/106/22
s 46
f 61/106/14 62/105/14 58/107/14 57/108/14
s 47
f 59/109/5 63/104/5 61/106/5 57/110/5
s 48
f 64/103/6 60/111/6 58/112/6 62/105/6
s 49
f 65/113/21 66/114/21 68/115/21 67/116/21
s 50
f 67/116/13 68/115/13 72/117/13 71/118/13
s 51
f 71/118/22 72/117/22 70/119/22 69/120/22
s 52
f 69/120/14 70/119/14 66/121/14 65/122/14
s 53
f 67/123/5 71/118/5 69/120/5 65/124/5
s 54
f 72/117/6 68/125/6 66/126/6 70/119/6
s 55
f 73/127/25 74/128/25 76/129/25 75/130/25
s 56
f 75/130/11 76/129/11 80/131/11 79/132/11
s 57
f 79/132/26 80/131/26 78/133/26 77/134/26
s 58
f 77/134/12 78/133/12 74/135/12 73/136/12
s 59
f 75/137/5 79/132/5 77/134/5 73/138/5
s 60
f 80/131/6 76/139/6 74/140/6 78/133/6
s 61
f 81/141/27 82/142/27 84/143/27 83/144/27
s 62
f 83/144/28 84/143/28 88/145/28 87/146/28
s 63
f 87/146/29 88/145/29 86/147/29 85/148/29
s 64
f 85/148/30 86/147/30 82/149/30 81/150/30
s 65
f 83/151/5 87/146/5 85/148/5 81/152/5
s 66
f 88/145/6 84/153/6 82/154/6 86/147/6
s 67
f 90/155/31 89/156/31 91/157/31 92/158/31
s 68
f 94/159/28 93/160/28 89/156/28 90/155/28
s 69
f 89/156/6 93/161/6 95/162/6 91/157/6
s 70
f 92/158/30 91/157/30 95/163/30 96/164/30
s 71
f 96/165/32 95/166/32 93/160/32 94/159/32
s 72
f 94/167/5 90/155/5 92/158/5 96/168/5
s 73
f 104/169/6 100/170/6 98/171/6 102/172/6
s 74
f 99/173/11 100/174/11 104/169/11 103/175/11
s 75
f 99/176/5 103/175/5 101/177/5 97/178/5
s 76
f 101/177/12 102/172/12 98/179/12 97/180/12
s 77
f 103/175/9 104/169/9 102/172/9 101/177/9
s 78
f 97/181/7 98/182/7 100/174/7 99/173/7
s 79
f 110/183/5 106/184/5 108/185/5 112/186/5
s 80
f 110/187/8 109/188/8 105/189/8 106/184/8
s 81
f 112/190/7 111/191/7 109/188/7 110/187/7
s 82
f 108/185/10 107/192/10 111/193/10 112/194/10
s 83
f 105/189/6 109/195/6 111/196/6 107/192/6
s 84
f 106/184/9 105/189/9 107/192/9 108/185/9
s 85
f 113/197/7 114/198/7 116/199/7 115/200/7
s 86
f 115/200/17 116/199/17 120/201/17 119/202/17
s 87
f 119/202/9 120/201/9 118/203/9 117/204/9
s 88
f 117/204/20 118/203/20 114/205/20 113/206/20
s 89
f 115/207/5 119/202/5 117/204/5 113/208/5
s 90
f 120/201/6 116/209/6 114/210/6 118/203/6
s 91
f 121/211/33 122/212/33 124/213/33 123/214/33
s 92
f 123/214/2 124/213/2 128/215/2 127/216/2
s 93
f 127/216/34 128/215/34 126/217/34 125/218/34
s 94
f 125/218/4 126/217/4 122/219/4 121/220/4
s 95
f 123/221/5 127/216/5 125/218/5 121/222/5
s 96
f 128/215/6 124/223/6 122/224/6 126/217/6
s 97
f 130/225/35 129/226/35 131/227/35 132/228/35
s 98
f 134/229/36 133/230/36 129/226/36 130/225/36
s 99
f 129/226/6 133/231/6 135/232/6 131/227/6
s 100
f 132/228/37 131/227/37 135/233/37 136/234/37
s 101
f 136/235/38 135/236/38 133/230/38 134/229/38
s 102
f 134/237/5 130/225/5 132/228/5 136/238/5
s 103
f 138/239/39 137/240/39 139/241/39 140/242/39
s 104
f 142/243/36 141/244/36 137/240/36 138/239/36
s 105
f 137/240/6 141/245/6 143/246/6 139/241/6
s 106
f 140/242/37 139/241/37 143/247/37 144/248/37
s 107
f 144/249/40 143/250/40 141/244/40 142/243/40
s 108
f 142/251/5 138/239/5 140/242/5 144/252/5
s 109
f 146/253/41 145/254/41 147/255/41 148/256/41
s 110
f 150/257/36 149/258/36 145/254/36 146/253/36
s 111
f 145/254/6 149/259/6 151/260/6 147/255/6
s 112
f 148/256/37 147/255/37 151/261/37 152/262/37
s 113
f 152/263/42 151/264/42 149/258/42 150/257/42
s 114
f 150/265/5 146/253/5 148/256/5 152/266/5
s 115
f 154/267/41 153/268/41 155/269/41 156/270/41
s 116
f 158/271/36 157/272/36 153/268/36 154/267/36
s 117
f 153/268/6 157/273/6 159/274/6 155/269/6
s 118
f 156/270/37 155/269/37 159/275/37 160/276/37
s 119
f 160/277/42 159/278/42 157/272/42 158/271/42
s 120
f 158/279/5 154/267/5 156/270/5 160/280/5
s 121
f 161/281/7 162/282/7 164/283/7 163/284/7
s 122
f 163/284/43 164/283/43 168/285/43 167/286/43
s 123
f 167/286/9 168/285/9 166/287/9 165/288/9
s 124
f 165/288/44 166/287/44 162/289/44 161/290/44
s 125
f 163/291/5 167/286/5 165/288/5 161/292/5
s 126
f 168/285/6 164/293/6 162/294/6 166/287/6
s 127
f 169/295/1 170/296/1 172/297/1 171/298/1
s 128
f 171/298/43 172/297/43 176/299/43 175/300/43
s 129
f 175/300/3 176/299/3 174/301/3 173/302/3
s 130
f 173/302/44 174/301/44 170/303/44 169/304/44
s 131
f 171/305/5 175/300/5 173/302/5 169/306/5
s 132
f 176/299/6 172/307/6 170/308/6 174/301/6
s 133
f 177/309/45 178/310/45 180/311/45 179/312/45
s 134
f 179/312/46 180/311/46 184/313/46 183/314/46
s 135
f 183/314/47 184/313/47 182/315/47 181/316/47
s 136
f 181/316/48 182/315/48 178/317/48 177/318/48
s 137
f 179/319/5 183/314/5 181/316/5 177/320/5
s 138
f 184/313/6 180/321/6 178/322/6 182/315/6
s 139
f 185/323/42 186/324/42 188/325/42 187/326/42
s 140
f 187/326/13 188/325/13 192/327/13 191/328/13
s 141
f 191/328/41 192/327/41 190/329/41 189/330/41
s 142
f 189/330/14 190/329/14 186/331/14 185/332/14
s 143
f 187/333/5 191/328/5 189/330/5 185/334/5
s 144
f 192/327/6 188/335/6 186/336/6 190/329/6
s 145
f 193/337/42 194/338/42 196/339/42 195/340/42
s 146
f 195/340/43 196/339/43 200/341/43 199/342/43
s 147
f 199/342/41 200/341/41 198/343/41 197/344/41
s 148
f 197/344/44 198/343/44 194/345/44 193/346/44
s 149
f 195/347/5 199/342/5 197/344/5 193/348/5
s 150
f 200/341/6 196/349/6 194/350/6 198/343/6
s 151
f 206/351/5 202/352/5 204/353/5 208/354/5
s 152
f 206/355/13 205/356/13 201/357/13 202/352/13
s 153
f 208/358/32 207/359/32 205/356/32 206/355/32
s 154
f 204/353/14 203/360/14 207/361/14 208/362/14
s 155
f 201/357/6 205/363/6 207/364/6 203/360/6
s 156
f 202/352/31 201/357/31 203/360/31 204/353/31
s 157
f 210/365/49 209/366/49 211/367/49 212/368/49
s 158
f 214/369/13 213/370/13 209/366/13 210/365/13
s 159
f 209/366/6 213/371/6 215/372/6 211/367/6
s 160
f 212/368/14 211/367/14 215/373/14 216/374/14
s 161
f 216/375/50 215/376/50 213/370/50 214/369/50
s 162
f 214/377/5 210/365/5 212/368/5 216/378/5
s 163
f 217/379/51 218/380/51 220/381/51 219/382/51
s 164
f 219/382/52 220/381/52 224/383/52 223/384/52
s 165
f 223/384/53 224/383/53 222/385/53 221/386/53
s 166
f 221/386/54 222/385/54 218/387/54 217/388/54
s 167
f 219/389/5 223/384/5 221/386/5 217/390/5
s 168
f 224/383/6 220/391/6 218/392/6 222/385/6
