# Blender v2.80 (sub 75) OBJ File: 'DungeonExport.blend'
# www.blender.org
mtllib hammer_uncommon.mtl
o hammer_uncommon_Cube.1975
v 0.224784 0.264515 0.121379
v 0.224784 0.264515 -0.121378
v -0.226371 0.623267 0.121197
v -0.226371 0.623267 -0.121196
v 0.226344 0.623264 0.121197
v -0.224811 0.264519 0.121378
v -0.224811 0.264518 -0.121379
v 0.226344 0.623264 -0.121196
v -0.366702 0.267207 -0.111147
v 0.368108 0.622593 0.111427
v 0.366675 0.267204 0.111147
v -0.368135 0.622596 0.111427
v -0.368135 0.622597 -0.111427
v 0.366675 0.267203 -0.111147
v -0.366702 0.267208 0.111147
v 0.368108 0.622593 -0.111427
v 0.368529 0.583558 -0.186341
v -0.367790 0.305637 0.186017
v -0.368556 0.583564 0.186341
v -0.368556 0.583564 -0.186341
v 0.367763 0.305630 -0.186017
v 0.367763 0.305631 0.186017
v 0.225211 0.297371 -0.210487
v 0.225211 0.297371 0.210487
v 0.226110 0.589882 -0.210271
v -0.225238 0.297376 -0.210487
v -0.225238 0.297377 0.210487
v 0.226110 0.589881 0.210271
v -0.226137 0.589886 -0.210271
v -0.367790 0.305636 -0.186017
v 0.368529 0.583558 0.186341
v -0.226137 0.589886 0.210271
v -0.000009 -0.170531 0.049480
v -0.042860 -0.170531 0.024740
v -0.042860 -0.170531 -0.024740
v -0.000009 -0.170531 -0.049480
v 0.042842 -0.170531 -0.024740
v 0.042842 -0.170531 0.024740
v -0.053059 -0.197133 0.030629
v -0.000009 -0.197133 0.061257
v -0.053059 -0.197133 -0.030629
v -0.000009 -0.197133 -0.061257
v 0.053041 -0.197133 -0.030629
v 0.053041 -0.197133 0.030628
v -0.025267 -0.233018 0.014583
v -0.000009 -0.233018 0.029166
v -0.025267 -0.233018 -0.014583
v -0.000009 -0.233018 -0.029166
v 0.025250 -0.233018 -0.014583
v 0.025250 -0.233018 0.014583
v -0.024592 -0.170531 0.042580
v -0.000009 0.147070 0.033472
v -0.028997 0.147070 0.016736
v -0.049176 -0.170531 -0.000000
v -0.028997 0.147070 -0.016736
v -0.024592 -0.170531 -0.042580
v -0.000009 0.147070 -0.033472
v 0.024575 -0.170531 -0.042580
v 0.028979 0.147070 -0.016736
v 0.049159 -0.170531 -0.000000
v 0.028979 0.147070 0.016736
v 0.024575 -0.170531 0.042580
v -0.030488 -0.197133 0.052792
v -0.060968 -0.197133 -0.000000
v -0.030488 -0.197133 -0.052792
v 0.030471 -0.197133 -0.052792
v 0.060951 -0.197133 -0.000000
v 0.030471 -0.197133 0.052792
v -0.049215 -0.179244 0.028409
v -0.049215 -0.179244 -0.028409
v 0.049198 -0.179244 0.028409
v -0.000009 -0.179244 0.056818
v 0.049198 -0.179244 -0.028409
v -0.000009 -0.179244 -0.056818
v -0.013032 -0.233018 0.022556
v -0.026054 -0.233018 -0.000000
v -0.013032 -0.233018 -0.022556
v 0.013014 -0.233018 -0.022556
v 0.026037 -0.233018 -0.000000
v 0.013014 -0.233018 0.022556
v 0.042405 -0.219283 0.024488
v -0.000009 -0.219283 0.048975
v -0.042423 -0.219283 0.024488
v -0.042423 -0.219283 -0.024488
v -0.000009 -0.219283 -0.048975
v 0.042405 -0.219283 -0.024488
v 0.023699 -0.219283 -0.041062
v -0.047424 -0.219283 -0.000000
v 0.047406 -0.219283 -0.000000
v -0.023716 -0.219283 -0.041062
v -0.023716 -0.219283 0.041062
v -0.028454 -0.179226 -0.049268
v -0.028454 -0.179226 0.049268
v 0.028436 -0.179226 -0.049268
v 0.056881 -0.179226 -0.000000
v 0.028436 -0.179226 0.049268
v 0.023699 -0.219283 0.041062
v -0.056899 -0.179226 -0.000000
v 0.016728 0.147070 0.028988
v 0.033464 0.147070 0.000000
v 0.016728 0.147070 -0.028988
v -0.016745 0.147070 -0.028988
v -0.033481 0.147070 0.000000
v -0.016745 0.147070 0.028988
v -0.109629 0.605883 0.101224
v 0.138527 0.323244 0.079574
v 0.109602 0.605883 0.101224
v -0.138553 0.323245 0.079574
v 0.138527 0.323244 -0.079575
v -0.109629 0.605883 -0.101224
v -0.138553 0.323245 -0.079574
v 0.109602 0.605883 -0.101224
v 0.140064 0.567497 -0.078714
v -0.140088 0.567497 -0.078714
v 0.140064 0.567497 0.078715
v -0.140088 0.567496 0.078714
v 0.138728 0.544488 0.136389
v -0.109629 0.285605 -0.101224
v -0.138753 0.544487 0.136388
v 0.109602 0.285604 -0.101224
v 0.138728 0.544488 -0.136389
v -0.109629 0.285605 0.101223
v -0.138753 0.544487 -0.136388
v 0.137809 0.348022 -0.137262
v 0.109602 0.285604 0.101224
v -0.137835 0.348023 -0.137261
v 0.137809 0.348022 0.137263
v -0.137835 0.348023 0.137261
v 0.109928 0.574701 0.173794
v -0.109954 0.574701 0.173793
v 0.109928 0.574701 -0.173794
v -0.109954 0.574701 -0.173793
v 0.109928 0.317433 -0.173794
v -0.109954 0.317433 -0.173793
v 0.109928 0.317433 0.173794
v -0.109954 0.317434 0.173793
v 0.393804 0.580606 0.087220
v 0.392464 0.308975 -0.087022
v 0.393804 0.580606 -0.087220
v 0.392464 0.308975 0.087022
v 0.393662 0.547162 -0.142490
v 0.392951 0.341763 -0.142243
v 0.392951 0.341764 0.142243
v 0.393662 0.547162 0.142490
v -0.393831 0.580610 0.087220
v -0.392491 0.308979 -0.087022
v -0.393831 0.580610 -0.087220
v -0.392491 0.308980 0.087022
v -0.392979 0.341770 0.142243
v -0.393689 0.547168 0.142490
v -0.393689 0.547168 -0.142490
v -0.392979 0.341769 -0.142243
v -0.000009 0.314428 0.048498
v -0.042009 0.314428 0.024249
v -0.042009 0.314428 -0.024249
v -0.000009 0.314428 -0.048498
v 0.041992 0.314428 -0.024249
v 0.041992 0.314428 0.024249
v 0.024241 0.314428 0.042001
v 0.048490 0.314428 0.000000
v 0.024241 0.314428 -0.042001
v -0.024258 0.314428 -0.042001
v -0.048507 0.314428 0.000000
v -0.024258 0.314428 0.042001
v -0.000009 0.637131 0.000000
v -0.000009 0.631418 0.039219
v -0.000009 0.618510 0.048498
v -0.042009 0.618510 0.024249
v -0.033973 0.631418 0.019609
v -0.042009 0.618510 -0.024249
v -0.033973 0.631418 -0.019609
v -0.000009 0.618510 -0.048498
v -0.000009 0.631418 -0.039219
v 0.041992 0.618510 -0.024249
v 0.033956 0.631418 -0.019609
v 0.041992 0.618510 0.024249
v 0.033956 0.631418 0.019609
v 0.024241 0.618510 0.042001
v 0.019601 0.631418 0.033965
v 0.048490 0.618510 0.000000
v 0.039210 0.631418 0.000000
v 0.024241 0.618510 -0.042001
v 0.019601 0.631418 -0.033965
v -0.024258 0.618510 -0.042001
v -0.019618 0.631418 -0.033965
v -0.048507 0.618510 0.000000
v -0.039228 0.631418 0.000000
v -0.024258 0.618510 0.042001
v -0.019618 0.631418 0.033965
vt 0.416667 0.875000
vt 0.333333 0.875000
vt 0.333333 1.000000
vt 0.416667 1.000000
vt 0.833333 0.708333
vt 0.833333 0.625000
vt 0.666667 0.625000
vt 0.666667 0.708333
vt 0.333333 0.500000
vt 0.333333 0.625000
vt 0.416667 0.625000
vt 0.416667 0.500000
vt 0.416667 0.708333
vt 0.583333 0.708333
vt 0.583333 0.625000
vt 0.916667 0.875000
vt 0.833333 0.875000
vt 0.833333 1.000000
vt 0.916667 1.000000
vt 0.333333 0.708333
vt 0.166667 0.625000
vt 0.166667 0.708333
vt 0.083333 0.625000
vt 0.083333 0.500000
vt 0.916667 0.500000
vt 0.916667 0.625000
vt 0.583333 1.000000
vt 0.666667 1.000000
vt 0.666667 1.000000
vt 0.583333 1.000000
vt 0.416667 1.000000
vt 0.166667 0.875000
vt 0.166667 1.000000
vt 0.833333 1.000000
vt 0.916667 1.000000
vt 0.666667 0.875000
vt 0.416667 0.500000
vt 0.333333 0.500000
vt 0.083333 1.000000
vt 0.083333 1.000000
vt 0.166667 1.000000
vt 0.916667 1.000000
vt 0.083333 1.000000
vt 0.166667 0.500000
vt 0.583333 0.500000
vt 0.666667 0.500000
vt 0.083333 0.500000
vt 0.916667 0.500000
vt 0.916667 0.500000
vt 0.083333 0.500000
vt 0.416667 1.000000
vt 0.583333 1.000000
vt 0.833333 0.500000
vt 0.833333 0.500000
vt 0.666667 0.500000
vt 0.583333 0.500000
vt 0.333333 1.000000
vt 0.166667 0.500000
vt 0.583333 0.500000
vt 0.416667 0.500000
vt 0.583333 0.875000
vt 0.083333 0.875000
vt 0.083333 0.791667
vt 0.916667 0.791667
vt 0.916667 0.708333
vt 0.166667 0.791667
vt 0.666667 0.791667
vt 0.833333 0.791667
vt 0.333333 0.791667
vt 0.416667 0.791667
vt 0.583333 0.791667
vt 0.083333 0.708333
vt 0.666667 1.000000
vt 0.833333 1.000000
vt 0.333333 1.000000
vt 0.166667 1.000000
vt 0.666667 0.500000
vt 0.833333 0.500000
vt 0.166667 0.500000
vt 0.333333 0.500000
vt 0.916667 0.750000
vt 0.833333 0.750000
vt 0.833333 1.000000
vt 0.916667 1.000000
vt 0.750000 0.750000
vt 0.666667 0.750000
vt 0.666667 1.000000
vt 0.750000 1.000000
vt 0.583333 0.750000
vt 0.500000 0.750000
vt 0.500000 1.000000
vt 0.583333 1.000000
vt 0.416667 0.750000
vt 0.333333 0.750000
vt 0.333333 1.000000
vt 0.416667 1.000000
vt 0.250000 0.750000
vt 0.166667 0.750000
vt 0.166667 1.000000
vt 0.250000 1.000000
vt 0.083333 0.750000
vt -0.000000 0.750000
vt -0.000000 1.000000
vt 0.083333 1.000000
vt 1.000000 0.750000
vt 1.000000 1.000000
vt 0.666667 0.750000
vt 0.583333 0.750000
vt 0.083333 0.750000
vt -0.000000 0.750000
vt 0.500000 0.750000
vt 0.416667 0.750000
vt 0.333333 0.750000
vt 0.250000 0.750000
vt 0.166667 0.750000
vt 0.916667 0.750000
vt 0.833333 0.750000
vt 0.750000 0.750000
vt 1.000000 0.750000
vt 0.833333 0.750000
vt 0.900722 0.750000
vt 0.833333 0.750000
vt 0.250000 0.750000
vt 0.317389 0.750000
vt 0.250000 0.750000
vt 0.333333 0.750000
vt 0.400722 0.750000
vt 0.333333 0.750000
vt 0.583333 0.750000
vt 0.650722 0.750000
vt 0.583333 0.750000
vt 0.916667 0.750000
vt 0.984055 0.750000
vt 0.916667 0.750000
vt 0.666667 0.750000
vt 0.734055 0.750000
vt 0.666667 0.750000
vt 0.083333 0.750000
vt 0.150722 0.750000
vt 0.083333 0.750000
vt 0.083333 0.750000
vt -0.000000 0.750000
vt 0.166667 0.750000
vt 0.234055 0.750000
vt 0.166667 0.750000
vt 0.416667 0.750000
vt 0.484055 0.750000
vt 0.416667 0.750000
vt 0.500000 0.750000
vt 0.567389 0.750000
vt 0.500000 0.750000
vt 0.166667 0.750000
vt 0.750000 0.750000
vt 0.666667 0.750000
vt 0.500000 0.750000
vt 0.416667 0.750000
vt 0.250000 0.750000
vt 0.833333 0.750000
vt 0.583333 0.750000
vt 0.333333 0.750000
vt 0.916667 0.750000
vt 1.000000 0.750000
vt 0.750000 0.750000
vt 0.817389 0.750000
vt 0.750000 0.750000
vt 0.067389 0.750000
vt -0.000000 0.750000
vt -0.000000 0.750000
vt 0.750000 1.000000
vt 0.750000 1.000000
vt 0.833333 1.000000
vt 0.833333 1.000000
vt 0.083333 1.000000
vt 0.083333 1.000000
vt 0.166667 1.000000
vt 0.166667 1.000000
vt 0.083333 1.000000
vt 0.083333 1.000000
vt 0.166667 1.000000
vt 0.166667 1.000000
vt 0.250000 1.000000
vt 0.250000 1.000000
vt 0.333333 1.000000
vt 0.333333 1.000000
vt 0.416667 1.000000
vt 0.416667 1.000000
vt 0.500000 1.000000
vt 0.500000 1.000000
vt 0.916667 1.000000
vt 0.916667 1.000000
vt 1.000000 1.000000
vt 1.000000 1.000000
vt 0.583333 1.000000
vt 0.583333 1.000000
vt 0.666667 1.000000
vt 0.666667 1.000000
vt 0.457846 0.370000
vt 0.457846 0.250000
vt 0.457846 0.130000
vt 0.353923 0.070000
vt 0.250000 0.010000
vt 0.146077 0.070000
vt 0.042154 0.130000
vt 0.042154 0.250000
vt 0.042154 0.370000
vt 0.146077 0.430000
vt 0.250000 0.490000
vt 0.353923 0.430000
vt 0.916667 1.000000
vt 0.916667 1.000000
vt 1.000000 1.000000
vt 1.000000 1.000000
vt 0.583333 1.000000
vt 0.583333 1.000000
vt 0.666667 1.000000
vt 0.666667 1.000000
vt 0.250000 1.000000
vt 0.250000 1.000000
vt 0.333333 1.000000
vt 0.333333 1.000000
vt 0.750000 1.000000
vt 0.750000 1.000000
vt 0.833333 1.000000
vt 0.833333 1.000000
vt 0.416667 1.000000
vt 0.416667 1.000000
vt 0.500000 1.000000
vt 0.500000 1.000000
vt -0.000000 1.000000
vt -0.000000 1.000000
vt -0.000000 1.000000
vt -0.000000 1.000000
vn -0.6154 0.7379 -0.2770
vn -0.7929 -0.6093 0.0000
vn 0.6154 0.7379 -0.2770
vn -0.7936 -0.0004 -0.6084
vn -0.6377 -0.7175 0.2804
vn -0.7833 0.6216 0.0000
vn 0.6439 0.0041 0.7651
vn 0.0836 -0.9142 -0.3966
vn 0.1675 -0.0007 -0.9859
vn -0.5428 0.8398 0.0000
vn 0.0836 -0.9142 0.3966
vn -0.5628 -0.8266 0.0000
vn -0.0702 0.9126 -0.4029
vn 0.0702 0.9125 0.4029
vn 0.8672 -0.0032 0.4980
vn 0.6154 0.7379 0.2770
vn 0.6376 -0.7175 -0.2804
vn -0.8672 -0.0032 0.4980
vn 0.8672 -0.0032 -0.4980
vn -0.0189 -0.9998 0.0000
vn -0.1675 -0.0007 0.9859
vn 0.6439 0.0041 -0.7651
vn -0.0836 -0.9142 -0.3966
vn 0.0702 0.9125 -0.4029
vn -0.0702 0.9126 0.4029
vn -0.1675 -0.0007 -0.9859
vn 0.5628 -0.8266 0.0000
vn -0.8672 -0.0032 -0.4980
vn 0.5428 0.8398 0.0000
vn 0.0047 1.0000 0.0000
vn -0.0047 1.0000 0.0000
vn -0.6439 0.0041 -0.7651
vn 0.1675 -0.0007 0.9859
vn -0.6377 -0.7175 -0.2804
vn -0.6154 0.7379 0.2770
vn 0.0189 -0.9998 0.0000
vn -0.6439 0.0041 0.7651
vn 0.7936 -0.0004 0.6084
vn -0.8340 -0.5051 0.2220
vn 0.8254 0.5189 0.2223
vn -0.0000 -1.0000 0.0000
vn 0.7833 0.6216 0.0000
vn -0.0000 -0.0000 -1.0000
vn -0.8254 0.5189 -0.2223
vn 0.7936 -0.0004 -0.6084
vn -0.0000 -0.0000 1.0000
vn -0.8254 0.5189 0.2223
vn -0.0000 -0.9158 -0.4017
vn 0.8340 -0.5051 -0.2220
vn 0.7929 -0.6093 -0.0000
vn -0.8340 -0.5051 -0.2220
vn -0.0000 1.0000 0.0000
vn -0.7936 -0.0004 0.6084
vn -0.0836 -0.9142 0.3966
vn -0.0000 0.9188 0.3948
vn 0.8254 0.5189 -0.2223
vn -0.0000 0.9188 -0.3948
vn 0.8340 -0.5051 0.2220
vn -0.0000 -0.9158 0.4017
vn 0.8509 -0.5253 0.0000
vn 0.8917 -0.4014 0.2090
vn 0.8942 0.3920 -0.2163
vn 0.8529 0.5220 0.0000
vn 0.8917 -0.4014 -0.2089
vn 1.0000 -0.0047 -0.0000
vn 0.8942 0.3920 0.2163
vn -0.8917 -0.4014 -0.2090
vn -1.0000 -0.0047 -0.0000
vn -0.8942 0.3920 0.2163
vn -0.8917 -0.4014 0.2090
vn -0.8942 0.3920 -0.2163
vn -0.8509 -0.5253 0.0000
vn -0.8529 0.5220 0.0000
vn 0.6376 -0.7175 0.2804
vn -0.4999 -0.0201 0.8659
vn -0.8658 -0.0201 0.4999
vn -0.7962 0.3933 0.4597
vn -0.4601 0.3913 0.7970
vn -0.9998 -0.0201 -0.0000
vn -0.8659 -0.0201 -0.4999
vn -0.7962 0.3933 -0.4597
vn -0.9203 0.3913 0.0000
vn -0.4999 -0.0201 -0.8659
vn 0.0000 -0.0201 -0.9998
vn 0.0000 0.3933 -0.9194
vn -0.4601 0.3913 -0.7970
vn 0.4999 -0.0201 -0.8659
vn 0.8659 -0.0201 -0.4999
vn 0.7962 0.3933 -0.4597
vn 0.4601 0.3913 -0.7970
vn 0.9998 -0.0201 -0.0000
vn 0.8659 -0.0201 0.4999
vn 0.7962 0.3933 0.4597
vn 0.9203 0.3913 -0.0000
vn 0.4999 -0.0201 0.8659
vn -0.0000 -0.0201 0.9998
vn 0.0000 0.3933 0.9194
vn 0.4601 0.3913 0.7970
vn -0.8652 -0.0444 -0.4995
vn -0.4995 -0.0444 -0.8652
vn 0.4995 -0.0444 0.8652
vn -0.0000 -0.0444 0.9990
vn 0.0000 -0.0444 -0.9990
vn 0.4995 -0.0444 -0.8652
vn 0.8652 -0.0444 -0.4995
vn 0.9990 -0.0444 -0.0000
vn 0.8652 -0.0444 0.4995
vn -0.4995 -0.0444 0.8652
vn -0.8652 -0.0444 0.4995
vn -0.9990 -0.0444 -0.0000
vn -0.1248 0.9896 0.0721
vn -0.0721 0.9896 0.1248
vn 0.1442 0.9896 -0.0000
vn 0.1248 0.9896 -0.0721
vn 0.0721 0.9896 -0.1248
vn -0.0721 0.9896 -0.1248
vn -0.1248 0.9896 -0.0721
vn -0.0000 0.9896 0.1442
vn -0.1442 0.9896 0.0000
vn 0.0721 0.9896 0.1248
vn 0.1248 0.9896 0.0721
vn 0.4781 0.2928 0.8281
vn 0.0000 0.2928 0.9562
vn 0.0000 0.9896 -0.1442
vn 0.8281 0.2928 0.4781
vn -0.9562 0.2928 0.0000
vn -0.8281 0.2928 -0.4781
vn 0.0000 0.2928 -0.9562
vn 0.4781 0.2928 -0.8281
vn 0.9562 0.2928 -0.0000
vn -0.8281 0.2928 0.4781
vn -0.4781 0.2928 -0.8281
vn 0.8281 0.2928 -0.4781
vn -0.4781 0.2928 0.8281
vn 0.4060 0.5837 0.7032
vn 0.0000 0.5837 0.8120
vn 0.7032 0.5837 0.4060
vn 0.8120 0.5837 -0.0000
vn 0.7032 0.5837 -0.4060
vn 0.4060 0.5837 -0.7032
vn 0.0000 0.5837 -0.8120
vn -0.4060 0.5837 -0.7032
vn -0.7032 0.5837 -0.4060
vn -0.8120 0.5837 0.0000
vn -0.7032 0.5837 0.4060
vn -0.4060 0.5837 0.7032
vn -0.8979 0.4401 0.0000
vn -0.9729 0.2310 -0.0000
vn -0.8425 0.2314 0.4864
vn -0.7772 0.4411 0.4487
vn 0.3731 -0.6657 0.6463
vn 0.1526 -0.9523 0.2644
vn 0.3096 -0.9339 0.1788
vn 0.6435 -0.6692 0.3715
vn 0.4490 0.4401 0.7776
vn 0.4865 0.2310 0.8426
vn 0.8425 0.2314 0.4864
vn 0.7772 0.4411 0.4487
vn 0.8979 0.4401 0.0000
vn 0.9729 0.2310 0.0000
vn 0.8425 0.2314 -0.4864
vn 0.7772 0.4411 -0.4487
vn 0.4490 0.4401 -0.7776
vn 0.4865 0.2310 -0.8426
vn 0.0000 0.2314 -0.9728
vn 0.0000 0.4411 -0.8975
vn -0.4490 0.4401 0.7776
vn -0.4865 0.2310 0.8426
vn 0.0000 0.2314 0.9728
vn 0.0000 0.4411 0.8975
vn -0.4490 0.4401 -0.7776
vn -0.4865 0.2310 -0.8426
vn -0.8425 0.2314 -0.4864
vn -0.7772 0.4411 -0.4487
vn -0.3096 -0.9339 0.1788
vn -0.3053 -0.9523 0.0000
vn -0.3096 -0.9339 -0.1788
vn -0.1526 -0.9523 -0.2644
vn -0.0000 -0.9339 -0.3575
vn 0.1526 -0.9523 -0.2644
vn 0.3096 -0.9339 -0.1788
vn 0.3053 -0.9523 -0.0000
vn 0.0000 -0.9339 0.3575
vn -0.1526 -0.9523 0.2644
vn -0.3731 -0.6657 0.6463
vn 0.0000 -0.6692 0.7431
vn -0.3731 -0.6657 -0.6463
vn -0.6435 -0.6692 -0.3715
vn 0.7463 -0.6657 -0.0000
vn 0.6435 -0.6692 -0.3715
vn -0.7463 -0.6657 0.0000
vn -0.6435 -0.6692 0.3715
vn 0.3731 -0.6657 -0.6463
vn -0.0000 -0.6692 -0.7431
vn 0.7465 -0.5070 -0.4310
vn 0.4328 -0.5006 -0.7497
vn 0.0000 -0.5070 -0.8619
vn -0.7465 -0.5070 -0.4310
vn -0.8657 -0.5006 0.0000
vn -0.7465 -0.5070 0.4310
vn 0.7465 -0.5070 0.4310
vn 0.8657 -0.5006 0.0000
vn -0.4328 -0.5006 -0.7497
vn -0.4328 -0.5006 0.7497
vn 0.0000 -0.5070 0.8619
vn 0.4328 -0.5006 0.7497
usemtl Metal
s 1
f 121/1/1 113/2/1 8/3/1 25/4/1
s 2
f 122/5/2 108/6/2 111/7/2 118/8/2
s 3
f 4/9/3 114/10/3 123/11/3 29/12/3
s 4
f 132/13/4 134/14/4 126/15/4 123/11/4
s 5
f 127/16/5 106/17/5 1/18/5 24/19/5
s 6
f 110/20/6 114/10/6 116/21/6 105/22/6
s 7
f 119/23/7 32/24/7 27/25/7 128/26/7
s 8
f 21/27/8 14/28/8 2/29/8 23/30/8
s 9
f 17/31/9 21/27/9 23/30/9 25/4/9
s 10
f 115/32/10 5/33/10 8/3/10 113/2/10
s 11
f 1/18/11 11/34/11 22/35/11 24/19/11
s 12
f 109/36/12 2/29/12 1/18/12 106/17/12
s 13
f 20/37/13 13/38/13 4/9/13 29/12/13
s 14
f 28/39/14 31/40/14 10/41/14 5/33/14
s 15
f 143/42/15 144/43/15 31/40/15 22/35/15
s 16
f 119/23/16 116/21/16 3/44/16 32/24/16
s 17
f 26/45/17 126/15/17 111/7/17 7/46/17
s 18
f 150/47/18 149/48/18 18/49/18 19/50/18
s 19
f 141/51/19 142/52/19 21/27/19 17/31/19
s 20
f 6/53/20 15/54/20 9/55/20 7/46/20
s 21
f 19/50/21 18/49/21 27/25/21 32/24/21
s 22
f 26/45/22 29/12/22 123/11/22 126/15/22
s 23
f 9/55/23 30/56/23 26/45/23 7/46/23
s 24
f 8/3/24 16/57/24 17/31/24 25/4/24
s 25
f 3/44/25 12/58/25 19/50/25 32/24/25
s 26
f 20/37/26 29/12/26 26/45/26 30/56/26
s 27
f 111/7/27 108/6/27 6/53/27 7/46/27
s 28
f 152/59/28 151/60/28 20/37/28 30/56/28
s 29
f 116/21/29 114/10/29 4/9/29 3/44/29
s 30
f 5/33/30 10/41/30 16/57/30 8/3/30
s 31
f 4/9/31 13/38/31 12/58/31 3/44/31
s 32
f 124/61/32 121/1/32 25/4/32 23/30/32
s 33
f 22/35/33 31/40/33 28/39/33 24/19/33
s 34
f 23/30/34 2/29/34 109/36/34 124/61/34
s 35
f 28/39/35 5/33/35 115/32/35 117/62/35
s 36
f 2/29/36 14/28/36 11/34/36 1/18/36
s 37
f 24/19/37 28/39/37 117/62/37 127/16/37
s 99
f 117/62/38 129/63/38 135/64/38 127/16/38
s 100
f 122/5/39 136/65/39 128/26/39 108/6/39
s 101
f 117/62/40 115/32/40 107/66/40 129/63/40
s 102
f 120/67/41 125/68/41 122/5/41 118/8/41
s 103
f 115/32/42 113/2/42 112/69/42 107/66/42
s 104
f 131/70/43 133/71/43 134/14/43 132/13/43
s 105
f 110/20/44 132/13/44 123/11/44 114/10/44
s 106
f 124/61/45 133/71/45 131/70/45 121/1/45
s 107
f 129/63/46 130/72/46 136/65/46 135/64/46
s 108
f 130/72/47 105/22/47 116/21/47 119/23/47
s 109
f 133/71/48 120/67/48 118/8/48 134/14/48
s 110
f 124/61/49 109/36/49 120/67/49 133/71/49
s 111
f 109/36/50 106/17/50 125/68/50 120/67/50
s 112
f 134/14/51 118/8/51 111/7/51 126/15/51
s 113
f 107/66/52 112/69/52 110/20/52 105/22/52
s 114
f 130/72/53 119/23/53 128/26/53 136/65/53
s 115
f 18/49/54 15/54/54 6/53/54 27/25/54
s 116
f 129/63/55 107/66/55 105/22/55 130/72/55
s 117
f 113/2/56 121/1/56 131/70/56 112/69/56
s 118
f 112/69/57 131/70/57 132/13/57 110/20/57
s 119
f 106/17/58 127/16/58 135/64/58 125/68/58
s 120
f 125/68/59 135/64/59 136/65/59 122/5/59
s 121
f 14/28/60 138/73/60 140/74/60 11/34/60
s 122
f 11/34/61 140/74/61 143/42/61 22/35/61
s 123
f 16/57/62 139/75/62 141/51/62 17/31/62
s 124
f 10/41/63 137/76/63 139/75/63 16/57/63
s 125
f 21/27/64 142/52/64 138/73/64 14/28/64
s 126
f 138/73/65 142/52/65 141/51/65 139/75/65 137/76/65 144/43/65 143/42/65 140/74/65
s 127
f 31/40/66 144/43/66 137/76/66 10/41/66
s 128
f 9/55/67 146/77/67 152/59/67 30/56/67
s 129
f 146/77/68 148/78/68 149/48/68 150/47/68 145/79/68 147/80/68 151/60/68 152/59/68
s 130
f 12/58/69 145/79/69 150/47/69 19/50/69
s 131
f 18/49/70 149/48/70 148/78/70 15/54/70
s 132
f 20/37/71 151/60/71 147/80/71 13/38/71
s 133
f 15/54/72 148/78/72 146/77/72 9/55/72
s 134
f 13/38/73 147/80/73 145/79/73 12/58/73
s 183
f 108/6/74 128/26/74 27/25/74 6/53/74
usemtl BrownDark
s 38
f 104/81/75 53/82/76 34/83/77 51/84/78
s 39
f 103/85/79 55/86/80 35/87/81 54/88/82
s 40
f 102/89/83 57/90/84 36/91/85 56/92/86
s 41
f 101/93/87 59/94/88 37/95/89 58/96/90
s 42
f 100/97/91 61/98/92 38/99/93 60/100/94
s 43
f 99/101/95 52/102/96 33/103/97 62/104/98
s 93
f 61/98/92 99/101/95 62/104/98 38/99/93
s 94
f 59/94/88 100/97/91 60/100/94 37/95/89
s 95
f 57/90/84 101/93/87 58/96/90 36/91/85
s 96
f 55/86/80 102/89/83 56/92/86 35/87/81
s 97
f 53/82/76 103/85/79 54/88/82 34/83/77
s 98
f 52/105/96 104/81/75 51/84/78 33/106/97
s 135
f 102/89/83 55/86/80 155/107/99 162/108/100
s 136
f 52/102/96 99/101/95 159/109/101 153/110/102
s 137
f 101/93/87 57/90/84 156/111/103 161/112/104
s 138
f 100/97/91 59/94/88 157/113/105 160/114/106
s 139
f 99/101/95 61/98/92 158/115/107 159/109/101
s 140
f 53/82/76 104/81/75 164/116/108 154/117/109
s 141
f 55/86/80 103/85/79 163/118/110 155/107/99
s 142
f 57/90/84 102/89/83 162/108/100 156/111/103
s 143
f 104/81/75 52/105/96 153/119/102 164/116/108
s 144
f 59/94/88 101/93/87 161/112/104 157/113/105
s 145
f 103/85/79 53/82/76 154/117/109 163/118/110
s 146
f 61/98/92 100/97/91 160/114/106 158/115/107
s 147
f 169/120/111 189/121/112 165/122/52
s 148
f 181/123/113 175/124/114 165/125/52
s 149
f 175/126/114 183/127/115 165/128/52
s 150
f 185/129/116 171/130/117 165/131/52
s 151
f 189/132/112 166/133/118 165/134/52
s 152
f 171/135/117 187/136/119 165/137/52
s 153
f 179/138/120 177/139/121 165/140/52
s 154
f 153/110/102 159/109/101 178/141/122 167/142/123
s 155
f 177/143/121 181/144/113 165/145/52
s 156
f 183/146/115 173/147/124 165/148/52
s 157
f 173/149/124 185/150/116 165/151/52
s 158
f 159/109/101 158/115/107 176/152/125 178/141/122
s 159
f 155/107/99 163/118/110 186/153/126 170/154/127
s 160
f 161/112/104 156/111/103 172/155/128 182/156/129
s 161
f 158/115/107 160/114/106 180/157/130 176/152/125
s 162
f 163/118/110 154/117/109 168/158/131 186/153/126
s 163
f 156/111/103 162/108/100 184/159/132 172/155/128
s 164
f 160/114/106 157/113/105 174/160/133 180/157/130
s 165
f 154/117/109 164/116/108 188/161/134 168/158/131
s 166
f 164/116/108 153/119/102 167/162/123 188/161/134
s 167
f 162/108/100 155/107/99 170/154/127 184/159/132
s 168
f 157/113/105 161/112/104 182/156/129 174/160/133
s 169
f 187/163/119 169/164/111 165/165/52
s 170
f 179/166/135 166/167/136 167/142/123 178/141/122
s 171
f 177/139/137 179/138/135 178/141/122 176/152/125
s 172
f 181/144/138 177/143/137 176/152/125 180/157/130
s 173
f 175/124/139 181/123/138 180/157/130 174/160/133
s 174
f 183/127/140 175/126/139 174/160/133 182/156/129
s 175
f 173/147/141 183/146/140 182/156/129 172/155/128
s 176
f 185/150/142 173/149/141 172/155/128 184/159/132
s 177
f 171/130/143 185/129/142 184/159/132 170/154/127
s 178
f 187/136/144 171/135/143 170/154/127 186/153/126
s 179
f 169/164/145 187/163/144 186/153/126 168/158/131
s 180
f 189/121/146 169/120/145 168/158/131 188/161/134
s 181
f 166/133/136 189/132/146 188/161/134 167/162/123
s 182
f 166/167/118 179/166/120 165/168/52
usemtl Stone
s 44
f 98/169/147 64/170/148 39/171/149 69/172/150
s 45
f 97/173/151 80/174/152 50/175/153 81/176/154
s 46
f 96/177/155 68/178/156 44/179/157 71/180/158
s 47
f 95/181/159 67/182/160 43/183/161 73/184/162
s 48
f 94/185/163 66/186/164 42/187/165 74/188/166
s 49
f 93/189/167 63/190/168 40/191/169 72/192/170
s 50
f 92/193/171 65/194/172 41/195/173 70/196/174
s 51
f 45/197/175 76/198/176 47/199/177 77/200/178 48/201/179 78/202/180 49/203/181 79/204/182 50/205/153 80/206/152 46/207/183 75/208/184
s 52
f 91/209/185 75/210/184 46/211/183 82/212/186
s 53
f 90/213/187 77/214/178 47/215/177 84/216/188
s 54
f 89/217/189 79/218/182 49/219/181 86/220/190
s 55
f 88/221/191 76/222/176 45/223/175 83/224/192
s 56
f 87/225/193 78/226/180 48/227/179 85/228/194
s 57
f 86/220/190 49/219/181 78/226/180 87/225/193
s 58
f 43/183/195 86/220/190 87/225/193 66/186/196
s 59
f 66/186/196 87/225/193 85/228/194 42/187/197
s 60
f 84/216/188 47/215/177 76/222/176 88/221/191
s 61
f 41/195/198 84/216/188 88/221/191 64/170/199
s 62
f 64/170/199 88/221/191 83/224/192 39/171/200
s 63
f 81/176/154 50/175/153 79/218/182 89/217/189
s 64
f 44/179/201 81/176/154 89/217/189 67/182/202
s 65
f 67/182/202 89/217/189 86/220/190 43/183/195
s 66
f 85/228/194 48/227/179 77/214/178 90/213/187
s 67
f 42/187/197 85/228/194 90/213/187 65/194/203
s 68
f 65/194/203 90/213/187 84/216/188 41/195/198
s 69
f 83/224/192 45/223/175 75/210/184 91/209/185
s 70
f 39/171/200 83/224/192 91/209/185 63/190/204
s 71
f 63/190/204 91/209/185 82/212/186 40/191/205
s 72
f 74/188/166 42/187/165 65/194/172 92/193/171
s 73
f 36/91/85 74/188/166 92/193/171 56/92/86
s 74
f 56/92/86 92/193/171 70/196/174 35/87/81
s 75
f 69/172/150 39/171/149 63/190/168 93/189/167
s 76
f 34/83/77 69/172/150 93/189/167 51/84/78
s 77
f 51/84/78 93/189/167 72/192/170 33/106/97
s 78
f 73/184/162 43/183/161 66/186/164 94/185/163
s 79
f 37/95/89 73/184/162 94/185/163 58/96/90
s 80
f 58/96/90 94/185/163 74/188/166 36/91/85
s 81
f 71/180/158 44/179/157 67/182/160 95/181/159
s 82
f 38/99/93 71/180/158 95/181/159 60/100/94
s 83
f 60/100/94 95/181/159 73/184/162 37/95/89
s 84
f 72/229/170 40/230/169 68/178/156 96/177/155
s 85
f 33/103/97 72/229/170 96/177/155 62/104/98
s 86
f 62/104/98 96/177/155 71/180/158 38/99/93
s 87
f 82/231/186 46/232/183 80/174/152 97/173/151
s 88
f 40/230/205 82/231/186 97/173/151 68/178/206
s 89
f 68/178/206 97/173/151 81/176/154 44/179/201
s 90
f 70/196/174 41/195/173 64/170/148 98/169/147
s 91
f 35/87/81 70/196/174 98/169/147 54/88/82
s 92
f 54/88/82 98/169/147 69/172/150 34/83/77
