# Blender v2.80 (sub 75) OBJ File: 'DungeonExport.blend'
# www.blender.org
mtllib plate.mtl
o plate_Cylinder.250
v 0.000000 -0.000000 -0.221642
v -0.000000 0.042086 0.000000
v 0.057365 -0.000000 -0.214090
v 0.110821 -0.000000 -0.191948
v 0.156725 -0.000000 -0.156725
v 0.191948 -0.000000 -0.110821
v 0.214090 -0.000000 -0.057365
v 0.221642 -0.000000 0.000000
v 0.214090 -0.000000 0.057365
v 0.191948 -0.000000 0.110821
v 0.156725 -0.000000 0.156725
v 0.110821 -0.000000 0.191948
v 0.057365 -0.000000 0.214090
v 0.000000 -0.000000 0.221642
v -0.057365 -0.000000 0.214090
v -0.110821 -0.000000 0.191948
v -0.156725 -0.000000 0.156725
v -0.191948 -0.000000 0.110821
v -0.214090 -0.000000 0.057365
v -0.221642 -0.000000 0.000000
v -0.214090 -0.000000 -0.057365
v -0.191948 -0.000000 -0.110821
v -0.156725 -0.000000 -0.156725
v -0.110821 -0.000000 -0.191948
v -0.057365 -0.000000 -0.214090
v 0.083971 0.077332 -0.313385
v -0.000000 0.077332 -0.324439
v 0.162220 0.077332 -0.280973
v 0.229413 0.077332 -0.229413
v 0.280973 0.077332 -0.162220
v 0.313385 0.077332 -0.083971
v 0.324440 0.077332 0.000000
v 0.313385 0.077332 0.083971
v 0.280973 0.077332 0.162220
v 0.229413 0.077332 0.229413
v 0.162220 0.077332 0.280973
v 0.083971 0.077332 0.313385
v 0.000000 0.077332 0.324440
v -0.083971 0.077332 0.313385
v -0.162220 0.077332 0.280973
v -0.229413 0.077332 0.229414
v -0.280973 0.077332 0.162220
v -0.313385 0.077332 0.083971
v -0.324440 0.077332 0.000000
v -0.313385 0.077332 -0.083971
v -0.280973 0.077332 -0.162220
v -0.229414 0.077332 -0.229413
v -0.162220 0.077332 -0.280973
v -0.083971 0.077332 -0.313384
v -0.000000 0.024833 -0.315474
v 0.081651 0.024833 -0.304725
v 0.157737 0.024833 -0.273209
v 0.223074 0.024833 -0.223074
v 0.273209 0.024833 -0.157737
v 0.304725 0.024833 -0.081651
v 0.315474 0.024833 0.000000
v 0.304725 0.024833 0.081651
v 0.273209 0.024833 0.157737
v 0.223074 0.024833 0.223074
v 0.157737 0.024833 0.273209
v 0.081651 0.024833 0.304725
v 0.000000 0.024833 0.315475
v -0.081651 0.024833 0.304725
v -0.157737 0.024833 0.273209
v -0.223074 0.024833 0.223074
v -0.273209 0.024833 0.157737
v -0.304725 0.024833 0.081651
v -0.315474 0.024833 0.000000
v -0.304725 0.024833 -0.081651
v -0.273209 0.024833 -0.157737
v -0.223074 0.024833 -0.223074
v -0.157737 0.024833 -0.273209
v -0.081651 0.024833 -0.304725
v 0.067515 0.068552 -0.251968
v 0.000000 0.068552 -0.260857
v 0.130428 0.068552 -0.225909
v 0.184454 0.068552 -0.184454
v 0.225909 0.068552 -0.130428
v 0.251968 0.068552 -0.067515
v 0.260857 0.068552 0.000000
v 0.251968 0.068552 0.067515
v 0.225909 0.068552 0.130428
v 0.184454 0.068552 0.184454
v 0.130428 0.068552 0.225909
v 0.067515 0.068552 0.251968
v 0.000000 0.068552 0.260857
v -0.067515 0.068552 0.251968
v -0.130428 0.068552 0.225909
v -0.184453 0.068552 0.184454
v -0.225909 0.068552 0.130429
v -0.251968 0.068552 0.067515
v -0.260857 0.068552 0.000000
v -0.251968 0.068552 -0.067514
v -0.225909 0.068552 -0.130428
v -0.184454 0.068552 -0.184453
v -0.130429 0.068552 -0.225908
v -0.067515 0.068552 -0.251968
v -0.000000 0.052080 -0.329360
v 0.085245 0.052080 -0.318137
v 0.164680 0.052080 -0.285234
v 0.232893 0.052080 -0.232893
v 0.285234 0.052080 -0.164680
v 0.318137 0.052080 -0.085245
v 0.329360 0.052080 0.000000
v 0.318137 0.052080 0.085245
v 0.285234 0.052080 0.164680
v 0.232893 0.052080 0.232893
v 0.164680 0.052080 0.285234
v 0.085245 0.052080 0.318137
v 0.000000 0.052080 0.329360
v -0.085245 0.052080 0.318138
v -0.164680 0.052080 0.285234
v -0.232893 0.052080 0.232893
v -0.285234 0.052080 0.164680
v -0.318137 0.052080 0.085245
v -0.329360 0.052080 0.000000
v -0.318137 0.052080 -0.085244
v -0.285234 0.052080 -0.164680
v -0.232893 0.052080 -0.232893
v -0.164680 0.052080 -0.285234
v -0.085245 0.052080 -0.318137
v 0.060151 0.042086 -0.224485
v 0.000000 0.042086 -0.232404
v 0.116202 0.042086 -0.201268
v 0.164335 0.042086 -0.164335
v 0.201268 0.042086 -0.116202
v 0.224485 0.042086 -0.060151
v 0.232404 0.042086 0.000000
v 0.224485 0.042086 0.060151
v 0.201268 0.042086 0.116202
v 0.164335 0.042086 0.164335
v 0.116202 0.042086 0.201268
v 0.060151 0.042086 0.224485
v 0.000000 0.042086 0.232404
v -0.060151 0.042086 0.224485
v -0.116202 0.042086 0.201268
v -0.164335 0.042086 0.164335
v -0.201268 0.042086 0.116202
v -0.224485 0.042086 0.060151
v -0.232404 0.042086 0.000000
v -0.224485 0.042086 -0.060150
v -0.201268 0.042086 -0.116202
v -0.164335 0.042086 -0.164335
v -0.116202 0.042086 -0.201268
v -0.060151 0.042086 -0.224485
vt 1.000000 0.875000
vt 1.000000 1.000000
vt 0.958333 1.000000
vt 0.958333 0.875000
vt 0.916667 1.000000
vt 0.916667 0.875000
vt 0.875000 1.000000
vt 0.875000 0.875000
vt 0.833333 1.000000
vt 0.833333 0.875000
vt 0.791667 1.000000
vt 0.791667 0.875000
vt 0.750000 1.000000
vt 0.750000 0.875000
vt 0.708333 1.000000
vt 0.708333 0.875000
vt 0.666667 1.000000
vt 0.666667 0.875000
vt 0.625000 1.000000
vt 0.625000 0.875000
vt 0.583333 1.000000
vt 0.583333 0.875000
vt 0.541666 1.000000
vt 0.541667 0.875000
vt 0.500000 1.000000
vt 0.500000 0.875000
vt 0.458333 1.000000
vt 0.458333 0.875000
vt 0.416666 1.000000
vt 0.416666 0.875000
vt 0.375000 1.000000
vt 0.375000 0.875000
vt 0.333333 1.000000
vt 0.333333 0.875000
vt 0.291667 1.000000
vt 0.291667 0.875000
vt 0.250000 1.000000
vt 0.250000 0.875000
vt 0.208333 1.000000
vt 0.208333 0.875000
vt 0.166666 1.000000
vt 0.166667 0.875000
vt 0.125000 1.000000
vt 0.125000 0.875000
vt 0.083333 1.000000
vt 0.083333 0.875000
vt 0.041666 1.000000
vt 0.041666 0.875000
vt -0.000000 1.000000
vt -0.000000 0.875000
vt 0.750000 0.490000
vt 0.812117 0.481822
vt 0.870000 0.457846
vt 0.919706 0.419706
vt 0.957846 0.370000
vt 0.981822 0.312117
vt 0.990000 0.250000
vt 0.981822 0.187883
vt 0.957846 0.130000
vt 0.919706 0.080294
vt 0.870000 0.042154
vt 0.812117 0.018178
vt 0.750000 0.010000
vt 0.687884 0.018178
vt 0.630000 0.042154
vt 0.580294 0.080294
vt 0.542154 0.130000
vt 0.518178 0.187883
vt 0.510000 0.250000
vt 0.518178 0.312116
vt 0.542154 0.370000
vt 0.580294 0.419706
vt 0.630000 0.457846
vt 0.687883 0.481822
vt 0.250000 0.442965
vt 0.299943 0.436390
vt 0.312117 0.481822
vt 0.250000 0.490000
vt 0.346483 0.417113
vt 0.370000 0.457846
vt 0.386447 0.386447
vt 0.419706 0.419706
vt 0.417113 0.346483
vt 0.457846 0.370000
vt 0.436390 0.299943
vt 0.481822 0.312117
vt 0.442965 0.250000
vt 0.490000 0.250000
vt 0.436390 0.200057
vt 0.481822 0.187883
vt 0.417113 0.153517
vt 0.457846 0.130000
vt 0.386447 0.113553
vt 0.419706 0.080294
vt 0.346483 0.082887
vt 0.370000 0.042154
vt 0.299943 0.063610
vt 0.312117 0.018178
vt 0.250000 0.057035
vt 0.250000 0.010000
vt 0.200057 0.063610
vt 0.187884 0.018178
vt 0.153517 0.082887
vt 0.130000 0.042154
vt 0.113553 0.113553
vt 0.080294 0.080294
vt 0.082887 0.153517
vt 0.042154 0.130000
vt 0.063610 0.200057
vt 0.018178 0.187883
vt 0.057035 0.250000
vt 0.010000 0.250000
vt 0.063610 0.299943
vt 0.018178 0.312116
vt 0.082887 0.346483
vt 0.042154 0.370000
vt 0.113553 0.386447
vt 0.080294 0.419706
vt 0.153517 0.417113
vt 0.130000 0.457846
vt 0.200057 0.436390
vt 0.187883 0.481822
vt 0.041666 0.500000
vt 0.041666 0.750000
vt -0.000000 0.750000
vt -0.000000 0.500000
vt 0.083333 0.500000
vt 0.083333 0.750000
vt 0.125000 0.500000
vt 0.125000 0.750000
vt 0.166666 0.500000
vt 0.166667 0.750000
vt 0.208333 0.500000
vt 0.208333 0.750000
vt 0.250000 0.500000
vt 0.250000 0.750000
vt 0.291667 0.500000
vt 0.291666 0.750000
vt 0.333333 0.500000
vt 0.333333 0.750000
vt 0.375000 0.500000
vt 0.375000 0.750000
vt 0.416666 0.500000
vt 0.416666 0.750000
vt 0.458333 0.500000
vt 0.458333 0.750000
vt 0.500000 0.500000
vt 0.500000 0.750000
vt 0.541666 0.500000
vt 0.541667 0.750000
vt 0.583333 0.500000
vt 0.583333 0.750000
vt 0.625000 0.500000
vt 0.625000 0.750000
vt 0.666667 0.500000
vt 0.666667 0.750000
vt 0.708333 0.500000
vt 0.708333 0.750000
vt 0.750000 0.500000
vt 0.750000 0.750000
vt 0.791667 0.500000
vt 0.791667 0.750000
vt 0.833333 0.500000
vt 0.833333 0.750000
vt 0.875000 0.500000
vt 0.875000 0.750000
vt 0.916667 0.500000
vt 0.916667 0.750000
vt 0.958333 0.500000
vt 0.958333 0.750000
vt 1.000000 0.500000
vt 1.000000 0.750000
vt 0.250000 0.376909
vt 0.282846 0.372585
vt 0.313455 0.359906
vt 0.339738 0.339738
vt 0.359906 0.313454
vt 0.372585 0.282847
vt 0.376909 0.250000
vt 0.372585 0.217154
vt 0.359906 0.186545
vt 0.339738 0.160262
vt 0.313455 0.140094
vt 0.282846 0.127415
vt 0.250000 0.123091
vt 0.217154 0.127415
vt 0.186546 0.140094
vt 0.160262 0.160262
vt 0.140094 0.186545
vt 0.127415 0.217153
vt 0.123091 0.250000
vt 0.127415 0.282846
vt 0.140094 0.313454
vt 0.160262 0.339738
vt 0.186545 0.359906
vt 0.217153 0.372585
vt 0.275591 0.345506
vt 0.299438 0.335629
vt 0.319915 0.319915
vt 0.335629 0.299438
vt 0.345506 0.275591
vt 0.348875 0.250000
vt 0.345506 0.224409
vt 0.335629 0.200562
vt 0.319916 0.180085
vt 0.299438 0.164371
vt 0.275591 0.154494
vt 0.250000 0.151125
vt 0.224409 0.154494
vt 0.200562 0.164371
vt 0.180085 0.180084
vt 0.164371 0.200562
vt 0.154494 0.224409
vt 0.151124 0.250000
vt 0.154494 0.275591
vt 0.164371 0.299438
vt 0.180084 0.319915
vt 0.200562 0.335629
vt 0.224409 0.345506
vt 0.250000 0.348875
vn -0.0000 -0.1354 -0.9908
vn -0.0000 0.1913 -0.9815
vn 0.2540 0.1913 -0.9481
vn 0.2564 -0.1354 -0.9570
vn 0.4908 0.1913 -0.8500
vn 0.4954 -0.1354 -0.8581
vn 0.6941 0.1913 -0.6941
vn 0.7006 -0.1354 -0.7006
vn 0.8500 0.1913 -0.4908
vn 0.8581 -0.1354 -0.4954
vn 0.9481 0.1913 -0.2540
vn 0.9570 -0.1354 -0.2564
vn 0.9815 0.1913 -0.0000
vn 0.9908 -0.1354 -0.0000
vn 0.9481 0.1913 0.2540
vn 0.9570 -0.1354 0.2564
vn 0.8500 0.1913 0.4908
vn 0.8581 -0.1354 0.4954
vn 0.6941 0.1913 0.6941
vn 0.7006 -0.1354 0.7006
vn 0.4908 0.1913 0.8500
vn 0.4954 -0.1354 0.8581
vn 0.2540 0.1913 0.9481
vn 0.2564 -0.1354 0.9570
vn 0.0000 0.1913 0.9815
vn 0.0000 -0.1354 0.9908
vn -0.2540 0.1913 0.9481
vn -0.2564 -0.1354 0.9570
vn -0.4908 0.1913 0.8500
vn -0.4954 -0.1354 0.8581
vn -0.6941 0.1913 0.6941
vn -0.7006 -0.1354 0.7006
vn -0.8500 0.1913 0.4908
vn -0.8581 -0.1354 0.4954
vn -0.9481 0.1913 0.2540
vn -0.9570 -0.1354 0.2564
vn -0.9815 0.1913 0.0000
vn -0.9908 -0.1354 0.0000
vn -0.9481 0.1913 -0.2540
vn -0.9570 -0.1354 -0.2564
vn -0.8500 0.1913 -0.4908
vn -0.8581 -0.1354 -0.4954
vn -0.6941 0.1913 -0.6941
vn -0.7006 -0.1354 -0.7006
vn -0.4908 0.1913 -0.8500
vn -0.4954 -0.1354 -0.8581
vn -0.2540 0.1913 -0.9481
vn -0.2564 -0.1354 -0.9570
vn -0.0000 -0.9902 -0.1395
vn 0.0361 -0.9902 -0.1348
vn 0.0698 -0.9902 -0.1208
vn 0.0987 -0.9902 -0.0987
vn 0.1208 -0.9902 -0.0698
vn 0.1348 -0.9902 -0.0361
vn 0.1395 -0.9902 -0.0000
vn 0.1348 -0.9902 0.0361
vn 0.1208 -0.9902 0.0698
vn 0.0987 -0.9902 0.0987
vn 0.0698 -0.9902 0.1208
vn 0.0361 -0.9902 0.1348
vn 0.0000 -0.9902 0.1395
vn -0.0361 -0.9902 0.1348
vn -0.0698 -0.9902 0.1208
vn -0.0987 -0.9902 0.0987
vn -0.1208 -0.9902 0.0698
vn -0.1348 -0.9902 0.0361
vn -0.1395 -0.9902 0.0000
vn -0.1348 -0.9902 -0.0361
vn -0.1208 -0.9902 -0.0698
vn -0.0987 -0.9902 -0.0987
vn -0.0698 -0.9902 -0.1208
vn -0.0361 -0.9902 -0.1348
vn 0.0000 0.9130 0.4080
vn -0.1056 0.9130 0.3941
vn -0.0354 0.9906 0.1321
vn 0.0000 0.9906 0.1368
vn -0.2040 0.9130 0.3533
vn -0.0684 0.9906 0.1185
vn -0.2885 0.9130 0.2885
vn -0.0967 0.9906 0.0967
vn -0.3533 0.9130 0.2040
vn -0.1185 0.9906 0.0684
vn -0.3941 0.9130 0.1056
vn -0.1321 0.9906 0.0354
vn -0.4080 0.9130 0.0000
vn -0.1368 0.9906 0.0000
vn -0.3941 0.9130 -0.1056
vn -0.1321 0.9906 -0.0354
vn -0.3533 0.9130 -0.2040
vn -0.1185 0.9906 -0.0684
vn -0.2885 0.9130 -0.2885
vn -0.0967 0.9906 -0.0967
vn -0.2040 0.9130 -0.3533
vn -0.0684 0.9906 -0.1185
vn -0.1056 0.9130 -0.3941
vn -0.0354 0.9906 -0.1321
vn -0.0000 0.9130 -0.4080
vn -0.0000 0.9906 -0.1368
vn 0.1056 0.9130 -0.3941
vn 0.0354 0.9906 -0.1321
vn 0.2040 0.9130 -0.3533
vn 0.0684 0.9906 -0.1185
vn 0.2885 0.9130 -0.2885
vn 0.0967 0.9906 -0.0967
vn 0.3533 0.9130 -0.2040
vn 0.1185 0.9906 -0.0684
vn 0.3941 0.9130 -0.1056
vn 0.1321 0.9906 -0.0354
vn 0.4080 0.9130 -0.0000
vn 0.1368 0.9906 -0.0000
vn 0.3941 0.9130 0.1056
vn 0.1321 0.9906 0.0354
vn 0.3533 0.9130 0.2040
vn 0.1185 0.9906 0.0684
vn 0.2885 0.9130 0.2885
vn 0.0967 0.9906 0.0967
vn 0.2040 0.9130 0.3533
vn 0.0684 0.9906 0.1185
vn 0.1056 0.9130 0.3941
vn 0.0354 0.9906 0.1321
vn -0.0662 -0.9667 -0.2471
vn -0.0000 -0.9667 -0.2558
vn -0.1279 -0.9667 -0.2216
vn -0.1809 -0.9667 -0.1809
vn -0.2216 -0.9667 -0.1279
vn -0.2471 -0.9667 -0.0662
vn -0.2558 -0.9667 0.0000
vn -0.2471 -0.9667 0.0662
vn -0.2216 -0.9667 0.1279
vn -0.1809 -0.9667 0.1809
vn -0.1279 -0.9667 0.2216
vn -0.0662 -0.9667 0.2471
vn 0.0000 -0.9667 0.2558
vn 0.0662 -0.9667 0.2471
vn 0.1279 -0.9667 0.2216
vn 0.1809 -0.9667 0.1809
vn 0.2216 -0.9667 0.1279
vn 0.2471 -0.9667 0.0662
vn 0.2558 -0.9667 -0.0000
vn 0.2471 -0.9667 -0.0662
vn 0.2216 -0.9667 -0.1279
vn 0.1809 -0.9667 -0.1809
vn 0.1279 -0.9667 -0.2216
vn 0.0662 -0.9667 -0.2471
vn 0.0000 0.7322 0.6811
vn -0.1763 0.7322 0.6579
vn -0.3405 0.7322 0.5898
vn -0.4816 0.7322 0.4816
vn -0.5898 0.7322 0.3405
vn -0.6579 0.7322 0.1763
vn -0.6811 0.7322 0.0000
vn -0.6579 0.7322 -0.1763
vn -0.5898 0.7322 -0.3405
vn -0.4816 0.7322 -0.4816
vn -0.3405 0.7322 -0.5898
vn -0.1763 0.7322 -0.6579
vn -0.0000 0.7322 -0.6811
vn 0.1763 0.7322 -0.6579
vn 0.3405 0.7322 -0.5898
vn 0.4816 0.7322 -0.4816
vn 0.5898 0.7322 -0.3405
vn 0.6579 0.7322 -0.1763
vn 0.6811 0.7322 -0.0000
vn 0.6579 0.7322 0.1763
vn 0.5898 0.7322 0.3405
vn 0.4816 0.7322 0.4816
vn 0.3405 0.7322 0.5898
vn 0.1763 0.7322 0.6579
vn -0.2306 -0.4541 -0.8606
vn -0.0000 -0.4541 -0.8910
vn -0.4455 -0.4541 -0.7716
vn -0.6300 -0.4541 -0.6300
vn -0.7716 -0.4541 -0.4455
vn -0.8606 -0.4541 -0.2306
vn -0.8910 -0.4541 0.0000
vn -0.8606 -0.4541 0.2306
vn -0.7716 -0.4541 0.4455
vn -0.6300 -0.4541 0.6300
vn -0.4455 -0.4541 0.7716
vn -0.2306 -0.4541 0.8606
vn 0.0000 -0.4541 0.8910
vn 0.2306 -0.4541 0.8606
vn 0.4455 -0.4541 0.7716
vn 0.6300 -0.4541 0.6300
vn 0.7716 -0.4541 0.4455
vn 0.8606 -0.4541 0.2306
vn 0.8910 -0.4541 -0.0000
vn 0.8606 -0.4541 -0.2306
vn 0.7716 -0.4541 -0.4455
vn 0.6300 -0.4541 -0.6300
vn 0.4455 -0.4541 -0.7716
vn 0.2306 -0.4541 -0.8606
vn -0.0000 1.0000 -0.0000
usemtl Mud
s 1
f 98/1/1 27/2/2 26/3/3 99/4/4
s 2
f 99/4/4 26/3/3 28/5/5 100/6/6
s 3
f 100/6/6 28/5/5 29/7/7 101/8/8
s 4
f 101/8/8 29/7/7 30/9/9 102/10/10
s 5
f 102/10/10 30/9/9 31/11/11 103/12/12
s 6
f 103/12/12 31/11/11 32/13/13 104/14/14
s 7
f 104/14/14 32/13/13 33/15/15 105/16/16
s 8
f 105/16/16 33/15/15 34/17/17 106/18/18
s 9
f 106/18/18 34/17/17 35/19/19 107/20/20
s 10
f 107/20/20 35/19/19 36/21/21 108/22/22
s 11
f 108/22/22 36/21/21 37/23/23 109/24/24
s 12
f 109/24/24 37/23/23 38/25/25 110/26/26
s 13
f 110/26/26 38/25/25 39/27/27 111/28/28
s 14
f 111/28/28 39/27/27 40/29/29 112/30/30
s 15
f 112/30/30 40/29/29 41/31/31 113/32/32
s 16
f 113/32/32 41/31/31 42/33/33 114/34/34
s 17
f 114/34/34 42/33/33 43/35/35 115/36/36
s 18
f 115/36/36 43/35/35 44/37/37 116/38/38
s 19
f 116/38/38 44/37/37 45/39/39 117/40/40
s 20
f 117/40/40 45/39/39 46/41/41 118/42/42
s 21
f 118/42/42 46/41/41 47/43/43 119/44/44
s 22
f 119/44/44 47/43/43 48/45/45 120/46/46
s 23
f 120/46/46 48/45/45 49/47/47 121/48/48
s 24
f 121/48/48 49/47/47 27/49/2 98/50/1
s 25
f 1/51/49 3/52/50 4/53/51 5/54/52 6/55/53 7/56/54 8/57/55 9/58/56 10/59/57 11/60/58 12/61/59 13/62/60 14/63/61 15/64/62 16/65/63 17/66/64 18/67/65 19/68/66 20/69/67 21/70/68 22/71/69 23/72/70 24/73/71 25/74/72
s 26
f 75/75/73 74/76/74 26/77/75 27/78/76
s 27
f 74/76/74 76/79/77 28/80/78 26/77/75
s 28
f 76/79/77 77/81/79 29/82/80 28/80/78
s 29
f 77/81/79 78/83/81 30/84/82 29/82/80
s 30
f 78/83/81 79/85/83 31/86/84 30/84/82
s 31
f 79/85/83 80/87/85 32/88/86 31/86/84
s 32
f 80/87/85 81/89/87 33/90/88 32/88/86
s 33
f 81/89/87 82/91/89 34/92/90 33/90/88
s 34
f 82/91/89 83/93/91 35/94/92 34/92/90
s 35
f 83/93/91 84/95/93 36/96/94 35/94/92
s 36
f 84/95/93 85/97/95 37/98/96 36/96/94
s 37
f 85/97/95 86/99/97 38/100/98 37/98/96
s 38
f 86/99/97 87/101/99 39/102/100 38/100/98
s 39
f 87/101/99 88/103/101 40/104/102 39/102/100
s 40
f 88/103/101 89/105/103 41/106/104 40/104/102
s 41
f 89/105/103 90/107/105 42/108/106 41/106/104
s 42
f 90/107/105 91/109/107 43/110/108 42/108/106
s 43
f 91/109/107 92/111/109 44/112/110 43/110/108
s 44
f 92/111/109 93/113/111 45/114/112 44/112/110
s 45
f 93/113/111 94/115/113 46/116/114 45/114/112
s 46
f 94/115/113 95/117/115 47/118/116 46/116/114
s 47
f 95/117/115 96/119/117 48/120/118 47/118/116
s 48
f 96/119/117 97/121/119 49/122/120 48/120/118
s 49
f 97/121/119 75/75/73 27/78/76 49/122/120
s 50
f 25/123/72 73/124/121 50/125/122 1/126/49
s 51
f 24/127/71 72/128/123 73/124/121 25/123/72
s 52
f 23/129/70 71/130/124 72/128/123 24/127/71
s 53
f 22/131/69 70/132/125 71/130/124 23/129/70
s 54
f 21/133/68 69/134/126 70/132/125 22/131/69
s 55
f 20/135/67 68/136/127 69/134/126 21/133/68
s 56
f 19/137/66 67/138/128 68/136/127 20/135/67
s 57
f 18/139/65 66/140/129 67/138/128 19/137/66
s 58
f 17/141/64 65/142/130 66/140/129 18/139/65
s 59
f 16/143/63 64/144/131 65/142/130 17/141/64
s 60
f 15/145/62 63/146/132 64/144/131 16/143/63
s 61
f 14/147/61 62/148/133 63/146/132 15/145/62
s 62
f 13/149/60 61/150/134 62/148/133 14/147/61
s 63
f 12/151/59 60/152/135 61/150/134 13/149/60
s 64
f 11/153/58 59/154/136 60/152/135 12/151/59
s 65
f 10/155/57 58/156/137 59/154/136 11/153/58
s 66
f 9/157/56 57/158/138 58/156/137 10/155/57
s 67
f 8/159/55 56/160/139 57/158/138 9/157/56
s 68
f 7/161/54 55/162/140 56/160/139 8/159/55
s 69
f 6/163/53 54/164/141 55/162/140 7/161/54
s 70
f 5/165/52 53/166/142 54/164/141 6/163/53
s 71
f 4/167/51 52/168/143 53/166/142 5/165/52
s 72
f 3/169/50 51/170/144 52/168/143 4/167/51
s 73
f 1/171/49 50/172/122 51/170/144 3/169/50
s 74
f 123/173/145 122/174/146 74/76/74 75/75/73
s 75
f 122/174/146 124/175/147 76/79/77 74/76/74
s 76
f 124/175/147 125/176/148 77/81/79 76/79/77
s 77
f 125/176/148 126/177/149 78/83/81 77/81/79
s 78
f 126/177/149 127/178/150 79/85/83 78/83/81
s 79
f 127/178/150 128/179/151 80/87/85 79/85/83
s 80
f 128/179/151 129/180/152 81/89/87 80/87/85
s 81
f 129/180/152 130/181/153 82/91/89 81/89/87
s 82
f 130/181/153 131/182/154 83/93/91 82/91/89
s 83
f 131/182/154 132/183/155 84/95/93 83/93/91
s 84
f 132/183/155 133/184/156 85/97/95 84/95/93
s 85
f 133/184/156 134/185/157 86/99/97 85/97/95
s 86
f 134/185/157 135/186/158 87/101/99 86/99/97
s 87
f 135/186/158 136/187/159 88/103/101 87/101/99
s 88
f 136/187/159 137/188/160 89/105/103 88/103/101
s 89
f 137/188/160 138/189/161 90/107/105 89/105/103
s 90
f 138/189/161 139/190/162 91/109/107 90/107/105
s 91
f 139/190/162 140/191/163 92/111/109 91/109/107
s 92
f 140/191/163 141/192/164 93/113/111 92/111/109
s 93
f 141/192/164 142/193/165 94/115/113 93/113/111
s 94
f 142/193/165 143/194/166 95/117/115 94/115/113
s 95
f 143/194/166 144/195/167 96/119/117 95/117/115
s 96
f 144/195/167 145/196/168 97/121/119 96/119/117
s 97
f 145/196/168 123/173/145 75/75/73 97/121/119
s 98
f 73/124/169 121/48/48 98/50/1 50/125/170
s 99
f 72/128/171 120/46/46 121/48/48 73/124/169
s 100
f 71/130/172 119/44/44 120/46/46 72/128/171
s 101
f 70/132/173 118/42/42 119/44/44 71/130/172
s 102
f 69/134/174 117/40/40 118/42/42 70/132/173
s 103
f 68/136/175 116/38/38 117/40/40 69/134/174
s 104
f 67/138/176 115/36/36 116/38/38 68/136/175
s 105
f 66/140/177 114/34/34 115/36/36 67/138/176
s 106
f 65/142/178 113/32/32 114/34/34 66/140/177
s 107
f 64/144/179 112/30/30 113/32/32 65/142/178
s 108
f 63/146/180 111/28/28 112/30/30 64/144/179
s 109
f 62/148/181 110/26/26 111/28/28 63/146/180
s 110
f 61/150/182 109/24/24 110/26/26 62/148/181
s 111
f 60/152/183 108/22/22 109/24/24 61/150/182
s 112
f 59/154/184 107/20/20 108/22/22 60/152/183
s 113
f 58/156/185 106/18/18 107/20/20 59/154/184
s 114
f 57/158/186 105/16/16 106/18/18 58/156/185
s 115
f 56/160/187 104/14/14 105/16/16 57/158/186
s 116
f 55/162/188 103/12/12 104/14/14 56/160/187
s 117
f 54/164/189 102/10/10 103/12/12 55/162/188
s 118
f 53/166/190 101/8/8 102/10/10 54/164/189
s 119
f 52/168/191 100/6/6 101/8/8 53/166/190
s 120
f 51/170/192 99/4/4 100/6/6 52/168/191
s 121
f 50/172/170 98/1/1 99/4/4 51/170/192
s 122
f 2/197/193 122/174/193 123/173/193
s 123
f 2/198/193 124/175/193 122/174/193
s 124
f 2/199/193 125/176/193 124/175/193
s 125
f 2/200/193 126/177/193 125/176/193
s 126
f 2/201/193 127/178/193 126/177/193
s 127
f 2/202/193 128/179/193 127/178/193
s 128
f 2/203/193 129/180/193 128/179/193
s 129
f 2/204/193 130/181/193 129/180/193
s 130
f 2/205/193 131/182/193 130/181/193
s 131
f 2/206/193 132/183/193 131/182/193
s 132
f 2/207/193 133/184/193 132/183/193
s 133
f 2/208/193 134/185/193 133/184/193
s 134
f 2/209/193 135/186/193 134/185/193
s 135
f 2/210/193 136/187/193 135/186/193
s 136
f 2/211/193 137/188/193 136/187/193
s 137
f 2/212/193 138/189/193 137/188/193
s 138
f 2/213/193 139/190/193 138/189/193
s 139
f 2/214/193 140/191/193 139/190/193
s 140
f 2/215/193 141/192/193 140/191/193
s 141
f 2/216/193 142/193/193 141/192/193
s 142
f 2/217/193 143/194/193 142/193/193
s 143
f 2/218/193 144/195/193 143/194/193
s 144
f 2/219/193 145/196/193 144/195/193
s 145
f 2/220/193 123/173/193 145/196/193
