# Blender v2.80 (sub 75) OBJ File: 'DungeonExport.blend'
# www.blender.org
mtllib quiver_empty.mtl
o quiver_empty_Cube.3068
v -0.062329 -0.360795 -0.031325
v -0.058192 -0.327497 0.002018
v -0.091394 -0.327969 -0.033205
v -0.060646 -0.350213 -0.007321
v -0.077828 -0.346035 -0.012270
v -0.081009 -0.327709 -0.008460
v -0.083120 -0.348858 -0.032006
v -0.092398 -0.046375 0.008604
v -0.106426 -0.046593 -0.038946
v -0.074237 -0.341788 -0.085288
v -0.092634 -0.046797 -0.086460
v 0.062320 -0.360795 -0.031368
v 0.091383 -0.327969 -0.033268
v 0.058206 -0.327497 0.001977
v 0.083110 -0.348857 -0.032064
v 0.077831 -0.346034 -0.012324
v 0.081016 -0.327708 -0.008517
v 0.060653 -0.350213 -0.007364
v 0.092405 -0.046374 0.008539
v 0.106399 -0.046593 -0.039020
v 0.074191 -0.341788 -0.085340
v 0.092574 -0.046797 -0.086524
v -0.124062 0.009022 0.004489
v -0.107451 0.021698 0.036962
v -0.118143 0.013983 0.025084
v -0.107239 0.127911 0.037004
v -0.095497 0.151093 -0.014535
v -0.117598 0.138133 0.023909
v -0.118577 0.012356 -0.096638
v -0.093810 0.149181 -0.070189
v 0.124065 0.009022 0.004403
v 0.107477 0.021698 0.036887
v 0.118160 0.013983 0.025002
v 0.095486 0.151094 -0.014601
v 0.107265 0.127911 0.036930
v 0.117615 0.138133 0.023826
v 0.118509 0.012356 -0.096721
v 0.093761 0.149181 -0.070255
v -0.000035 -0.038530 -0.100051
v -0.000024 0.168439 -0.067684
v 0.000020 -0.018848 0.059042
v 0.000010 -0.051441 0.028351
v 0.000017 -0.040799 0.048757
v 0.000020 0.148396 0.059066
v -0.000008 0.168472 -0.009602
v 0.000016 0.170565 0.046787
v -0.000019 -0.377049 -0.072365
v -0.000028 -0.356372 -0.098116
v -0.000034 -0.046715 -0.099071
v -0.000005 -0.377780 -0.030948
v 0.000003 -0.367476 -0.007669
v 0.000007 -0.344483 0.002163
v 0.000007 -0.046255 0.020968
v 0.020321 0.050058 0.064344
v 0.000023 0.056655 0.064530
v 0.000015 0.068881 0.042022
v 0.000027 0.021718 0.077741
v 0.027235 0.060028 0.041781
v 0.044030 0.036872 0.041168
v 0.043995 0.008290 0.040419
v 0.027178 -0.014800 0.039820
v 0.000014 -0.023612 0.039598
v -0.027150 -0.014800 0.039838
v -0.043967 0.008290 0.040450
v -0.044001 0.036872 0.041199
v -0.027205 0.060028 0.041800
v 0.032855 0.032793 0.063874
v 0.032842 0.011469 0.063298
v 0.020299 -0.005770 0.062836
v 0.000022 -0.012352 0.062665
v -0.020255 -0.005770 0.062850
v -0.032798 0.011469 0.063320
v -0.032811 0.032793 0.063897
v -0.020276 0.050058 0.064359
v -0.092547 0.104003 0.008477
v -0.106430 0.104048 -0.039017
v -0.092580 0.104003 -0.086520
v 0.092553 0.104003 0.008412
v 0.106403 0.104048 -0.039091
v 0.092520 0.104003 -0.086585
v -0.000034 0.103957 -0.099076
v 0.000007 0.103957 0.020968
v -0.122381 0.143135 0.003747
v -0.117640 0.139053 -0.096391
v 0.117573 0.139053 -0.096473
v 0.122383 0.143135 0.003661
v -0.000035 0.166559 -0.100214
v -0.000010 0.133442 -0.025733
v -0.000021 0.133818 -0.052960
v -0.068627 0.119935 -0.028945
v -0.067674 0.118606 -0.053565
v 0.067633 0.118607 -0.053603
v 0.068610 0.119934 -0.028984
vt 0.408252 0.875000
vt 0.591748 0.875000
vt 0.591748 0.958812
vt 0.408252 0.963411
vt 0.408154 0.572518
vt 0.591846 0.666442
vt 0.408154 0.677482
vt 0.408154 0.072518
vt 0.591846 0.166442
vt 0.408154 0.177482
vt 0.408252 0.375000
vt 0.591748 0.375000
vt 0.591748 0.458812
vt 0.408252 0.463411
vt 0.401726 0.894480
vt 0.599327 0.894480
vt 0.592286 0.980520
vt 0.408856 0.980520
vt 0.408856 0.769480
vt 0.592286 0.769480
vt 0.599327 0.855520
vt 0.401726 0.855520
vt 0.656626 0.682076
vt 0.656759 0.567416
vt 0.656759 0.567416
vt 0.656626 0.682076
vt 0.412236 0.540270
vt 0.587764 0.540270
vt 0.587764 0.709730
vt 0.412236 0.709730
vt 0.408883 0.270062
vt 0.592340 0.270062
vt 0.599261 0.354938
vt 0.401869 0.354938
vt 0.401869 0.395062
vt 0.599261 0.395062
vt 0.592340 0.479938
vt 0.408883 0.479938
vt 0.412236 0.040270
vt 0.587764 0.040270
vt 0.587764 0.209730
vt 0.412236 0.209730
vt 0.730508 0.561891
vt 0.730508 0.561891
vt 0.268146 0.534039
vt 0.356854 0.538308
vt 0.356854 0.711299
vt 0.268146 0.715586
vt 0.160009 0.679726
vt 0.160989 0.750000
vt 0.141135 0.750000
vt 0.125000 0.678788
vt 0.409492 1.000000
vt 0.390887 1.000000
vt 0.375000 0.964011
vt 0.375000 0.071212
vt 0.375000 0.031025
vt 0.409492 0.000000
vt 0.339991 0.679726
vt 0.375000 0.678788
vt 0.380296 0.745037
vt 0.339011 0.750000
vt 0.409493 0.750000
vt 0.408252 0.786589
vt 0.375000 0.785989
vt 0.160009 0.570273
vt 0.375000 0.178788
vt 0.593087 1.000000
vt 0.593087 0.000000
vt 0.591846 0.083558
vt 0.593087 0.250000
vt 0.250000 0.570273
vt 0.160989 0.500000
vt 0.250000 0.500000
vt 0.591846 0.583558
vt 0.409492 0.500000
vt 0.593087 0.500000
vt 0.375000 0.571212
vt 0.591748 0.791188
vt 0.593087 0.750000
vt 0.250000 0.679726
vt 0.250000 0.750000
vt 0.375000 0.875000
vt 0.339991 0.570273
vt 0.589757 1.000000
vt 0.408859 1.000000
vt 0.408859 0.000000
vt 0.589757 0.000000
vt 0.408859 0.750000
vt 0.589757 0.750000
vt 0.359890 0.750000
vt 0.274840 0.750000
vt 0.375000 0.850160
vt 0.375000 0.765110
vt 0.769538 0.715417
vt 0.855462 0.711308
vt 0.858133 0.750000
vt 0.773938 0.750000
vt 0.625000 0.898938
vt 0.625000 0.983133
vt 0.143146 0.711300
vt 0.231854 0.715586
vt 0.225160 0.750000
vt 0.140110 0.750000
vt 0.375000 0.984890
vt 0.375000 0.899840
vt 0.644538 0.711308
vt 0.730462 0.715416
vt 0.726062 0.750000
vt 0.641867 0.750000
vt 0.625000 0.766867
vt 0.625000 0.851062
vt 0.143146 0.538308
vt 0.231854 0.534039
vt 0.408252 0.286589
vt 0.591748 0.291188
vt 0.591748 0.875000
vt 0.591748 0.958812
vt 0.591748 0.375000
vt 0.591748 0.458812
vt 0.591748 0.291188
vt 0.591846 0.166442
vt 0.593087 0.250000
vt 0.593087 0.000000
vt 0.591846 0.083558
vt 0.591846 0.666442
vt 0.593087 0.750000
vt 0.593087 0.500000
vt 0.591846 0.583558
vt 0.591748 0.791188
vt 0.843373 0.682076
vt 0.843240 0.567416
vt 0.855462 0.538220
vt 0.769525 0.687541
vt 0.644538 0.538220
vt 0.730462 0.534131
vt 0.769491 0.561890
vt 0.769538 0.534131
vt 0.769491 0.561890
vt 0.843240 0.567416
vt 0.843373 0.682076
vt 0.769525 0.687541
vt 0.730476 0.687541
vt 0.730476 0.687541
vt 0.900000 0.500000
vt 0.900000 0.750000
vt 0.800000 0.750000
vt 0.800000 0.500000
vt 1.000000 0.750000
vt 0.900000 1.000000
vt 0.700000 0.750000
vt 0.700000 0.500000
vt 0.800000 1.000000
vt 0.600000 0.750000
vt 0.600000 0.500000
vt 0.700000 1.000000
vt 0.500000 0.750000
vt 0.500000 0.500000
vt 0.600000 1.000000
vt 0.400000 0.750000
vt 0.400000 0.500000
vt 0.500000 1.000000
vt 0.300000 0.750000
vt 0.300000 0.500000
vt 0.400000 1.000000
vt 0.200000 0.750000
vt 0.200000 0.500000
vt 0.300000 1.000000
vt 0.100000 0.750000
vt 0.100000 0.500000
vt 0.200000 1.000000
vt -0.000000 0.750000
vt -0.000000 0.500000
vt 0.100000 1.000000
vt 1.000000 0.500000
vt -0.000000 1.000000
vn 0.0003 -0.2477 0.9688
vn 0.0003 -0.0243 0.9997
vn -0.1204 -0.0247 0.9924
vn -0.2361 -0.1850 0.9540
vn 0.7321 -0.6080 -0.3072
vn 0.9995 -0.0290 0.0083
vn 0.9826 -0.1832 0.0307
vn -0.9826 -0.1833 0.0314
vn -0.9995 -0.0290 0.0090
vn -0.7323 -0.6080 -0.3066
vn -0.0003 -0.0082 -1.0000
vn -0.0004 -0.0042 -1.0000
vn 0.1422 -0.0041 -0.9898
vn 0.1508 -0.0081 -0.9885
vn 0.0003 -0.3060 0.9520
vn 0.0003 0.3114 0.9503
vn -0.4638 0.2076 0.8612
vn -0.4757 -0.1743 0.8622
vn 0.4763 -0.1743 0.8619
vn 0.4644 0.2076 0.8609
vn -0.7587 0.6514 -0.0008
vn 0.9986 0.0099 -0.0515
vn 0.9958 0.0102 0.0911
vn 0.9957 0.0102 0.0921
vn -0.0306 0.0003 -0.9995
vn -0.0003 0.0003 -1.0000
vn 0.0299 0.0003 -0.9996
vn -0.9956 0.0102 0.0928
vn -0.9957 0.0102 0.0918
vn -0.9987 0.0099 -0.0508
vn 0.1030 0.3975 0.9118
vn 0.0003 0.3996 0.9167
vn 0.4108 -0.9087 -0.0743
vn 0.4423 -0.8889 0.1192
vn 0.4475 -0.8786 0.1667
vn -0.3754 -0.9211 0.1031
vn -0.2991 -0.6374 0.7101
vn -0.6162 -0.5431 0.5704
vn -0.7572 -0.6489 0.0747
vn -0.7189 -0.1856 0.6699
vn 0.3755 -0.9211 0.1028
vn 0.7572 -0.6489 0.0742
vn 0.6166 -0.5431 0.5700
vn 0.2996 -0.6374 0.7099
vn 0.7194 -0.1856 0.6694
vn 0.2367 -0.1850 0.9538
vn -0.9534 -0.0251 0.3006
vn -0.9599 -0.0306 -0.2788
vn -0.0001 -0.9320 -0.3624
vn -0.0002 -0.7797 -0.6261
vn 0.9597 -0.0306 -0.2795
vn 0.1211 -0.0247 0.9923
vn 0.9536 -0.0251 0.2999
vn 0.0000 -0.9918 0.1274
vn 0.0002 -0.7266 0.6870
vn -0.8105 0.1686 0.5609
vn -0.7488 -0.3907 0.5354
vn 0.7491 -0.3907 0.5349
vn 0.8109 0.1686 0.5603
vn 0.0002 -0.7598 0.6502
vn 0.0000 0.9980 0.0630
vn -0.2587 0.9653 0.0348
vn -0.2357 0.9705 0.0517
vn 0.0000 0.9986 0.0531
vn 0.0003 0.5561 0.8311
vn -0.4422 -0.8889 0.1195
vn -0.4474 -0.8786 0.1670
vn 0.2587 0.9653 0.0346
vn 0.2357 0.9705 0.0515
vn -0.4108 -0.9087 -0.0741
vn -0.1514 -0.0081 -0.9884
vn -0.1429 -0.0041 -0.9897
vn 0.0003 0.0004 1.0000
vn -0.1332 0.0004 0.9911
vn -0.0003 -0.0002 -1.0000
vn 0.1340 -0.0002 -0.9910
vn -0.1347 -0.0002 -0.9909
vn -1.0000 -0.0001 0.0012
vn -0.9602 0.0000 -0.2793
vn -0.9595 -0.0003 0.2818
vn 1.0000 -0.0001 0.0005
vn 0.9597 -0.0003 0.2811
vn 0.9600 0.0000 -0.2800
vn 0.1339 0.0004 0.9910
vn -0.2533 0.9656 0.0585
vn -0.2724 0.9588 -0.0806
vn -0.2716 0.9590 -0.0811
vn 0.2724 0.9588 -0.0808
vn 0.2534 0.9656 0.0583
vn 0.2715 0.9590 -0.0813
vn -0.0000 0.9935 -0.1137
vn -0.0000 0.9998 -0.0223
vn -0.2056 0.9784 -0.0217
vn 0.2056 0.9784 -0.0219
vn 0.7587 0.6514 -0.0013
vn -0.1024 0.3974 0.9119
vn -0.0003 0.4083 -0.9128
vn 0.0309 0.4081 -0.9124
vn -0.0315 0.4082 -0.9124
vn 0.5245 0.7077 0.4734
vn 0.4182 0.5564 0.7180
vn 0.6758 0.2007 0.7093
vn 0.8467 0.2612 0.4636
vn 0.0003 0.6925 0.7215
vn 0.0003 -0.0275 0.9996
vn 0.6749 -0.2378 0.6986
vn 0.8444 -0.2880 0.4517
vn 0.4167 -0.5918 0.6900
vn 0.5208 -0.7302 0.4422
vn 0.0002 -0.7268 0.6869
vn 0.0001 -0.8986 0.4387
vn -0.4162 -0.5918 0.6903
vn -0.5205 -0.7302 0.4425
vn -0.6744 -0.2378 0.6990
vn -0.8441 -0.2880 0.4523
vn -0.6753 0.2007 0.7097
vn -0.8463 0.2612 0.4642
vn -0.4177 0.5564 0.7183
vn -0.5241 0.7077 0.4738
vn 0.0002 0.8787 0.4773
usemtl BrownDark
s 1
f 52/1/1 53/2/2 8/3/3 2/4/4
s 2
f 21/5/5 20/6/6 13/7/7
s 3
f 3/8/8 9/9/9 10/10/10
s 4
f 48/11/11 49/12/12 22/13/13 21/14/14
s 5
f 41/15/15 44/16/16 26/17/17 24/18/18
s 6
f 32/19/19 35/20/20 44/21/16 41/22/15
s 7
f 34/23/21 38/24/21 92/25/21 93/26/21
s 8
f 37/27/22 85/28/22 86/29/23 31/30/24
s 9
f 29/31/25 84/32/25 87/33/26 39/34/26
s 10
f 39/35/26 87/36/26 85/37/27 37/38/27
s 11
f 23/39/28 83/40/29 84/41/30 29/42/30
s 12
f 38/24/31 40/43/32 89/44/32 92/25/31
s 13
f 39/45/33 37/46/33 31/47/34 42/48/35
s 14
f 1/49/36 4/50/37 5/51/38 7/52/39
s 15
f 2/4/4 6/53/40 5/54/38 4/55/37
s 16
f 3/8/8 7/56/39 5/57/38 6/58/40
s 17
f 12/59/41 15/60/42 16/61/43 18/62/44
s 18
f 13/7/7 17/63/45 16/61/43 15/60/42
s 19
f 14/64/46 18/65/44 16/61/43 17/63/45
s 20
f 10/66/10 1/49/36 7/52/39
s 21
f 10/67/10 7/56/39 3/8/8
s 22
f 2/4/4 8/68/3 6/53/40
s 23
f 6/58/40 8/69/47 9/70/9 3/8/8
s 24
f 11/71/48 10/10/10 9/9/9
s 25
f 47/72/49 10/73/10 48/74/50
s 26
f 20/75/6 21/76/5 22/77/51
s 27
f 12/59/41 21/78/5 15/60/42
s 28
f 15/60/42 21/5/5 13/7/7
s 29
f 19/79/52 14/64/46 17/63/45
s 30
f 19/80/53 17/63/45 13/7/7 20/6/6
s 31
f 50/81/54 12/59/41 18/62/44 51/82/55
s 32
f 51/83/55 18/65/44 14/64/46 52/1/1
s 33
f 47/72/49 21/84/5 12/59/41 50/81/54
s 34
f 24/18/18 26/17/17 28/85/56 25/86/57
s 35
f 25/87/57 28/88/56 83/40/29 23/39/28
s 36
f 35/20/20 32/19/19 33/89/58 36/90/59
s 37
f 36/90/59 33/89/58 31/30/24 86/29/23
s 38
f 42/48/35 31/47/34 33/91/58 43/92/60
s 39
f 43/93/60 33/94/58 32/19/19 41/22/15
s 40
f 45/95/61 83/96/62 28/97/63 46/98/64
s 41
f 46/99/65 28/100/56 26/17/17 44/16/16
s 42
f 23/101/66 42/102/67 43/103/60 25/104/57
s 43
f 25/105/57 43/106/60 41/15/15 24/18/18
s 44
f 86/107/68 45/108/61 46/109/64 36/110/69
s 45
f 36/111/59 46/112/65 44/21/16 35/20/20
s 46
f 29/113/70 39/114/70 42/102/67 23/101/66
s 47
f 10/66/10 47/72/49 50/81/54 1/49/36
s 48
f 4/55/37 51/83/55 52/1/1 2/4/4
s 49
f 1/49/36 50/81/54 51/82/55 4/50/37
s 50
f 21/84/5 47/72/49 48/74/50
s 51
f 10/115/71 11/116/72 49/12/12 48/11/11
s 52
f 14/64/46 19/79/52 53/2/2 52/1/1
s 73
f 8/3/3 53/2/2 82/117/73 75/118/74
s 74
f 22/13/13 49/12/12 81/119/75 80/120/76
s 75
f 49/12/12 11/116/72 77/121/77 81/119/75
s 76
f 11/71/48 9/9/9 76/122/78 77/123/79
s 77
f 9/70/9 8/69/47 75/124/80 76/125/78
s 78
f 19/80/53 20/6/6 79/126/81 78/127/82
s 79
f 20/75/6 22/77/51 80/128/83 79/129/81
s 80
f 53/2/2 19/79/52 78/130/84 82/117/73
s 81
f 27/131/85 30/132/86 84/133/87 83/96/62
s 82
f 45/134/61 27/131/85 83/96/62
s 83
f 38/24/88 34/23/89 86/107/68 85/135/90
s 84
f 34/23/89 45/108/61 86/107/68
s 85
f 40/43/91 38/24/88 85/135/90 87/136/91
s 86
f 30/132/86 40/137/91 87/138/91 84/133/87
s 87
f 89/139/92 91/140/93 90/141/93 88/142/92
s 88
f 92/25/94 89/44/92 88/143/92 93/26/94
s 89
f 30/132/95 27/131/95 90/141/95 91/140/95
s 90
f 40/137/32 30/132/96 91/140/96 89/139/32
s 91
f 45/144/97 34/23/98 93/26/98 88/143/97
s 92
f 27/131/99 45/134/97 88/142/97 90/141/99
usemtl Metal
s 53
f 58/145/100 54/146/101 67/147/102 59/148/103
s 54
f 55/149/104 57/150/105 54/146/101
s 55
f 59/148/103 67/147/102 68/151/106 60/152/107
s 56
f 54/146/101 57/153/105 67/147/102
s 57
f 60/152/107 68/151/106 69/154/108 61/155/109
s 58
f 67/147/102 57/156/105 68/151/106
s 59
f 61/155/109 69/154/108 70/157/110 62/158/111
s 60
f 68/151/106 57/159/105 69/154/108
s 61
f 62/158/111 70/157/110 71/160/112 63/161/113
s 62
f 69/154/108 57/162/105 70/157/110
s 63
f 63/161/113 71/160/112 72/163/114 64/164/115
s 64
f 70/157/110 57/165/105 71/160/112
s 65
f 64/164/115 72/163/114 73/166/116 65/167/117
s 66
f 71/160/112 57/168/105 72/163/114
s 67
f 65/167/117 73/166/116 74/169/118 66/170/119
s 68
f 72/163/114 57/171/105 73/166/116
s 69
f 66/170/119 74/169/118 55/172/104 56/173/120
s 70
f 73/166/116 57/174/105 74/169/118
s 71
f 56/175/120 55/149/104 54/146/101 58/145/100
s 72
f 74/169/118 57/176/105 55/172/104
