# Blender v2.80 (sub 75) OBJ File: 'DungeonExport.blend'
# www.blender.org
mtllib scaffold_high_railing.mtl
o scaffold_high_railing_Cube.2469
v -2.000000 4.100000 -0.700001
v -2.000000 4.000000 -0.700001
v -2.000000 4.100000 -1.300001
v -2.000000 4.000000 -1.300001
v 2.000000 4.100000 -0.699999
v 2.000000 4.000000 -0.699999
v 2.000000 4.100000 -1.299999
v 2.000000 4.000000 -1.299999
v 2.000000 4.000000 -1.999999
v 2.000000 4.100000 -1.999999
v 2.000000 4.000000 -1.399999
v 2.000000 4.100000 -1.399999
v -2.000000 4.000000 -2.000001
v -2.000000 4.100000 -2.000001
v -2.000000 4.000000 -1.400001
v -2.000000 4.100000 -1.400001
v 2.000000 4.000000 -0.599999
v 2.000000 4.100000 -0.599999
v 2.000000 4.000000 -0.049999
v 2.000000 4.100000 -0.049999
v -2.000000 4.000000 -0.600001
v -2.000000 4.100000 -0.600001
v -2.000000 4.000000 -0.050001
v -2.000000 4.100000 -0.050001
v 1.300000 3.900000 0.000000
v 1.300000 4.000000 0.000000
v 0.700000 3.900000 0.000000
v 0.700000 4.000000 0.000000
v 1.300000 3.900000 -2.000000
v 1.300000 4.000000 -2.000000
v 0.700000 3.900000 -2.000000
v 0.700000 4.000000 -2.000000
v 1.900000 0.000000 -0.099999
v 1.900000 4.000000 -0.099999
v 1.900000 0.000000 0.100001
v 1.900000 4.000000 0.100001
v 1.700000 0.000000 -0.099999
v 1.700000 4.000000 -0.099999
v 1.700000 0.000000 0.100001
v 1.700000 4.000000 0.100001
v 1.900000 0.000000 -1.899999
v 1.900000 4.900000 -1.899999
v 1.900000 0.000000 -1.699999
v 1.900000 4.900000 -1.699999
v 1.700000 0.000000 -1.899999
v 1.700000 4.900000 -1.899999
v 1.700000 0.000000 -1.699999
v 1.700000 4.900000 -1.699999
v 0.050000 1.800000 -2.000000
v 0.050000 2.100000 -2.000000
v -0.050000 1.800000 -2.000000
v -0.050000 2.100000 -2.000000
v 1.700000 1.800000 -1.999999
v 1.700000 2.100000 -1.999999
v 1.600000 1.800000 -2.000000
v 1.600000 2.100000 -2.000000
v 2.000000 1.600000 -1.700000
v 2.000000 1.900000 -1.700000
v 2.000000 1.600000 -1.600000
v 2.000000 1.900000 -1.600000
v -2.000000 1.600000 -1.700001
v -2.000000 1.900000 -1.700001
v -2.000000 1.600000 -1.600001
v -2.000000 1.900000 -1.600001
v -0.700000 3.900000 -0.000000
v -0.700000 4.000000 -0.000000
v -1.300000 3.900000 -0.000000
v -1.300000 4.000000 -0.000000
v -0.700000 3.900000 -2.000000
v -0.700000 4.000000 -2.000000
v -1.300000 3.900000 -2.000000
v -1.300000 4.000000 -2.000000
v -1.700000 0.000000 -0.100001
v -1.700000 4.000000 -0.100001
v -1.700000 0.000000 0.099999
v -1.700000 4.000000 0.099999
v -1.900000 0.000000 -0.100001
v -1.900000 4.000000 -0.100001
v -1.900000 0.000000 0.099999
v -1.900000 4.000000 0.099999
v 0.100000 0.000000 -0.100000
v 0.100000 4.000000 -0.100000
v 0.100000 0.000000 0.100000
v 0.100000 4.000000 0.100000
v -0.100000 0.000000 -0.100000
v -0.100000 4.000000 -0.100000
v -0.100000 0.000000 0.100000
v -0.100000 4.000000 0.100000
v -1.700000 0.000000 -1.900001
v -1.700000 4.900000 -1.900001
v -1.700000 0.000000 -1.700001
v -1.700000 4.900000 -1.700001
v -1.900000 0.000000 -1.900001
v -1.900000 4.900000 -1.900001
v -1.900000 0.000000 -1.700001
v -1.900000 4.900000 -1.700001
v 0.100000 0.000000 -1.900000
v 0.100000 4.900000 -1.900000
v 0.100000 0.000000 -1.700000
v 0.100000 4.900000 -1.700000
v -0.100000 0.000000 -1.900000
v -0.100000 4.900000 -1.900000
v -0.100000 0.000000 -1.700000
v -0.100000 4.900000 -1.700000
v -1.600000 1.800000 -2.000000
v -1.600000 2.100000 -2.000000
v -1.700000 1.800000 -2.000000
v -1.700000 2.100000 -2.000000
v 2.000000 5.000000 -1.999999
v 2.000000 5.100000 -1.999999
v 2.000000 5.000000 -1.599999
v 2.000000 5.100000 -1.599999
v -2.000000 5.000000 -2.000001
v -2.000000 5.100000 -2.000001
v -2.000000 5.000000 -1.600001
v -2.000000 5.100000 -1.600001
v 2.000000 4.900000 -1.699999
v 2.000000 4.900000 -1.899999
v -2.000000 4.900000 -1.700001
v -2.000000 4.900000 -1.900001
v 1.999999 4.100000 0.700000
v 1.999999 4.000000 0.700000
v 1.999999 4.100000 1.300000
v 1.999999 4.000000 1.300000
v -2.000000 4.100000 0.700000
v -2.000000 4.000000 0.700000
v -2.000001 4.100000 1.300000
v -2.000001 4.000000 1.300000
v -2.000001 4.000000 2.000000
v -2.000001 4.100000 2.000000
v -2.000001 4.000000 1.400000
v -2.000001 4.100000 1.400000
v 1.999999 4.000000 2.000000
v 1.999999 4.100000 2.000000
v 1.999999 4.000000 1.400000
v 1.999999 4.100000 1.400000
v -2.000001 4.000000 0.600000
v -2.000001 4.100000 0.600000
v -2.000000 4.000000 0.050000
v -2.000000 4.100000 0.050000
v 1.999999 4.000000 0.600000
v 1.999999 4.100000 0.600000
v 1.999999 4.000000 0.050000
v 1.999999 4.100000 0.050000
v -1.300001 3.900000 0.000000
v -1.300001 4.000000 0.000000
v -0.700001 3.900000 0.000000
v -0.700001 4.000000 0.000000
v -1.300001 3.900000 2.000000
v -1.300001 4.000000 2.000000
v -0.700001 3.900000 2.000000
v -0.700001 4.000000 2.000000
v -1.900001 0.000000 1.900000
v -1.900001 4.900000 1.900000
v -1.900001 0.000000 1.700000
v -1.900001 4.900000 1.700000
v -1.700001 0.000000 1.900000
v -1.700001 4.900000 1.900000
v -1.700001 0.000000 1.700000
v -1.700001 4.900000 1.700000
v -0.050001 1.800000 2.000000
v -0.050001 2.100000 2.000000
v 0.049999 1.800000 2.000000
v 0.049999 2.100000 2.000000
v -1.700001 1.800000 2.000000
v -1.700001 2.100000 2.000000
v -1.600001 1.800000 2.000000
v -1.600001 2.100000 2.000000
v -2.000000 1.600000 0.050000
v -2.000000 1.900000 0.050000
v -2.000000 1.600000 -0.049999
v -2.000000 1.900000 -0.049999
v 2.000000 1.600000 0.050000
v 2.000000 1.900000 0.050000
v 2.000000 1.600000 -0.050000
v 2.000000 1.900000 -0.050000
v -2.000000 1.600000 1.700001
v -2.000000 1.900000 1.700001
v -2.000000 1.600000 1.600001
v -2.000000 1.900000 1.600001
v 2.000000 1.600000 1.700000
v 2.000000 1.900000 1.700000
v 2.000000 1.600000 1.600001
v 2.000000 1.900000 1.600001
v 0.699999 3.900000 -0.000000
v 0.699999 4.000000 -0.000000
v 1.299999 3.900000 -0.000000
v 1.299999 4.000000 -0.000000
v 0.699999 3.900000 2.000000
v 0.699999 4.000000 2.000000
v 1.299999 3.900000 2.000000
v 1.299999 4.000000 2.000000
v 1.699999 0.000000 1.900000
v 1.699999 4.900000 1.900000
v 1.699999 0.000000 1.700000
v 1.699999 4.900000 1.700000
v 1.899999 0.000000 1.900000
v 1.899999 4.900000 1.900000
v 1.899999 0.000000 1.700000
v 1.899999 4.900000 1.700000
v -0.100001 0.000000 1.900000
v -0.100001 4.900000 1.900000
v -0.100001 0.000000 1.700000
v -0.100001 4.900000 1.700000
v 0.099999 0.000000 1.900000
v 0.099999 4.900000 1.900000
v 0.099999 0.000000 1.700000
v 0.099999 4.900000 1.700000
v 1.600000 1.800000 2.000000
v 1.600000 2.100000 2.000000
v 1.699999 1.800000 2.000000
v 1.699999 2.100000 2.000000
v -2.000001 5.000000 2.000000
v -2.000001 5.100000 2.000000
v -2.000000 5.000000 1.600000
v -2.000000 5.100000 1.600000
v 1.999999 5.000000 2.000000
v 1.999999 5.100000 2.000000
v 1.999999 5.000000 1.600000
v 1.999999 5.100000 1.600000
v -2.000000 4.900000 1.700000
v -2.000001 4.900000 1.900000
v 1.999999 4.900000 1.700000
v 1.999999 4.900000 1.900000
vt 0.375000 0.500000
vt 0.625000 0.500000
vt 0.625000 0.750000
vt 0.375000 0.750000
vt 0.625000 1.000000
vt 0.375000 1.000000
vt 0.375000 0.000000
vt 0.625000 0.000000
vt 0.625000 0.250000
vt 0.375000 0.250000
vt 0.125000 0.500000
vt 0.125000 0.750000
vt 0.875000 0.500000
vt 0.875000 0.750000
vt 0.375000 0.000000
vt 0.625000 0.000000
vt 0.625000 0.250000
vt 0.375000 0.250000
vt 0.625000 0.500000
vt 0.375000 0.500000
vt 0.625000 0.750000
vt 0.375000 0.750000
vt 0.625000 1.000000
vt 0.375000 1.000000
vt 0.125000 0.500000
vt 0.125000 0.750000
vt 0.875000 0.500000
vt 0.875000 0.750000
vt 0.625000 0.500000
vt 0.875000 0.500000
vt 0.875000 0.750000
vt 0.625000 0.750000
vt 0.375000 0.250000
vt 0.625000 0.250000
vt 0.375000 0.500000
vt 0.125000 0.500000
vt 0.375000 0.750000
vt 0.125000 0.750000
vt 0.625000 1.000000
vt 0.375000 1.000000
vt 0.375000 0.000000
vt 0.625000 0.000000
vt 0.375000 0.000000
vt 0.625000 0.000000
vt 0.625000 0.250000
vt 0.375000 0.250000
vt 0.625000 0.500000
vt 0.375000 0.500000
vt 0.625000 0.750000
vt 0.375000 0.750000
vt 0.625000 1.000000
vt 0.375000 1.000000
vt 0.125000 0.500000
vt 0.125000 0.750000
vt 0.875000 0.500000
vt 0.875000 0.750000
vt 0.375000 0.000000
vt 0.625000 0.000000
vt 0.625000 0.250000
vt 0.375000 0.250000
vt 0.625000 0.500000
vt 0.375000 0.500000
vt 0.625000 0.750000
vt 0.375000 0.750000
vt 0.625000 1.000000
vt 0.375000 1.000000
vt 0.125000 0.500000
vt 0.125000 0.750000
vt 0.875000 0.500000
vt 0.875000 0.750000
vt 0.375000 0.000000
vt 0.625000 0.000000
vt 0.625000 0.250000
vt 0.375000 0.250000
vt 0.625000 0.500000
vt 0.375000 0.500000
vt 0.625000 0.750000
vt 0.375000 0.750000
vt 0.625000 1.000000
vt 0.375000 1.000000
vt 0.125000 0.500000
vt 0.125000 0.750000
vt 0.875000 0.500000
vt 0.875000 0.750000
vt 0.375000 0.500000
vt 0.625000 0.500000
vt 0.625000 0.750000
vt 0.375000 0.750000
vt 0.375000 0.500000
vt 0.625000 0.500000
vt 0.625000 0.750000
vt 0.375000 0.750000
vt 0.375000 0.000000
vt 0.625000 0.000000
vt 0.625000 0.250000
vt 0.375000 0.250000
vt 0.625000 0.500000
vt 0.375000 0.500000
vt 0.625000 0.750000
vt 0.375000 0.750000
vt 0.625000 1.000000
vt 0.375000 1.000000
vt 0.125000 0.500000
vt 0.125000 0.750000
vt 0.875000 0.500000
vt 0.875000 0.750000
vt 0.375000 0.000000
vt 0.625000 0.000000
vt 0.625000 0.250000
vt 0.375000 0.250000
vt 0.625000 0.500000
vt 0.375000 0.500000
vt 0.625000 0.750000
vt 0.375000 0.750000
vt 0.625000 1.000000
vt 0.375000 1.000000
vt 0.125000 0.500000
vt 0.125000 0.750000
vt 0.875000 0.500000
vt 0.875000 0.750000
vt 0.375000 0.000000
vt 0.625000 0.000000
vt 0.625000 0.250000
vt 0.375000 0.250000
vt 0.625000 0.500000
vt 0.375000 0.500000
vt 0.625000 0.750000
vt 0.375000 0.750000
vt 0.625000 1.000000
vt 0.375000 1.000000
vt 0.125000 0.500000
vt 0.125000 0.750000
vt 0.875000 0.500000
vt 0.875000 0.750000
vt 0.375000 0.000000
vt 0.625000 0.000000
vt 0.625000 0.250000
vt 0.375000 0.250000
vt 0.625000 0.500000
vt 0.375000 0.500000
vt 0.625000 0.750000
vt 0.375000 0.750000
vt 0.625000 1.000000
vt 0.375000 1.000000
vt 0.125000 0.500000
vt 0.125000 0.750000
vt 0.875000 0.500000
vt 0.875000 0.750000
vt 0.375000 0.000000
vt 0.625000 0.000000
vt 0.625000 0.250000
vt 0.375000 0.250000
vt 0.625000 0.500000
vt 0.375000 0.500000
vt 0.625000 0.750000
vt 0.375000 0.750000
vt 0.625000 1.000000
vt 0.375000 1.000000
vt 0.125000 0.500000
vt 0.125000 0.750000
vt 0.875000 0.500000
vt 0.875000 0.750000
vt 0.375000 0.000000
vt 0.625000 0.000000
vt 0.625000 0.250000
vt 0.375000 0.250000
vt 0.625000 0.500000
vt 0.375000 0.500000
vt 0.625000 0.750000
vt 0.375000 0.750000
vt 0.625000 1.000000
vt 0.375000 1.000000
vt 0.125000 0.500000
vt 0.125000 0.750000
vt 0.875000 0.500000
vt 0.875000 0.750000
vt 0.375000 0.500000
vt 0.625000 0.500000
vt 0.625000 0.750000
vt 0.375000 0.750000
vt 0.375000 0.000000
vt 0.625000 0.000000
vt 0.625000 0.250000
vt 0.375000 0.250000
vt 0.625000 0.500000
vt 0.375000 0.500000
vt 0.625000 0.750000
vt 0.375000 0.750000
vt 0.625000 1.000000
vt 0.375000 1.000000
vt 0.375000 1.000000
vt 0.375000 0.750000
vt 0.875000 0.500000
vt 0.875000 0.750000
vt 0.125000 0.500000
vt 0.375000 0.500000
vt 0.125000 0.750000
vt 0.375000 0.250000
vt 0.375000 0.000000
vt 0.375000 0.500000
vt 0.625000 0.500000
vt 0.625000 0.750000
vt 0.375000 0.750000
vt 0.625000 1.000000
vt 0.375000 1.000000
vt 0.375000 0.000000
vt 0.625000 0.000000
vt 0.625000 0.250000
vt 0.375000 0.250000
vt 0.125000 0.500000
vt 0.125000 0.750000
vt 0.875000 0.500000
vt 0.875000 0.750000
vt 0.375000 0.000000
vt 0.625000 0.000000
vt 0.625000 0.250000
vt 0.375000 0.250000
vt 0.625000 0.500000
vt 0.375000 0.500000
vt 0.625000 0.750000
vt 0.375000 0.750000
vt 0.625000 1.000000
vt 0.375000 1.000000
vt 0.125000 0.500000
vt 0.125000 0.750000
vt 0.875000 0.500000
vt 0.875000 0.750000
vt 0.625000 0.500000
vt 0.875000 0.500000
vt 0.875000 0.750000
vt 0.625000 0.750000
vt 0.375000 0.250000
vt 0.625000 0.250000
vt 0.375000 0.500000
vt 0.125000 0.500000
vt 0.375000 0.750000
vt 0.125000 0.750000
vt 0.625000 1.000000
vt 0.375000 1.000000
vt 0.375000 0.000000
vt 0.625000 0.000000
vt 0.375000 0.000000
vt 0.625000 0.000000
vt 0.625000 0.250000
vt 0.375000 0.250000
vt 0.625000 0.500000
vt 0.375000 0.500000
vt 0.625000 0.750000
vt 0.375000 0.750000
vt 0.625000 1.000000
vt 0.375000 1.000000
vt 0.125000 0.500000
vt 0.125000 0.750000
vt 0.875000 0.500000
vt 0.875000 0.750000
vt 0.375000 0.000000
vt 0.625000 0.000000
vt 0.625000 0.250000
vt 0.375000 0.250000
vt 0.625000 0.500000
vt 0.375000 0.500000
vt 0.625000 0.750000
vt 0.375000 0.750000
vt 0.625000 1.000000
vt 0.375000 1.000000
vt 0.125000 0.500000
vt 0.125000 0.750000
vt 0.875000 0.500000
vt 0.875000 0.750000
vt 0.375000 0.500000
vt 0.375000 0.750000
vt 0.375000 0.500000
vt 0.375000 0.750000
vt 0.375000 0.500000
vt 0.625000 0.500000
vt 0.625000 0.750000
vt 0.375000 0.750000
vt 0.625000 0.750000
vt 0.625000 0.500000
vt 0.375000 0.500000
vt 0.625000 0.750000
vt 0.625000 0.750000
vt 0.625000 0.500000
vt 0.625000 0.500000
vt 0.375000 0.500000
vt 0.375000 0.750000
vt 0.625000 0.750000
vt 0.375000 0.500000
vt 0.625000 0.500000
vt 0.625000 0.750000
vt 0.375000 0.750000
vt 0.375000 0.750000
vt 0.625000 0.750000
vt 0.625000 0.500000
vt 0.375000 0.500000
vt 0.375000 0.500000
vt 0.625000 0.750000
vt 0.375000 0.500000
vt 0.375000 0.500000
vt 0.375000 0.000000
vt 0.625000 0.000000
vt 0.625000 0.250000
vt 0.375000 0.250000
vt 0.625000 0.500000
vt 0.375000 0.500000
vt 0.625000 0.750000
vt 0.375000 0.750000
vt 0.625000 1.000000
vt 0.375000 1.000000
vt 0.125000 0.500000
vt 0.125000 0.750000
vt 0.875000 0.500000
vt 0.875000 0.750000
vt 0.375000 0.000000
vt 0.625000 0.000000
vt 0.625000 0.250000
vt 0.375000 0.250000
vt 0.625000 0.500000
vt 0.375000 0.500000
vt 0.625000 0.750000
vt 0.375000 0.750000
vt 0.625000 1.000000
vt 0.375000 1.000000
vt 0.125000 0.500000
vt 0.125000 0.750000
vt 0.875000 0.500000
vt 0.875000 0.750000
vt 0.375000 0.000000
vt 0.625000 0.000000
vt 0.625000 0.250000
vt 0.375000 0.250000
vt 0.625000 0.500000
vt 0.375000 0.500000
vt 0.625000 0.750000
vt 0.375000 0.750000
vt 0.625000 1.000000
vt 0.375000 1.000000
vt 0.125000 0.500000
vt 0.125000 0.750000
vt 0.875000 0.500000
vt 0.875000 0.750000
vt 0.375000 0.000000
vt 0.625000 0.000000
vt 0.625000 0.250000
vt 0.375000 0.250000
vt 0.625000 0.500000
vt 0.375000 0.500000
vt 0.625000 0.750000
vt 0.375000 0.750000
vt 0.625000 1.000000
vt 0.375000 1.000000
vt 0.125000 0.500000
vt 0.125000 0.750000
vt 0.875000 0.500000
vt 0.875000 0.750000
vt 0.375000 0.000000
vt 0.625000 0.000000
vt 0.625000 0.250000
vt 0.375000 0.250000
vt 0.625000 0.500000
vt 0.375000 0.500000
vt 0.625000 0.750000
vt 0.375000 0.750000
vt 0.625000 1.000000
vt 0.375000 1.000000
vt 0.125000 0.500000
vt 0.125000 0.750000
vt 0.875000 0.500000
vt 0.875000 0.750000
vt 0.375000 0.750000
vt 0.625000 0.750000
vt 0.625000 0.500000
vt 0.375000 0.500000
vt 0.625000 0.750000
vt 0.625000 0.750000
vt 0.625000 0.500000
vt 0.375000 0.500000
vt 0.625000 0.500000
vt 0.625000 0.750000
vt 0.375000 0.750000
vt 0.375000 0.500000
vt 0.375000 0.750000
vt 0.375000 0.500000
vt 0.625000 0.750000
vt 0.625000 0.750000
vt 0.375000 0.500000
vt 0.625000 0.750000
vt 0.375000 0.000000
vt 0.625000 0.000000
vt 0.625000 0.250000
vt 0.375000 0.250000
vt 0.625000 0.500000
vt 0.375000 0.500000
vt 0.625000 0.750000
vt 0.375000 0.750000
vt 0.625000 1.000000
vt 0.375000 1.000000
vt 0.375000 1.000000
vt 0.375000 0.750000
vt 0.875000 0.500000
vt 0.875000 0.750000
vt 0.125000 0.500000
vt 0.375000 0.500000
vt 0.125000 0.750000
vt 0.375000 0.250000
vt 0.375000 0.000000
vn -1.0000 0.0000 -0.0000
vn 0.0000 0.0000 -1.0000
vn 1.0000 0.0000 0.0000
vn -0.0000 0.0000 1.0000
vn 0.0000 -1.0000 0.0000
vn 0.0000 1.0000 0.0000
vn 0.0000 -0.7071 -0.7071
vn -0.0000 -0.7071 0.7071
usemtl WoodDark
s off
f 2/1/1 1/2/1 3/3/1 4/4/1
f 4/4/2 3/3/2 7/5/2 8/6/2
f 8/7/3 7/8/3 5/9/3 6/10/3
f 6/10/4 5/9/4 1/2/4 2/1/4
f 6/11/5 2/1/5 4/4/5 8/12/5
f 1/2/6 5/13/6 7/14/6 3/3/6
f 9/15/3 10/16/3 12/17/3 11/18/3
f 11/18/4 12/17/4 16/19/4 15/20/4
f 15/20/1 16/19/1 14/21/1 13/22/1
f 13/22/2 14/21/2 10/23/2 9/24/2
f 11/25/5 15/20/5 13/22/5 9/26/5
f 16/19/6 12/27/6 10/28/6 14/21/6
f 24/29/6 20/30/6 18/31/6 22/32/6
f 19/33/4 20/34/4 24/29/4 23/35/4
f 19/36/5 23/35/5 21/37/5 17/38/5
f 21/37/2 22/32/2 18/39/2 17/40/2
f 23/35/1 24/29/1 22/32/1 21/37/1
f 17/41/3 18/42/3 20/34/3 19/33/3
f 25/43/4 26/44/4 28/45/4 27/46/4
f 27/46/1 28/45/1 32/47/1 31/48/1
f 31/48/2 32/47/2 30/49/2 29/50/2
f 29/50/3 30/49/3 26/51/3 25/52/3
f 27/53/5 31/48/5 29/50/5 25/54/5
f 32/47/6 28/55/6 26/56/6 30/49/6
f 33/57/3 34/58/3 36/59/3 35/60/3
f 35/60/4 36/59/4 40/61/4 39/62/4
f 39/62/1 40/61/1 38/63/1 37/64/1
f 37/64/2 38/63/2 34/65/2 33/66/2
f 35/67/5 39/62/5 37/64/5 33/68/5
f 40/61/6 36/69/6 34/70/6 38/63/6
f 41/71/3 42/72/3 44/73/3 43/74/3
f 43/74/4 44/73/4 48/75/4 47/76/4
f 47/76/1 48/75/1 46/77/1 45/78/1
f 45/78/2 46/77/2 42/79/2 41/80/2
f 43/81/5 47/76/5 45/78/5 41/82/5
f 48/75/6 44/83/6 42/84/6 46/77/6
f 51/85/2 52/86/2 50/87/2 49/88/2
f 55/89/2 56/90/2 54/91/2 53/92/2
f 57/93/3 58/94/3 60/95/3 59/96/3
f 59/96/4 60/95/4 64/97/4 63/98/4
f 63/98/1 64/97/1 62/99/1 61/100/1
f 61/100/2 62/99/2 58/101/2 57/102/2
f 59/103/5 63/98/5 61/100/5 57/104/5
f 64/97/6 60/105/6 58/106/6 62/99/6
f 65/107/4 66/108/4 68/109/4 67/110/4
f 67/110/1 68/109/1 72/111/1 71/112/1
f 71/112/2 72/111/2 70/113/2 69/114/2
f 69/114/3 70/113/3 66/115/3 65/116/3
f 67/117/5 71/112/5 69/114/5 65/118/5
f 72/111/6 68/119/6 66/120/6 70/113/6
f 73/121/3 74/122/3 76/123/3 75/124/3
f 75/124/4 76/123/4 80/125/4 79/126/4
f 79/126/1 80/125/1 78/127/1 77/128/1
f 77/128/2 78/127/2 74/129/2 73/130/2
f 75/131/5 79/126/5 77/128/5 73/132/5
f 80/125/6 76/133/6 74/134/6 78/127/6
f 81/135/3 82/136/3 84/137/3 83/138/3
f 83/138/4 84/137/4 88/139/4 87/140/4
f 87/140/1 88/139/1 86/141/1 85/142/1
f 85/142/2 86/141/2 82/143/2 81/144/2
f 83/145/5 87/140/5 85/142/5 81/146/5
f 88/139/6 84/147/6 82/148/6 86/141/6
f 89/149/3 90/150/3 92/151/3 91/152/3
f 91/152/4 92/151/4 96/153/4 95/154/4
f 95/154/1 96/153/1 94/155/1 93/156/1
f 93/156/2 94/155/2 90/157/2 89/158/2
f 91/159/5 95/154/5 93/156/5 89/160/5
f 96/153/6 92/161/6 90/162/6 94/155/6
f 97/163/3 98/164/3 100/165/3 99/166/3
f 99/166/4 100/165/4 104/167/4 103/168/4
f 103/168/1 104/167/1 102/169/1 101/170/1
f 101/170/2 102/169/2 98/171/2 97/172/2
f 99/173/5 103/168/5 101/170/5 97/174/5
f 104/167/6 100/175/6 98/176/6 102/169/6
f 107/177/2 108/178/2 106/179/2 105/180/2
f 109/181/3 110/182/3 112/183/3 111/184/3
f 111/184/4 112/183/4 116/185/4 115/186/4
f 115/186/1 116/185/1 114/187/1 113/188/1
f 113/188/2 114/187/2 110/189/2 109/190/2
f 113/188/7 109/190/7 118/191/7 120/192/7
f 116/185/6 112/193/6 110/194/6 114/187/6
f 117/195/5 119/196/5 120/192/5 118/197/5
f 111/184/8 115/186/8 119/196/8 117/198/8
f 109/181/3 111/184/3 117/198/3 118/199/3
f 115/186/1 113/188/1 120/192/1 119/196/1
f 122/200/3 121/201/3 123/202/3 124/203/3
f 124/203/4 123/202/4 127/204/4 128/205/4
f 128/206/1 127/207/1 125/208/1 126/209/1
f 126/209/2 125/208/2 121/201/2 122/200/2
f 126/210/5 122/200/5 124/203/5 128/211/5
f 121/201/6 125/212/6 127/213/6 123/202/6
f 129/214/1 130/215/1 132/216/1 131/217/1
f 131/217/2 132/216/2 136/218/2 135/219/2
f 135/219/3 136/218/3 134/220/3 133/221/3
f 133/221/4 134/220/4 130/222/4 129/223/4
f 131/224/5 135/219/5 133/221/5 129/225/5
f 136/218/6 132/226/6 130/227/6 134/220/6
f 144/228/6 140/229/6 138/230/6 142/231/6
f 139/232/2 140/233/2 144/228/2 143/234/2
f 139/235/5 143/234/5 141/236/5 137/237/5
f 141/236/4 142/231/4 138/238/4 137/239/4
f 143/234/3 144/228/3 142/231/3 141/236/3
f 137/240/1 138/241/1 140/233/1 139/232/1
f 145/242/2 146/243/2 148/244/2 147/245/2
f 147/245/3 148/244/3 152/246/3 151/247/3
f 151/247/4 152/246/4 150/248/4 149/249/4
f 149/249/1 150/248/1 146/250/1 145/251/1
f 147/252/5 151/247/5 149/249/5 145/253/5
f 152/246/6 148/254/6 146/255/6 150/248/6
f 153/256/1 154/257/1 156/258/1 155/259/1
f 155/259/2 156/258/2 160/260/2 159/261/2
f 159/261/3 160/260/3 158/262/3 157/263/3
f 157/263/4 158/262/4 154/264/4 153/265/4
f 155/266/5 159/261/5 157/263/5 153/267/5
f 160/260/6 156/268/6 154/269/6 158/262/6
f 53/270/5 211/271/5 209/272/5 55/273/5
f 163/274/4 164/275/4 162/276/4 161/277/4
f 55/273/1 209/278/1 210/279/1 56/280/1
f 56/281/6 210/279/6 212/282/6 54/283/6
f 50/284/3 164/285/3 163/286/3 49/287/3
f 167/288/4 168/289/4 166/290/4 165/291/4
f 51/292/1 161/293/1 162/294/1 52/295/1
f 54/283/3 212/296/3 211/271/3 53/297/3
f 49/298/5 163/286/5 161/299/5 51/292/5
f 169/300/1 170/301/1 172/302/1 171/303/1
f 171/303/2 172/302/2 176/304/2 175/305/2
f 175/305/3 176/304/3 174/306/3 173/307/3
f 173/307/4 174/306/4 170/308/4 169/309/4
f 171/310/5 175/305/5 173/307/5 169/311/5
f 176/304/6 172/312/6 170/313/6 174/306/6
f 177/314/1 178/315/1 180/316/1 179/317/1
f 179/317/2 180/316/2 184/318/2 183/319/2
f 183/319/3 184/318/3 182/320/3 181/321/3
f 181/321/4 182/320/4 178/322/4 177/323/4
f 179/324/5 183/319/5 181/321/5 177/325/5
f 184/318/6 180/326/6 178/327/6 182/320/6
f 185/328/2 186/329/2 188/330/2 187/331/2
f 187/331/3 188/330/3 192/332/3 191/333/3
f 191/333/4 192/332/4 190/334/4 189/335/4
f 189/335/1 190/334/1 186/336/1 185/337/1
f 187/338/5 191/333/5 189/335/5 185/339/5
f 192/332/6 188/340/6 186/341/6 190/334/6
f 193/342/1 194/343/1 196/344/1 195/345/1
f 195/345/2 196/344/2 200/346/2 199/347/2
f 199/347/3 200/346/3 198/348/3 197/349/3
f 197/349/4 198/348/4 194/350/4 193/351/4
f 195/352/5 199/347/5 197/349/5 193/353/5
f 200/346/6 196/354/6 194/355/6 198/348/6
f 201/356/1 202/357/1 204/358/1 203/359/1
f 203/359/2 204/358/2 208/360/2 207/361/2
f 207/361/3 208/360/3 206/362/3 205/363/3
f 205/363/4 206/362/4 202/364/4 201/365/4
f 203/366/5 207/361/5 205/363/5 201/367/5
f 208/360/6 204/368/6 202/369/6 206/362/6
f 107/370/1 165/371/1 166/372/1 108/373/1
f 108/374/6 166/372/6 168/375/6 106/376/6
f 211/377/4 212/378/4 210/379/4 209/380/4
f 105/381/5 167/382/5 165/383/5 107/370/5
f 52/384/6 162/294/6 164/385/6 50/284/6
f 106/376/3 168/386/3 167/382/3 105/387/3
f 213/388/1 214/389/1 216/390/1 215/391/1
f 215/391/2 216/390/2 220/392/2 219/393/2
f 219/393/3 220/392/3 218/394/3 217/395/3
f 217/395/4 218/394/4 214/396/4 213/397/4
f 217/395/8 213/397/8 222/398/8 224/399/8
f 220/392/6 216/400/6 214/401/6 218/394/6
f 221/402/5 223/403/5 224/399/5 222/404/5
f 215/391/7 219/393/7 223/403/7 221/405/7
f 213/388/1 215/391/1 221/405/1 222/406/1
f 219/393/3 217/395/3 224/399/3 223/403/3
