# Blender v2.80 (sub 75) OBJ File: 'DungeonExport.blend'
# www.blender.org
mtllib scaffold_stairs.mtl
o scaffold_stairs_Cube.4151
v -1.000000 0.900000 0.400000
v -1.000000 0.800000 0.400000
v -1.000000 0.900000 -0.000000
v -1.000000 0.800000 -0.000000
v 1.000000 0.900000 0.400000
v 1.000000 0.800000 0.400000
v 1.000000 0.900000 0.000000
v 1.000000 0.800000 0.000000
v 1.000000 0.400000 0.500000
v 1.000000 0.500000 0.500000
v 1.000000 0.400000 0.900000
v 1.000000 0.500000 0.900000
v -1.000000 0.400000 0.500000
v -1.000000 0.500000 0.500000
v -1.000000 0.400000 0.900000
v -1.000000 0.500000 0.900000
v -1.000000 1.300000 -0.100000
v -1.000000 1.200000 -0.100000
v -1.000000 1.300000 -0.500000
v -1.000000 1.200000 -0.500000
v 1.000000 1.300000 -0.100000
v 1.000000 1.200000 -0.100000
v 1.000000 1.300000 -0.500000
v 1.000000 1.200000 -0.500000
v -1.000000 1.700000 -0.600000
v -1.000000 1.600000 -0.600000
v -1.000000 1.700000 -1.000000
v -1.000000 1.600000 -1.000000
v 1.000000 1.700000 -0.600000
v 1.000000 1.600000 -0.600000
v 1.000000 1.700000 -1.000000
v 1.000000 1.600000 -1.000000
v -0.900000 0.500000 1.100000
v -0.900000 -0.000000 1.100000
v -0.900000 2.100000 -1.100000
v -0.900000 1.600000 -1.100000
v -0.700000 0.500000 1.100000
v -0.700000 -0.000000 1.100000
v -0.700000 2.100000 -1.100000
v -0.700000 1.600000 -1.100000
v 0.700000 0.500000 1.100000
v 0.700000 -0.000000 1.100000
v 0.700000 2.100000 -1.100000
v 0.700000 1.600000 -1.100000
v 0.900000 0.500000 1.100000
v 0.900000 -0.000000 1.100000
v 0.900000 2.100000 -1.100000
v 0.900000 1.600000 -1.100000
vt 0.375000 0.500000
vt 0.625000 0.500000
vt 0.625000 0.750000
vt 0.375000 0.750000
vt 0.125000 0.500000
vt 0.125000 0.750000
vt 0.375000 0.000000
vt 0.625000 0.000000
vt 0.625000 0.250000
vt 0.375000 0.250000
vt 0.875000 0.500000
vt 0.875000 0.750000
vt 0.625000 1.000000
vt 0.375000 1.000000
vt 0.375000 0.000000
vt 0.625000 0.000000
vt 0.625000 0.250000
vt 0.375000 0.250000
vt 0.625000 0.500000
vt 0.375000 0.500000
vt 0.625000 0.750000
vt 0.375000 0.750000
vt 0.625000 1.000000
vt 0.375000 1.000000
vt 0.125000 0.500000
vt 0.125000 0.750000
vt 0.875000 0.500000
vt 0.875000 0.750000
vt 0.375000 0.500000
vt 0.625000 0.500000
vt 0.625000 0.750000
vt 0.375000 0.750000
vt 0.125000 0.500000
vt 0.125000 0.750000
vt 0.375000 0.000000
vt 0.625000 0.000000
vt 0.625000 0.250000
vt 0.375000 0.250000
vt 0.875000 0.500000
vt 0.875000 0.750000
vt 0.625000 1.000000
vt 0.375000 1.000000
vt 0.375000 0.500000
vt 0.625000 0.500000
vt 0.625000 0.750000
vt 0.375000 0.750000
vt 0.125000 0.500000
vt 0.125000 0.750000
vt 0.375000 0.000000
vt 0.625000 0.000000
vt 0.625000 0.250000
vt 0.375000 0.250000
vt 0.875000 0.500000
vt 0.875000 0.750000
vt 0.625000 1.000000
vt 0.375000 1.000000
vt 0.375000 0.500000
vt 0.625000 0.500000
vt 0.625000 0.750000
vt 0.375000 0.750000
vt 0.125000 0.500000
vt 0.125000 0.750000
vt 0.375000 0.000000
vt 0.625000 0.000000
vt 0.625000 0.250000
vt 0.375000 0.250000
vt 0.875000 0.500000
vt 0.875000 0.750000
vt 0.625000 1.000000
vt 0.375000 1.000000
vt 0.375000 0.500000
vt 0.625000 0.500000
vt 0.625000 0.750000
vt 0.375000 0.750000
vt 0.125000 0.500000
vt 0.125000 0.750000
vt 0.375000 0.000000
vt 0.625000 0.000000
vt 0.625000 0.250000
vt 0.375000 0.250000
vt 0.875000 0.500000
vt 0.875000 0.750000
vt 0.625000 1.000000
vt 0.375000 1.000000
vn -1.0000 0.0000 -0.0000
vn 0.0000 -1.0000 0.0000
vn 1.0000 0.0000 0.0000
vn -0.0000 0.0000 1.0000
vn 0.0000 1.0000 0.0000
vn 0.0000 0.0000 -1.0000
vn 0.0000 -0.8087 -0.5882
vn -0.0000 0.8087 0.5882
usemtl WoodDark
s off
f 2/1/1 1/2/1 3/3/1 4/4/1
f 6/5/2 2/1/2 4/4/2 8/6/2
f 8/7/3 7/8/3 5/9/3 6/10/3
f 6/10/4 5/9/4 1/2/4 2/1/4
f 1/2/5 5/11/5 7/12/5 3/3/5
f 4/4/6 3/3/6 7/13/6 8/14/6
f 9/15/3 10/16/3 12/17/3 11/18/3
f 11/18/4 12/17/4 16/19/4 15/20/4
f 15/20/1 16/19/1 14/21/1 13/22/1
f 13/22/6 14/21/6 10/23/6 9/24/6
f 11/25/2 15/20/2 13/22/2 9/26/2
f 16/19/5 12/27/5 10/28/5 14/21/5
f 18/29/1 17/30/1 19/31/1 20/32/1
f 22/33/2 18/29/2 20/32/2 24/34/2
f 24/35/3 23/36/3 21/37/3 22/38/3
f 22/38/4 21/37/4 17/30/4 18/29/4
f 17/30/5 21/39/5 23/40/5 19/31/5
f 20/32/6 19/31/6 23/41/6 24/42/6
f 26/43/1 25/44/1 27/45/1 28/46/1
f 30/47/2 26/43/2 28/46/2 32/48/2
f 32/49/3 31/50/3 29/51/3 30/52/3
f 30/52/4 29/51/4 25/44/4 26/43/4
f 25/44/5 29/53/5 31/54/5 27/45/5
f 28/46/6 27/45/6 31/55/6 32/56/6
f 34/57/1 33/58/1 35/59/1 36/60/1
f 38/61/7 34/57/7 36/60/7 40/62/7
f 40/63/3 39/64/3 37/65/3 38/66/3
f 38/66/4 37/65/4 33/58/4 34/57/4
f 33/58/8 37/67/8 39/68/8 35/59/8
f 36/60/6 35/59/6 39/69/6 40/70/6
f 42/71/1 41/72/1 43/73/1 44/74/1
f 46/75/7 42/71/7 44/74/7 48/76/7
f 48/77/3 47/78/3 45/79/3 46/80/3
f 46/80/4 45/79/4 41/72/4 42/71/4
f 41/72/8 45/81/8 47/82/8 43/73/8
f 44/74/6 43/73/6 47/83/6 48/84/6
