# Blender v2.80 (sub 75) OBJ File: 'DungeonExport.blend'
# www.blender.org
mtllib scaffold_small_high_cornerRight.mtl
o scaffold_small_high_cornerRight_Cube.2462
v -1.000000 4.100000 -0.300000
v -1.000000 4.000000 -0.300000
v -1.000000 4.100000 0.300000
v -1.000000 4.000000 0.300000
v 1.000000 4.100000 -0.300000
v 1.000000 4.000000 -0.300000
v 1.000000 4.100000 0.300000
v 1.000000 4.000000 0.300000
v 1.000000 4.000000 1.000000
v 1.000000 4.100000 1.000000
v 1.000000 4.000000 0.400000
v 1.000000 4.100000 0.400000
v -1.000000 4.000000 1.000000
v -1.000000 4.100000 1.000000
v -1.000000 4.000000 0.400000
v -1.000000 4.100000 0.400000
v 1.000000 4.000000 -0.400000
v 1.000000 4.100000 -0.400000
v 1.000000 4.000000 -1.000000
v 1.000000 4.100000 -1.000000
v -1.000000 4.000000 -0.400000
v -1.000000 4.100000 -0.400000
v -1.000000 4.000000 -1.000000
v -1.000000 4.100000 -1.000000
v 0.300000 3.900000 -1.000000
v 0.300000 4.000000 -1.000000
v -0.300000 3.900000 -1.000000
v -0.300000 4.000000 -1.000000
v 0.300000 3.900000 1.000000
v 0.300000 4.000000 1.000000
v -0.300000 3.900000 1.000000
v -0.300000 4.000000 1.000000
v -0.700000 0.000000 -0.700000
v -0.700000 4.900000 -0.700000
v -0.700000 0.000000 -0.900000
v -0.700000 4.900000 -0.900000
v -0.900000 0.000000 -0.700000
v -0.900000 4.900000 -0.700000
v -0.900000 0.000000 -0.900000
v -0.900000 4.900000 -0.900000
v 0.900000 0.000000 -0.700000
v 0.900000 4.000000 -0.700000
v 0.900000 0.000000 -0.900000
v 0.900000 4.000000 -0.900000
v 0.700000 0.000000 -0.700000
v 0.700000 4.000000 -0.700000
v 0.700000 0.000000 -0.900000
v 0.700000 4.000000 -0.900000
v -0.700000 0.000000 0.900000
v -0.700000 4.900000 0.900000
v -0.700000 0.000000 0.700000
v -0.700000 4.900000 0.700000
v -0.900000 0.000000 0.900000
v -0.900000 4.900000 0.900000
v -0.900000 0.000000 0.700000
v -0.900000 4.900000 0.700000
v 0.900000 0.000000 0.900000
v 0.900000 4.900000 0.900000
v 0.900000 0.000000 0.700000
v 0.900000 4.900000 0.700000
v 0.700000 0.000000 0.900000
v 0.700000 4.900000 0.900000
v 0.700000 0.000000 0.700000
v 0.700000 4.900000 0.700000
v -0.600000 1.800000 -1.000000
v -0.600000 2.100000 -1.000000
v -0.700000 1.800000 -1.000000
v -0.700000 2.100000 -1.000000
v -0.600000 1.800000 1.000000
v -0.600000 2.100000 1.000000
v -0.700000 1.800000 1.000000
v -0.700000 2.100000 1.000000
v 0.700000 1.800000 -1.000000
v 0.700000 2.100000 -1.000000
v 0.600000 1.800000 -1.000000
v 0.600000 2.100000 -1.000000
v 0.700000 1.800000 1.000000
v 0.700000 2.100000 1.000000
v 0.600000 1.800000 1.000000
v 0.600000 2.100000 1.000000
v 1.000000 1.600000 -0.600000
v 1.000000 1.900000 -0.600000
v 0.999999 1.600000 -0.700000
v 0.999999 1.900000 -0.700000
v -1.000000 1.600000 -0.600000
v -1.000000 1.900000 -0.600000
v -1.000000 1.600000 -0.700000
v -1.000000 1.900000 -0.700000
v 0.999999 1.600000 0.700001
v 0.999999 1.900000 0.700001
v 1.000000 1.600000 0.600001
v 1.000000 1.900000 0.600001
v -1.000000 1.600000 0.700000
v -1.000000 1.900000 0.700000
v -1.000000 1.600000 0.600001
v -1.000000 1.900000 0.600001
v 1.000000 5.000000 1.000000
v 1.000000 5.100000 1.000000
v 1.000000 5.000000 0.600000
v 1.000000 5.100000 0.600000
v -1.000000 5.000000 1.000000
v -0.600000 5.000000 0.600000
v -0.600000 5.100000 0.600000
v 1.000000 4.900000 0.700000
v 1.000000 4.900000 0.900000
v -0.700000 4.900000 0.700000
v -0.600000 5.000000 -1.000000
v -0.600000 5.100000 -1.000000
v -1.000000 5.100000 1.000000
v -1.000000 5.000000 -1.000000
v -1.000000 5.100000 -1.000000
v -0.700000 4.900000 -1.000000
v -0.900000 4.900000 -1.000000
v -0.900000 4.900000 0.900000
vt 0.375000 0.500000
vt 0.375000 0.750000
vt 0.625000 0.750000
vt 0.625000 0.500000
vt 0.375000 1.000000
vt 0.625000 1.000000
vt 0.375000 0.000000
vt 0.375000 0.250000
vt 0.625000 0.250000
vt 0.625000 0.000000
vt 0.125000 0.500000
vt 0.125000 0.750000
vt 0.875000 0.750000
vt 0.875000 0.500000
vt 0.375000 0.000000
vt 0.375000 0.250000
vt 0.625000 0.250000
vt 0.625000 0.000000
vt 0.375000 0.500000
vt 0.625000 0.500000
vt 0.375000 0.750000
vt 0.625000 0.750000
vt 0.375000 1.000000
vt 0.625000 1.000000
vt 0.125000 0.500000
vt 0.125000 0.750000
vt 0.875000 0.750000
vt 0.875000 0.500000
vt 0.625000 0.500000
vt 0.625000 0.750000
vt 0.875000 0.750000
vt 0.875000 0.500000
vt 0.375000 0.250000
vt 0.375000 0.500000
vt 0.625000 0.250000
vt 0.125000 0.500000
vt 0.125000 0.750000
vt 0.375000 0.750000
vt 0.375000 1.000000
vt 0.625000 1.000000
vt 0.375000 0.000000
vt 0.625000 0.000000
vt 0.375000 0.000000
vt 0.375000 0.250000
vt 0.625000 0.250000
vt 0.625000 0.000000
vt 0.375000 0.500000
vt 0.625000 0.500000
vt 0.375000 0.750000
vt 0.625000 0.750000
vt 0.375000 1.000000
vt 0.625000 1.000000
vt 0.125000 0.500000
vt 0.125000 0.750000
vt 0.875000 0.750000
vt 0.875000 0.500000
vt 0.375000 0.000000
vt 0.375000 0.250000
vt 0.625000 0.250000
vt 0.625000 0.000000
vt 0.375000 0.500000
vt 0.625000 0.500000
vt 0.375000 0.750000
vt 0.625000 0.750000
vt 0.375000 1.000000
vt 0.625000 1.000000
vt 0.125000 0.500000
vt 0.125000 0.750000
vt 0.875000 0.750000
vt 0.875000 0.500000
vt 0.375000 0.000000
vt 0.375000 0.250000
vt 0.625000 0.250000
vt 0.625000 0.000000
vt 0.375000 0.500000
vt 0.625000 0.500000
vt 0.375000 0.750000
vt 0.625000 0.750000
vt 0.375000 1.000000
vt 0.625000 1.000000
vt 0.125000 0.500000
vt 0.125000 0.750000
vt 0.875000 0.750000
vt 0.875000 0.500000
vt 0.375000 0.000000
vt 0.375000 0.250000
vt 0.625000 0.250000
vt 0.625000 0.000000
vt 0.375000 0.500000
vt 0.625000 0.500000
vt 0.375000 0.750000
vt 0.625000 0.750000
vt 0.375000 1.000000
vt 0.625000 1.000000
vt 0.125000 0.500000
vt 0.125000 0.750000
vt 0.875000 0.750000
vt 0.875000 0.500000
vt 0.375000 0.000000
vt 0.375000 0.250000
vt 0.625000 0.250000
vt 0.625000 0.000000
vt 0.375000 0.500000
vt 0.625000 0.500000
vt 0.375000 0.750000
vt 0.625000 0.750000
vt 0.375000 1.000000
vt 0.625000 1.000000
vt 0.125000 0.500000
vt 0.125000 0.750000
vt 0.875000 0.750000
vt 0.875000 0.500000
vt 0.375000 0.000000
vt 0.375000 0.250000
vt 0.625000 0.250000
vt 0.625000 0.000000
vt 0.375000 0.500000
vt 0.625000 0.500000
vt 0.375000 0.750000
vt 0.625000 0.750000
vt 0.375000 1.000000
vt 0.625000 1.000000
vt 0.125000 0.500000
vt 0.125000 0.750000
vt 0.875000 0.750000
vt 0.875000 0.500000
vt 0.375000 0.000000
vt 0.375000 0.250000
vt 0.625000 0.250000
vt 0.625000 0.000000
vt 0.375000 0.500000
vt 0.625000 0.500000
vt 0.375000 0.750000
vt 0.625000 0.750000
vt 0.375000 1.000000
vt 0.625000 1.000000
vt 0.125000 0.500000
vt 0.125000 0.750000
vt 0.875000 0.750000
vt 0.875000 0.500000
vt 0.375000 0.000000
vt 0.375000 0.250000
vt 0.625000 0.250000
vt 0.625000 0.000000
vt 0.375000 0.500000
vt 0.625000 0.500000
vt 0.375000 0.750000
vt 0.625000 0.750000
vt 0.375000 1.000000
vt 0.625000 1.000000
vt 0.125000 0.500000
vt 0.125000 0.750000
vt 0.875000 0.750000
vt 0.875000 0.500000
vt 0.375000 0.000000
vt 0.375000 0.250000
vt 0.625000 0.250000
vt 0.625000 0.000000
vt 0.375000 0.500000
vt 0.625000 0.500000
vt 0.375000 0.750000
vt 0.625000 0.750000
vt 0.375000 1.000000
vt 0.625000 1.000000
vt 0.125000 0.500000
vt 0.125000 0.750000
vt 0.875000 0.750000
vt 0.875000 0.500000
vt 0.375000 0.000000
vt 0.375000 0.250000
vt 0.625000 0.250000
vt 0.625000 0.000000
vt 0.375000 0.500000
vt 0.625000 0.500000
vt 0.375000 0.750000
vt 0.625000 0.750000
vt 0.375000 1.000000
vt 0.625000 1.000000
vt 0.375000 0.750000
vt 0.375000 1.000000
vt 0.875000 0.750000
vt 0.875000 0.500000
vt 0.125000 0.500000
vt 0.125000 0.750000
vt 0.375000 0.500000
vt 0.375000 0.250000
vt 0.375000 0.000000
vt 0.375000 0.000000
vt 0.375000 0.250000
vt 0.625000 0.250000
vt 0.625000 0.000000
vt 0.375000 0.500000
vt 0.625000 0.500000
vt 0.875000 0.750000
vt 0.875000 0.500000
vt 0.125000 0.500000
vt 0.125000 0.750000
vt 0.375000 0.500000
vt 0.375000 0.250000
vt 0.375000 0.000000
vn -1.0000 0.0000 0.0000
vn 0.0000 0.0000 1.0000
vn 1.0000 0.0000 0.0000
vn 0.0000 0.0000 -1.0000
vn 0.0000 -1.0000 0.0000
vn 0.0000 1.0000 0.0000
vn -0.7071 0.0000 -0.7071
vn 0.0000 -0.7071 0.7071
vn 0.0000 -0.7071 -0.7071
vn 0.7071 -0.7071 0.0000
vn -0.7071 -0.7071 0.0000
usemtl WoodDark
s off
f 2/1/1 4/2/1 3/3/1 1/4/1
f 4/2/2 8/5/2 7/6/2 3/3/2
f 8/7/3 6/8/3 5/9/3 7/10/3
f 6/8/4 2/1/4 1/4/4 5/9/4
f 6/11/5 8/12/5 4/2/5 2/1/5
f 1/4/6 3/3/6 7/13/6 5/14/6
f 9/15/3 11/16/3 12/17/3 10/18/3
f 11/16/4 15/19/4 16/20/4 12/17/4
f 15/19/1 13/21/1 14/22/1 16/20/1
f 13/21/2 9/23/2 10/24/2 14/22/2
f 11/25/5 9/26/5 13/21/5 15/19/5
f 16/20/6 14/22/6 10/27/6 12/28/6
f 24/29/6 22/30/6 18/31/6 20/32/6
f 19/33/4 23/34/4 24/29/4 20/35/4
f 19/36/5 17/37/5 21/38/5 23/34/5
f 21/38/2 17/39/2 18/40/2 22/30/2
f 23/34/1 21/38/1 22/30/1 24/29/1
f 17/41/3 19/33/3 20/35/3 18/42/3
f 25/43/4 27/44/4 28/45/4 26/46/4
f 27/44/1 31/47/1 32/48/1 28/45/1
f 31/47/2 29/49/2 30/50/2 32/48/2
f 29/49/3 25/51/3 26/52/3 30/50/3
f 27/53/5 25/54/5 29/49/5 31/47/5
f 32/48/6 30/50/6 26/55/6 28/56/6
f 33/57/3 35/58/3 36/59/3 34/60/3
f 35/58/4 39/61/4 40/62/4 36/59/4
f 39/61/1 37/63/1 38/64/1 40/62/1
f 37/63/2 33/65/2 34/66/2 38/64/2
f 35/67/5 33/68/5 37/63/5 39/61/5
f 40/62/6 38/64/6 34/69/6 36/70/6
f 41/71/3 43/72/3 44/73/3 42/74/3
f 43/72/4 47/75/4 48/76/4 44/73/4
f 47/75/1 45/77/1 46/78/1 48/76/1
f 45/77/2 41/79/2 42/80/2 46/78/2
f 43/81/5 41/82/5 45/77/5 47/75/5
f 48/76/6 46/78/6 42/83/6 44/84/6
f 49/85/3 51/86/3 52/87/3 50/88/3
f 51/86/4 55/89/4 56/90/4 52/87/4
f 55/89/1 53/91/1 54/92/1 56/90/1
f 53/91/2 49/93/2 50/94/2 54/92/2
f 51/95/5 49/96/5 53/91/5 55/89/5
f 56/90/6 54/92/6 50/97/6 52/98/6
f 57/99/3 59/100/3 60/101/3 58/102/3
f 59/100/4 63/103/4 64/104/4 60/101/4
f 63/103/1 61/105/1 62/106/1 64/104/1
f 61/105/2 57/107/2 58/108/2 62/106/2
f 59/109/5 57/110/5 61/105/5 63/103/5
f 64/104/6 62/106/6 58/111/6 60/112/6
f 65/113/4 67/114/4 68/115/4 66/116/4
f 67/114/1 71/117/1 72/118/1 68/115/1
f 71/117/2 69/119/2 70/120/2 72/118/2
f 69/119/3 65/121/3 66/122/3 70/120/3
f 67/123/5 65/124/5 69/119/5 71/117/5
f 72/118/6 70/120/6 66/125/6 68/126/6
f 73/127/4 75/128/4 76/129/4 74/130/4
f 75/128/1 79/131/1 80/132/1 76/129/1
f 79/131/2 77/133/2 78/134/2 80/132/2
f 77/133/3 73/135/3 74/136/3 78/134/3
f 75/137/5 73/138/5 77/133/5 79/131/5
f 80/132/6 78/134/6 74/139/6 76/140/6
f 81/141/3 83/142/3 84/143/3 82/144/3
f 83/142/4 87/145/4 88/146/4 84/143/4
f 87/145/1 85/147/1 86/148/1 88/146/1
f 85/147/2 81/149/2 82/150/2 86/148/2
f 83/151/5 81/152/5 85/147/5 87/145/5
f 88/146/6 86/148/6 82/153/6 84/154/6
f 89/155/3 91/156/3 92/157/3 90/158/3
f 91/156/4 95/159/4 96/160/4 92/157/4
f 95/159/1 93/161/1 94/162/1 96/160/1
f 93/161/2 89/163/2 90/164/2 94/162/2
f 91/165/5 89/166/5 93/161/5 95/159/5
f 96/160/6 94/162/6 90/167/6 92/168/6
f 97/169/3 99/170/3 100/171/3 98/172/3
f 99/170/4 102/173/4 103/174/4 100/171/4
f 102/173/7 101/175/7 109/176/7 103/174/7
f 101/175/2 97/177/2 98/178/2 109/176/2
f 101/175/8 114/179/8 105/180/8 97/177/8
f 103/174/6 109/176/6 98/181/6 100/182/6
f 104/183/5 105/184/5 114/179/5 106/185/5
f 99/170/9 104/186/9 106/185/9 102/173/9
f 97/169/3 105/187/3 104/186/3 99/170/3
f 102/173/7 106/185/7 114/179/7 101/175/7
f 102/188/3 107/189/3 108/190/3 103/191/3
f 107/189/4 110/192/4 111/193/4 108/190/4
f 110/192/1 101/175/1 109/176/1 111/193/1
f 111/193/6 109/176/6 103/194/6 108/195/6
f 112/196/5 106/197/5 114/179/5 113/198/5
f 107/189/4 112/199/4 113/198/4 110/192/4
f 102/188/10 106/200/10 112/199/10 107/189/10
f 110/192/11 113/198/11 114/179/11 101/175/11
