# Blender v2.80 (sub 75) OBJ File: 'DungeonExport.blend'
# www.blender.org
mtllib shield_rare.mtl
o shield_rare_Cube.3996
v -0.179826 -0.332672 -0.090950
v -0.000010 0.105923 0.028001
v -0.000010 -0.101014 0.018642
v -0.000010 -0.195634 -0.002893
v -0.000010 -0.375815 -0.053249
v 0.179805 -0.332672 -0.090950
v -0.288387 0.272533 0.005140
v 0.288838 0.272178 0.004732
v -0.153450 -0.369548 0.051946
v -0.000018 -0.406397 0.089144
v 0.153420 -0.369910 0.051931
v 0.183162 0.202432 0.099688
v 0.085699 0.175829 0.149296
v -0.086466 0.176165 0.149536
v -0.183198 0.203076 0.099629
v -0.232998 -0.245066 0.009161
v -0.279826 -0.010800 0.014724
v 0.280193 -0.010504 0.014304
v 0.231160 -0.246031 0.010348
v 0.165211 -0.091598 0.122522
v 0.144741 -0.180245 0.098318
v -0.165248 -0.091598 0.122522
v -0.145132 -0.178138 0.098818
v -0.000018 0.289035 0.158806
v 0.055937 0.147353 0.127327
v 0.000019 0.227454 0.103663
v 0.000019 0.065582 0.130963
v 0.051768 0.151005 0.171115
v 0.000019 0.226681 0.167750
v 0.000019 0.075330 0.174479
v 0.000019 0.152167 0.208996
v -0.055922 0.147353 0.127327
v -0.051753 0.151006 0.171115
v -0.000041 -0.020369 0.134931
v -0.000041 -0.098975 0.135929
v -0.000041 -0.223544 0.112027
v -0.000041 -0.266260 0.088161
v -0.113451 -0.237016 0.035714
v 0.113370 -0.237016 0.035714
v -0.215582 0.184374 -0.005077
v 0.164570 -0.242388 -0.000859
v 0.114647 -0.325434 0.032824
v -0.136959 0.140581 0.071461
v -0.114723 -0.325140 0.032836
v -0.000040 -0.354990 0.062968
v 0.136877 0.140060 0.071509
v 0.215865 0.184086 -0.005408
v 0.070744 0.112968 0.105485
v -0.071370 0.113239 0.105679
v -0.165998 -0.241606 -0.001821
v -0.209183 -0.013389 0.002685
v 0.209403 -0.013149 0.002345
v 0.117853 -0.078838 0.090006
v 0.103247 -0.204063 0.070400
v -0.103587 -0.202356 0.070805
v -0.117940 -0.078838 0.090006
v -0.344098 0.357657 -0.154504
v -0.350126 0.373942 -0.096966
v 0.350250 0.373964 -0.097172
v 0.344078 0.357657 -0.154504
v 0.177476 -0.452266 -0.028957
v 0.181948 -0.438828 -0.095372
v -0.000012 -0.494542 0.010581
v -0.000010 -0.481848 -0.055486
v -0.181969 -0.438828 -0.095372
v -0.177508 -0.452235 -0.029002
v -0.211817 0.282468 0.028523
v -0.218879 0.275147 -0.039974
v -0.104234 0.252794 0.101151
v -0.090747 0.244578 0.032577
v 0.090727 0.244578 0.032577
v 0.104069 0.252743 0.101081
v 0.218858 0.275147 -0.039974
v 0.211834 0.282455 0.028373
v -0.332939 -0.006428 -0.144513
v -0.337003 -0.019023 -0.088204
v -0.275760 -0.240868 -0.090810
v -0.263949 -0.260494 -0.148301
v 0.337108 -0.018994 -0.088416
v 0.332918 -0.006428 -0.144513
v 0.263928 -0.260494 -0.148301
v 0.275471 -0.241040 -0.090765
v -0.207409 -0.108283 0.049356
v -0.199792 -0.094940 -0.015497
v -0.170483 -0.179232 -0.047272
v -0.186042 -0.163605 0.021400
v 0.199771 -0.094940 -0.015497
v 0.207431 -0.108325 0.049229
v 0.170462 -0.179232 -0.047272
v 0.185995 -0.163998 0.021170
v -0.000012 0.379610 0.101385
v -0.000010 0.354677 0.033481
v -0.000023 -0.122762 0.178659
v -0.000023 -0.209383 0.154757
v -0.000041 0.140046 0.161085
v 0.051237 0.120616 0.154408
v -0.051864 0.120833 0.154563
v -0.000041 0.030991 0.159126
vt 0.000000 0.000000
vt 0.475000 0.900000
vt 0.525000 0.900000
vt 0.000000 0.000000
vt 0.475000 0.850000
vt 0.000000 0.000000
vt 0.000000 0.000000
vt 0.525000 0.850000
vt 0.386268 0.300000
vt 0.425000 0.300000
vt 0.425000 0.350000
vt 0.386313 0.350000
vt 0.618040 0.756705
vt 0.618040 0.756705
vt 0.535772 0.756890
vt 0.535772 0.756890
vt 0.386982 0.800000
vt 0.425000 0.761604
vt 0.425000 0.761604
vt 0.386982 0.800000
vt 0.616747 0.350000
vt 0.622985 0.390982
vt 0.616747 0.391747
vt 0.575000 0.350000
vt 0.616341 0.800000
vt 0.623664 0.549259
vt 0.663408 0.559285
vt 0.618210 0.993095
vt 0.616547 0.950000
vt 0.783566 0.589446
vt 0.825541 0.594973
vt 0.616341 0.800000
vt 0.625000 0.893019
vt 0.625000 0.892399
vt 0.743675 0.581947
vt 0.744950 0.578735
vt 0.386839 0.900000
vt 0.387141 0.950000
vt 0.212011 0.578510
vt 0.252838 0.568804
vt 0.532669 0.806249
vt 0.532669 0.806249
vt 0.618210 0.993095
vt 0.616547 0.950000
vt 0.425000 0.400000
vt 0.475000 0.400000
vt 0.470755 0.443793
vt 0.425000 0.450000
vt 0.387141 0.950000
vt 0.425000 0.989406
vt 0.425000 0.989406
vt 0.526571 0.522980
vt 0.527026 0.548313
vt 0.335834 0.552436
vt 0.425000 0.548070
vt 0.623692 0.393125
vt 0.527030 0.390278
vt 0.535750 0.992932
vt 0.386268 0.450000
vt 0.425000 0.488908
vt 0.531401 0.807242
vt 0.470787 0.809035
vt 0.474182 0.519664
vt 0.526311 0.523184
vt 0.425000 0.386602
vt 0.525000 0.400000
vt 0.533139 0.445220
vt 0.469403 0.443942
vt 0.470755 0.306207
vt 0.475000 0.350000
vt 0.530272 0.304612
vt 0.618572 0.300000
vt 0.525000 0.350000
vt 0.471531 0.941028
vt 0.531401 0.942758
vt 0.526317 0.432237
vt 0.091915 0.183433
vt 0.473439 0.810095
vt 0.474697 0.519869
vt 0.614833 0.900554
vt 0.614833 0.900554
vt 0.473191 0.441383
vt 0.386839 0.900000
vt 0.425000 0.261092
vt 0.532669 0.943751
vt 0.526578 0.432441
vt 0.473439 0.810095
vt 0.614749 0.849659
vt 0.702932 0.569988
vt 0.575000 0.400000
vt 0.616747 0.400000
vt 0.618572 0.450000
vt 0.530272 0.445388
vt 0.386790 0.850000
vt 0.386790 0.850000
vt 0.294229 0.560203
vt 0.532862 0.444746
vt 0.618526 0.493197
vt 0.532637 0.493053
vt 0.614749 0.849659
vt 0.474322 0.939982
vt 0.474322 0.939982
vt 0.015379 0.019473
vt 0.535750 0.992932
vt 0.532669 0.943751
vt 0.469403 0.306058
vt 0.533139 0.304780
vt 0.092459 0.183229
vt 0.625000 0.845621
vt 0.704984 0.569180
vt 0.704116 0.581947
vt 0.475000 0.850000
vt 0.470787 0.809035
vt 0.575000 0.900000
vt 0.575000 0.900000
vt 0.614833 0.900554
vt 0.386313 0.400000
vt 0.742913 0.580245
vt 0.392735 0.282265
vt 0.198563 0.476437
vt 0.634335 0.500000
vt 0.675000 0.500000
vt 0.334425 0.500000
vt 0.412094 0.500000
vt 0.276276 0.500000
vt 0.325000 0.500000
vt 0.825000 0.500000
vt 0.865665 0.500000
vt 0.775000 0.500000
vt 0.823094 0.500000
vt 0.676906 0.500000
vt 0.725000 0.500000
vt 0.618526 0.256803
vt 0.532637 0.256947
vt 0.475198 0.300000
vt 0.525000 0.300000
vt 0.532862 0.305254
vt 0.775000 0.500000
vt 0.725000 0.500000
vt 0.175000 0.500000
vt 0.223724 0.500000
vt 0.530939 0.807237
vt 0.525000 0.850000
vt 0.525000 0.900000
vt 0.531401 0.942758
vt 0.471085 0.940844
vt 0.475000 0.900000
vt 0.625000 0.892399
vt 0.614749 0.849659
vt 0.575000 0.850000
vt 0.575000 0.850000
vt 0.425000 0.900000
vt 0.425000 0.950000
vt 0.530939 0.942763
vt 0.425000 0.800000
vt 0.425000 0.850000
vt 0.470235 0.809248
vt 0.250000 0.750000
vt 0.750000 0.500000
vt 0.317363 0.750000
vt 0.250000 1.000000
vt 0.250000 1.000000
vt 0.250000 0.750000
vt 0.750000 0.500000
vt 0.317363 0.932637
vt 0.250000 0.750000
vt 0.250000 0.750000
vn -0.3758 -0.2860 0.8814
vn 0.3757 -0.2858 0.8815
vn 0.3047 0.0274 -0.9521
vn 0.4409 0.1154 -0.8901
vn -0.0000 0.1325 -0.9912
vn -0.0000 0.0291 -0.9996
vn -0.1771 0.0411 0.9833
vn 0.0101 0.4260 0.9047
vn -0.0871 0.3875 0.9177
vn 0.0095 0.4257 0.9048
vn 0.1512 0.0298 -0.9881
vn 0.0000 0.0220 -0.9998
vn -0.1512 0.0298 -0.9881
vn 0.0000 0.0342 -0.9994
vn 0.3309 0.5171 0.7893
vn 0.3096 0.5710 0.7603
vn 0.3156 0.5565 0.7686
vn -0.3063 0.5742 0.7592
vn -0.3302 0.5200 0.7877
vn -0.3130 0.5597 0.7673
vn 0.6978 -0.6367 0.3283
vn 0.6446 -0.6336 0.4278
vn 0.5821 -0.6222 0.5235
vn -0.4500 0.4573 0.7670
vn -0.5464 0.4056 0.7327
vn -0.4408 0.4618 0.7697
vn -0.3151 -0.6236 0.7154
vn -0.0764 0.8710 0.4854
vn -0.1197 0.8509 0.5115
vn -0.0524 0.8809 0.4704
vn -0.6463 -0.6325 0.4269
vn -0.6982 -0.6356 0.3295
vn -0.5857 -0.6214 0.5204
vn 0.0000 0.2912 -0.9567
vn -0.3198 0.2685 -0.9086
vn -0.4409 0.1154 -0.8901
vn -0.0115 0.4284 0.9035
vn -0.0113 0.4283 0.9036
vn 0.0827 0.3930 0.9158
vn 0.8257 -0.2547 0.5033
vn 0.7923 -0.3966 0.4636
vn 0.7866 -0.3975 0.4726
vn 0.8561 -0.1203 0.5026
vn 0.8420 -0.3041 0.4456
vn 0.8995 -0.3742 0.2254
vn 0.9048 -0.3853 0.1815
vn 0.8685 -0.0146 0.4956
vn -0.8678 -0.0143 0.4968
vn -0.8557 -0.1197 0.5035
vn -0.8254 -0.2549 0.5037
vn -0.3047 0.0274 -0.9521
vn -0.6322 0.1298 -0.7639
vn 0.8028 -0.3949 0.4467
vn -0.8416 -0.3072 0.4441
vn -0.9042 -0.3867 0.1815
vn -0.8991 -0.3763 0.2237
vn 0.0000 0.1814 -0.9834
vn -0.3746 0.1177 -0.9197
vn 0.3198 0.2685 -0.9086
vn 0.3746 0.1177 -0.9197
vn 0.5429 0.0100 -0.8398
vn -0.8011 -0.3973 0.4476
vn -0.7912 -0.3982 0.4642
vn -0.7858 -0.3986 0.4730
vn 0.8115 0.3893 0.4359
vn -0.6116 -0.5684 0.5503
vn -0.7024 -0.4854 0.5206
vn 0.0007 0.4626 0.8866
vn 0.0005 0.4626 0.8866
vn 0.6322 0.1298 -0.7639
vn -0.0318 -0.8498 0.5261
vn 0.0973 -0.8870 0.4514
vn 0.1606 -0.8977 0.4103
vn 0.4505 0.4544 0.7684
vn 0.4412 0.4590 0.7712
vn -0.5429 0.0100 -0.8398
vn 0.3144 -0.6243 0.7151
vn -0.6838 -0.0061 -0.7297
vn 0.6084 -0.5685 0.5539
vn 0.7016 -0.4847 0.5224
vn -0.1035 -0.8856 0.4528
vn 0.0279 -0.8481 0.5291
vn -0.1686 -0.8962 0.4103
vn 0.1785 0.0410 0.9831
vn 0.1198 0.8509 0.5114
vn 0.0765 0.8710 0.4853
vn 0.0525 0.8809 0.4704
vn -0.8104 0.4033 0.4249
vn 0.5473 0.4027 0.7337
vn 0.2992 -0.9026 0.3094
vn -0.7883 -0.3588 0.4999
vn -0.7943 -0.4078 0.4504
vn -0.9035 -0.4273 -0.0322
vn -0.4036 0.9082 -0.1107
vn -0.6346 0.7588 -0.1469
vn -0.5404 0.8309 -0.1326
vn 0.9039 -0.4267 -0.0309
vn 0.1883 -0.9647 -0.1839
vn -0.0000 -0.9823 -0.1872
vn 0.6349 0.7585 -0.1473
vn 0.4037 0.9082 -0.1109
vn 0.5406 0.8307 -0.1329
vn 0.3002 0.9493 -0.0935
vn -0.3001 0.9493 -0.0935
vn -0.9956 -0.0341 -0.0871
vn 0.3784 0.8684 -0.3204
vn 0.9954 -0.0342 -0.0898
vn -0.9479 -0.2757 -0.1598
vn 0.9479 -0.2747 -0.1613
vn -0.3758 -0.8981 -0.2285
vn 0.3748 -0.8982 -0.2297
vn -0.7519 0.6198 -0.2249
vn 0.7523 0.6196 -0.2239
vn -0.3746 0.8687 -0.3240
vn -0.1884 -0.9647 -0.1838
vn 0.6838 -0.0061 -0.7297
vn -0.0045 0.8984 0.4392
vn 0.0045 0.8984 0.4392
vn -0.3096 -0.9001 0.3066
vn 0.0020 0.0017 1.0000
vn -0.1230 0.0000 0.9924
vn -0.1183 -0.0178 0.9928
vn 0.1270 -0.0002 0.9919
vn 0.1225 -0.0178 0.9923
vn 0.7903 -0.3563 0.4984
vn 0.7957 -0.4058 0.4497
vn 0.0015 0.0140 0.9999
vn -0.1267 0.0140 0.9918
vn 0.1305 0.0138 0.9913
vn 0.5023 0.0150 0.8646
vn 0.5967 0.0094 0.8024
vn 0.3897 0.0211 0.9207
vn -0.3695 -0.1431 0.9182
vn -0.4115 -0.3269 0.8508
vn -0.4748 -0.3509 0.8071
vn -0.4296 -0.1100 0.8963
vn -0.3911 0.0198 0.9201
vn -0.5973 0.0091 0.8020
vn -0.5031 0.0143 0.8641
vn -0.5801 -0.0182 0.8143
vn 0.4288 -0.1102 0.8966
vn 0.4693 -0.3603 0.8062
vn 0.4107 -0.3293 0.8502
vn 0.3693 -0.1429 0.9182
vn -0.6932 0.0032 0.7207
vn -0.4382 -0.5088 0.7410
vn -0.4395 -0.5228 0.7304
vn 0.4348 -0.5297 0.7283
vn 0.4362 -0.5134 0.7390
vn 0.6934 0.0030 0.7205
vn 0.5799 -0.0182 0.8145
vn -0.4429 -0.5725 0.6900
vn 0.4275 -0.5898 0.6851
vn 0.5458 0.4058 0.7331
vn 0.8216 -0.5563 0.1246
vn 0.8212 0.5704 0.0165
vn 0.5500 -0.3422 0.7618
vn -0.5456 0.4059 0.7332
vn -0.8215 -0.5564 0.1246
vn -0.8211 0.5706 0.0165
vn -0.5498 -0.3423 0.7619
usemtl Gold
s off
f 23/1/1 94/2/1 93/3/1 22/4/1
f 94/5/2 21/6/2 20/7/2 93/8/2
s 1
f 65/9/3 1/10/4 5/11/5 64/12/6
s 2
f 8/13/7 47/14/7 52/15/7 18/16/7
s 3
f 11/17/8 19/18/9 41/19/9 42/20/10
s 4
f 70/21/11 92/22/12 71/23/13 2/24/14
s 5
f 12/25/15 8/13/16 59/26/16 74/27/17
s 6
f 7/28/18 15/29/19 67/30/20 58/31/18
s 7
f 8/13/21 12/25/22 46/32/23 47/14/21
s 8
f 14/33/24 24/34/25 91/35/25 69/36/26
s 9
f 10/37/27 9/38/27 66/39/27 63/40/27
s 10
f 20/41/28 18/16/29 52/15/29 53/42/30
s 11
f 15/29/31 7/28/32 40/43/32 43/44/33
s 12
f 5/45/5 4/46/34 89/47/35 6/48/36
s 13
f 9/38/37 44/49/38 50/50/39 16/51/39
s 14
f 18/16/40 20/41/41 88/52/42 79/53/43
s 15
f 19/18/44 11/17/44 61/54/45 82/55/46
s 16
f 8/13/47 18/16/40 79/53/43 59/26/47
s 17
f 7/28/48 58/56/48 76/57/49 17/58/50
s 18
f 62/59/51 6/48/36 81/60/52
s 19
f 20/61/41 21/62/53 90/63/53 88/64/42
s 20
f 9/38/54 16/51/54 77/65/55 66/39/56
s 21
f 4/46/34 3/66/57 87/67/58 89/68/35
s 22
f 1/10/4 85/69/59 4/70/34 5/11/5
s 23
f 84/71/60 68/72/61 70/21/11 2/24/14 3/73/57
s 24
f 23/74/62 22/75/63 83/76/64 86/77/62
s 25
f 21/78/65 19/18/65 82/55/65 90/79/65
s 26
f 14/80/66 15/29/31 43/44/33 49/81/67
s 27
f 81/60/52 6/48/36 89/82/35
s 28
f 9/38/37 10/37/68 45/83/69 44/49/38
s 29
f 78/84/70 1/10/4 65/9/3
s 30
f 22/85/63 17/58/50 76/57/49 83/86/64
s 31
f 19/18/71 21/78/72 54/87/73 41/19/71
s 32
f 13/88/74 12/25/15 74/27/17 72/89/75
s 34
f 3/66/57 2/90/14 71/91/13 73/92/76 87/93/58
s 35
f 10/94/68 11/17/8 42/20/10 45/95/69
s 36
f 11/17/77 10/94/77 63/96/77 61/54/77
s 37
f 87/97/58 73/92/76 60/98/78 80/99/78
s 38
f 12/25/22 13/88/79 48/100/80 46/32/23
s 39
f 23/101/81 16/51/82 50/50/82 55/102/83
s 40
f 1/10/4 78/84/70 85/103/59
s 41
f 7/28/84 17/58/84 51/104/84 40/43/84
s 42
f 17/58/85 22/85/86 56/105/87 51/104/85
s 43
f 85/106/59 84/107/60 3/73/57 4/70/34
s 44
f 16/51/88 23/101/88 86/108/88 77/65/88
s 59
f 24/34/89 13/109/74 72/110/75 91/111/89
s 62
f 21/62/72 94/5/90 36/112/90 54/113/73
s 66
f 49/81/67 34/114/91 98/115/91 97/116/92
s 67
f 64/117/6 5/45/5 6/48/36 62/59/51
s 68
f 15/29/19 14/80/24 69/118/26 67/30/20
s 69
f 66/39/56 77/65/55 78/119/93 65/120/93
s 70
f 74/27/94 59/26/95 60/121/95 73/122/96
s 71
f 82/55/46 61/54/45 62/123/97 81/124/97
s 72
f 61/54/98 63/96/99 64/125/99 62/126/98
s 73
f 58/31/100 67/30/101 68/127/102 57/128/100
s 74
f 67/30/101 69/118/103 70/129/103 68/130/102
s 75
f 72/89/104 74/27/94 73/131/96 71/132/104
s 76
f 57/133/105 75/134/105 76/57/105 58/56/105
s 77
f 90/79/106 82/55/106 81/60/106 89/82/106
s 78
f 59/26/107 79/53/107 80/99/107 60/98/107
s 79
f 84/107/108 85/106/108 86/135/108 83/136/108
s 80
f 88/64/109 90/63/109 89/68/109 87/67/109
s 81
f 75/134/110 84/137/110 83/86/110 76/57/110
s 82
f 87/97/111 80/99/111 79/53/111 88/52/111
s 83
f 69/36/112 91/35/112 92/138/112 70/129/112
s 84
f 91/111/113 72/110/113 71/132/113 92/139/113
s 85
f 85/103/114 78/84/114 77/65/114 86/108/114
s 86
f 63/40/99 66/39/115 65/140/115 64/141/99
s 87
f 75/134/116 57/133/116 68/72/61 84/137/60
s 88
f 20/41/28 53/142/30 35/143/117 93/8/117
s 89
f 22/75/86 93/3/118 35/144/118 56/145/87
s 90
f 94/2/119 23/74/81 55/146/83 36/147/119
s 91
f 95/148/120 97/116/121 98/115/122
s 92
f 96/149/123 95/148/120 98/150/124
s 93
f 34/151/125 48/100/80 96/149/126 98/150/125
s 94
f 24/34/127 14/33/128 97/116/121 95/148/120
s 95
f 49/81/67 97/116/92 14/33/66
s 96
f 48/100/80 13/88/79 96/149/126
s 97
f 13/88/129 24/34/127 95/148/120 96/149/123
usemtl White
s 33
f 53/142/130 46/32/131 48/100/132 34/151/132 35/143/132
s 53
f 45/83/133 37/152/134 38/153/135 44/49/136
s 54
f 34/114/137 49/81/137 43/44/138 56/154/139 35/144/137
s 55
f 44/49/136 38/153/135 50/50/140
s 56
f 42/20/141 39/155/142 37/156/143 45/95/144
s 57
f 56/105/139 43/44/138 40/43/145 51/104/145
s 58
f 37/152/134 36/147/146 55/146/147 38/153/135
s 60
f 39/155/142 54/157/148 36/112/149 37/156/143
s 61
f 52/15/150 47/14/150 46/32/131 53/42/130
s 63
f 41/19/151 39/155/142 42/20/141
s 64
f 38/153/135 55/102/147 50/50/152
s 65
f 39/155/142 41/19/153 54/87/148
usemtl Red
s 45
f 28/158/154 29/159/154 31/160/154
s 46
f 30/161/155 27/162/155 25/163/155 28/158/155
s 47
f 28/158/156 25/163/156 26/164/156 29/159/156
s 48
f 28/158/157 31/165/157 30/161/157
s 49
f 33/166/158 31/160/158 29/159/158
s 50
f 30/161/159 33/166/159 32/167/159 27/162/159
s 51
f 33/166/160 29/159/160 26/164/160 32/167/160
s 52
f 33/166/161 30/161/161 31/165/161
