# Blender v2.80 (sub 75) OBJ File: 'DungeonExport.blend'
# www.blender.org
mtllib staff_common.mtl
o staff_common_Cube.3992
v -0.014951 -0.431942 0.008627
v -0.000007 -0.431942 0.017255
v -0.014951 -0.431942 -0.008628
v -0.000007 -0.431942 -0.017255
v 0.014936 -0.431942 -0.008628
v 0.014936 -0.431942 0.008627
v -0.015297 -0.001811 0.031940
v -0.035313 -0.001811 0.002730
v -0.020025 -0.001811 -0.029210
v 0.015280 -0.001811 -0.031940
v 0.035296 -0.001811 -0.002730
v 0.020008 -0.001811 0.029210
v -0.007712 -0.431942 0.013344
v -0.015416 -0.431942 -0.000000
v -0.007712 -0.431942 -0.013345
v 0.007697 -0.431942 -0.013345
v 0.015401 -0.431942 -0.000000
v 0.007697 -0.431942 0.013344
v 0.025085 -0.423816 0.014487
v -0.000007 -0.423816 0.028974
v -0.025100 -0.423816 0.014487
v -0.025100 -0.423816 -0.014487
v -0.000007 -0.423816 -0.028974
v 0.025085 -0.423816 -0.014487
v 0.014018 -0.423816 -0.024293
v -0.028059 -0.423816 -0.000000
v 0.028044 -0.423816 -0.000000
v -0.014033 -0.423816 -0.024293
v -0.014033 -0.423816 0.024293
v 0.014018 -0.423816 0.024293
v 0.002721 -0.001811 0.035305
v 0.031931 -0.001811 0.015288
v 0.029202 -0.001811 -0.020016
v -0.002738 -0.001811 -0.035305
v -0.031948 -0.001811 -0.015288
v -0.029218 -0.001811 0.020017
v -0.025723 0.185990 0.053728
v -0.055912 0.205570 0.006259
v -0.030194 0.205570 -0.047469
v 0.025712 0.185990 -0.053728
v 0.055901 0.166410 -0.006259
v 0.030184 0.166410 0.047469
v 0.002576 0.174686 0.058426
v 0.049702 0.163381 0.023793
v 0.047120 0.174686 -0.034633
v -0.002587 0.197295 -0.058426
v -0.049712 0.208599 -0.023793
v -0.047131 0.197295 0.034633
v -0.000006 0.328808 0.100184
v -0.086768 0.326193 0.050092
v -0.086767 0.304168 -0.050092
v -0.000006 0.346118 -0.100184
v 0.086756 0.318263 -0.050092
v 0.086756 0.311446 0.050092
v 0.050086 0.297724 0.086762
v 0.100178 0.328808 0.000000
v 0.050086 0.337154 -0.086762
v -0.050098 0.319402 -0.086762
v -0.100190 0.307099 0.000000
v -0.050098 0.347902 0.086762
v -0.000005 0.362047 0.044845
v -0.038842 0.340338 0.022422
v -0.038842 0.352640 -0.022422
v -0.000005 0.379357 -0.044845
v 0.038831 0.362047 -0.022422
v 0.038832 0.330963 0.022422
v 0.022417 0.330963 0.038837
v 0.044840 0.362047 0.000000
v 0.022417 0.379357 -0.038837
v -0.022428 0.352640 -0.038837
v -0.044850 0.340338 0.000000
v -0.022428 0.362047 0.038837
v 0.009486 0.445043 0.094395
v 0.038972 0.445043 0.086495
v 0.102076 0.378226 0.043366
v 0.110947 0.392377 0.011611
v 0.076997 0.426938 -0.055418
v 0.055412 0.426938 -0.077003
v -0.010192 0.376863 -0.106048
v -0.044594 0.386948 -0.104585
v -0.086501 0.463866 -0.038978
v -0.094401 0.463866 -0.009492
v -0.088763 0.397528 0.069846
v -0.064525 0.378817 0.088549
v 0.009487 0.455726 0.071418
v 0.027483 0.455726 0.066596
v 0.078187 0.386362 0.032420
v 0.083601 0.395000 0.013038
v 0.057098 0.437621 -0.043929
v 0.043924 0.437621 -0.057104
v -0.012338 0.390999 -0.082547
v -0.033336 0.397155 -0.081654
v -0.066601 0.474549 -0.027489
v -0.071423 0.474549 -0.009492
v -0.067963 0.393520 0.052293
v -0.053170 0.382100 0.063709
v -0.000004 0.338068 0.000000
v -0.000009 0.258538 0.047481
v 0.041110 0.258538 0.023740
v 0.041110 0.258538 -0.023740
v -0.000009 0.258538 -0.047481
v -0.041129 0.258538 -0.023740
v -0.041129 0.258538 0.023740
v -0.000006 0.413763 0.083755
v -0.000009 0.218558 -0.000000
v 0.072528 0.413763 0.041877
v 0.072528 0.413763 -0.041877
v -0.000006 0.413763 -0.083755
v -0.072540 0.413763 -0.041877
v -0.072540 0.413763 0.041878
v -0.036909 0.455386 0.021304
v -0.036909 0.455386 -0.021304
v -0.000010 0.455386 -0.042607
v 0.036889 0.455386 -0.021304
v 0.036889 0.455386 0.021304
v -0.000010 0.455386 0.042607
vt 0.000000 0.000000
vt 0.000000 0.000000
vt 0.000000 0.000000
vt 0.000000 0.000000
vt 0.000000 0.000000
vt 0.000000 0.000000
vt 0.000000 0.000000
vt 0.000000 0.000000
vt 0.000000 0.000000
vt 0.000000 0.000000
vt 0.000000 0.000000
vt 0.000000 0.000000
vt 0.000000 0.000000
vt 0.000000 0.000000
vt 0.000000 0.000000
vt 0.000000 0.000000
vt 0.000000 0.000000
vt 0.000000 0.000000
vt 0.000000 0.000000
vt 0.750000 1.000000
vt 0.833333 1.000000
vt 0.833333 0.750000
vt 0.750000 0.750000
vt 0.583333 1.000000
vt 0.666667 1.000000
vt 0.666667 0.750000
vt 0.583333 0.750000
vt 0.416667 1.000000
vt 0.500000 1.000000
vt 0.500000 0.750000
vt 0.416667 0.750000
vt 0.250000 1.000000
vt 0.333333 1.000000
vt 0.333333 0.750000
vt 0.250000 0.750000
vt 0.083333 0.750000
vt 0.083333 1.000000
vt 0.166667 1.000000
vt 0.166667 0.750000
vt 0.083333 1.000000
vt 0.166667 1.000000
vt 0.916667 1.000000
vt 1.000000 1.000000
vt 1.000000 0.750000
vt 0.916667 0.750000
vt 0.457846 0.370000
vt 0.457846 0.250000
vt 0.457846 0.130000
vt 0.353923 0.070000
vt 0.250000 0.010000
vt 0.146077 0.070000
vt 0.042154 0.130000
vt 0.042154 0.250000
vt 0.042154 0.370000
vt 0.146077 0.430000
vt 0.250000 0.490000
vt 0.353923 0.430000
vt 0.916667 1.000000
vt 1.000000 1.000000
vt 0.583333 1.000000
vt 0.666667 1.000000
vt 0.250000 1.000000
vt 0.333333 1.000000
vt 0.750000 1.000000
vt 0.833333 1.000000
vt 0.416667 1.000000
vt 0.500000 1.000000
vt -0.000000 1.000000
vt -0.000000 1.000000
vt -0.000000 0.750000
vt 0.666667 0.750000
vt 0.583333 0.750000
vt 0.083333 0.750000
vt -0.000000 0.750000
vt 0.500000 0.750000
vt 0.416667 0.750000
vt 0.333333 0.750000
vt 0.250000 0.750000
vt 0.166667 0.750000
vt 0.916667 0.750000
vt 0.833333 0.750000
vt 0.750000 0.750000
vt 1.000000 0.750000
vt 0.083333 0.750000
vt -0.000000 0.750000
vt 0.833333 0.750000
vt 0.750000 0.750000
vt 0.583333 0.750000
vt 0.500000 0.750000
vt 0.333333 0.750000
vt 0.250000 0.750000
vt 0.916667 0.750000
vt 0.666667 0.750000
vt 0.416667 0.750000
vt 1.000000 0.750000
vt 0.166667 0.750000
vt 0.166667 0.750000
vt 0.083333 0.750000
vt 0.833333 0.750000
vt 0.833333 0.750000
vt 0.833333 0.750000
vt 0.500000 0.750000
vt 0.416667 0.750000
vt 0.000000 0.000000
vt 0.000000 0.000000
vt 0.000000 0.000000
vt 0.000000 0.000000
vt 0.750000 0.750000
vt 0.250000 0.750000
vt 0.250000 0.750000
vt 0.250000 0.750000
vt 0.333333 0.750000
vt 0.000000 0.000000
vt 0.000000 0.000000
vt 0.000000 0.000000
vt 0.000000 0.000000
vt 0.416667 0.750000
vt 0.333333 0.750000
vt 0.666667 0.750000
vt 0.583333 0.750000
vt 0.500000 0.750000
vt 0.500000 0.750000
vt 1.000000 0.750000
vt 0.916667 0.750000
vt 0.000000 0.000000
vt 0.166667 0.750000
vt 0.583333 0.750000
vt 0.083333 0.750000
vt 0.083333 0.750000
vt 0.583333 0.750000
vt 0.166667 0.750000
vt -0.000000 0.750000
vt 0.000000 0.000000
vt 0.000000 0.000000
vt 0.000000 0.000000
vt 0.000000 0.000000
vt 0.333333 0.750000
vt 0.750000 0.750000
vt 0.666667 0.750000
vt 0.666667 0.750000
vt 0.916667 0.750000
vt 0.916667 0.750000
vt 0.000000 0.000000
vt 0.000000 0.000000
vt 0.000000 0.000000
vt 0.000000 0.000000
vt 0.750000 0.750000
vt 0.000000 0.000000
vt 0.000000 0.000000
vt 0.000000 0.000000
vt 0.000000 0.000000
vt 1.000000 0.750000
vt 1.000000 0.750000
vt 0.416667 0.750000
vt 0.000000 0.000000
vt 0.000000 0.000000
vt 0.000000 0.000000
vt 0.583333 0.750000
vt 0.000000 0.000000
vt 0.916667 0.750000
vt 0.083333 0.750000
vt 0.416667 0.750000
vt 0.750000 0.750000
vt 0.250000 0.750000
vn 0.3798 0.6504 -0.6578
vn 0.4901 -0.1984 -0.8488
vn -0.3798 0.6503 -0.6579
vn 0.3798 0.6504 0.6578
vn -0.4901 -0.1983 -0.8488
vn 0.7596 0.6504 0.0000
vn 0.9801 -0.1984 -0.0000
vn -0.4901 -0.1983 0.8488
vn 0.4901 -0.1984 0.8488
vn -0.7597 0.6503 -0.0000
vn -0.3798 0.6503 0.6579
vn 0.3486 -0.7170 -0.6037
vn -0.3486 -0.7170 0.6037
vn 0.6971 -0.7170 -0.0000
vn 0.3486 -0.7170 0.6037
vn -0.6971 -0.7170 -0.0000
vn -0.9801 -0.1983 -0.0000
vn -0.3486 -0.7170 -0.6037
vn -0.0000 1.0000 0.0000
vn -0.9707 -0.0167 -0.2397
vn -0.9602 -0.0169 0.2788
vn -0.9860 -0.0598 0.1559
vn -0.9380 -0.0563 -0.3421
vn -0.2777 -0.0167 -0.9605
vn -0.7215 -0.0169 -0.6922
vn -0.6522 -0.0596 -0.7557
vn -0.1940 -0.0662 -0.9788
vn 0.6930 -0.0167 -0.7208
vn 0.2387 -0.0169 -0.9710
vn 0.3286 -0.0728 -0.9417
vn 0.7624 -0.0734 -0.6429
vn 0.9707 -0.0167 0.2397
vn 0.9602 -0.0169 -0.2788
vn 0.9831 -0.0710 -0.1686
vn 0.9373 -0.0687 0.3418
vn 0.1699 -0.0734 0.9827
vn 0.2777 -0.0167 0.9605
vn 0.7215 -0.0169 0.6922
vn 0.6420 -0.0710 0.7634
vn 0.2831 -0.8243 0.4903
vn 0.1526 -0.9523 0.2644
vn 0.3096 -0.9339 0.1788
vn 0.4698 -0.8401 0.2712
vn -0.6930 -0.0167 0.7208
vn -0.2387 -0.0169 0.9710
vn -0.3567 -0.0730 0.9314
vn -0.7784 -0.0664 0.6243
vn -0.3096 -0.9339 0.1788
vn -0.3053 -0.9523 -0.0000
vn -0.3096 -0.9339 -0.1788
vn -0.1526 -0.9523 -0.2644
vn -0.0000 -0.9339 -0.3575
vn 0.1526 -0.9523 -0.2644
vn 0.3096 -0.9339 -0.1788
vn 0.3053 -0.9523 -0.0000
vn 0.0000 -0.9339 0.3575
vn -0.1526 -0.9523 0.2644
vn -0.2831 -0.8243 0.4903
vn 0.0000 -0.8401 0.5425
vn -0.2831 -0.8243 -0.4903
vn -0.4698 -0.8401 -0.2712
vn 0.5662 -0.8243 0.0000
vn 0.4698 -0.8401 -0.2712
vn -0.5662 -0.8243 -0.0000
vn -0.4698 -0.8401 0.2712
vn 0.2831 -0.8243 -0.4903
vn -0.0000 -0.8401 -0.5425
vn -0.6442 -0.2619 -0.7186
vn -0.1931 -0.2168 -0.9569
vn 0.1500 -0.2184 0.9643
vn -0.3843 -0.1974 0.9018
vn 0.2792 -0.1972 -0.9398
vn 0.7058 -0.2014 -0.6791
vn 0.9617 -0.1983 -0.1891
vn 0.9295 -0.1996 0.3102
vn 0.6547 -0.2181 0.7237
vn -0.7537 -0.2039 0.6248
vn -0.9461 -0.2454 0.2113
vn -0.9174 -0.2786 -0.2842
vn 0.2957 -0.2365 0.9256
vn -0.0686 -0.1463 0.9869
vn -0.7844 -0.3195 0.5316
vn -0.9554 -0.2736 -0.1112
vn -0.2408 -0.3010 -0.9227
vn 0.0295 -0.2563 -0.9661
vn 0.8520 -0.2047 -0.4818
vn 0.9591 -0.2446 0.1427
vn -0.6240 -0.2657 0.7348
vn -0.8302 -0.2806 -0.4816
vn 0.5927 -0.1510 -0.7912
vn 0.8621 -0.2794 0.4227
vn 0.1944 0.8849 0.4232
vn 0.1631 0.9406 0.2978
vn 0.1629 0.9409 0.2969
vn -0.5591 0.1826 -0.8087
vn 0.2423 0.8132 -0.5292
vn -0.3194 0.5774 0.7514
vn -0.2040 0.6027 0.7715
vn -0.5318 0.3826 0.7556
vn -0.4398 0.8905 -0.1166
vn -0.2428 0.9671 -0.0760
vn -0.1590 0.9816 0.1058
vn 0.0745 0.2107 -0.9747
vn 0.5317 0.8061 -0.2597
vn 0.0988 0.7978 -0.5948
vn -0.0601 0.7534 -0.6548
vn 0.3146 0.7197 -0.6189
vn 0.7119 0.0316 -0.7016
vn -0.5365 0.7844 -0.3114
vn 0.9316 0.3221 -0.1682
vn 0.1166 0.8905 0.4398
vn 0.1084 0.8964 0.4298
vn -0.1229 -0.2380 -0.9635
vn 0.8822 0.0667 -0.4661
vn -0.9039 0.1690 0.3930
vn -0.4178 0.1630 0.8938
vn 0.2674 0.0238 0.9633
vn -0.4604 0.6705 0.5817
vn -0.3051 0.7207 0.6225
vn -0.2617 0.7546 0.6018
vn 0.5538 0.0949 0.8272
vn -0.9656 0.0198 -0.2595
vn 0.4568 0.0636 -0.8873
vn 0.7598 0.4090 0.5054
vn 0.6423 0.6286 0.4385
vn 0.6280 0.6486 0.4301
vn -0.0705 0.2452 -0.9669
vn -0.0351 0.0626 0.9974
vn 0.9622 -0.1995 0.1853
vn 0.9253 0.2141 0.3131
vn -0.9952 0.0853 0.0478
vn -0.6435 -0.2554 0.7216
vn -0.8184 0.1160 -0.5629
vn -0.6285 0.6029 0.4915
vn -0.5114 0.6111 0.6042
vn -0.7469 0.5719 0.3393
vn 0.2266 0.8436 -0.4868
vn 0.4225 0.8532 0.3059
vn 0.1123 0.9011 0.4189
vn -0.4189 0.9011 -0.1122
vn 0.3067 0.9011 -0.3067
vn 0.2255 0.9478 0.2255
vn 0.1411 0.9238 0.3560
vn 0.1055 0.9626 0.2493
vn -0.2937 0.6867 0.6650
vn 0.1254 0.8749 -0.4678
vn -0.1415 0.8037 -0.5779
vn 0.1145 0.9868 0.1145
vn -0.3178 0.5943 0.7388
vn -0.4678 0.8749 0.1254
vn 0.7388 0.5943 -0.3178
usemtl Green
s 98
f 107/1/1 108/2/1 113/3/1 114/4/1
s 99
f 100/5/2 101/6/2 108/2/2 107/1/2
s 100
f 108/2/3 109/7/3 112/8/3 113/3/3
s 101
f 104/9/4 106/10/4 115/11/4 116/12/4
s 102
f 101/6/5 102/13/5 109/7/5 108/2/5
s 103
f 106/10/6 107/1/6 114/4/6 115/11/6
s 104
f 99/14/7 100/5/7 107/1/7 106/10/7
s 105
f 103/15/8 98/16/8 104/9/8 110/17/8
s 106
f 98/16/9 99/14/9 106/10/9 104/9/9
s 107
f 109/7/10 110/17/10 111/18/10 112/8/10
s 108
f 110/17/11 104/9/11 116/12/11 111/18/11
s 109
f 101/6/12 100/5/12 105/19/12
s 110
f 103/15/13 105/19/13 98/16/13
s 111
f 99/14/14 105/19/14 100/5/14
s 112
f 98/16/15 105/19/15 99/14/15
s 113
f 102/13/16 105/19/16 103/15/16
s 114
f 102/13/17 103/15/17 110/17/17 109/7/17
s 115
f 102/13/18 101/6/18 105/19/18
s 116
f 111/18/19 116/12/19 115/11/19 114/4/19 113/3/19 112/8/19
usemtl WoodDark
s 1
f 26/20/20 21/21/21 8/22/22 35/23/23
s 2
f 28/24/24 22/25/25 9/26/26 34/27/27
s 3
f 25/28/28 23/29/29 10/30/30 33/31/31
s 4
f 27/32/32 24/33/33 11/34/34 32/35/35
s 5
f 31/36/36 30/37/37 19/38/38 12/39/39
s 6
f 30/37/40 18/40/41 6/41/42 19/38/43
s 7
f 29/42/44 20/43/45 7/44/46 36/45/47
s 8
f 1/46/48 14/47/49 3/48/50 15/49/51 4/50/52 16/51/53 5/52/54 17/53/55 6/54/42 18/55/41 2/56/56 13/57/57
s 9
f 29/42/58 13/58/57 2/59/56 20/43/59
s 10
f 28/24/60 15/60/51 3/61/50 22/25/61
s 11
f 27/32/62 17/62/55 5/63/54 24/33/63
s 12
f 26/20/64 14/64/49 1/65/48 21/21/65
s 13
f 25/28/66 16/66/53 4/67/52 23/29/67
s 14
f 24/33/63 5/63/54 16/66/53 25/28/66
s 15
f 22/25/61 3/61/50 14/64/49 26/20/64
s 16
f 19/38/43 6/41/42 17/62/55 27/32/62
s 17
f 23/29/67 4/67/52 15/60/51 28/24/60
s 18
f 21/21/65 1/65/48 13/58/57 29/42/58
s 19
f 20/68/59 2/69/56 18/40/41 30/37/40
s 20
f 21/21/21 29/42/44 36/45/47 8/22/22
s 21
f 20/68/45 30/37/37 31/36/36 7/70/46
s 22
f 12/39/39 19/38/38 27/32/32 32/35/35
s 23
f 11/34/34 24/33/33 25/28/28 33/31/31
s 24
f 23/29/29 28/24/24 34/27/27 10/30/30
s 25
f 9/26/26 22/25/25 26/20/20 35/23/23
s 26
f 34/27/27 9/26/26 39/71/68 46/72/69
s 27
f 7/70/46 31/36/36 43/73/70 37/74/71
s 28
f 33/31/31 10/30/30 40/75/72 45/76/73
s 29
f 32/35/35 11/34/34 41/77/74 44/78/75
s 30
f 31/36/36 12/39/39 42/79/76 43/73/70
s 31
f 8/22/22 36/45/47 48/80/77 38/81/78
s 32
f 9/26/26 35/23/23 47/82/79 39/71/68
s 33
f 10/30/30 34/27/27 46/72/69 40/75/72
s 34
f 36/45/47 7/44/46 37/83/71 48/80/77
s 35
f 11/34/34 33/31/31 45/76/73 41/77/74
s 36
f 35/23/23 8/22/22 38/81/78 47/82/79
s 37
f 12/39/39 32/35/35 44/78/75 42/79/76
s 38
f 43/73/70 55/84/80 49/85/81 37/74/71
s 39
f 38/81/78 50/86/82 59/87/83 47/82/79
s 40
f 46/72/69 58/88/84 52/89/85 40/75/72
s 41
f 41/77/74 53/90/86 56/91/87 44/78/75
s 42
f 48/80/77 60/92/88 50/86/82 38/81/78
s 43
f 39/71/68 51/93/89 58/88/84 46/72/69
s 44
f 45/76/73 57/94/90 53/90/86 41/77/74
s 45
f 37/83/71 49/95/81 60/92/88 48/80/77
s 46
f 42/79/76 54/96/91 55/84/80 43/73/70
s 47
f 47/82/79 59/87/83 51/93/89 39/71/68
s 48
f 40/75/72 52/89/85 57/94/90 45/76/73
s 49
f 44/78/75 56/91/87 54/96/91 42/79/76
s 50
f 55/84/92 54/96/92 66/97/93 67/98/94
s 51
f 62/99/95 50/86/95 83/100/95 95/101/95
s 52
f 57/94/96 52/89/96 64/102/96 69/103/96
s 53
f 69/104/97 65/105/98 89/106/99 90/107/99
s 54
f 59/87/100 50/86/100 62/99/101 71/108/102
s 55
f 56/91/103 68/109/103 88/110/103 76/111/103
s 56
f 56/91/104 53/90/104 65/112/104 68/109/104
s 57
f 72/113/105 62/114/106 95/115/107 96/116/107
s 58
f 53/90/86 57/94/90 78/117/108 77/118/108
s 59
f 58/88/109 51/93/109 63/119/109 70/120/109
s 60
f 64/102/110 52/89/110 79/121/110 91/122/110
s 61
f 60/92/111 49/95/111 61/123/111 72/124/111
s 62
f 76/111/112 88/110/112 87/125/112 75/126/112
s 63
f 52/89/85 58/88/84 80/127/113 79/121/113
s 64
f 55/84/114 67/98/114 86/128/114 74/129/114
s 65
f 58/88/115 70/120/115 92/130/115 80/127/115
s 66
f 66/97/116 54/96/116 75/126/116 87/131/116
s 67
f 49/85/81 55/84/80 74/129/117 73/132/117
s 68
f 70/133/118 64/134/119 91/135/120 92/136/120
s 69
f 65/112/121 53/90/121 77/118/121 89/137/121
s 70
f 51/93/89 59/87/83 82/138/122 81/139/122
s 71
f 63/119/123 51/93/123 81/139/123 93/140/123
s 72
f 60/92/124 72/124/124 96/141/125 84/142/126
s 73
f 67/143/127 61/144/127 85/145/127 86/146/127
s 74
f 59/87/128 71/108/128 94/147/128 82/138/128
s 75
f 54/96/91 56/91/87 76/111/129 75/126/129
s 76
f 71/148/130 63/149/130 93/150/130 94/151/130
s 77
f 61/123/131 49/95/131 73/152/131 85/153/131
s 78
f 50/86/82 60/92/88 84/142/132 83/100/132
s 79
f 57/94/133 69/103/133 90/154/133 78/117/133
s 80
f 68/155/134 66/156/135 87/125/136 88/157/136
s 81
f 80/127/137 92/130/137 91/135/137 79/121/137
s 82
f 84/142/126 96/141/125 95/115/138 83/100/138
s 83
f 74/129/139 86/128/139 85/145/139 73/152/139
s 84
f 82/138/140 94/147/140 93/150/140 81/139/140
s 85
f 78/117/141 90/154/141 89/106/141 77/118/141
s 86
f 70/120/142 63/119/143 97/158/144
s 87
f 65/105/98 69/104/97 97/159/145
s 88
f 72/124/105 61/123/146 97/160/147
s 89
f 67/98/94 66/97/93 97/161/148
s 90
f 63/149/143 71/148/102 97/159/144
s 91
f 69/103/97 64/102/119 97/162/145
s 92
f 66/156/135 68/155/134 97/159/149
s 93
f 71/108/102 62/99/101 97/163/144
s 94
f 64/134/119 70/133/118 97/159/145
s 95
f 68/109/150 65/112/150 97/164/150
s 96
f 62/114/106 72/113/105 97/159/147
s 97
f 61/144/151 67/143/151 97/159/151
