# Blender v2.80 (sub 75) OBJ File: 'DungeonExport.blend'
# www.blender.org
mtllib tileBrickB_large.mtl
o tileBrickB_large_Cube.3228
v -0.950000 0.000000 0.950000
v -0.985355 0.014645 0.985355
v -0.950000 1.000000 0.950000
v -1.000000 0.950000 1.000000
v -0.985355 0.985355 0.985355
v -0.950000 0.000000 -0.950000
v -0.985355 0.014645 -0.985355
v -0.950000 1.000000 -0.950000
v -0.985355 0.985355 -0.985355
v 0.950000 0.000000 0.950000
v 0.985355 0.014645 0.985355
v 0.950000 1.000000 0.950000
v 0.985355 0.985355 0.985355
v 0.950000 0.000000 -0.950000
v 0.985355 0.014645 -0.985355
v 0.950000 1.000000 -0.950000
v 0.985355 0.985355 -0.985355
v -0.950000 0.000000 -1.050000
v -1.000000 0.050000 -1.000000
v -0.985355 0.014645 -1.014645
v -0.950000 1.000000 -1.050000
v -0.985355 0.985355 -1.014645
v -0.950000 0.000000 -2.950000
v -1.000000 0.050000 -3.000000
v -0.985355 0.014645 -2.985355
v -0.950000 1.000000 -2.950000
v -0.985355 0.985355 -2.985355
v 0.950000 0.000000 -1.050000
v 0.985355 0.014645 -1.014645
v 0.950000 1.000000 -1.050000
v 0.985355 0.985355 -1.014645
v 0.950000 0.000000 -2.950000
v 0.985355 0.014645 -2.985355
v 0.950000 1.000000 -2.950000
v 1.000000 0.950000 -3.000000
v 0.985355 0.985355 -2.985355
v -0.950000 0.000000 2.950000
v -1.000000 0.050000 3.000000
v -0.985355 0.014645 2.985355
v -0.950000 1.000000 2.950000
v -0.985355 0.985355 2.985355
v -0.950000 0.000000 1.050000
v -0.985355 0.014645 1.014645
v -0.950000 1.000000 1.050000
v -0.985355 0.985355 1.014645
v 0.950000 0.000000 2.950000
v 1.000000 0.050000 3.000000
v 0.985355 0.014645 2.985355
v 0.950000 1.000000 2.950000
v 0.985355 0.985355 2.985355
v 0.950000 0.000000 1.050000
v 0.985355 0.014645 1.014645
v 0.950000 1.000000 1.050000
v 0.985355 0.985355 1.014645
v -2.950000 0.000000 -1.050000
v -2.985355 0.014645 -1.014645
v -2.950000 1.000000 -1.050000
v -2.985355 0.985355 -1.014645
v -2.950000 0.000000 -2.950000
v -3.000000 0.050000 -3.000000
v -2.985355 0.014645 -2.985355
v -2.950000 1.000000 -2.950000
v -3.000000 0.950000 -3.000000
v -2.985355 0.985355 -2.985355
v -1.050000 0.000000 -1.050000
v -1.014645 0.014645 -1.014645
v -1.050000 1.000000 -1.050000
v -1.014645 0.985355 -1.014645
v -1.050000 0.000000 -2.950000
v -1.014645 0.014645 -2.985355
v -1.050000 1.000000 -2.950000
v -1.000000 0.950000 -3.000000
v -1.014645 0.985355 -2.985355
v -2.950000 0.000000 0.950000
v -3.000000 0.050000 1.000000
v -2.985355 0.014645 0.985355
v -2.950000 1.000000 0.950000
v -3.000000 0.950000 1.000000
v -2.985355 0.985355 0.985355
v -2.950000 0.000000 -0.950000
v -3.000000 0.050000 -1.000000
v -2.985355 0.014645 -0.985355
v -2.950000 1.000000 -0.950000
v -3.000000 0.950000 -1.000000
v -2.985355 0.985355 -0.985355
v -1.050000 0.000000 0.950000
v -1.014645 0.014645 0.985355
v -1.050000 1.000000 0.950000
v -1.014645 0.985355 0.985355
v -1.050000 0.000000 -0.950000
v -1.014645 0.014645 -0.985355
v -1.050000 1.000000 -0.950000
v -1.000000 0.950000 -1.000000
v -1.014645 0.985355 -0.985355
v -2.950000 0.000000 2.950000
v -3.000000 0.050000 3.000000
v -2.985355 0.014645 2.985355
v -2.950000 1.000000 2.950000
v -3.000000 0.950000 3.000000
v -2.985355 0.985355 2.985355
v -2.950000 0.000000 1.050000
v -2.985355 0.014645 1.014645
v -2.950000 1.000000 1.050000
v -2.985355 0.985355 1.014645
v -1.050000 0.000000 2.950000
v -1.014645 0.014645 2.985355
v -1.050000 1.000000 2.950000
v -1.000000 0.950000 3.000000
v -1.014645 0.985355 2.985355
v -1.050000 0.000000 1.050000
v -1.000000 0.050000 1.000000
v -1.014645 0.014645 1.014645
v -1.050000 1.000000 1.050000
v -1.014645 0.985355 1.014645
v 1.050000 0.000000 -1.050000
v 1.014645 0.014645 -1.014645
v 1.050000 1.000000 -1.050000
v 1.000000 0.950000 -1.000000
v 1.014645 0.985355 -1.014645
v 1.050000 0.000000 -2.950000
v 1.000000 0.050000 -3.000000
v 1.014645 0.014645 -2.985355
v 1.050000 1.000000 -2.950000
v 1.014645 0.985355 -2.985355
v 2.950000 0.000000 -1.050000
v 2.985355 0.014645 -1.014645
v 2.950000 1.000000 -1.050000
v 3.000000 0.950000 -1.000000
v 2.985355 0.985355 -1.014645
v 2.950000 0.000000 -2.950000
v 3.000000 0.050000 -3.000000
v 2.985355 0.014645 -2.985355
v 2.950000 1.000000 -2.950000
v 3.000000 0.950000 -3.000000
v 2.985355 0.985355 -2.985355
v 1.050000 0.000000 0.950000
v 1.000000 0.050000 1.000000
v 1.014645 0.014645 0.985355
v 1.050000 1.000000 0.950000
v 1.014645 0.985355 0.985355
v 1.050000 0.000000 -0.950000
v 1.000000 0.050000 -1.000000
v 1.014645 0.014645 -0.985355
v 1.050000 1.000000 -0.950000
v 1.014645 0.985355 -0.985355
v 2.950000 0.000000 0.950000
v 2.985355 0.014645 0.985355
v 2.950000 1.000000 0.950000
v 2.985355 0.985355 0.985355
v 2.950000 0.000000 -0.950000
v 3.000000 0.050000 -1.000000
v 2.985355 0.014645 -0.985355
v 2.950000 1.000000 -0.950000
v 2.985355 0.985355 -0.985355
v 1.050000 0.000000 2.950000
v 1.014645 0.014645 2.985355
v 1.050000 1.000000 2.950000
v 1.000000 0.950000 3.000000
v 1.014645 0.985355 2.985355
v 1.050000 0.000000 1.050000
v 1.014645 0.014645 1.014645
v 1.050000 1.000000 1.050000
v 1.000000 0.950000 1.000000
v 1.014645 0.985355 1.014645
v 2.950000 0.000000 2.950000
v 3.000000 0.050000 3.000000
v 2.985355 0.014645 2.985355
v 2.950000 1.000000 2.950000
v 3.000000 0.950000 3.000000
v 2.985355 0.985355 2.985355
v 2.950000 0.000000 1.050000
v 3.000000 0.050000 1.000000
v 2.985355 0.014645 1.014645
v 2.950000 1.000000 1.050000
v 3.000000 0.950000 1.000000
v 2.985355 0.985355 1.014645
vt 0.387500 0.750000
vt 0.612500 0.750000
vt 0.612500 1.000000
vt 0.387500 1.000000
vt 0.387500 0.500000
vt 0.612500 0.500000
vt 0.131250 0.506250
vt 0.368750 0.506250
vt 0.368750 0.743750
vt 0.131250 0.743750
vt 0.631250 0.506250
vt 0.868750 0.506250
vt 0.868750 0.743750
vt 0.631250 0.743750
vt 0.387500 0.000000
vt 0.612500 0.000000
vt 0.612500 0.250000
vt 0.387500 0.250000
vt 0.387500 0.500000
vt 0.612500 0.500000
vt 0.612500 0.750000
vt 0.387500 0.750000
vt 0.131250 0.506250
vt 0.368750 0.506250
vt 0.368750 0.743750
vt 0.131250 0.743750
vt 0.631250 0.506250
vt 0.868750 0.506250
vt 0.868750 0.743750
vt 0.631250 0.743750
vt 0.387500 0.000000
vt 0.612500 0.000000
vt 0.612500 0.250000
vt 0.387500 0.250000
vt 0.387500 0.750000
vt 0.612500 0.750000
vt 0.612500 1.000000
vt 0.387500 1.000000
vt 0.387500 0.500000
vt 0.612500 0.500000
vt 0.131250 0.506250
vt 0.368750 0.506250
vt 0.368750 0.743750
vt 0.131250 0.743750
vt 0.631250 0.506250
vt 0.868750 0.506250
vt 0.868750 0.743750
vt 0.631250 0.743750
vt 0.387500 0.000000
vt 0.612500 0.000000
vt 0.612500 0.250000
vt 0.387500 0.250000
vt 0.387500 0.750000
vt 0.612500 0.750000
vt 0.612500 1.000000
vt 0.387500 1.000000
vt 0.131250 0.506250
vt 0.368750 0.506250
vt 0.368750 0.743750
vt 0.131250 0.743750
vt 0.631250 0.506250
vt 0.868750 0.506250
vt 0.868750 0.743750
vt 0.631250 0.743750
vt 0.387500 0.000000
vt 0.612500 0.000000
vt 0.612500 0.250000
vt 0.387500 0.250000
vt 0.612500 0.500000
vt 0.387500 0.500000
vt 0.387500 0.750000
vt 0.612500 0.750000
vt 0.612500 1.000000
vt 0.387500 1.000000
vt 0.131250 0.506250
vt 0.368750 0.506250
vt 0.368750 0.743750
vt 0.131250 0.743750
vt 0.631250 0.506250
vt 0.868750 0.506250
vt 0.868750 0.743750
vt 0.631250 0.743750
vt 0.387500 0.000000
vt 0.612500 0.000000
vt 0.612500 0.250000
vt 0.387500 0.250000
vt 0.387500 0.750000
vt 0.612500 0.750000
vt 0.612500 1.000000
vt 0.387500 1.000000
vt 0.131250 0.506250
vt 0.368750 0.506250
vt 0.368750 0.743750
vt 0.131250 0.743750
vt 0.631250 0.506250
vt 0.868750 0.506250
vt 0.868750 0.743750
vt 0.631250 0.743750
vt 0.387500 0.000000
vt 0.612500 0.000000
vt 0.612500 0.250000
vt 0.387500 0.250000
vt 0.387500 0.750000
vt 0.612500 0.750000
vt 0.612500 1.000000
vt 0.387500 1.000000
vt 0.387500 0.500000
vt 0.612500 0.500000
vt 0.131250 0.506250
vt 0.368750 0.506250
vt 0.368750 0.743750
vt 0.131250 0.743750
vt 0.631250 0.506250
vt 0.868750 0.506250
vt 0.868750 0.743750
vt 0.631250 0.743750
vt 0.387500 0.250000
vt 0.612500 0.250000
vt 0.387500 0.750000
vt 0.612500 0.750000
vt 0.612500 1.000000
vt 0.387500 1.000000
vt 0.387500 0.500000
vt 0.612500 0.500000
vt 0.131250 0.506250
vt 0.368750 0.506250
vt 0.368750 0.743750
vt 0.131250 0.743750
vt 0.631250 0.506250
vt 0.868750 0.506250
vt 0.868750 0.743750
vt 0.631250 0.743750
vt 0.387500 0.750000
vt 0.612500 0.750000
vt 0.612500 1.000000
vt 0.387500 1.000000
vt 0.387500 0.500000
vt 0.612500 0.500000
vt 0.631250 0.506250
vt 0.868750 0.506250
vt 0.868750 0.743750
vt 0.631250 0.743750
vt 0.131250 0.506250
vt 0.131250 0.743750
vt 0.125000 0.748169
vt 0.125000 0.501831
vt 0.375000 0.248169
vt 0.375000 0.001831
vt 0.875000 0.501831
vt 0.875000 0.748169
vt 0.625000 0.001831
vt 0.625000 0.248169
vt 0.368750 0.506250
vt 0.126831 0.500000
vt 0.373169 0.500000
vt 0.375000 0.498169
vt 0.375000 0.251831
vt 0.626831 0.500000
vt 0.873169 0.500000
vt 0.625000 0.251831
vt 0.625000 0.498169
vt 0.368750 0.743750
vt 0.375000 0.501831
vt 0.375000 0.748169
vt 0.625000 0.748169
vt 0.625000 0.501831
vt 0.373169 0.750000
vt 0.126831 0.750000
vt 0.375000 0.998169
vt 0.375000 0.751831
vt 0.873169 0.750000
vt 0.626831 0.750000
vt 0.625000 0.751831
vt 0.625000 0.998169
vt 0.125000 0.748169
vt 0.125000 0.501831
vt 0.375000 0.248169
vt 0.375000 0.001831
vt 0.875000 0.501831
vt 0.875000 0.748169
vt 0.625000 0.001831
vt 0.625000 0.248169
vt 0.126831 0.500000
vt 0.373169 0.500000
vt 0.375000 0.498169
vt 0.375000 0.251831
vt 0.626831 0.500000
vt 0.873169 0.500000
vt 0.625000 0.251831
vt 0.625000 0.498169
vt 0.375000 0.501831
vt 0.375000 0.748169
vt 0.625000 0.748169
vt 0.625000 0.501831
vt 0.373169 0.750000
vt 0.126831 0.750000
vt 0.375000 0.998169
vt 0.375000 0.751831
vt 0.387500 1.000000
vt 0.873169 0.750000
vt 0.626831 0.750000
vt 0.625000 0.751831
vt 0.625000 0.998169
vt 0.612500 1.000000
vt 0.125000 0.748169
vt 0.125000 0.501831
vt 0.375000 0.248169
vt 0.375000 0.001831
vt 0.875000 0.501831
vt 0.875000 0.748169
vt 0.625000 0.001831
vt 0.625000 0.248169
vt 0.126831 0.500000
vt 0.373169 0.500000
vt 0.375000 0.498169
vt 0.375000 0.251831
vt 0.626831 0.500000
vt 0.873169 0.500000
vt 0.625000 0.251831
vt 0.625000 0.498169
vt 0.375000 0.501831
vt 0.375000 0.748169
vt 0.625000 0.748169
vt 0.625000 0.501831
vt 0.373169 0.750000
vt 0.126831 0.750000
vt 0.375000 0.998169
vt 0.375000 0.751831
vt 0.873169 0.750000
vt 0.626831 0.750000
vt 0.625000 0.751831
vt 0.625000 0.998169
vt 0.125000 0.748169
vt 0.125000 0.501831
vt 0.375000 0.248169
vt 0.375000 0.001831
vt 0.875000 0.501831
vt 0.875000 0.748169
vt 0.625000 0.001831
vt 0.625000 0.248169
vt 0.126831 0.500000
vt 0.373169 0.500000
vt 0.375000 0.498169
vt 0.375000 0.251831
vt 0.626831 0.500000
vt 0.873169 0.500000
vt 0.625000 0.251831
vt 0.625000 0.498169
vt 0.375000 0.501831
vt 0.375000 0.748169
vt 0.625000 0.748169
vt 0.625000 0.501831
vt 0.373169 0.750000
vt 0.126831 0.750000
vt 0.375000 0.998169
vt 0.375000 0.751831
vt 0.873169 0.750000
vt 0.626831 0.750000
vt 0.625000 0.751831
vt 0.625000 0.998169
vt 0.125000 0.748169
vt 0.125000 0.501831
vt 0.375000 0.248169
vt 0.375000 0.001831
vt 0.875000 0.501831
vt 0.875000 0.748169
vt 0.625000 0.001831
vt 0.625000 0.248169
vt 0.126831 0.500000
vt 0.373169 0.500000
vt 0.375000 0.498169
vt 0.375000 0.251831
vt 0.387500 0.500000
vt 0.626831 0.500000
vt 0.873169 0.500000
vt 0.625000 0.251831
vt 0.625000 0.498169
vt 0.612500 0.500000
vt 0.375000 0.501831
vt 0.375000 0.748169
vt 0.625000 0.748169
vt 0.625000 0.501831
vt 0.373169 0.750000
vt 0.126831 0.750000
vt 0.375000 0.998169
vt 0.375000 0.751831
vt 0.873169 0.750000
vt 0.626831 0.750000
vt 0.625000 0.751831
vt 0.625000 0.998169
vt 0.125000 0.748169
vt 0.125000 0.501831
vt 0.375000 0.248169
vt 0.375000 0.001831
vt 0.875000 0.501831
vt 0.875000 0.748169
vt 0.625000 0.001831
vt 0.625000 0.248169
vt 0.126831 0.500000
vt 0.373169 0.500000
vt 0.375000 0.498169
vt 0.375000 0.251831
vt 0.387500 0.500000
vt 0.626831 0.500000
vt 0.873169 0.500000
vt 0.625000 0.251831
vt 0.625000 0.498169
vt 0.612500 0.500000
vt 0.375000 0.501831
vt 0.375000 0.748169
vt 0.625000 0.748169
vt 0.625000 0.501831
vt 0.373169 0.750000
vt 0.126831 0.750000
vt 0.375000 0.998169
vt 0.375000 0.751831
vt 0.873169 0.750000
vt 0.626831 0.750000
vt 0.625000 0.751831
vt 0.625000 0.998169
vt 0.125000 0.748169
vt 0.125000 0.501831
vt 0.375000 0.248169
vt 0.375000 0.001831
vt 0.387500 0.000000
vt 0.875000 0.501831
vt 0.875000 0.748169
vt 0.625000 0.001831
vt 0.625000 0.248169
vt 0.612500 0.000000
vt 0.126831 0.500000
vt 0.373169 0.500000
vt 0.375000 0.498169
vt 0.375000 0.251831
vt 0.626831 0.500000
vt 0.873169 0.500000
vt 0.625000 0.251831
vt 0.625000 0.498169
vt 0.375000 0.501831
vt 0.375000 0.748169
vt 0.625000 0.748169
vt 0.625000 0.501831
vt 0.373169 0.750000
vt 0.126831 0.750000
vt 0.375000 0.998169
vt 0.375000 0.751831
vt 0.873169 0.750000
vt 0.626831 0.750000
vt 0.625000 0.751831
vt 0.625000 0.998169
vt 0.125000 0.748169
vt 0.125000 0.501831
vt 0.375000 0.248169
vt 0.375000 0.001831
vt 0.387500 0.000000
vt 0.387500 0.250000
vt 0.875000 0.501831
vt 0.875000 0.748169
vt 0.625000 0.001831
vt 0.625000 0.248169
vt 0.612500 0.250000
vt 0.612500 0.000000
vt 0.126831 0.500000
vt 0.373169 0.500000
vt 0.375000 0.498169
vt 0.375000 0.251831
vt 0.626831 0.500000
vt 0.873169 0.500000
vt 0.625000 0.251831
vt 0.625000 0.498169
vt 0.375000 0.501831
vt 0.375000 0.748169
vt 0.625000 0.748169
vt 0.625000 0.501831
vt 0.373169 0.750000
vt 0.126831 0.750000
vt 0.375000 0.998169
vt 0.375000 0.751831
vt 0.873169 0.750000
vt 0.626831 0.750000
vt 0.625000 0.751831
vt 0.625000 0.998169
vt 0.125000 0.748169
vt 0.125000 0.501831
vt 0.375000 0.248169
vt 0.375000 0.001831
vt 0.387500 0.000000
vt 0.387500 0.250000
vt 0.875000 0.501831
vt 0.875000 0.748169
vt 0.625000 0.001831
vt 0.625000 0.248169
vt 0.612500 0.250000
vt 0.612500 0.000000
vt 0.126831 0.500000
vt 0.373169 0.500000
vt 0.375000 0.498169
vt 0.375000 0.251831
vt 0.626831 0.500000
vt 0.873169 0.500000
vt 0.625000 0.251831
vt 0.625000 0.498169
vt 0.375000 0.501831
vt 0.375000 0.748169
vt 0.625000 0.748169
vt 0.625000 0.501831
vt 0.373169 0.750000
vt 0.126831 0.750000
vt 0.375000 0.998169
vt 0.375000 0.751831
vt 0.873169 0.750000
vt 0.626831 0.750000
vt 0.625000 0.751831
vt 0.625000 0.998169
vn 0.0000 0.0000 1.0000
vn 1.0000 0.0000 0.0000
vn 0.0000 -1.0000 0.0000
vn 0.0000 1.0000 0.0000
vn -1.0000 0.0000 0.0000
vn 0.0000 0.0000 -1.0000
vn -0.3827 -0.9239 0.0000
vn -0.9239 -0.3827 0.0000
vn -0.3827 0.9239 0.0000
vn -0.9239 0.3827 0.0000
vn 0.0000 -0.9239 -0.3827
vn 0.0000 -0.3827 -0.9239
vn 0.0000 0.9239 -0.3827
vn 0.0000 0.3827 -0.9239
vn 0.3827 -0.9239 0.0000
vn 0.9239 -0.3827 0.0000
vn 0.3827 0.9239 0.0000
vn 0.9239 0.3827 0.0000
vn 0.0000 -0.9239 0.3827
vn 0.0000 -0.3827 0.9239
vn 0.0000 0.9239 0.3827
vn 0.0000 0.3827 0.9239
usemtl Stone
s off
f 137/1/1 163/2/1 4/3/1 111/4/1
f 142/5/2 118/6/2 163/2/2 137/1/2
f 23/7/3 32/8/3 28/9/3 18/10/3
f 16/11/4 8/12/4 3/13/4 12/14/4
f 111/15/5 4/16/5 93/17/5 19/18/5
f 19/18/6 93/17/6 118/6/6 142/5/6
f 121/19/2 35/20/2 118/21/2 142/22/2
f 42/23/3 51/24/3 46/25/3 37/26/3
f 34/27/4 26/28/4 21/29/4 30/30/4
f 19/31/5 93/32/5 72/33/5 24/34/5
f 24/34/6 72/33/6 35/20/6 121/19/6
f 47/35/1 158/36/1 108/37/1 38/38/1
f 137/39/2 163/40/2 158/36/2 47/35/2
f 59/41/3 69/42/3 65/43/3 55/44/3
f 53/45/4 44/46/4 40/47/4 49/48/4
f 38/49/5 108/50/5 4/51/5 111/52/5
f 19/53/1 93/54/1 84/55/1 81/56/1
f 80/57/3 90/58/3 86/59/3 74/60/3
f 71/61/4 62/62/4 57/63/4 67/64/4
f 81/65/5 84/66/5 63/67/5 60/68/5
f 60/68/6 63/67/6 72/69/6 24/70/6
f 111/71/1 4/72/1 78/73/1 75/74/1
f 101/75/3 110/76/3 105/77/3 95/78/3
f 92/79/4 83/80/4 77/81/4 88/82/4
f 75/83/5 78/84/5 84/85/5 81/86/5
f 38/87/1 108/88/1 99/89/1 96/90/1
f 120/91/3 130/92/3 125/93/3 115/94/3
f 113/95/4 103/96/4 98/97/4 107/98/4
f 96/99/5 99/100/5 78/101/5 75/102/5
f 151/103/1 128/104/1 118/105/1 142/106/1
f 131/107/2 134/108/2 128/104/2 151/103/2
f 141/109/3 150/110/3 146/111/3 136/112/3
f 133/113/4 123/114/4 117/115/4 127/116/4
f 121/117/6 35/118/6 134/108/6 131/107/6
f 172/119/1 175/120/1 163/121/1 137/122/1
f 151/123/2 128/124/2 175/120/2 172/119/2
f 160/125/3 171/126/3 165/127/3 155/128/3
f 153/129/4 144/130/4 139/131/4 148/132/4
f 166/133/1 169/134/1 158/135/1 47/136/1
f 172/137/2 175/138/2 169/134/2 166/133/2
f 174/139/4 162/140/4 157/141/4 168/142/4
f 6/143/7 1/144/7 2/145/7 7/146/7
f 7/147/8 2/148/8 111/15/8 19/18/8
f 3/13/9 8/12/9 9/149/9 5/150/9
f 5/151/10 9/152/10 93/17/10 4/16/10
f 14/153/11 6/143/11 7/154/11 15/155/11
f 15/156/12 7/157/12 19/18/12 142/5/12
f 8/12/13 16/11/13 17/158/13 9/159/13
f 9/160/14 17/161/14 118/6/14 93/17/14
f 10/162/15 14/153/15 15/163/15 11/164/15
f 11/164/16 15/163/16 142/5/16 137/1/16
f 16/11/17 12/14/17 13/165/17 17/166/17
f 17/166/18 13/165/18 163/2/18 118/6/18
f 1/144/19 10/162/19 11/167/19 2/168/19
f 2/169/20 11/170/20 137/1/20 111/4/20
f 12/14/21 3/13/21 5/171/21 13/172/21
f 13/173/22 5/174/22 4/3/22 163/2/22
f 23/7/7 18/10/7 20/175/7 25/176/7
f 25/177/8 20/178/8 19/31/8 24/34/8
f 21/29/9 26/28/9 27/179/9 22/180/9
f 22/181/10 27/182/10 72/33/10 93/32/10
f 32/8/11 23/7/11 25/183/11 33/184/11
f 33/185/12 25/186/12 24/34/12 121/19/12
f 26/28/13 34/27/13 36/187/13 27/188/13
f 27/189/14 36/190/14 35/20/14 72/33/14
f 28/9/15 32/8/15 33/191/15 29/192/15
f 29/192/16 33/191/16 121/19/16 142/22/16
f 34/27/17 30/30/17 31/193/17 36/194/17
f 36/194/18 31/193/18 118/21/18 35/20/18
f 18/10/19 28/9/19 29/195/19 20/196/19
f 20/197/20 29/198/20 142/22/20 19/199/20
f 30/30/21 21/29/21 22/200/21 31/201/21
f 31/202/22 22/203/22 93/204/22 118/21/22
f 42/23/7 37/26/7 39/205/7 43/206/7
f 43/207/8 39/208/8 38/49/8 111/52/8
f 40/47/9 44/46/9 45/209/9 41/210/9
f 41/211/10 45/212/10 4/51/10 108/50/10
f 51/24/11 42/23/11 43/213/11 52/214/11
f 52/215/12 43/216/12 111/52/12 137/39/12
f 44/46/13 53/45/13 54/217/13 45/218/13
f 45/219/14 54/220/14 163/40/14 4/51/14
f 46/25/15 51/24/15 52/221/15 48/222/15
f 48/222/16 52/221/16 137/39/16 47/35/16
f 53/45/17 49/48/17 50/223/17 54/224/17
f 54/224/18 50/223/18 158/36/18 163/40/18
f 37/26/19 46/25/19 48/225/19 39/226/19
f 39/227/20 48/228/20 47/35/20 38/38/20
f 49/48/21 40/47/21 41/229/21 50/230/21
f 50/231/22 41/232/22 108/37/22 158/36/22
f 59/41/7 55/44/7 56/233/7 61/234/7
f 61/235/8 56/236/8 81/65/8 60/68/8
f 57/63/9 62/62/9 64/237/9 58/238/9
f 58/239/10 64/240/10 63/67/10 84/66/10
f 69/42/11 59/41/11 61/241/11 70/242/11
f 70/243/12 61/244/12 60/68/12 24/70/12
f 62/62/13 71/61/13 73/245/13 64/246/13
f 64/247/14 73/248/14 72/69/14 63/67/14
f 65/43/15 69/42/15 70/249/15 66/250/15
f 66/250/16 70/249/16 24/70/16 19/53/16
f 71/61/17 67/64/17 68/251/17 73/252/17
f 73/252/18 68/251/18 93/54/18 72/69/18
f 55/44/19 65/43/19 66/253/19 56/254/19
f 56/255/20 66/256/20 19/53/20 81/56/20
f 67/64/21 57/63/21 58/257/21 68/258/21
f 68/259/22 58/260/22 84/55/22 93/54/22
f 80/57/7 74/60/7 76/261/7 82/262/7
f 82/263/8 76/264/8 75/83/8 81/86/8
f 77/81/9 83/80/9 85/265/9 79/266/9
f 79/267/10 85/268/10 84/85/10 78/84/10
f 90/58/11 80/57/11 82/269/11 91/270/11
f 91/271/12 82/272/12 81/86/12 19/273/12
f 83/80/13 92/79/13 94/274/13 85/275/13
f 85/276/14 94/277/14 93/278/14 84/85/14
f 86/59/15 90/58/15 91/279/15 87/280/15
f 87/280/16 91/279/16 19/273/16 111/71/16
f 92/79/17 88/82/17 89/281/17 94/282/17
f 94/282/18 89/281/18 4/72/18 93/278/18
f 74/60/19 86/59/19 87/283/19 76/284/19
f 76/285/20 87/286/20 111/71/20 75/74/20
f 88/82/21 77/81/21 79/287/21 89/288/21
f 89/289/22 79/290/22 78/73/22 4/72/22
f 101/75/7 95/78/7 97/291/7 102/292/7
f 102/293/8 97/294/8 96/99/8 75/102/8
f 98/97/9 103/96/9 104/295/9 100/296/9
f 100/297/10 104/298/10 78/101/10 99/100/10
f 110/76/11 101/75/11 102/299/11 112/300/11
f 112/301/12 102/302/12 75/102/12 111/303/12
f 103/96/13 113/95/13 114/304/13 104/305/13
f 104/306/14 114/307/14 4/308/14 78/101/14
f 105/77/15 110/76/15 112/309/15 106/310/15
f 106/310/16 112/309/16 111/303/16 38/87/16
f 113/95/17 107/98/17 109/311/17 114/312/17
f 114/312/18 109/311/18 108/88/18 4/308/18
f 95/78/19 105/77/19 106/313/19 97/314/19
f 97/315/20 106/316/20 38/87/20 96/90/20
f 107/98/21 98/97/21 100/317/21 109/318/21
f 109/319/22 100/320/22 99/89/22 108/88/22
f 120/91/7 115/94/7 116/321/7 122/322/7
f 122/323/8 116/324/8 142/325/8 121/117/8
f 117/115/9 123/114/9 124/326/9 119/327/9
f 119/328/10 124/329/10 35/118/10 118/330/10
f 130/92/11 120/91/11 122/331/11 132/332/11
f 132/333/12 122/334/12 121/117/12 131/107/12
f 123/114/13 133/113/13 135/335/13 124/336/13
f 124/337/14 135/338/14 134/108/14 35/118/14
f 125/93/15 130/92/15 132/339/15 126/340/15
f 126/340/16 132/339/16 131/107/16 151/103/16
f 133/113/17 127/116/17 129/341/17 135/342/17
f 135/342/18 129/341/18 128/104/18 134/108/18
f 115/94/19 125/93/19 126/343/19 116/344/19
f 116/345/20 126/346/20 151/103/20 142/106/20
f 127/116/21 117/115/21 119/347/21 129/348/21
f 129/349/22 119/350/22 118/105/22 128/104/22
f 141/109/7 136/112/7 138/351/7 143/352/7
f 143/353/8 138/354/8 137/355/8 142/356/8
f 139/131/9 144/130/9 145/357/9 140/358/9
f 140/359/10 145/360/10 118/361/10 163/362/10
f 150/110/11 141/109/11 143/363/11 152/364/11
f 152/365/12 143/366/12 142/356/12 151/123/12
f 144/130/13 153/129/13 154/367/13 145/368/13
f 145/369/14 154/370/14 128/124/14 118/361/14
f 146/111/15 150/110/15 152/371/15 147/372/15
f 147/372/16 152/371/16 151/123/16 172/119/16
f 153/129/17 148/132/17 149/373/17 154/374/17
f 154/374/18 149/373/18 175/120/18 128/124/18
f 136/112/19 146/111/19 147/375/19 138/376/19
f 138/377/20 147/378/20 172/119/20 137/122/20
f 148/132/21 139/131/21 140/379/21 149/380/21
f 149/381/22 140/382/22 163/121/22 175/120/22
f 160/125/7 155/128/7 156/383/7 161/384/7
f 161/385/8 156/386/8 47/387/8 137/388/8
f 157/141/9 162/140/9 164/389/9 159/390/9
f 159/391/10 164/392/10 163/393/10 158/394/10
f 171/126/11 160/125/11 161/395/11 173/396/11
f 173/397/12 161/398/12 137/388/12 172/137/12
f 162/140/13 174/139/13 176/399/13 164/400/13
f 164/401/14 176/402/14 175/138/14 163/393/14
f 165/127/15 171/126/15 173/403/15 167/404/15
f 167/404/16 173/403/16 172/137/16 166/133/16
f 174/139/17 168/142/17 170/405/17 176/406/17
f 176/406/18 170/405/18 169/134/18 175/138/18
f 155/128/19 165/127/19 167/407/19 156/408/19
f 156/409/20 167/410/20 166/133/20 47/136/20
f 168/142/21 157/141/21 159/411/21 170/412/21
f 170/413/22 159/414/22 158/135/22 169/134/22
f 6/143/3 14/153/3 10/162/3 1/144/3
