# Blender v2.93.5 OBJ File: 'kit.blend'
# www.blender.org
o Bullet_Sphere.005
v 0.000000 0.220971 0.091529
v 0.000000 0.288712 0.192911
v -0.045765 0.110485 0.023788
v -0.084562 0.204150 0.091529
v -0.110485 0.266735 0.192911
v -0.119589 0.288712 0.312500
v -0.084562 0.084562 0.023788
v -0.156250 0.156250 0.091529
v -0.204151 0.204150 0.192911
v -0.220971 0.220971 0.312500
v -0.110485 0.045765 0.023788
v -0.204150 0.084562 0.091529
v -0.266735 0.110485 0.192911
v -0.288712 0.119589 0.312500
v -0.119589 -0.000000 0.023788
v -0.220971 -0.000000 0.091529
v -0.288712 -0.000000 0.192911
v -0.312500 -0.000000 0.312500
v -0.110485 -0.045765 0.023788
v -0.204150 -0.084562 0.091529
v -0.266735 -0.110486 0.192911
v -0.288712 -0.119589 0.312500
v -0.084562 -0.084562 0.023788
v -0.156250 -0.156250 0.091529
v -0.204150 -0.204151 0.192911
v -0.220971 -0.220971 0.312500
v -0.045765 -0.110485 0.023788
v -0.084562 -0.204151 0.091529
v -0.110485 -0.266736 0.192911
v -0.119589 -0.288712 0.312500
v 0.000000 -0.000000 0.000000
v 0.000000 -0.119589 0.023788
v 0.000000 -0.220971 0.091529
v 0.000000 -0.288712 0.192911
v 0.000000 -0.312500 0.312500
v 0.045765 -0.110485 0.023788
v 0.084562 -0.204151 0.091529
v 0.110486 -0.266735 0.192911
v 0.119589 -0.288712 0.312500
v 0.084562 -0.084562 0.023788
v 0.156250 -0.156250 0.091529
v 0.204151 -0.204150 0.192911
v 0.220971 -0.220971 0.312500
v 0.110485 -0.045765 0.023788
v 0.204150 -0.084562 0.091529
v 0.266735 -0.110485 0.192911
v 0.288712 -0.119588 0.312500
v 0.119589 0.000000 0.023788
v 0.220971 0.000000 0.091529
v 0.288712 0.000000 0.192911
v 0.110485 0.045765 0.023788
v 0.204150 0.084562 0.091529
v 0.266735 0.110485 0.192911
v 0.084562 0.084562 0.023788
v 0.156250 0.156250 0.091529
v 0.204150 0.204150 0.192911
v 0.220971 0.220971 0.312500
v 0.045765 0.110485 0.023788
v 0.084562 0.204150 0.091529
v 0.110485 0.266735 0.192911
v -0.000000 0.119589 0.023788
v 0.000000 0.232844 0.493106
v 0.000000 0.312500 0.312500
v -0.089106 0.215120 0.493106
v -0.164646 0.164646 0.493106
v -0.215120 0.089106 0.493106
v -0.232844 -0.000000 0.493106
v -0.215120 -0.089106 0.493106
v -0.164646 -0.164646 0.493106
v -0.089106 -0.215120 0.493106
v 0.000000 -0.232844 0.493106
v 0.089106 -0.215120 0.493106
v 0.164646 -0.164646 0.493106
v 0.215120 -0.089106 0.493106
v 0.232844 0.000000 0.493106
v 0.312500 -0.000000 0.312500
v 0.215120 0.089106 0.493106
v 0.288712 0.119589 0.312500
v 0.164646 0.164646 0.493106
v 0.089106 0.215120 0.493106
v 0.119589 0.288712 0.312500
v 0.000000 0.312500 0.493106
v -0.119589 0.288712 0.493106
v -0.220971 0.220971 0.493106
v -0.288712 0.119589 0.493106
v -0.312500 0.000000 0.493106
v -0.288712 -0.119589 0.493106
v -0.220971 -0.220971 0.493106
v -0.119589 -0.288712 0.493106
v 0.000000 -0.312500 0.493106
v 0.119589 -0.288712 0.493106
v 0.220971 -0.220971 0.493106
v 0.288712 -0.119589 0.493106
v 0.312500 0.000000 0.493106
v 0.288712 0.119589 0.493106
v 0.220971 0.220971 0.493106
v 0.119589 0.288712 0.493106
v 0.000000 0.232844 0.580606
v -0.089106 0.215120 0.580606
v -0.164646 0.164646 0.580606
v -0.215120 0.089106 0.580606
v -0.232844 -0.000000 0.580606
v -0.215120 -0.089106 0.580606
v -0.164646 -0.164646 0.580606
v -0.089106 -0.215120 0.580606
v 0.000000 -0.232844 0.580606
v 0.089106 -0.215120 0.580606
v 0.164646 -0.164646 0.580606
v 0.215120 -0.089106 0.580606
v 0.232844 0.000000 0.580606
v 0.215120 0.089106 0.580606
v 0.164646 0.164646 0.580606
v 0.089106 0.215120 0.580606
v 0.000000 0.312500 0.580606
v -0.119589 0.288712 0.580606
v -0.220971 0.220971 0.580606
v -0.288712 0.119589 0.580606
v -0.312500 0.000000 0.580606
v -0.288712 -0.119589 0.580606
v -0.220971 -0.220971 0.580606
v -0.119589 -0.288712 0.580606
v 0.000000 -0.312500 0.580606
v 0.119589 -0.288712 0.580606
v 0.220971 -0.220971 0.580606
v 0.288712 -0.119589 0.580606
v 0.312500 0.000000 0.580606
v 0.288712 0.119589 0.580606
v 0.220971 0.220971 0.580606
v 0.119589 0.288712 0.580606
v 0.000000 0.000000 0.768106
v 0.000000 0.312500 0.768106
v -0.119589 0.288712 0.768106
v -0.220971 0.220971 0.768106
v -0.288712 0.119589 0.768106
v -0.312500 0.000000 0.768106
v -0.288712 -0.119589 0.768106
v -0.220971 -0.220971 0.768106
v -0.119589 -0.288712 0.768106
v 0.000000 -0.312500 0.768106
v 0.119589 -0.288712 0.768106
v 0.220971 -0.220971 0.768106
v 0.288712 -0.119589 0.768106
v 0.312500 0.000000 0.768106
v 0.288712 0.119589 0.768106
v 0.220971 0.220971 0.768106
v 0.119589 0.288712 0.768106
v 0.000000 0.312500 0.486857
v 0.312500 0.000000 0.486857
v 0.288712 0.119589 0.486857
v 0.119589 0.288712 0.486857
v -0.119589 0.288712 0.486857
v -0.220971 0.220971 0.486857
v -0.288712 0.119589 0.486857
v -0.312500 -0.000000 0.486857
v -0.288712 -0.119589 0.486857
v -0.220971 -0.220971 0.486857
v -0.119589 -0.288712 0.486857
v 0.000000 -0.312500 0.486857
v 0.119589 -0.288712 0.486857
v 0.220971 -0.220971 0.486857
v 0.288712 -0.119589 0.486857
v 0.220971 0.220971 0.486857
v 0.220971 -0.220971 0.585606
v 0.119589 -0.288712 0.585606
v -0.288712 0.119589 0.585606
v -0.220971 0.220971 0.585606
v 0.288712 -0.119589 0.585606
v -0.312500 0.000000 0.585606
v 0.312500 0.000000 0.585606
v -0.288712 -0.119589 0.585606
v 0.288712 0.119589 0.585606
v -0.220971 -0.220971 0.585606
v 0.220971 0.220971 0.585606
v -0.119589 -0.288712 0.585606
v 0.119589 0.288712 0.585606
v 0.000000 -0.312500 0.585606
v -0.119589 0.288712 0.585606
v 0.000000 0.312500 0.585606
v 0.089106 0.215120 0.536856
v 0.164646 0.164646 0.536856
v 0.000000 -0.232844 0.536856
v -0.089106 -0.215120 0.536856
v -0.089106 0.215120 0.536856
v 0.000000 0.232844 0.536856
v 0.089106 -0.215120 0.536856
v -0.164646 0.164646 0.536856
v 0.164646 -0.164646 0.536856
v -0.215120 0.089106 0.536856
v 0.215120 -0.089106 0.536856
v -0.232844 -0.000000 0.536856
v 0.232844 0.000000 0.536856
v -0.215120 -0.089106 0.536856
v 0.215120 0.089106 0.536856
v -0.164646 -0.164646 0.536856
vt 0.168781 0.848389
vt 0.168781 0.867253
vt 0.159349 0.867253
vt 0.159349 0.848389
vt 0.168781 0.886117
vt 0.168781 0.904981
vt 0.159349 0.904981
vt 0.159349 0.886117
vt 0.164065 0.923845
vt 0.149917 0.886117
vt 0.149917 0.867253
vt 0.154633 0.923845
vt 0.149917 0.904981
vt 0.149917 0.848389
vt 0.140485 0.886117
vt 0.140485 0.867253
vt 0.145201 0.923845
vt 0.140485 0.904981
vt 0.140485 0.848389
vt 0.131053 0.867253
vt 0.131053 0.848389
vt 0.131053 0.904981
vt 0.131053 0.886117
vt 0.135769 0.923845
vt 0.121621 0.904981
vt 0.121621 0.886117
vt 0.121621 0.867253
vt 0.126337 0.923845
vt 0.121621 0.848389
vt 0.112189 0.886117
vt 0.112189 0.867253
vt 0.116905 0.923845
vt 0.112189 0.904981
vt 0.112189 0.848389
vt 0.107473 0.923845
vt 0.102757 0.904981
vt 0.102757 0.867253
vt 0.102757 0.848389
vt 0.102757 0.886117
vt 0.093325 0.867253
vt 0.093325 0.848389
vt 0.093325 0.904981
vt 0.093325 0.886117
vt 0.098041 0.923845
vt 0.083893 0.886117
vt 0.083893 0.867253
vt 0.088609 0.923845
vt 0.083893 0.904981
vt 0.083893 0.848389
vt 0.074461 0.886117
vt 0.074461 0.867253
vt 0.079177 0.923845
vt 0.074461 0.904981
vt 0.074461 0.848389
vt 0.065029 0.867253
vt 0.065029 0.848389
vt 0.065029 0.904981
vt 0.065029 0.886117
vt 0.069745 0.923845
vt 0.055597 0.867253
vt 0.055597 0.848389
vt 0.055597 0.904981
vt 0.055597 0.886117
vt 0.060313 0.923845
vt 0.206509 0.867253
vt 0.206509 0.886117
vt 0.197077 0.886117
vt 0.197077 0.867253
vt 0.206509 0.904981
vt 0.201793 0.923845
vt 0.197077 0.904981
vt 0.206509 0.848389
vt 0.197077 0.848389
vt 0.187645 0.886117
vt 0.187645 0.867253
vt 0.192361 0.923845
vt 0.187645 0.904981
vt 0.187645 0.848389
vt 0.178213 0.867253
vt 0.178213 0.848389
vt 0.178213 0.904981
vt 0.178213 0.886117
vt 0.182929 0.923845
vt 0.173497 0.923845
vt 0.206509 0.852162
vt 0.206509 0.923845
vt 0.197077 0.923845
vt 0.197077 0.852162
vt 0.187645 0.923845
vt 0.187645 0.852162
vt 0.178213 0.923845
vt 0.178213 0.852162
vt 0.168781 0.923845
vt 0.168781 0.852162
vt 0.159349 0.923845
vt 0.159349 0.852162
vt 0.149917 0.923845
vt 0.149917 0.852162
vt 0.140485 0.923845
vt 0.140485 0.852162
vt 0.131053 0.923845
vt 0.131053 0.852162
vt 0.121621 0.923845
vt 0.121621 0.852162
vt 0.112189 0.923845
vt 0.112189 0.852162
vt 0.102757 0.923845
vt 0.102757 0.852162
vt 0.093325 0.923845
vt 0.093325 0.852162
vt 0.083893 0.923845
vt 0.083893 0.852162
vt 0.074461 0.923845
vt 0.074461 0.852162
vt 0.065029 0.923845
vt 0.065029 0.852162
vt 0.055597 0.923845
vt 0.055597 0.852162
vt 0.149699 0.829744
vt 0.158454 0.835593
vt 0.158454 0.835593
vt 0.149699 0.829744
vt 0.179109 0.835593
vt 0.168781 0.837648
vt 0.168781 0.846880
vt 0.182642 0.844123
vt 0.187864 0.829744
vt 0.194392 0.836272
vt 0.193714 0.820988
vt 0.202243 0.824521
vt 0.195768 0.810661
vt 0.205000 0.810661
vt 0.193714 0.800334
vt 0.202243 0.796801
vt 0.187864 0.791578
vt 0.194392 0.785050
vt 0.179109 0.785728
vt 0.182642 0.777199
vt 0.168781 0.783674
vt 0.168781 0.774442
vt 0.158454 0.785728
vt 0.154921 0.777199
vt 0.149699 0.791578
vt 0.143171 0.785050
vt 0.143849 0.800334
vt 0.135319 0.796801
vt 0.141795 0.810661
vt 0.132562 0.810661
vt 0.143849 0.820988
vt 0.135319 0.824521
vt 0.149699 0.829744
vt 0.143171 0.836272
vt 0.158454 0.835593
vt 0.154921 0.844123
vt 0.195768 0.810661
vt 0.193714 0.800334
vt 0.193714 0.800334
vt 0.195768 0.810661
vt 0.179109 0.785728
vt 0.168781 0.783674
vt 0.168781 0.783674
vt 0.179109 0.785728
vt 0.168781 0.837648
vt 0.179109 0.835593
vt 0.179109 0.835593
vt 0.168781 0.837648
vt 0.158454 0.785728
vt 0.158454 0.785728
vt 0.187864 0.829744
vt 0.187864 0.829744
vt 0.149699 0.791578
vt 0.149699 0.791578
vt 0.193714 0.820988
vt 0.193714 0.820988
vt 0.143849 0.800334
vt 0.143849 0.800334
vt 0.195768 0.810661
vt 0.141795 0.810661
vt 0.141795 0.810661
vt 0.193714 0.800334
vt 0.143849 0.820988
vt 0.143849 0.820988
vt 0.187864 0.791578
vt 0.187864 0.791578
vt 0.158454 0.785728
vt 0.149699 0.791578
vt 0.149699 0.791578
vt 0.158454 0.785728
vt 0.143849 0.820988
vt 0.141795 0.810661
vt 0.187864 0.791578
vt 0.149699 0.829744
vt 0.179109 0.785728
vt 0.158454 0.835593
vt 0.168781 0.783674
vt 0.179109 0.835593
vt 0.168781 0.837648
vt 0.158454 0.785728
vt 0.187864 0.829744
vt 0.149699 0.791578
vt 0.193714 0.820988
vt 0.143849 0.800334
vt 0.187864 0.829744
vt 0.193714 0.820988
vt 0.193714 0.820988
vt 0.187864 0.829744
vt 0.143849 0.800334
vt 0.143849 0.800334
vt 0.195768 0.810661
vt 0.195768 0.810661
vt 0.141795 0.810661
vt 0.141795 0.810661
vt 0.193714 0.800334
vt 0.193714 0.800334
vt 0.143849 0.820988
vt 0.143849 0.820988
vt 0.187864 0.791578
vt 0.187864 0.791578
vt 0.149699 0.829744
vt 0.149699 0.829744
vt 0.179109 0.785728
vt 0.179109 0.785728
vt 0.158454 0.835593
vt 0.158454 0.835593
vt 0.168781 0.783674
vt 0.168781 0.783674
vt 0.168781 0.837648
vt 0.179109 0.835593
vt 0.179109 0.835593
vt 0.168781 0.837648
vt 0.168781 0.827298
vt 0.175148 0.826032
vt 0.180546 0.822425
vt 0.184152 0.817028
vt 0.185418 0.810661
vt 0.184152 0.804294
vt 0.180546 0.798897
vt 0.175148 0.795290
vt 0.168781 0.794024
vt 0.162415 0.795290
vt 0.157017 0.798897
vt 0.153411 0.804294
vt 0.152144 0.810661
vt 0.153411 0.817028
vt 0.157017 0.822425
vt 0.162415 0.826032
vt 0.065029 0.848389
vt 0.055597 0.848389
vt 0.074461 0.848389
vt 0.083893 0.848389
vt 0.093325 0.848389
vt 0.102757 0.848389
vt 0.112189 0.848389
vt 0.121621 0.848389
vt 0.131053 0.848389
vt 0.140485 0.848389
vt 0.149917 0.848389
vt 0.159349 0.848389
vt 0.168781 0.848389
vt 0.178213 0.848389
vt 0.187645 0.848389
vt 0.197077 0.848389
vt 0.206509 0.848389
vn 0.0000 0.9953 -0.0968
vn 0.0000 0.9273 -0.3743
vn -0.3548 0.8567 -0.3743
vn -0.3809 0.9195 -0.0968
vn 0.0000 0.7188 -0.6952
vn 0.0000 0.4031 -0.9152
vn -0.1542 0.3724 -0.9152
vn -0.2751 0.6641 -0.6952
vn 0.0000 0.0000 -1.0000
vn -0.5083 0.5083 -0.6952
vn -0.6557 0.6557 -0.3743
vn -0.2850 0.2850 -0.9152
vn -0.7038 0.7038 -0.0968
vn -0.6641 0.2751 -0.6952
vn -0.8567 0.3548 -0.3743
vn -0.3724 0.1542 -0.9152
vn -0.9195 0.3809 -0.0968
vn -0.9273 0.0000 -0.3743
vn -0.9953 0.0000 -0.0968
vn -0.4031 0.0000 -0.9152
vn -0.7188 0.0000 -0.6952
vn -0.3724 -0.1542 -0.9152
vn -0.6641 -0.2751 -0.6952
vn -0.8567 -0.3548 -0.3743
vn -0.9195 -0.3809 -0.0968
vn -0.5083 -0.5083 -0.6952
vn -0.6557 -0.6557 -0.3743
vn -0.2850 -0.2850 -0.9152
vn -0.7038 -0.7038 -0.0968
vn -0.1542 -0.3724 -0.9152
vn -0.3548 -0.8567 -0.3743
vn -0.3809 -0.9195 -0.0968
vn -0.2751 -0.6641 -0.6952
vn 0.0000 -0.9273 -0.3743
vn 0.0000 -0.9953 -0.0968
vn 0.0000 -0.4031 -0.9152
vn 0.0000 -0.7188 -0.6952
vn 0.2751 -0.6641 -0.6952
vn 0.3548 -0.8567 -0.3743
vn 0.1542 -0.3724 -0.9152
vn 0.3809 -0.9195 -0.0968
vn 0.5083 -0.5083 -0.6952
vn 0.6557 -0.6557 -0.3743
vn 0.2850 -0.2850 -0.9152
vn 0.7038 -0.7038 -0.0968
vn 0.8567 -0.3548 -0.3743
vn 0.9195 -0.3809 -0.0968
vn 0.3724 -0.1542 -0.9152
vn 0.6641 -0.2751 -0.6952
vn 0.9273 0.0000 -0.3743
vn 0.9953 0.0000 -0.0968
vn 0.4031 0.0000 -0.9152
vn 0.7188 0.0000 -0.6952
vn 0.6641 0.2751 -0.6952
vn 0.8567 0.3548 -0.3743
vn 0.3724 0.1542 -0.9152
vn 0.9195 0.3809 -0.0968
vn 0.5083 0.5083 -0.6952
vn 0.6557 0.6557 -0.3743
vn 0.2850 0.2850 -0.9152
vn 0.7038 0.7038 -0.0968
vn 0.3548 0.8567 -0.3743
vn 0.3809 0.9195 -0.0968
vn 0.1542 0.3724 -0.9152
vn 0.2751 0.6641 -0.6952
vn 0.0000 1.0000 0.0000
vn -0.3827 0.9239 0.0000
vn -0.7071 0.7071 0.0000
vn -0.9239 0.3827 0.0000
vn -1.0000 0.0000 0.0000
vn -0.9239 -0.3827 0.0000
vn -0.7071 -0.7071 0.0000
vn -0.3827 -0.9239 0.0000
vn 0.0000 -1.0000 0.0000
vn 0.3827 -0.9239 0.0000
vn 0.7071 -0.7071 0.0000
vn 0.9239 -0.3827 0.0000
vn 1.0000 0.0000 0.0000
vn 0.9239 0.3827 0.0000
vn 0.7071 0.7071 0.0000
vn 0.3827 0.9239 0.0000
vn 0.2515 0.6071 -0.7537
vn 0.4646 0.4646 -0.7537
vn -0.2515 0.6071 0.7537
vn 0.0000 0.6571 0.7537
vn 0.0000 0.7462 0.6657
vn -0.2855 0.6894 0.6657
vn -0.4646 0.4646 0.7537
vn -0.5276 0.5276 0.6657
vn -0.6071 0.2515 0.7537
vn -0.6894 0.2855 0.6657
vn -0.6571 0.0000 0.7537
vn -0.7462 0.0000 0.6657
vn -0.6071 -0.2515 0.7537
vn -0.6894 -0.2855 0.6657
vn -0.4646 -0.4646 0.7537
vn -0.5276 -0.5276 0.6657
vn -0.2515 -0.6071 0.7537
vn -0.2855 -0.6894 0.6657
vn 0.0000 -0.6571 0.7537
vn 0.0000 -0.7462 0.6657
vn 0.2515 -0.6071 0.7537
vn 0.2855 -0.6894 0.6657
vn 0.4646 -0.4646 0.7537
vn 0.5276 -0.5276 0.6657
vn 0.6071 -0.2515 0.7537
vn 0.6894 -0.2855 0.6657
vn 0.6571 0.0000 0.7537
vn 0.7462 0.0000 0.6657
vn 0.6071 0.2515 0.7537
vn 0.6894 0.2855 0.6657
vn 0.4646 0.4646 0.7537
vn 0.5276 0.5276 0.6657
vn 0.2515 0.6071 0.7537
vn 0.2855 0.6894 0.6657
vn -0.6571 0.0000 -0.7537
vn -0.6071 -0.2515 -0.7537
vn -0.6894 -0.2855 -0.6657
vn -0.7462 0.0000 -0.6657
vn 0.0000 -0.6571 -0.7537
vn -0.2515 -0.6071 -0.7537
vn -0.2515 0.6071 -0.7537
vn 0.0000 0.6571 -0.7537
vn 0.2515 -0.6071 -0.7537
vn -0.4646 0.4646 -0.7537
vn 0.4646 -0.4646 -0.7537
vn -0.6071 0.2515 -0.7537
vn 0.6071 -0.2515 -0.7537
vn 0.6571 0.0000 -0.7537
vn 0.6071 0.2515 -0.7537
vn -0.4646 -0.4646 -0.7537
vn 0.6894 0.2855 -0.6657
vn 0.7462 0.0000 -0.6657
vn -0.5276 -0.5276 -0.6657
vn 0.5276 0.5276 -0.6657
vn -0.2855 -0.6894 -0.6657
vn 0.2855 0.6894 -0.6657
vn 0.0000 -0.7462 -0.6657
vn -0.2855 0.6894 -0.6657
vn 0.0000 0.7462 -0.6657
vn 0.2855 -0.6894 -0.6657
vn -0.5276 0.5276 -0.6657
vn 0.5276 -0.5276 -0.6657
vn -0.6894 0.2855 -0.6657
vn 0.6894 -0.2855 -0.6657
vn 0.0000 0.0000 1.0000
s 1
f 63/1/1 2/2/2 5/3/3 6/4/4
f 1/5/5 61/6/6 3/7/7 4/8/8
f 2/2/2 1/5/5 4/8/8 5/3/3
f 61/6/6 31/9/9 3/7/7
f 5/3/3 4/8/8 8/10/10 9/11/11
f 3/7/7 31/12/9 7/13/12
f 6/4/4 5/3/3 9/11/11 10/14/13
f 4/8/8 3/7/7 7/13/12 8/10/10
f 9/11/11 8/10/10 12/15/14 13/16/15
f 7/13/12 31/17/9 11/18/16
f 10/14/13 9/11/11 13/16/15 14/19/17
f 8/10/10 7/13/12 11/18/16 12/15/14
f 14/19/17 13/16/15 17/20/18 18/21/19
f 12/15/14 11/18/16 15/22/20 16/23/21
f 13/16/15 12/15/14 16/23/21 17/20/18
f 11/18/16 31/24/9 15/22/20
f 16/23/21 15/22/20 19/25/22 20/26/23
f 17/20/18 16/23/21 20/26/23 21/27/24
f 15/22/20 31/28/9 19/25/22
f 18/21/19 17/20/18 21/27/24 22/29/25
f 21/27/24 20/26/23 24/30/26 25/31/27
f 19/25/22 31/32/9 23/33/28
f 22/29/25 21/27/24 25/31/27 26/34/29
f 20/26/23 19/25/22 23/33/28 24/30/26
f 23/33/28 31/35/9 27/36/30
f 26/34/29 25/31/27 29/37/31 30/38/32
f 24/30/26 23/33/28 27/36/30 28/39/33
f 25/31/27 24/30/26 28/39/33 29/37/31
f 30/38/32 29/37/31 34/40/34 35/41/35
f 28/39/33 27/36/30 32/42/36 33/43/37
f 29/37/31 28/39/33 33/43/37 34/40/34
f 27/36/30 31/44/9 32/42/36
f 34/40/34 33/43/37 37/45/38 38/46/39
f 32/42/36 31/47/9 36/48/40
f 35/41/35 34/40/34 38/46/39 39/49/41
f 33/43/37 32/42/36 36/48/40 37/45/38
f 38/46/39 37/45/38 41/50/42 42/51/43
f 36/48/40 31/52/9 40/53/44
f 39/49/41 38/46/39 42/51/43 43/54/45
f 37/45/38 36/48/40 40/53/44 41/50/42
f 43/54/45 42/51/43 46/55/46 47/56/47
f 41/50/42 40/53/44 44/57/48 45/58/49
f 42/51/43 41/50/42 45/58/49 46/55/46
f 40/53/44 31/59/9 44/57/48
f 47/56/47 46/55/46 50/60/50 76/61/51
f 45/58/49 44/57/48 48/62/52 49/63/53
f 46/55/46 45/58/49 49/63/53 50/60/50
f 44/57/48 31/64/9 48/62/52
f 50/65/50 49/66/53 52/67/54 53/68/55
f 48/69/52 31/70/9 51/71/56
f 76/72/51 50/65/50 53/68/55 78/73/57
f 49/66/53 48/69/52 51/71/56 52/67/54
f 53/68/55 52/67/54 55/74/58 56/75/59
f 51/71/56 31/76/9 54/77/60
f 78/73/57 53/68/55 56/75/59 57/78/61
f 52/67/54 51/71/56 54/77/60 55/74/58
f 57/78/61 56/75/59 60/79/62 81/80/63
f 55/74/58 54/77/60 58/81/64 59/82/65
f 56/75/59 55/74/58 59/82/65 60/79/62
f 54/77/60 31/83/9 58/81/64
f 59/82/65 58/81/64 61/6/6 1/5/5
f 60/79/62 59/82/65 1/5/5 2/2/2
f 58/81/64 31/84/9 61/6/6
f 81/80/63 60/79/62 2/2/2 63/1/1
f 147/85/66 63/86/1 6/87/4 151/88/67
f 151/88/67 6/87/4 10/89/13 152/90/68
f 152/90/68 10/89/13 14/91/17 153/92/69
f 153/92/69 14/91/17 18/93/19 154/94/70
f 154/94/70 18/93/19 22/95/25 155/96/71
f 155/96/71 22/95/25 26/97/29 156/98/72
f 156/98/72 26/97/29 30/99/32 157/100/73
f 157/100/73 30/99/32 35/101/35 158/102/74
f 158/102/74 35/101/35 39/103/41 159/104/75
f 159/104/75 39/103/41 43/105/45 160/106/76
f 160/106/76 43/105/45 47/107/47 161/108/77
f 161/108/77 47/107/47 76/109/51 148/110/78
f 148/110/78 76/109/51 78/111/57 149/112/79
f 149/112/79 78/111/57 57/113/61 162/114/80
f 162/114/80 57/113/61 81/115/63 150/116/81
f 150/116/81 81/115/63 63/117/1 147/118/66
f 180/119/80 179/120/81 113/121/82 112/122/83
f 64/123/84 62/124/85 82/125/86 83/126/87
f 65/127/88 64/123/84 83/126/87 84/128/89
f 66/129/90 65/127/88 84/128/89 85/130/91
f 67/131/92 66/129/90 85/130/91 86/132/93
f 68/133/94 67/131/92 86/132/93 87/134/95
f 69/135/96 68/133/94 87/134/95 88/136/97
f 70/137/98 69/135/96 88/136/97 89/138/99
f 71/139/100 70/137/98 89/138/99 90/140/101
f 72/141/102 71/139/100 90/140/101 91/142/103
f 73/143/104 72/141/102 91/142/103 92/144/105
f 74/145/106 73/143/104 92/144/105 93/146/107
f 75/147/108 74/145/106 93/146/107 94/148/109
f 77/149/110 75/147/108 94/148/109 95/150/111
f 79/151/112 77/149/110 95/150/111 96/152/113
f 80/153/114 79/151/112 96/152/113 97/154/115
f 62/124/85 80/153/114 97/154/115 82/125/86
f 102/155/116 103/156/117 119/157/118 118/158/119
f 182/159/73 181/160/74 106/161/120 105/162/121
f 184/163/66 183/164/67 99/165/122 98/166/123
f 179/120/81 184/163/66 98/166/123 113/121/82
f 181/160/74 185/167/75 107/168/124 106/161/120
f 183/164/67 186/169/68 100/170/125 99/165/122
f 185/167/75 187/171/76 108/172/126 107/168/124
f 186/169/68 188/173/69 101/174/127 100/170/125
f 187/171/76 189/175/77 109/176/128 108/172/126
f 188/173/69 190/177/70 102/155/116 101/174/127
f 189/175/77 191/178/78 110/179/129 109/176/128
f 190/177/70 192/180/71 103/156/117 102/155/116
f 191/178/78 193/181/79 111/182/130 110/179/129
f 192/180/71 194/183/72 104/184/131 103/156/117
f 193/181/79 180/119/80 112/122/83 111/182/130
f 194/183/72 182/159/73 105/162/121 104/184/131
f 164/185/75 163/186/76 141/187/105 140/188/103
f 110/179/129 111/182/130 127/189/132 126/190/133
f 103/156/117 104/184/131 120/191/134 119/157/118
f 111/182/130 112/122/83 128/192/135 127/189/132
f 104/184/131 105/162/121 121/193/136 120/191/134
f 112/122/83 113/121/82 129/194/137 128/192/135
f 105/162/121 106/161/120 122/195/138 121/193/136
f 98/166/123 99/165/122 115/196/139 114/197/140
f 113/121/82 98/166/123 114/197/140 129/194/137
f 106/161/120 107/168/124 123/198/141 122/195/138
f 99/165/122 100/170/125 116/199/142 115/196/139
f 107/168/124 108/172/126 124/200/143 123/198/141
f 100/170/125 101/174/127 117/201/144 116/199/142
f 108/172/126 109/176/128 125/202/145 124/200/143
f 101/174/127 102/155/116 118/158/119 117/201/144
f 109/176/128 110/179/129 126/190/133 125/202/145
f 166/203/68 165/204/69 134/205/91 133/206/89
f 163/186/76 167/207/77 142/208/107 141/187/105
f 165/204/69 168/209/70 135/210/93 134/205/91
f 167/207/77 169/211/78 143/212/109 142/208/107
f 168/209/70 170/213/71 136/214/95 135/210/93
f 169/211/78 171/215/79 144/216/111 143/212/109
f 170/213/71 172/217/72 137/218/97 136/214/95
f 171/215/79 173/219/80 145/220/113 144/216/111
f 172/217/72 174/221/73 138/222/99 137/218/97
f 173/219/80 175/223/81 146/224/115 145/220/113
f 174/221/73 176/225/74 139/226/101 138/222/99
f 178/227/66 177/228/67 132/229/87 131/230/86
f 175/223/81 178/227/66 131/230/86 146/224/115
f 176/225/74 164/185/75 140/188/103 139/226/101
f 177/228/67 166/203/68 133/206/89 132/229/87
f 130/231/146 131/230/86 132/229/87
f 130/232/146 132/229/87 133/206/89
f 130/233/146 133/206/89 134/205/91
f 130/234/146 134/205/91 135/210/93
f 130/235/146 135/210/93 136/214/95
f 130/236/146 136/214/95 137/218/97
f 130/237/146 137/218/97 138/222/99
f 130/238/146 138/222/99 139/226/101
f 130/239/146 139/226/101 140/188/103
f 130/240/146 140/188/103 141/187/105
f 130/241/146 141/187/105 142/208/107
f 130/242/146 142/208/107 143/212/109
f 130/243/146 143/212/109 144/216/111
f 130/244/146 144/216/111 145/220/113
f 130/245/146 145/220/113 146/224/115
f 130/246/146 146/224/115 131/230/86
f 97/247/115 150/116/81 147/118/66 82/248/86
f 96/249/113 162/114/80 150/116/81 97/247/115
f 95/250/111 149/112/79 162/114/80 96/249/113
f 94/251/109 148/110/78 149/112/79 95/250/111
f 93/252/107 161/108/77 148/110/78 94/251/109
f 92/253/105 160/106/76 161/108/77 93/252/107
f 91/254/103 159/104/75 160/106/76 92/253/105
f 90/255/101 158/102/74 159/104/75 91/254/103
f 89/256/99 157/100/73 158/102/74 90/255/101
f 88/257/97 156/98/72 157/100/73 89/256/99
f 87/258/95 155/96/71 156/98/72 88/257/97
f 86/259/93 154/94/70 155/96/71 87/258/95
f 85/260/91 153/92/69 154/94/70 86/259/93
f 84/261/89 152/90/68 153/92/69 85/260/91
f 83/262/87 151/88/67 152/90/68 84/261/89
f 82/263/86 147/85/66 151/88/67 83/262/87
f 115/196/139 116/199/142 166/203/68 177/228/67
f 122/195/138 123/198/141 164/185/75 176/225/74
f 129/194/137 114/197/140 178/227/66 175/223/81
f 114/197/140 115/196/139 177/228/67 178/227/66
f 121/193/136 122/195/138 176/225/74 174/221/73
f 128/192/135 129/194/137 175/223/81 173/219/80
f 120/191/134 121/193/136 174/221/73 172/217/72
f 127/189/132 128/192/135 173/219/80 171/215/79
f 119/157/118 120/191/134 172/217/72 170/213/71
f 126/190/133 127/189/132 171/215/79 169/211/78
f 118/158/119 119/157/118 170/213/71 168/209/70
f 125/202/145 126/190/133 169/211/78 167/207/77
f 117/201/144 118/158/119 168/209/70 165/204/69
f 124/200/143 125/202/145 167/207/77 163/186/76
f 116/199/142 117/201/144 165/204/69 166/203/68
f 123/198/141 124/200/143 163/186/76 164/185/75
f 69/135/96 70/137/98 182/159/73 194/183/72
f 77/149/110 79/151/112 180/119/80 193/181/79
f 68/133/94 69/135/96 194/183/72 192/180/71
f 75/147/108 77/149/110 193/181/79 191/178/78
f 67/131/92 68/133/94 192/180/71 190/177/70
f 74/145/106 75/147/108 191/178/78 189/175/77
f 66/129/90 67/131/92 190/177/70 188/173/69
f 73/143/104 74/145/106 189/175/77 187/171/76
f 65/127/88 66/129/90 188/173/69 186/169/68
f 72/141/102 73/143/104 187/171/76 185/167/75
f 64/123/84 65/127/88 186/169/68 183/164/67
f 71/139/100 72/141/102 185/167/75 181/160/74
f 80/153/114 62/124/85 184/163/66 179/120/81
f 62/124/85 64/123/84 183/164/67 184/163/66
f 70/137/98 71/139/100 181/160/74 182/159/73
f 79/151/112 80/153/114 179/120/81 180/119/80
