# Blender v2.93.5 OBJ File: 'kit.blend'
# www.blender.org
o Crate_Cube.007
v 0.299529 0.799614 0.380927
v 0.318974 0.200000 0.380927
v -0.317885 0.200119 0.380927
v -0.281168 0.758639 0.380927
v 0.084811 0.784814 0.380927
v 0.129668 0.787906 0.380927
v -0.125876 0.770291 0.380927
v -0.084333 0.773155 0.380927
v -0.084773 0.200000 0.380927
v -0.125129 0.200000 0.380927
v 0.120867 0.200000 0.380927
v 0.084773 0.200000 0.380927
v 0.318868 0.821816 0.500000
v 0.339793 0.179180 0.500000
v -0.339908 0.180577 0.500000
v -0.302178 0.779266 0.500000
v 0.275399 0.200265 -0.380927
v 0.303545 0.818217 -0.380927
v -0.300000 0.800000 -0.380927
v -0.319630 0.179061 -0.380927
v 0.084773 0.194765 -0.380927
v 0.129736 0.194765 -0.380927
v -0.126414 0.186913 -0.380927
v -0.084773 0.186913 -0.380927
v -0.100477 0.803926 -0.380927
v -0.140833 0.803926 -0.380927
v 0.101237 0.810469 -0.380927
v 0.065143 0.810469 -0.380927
v 0.295886 0.179117 -0.500000
v 0.324693 0.838703 -0.500000
v -0.320820 0.820820 -0.500000
v -0.340450 0.158242 -0.500000
v 0.285524 0.881106 -0.312322
v 0.299811 0.880927 0.292266
v -0.266180 0.880927 0.306852
v -0.298627 0.880927 -0.264053
v 0.084757 0.880927 -0.295763
v 0.129568 0.880927 -0.299459
v -0.125715 0.880927 -0.278404
v -0.084214 0.880927 -0.281827
v -0.084834 0.880927 0.302164
v -0.125177 0.880927 0.303202
v 0.120738 0.880927 0.296874
v 0.084655 0.880927 0.297803
v 0.318294 1.000000 -0.335916
v 0.321160 1.000000 0.312543
v -0.285241 1.000000 0.329293
v -0.322110 1.000000 -0.281815
v 0.300640 0.119073 0.315568
v 0.315759 0.120998 -0.279512
v -0.276790 0.120998 -0.319445
v -0.300344 0.119073 0.284893
v 0.085701 0.119073 0.304429
v 0.130604 0.119073 0.306756
v -0.125203 0.119073 0.293499
v -0.083618 0.119073 0.295654
v -0.089479 0.120998 -0.305493
v -0.131981 0.120998 -0.308218
v 0.127098 0.120998 -0.291608
v 0.089084 0.120998 -0.294045
v 0.320354 -0.000000 0.337437
v 0.339091 -0.004665 -0.300033
v -0.295677 -0.004665 -0.344119
v -0.323503 -0.000000 0.303074
v 0.380927 0.799050 -0.265141
v 0.380927 0.200121 -0.300963
v 0.380927 0.200034 0.296392
v 0.380927 0.803474 0.265390
v 0.380927 0.773515 -0.084038
v 0.380927 0.769580 -0.128829
v 0.380927 0.791999 0.126338
v 0.380927 0.788354 0.084857
v 0.380927 0.200000 0.084773
v 0.380927 0.200000 0.125129
v 0.380927 0.200000 -0.120867
v 0.380927 0.200000 -0.084773
v 0.500000 0.777014 -0.285023
v 0.500000 0.180581 -0.322989
v 0.500000 0.180298 0.318241
v 0.500000 0.826967 0.283138
v -0.380927 0.212124 -0.286579
v -0.380927 0.792373 -0.312989
v -0.380927 0.770239 0.299681
v -0.380927 0.188474 0.299912
v -0.380927 0.203248 -0.084577
v -0.380927 0.204974 -0.129507
v -0.380927 0.194596 0.115951
v -0.380927 0.197442 0.074407
v -0.380927 0.778454 0.091599
v -0.380927 0.775788 0.131867
v -0.380927 0.785423 -0.120913
v -0.380927 0.784121 -0.084842
v -0.500000 0.191179 -0.307272
v -0.500000 0.813018 -0.333981
v -0.500000 0.790293 0.321238
v -0.500000 0.166871 0.319917
v 0.107254 0.194765 -0.359855
v -0.105594 0.186913 -0.359855
v -0.120655 0.803926 -0.359855
v 0.083190 0.810469 -0.359855
v -0.351216 0.204111 -0.107042
v -0.351216 0.196019 0.095179
v -0.351216 0.777121 0.111733
v -0.351216 0.784772 -0.102877
v 0.107163 0.859139 -0.297611
v -0.104965 0.859139 -0.280115
v -0.105006 0.859139 0.302683
v 0.102696 0.859139 0.297338
v 0.107240 0.786360 0.360156
v -0.105104 0.771723 0.360156
v -0.104951 0.200000 0.360156
v 0.102820 0.200000 0.360156
v 0.363933 0.771547 -0.106434
v 0.363933 0.790176 0.105598
v 0.363933 0.200000 0.104951
v 0.363933 0.200000 -0.102820
v 0.108147 0.144920 0.305675
v -0.104415 0.144920 0.294659
v -0.110735 0.146846 -0.306772
v 0.108087 0.146846 -0.292743
v 0.472233 0.031055 0.500000
v 0.478442 -0.000000 0.480492
v 0.500000 0.029119 0.470644
v 0.482278 -0.000514 -0.477976
v 0.468786 0.027391 -0.500000
v 0.500000 0.027642 -0.472904
v 0.500000 0.975385 0.469150
v 0.478256 1.000000 0.477209
v 0.471352 0.971818 0.500000
v -0.500000 0.027044 -0.472737
v -0.472024 0.027747 -0.500000
v -0.476004 -0.000548 -0.481693
v -0.479350 0.000000 0.476959
v -0.473124 0.030315 0.500000
v -0.500000 0.026218 0.471707
v -0.479119 1.000000 -0.474390
v -0.471751 0.971752 -0.500000
v -0.500000 0.968527 -0.472055
v 0.500000 0.973584 -0.474533
v 0.469057 0.971530 -0.500000
v 0.475070 1.000000 -0.477488
v -0.500000 0.967850 0.472594
v -0.473974 0.970960 0.500000
v -0.475800 1.000000 0.480764
vt 0.076333 0.647447
vt 0.076333 0.605671
vt 0.076333 0.610741
vt 0.076333 0.642377
vt 0.177459 0.558599
vt 0.057734 0.558600
vt 0.030163 0.531028
vt 0.205622 0.530437
vt 0.076333 0.570581
vt 0.076333 0.570581
vt 0.076333 0.605058
vt 0.188289 0.648059
vt 0.188289 0.645218
vt 0.188289 0.655233
vt 0.076333 0.648059
vt 0.076333 0.648162
vt 0.816564 0.108132
vt 0.928520 0.108132
vt 0.928520 0.139768
vt 0.816564 0.139768
vt 0.816564 0.067972
vt 0.928520 0.067972
vt 0.928520 0.102449
vt 0.816564 0.102449
vt 0.076333 0.607900
vt 0.076333 0.596712
vt 0.188289 0.570581
vt 0.188289 0.570581
vt 0.928520 0.145450
vt 0.816564 0.145450
vt 0.816564 0.145450
vt 0.928520 0.145450
vt 0.816564 0.145450
vt 0.928520 0.145450
vt 0.928520 0.179927
vt 0.816564 0.179927
vt 0.188289 0.682537
vt 0.076333 0.682537
vt 0.076333 0.682537
vt 0.188289 0.682537
vt 0.057734 0.678325
vt 0.177459 0.678325
vt 0.204992 0.705857
vt 0.029413 0.706646
vt 0.076333 0.651743
vt 0.177459 0.638416
vt 0.177459 0.598508
vt 0.205767 0.589072
vt 0.205265 0.647685
vt 0.188289 0.601375
vt 0.188289 0.605058
vt 0.188289 0.605671
vt 0.188289 0.647447
vt 0.188289 0.642377
vt 0.188289 0.610741
vt 0.816564 0.145450
vt 0.928520 0.145450
vt 0.188289 0.605255
vt 0.177459 0.638416
vt 0.177459 0.598508
vt 0.205493 0.589163
vt 0.205775 0.647855
vt 0.088735 0.633495
vt 0.088735 0.591719
vt 0.088735 0.596789
vt 0.088735 0.628425
vt 0.057734 0.678325
vt 0.177459 0.678325
vt 0.205775 0.706641
vt 0.028261 0.707798
vt 0.088735 0.556629
vt 0.088735 0.556629
vt 0.088735 0.591107
vt 0.815014 0.122083
vt 0.926970 0.122083
vt 0.926970 0.153719
vt 0.815014 0.153719
vt 0.815014 0.081924
vt 0.926970 0.081923
vt 0.926970 0.116401
vt 0.815014 0.116401
vt 0.091835 0.620187
vt 0.203791 0.620187
vt 0.203791 0.620187
vt 0.091835 0.620187
vt 0.088735 0.634108
vt 0.088735 0.634210
vt 0.815014 0.159402
vt 0.926970 0.159402
vt 0.926970 0.193879
vt 0.815014 0.193879
vt 0.200690 0.668585
vt 0.088735 0.668585
vt 0.088735 0.668585
vt 0.200690 0.668585
vt 0.088735 0.637792
vt 0.177459 0.558599
vt 0.057734 0.558600
vt 0.028212 0.529078
vt 0.206966 0.529092
vt 0.200690 0.587423
vt 0.200690 0.591107
vt 0.200690 0.556629
vt 0.200690 0.634108
vt 0.200690 0.591719
vt 0.200690 0.633495
vt 0.200690 0.628425
vt 0.200690 0.596789
vt 0.928520 0.145450
vt 0.816564 0.145450
vt 0.816564 0.145450
vt 0.928520 0.145450
vt 0.177459 0.638416
vt 0.177459 0.598508
vt 0.206966 0.588672
vt 0.207211 0.648333
vt 0.076333 0.647447
vt 0.076333 0.605671
vt 0.076333 0.610741
vt 0.076333 0.642377
vt 0.177459 0.558599
vt 0.057734 0.558600
vt 0.028225 0.529090
vt 0.207125 0.528933
vt 0.076333 0.570581
vt 0.076333 0.570581
vt 0.076333 0.605058
vt 0.188289 0.648059
vt 0.188289 0.645218
vt 0.188289 0.655233
vt 0.076333 0.648059
vt 0.076333 0.648162
vt 0.816564 0.108132
vt 0.928520 0.108132
vt 0.928520 0.139768
vt 0.816564 0.139768
vt 0.816564 0.067972
vt 0.928520 0.067972
vt 0.928520 0.102449
vt 0.816564 0.102449
vt 0.076333 0.607900
vt 0.076333 0.596712
vt 0.188289 0.570581
vt 0.188289 0.570581
vt 0.188289 0.610741
vt 0.188289 0.605058
vt 0.188289 0.605255
vt 0.928520 0.179927
vt 0.816564 0.179927
vt 0.188289 0.682537
vt 0.076333 0.682537
vt 0.076333 0.682537
vt 0.188289 0.682537
vt 0.057734 0.678325
vt 0.177459 0.678325
vt 0.206828 0.707694
vt 0.028887 0.707171
vt 0.076333 0.651743
vt 0.177459 0.638416
vt 0.177459 0.598508
vt 0.205622 0.589120
vt 0.204992 0.647594
vt 0.188289 0.601375
vt 0.188289 0.605058
vt 0.188289 0.605671
vt 0.188289 0.647447
vt 0.188289 0.642377
vt 0.188289 0.610741
vt 0.076333 0.607900
vt 0.188289 0.605255
vt 0.057734 0.598508
vt 0.057734 0.638416
vt 0.029588 0.647798
vt 0.028699 0.588829
vt 0.076333 0.647447
vt 0.076333 0.605671
vt 0.076333 0.610741
vt 0.076333 0.642377
vt 0.177459 0.558599
vt 0.057734 0.558600
vt 0.029056 0.529922
vt 0.205493 0.530566
vt 0.076333 0.570581
vt 0.076333 0.570581
vt 0.076333 0.605058
vt 0.188289 0.648059
vt 0.188289 0.645218
vt 0.188289 0.655233
vt 0.928520 0.145450
vt 0.816564 0.145450
vt 0.816564 0.145450
vt 0.928520 0.145450
vt 0.816564 0.108132
vt 0.928520 0.108132
vt 0.928520 0.139768
vt 0.816564 0.139768
vt 0.816564 0.067972
vt 0.928520 0.067972
vt 0.928520 0.102449
vt 0.816564 0.102449
vt 0.076333 0.607900
vt 0.076333 0.596712
vt 0.188289 0.570581
vt 0.188289 0.570581
vt 0.928520 0.179927
vt 0.816564 0.179927
vt 0.188289 0.682537
vt 0.076333 0.682537
vt 0.076333 0.682537
vt 0.188289 0.682537
vt 0.057734 0.598508
vt 0.057734 0.638416
vt 0.029413 0.647857
vt 0.030163 0.589318
vt 0.076333 0.651743
vt 0.076333 0.648059
vt 0.057734 0.598508
vt 0.057734 0.638416
vt 0.029030 0.647984
vt 0.029553 0.589114
vt 0.188289 0.601375
vt 0.188289 0.605671
vt 0.188289 0.647447
vt 0.188289 0.642377
vt 0.076333 0.607900
vt 0.076333 0.648162
vt 0.057734 0.598508
vt 0.057734 0.638416
vt 0.028312 0.648223
vt 0.028212 0.588667
vt 0.076333 0.647447
vt 0.076333 0.605671
vt 0.076333 0.610741
vt 0.076333 0.642377
vt 0.177459 0.638416
vt 0.177459 0.598508
vt 0.207125 0.588619
vt 0.206828 0.648206
vt 0.076333 0.570581
vt 0.076333 0.570581
vt 0.076333 0.605058
vt 0.188289 0.648059
vt 0.188289 0.645218
vt 0.188289 0.655233
vt 0.076333 0.607900
vt 0.076333 0.596712
vt 0.816564 0.108132
vt 0.928520 0.108132
vt 0.928520 0.139768
vt 0.816564 0.139768
vt 0.816564 0.067972
vt 0.928520 0.067972
vt 0.928520 0.102449
vt 0.816564 0.102449
vt 0.928520 0.145450
vt 0.816564 0.145450
vt 0.816564 0.145450
vt 0.928520 0.145450
vt 0.188289 0.570581
vt 0.188289 0.570581
vt 0.188289 0.645218
vt 0.188289 0.648059
vt 0.188289 0.645218
vt 0.928520 0.179927
vt 0.816564 0.179927
vt 0.188289 0.682537
vt 0.076333 0.682537
vt 0.076333 0.682537
vt 0.188289 0.682537
vt 0.057734 0.678325
vt 0.177459 0.678325
vt 0.207211 0.708076
vt 0.028312 0.707746
vt 0.076333 0.651743
vt 0.076333 0.648059
vt 0.177459 0.638416
vt 0.177459 0.598508
vt 0.205280 0.589234
vt 0.205098 0.647629
vt 0.188289 0.601375
vt 0.188289 0.605058
vt 0.188289 0.605671
vt 0.188289 0.647447
vt 0.188289 0.642377
vt 0.188289 0.610741
vt 0.188289 0.605255
vt 0.076333 0.648162
vt 0.057734 0.598508
vt 0.057734 0.638416
vt 0.028261 0.648241
vt 0.029056 0.588949
vt 0.076333 0.647447
vt 0.076333 0.605671
vt 0.076333 0.610741
vt 0.076333 0.642377
vt 0.057734 0.678325
vt 0.177459 0.678325
vt 0.205265 0.706131
vt 0.029030 0.707029
vt 0.076333 0.570581
vt 0.076333 0.570581
vt 0.076333 0.605058
vt 0.188289 0.655233
vt 0.076333 0.607900
vt 0.816564 0.108132
vt 0.928520 0.108132
vt 0.928520 0.139768
vt 0.816564 0.139768
vt 0.816564 0.067972
vt 0.928520 0.067972
vt 0.928520 0.102449
vt 0.816564 0.102449
vt 0.076333 0.607900
vt 0.076333 0.596712
vt 0.188289 0.570581
vt 0.188289 0.570581
vt 0.188289 0.610741
vt 0.188289 0.605058
vt 0.188289 0.605255
vt 0.816564 0.145450
vt 0.928520 0.145450
vt 0.928520 0.179927
vt 0.816564 0.179927
vt 0.188289 0.682537
vt 0.076333 0.682537
vt 0.076333 0.682537
vt 0.188289 0.682537
vt 0.057734 0.598508
vt 0.057734 0.638416
vt 0.028887 0.648032
vt 0.028225 0.588671
vt 0.076333 0.651743
vt 0.076333 0.648059
vt 0.177459 0.558599
vt 0.057734 0.558600
vt 0.028699 0.529564
vt 0.205280 0.530779
vt 0.188289 0.601375
vt 0.188289 0.605671
vt 0.188289 0.647447
vt 0.188289 0.642377
vt 0.928520 0.102449
vt 0.816564 0.102449
vt 0.076333 0.648162
vt 0.177459 0.558599
vt 0.057734 0.558600
vt 0.029553 0.530419
vt 0.205767 0.530291
vt 0.088735 0.593948
vt 0.088735 0.593948
vt 0.200690 0.631266
vt 0.200690 0.641281
vt 0.200690 0.591303
vt 0.088735 0.582761
vt 0.076333 0.607900
vt 0.928520 0.108132
vt 0.816564 0.108132
vt 0.816564 0.108132
vt 0.928520 0.108132
vt 0.200690 0.591107
vt 0.088735 0.634108
vt 0.816564 0.139768
vt 0.928520 0.139768
vt 0.928520 0.139768
vt 0.816564 0.139768
vt 0.816564 0.102449
vt 0.928520 0.102449
vt 0.928520 0.102449
vt 0.816564 0.102449
vt 0.200690 0.631266
vt 0.076333 0.607900
vt 0.816564 0.145450
vt 0.928520 0.145450
vt 0.816564 0.108132
vt 0.928520 0.108132
vt 0.188289 0.605058
vt 0.076333 0.648059
vt 0.928520 0.139768
vt 0.816564 0.139768
vt 0.816564 0.108132
vt 0.928520 0.108132
vt 0.188289 0.605058
vt 0.076333 0.648059
vt 0.928520 0.139768
vt 0.816564 0.139768
vt 0.928520 0.102449
vt 0.816564 0.102449
vt 0.188289 0.645218
vt 0.816564 0.108132
vt 0.928520 0.108132
vt 0.188289 0.605058
vt 0.076333 0.648059
vt 0.061619 0.634280
vt 0.173574 0.634280
vt 0.173574 0.634280
vt 0.061619 0.634280
vt 0.928520 0.102449
vt 0.816564 0.102449
vt 0.188289 0.645218
vt 0.816564 0.108132
vt 0.928520 0.108132
vt 0.188289 0.605058
vt 0.076333 0.648059
vt 0.928520 0.139768
vt 0.816564 0.139768
vt 0.928520 0.102449
vt 0.816564 0.102449
vt 0.188289 0.645218
vt 0.816564 0.108132
vt 0.928520 0.108132
vt 0.188289 0.605058
vt 0.076333 0.648059
vt 0.928520 0.139768
vt 0.816564 0.139768
vt 0.928520 0.102449
vt 0.816564 0.102449
vt 0.188289 0.645218
vt 0.210893 0.648220
vt 0.207873 0.648554
vt 0.024204 0.648454
vt 0.026545 0.648813
vt 0.028984 0.649588
vt 0.024300 0.648208
vt 0.030054 0.587570
vt 0.024300 0.588856
vt 0.210893 0.588648
vt 0.208175 0.588269
vt 0.210893 0.588662
vt 0.207956 0.588342
vt 0.205385 0.649519
vt 0.210893 0.648010
vt 0.029105 0.587184
vt 0.024300 0.588868
vt 0.029588 0.706471
vt 0.205098 0.705964
vt 0.205459 0.711758
vt 0.028893 0.711758
vt 0.205837 0.711758
vt 0.029778 0.711758
vt 0.029579 0.525166
vt 0.205806 0.525166
vt 0.029514 0.525166
vt 0.205779 0.525166
vt 0.029346 0.525166
vt 0.205020 0.525166
vt 0.030299 0.525166
vt 0.206001 0.525166
vt 0.024300 0.648459
vt 0.205137 0.711758
vt 0.029052 0.711758
vt 0.205964 0.711758
vt 0.029458 0.711758
vt 0.057734 0.678325
vt 0.177459 0.678325
vn 0.0674 -0.9826 0.1733
vn 0.0000 -0.0000 -1.0000
vn 0.0736 -0.9804 0.1828
vn 0.0000 0.9851 0.1722
vn 0.0677 -0.9827 0.1722
vn -0.0000 -0.0000 1.0000
vn 0.0677 -0.9824 0.1743
vn 0.9820 -0.0632 0.1777
vn -0.7331 0.6800 -0.0082
vn -0.9855 -0.0320 0.1664
vn -1.0000 0.0000 0.0000
vn 0.0006 0.9868 0.1621
vn 0.0016 0.9860 0.1666
vn -0.7164 0.0081 0.6977
vn 0.0000 0.9870 0.1610
vn 1.0000 0.0000 -0.0000
vn -0.0351 0.9837 -0.1765
vn -0.0400 0.9854 -0.1653
vn 0.9846 -0.0301 -0.1722
vn 0.0000 0.9915 -0.1303
vn -0.9841 0.0439 -0.1722
vn -0.0371 0.9828 -0.1809
vn -0.0119 -0.9999 0.0030
vn 0.0243 -0.9840 -0.1763
vn 0.0378 -0.9859 -0.1629
vn 0.0296 -0.9830 -0.1814
vn -0.7204 -0.0308 -0.6928
vn 0.0008 -0.9997 -0.0263
vn 0.0826 0.1671 0.9825
vn 0.0000 1.0000 -0.0000
vn 0.0816 0.1628 0.9833
vn -0.0253 0.1722 -0.9847
vn 0.0810 0.1722 0.9817
vn 0.0811 0.1620 0.9835
vn 0.9826 0.1767 -0.0576
vn -0.0627 -0.1978 0.9782
vn -0.0005 1.0000 0.0002
vn -0.9750 0.2219 0.0134
vn 0.0808 0.1725 0.9817
vn -0.0254 0.1812 -0.9831
vn -0.0268 0.1770 -0.9838
vn 0.0822 -0.0000 0.9966
vn -0.0253 0.1814 -0.9831
vn 0.0522 -0.1683 -0.9844
vn 0.0484 -0.1600 -0.9859
vn -0.0630 -0.1722 0.9830
vn -0.7800 -0.6257 0.0003
vn 0.0002 -1.0000 -0.0032
vn 0.0511 -0.1642 -0.9851
vn 0.9846 -0.1702 0.0408
vn -0.9845 -0.1733 -0.0267
vn 0.0510 -0.1722 -0.9837
vn -0.0760 -0.1811 0.9805
vn -0.0669 -0.1857 0.9803
vn 0.0518 0.0032 -0.9987
vn -0.0000 -1.0000 0.0000
vn 0.1744 -0.9809 0.0862
vn 0.1813 -0.9801 0.0809
vn 0.1610 0.9870 0.0000
vn 0.1746 -0.9809 0.0862
vn 0.7657 0.0065 0.6432
vn 0.1646 -0.0521 -0.9850
vn 0.0000 -0.9993 -0.0361
vn 0.1627 -0.0608 0.9848
vn 0.0142 -0.9999 0.0034
vn -0.2113 -0.9554 -0.2065
vn 0.1636 0.9865 -0.0002
vn 0.1621 0.9868 0.0007
vn 0.1621 0.9868 0.0003
vn 0.1632 0.9866 0.0000
vn 0.1743 -0.9809 0.0862
vn -0.1726 0.9843 0.0377
vn -0.1731 0.9844 0.0328
vn -0.1648 -0.9857 -0.0356
vn 0.0688 -0.9976 0.0000
vn -0.1144 0.9911 0.0679
vn -0.1719 0.0009 -0.9851
vn -0.2210 -0.9731 -0.0644
vn -0.1723 0.0435 0.9841
vn -0.1806 0.9825 0.0447
vn -0.1717 -0.9846 -0.0326
vn -0.1646 -0.9857 -0.0357
vn -0.1658 -0.9856 -0.0336
vn -0.5676 0.0230 -0.8230
vn -0.1706 0.9846 0.0378
vn 0.0000 -0.9730 -0.2307
vn 0.0000 -0.9901 -0.1405
vn 0.0000 0.9722 -0.2341
vn 0.0000 -0.9962 0.0875
vn -0.7167 -0.0179 -0.6972
vn 0.7205 0.0256 -0.6929
vn 0.7167 0.0171 -0.6972
vn 0.0000 0.9977 0.0684
vn -0.5633 -0.0091 0.8262
vn -0.5676 -0.0239 0.8229
vn 0.0000 -0.9978 -0.0660
vn 0.0000 0.9993 0.0384
vn -0.5632 0.0028 -0.8263
vn -0.7290 0.6845 -0.0004
vn -0.0257 0.0000 -0.9997
vn 0.7330 0.6802 0.0028
vn 0.7290 0.6846 -0.0003
vn -0.7122 0.0002 0.7020
vn 0.7163 -0.0027 0.6978
vn 0.7122 0.0006 0.7020
vn 0.7692 -0.0004 0.6390
vn 0.7656 -0.0016 -0.6433
vn 0.7692 0.0010 -0.6390
vn -0.7758 -0.6309 0.0058
vn -0.0640 -0.0032 0.9979
vn 0.7802 -0.6256 0.0002
vn 0.7761 -0.6305 -0.0105
vn 0.6875 -0.2827 0.6689
vn 0.6329 -0.2675 -0.7266
vn 0.6597 0.3683 0.6552
vn -0.6503 -0.3461 -0.6763
vn -0.6447 -0.3742 0.6666
vn -0.6681 0.3965 -0.6296
vn 0.5523 0.4422 -0.7067
vn -0.6952 0.3661 0.6186
vn 0.7297 0.0009 0.6838
vn 0.8248 -0.5654 0.0023
vn -0.7696 -0.6385 -0.0014
vn -0.8160 0.5780 0.0016
vn -0.7006 0.0004 -0.7135
vn -0.7250 -0.0007 0.6887
vn -0.0013 -0.5698 0.8218
vn 0.0015 -0.5829 -0.8126
vn 0.7378 0.6750 -0.0019
vn -0.0012 0.6469 -0.7625
vn 0.0012 0.5919 0.8060
vn 0.6457 -0.0008 -0.7636
s off
f 13/1/1 16/2/1 8/3/1 5/4/1
f 31/5/2 32/6/2 131/7/2 137/8/2
f 16/9/3 4/10/3 7/11/3
f 11/12/4 12/13/4 14/14/4
f 5/4/5 6/15/5 13/16/5
f 8/17/6 9/18/6 12/19/6 5/20/6
f 4/21/6 3/22/6 10/23/6 7/24/6
f 7/11/7 8/25/7 16/26/7
f 16/9/8 15/27/8 3/28/8 4/10/8
f 43/29/9 38/30/9 105/31/9 108/32/9
f 6/33/6 11/34/6 2/35/6 1/36/6
f 14/37/10 13/38/10 1/39/10 2/40/10
f 29/41/2 30/42/2 140/43/2 125/44/2
f 13/45/5 6/15/5 1/39/5
f 94/46/11 95/47/11 142/48/11 138/49/11
f 15/50/12 10/51/12 3/28/12
f 14/37/4 2/40/4 11/12/4
f 15/52/13 14/53/13 12/54/13 9/55/13
f 11/34/14 6/33/14 109/56/14 112/57/14
f 9/55/15 10/51/15 15/58/15
f 78/59/16 79/60/16 123/61/16 126/62/16
f 29/63/17 32/64/17 24/65/17 21/66/17
f 77/67/16 78/68/16 126/69/16 139/70/16
f 32/71/18 20/72/18 23/73/18
f 24/74/2 25/75/2 28/76/2 21/77/2
f 20/78/2 19/79/2 26/80/2 23/81/2
f 32/82/19 31/83/19 19/84/19 20/85/19
f 21/66/20 22/86/20 29/87/20
f 22/88/2 27/89/2 18/90/2 17/91/2
f 30/92/21 29/93/21 17/94/21 18/95/21
f 29/96/22 22/86/22 17/94/22
f 63/97/23 64/98/23 133/99/23 132/100/23
f 31/101/24 26/102/24 19/103/24
f 30/92/25 18/95/25 27/104/25
f 31/105/26 30/106/26 28/107/26 25/108/26
f 27/109/27 22/110/27 97/111/27 100/112/27
f 62/113/28 63/114/28 132/115/28 124/116/28
f 45/117/29 48/118/29 40/119/29 37/120/29
f 47/121/30 48/122/30 136/123/30 144/124/30
f 48/125/31 36/126/31 39/127/31
f 43/128/32 44/129/32 46/130/32
f 37/120/33 38/131/33 45/132/33
f 40/133/30 41/134/30 44/135/30 37/136/30
f 36/137/30 35/138/30 42/139/30 39/140/30
f 39/127/34 40/141/34 48/142/34
f 48/125/35 47/143/35 35/144/35 36/126/35
f 57/145/36 58/146/36 63/147/36
f 38/30/37 43/29/37 34/148/37 33/149/37
f 46/150/38 45/151/38 33/152/38 34/153/38
f 45/154/30 46/155/30 128/156/30 141/157/30
f 45/158/39 38/131/39 33/152/39
f 30/159/2 31/160/2 137/161/2 140/162/2
f 47/163/40 42/164/40 35/144/40
f 46/150/32 34/153/32 43/128/32
f 47/165/41 46/166/41 44/167/41 41/168/41
f 40/141/42 39/127/42 106/169/42
f 41/168/43 42/164/43 47/170/43
f 16/171/6 13/172/6 129/173/6 143/174/6
f 61/175/44 64/176/44 56/177/44 53/178/44
f 79/179/16 80/180/16 127/181/16 123/182/16
f 64/183/45 52/184/45 55/185/45
f 59/186/46 60/187/46 62/188/46
f 59/189/47 54/190/47 117/191/47 120/192/47
f 56/193/48 57/194/48 60/195/48 53/196/48
f 52/197/48 51/198/48 58/199/48 55/200/48
f 55/185/49 56/201/49 64/202/49
f 64/183/50 63/203/50 51/204/50 52/184/50
f 54/190/48 59/189/48 50/205/48 49/206/48
f 62/207/51 61/208/51 49/209/51 50/210/51
f 32/211/2 29/212/2 125/213/2 131/214/2
f 61/215/52 54/216/52 49/209/52
f 96/217/11 93/218/11 130/219/11 135/220/11
f 63/221/53 58/146/53 51/204/53
f 62/207/46 50/210/46 59/186/46
f 63/222/54 62/223/54 60/224/54 57/145/54
f 56/201/55 55/185/55 118/225/55
f 53/178/52 54/216/52 61/226/52
f 64/227/56 61/228/56 122/229/56 133/230/56
f 77/231/57 80/232/57 72/233/57 69/234/57
f 46/235/30 47/236/30 144/237/30 128/238/30
f 80/239/58 68/240/58 71/241/58
f 75/242/59 76/243/59 78/244/59
f 71/241/60 72/245/60 80/246/60
f 72/247/16 73/248/16 76/249/16 69/250/16
f 68/251/16 67/252/16 74/253/16 71/254/16
f 75/255/61 70/256/61 113/257/61 116/258/61
f 80/239/62 79/259/62 67/260/62 68/240/62
f 92/261/63 91/262/63 104/263/63
f 70/256/16 75/255/16 66/264/16 65/265/16
f 78/266/64 77/267/64 65/268/64 66/269/64
f 61/270/65 62/271/65 124/272/65 122/273/65
f 77/274/66 70/275/66 65/268/66
f 14/276/6 15/277/6 134/278/6 121/279/6
f 79/280/67 74/281/67 67/260/67
f 78/266/68 66/269/68 75/242/68
f 79/282/69 78/283/69 76/284/69 73/285/69
f 73/285/70 74/281/70 79/286/70
f 69/234/71 70/275/71 77/287/71
f 80/288/16 77/289/16 139/290/16 127/291/16
f 93/292/72 96/293/72 88/294/72 85/295/72
f 93/296/11 94/297/11 138/298/11 130/299/11
f 96/300/73 84/301/73 87/302/73
f 91/262/74 92/261/74 94/303/74
f 8/25/75 7/11/75 110/304/75
f 88/305/11 89/306/11 92/307/11 85/308/11
f 84/309/11 83/310/11 90/311/11 87/312/11
f 87/302/76 88/313/76 96/314/76
f 96/300/77 95/315/77 83/316/77 84/301/77
f 89/317/78 90/318/78 95/319/78
f 86/320/11 91/321/11 82/322/11 81/323/11
f 94/324/79 93/325/79 81/326/79 82/327/79
f 48/328/30 45/329/30 141/330/30 136/331/30
f 93/332/80 86/333/80 81/326/80
f 15/334/6 16/335/6 143/336/6 134/337/6
f 95/338/81 90/318/81 83/316/81
f 94/324/82 82/327/82 91/262/82
f 95/339/83 94/340/83 92/341/83 89/317/83
f 87/312/84 90/311/84 103/342/84 102/343/84
f 85/295/85 86/333/85 93/344/85
f 95/345/11 96/346/11 135/347/11 142/348/11
f 24/349/30 23/73/30 98/350/30
f 27/104/86 28/351/86 30/352/86
f 25/108/87 26/102/87 31/353/87
f 23/73/88 24/349/88 32/354/88
f 72/245/89 71/241/89 114/355/89
f 25/356/90 24/357/90 98/358/90 99/359/90
f 26/102/56 25/108/56 99/360/56
f 22/86/30 21/66/30 97/361/30
f 21/362/91 28/363/91 100/364/91 97/365/91
f 23/366/92 26/367/92 99/368/92 98/369/92
f 28/351/56 27/104/56 100/370/56
f 88/313/93 87/302/93 102/371/93
f 91/321/94 86/320/94 101/372/94 104/373/94
f 89/306/95 88/305/95 102/374/95 103/375/95
f 90/318/96 89/317/96 103/376/96
f 86/333/97 85/295/97 101/377/97
f 85/308/98 92/307/98 104/378/98 101/379/98
f 41/134/99 40/133/99 106/380/99 107/381/99
f 42/164/100 41/168/100 107/382/100
f 38/131/42 37/120/42 105/383/42
f 37/136/101 44/135/101 108/384/101 105/385/101
f 39/140/102 42/139/102 107/386/102 106/387/102
f 44/129/100 43/128/100 108/388/100
f 9/18/103 8/17/103 110/389/103 111/390/103
f 10/51/30 9/55/30 111/391/30
f 6/15/75 5/4/75 109/392/75
f 5/393/104 12/394/104 112/395/104 109/396/104
f 7/24/105 10/23/105 111/397/105 110/398/105
f 12/13/30 11/12/30 112/399/30
f 73/248/106 72/247/106 114/400/106 115/401/106
f 74/281/30 73/285/30 115/402/30
f 70/275/89 69/234/89 113/403/89
f 69/250/107 76/249/107 116/404/107 113/405/107
f 71/254/108 74/253/108 115/406/108 114/407/108
f 76/243/30 75/242/30 116/408/30
f 57/194/109 56/193/109 118/409/109 119/410/109
f 58/146/110 57/145/110 119/411/110
f 54/216/55 53/178/55 117/412/55
f 53/196/111 60/195/111 120/413/111 117/414/111
f 55/200/112 58/199/112 119/415/112 118/416/112
f 60/187/110 59/186/110 120/417/110
f 121/279/113 122/418/113 123/419/113
f 124/420/114 125/213/114 126/421/114
f 127/422/115 128/423/115 129/173/115
f 130/424/116 131/214/116 132/425/116
f 133/426/117 134/278/117 135/427/117
f 136/428/118 137/161/118 138/429/118
f 139/430/119 140/162/119 141/431/119
f 142/432/120 143/174/120 144/433/120
f 129/434/121 121/435/121 123/436/121 127/437/121
f 122/273/122 124/272/122 126/438/122 123/439/122
f 132/100/123 133/99/123 135/440/123 130/441/123
f 138/442/124 142/443/124 144/124/124 136/123/124
f 130/444/125 138/445/125 137/8/125 131/7/125
f 142/446/126 135/447/126 134/337/126 143/336/126
f 133/426/127 122/418/127 121/279/127 134/278/127
f 124/448/128 132/425/128 131/214/128 125/213/128
f 141/157/129 128/156/129 127/449/129 139/450/129
f 140/162/130 137/161/130 136/428/130 141/431/130
f 143/174/131 129/173/131 128/423/131 144/433/131
f 125/44/132 140/43/132 139/451/132 126/452/132
f 13/453/6 14/454/6 121/435/6 129/434/6
