# Blender v2.93.5 OBJ File: 'kit.blend'
# www.blender.org
o CrumblingRockPlatform_Cube.023
v 0.607491 -0.049101 0.293002
v 0.982214 -0.076284 0.114140
v 0.901355 -0.076284 0.227106
v 0.898674 0.005266 0.139765
v 0.380983 -0.061307 -0.323488
v 0.405032 -0.061064 -0.359594
v 0.417141 -0.026170 -0.325742
v 0.996514 -0.065767 -0.375919
v 0.946010 -0.015767 -0.370456
v 0.950223 -0.065767 -0.421079
v 0.610185 -0.260139 0.146625
v 0.853922 -0.311217 0.086429
v 0.499042 -0.215717 -0.225069
v 0.895654 -0.301860 -0.265832
v -0.977569 -0.058273 -0.954325
v -0.955254 -0.058273 -0.975768
v -0.948270 -0.030755 -0.946169
v -0.414293 -0.051565 -0.344898
v -0.716620 -0.068631 -0.938984
v -0.651169 -0.080062 -0.880870
v -0.703227 -0.016225 -0.886099
v -0.908257 -0.065767 -0.460113
v -0.856334 -0.015767 -0.453011
v -0.850877 -0.065767 -0.400889
v -0.886274 -0.281973 -0.879668
v -0.461438 -0.288627 -0.432450
v -0.495363 -0.295188 -0.441823
v -0.474151 -0.287389 -0.416320
v -0.710553 -0.357760 -0.811876
v -0.833534 -0.285724 -0.500745
v -0.304792 -0.049101 0.330424
v -0.570609 -0.065767 0.929469
v -0.599512 -0.065767 0.884886
v -0.541639 -0.015767 0.879028
v 0.157515 -0.049101 0.885324
v 0.176270 -0.074500 0.523029
v 0.235595 -0.074500 0.633811
v 0.162472 0.001698 0.601693
v -0.233950 -0.406099 0.328078
v -0.541981 -0.346675 0.912052
v -0.528430 -0.382496 0.870917
v -0.596069 -0.291789 0.883236
v 0.127357 -0.286659 0.908448
v 0.177127 -0.287805 0.857531
v 0.136184 -0.338303 0.860934
v 0.157648 -0.407017 0.554414
v -0.924184 -0.058604 0.155305
v -0.921906 -0.013597 0.207408
v -0.972084 -0.058228 0.193191
v -0.462989 -0.049101 0.304595
v -0.742630 -0.065767 0.927446
v -0.723946 -0.015767 0.880002
v -0.673989 -0.065767 0.890217
v -0.930896 -0.049101 0.860058
v -0.917485 -0.194928 0.231777
v -0.495539 -0.320945 0.334707
v -0.744981 -0.276730 0.804474
v -0.684802 -0.276730 0.771835
v -0.728600 -0.320566 0.762880
v -0.939239 -0.276730 0.725835
v -0.895558 -0.276730 0.777420
v -0.895313 -0.320566 0.732926
v -0.964884 -0.047706 0.086924
v -0.376334 -0.074149 0.172911
v -0.456838 -0.074149 0.236111
v -0.450744 0.000996 0.161001
v -0.367019 -0.059375 -0.145867
v -0.392024 -0.033342 -0.151220
v -0.388748 -0.059393 -0.177495
v -0.964821 -0.035351 -0.323462
v -0.895337 -0.035351 -0.364378
v -0.908321 0.023401 -0.306971
v -0.919686 -0.312250 0.067053
v -0.574462 -0.376524 0.106393
v -0.560665 -0.423205 -0.247202
v -0.844177 -0.351991 -0.350314
v 0.485990 -0.065767 0.377337
v 0.470547 -0.015767 0.329674
v 0.517167 -0.065767 0.311322
v -0.344282 -0.074252 0.178768
v -0.273512 0.001202 0.207754
v -0.291758 -0.074252 0.282022
v 0.148890 -0.079156 0.482506
v 0.233112 0.011010 0.420487
v 0.315603 -0.079156 0.484791
v -0.243425 -0.052718 -0.169952
v 0.250438 -0.066886 -0.355279
v 0.305494 -0.065248 -0.328100
v 0.265748 -0.021121 -0.312602
v 0.305039 -0.377208 0.243614
v -0.133804 -0.286222 0.153486
v 0.150793 -0.348364 0.300869
v -0.085082 -0.284115 -0.093743
v 0.185155 -0.340367 -0.163880
v 0.867422 -0.066582 -0.928742
v 0.926668 -0.066582 -0.870611
v 0.873085 -0.014137 -0.875257
v 0.962830 -0.065767 -0.596685
v 0.920713 -0.065767 -0.536949
v 0.913751 -0.015767 -0.586572
v 0.804879 -0.451917 -0.806743
v 0.282090 -0.051094 -0.961295
v 0.258729 -0.066743 -0.437006
v 0.218906 -0.067520 -0.476994
v 0.263781 -0.022232 -0.478838
v 0.782721 -0.518402 -0.594130
v 0.424900 -0.350517 -0.878203
v 0.290504 -0.319612 -0.544433
v -0.210760 -0.071719 -0.273812
v -0.279124 -0.071179 -0.299977
v -0.233633 -0.017980 -0.315506
v 0.093163 -0.081280 -0.370897
v 0.090639 0.001641 -0.449011
v 0.165004 -0.080894 -0.474876
v 0.114249 -0.053467 -0.936556
v -0.211906 -0.435883 -0.460136
v -0.550507 -0.084316 -0.902875
v -0.525508 -0.037433 -0.872088
v -0.569987 -0.084419 -0.868381
v 0.024950 -0.357155 -0.479973
v 0.038364 -0.297763 -0.836430
v -0.352421 -0.460531 -0.782524
v 0.955901 -0.327015 0.872244
v 0.930298 -0.352799 0.875405
v 0.932651 -0.327015 0.901095
v 0.994564 -0.078102 0.846909
v 0.916111 -0.078102 0.944260
v 0.908172 0.008902 0.857575
v 0.889733 -0.049101 0.326377
v 0.300061 -0.049101 0.962381
v 0.278591 -0.063154 0.598050
v 0.318167 -0.063154 0.539405
v 0.321016 -0.020994 0.584004
v 0.889733 -0.482434 0.326377
v 0.309880 -0.472049 0.981988
v 0.310773 -0.503205 0.950483
v 0.279534 -0.472049 0.954672
v 0.285689 -0.482842 0.530849
vt 0.412115 0.661213
vt 0.412115 0.661213
vt 0.429509 0.610124
vt 0.429509 0.610124
vt 0.308126 0.709481
vt 0.308126 0.709481
vt 0.308126 0.672198
vt 0.308126 0.672198
vt 0.707735 0.658955
vt 0.707648 0.614264
vt 0.685266 0.605412
vt 0.668251 0.655302
vt 0.438419 0.620305
vt 0.438419 0.620305
vt 0.438419 0.664267
vt 0.438419 0.664267
vt 0.442038 0.676840
vt 0.442038 0.676840
vt 0.400984 0.672949
vt 0.400984 0.672949
vt 0.434588 0.663876
vt 0.395104 0.660223
vt 0.412119 0.610334
vt 0.434501 0.619185
vt 0.314552 0.711996
vt 0.314552 0.711996
vt 0.291961 0.711996
vt 0.291961 0.711996
vt 0.342519 0.622656
vt 0.342519 0.622656
vt 0.319853 0.573423
vt 0.319853 0.573423
vt 0.565749 0.665432
vt 0.565510 0.702901
vt 0.588425 0.702491
vt 0.607832 0.656863
vt 0.341552 0.659437
vt 0.341552 0.659437
vt 0.321016 0.707950
vt 0.321016 0.707950
vt 0.361220 0.648918
vt 0.361220 0.648918
vt 0.407058 0.639244
vt 0.407058 0.639244
vt 0.292602 0.670353
vt 0.334685 0.661785
vt 0.315278 0.707412
vt 0.292363 0.707823
vt 0.379777 0.596521
vt 0.379777 0.596521
vt 0.340775 0.616160
vt 0.340775 0.616160
vt 0.340023 0.627815
vt 0.340023 0.627815
vt 0.298941 0.638547
vt 0.298941 0.638547
vt 0.652418 0.586732
vt 0.651759 0.560607
vt 0.590767 0.560362
vt 0.612125 0.607156
vt 0.379271 0.591654
vt 0.338978 0.612078
vt 0.317620 0.565283
vt 0.378612 0.565529
vt 0.315093 0.560787
vt 0.315093 0.560787
vt 0.378465 0.560787
vt 0.378465 0.560787
vt 0.383028 0.565585
vt 0.383028 0.565585
vt 0.383474 0.589816
vt 0.383474 0.589816
vt 0.287209 0.626351
vt 0.287209 0.626351
vt 0.287209 0.565506
vt 0.287209 0.565506
vt 0.312281 0.631215
vt 0.312281 0.631215
vt 0.353750 0.620382
vt 0.353750 0.620382
vt 0.564735 0.560470
vt 0.564841 0.620160
vt 0.603870 0.610138
vt 0.581258 0.560209
vt 0.291588 0.565391
vt 0.308111 0.565131
vt 0.330723 0.615060
vt 0.291694 0.625081
vt 0.291473 0.560787
vt 0.291473 0.560787
vt 0.306354 0.560787
vt 0.306354 0.560787
vt 0.312474 0.564819
vt 0.312474 0.564819
vt 0.335133 0.614034
vt 0.335133 0.614034
vt 0.287209 0.662808
vt 0.287209 0.662808
vt 0.287209 0.635484
vt 0.287209 0.635484
vt 0.387486 0.596144
vt 0.387486 0.596144
vt 0.406029 0.603368
vt 0.406029 0.603368
vt 0.338177 0.656465
vt 0.338177 0.656465
vt 0.292297 0.666148
vt 0.292297 0.666148
vt 0.564745 0.629621
vt 0.565219 0.656660
vt 0.610649 0.646194
vt 0.606639 0.619578
vt 0.291598 0.634543
vt 0.333492 0.624500
vt 0.337502 0.651115
vt 0.292072 0.661582
vt 0.337912 0.623553
vt 0.337912 0.623553
vt 0.342343 0.649904
vt 0.342343 0.649904
vt 0.411108 0.625960
vt 0.411108 0.625960
vt 0.393605 0.677368
vt 0.393605 0.677367
vt 0.434203 0.711996
vt 0.434203 0.711996
vt 0.386159 0.711996
vt 0.386159 0.711996
vt 0.393191 0.671849
vt 0.393191 0.671849
vt 0.354677 0.664747
vt 0.354677 0.664747
vt 0.677861 0.602417
vt 0.620228 0.646492
vt 0.660287 0.654350
vt 0.404714 0.607339
vt 0.347081 0.651414
vt 0.341674 0.620424
vt 0.383643 0.599321
vt 0.361719 0.617377
vt 0.361719 0.617377
vt 0.400666 0.597765
vt 0.400666 0.597765
vt 0.349915 0.659650
vt 0.349915 0.659650
vt 0.345104 0.631033
vt 0.345104 0.631033
vt 0.438419 0.674334
vt 0.438419 0.674334
vt 0.438419 0.706246
vt 0.438419 0.706246
vt 0.380932 0.709768
vt 0.380932 0.709768
vt 0.371361 0.688668
vt 0.371361 0.688668
vt 0.658270 0.704138
vt 0.707133 0.701794
vt 0.706970 0.668830
vt 0.648588 0.680534
vt 0.385123 0.709060
vt 0.375441 0.685456
vt 0.433823 0.673752
vt 0.433986 0.706716
vt 0.348577 0.656371
vt 0.348577 0.656370
vt 0.384527 0.663000
vt 0.384527 0.663000
vt 0.341834 0.709413
vt 0.341834 0.709413
vt 0.362568 0.660435
vt 0.362568 0.660435
vt 0.438419 0.565129
vt 0.438419 0.565129
vt 0.438419 0.611646
vt 0.438419 0.611646
vt 0.325714 0.707870
vt 0.346645 0.660251
vt 0.383942 0.667380
vt 0.378188 0.707788
vt 0.377727 0.711996
vt 0.377727 0.711996
vt 0.323518 0.711996
vt 0.323518 0.711996
vt 0.598861 0.702948
vt 0.651334 0.702866
vt 0.657088 0.662459
vt 0.619792 0.655330
vt 0.389144 0.668203
vt 0.389143 0.668203
vt 0.382637 0.707772
vt 0.382637 0.707772
vt 0.455414 0.615690
vt 0.455414 0.615690
vt 0.408401 0.597373
vt 0.408401 0.597373
vt 0.386820 0.560787
vt 0.386820 0.560787
vt 0.434539 0.560787
vt 0.434539 0.560787
vt 0.404409 0.592066
vt 0.404409 0.592066
vt 0.403926 0.565797
vt 0.403926 0.565797
vt 0.434338 0.609879
vt 0.387653 0.591959
vt 0.386990 0.564693
vt 0.434477 0.565043
vt 0.707485 0.604957
vt 0.707624 0.560121
vt 0.660136 0.559772
vt 0.660800 0.587037
vt 0.711566 0.615383
vt 0.707648 0.614264
vt 0.708024 0.609686
vt 0.664346 0.655061
vt 0.668251 0.655302
vt 0.666748 0.659414
vt 0.711566 0.659345
vt 0.707802 0.663305
vt 0.707735 0.658955
vt 0.560356 0.703329
vt 0.565510 0.702901
vt 0.565108 0.707075
vt 0.587699 0.707075
vt 0.588425 0.702491
vt 0.594163 0.703028
vt 0.560356 0.666046
vt 0.565465 0.661222
vt 0.565749 0.665432
vt 0.614699 0.654516
vt 0.611303 0.651548
vt 0.588240 0.555865
vt 0.590767 0.560362
vt 0.585617 0.559889
vt 0.652924 0.591600
vt 0.652418 0.586732
vt 0.656621 0.584894
vt 0.588240 0.555865
vt 0.585617 0.559889
vt 0.651611 0.555865
vt 0.656175 0.560664
vt 0.564705 0.625013
vt 0.560356 0.621429
vt 0.564841 0.620160
vt 0.579501 0.555865
vt 0.585621 0.559897
vt 0.581258 0.560209
vt 0.579501 0.555865
vt 0.585621 0.559897
vt 0.560356 0.560585
vt 0.564620 0.555865
vt 0.611059 0.618632
vt 0.606639 0.619578
vt 0.605981 0.614231
vt 0.615489 0.644983
vt 0.611324 0.651543
vt 0.610649 0.646194
vt 0.560356 0.657887
vt 0.565219 0.656660
vt 0.565444 0.661227
vt 0.679176 0.598447
vt 0.681794 0.603813
vt 0.677860 0.602417
vt 0.610868 0.617499
vt 0.613949 0.611225
vt 0.614821 0.615502
vt 0.652896 0.591613
vt 0.660633 0.591222
vt 0.656790 0.594399
vt 0.658955 0.658314
vt 0.660287 0.654350
vt 0.664291 0.655220
vt 0.707350 0.707075
vt 0.707133 0.701794
vt 0.711566 0.701325
vt 0.711566 0.669412
vt 0.706970 0.668830
vt 0.706862 0.663216
vt 0.647386 0.677036
vt 0.648588 0.680534
vt 0.644508 0.683746
vt 0.621723 0.651449
vt 0.619792 0.655330
vt 0.614798 0.654283
vt 0.657673 0.658078
vt 0.662290 0.663282
vt 0.657088 0.662459
vt 0.596665 0.707075
vt 0.594064 0.703261
vt 0.598861 0.702948
vt 0.711566 0.560207
vt 0.707686 0.555865
vt 0.711566 0.560207
vt 0.707624 0.560121
vt 0.707686 0.555865
vt 0.656640 0.585914
vt 0.660800 0.587037
vt 0.660631 0.591221
vt 0.659967 0.555865
vt 0.656156 0.559645
vt 0.685266 0.605412
vt 0.681739 0.603972
vt 0.666748 0.659414
vt 0.711566 0.659345
vt 0.708024 0.609686
vt 0.607832 0.656863
vt 0.611303 0.651548
vt 0.565465 0.661222
vt 0.614699 0.654516
vt 0.560356 0.666046
vt 0.565108 0.707075
vt 0.594163 0.703028
vt 0.651611 0.555865
vt 0.612125 0.607156
vt 0.613922 0.611239
vt 0.651759 0.560607
vt 0.608284 0.609121
vt 0.656621 0.584894
vt 0.656175 0.560664
vt 0.603870 0.610138
vt 0.560356 0.560585
vt 0.564735 0.560470
vt 0.608280 0.609113
vt 0.560356 0.621429
vt 0.564620 0.555865
vt 0.564705 0.625013
vt 0.564745 0.629621
vt 0.560356 0.630563
vt 0.615489 0.644983
vt 0.605981 0.614231
vt 0.565444 0.661227
vt 0.620442 0.651213
vt 0.620228 0.646492
vt 0.652896 0.591613
vt 0.610868 0.617499
vt 0.664291 0.655220
vt 0.679176 0.598447
vt 0.659306 0.707075
vt 0.658270 0.704138
vt 0.433715 0.668138
vt 0.374239 0.681958
vt 0.374239 0.681958
vt 0.433715 0.668138
vt 0.644508 0.683746
vt 0.711566 0.701325
vt 0.706862 0.663216
vt 0.651334 0.702866
vt 0.655784 0.702851
vt 0.657673 0.658078
vt 0.614798 0.654283
vt 0.596665 0.707075
vt 0.711566 0.606724
vt 0.660136 0.559772
vt 0.656156 0.559645
vt 0.707485 0.604957
vt 0.656640 0.585914
vt 0.659967 0.555865
vt 0.660631 0.591221
vt 0.413495 0.606277
vt 0.413495 0.606277
vt 0.434877 0.614608
vt 0.434877 0.614608
vt 0.387140 0.659271
vt 0.656790 0.594399
vt 0.614821 0.615502
vn -0.8951 -0.3345 0.2949
vn -0.9322 -0.3392 0.1259
vn -0.2170 -0.9748 -0.0516
vn 0.9015 -0.4299 0.0498
vn -0.1433 -0.5988 -0.7880
vn -0.0760 0.9970 0.0113
vn 0.1526 -0.3755 -0.9141
vn -0.8597 -0.1061 -0.4996
vn -0.1970 -0.9694 0.1466
vn 0.8783 -0.1656 -0.4486
vn -0.1586 -0.3343 0.9290
vn 0.0287 0.9995 0.0091
vn 0.4327 -0.0052 -0.9015
vn 0.2334 -0.2595 -0.9371
vn 0.0173 -0.9933 0.1144
vn -0.0187 0.9997 0.0156
vn 0.0335 0.0109 0.9994
vn 0.9826 -0.1260 0.1367
vn -0.9917 -0.1282 0.0086
vn -0.2327 -0.2202 0.9473
vn -0.1696 -0.9709 -0.1693
vn 0.0028 1.0000 0.0024
vn -0.2623 -0.4257 0.8660
vn 0.9194 -0.1491 0.3639
vn -0.9603 -0.2677 -0.0788
vn 0.3395 -0.5989 0.7253
vn 0.3461 0.0153 -0.9381
vn -0.2277 -0.9702 0.0824
vn -0.0037 0.9987 0.0514
vn 0.8548 -0.5162 0.0539
vn 0.8158 -0.5079 -0.2765
vn 0.0695 -0.2787 -0.9579
vn -0.3168 -0.4891 -0.8127
vn -0.2103 -0.9773 -0.0265
vn 0.0461 0.9885 -0.1439
vn -0.3936 -0.5869 0.7076
vn -0.7394 -0.6393 -0.2110
vn 0.9364 -0.3432 -0.0733
vn -0.9086 -0.3593 -0.2131
vn -0.3183 -0.9357 -0.1521
vn -0.0355 0.9988 -0.0342
vn 0.2430 -0.4281 0.8705
vn -0.8328 -0.3621 0.4187
vn 0.9866 -0.0615 -0.1509
vn -0.0174 0.9976 -0.0668
vn -0.0162 -0.3376 -0.9412
vn 0.3453 -0.9317 -0.1123
vn 0.9149 -0.3948 -0.0837
vn -0.3348 0.0222 -0.9420
vn 0.0826 -0.0317 0.9961
vn -0.9997 0.0142 0.0190
vn -0.0355 0.9988 -0.0329
vn 0.1445 -0.9843 0.1012
vn 0.6818 0.5451 0.4880
vn -0.6443 0.6358 -0.4249
vn 0.5497 0.6168 -0.5634
vn -0.5020 0.6893 -0.5224
vn 0.6320 0.4645 -0.6204
vn -0.6030 0.5432 0.5842
vn 0.1377 -0.9734 0.1832
vn -0.5831 0.7191 0.3780
vn 0.7402 0.5432 -0.3964
vn -0.7530 -0.5986 0.2732
vn 0.6272 -0.4665 0.6236
vn -0.4479 0.6862 -0.5731
vn 0.3987 0.5485 0.7350
vn 0.3987 -0.5485 0.7350
vn -0.6369 -0.5510 0.5393
vn 0.4973 0.5928 0.6334
vn 0.6830 0.5595 -0.4696
vn -0.4099 0.5895 -0.6960
vn 0.7455 0.5659 0.3521
vn -0.7433 0.5519 0.3781
vn -0.0112 0.5738 0.8189
vn 0.3486 0.5742 -0.7408
vn 0.5866 0.5463 -0.5978
vn 0.6741 0.5655 0.4752
vn -0.5760 0.5936 0.5621
vn -0.3064 0.4987 0.8108
vn 0.7164 0.4898 0.4968
vn -0.6852 0.6182 -0.3851
vn 0.6390 -0.5714 0.5150
vn 0.6390 0.5714 0.5150
vn -0.6957 0.5437 -0.4695
vn -0.5299 -0.6105 0.5887
vn 0.7042 0.7091 0.0359
vn 0.2150 0.7171 0.6630
vn -0.6703 0.7047 0.2323
vn -0.0733 0.7069 -0.7035
vn -0.5892 -0.7036 -0.3972
vn 0.5903 -0.5343 -0.6051
vn 0.7236 -0.4562 0.5179
vn -0.6969 0.7089 0.1084
vn 0.1355 0.6946 -0.7065
vn 0.7381 0.5727 -0.3567
vn -0.1121 0.7112 0.6940
vn 0.1718 -0.9829 0.0663
vn -0.0884 -0.9296 0.3578
vn 0.7183 -0.3622 0.5940
vn -0.6730 -0.3491 0.6521
vn -0.6139 -0.4637 -0.6388
vn 0.6000 -0.3114 -0.7369
vn 0.0271 0.7021 0.7115
vn -0.6380 0.7012 -0.3181
vn 0.2931 0.7119 -0.6382
vn 0.6842 0.7157 0.1401
vn 0.0621 -0.7026 0.7089
vn -0.7624 -0.5154 -0.3912
vn 0.7688 -0.6105 0.1907
vn 0.8777 -0.0935 -0.4700
vn 0.7147 -0.0227 0.6991
vn -0.6866 -0.0707 0.7235
vn 0.1939 0.7382 -0.6461
vn -0.6692 0.7424 0.0312
vn -0.1801 0.7116 0.6791
vn 0.6569 0.7088 0.2569
vn -0.6865 -0.7119 -0.1481
vn -0.1250 -0.7071 0.6960
vn 0.6286 -0.6981 0.3428
vn 0.4234 -0.4597 0.7806
vn -0.7196 -0.3329 0.6094
vn -0.5636 -0.4250 -0.7083
vn 0.7076 0.7045 0.0544
vn -0.1662 0.7038 0.6907
vn -0.7235 0.6900 0.0207
vn 0.2756 0.7014 -0.6573
vn 0.7936 -0.2706 -0.5450
vn 0.5347 -0.5002 0.6811
vn -0.5038 -0.1194 -0.8555
vn -0.2318 0.7038 -0.6715
vn -0.6899 0.7069 -0.1559
vn -0.2854 0.7081 0.6459
vn 0.3232 0.7181 0.6163
vn 0.6771 0.7014 -0.2227
vn -0.0114 -0.5593 0.8289
vn -0.6497 -0.6846 0.3305
vn 0.3714 -0.5903 -0.7167
vn 0.7377 -0.5782 0.3484
vn 0.0578 0.7097 -0.7021
vn 0.7007 0.7072 -0.0947
vn -0.7101 0.7008 -0.0689
vn 0.0846 -0.2385 0.9675
vn -0.6566 -0.3633 0.6610
vn 0.6631 -0.3216 -0.6759
vn 0.7780 -0.3065 0.5485
vn 0.2482 0.6643 0.7051
vn -0.0680 0.5727 -0.8169
vn 0.7359 0.6758 -0.0408
vn -0.6707 0.6653 0.3281
vn 0.7571 -0.3934 0.5216
vn -0.3257 -0.4298 0.8421
vn -0.7408 -0.5244 -0.4199
vn 0.6997 0.7072 -0.1015
vn 0.7120 -0.6934 0.1111
vn 0.0540 0.7072 0.7049
vn -0.7025 0.7116 0.0140
vn -0.2613 0.7097 -0.6542
vn 0.2493 -0.6895 0.6800
vn -0.7056 -0.7085 0.0078
vn -0.6689 0.0189 0.7431
vn -0.8266 0.0753 -0.5578
vn 0.7774 -0.0570 0.6265
vn 0.1152 -0.5458 0.8300
vn -0.0590 0.9982 0.0105
vn -0.1943 -0.9800 -0.0434
vn 0.1090 0.6924 0.7132
s off
f 5/1/1 13/2/1 11/3/1 1/4/1
f 15/5/2 25/6/2 30/7/2 22/8/2
f 14/9/3 12/10/3 11/11/3 13/12/3
f 2/13/4 12/14/4 14/15/4 8/16/4
f 10/17/5 14/18/5 13/19/5 6/20/5
f 9/21/6 7/22/6 1/23/6 4/24/6
f 19/25/7 29/26/7 25/27/7 16/28/7
f 31/29/8 39/30/8 42/31/8 33/32/8
f 30/33/9 25/34/9 29/35/9 27/36/9
f 18/37/10 26/38/10 29/39/10 20/40/10
f 24/41/11 30/42/11 28/43/11 18/44/11
f 23/45/12 18/46/12 21/47/12 17/48/12
f 36/49/13 46/50/13 39/51/13 31/52/13
f 50/53/14 56/54/14 55/55/14 47/56/14
f 46/57/15 45/58/15 41/59/15 39/60/15
f 38/61/16 31/62/16 34/63/16 35/64/16
f 32/65/17 40/66/17 43/67/17 35/68/17
f 35/69/18 44/70/18 46/71/18 37/72/18
f 49/73/19 55/74/19 60/75/19 54/76/19
f 63/77/20 73/78/20 74/79/20 65/80/20
f 62/81/21 55/82/21 56/83/21 59/84/21
f 54/85/22 52/86/22 50/87/22 48/88/22
f 54/89/23 61/90/23 57/91/23 51/92/23
f 53/93/24 58/94/24 56/95/24 50/96/24
f 70/97/25 76/98/25 73/99/25 63/100/25
f 85/101/26 92/102/26 90/103/26 77/104/26
f 69/105/27 75/106/27 76/107/27 71/108/27
f 73/109/28 76/110/28 75/111/28 74/112/28
f 63/113/29 66/114/29 68/115/29 72/116/29
f 64/117/30 74/118/30 75/119/30 67/120/30
f 79/121/31 90/122/31 94/123/31 88/124/31
f 95/125/32 101/126/32 107/127/32 102/128/32
f 87/129/33 94/130/33 93/131/33 86/132/33
f 90/133/34 93/134/34 94/135/34
f 78/136/35 86/137/35 81/138/35 84/139/35
f 82/140/36 91/141/36 92/142/36 83/143/36
f 86/144/37 93/145/37 91/146/37 80/147/37
f 98/148/38 106/149/38 101/150/38 96/151/38
f 102/152/39 107/153/39 108/154/39 104/155/39
f 107/156/40 101/157/40 106/158/40 108/159/40
f 102/160/41 105/161/41 100/162/41 97/163/41
f 109/164/42 116/165/42 120/166/42 112/167/42
f 119/168/43 122/169/43 116/170/43 110/171/43
f 126/172/44 123/173/44 134/174/44 129/175/44
f 118/176/45 111/177/45 113/178/45 115/179/45
f 115/180/46 121/181/46 122/182/46 117/183/46
f 122/184/47 121/185/47 120/186/47 116/187/47
f 114/188/48 120/189/48 121/190/48 115/191/48
f 129/192/49 134/193/49 138/194/49 132/195/49
f 130/196/50 135/197/50 125/198/50 127/199/50
f 131/200/51 138/201/51 137/202/51 130/203/51
f 129/204/52 133/205/52 130/206/52 128/207/52
f 134/208/53 124/209/53 136/210/53 138/211/53
f 2/212/54 4/213/54 3/214/54
f 5/215/55 7/216/55 6/217/55
f 8/218/56 10/219/56 9/220/56
f 15/221/57 17/222/57 16/223/57
f 19/224/58 21/225/58 20/226/58
f 22/227/59 24/228/59 23/229/59
f 26/230/60 28/231/60 27/36/60
f 32/232/61 34/233/61 33/234/61
f 36/235/62 38/236/62 37/237/62
f 40/238/63 42/239/63 41/59/63
f 43/240/64 45/58/64 44/241/64
f 47/242/65 49/243/65 48/244/65
f 51/245/66 53/246/66 52/247/66
f 57/248/67 59/84/67 58/249/67
f 60/250/68 62/81/68 61/251/68
f 64/252/69 66/253/69 65/254/69
f 67/255/70 69/256/70 68/257/70
f 70/258/71 72/259/71 71/260/71
f 77/261/72 79/262/72 78/263/72
f 80/264/73 82/265/73 81/266/73
f 83/267/74 85/268/74 84/269/74
f 87/270/75 89/271/75 88/272/75
f 95/273/76 97/274/76 96/275/76
f 98/276/77 100/277/77 99/278/77
f 103/279/78 105/280/78 104/281/78
f 109/282/79 111/283/79 110/284/79
f 112/285/80 114/286/80 113/287/80
f 117/288/81 119/289/81 118/290/81
f 123/291/82 125/292/82 124/209/82
f 126/293/83 128/294/83 127/295/83
f 131/296/84 133/297/84 132/298/84
f 135/299/85 137/300/85 136/210/85
f 8/218/86 9/220/86 4/213/86 2/212/86
f 1/301/87 3/214/87 4/213/87
f 7/216/88 5/215/88 1/302/88
f 6/217/89 7/216/89 9/220/89 10/219/89
f 5/215/90 6/217/90 13/303/90
f 14/304/91 10/219/91 8/218/91
f 12/305/92 2/212/92 3/214/92
f 22/227/93 23/229/93 17/222/93 15/221/93
f 16/223/94 17/222/94 21/225/94 19/224/94
f 18/306/95 20/226/95 21/225/95
f 18/307/96 23/229/96 24/228/96
f 26/230/97 27/36/97 29/35/97
f 27/36/98 28/231/98 30/308/98
f 18/309/99 28/231/99 26/230/99
f 30/310/100 24/228/100 22/227/100
f 15/221/101 16/223/101 25/311/101
f 29/312/102 19/224/102 20/226/102
f 35/313/103 34/233/103 32/232/103
f 31/314/104 33/234/104 34/233/104
f 38/236/105 36/235/105 31/315/105
f 35/316/106 37/237/106 38/236/106
f 45/58/107 43/240/107 40/238/107 41/59/107
f 39/317/108 41/59/108 42/239/108
f 44/241/109 45/58/109 46/57/109
f 36/235/110 37/237/110 46/318/110
f 43/240/111 44/241/111 35/319/111
f 32/232/112 33/234/112 42/239/112 40/238/112
f 50/320/113 47/242/113 48/244/113
f 54/321/114 48/244/114 49/243/114
f 51/245/115 52/247/115 54/322/115
f 50/323/116 52/247/116 53/246/116
f 62/81/117 60/250/117 55/324/117
f 59/84/118 57/248/118 61/251/118 62/81/118
f 56/83/119 58/249/119 59/84/119
f 53/246/120 51/245/120 57/248/120 58/249/120
f 60/250/121 61/251/121 54/325/121
f 49/243/122 47/242/122 55/326/122
f 66/253/123 64/252/123 67/255/123 68/257/123
f 65/254/124 66/253/124 63/327/124
f 63/328/125 72/259/125 70/258/125
f 68/257/126 69/256/126 71/260/126 72/259/126
f 69/256/127 67/255/127 75/329/127
f 74/330/128 64/252/128 65/254/128
f 70/258/129 71/260/129 76/331/129
f 86/332/130 89/271/130 87/270/130
f 80/264/131 81/266/131 86/333/131
f 83/267/132 84/269/132 81/266/132 82/265/132
f 84/269/133 85/268/133 77/261/133 78/263/133
f 88/272/134 89/271/134 78/263/134 79/262/134
f 85/268/135 83/267/135 92/334/135
f 91/335/136 82/265/136 80/264/136
f 94/336/137 87/270/137 88/272/137
f 79/262/138 77/261/138 90/337/138
f 102/338/139 97/274/139 95/273/139
f 96/275/140 97/274/140 100/277/140 98/276/140
f 104/281/141 105/280/141 102/339/141
f 99/340/142 103/341/142 108/342/142 106/343/142
f 108/344/143 103/279/143 104/281/143
f 101/345/144 95/273/144 96/275/144
f 98/276/145 99/278/145 106/346/145
f 111/283/146 109/282/146 112/285/146 113/287/146
f 117/288/147 118/290/147 115/347/147
f 113/287/148 114/286/148 115/348/148
f 110/284/149 111/283/149 118/290/149 119/289/149
f 114/286/150 112/285/150 120/349/150
f 116/350/151 109/282/151 110/284/151
f 119/289/152 117/288/152 122/351/152
f 129/352/153 128/294/153 126/293/153
f 134/208/154 123/291/154 124/209/154
f 127/295/155 128/294/155 130/353/155
f 130/354/156 133/297/156 131/296/156
f 132/298/157 133/297/157 129/355/157
f 124/209/158 125/292/158 135/299/158 136/210/158
f 136/210/159 137/300/159 138/356/159
f 130/357/160 137/300/160 135/299/160
f 138/358/161 131/296/161 132/298/161
f 126/293/162 127/295/162 125/292/162 123/291/162
f 1/359/163 11/360/163 12/361/163 3/362/163
f 89/363/164 86/137/164 78/136/164
f 92/364/165 91/365/165 93/134/165 90/133/165
f 99/278/166 100/277/166 105/280/166 103/279/166
