# Blender v2.93.5 OBJ File: 'kit.blend'
# www.blender.org
o Detonator_Cube.034
v 0.281093 -0.006100 -0.281093
v 0.281093 -0.006100 0.281093
v -0.281093 -0.006100 -0.281093
v -0.281093 -0.006100 0.281093
v 0.276121 0.385876 -0.276624
v 0.276121 0.385876 0.276624
v -0.276121 0.352541 0.276624
v -0.276121 0.352541 -0.276624
v 0.327178 0.388958 -0.327773
v 0.327773 0.547148 -0.327773
v 0.327773 0.547148 0.327773
v -0.327773 0.547148 0.327773
v -0.327773 0.547148 -0.327773
v 0.327178 0.388958 0.327773
v -0.327178 0.349459 0.327773
v -0.327178 0.349459 -0.327773
v 0.000000 0.314014 0.039542
v -0.000000 0.948391 0.000000
v -0.027960 0.314014 0.027960
v -0.039542 0.314014 -0.000000
v -0.027960 0.314014 -0.027960
v 0.000000 0.314014 -0.039542
v 0.027960 0.314014 -0.027960
v 0.039542 0.314014 0.000000
v 0.027960 0.314014 0.027960
v 0.308817 0.882974 -0.000000
v -0.308817 0.882974 0.000000
v 0.000000 0.921482 0.000000
v 0.000000 0.910203 0.027229
v 0.000000 0.882974 0.038508
v 0.000000 0.855745 0.027229
v 0.000000 0.844467 -0.000000
v 0.000000 0.855745 -0.027229
v 0.000000 0.882974 -0.038508
v 0.000000 0.910203 -0.027229
v -0.308817 0.917989 0.035015
v -0.308817 0.932493 0.000000
v -0.308817 0.882974 0.049519
v -0.308817 0.847959 0.035015
v -0.308817 0.833456 0.000000
v -0.308817 0.847959 -0.035015
v -0.308817 0.882974 -0.049519
v -0.308817 0.917989 -0.035015
v -0.044027 0.948391 0.044027
v -0.000000 0.948391 0.062264
v -0.062264 0.948391 -0.000000
v -0.044027 0.948391 -0.044027
v -0.000000 0.948391 -0.062264
v 0.044027 0.948391 -0.044027
v 0.062264 0.948391 0.000000
v 0.044027 0.948391 0.044027
v 0.308817 0.936230 -0.000000
v 0.308817 0.920632 0.037658
v 0.308817 0.882974 0.053256
v 0.308817 0.845317 0.037658
v 0.308817 0.829718 -0.000000
v 0.308817 0.845317 -0.037658
v 0.308817 0.882974 -0.053256
v 0.308817 0.920632 -0.037658
vt 0.685837 0.651052
vt 0.685837 0.734220
vt 0.665045 0.734220
vt 0.665045 0.651052
vt 0.644253 0.734220
vt 0.644253 0.651052
vt 0.623462 0.734220
vt 0.623462 0.651052
vt 0.602670 0.734220
vt 0.602670 0.651052
vt 0.581878 0.734220
vt 0.581878 0.651052
vt 0.561086 0.734220
vt 0.561086 0.651052
vt 0.540294 0.734220
vt 0.540294 0.651052
vt 0.519502 0.734220
vt 0.519502 0.651052
vt 0.685837 0.706497
vt 0.685837 0.734220
vt 0.665045 0.734220
vt 0.665045 0.706497
vt 0.644253 0.734220
vt 0.644253 0.706497
vt 0.623462 0.734220
vt 0.623462 0.706497
vt 0.602670 0.734220
vt 0.602670 0.706497
vt 0.581878 0.734220
vt 0.581878 0.706497
vt 0.561086 0.734220
vt 0.561086 0.706497
vt 0.540294 0.734220
vt 0.540294 0.706497
vt 0.519502 0.734220
vt 0.519502 0.706497
vt 0.540294 0.651052
vt 0.540294 0.678775
vt 0.519502 0.678775
vt 0.519502 0.651052
vt 0.561086 0.651052
vt 0.561086 0.678775
vt 0.581878 0.651052
vt 0.581878 0.678775
vt 0.602670 0.651052
vt 0.602670 0.678775
vt 0.623462 0.651052
vt 0.623462 0.678775
vt 0.644253 0.651052
vt 0.644253 0.678775
vt 0.665045 0.651052
vt 0.665045 0.678775
vt 0.685837 0.651052
vt 0.685837 0.678775
vt 0.587911 0.601783
vt 0.589314 0.637696
vt 0.561086 0.649389
vt 0.584727 0.609468
vt 0.601006 0.609468
vt 0.587911 0.617153
vt 0.589314 0.581240
vt 0.561086 0.606042
vt 0.561086 0.569548
vt 0.534261 0.617153
vt 0.532858 0.581240
vt 0.537444 0.609468
vt 0.521165 0.609468
vt 0.534261 0.601783
vt 0.532858 0.637696
vt 0.561086 0.612894
vt 0.579435 0.627818
vt 0.589314 0.637696
vt 0.561086 0.649389
vt 0.587036 0.609468
vt 0.601006 0.609468
vt 0.579435 0.591119
vt 0.589314 0.581240
vt 0.561086 0.583518
vt 0.561086 0.569548
vt 0.542737 0.591119
vt 0.532858 0.581240
vt 0.535136 0.609468
vt 0.521165 0.609468
vt 0.542736 0.627818
vt 0.532858 0.637696
vt 0.561086 0.635418
vt 0.644253 0.610421
vt 0.644253 0.649389
vt 0.672482 0.637696
vt 0.670983 0.599349
vt 0.684174 0.609468
vt 0.666792 0.609468
vt 0.672482 0.581240
vt 0.670983 0.619587
vt 0.644253 0.569548
vt 0.644253 0.608515
vt 0.616025 0.581240
vt 0.617524 0.619587
vt 0.604333 0.609468
vt 0.621715 0.609468
vt 0.616025 0.637696
vt 0.617524 0.599349
vt 0.165045 0.401052
vt 0.165045 0.442636
vt 0.123462 0.442636
vt 0.123462 0.401052
vt 0.102670 0.359468
vt 0.102670 0.317884
vt 0.102670 0.317884
vt 0.102670 0.359468
vt 0.102670 0.484220
vt 0.102670 0.442636
vt 0.102670 0.442636
vt 0.102670 0.484220
vt 0.040294 0.401052
vt 0.081878 0.401052
vt 0.081878 0.442636
vt 0.040294 0.442636
vt 0.081878 0.484220
vt 0.102670 0.401052
vt 0.081878 0.359468
vt 0.081878 0.317884
vt 0.123462 0.317884
vt 0.123462 0.359468
vt 0.102670 0.401052
vt 0.123462 0.484220
vn -0.3825 -0.0331 0.9234
vn -0.9234 -0.0331 0.3825
vn -0.9234 -0.0331 -0.3825
vn -0.3825 -0.0331 -0.9234
vn 0.3825 -0.0331 -0.9234
vn 0.9234 -0.0331 -0.3825
vn 0.9234 -0.0331 0.3825
vn 0.3825 -0.0331 0.9234
vn 0.0329 0.9234 0.3825
vn 0.0329 0.3825 0.9234
vn 0.0329 -0.3825 0.9234
vn 0.0329 -0.9234 0.3825
vn 0.0329 -0.9234 -0.3825
vn 0.0329 -0.3825 -0.9234
vn 0.0329 0.3825 -0.9234
vn 0.0329 0.9234 -0.3825
vn -0.0441 0.9230 -0.3823
vn -0.0441 0.3823 -0.9230
vn -0.0441 -0.3823 -0.9230
vn -0.0441 -0.9230 -0.3823
vn -0.0441 -0.9230 0.3823
vn -0.0441 -0.3823 0.9230
vn -0.0441 0.3823 0.9230
vn -0.0441 0.9230 0.3823
vn -1.0000 0.0000 0.0000
vn 0.0000 1.0000 0.0000
vn 1.0000 -0.0000 0.0000
vn 0.0603 -0.9982 0.0000
vn 0.0000 -1.0000 0.0000
vn -0.0004 0.0119 -0.9999
vn -0.9999 0.0139 0.0000
vn -0.0004 0.0119 0.9999
vn 0.9999 0.0127 0.0000
vn 1.0000 -0.0038 0.0000
vn 0.0000 0.0000 1.0000
vn -1.0000 -0.0030 0.0000
vn 0.0000 0.0000 -1.0000
s off
f 17/1/1 45/2/1 44/3/1 19/4/1
f 19/4/2 44/3/2 46/5/2 20/6/2
f 20/6/3 46/5/3 47/7/3 21/8/3
f 21/8/4 47/7/4 48/9/4 22/10/4
f 22/10/5 48/9/5 49/11/5 23/12/5
f 23/12/6 49/11/6 50/13/6 24/14/6
f 24/14/7 50/13/7 51/15/7 25/16/7
f 25/16/8 51/15/8 45/17/8 17/18/8
f 28/19/9 37/20/9 36/21/9 29/22/9
f 29/22/10 36/21/10 38/23/10 30/24/10
f 30/24/11 38/23/11 39/25/11 31/26/11
f 31/26/12 39/25/12 40/27/12 32/28/12
f 32/28/13 40/27/13 41/29/13 33/30/13
f 33/30/14 41/29/14 42/31/14 34/32/14
f 34/32/15 42/31/15 43/33/15 35/34/15
f 35/34/16 43/33/16 37/35/16 28/36/16
f 59/37/17 35/38/17 28/39/17 52/40/17
f 58/41/18 34/42/18 35/38/18 59/37/18
f 57/43/19 33/44/19 34/42/19 58/41/19
f 56/45/20 32/46/20 33/44/20 57/43/20
f 55/47/21 31/48/21 32/46/21 56/45/21
f 54/49/22 30/50/22 31/48/22 55/47/22
f 53/51/23 29/52/23 30/50/23 54/49/23
f 52/53/24 28/54/24 29/52/24 53/51/24
f 27/55/25 36/56/25 37/57/25
f 27/58/25 38/59/25 36/56/25
f 27/60/25 39/61/25 38/59/25
f 27/62/25 40/63/25 39/61/25
f 27/64/25 41/65/25 40/63/25
f 27/66/25 42/67/25 41/65/25
f 27/68/25 43/69/25 42/67/25
f 27/70/25 37/57/25 43/69/25
f 18/71/26 44/72/26 45/73/26
f 18/74/26 46/75/26 44/72/26
f 18/76/26 47/77/26 46/75/26
f 18/78/26 48/79/26 47/77/26
f 18/80/26 49/81/26 48/79/26
f 18/82/26 50/83/26 49/81/26
f 18/84/26 51/85/26 50/83/26
f 18/86/26 45/73/26 51/85/26
f 26/87/27 52/88/27 53/89/27
f 26/90/27 53/89/27 54/91/27
f 26/92/27 54/91/27 55/93/27
f 26/94/27 55/93/27 56/95/27
f 26/96/27 56/95/27 57/97/27
f 26/98/27 57/97/27 58/99/27
f 26/100/27 58/99/27 59/101/27
f 26/102/27 59/101/27 52/88/27
f 11/103/26 10/104/26 13/105/26 12/106/26
f 6/107/28 5/108/28 9/109/28 14/110/28
f 5/111/28 8/112/28 16/113/28 9/114/28
f 2/115/29 4/116/29 3/117/29 1/118/29
f 3/117/30 8/112/30 5/111/30 1/119/30
f 4/116/31 7/120/31 8/112/31 3/117/31
f 2/121/32 6/107/32 7/120/32 4/116/32
f 1/122/33 5/108/33 6/107/33 2/121/33
f 9/109/34 10/123/34 11/124/34 14/110/34
f 14/110/35 11/124/35 12/106/35 15/125/35
f 15/125/36 12/106/36 13/105/36 16/113/36
f 16/113/37 13/105/37 10/126/37 9/114/37
f 8/112/28 7/120/28 15/125/28 16/113/28
f 7/120/28 6/107/28 14/110/28 15/125/28
