# Blender v2.93.5 OBJ File: 'kit.blend'
# www.blender.org
o Dynamite_Sphere.007
v -0.000003 -0.000000 -0.000000
v -0.000003 0.843750 -0.033340
v -0.000003 0.843750 0.033340
v -0.023578 0.843750 0.023575
v -0.033343 0.843750 -0.000000
v -0.023578 0.843750 -0.023575
v 0.023572 0.843750 -0.023575
v 0.033337 0.843750 -0.000000
v 0.023572 0.843750 0.023575
v -0.127704 1.010499 -0.000000
v -0.127704 1.010499 -0.026838
v -0.127704 1.010499 0.026838
v -0.132612 0.992167 0.018978
v -0.134645 0.984574 -0.000000
v -0.132612 0.992167 -0.018978
v -0.122797 1.028831 -0.018978
v -0.120764 1.036425 -0.000000
v -0.122797 1.028831 0.018978
v -0.032973 0.901985 -0.000000
v -0.075870 0.959217 -0.000000
v 0.017046 0.921461 -0.000000
v -0.038267 0.997521 -0.000000
v -0.025648 0.904837 -0.018978
v -0.070364 0.964826 -0.018978
v 0.009721 0.918608 0.018978
v -0.043774 0.991911 0.018978
v -0.007963 0.911723 -0.026838
v -0.057069 0.978369 -0.026838
v -0.057069 0.978369 0.026838
v -0.007963 0.911723 0.026838
v -0.070364 0.964826 0.018978
v -0.025648 0.904837 0.018978
v -0.043774 0.991911 -0.018978
v 0.009721 0.918608 -0.018978
v -0.056194 0.843750 0.056191
v -0.079469 0.843750 -0.000000
v -0.056194 0.843750 -0.056191
v 0.056188 0.843750 -0.056191
v 0.079463 0.843750 -0.000000
v 0.056188 0.843750 0.056191
v -0.000003 0.843750 -0.079466
v -0.000003 0.843750 0.079466
v -0.003882 0.822155 -0.040823
v -0.003882 0.822155 0.025857
v -0.027457 0.822155 0.016092
v -0.037222 0.822155 -0.007483
v -0.027457 0.822155 -0.031058
v 0.019693 0.822155 -0.031058
v 0.029458 0.822155 -0.007483
v 0.019693 0.822155 0.016092
v -0.060073 0.822155 0.048708
v -0.083348 0.822155 -0.007483
v -0.060073 0.822155 -0.063674
v 0.052309 0.822155 -0.063674
v 0.075584 0.822155 -0.007483
v 0.052309 0.822155 0.048708
v -0.003882 0.822155 -0.086949
v -0.003882 0.822155 0.071983
v -0.000003 0.842906 0.125593
v -0.000003 0.843750 0.125547
v -0.000003 -0.000000 0.125467
v -0.000003 0.000844 0.125593
v -0.088778 0.843750 0.088775
v -0.088810 0.842906 0.088807
v -0.125549 0.843750 -0.000000
v -0.125596 0.842906 -0.000000
v -0.088722 -0.000000 0.088719
v -0.088810 0.000844 0.088807
v -0.125470 -0.000000 -0.000000
v -0.125596 0.000844 -0.000000
v -0.088810 0.842906 -0.088807
v -0.088778 0.843750 -0.088775
v -0.000003 0.843750 -0.125547
v -0.000003 0.842906 -0.125593
v -0.088721 -0.000000 -0.088719
v -0.088810 0.000844 -0.088807
v -0.000003 0.000844 -0.125593
v -0.000003 -0.000000 -0.125467
v 0.088772 0.843750 -0.088775
v 0.088805 0.842906 -0.088807
v 0.125544 0.843750 0.000000
v 0.125590 0.842906 0.000000
v 0.088716 -0.000000 -0.088719
v 0.088805 0.000844 -0.088807
v 0.125590 0.000844 0.000000
v 0.125464 -0.000000 0.000000
v 0.088772 0.843750 0.088775
v 0.088804 0.842906 0.088807
v 0.088804 0.000844 0.088807
v 0.088716 -0.000000 0.088719
vt 0.164410 0.631594
vt 0.163515 0.630446
vt 0.163515 0.630446
vt 0.164410 0.631594
vt 0.116112 0.622863
vt 0.117697 0.622930
vt 0.117697 0.622930
vt 0.116112 0.622863
vt 0.117595 0.632763
vt 0.115984 0.632783
vt 0.115984 0.632783
vt 0.117595 0.632763
vt 0.163596 0.625063
vt 0.164547 0.623988
vt 0.164547 0.623988
vt 0.163596 0.625063
vt 0.119372 0.632356
vt 0.119372 0.632356
vt 0.162999 0.626351
vt 0.162999 0.626351
vt 0.162907 0.629152
vt 0.162907 0.629152
vt 0.125201 0.346056
vt 0.123302 0.348204
vt 0.125201 0.346056
vt 0.122107 0.350779
vt 0.123300 0.348206
vt 0.130389 0.363646
vt 0.133608 0.363605
vt 0.130389 0.363646
vt 0.123141 0.358970
vt 0.125145 0.357654
vt 0.126486 0.359377
vt 0.124929 0.361266
vt 0.133611 0.363602
vt 0.132999 0.361130
vt 0.135665 0.360520
vt 0.137164 0.362789
vt 0.133814 0.343942
vt 0.133152 0.346381
vt 0.130775 0.346280
vt 0.130646 0.343808
vt 0.137165 0.344973
vt 0.133818 0.343941
vt 0.137165 0.344973
vt 0.130649 0.343805
vt 0.133815 0.343940
vt 0.135664 0.347156
vt 0.135664 0.347156
vt 0.133152 0.346381
vt 0.162907 0.629152
vt 0.163515 0.630446
vt 0.163515 0.630446
vt 0.162907 0.629152
vt 0.125203 0.346058
vt 0.126692 0.347968
vt 0.125266 0.349581
vt 0.123302 0.348207
vt 0.130389 0.363646
vt 0.133611 0.363605
vt 0.133611 0.363605
vt 0.130389 0.363646
vt 0.164410 0.631594
vt 0.164410 0.631594
vt 0.132999 0.361130
vt 0.135665 0.360520
vt 0.137164 0.344975
vt 0.137162 0.362792
vt 0.133611 0.363605
vt 0.115984 0.632783
vt 0.117595 0.632763
vt 0.117595 0.632763
vt 0.115984 0.632783
vt 0.130582 0.361160
vt 0.130582 0.361160
vt 0.130389 0.363643
vt 0.121921 0.356383
vt 0.123138 0.358968
vt 0.121921 0.356383
vt 0.119372 0.623447
vt 0.117697 0.622930
vt 0.117697 0.622930
vt 0.119372 0.623447
vt 0.125145 0.357654
vt 0.126486 0.359377
vt 0.123300 0.348206
vt 0.122106 0.350781
vt 0.122106 0.350781
vt 0.123300 0.348206
vt 0.167527 0.627813
vt 0.116371 0.627813
vt 0.119372 0.623447
vt 0.119372 0.623447
vt 0.117697 0.622930
vt 0.119372 0.623447
vt 0.162907 0.629152
vt 0.163515 0.630446
vt 0.162999 0.626351
vt 0.163596 0.625063
vt 0.163596 0.625063
vt 0.162999 0.626351
vt 0.119372 0.632356
vt 0.117595 0.632763
vt 0.119372 0.632356
vt 0.164547 0.623988
vt 0.164547 0.623988
vt 0.115984 0.632783
vt 0.116112 0.622863
vt 0.116112 0.622863
vt 0.164410 0.631594
vt 0.124370 0.351512
vt 0.122108 0.350782
vt 0.123139 0.358971
vt 0.124927 0.361268
vt 0.124927 0.361268
vt 0.123139 0.358971
vt 0.124926 0.361265
vt 0.123139 0.358971
vt 0.137165 0.362791
vt 0.137165 0.362791
vt 0.137165 0.344973
vt 0.133815 0.343940
vt 0.133815 0.343940
vt 0.137165 0.344973
vt 0.130645 0.343805
vt 0.130645 0.343805
vt 0.125201 0.346056
vt 0.125201 0.346056
vt 0.121921 0.356383
vt 0.121921 0.356383
vt 0.877219 0.601534
vt 0.879184 0.602908
vt 0.878587 0.604196
vt 0.876323 0.603465
vt 0.878645 0.599921
vt 0.880135 0.601833
vt 0.885105 0.598334
vt 0.884441 0.600775
vt 0.882857 0.600708
vt 0.882728 0.598233
vt 0.887617 0.599109
vt 0.886117 0.601292
vt 0.884952 0.613083
vt 0.884340 0.610608
vt 0.886117 0.610201
vt 0.887618 0.612473
vt 0.882535 0.613113
vt 0.882729 0.610628
vt 0.877098 0.609607
vt 0.879104 0.608291
vt 0.879998 0.609439
vt 0.878439 0.611330
vt 0.876184 0.607666
vt 0.878495 0.606997
vt 0.162999 0.626351
vt 0.163596 0.625063
vt 0.119372 0.632356
vt 0.130775 0.346280
vt 0.126692 0.347968
vt 0.125266 0.349581
vt 0.164547 0.623988
vt 0.124370 0.351512
vt 0.124231 0.355713
vt 0.124231 0.355713
vt 0.116112 0.622863
vt 0.121923 0.356382
vn -0.6156 -0.7880 0.0000
vn -0.4183 -0.5265 0.7401
vn -0.7803 -0.3250 0.5343
vn -0.8496 -0.5273 0.0000
vn 0.6406 0.7678 0.0000
vn 0.4668 0.5673 -0.6784
vn -0.4070 0.7261 -0.5542
vn -0.3283 0.9445 0.0000
vn -0.4183 -0.5265 -0.7401
vn -0.7803 -0.3250 -0.5343
vn 0.4668 0.5673 0.6784
vn -0.4070 0.7261 0.5542
vn 0.0355 0.0507 -0.9981
vn -0.5982 0.1928 -0.7777
vn 0.0355 0.0507 0.9981
vn -0.5982 0.1928 0.7777
vn 0.7287 -0.6849 0.0000
vn 0.5152 -0.6849 0.5152
vn 0.0000 -1.0000 0.0000
vn 0.0000 -0.6849 0.7287
vn -0.7287 -0.6849 0.0000
vn -0.5152 -0.6849 -0.5152
vn -0.5369 0.6506 0.5369
vn 0.3486 0.8422 -0.4113
vn 0.6486 0.7591 -0.0552
vn -0.7594 0.6507 0.0000
vn -0.5369 0.6506 -0.5369
vn 0.5283 0.6885 0.4969
vn -0.0331 0.6984 0.7149
vn 0.0000 0.6507 -0.7594
vn 0.5369 0.6506 -0.5369
vn -0.4811 0.7790 0.4020
vn -0.5166 0.8553 -0.0389
vn 0.7594 0.6506 0.0000
vn 0.0000 -0.6849 -0.7287
vn 0.5152 -0.6849 -0.5152
vn 0.0317 0.4993 0.8658
vn -0.5296 0.5735 0.6250
vn 0.0247 -0.1144 0.9931
vn -0.6753 -0.0586 0.7351
vn -0.3160 0.8889 -0.3315
vn 0.5369 0.6506 0.5369
vn -0.9996 0.0271 0.0000
vn -0.7068 0.0271 -0.7068
vn -0.7052 -0.0725 -0.7052
vn -0.9973 -0.0725 0.0000
vn -0.9962 0.0762 0.0428
vn 0.6008 0.4917 0.6302
vn -0.7027 0.1968 -0.6837
vn 0.8313 0.5523 0.0625
vn -0.5152 -0.6849 0.5152
vn 0.0300 0.2167 -0.9758
vn 0.7378 0.1278 -0.6627
vn -0.0171 0.8850 -0.4651
vn 0.5759 0.6608 -0.4812
vn 0.7068 0.0271 0.7068
vn 0.0000 0.0271 0.9996
vn 0.0000 -0.0725 0.9973
vn 0.7052 -0.0725 0.7052
vn -0.9660 0.2586 0.0000
vn 0.0495 0.0702 -0.9963
vn 0.6693 0.3091 -0.6756
vn 0.0495 0.0702 0.9963
vn -0.6350 -0.1916 0.7483
vn 0.7019 -0.0865 0.7070
vn 0.6693 0.3091 0.6756
vn -0.6350 -0.1916 -0.7483
vn 0.9993 0.0021 0.0376
vn 0.9147 0.4040 0.0000
vn -0.9503 -0.3111 0.0000
vn 0.0000 0.6507 0.7594
vn -0.7068 0.0271 0.7068
vn -0.7052 -0.0725 0.7052
vn 0.0000 0.0271 -0.9996
vn 0.0000 -0.0725 -0.9973
vn 0.7068 0.0271 -0.7068
vn 0.7052 -0.0725 -0.7052
vn 0.9996 0.0271 0.0000
vn 0.9973 -0.0725 0.0000
vn -0.4759 0.7570 -0.4476
vn 0.0307 0.7477 -0.6633
vn -0.7263 0.6845 0.0618
s 1
f 20/1/1 31/2/2 13/3/3 14/4/4
f 22/5/5 33/6/6 16/7/7 17/8/8
f 24/9/9 20/10/1 14/11/4 15/12/10
f 26/13/11 22/14/5 17/15/8 18/16/12
f 28/17/13 24/9/9 15/12/10 11/18/14
f 29/19/15 26/13/11 18/16/12 12/20/16
f 31/2/2 29/21/15 12/22/16 13/3/3
f 86/23/17 90/24/18 1/25/19
f 90/24/18 61/26/20 1/27/19
f 69/28/21 75/29/22 1/30/19
f 63/31/23 35/32/24 36/33/25 65/34/26
f 72/35/27 37/36/28 41/37/29 73/38/30
f 79/39/31 38/40/32 39/41/33 81/42/34
f 78/43/35 83/44/36 1/45/19
f 83/44/36 86/46/17 1/47/19
f 38/40/32 41/48/29 57/49/37 54/50/38
f 3/51/39 4/52/40 45/53/32 44/54/29
f 81/55/34 39/56/33 40/57/41 87/58/42
f 66/59/43 71/60/44 76/61/45 70/62/46
f 4/52/40 5/63/47 46/64/33 45/53/32
f 41/37/29 37/36/28 53/65/48 57/66/37
f 73/67/30 41/48/29 38/40/32 79/39/31
f 75/29/22 78/68/35 1/69/19
f 5/70/47 6/71/49 47/72/41 46/73/33
f 37/36/28 36/74/25 52/75/50 53/65/48
f 65/76/26 36/74/25 37/36/28 72/35/27
f 61/77/20 67/78/51 1/79/19
f 2/80/52 7/81/53 48/82/24 43/83/54
f 36/33/25 35/32/24 51/84/55 52/85/50
f 88/86/56 59/87/57 62/88/58 89/89/59
f 12/22/16 10/90/60 13/3/3
f 13/3/3 10/90/60 14/4/4
f 14/11/4 10/91/60 15/12/10
f 15/12/10 10/91/60 11/18/14
f 11/92/14 10/91/60 16/7/7
f 16/7/7 10/91/60 17/8/8
f 17/15/8 10/90/60 18/16/12
f 18/16/12 10/90/60 12/20/16
f 7/81/53 2/80/52 27/93/61 34/94/62
f 34/94/62 27/93/61 28/95/13 33/6/6
f 4/52/40 3/51/39 30/96/63 32/97/64
f 32/97/64 30/96/63 29/21/15 31/2/2
f 3/98/39 9/99/65 25/100/66 30/101/63
f 30/101/63 25/100/66 26/13/11 29/19/15
f 2/102/52 6/71/49 23/103/67 27/104/61
f 27/104/61 23/103/67 24/9/9 28/17/13
f 9/99/65 8/105/68 21/106/69 25/100/66
f 25/100/66 21/106/69 22/14/5 26/13/11
f 6/71/49 5/70/47 19/107/70 23/103/67
f 23/103/67 19/107/70 20/10/1 24/9/9
f 8/108/68 7/81/53 34/94/62 21/109/69
f 21/109/69 34/94/62 33/6/6 22/5/5
f 5/63/47 4/52/40 32/97/64 19/110/70
f 19/110/70 32/97/64 31/2/2 20/1/1
f 33/6/6 28/95/13 11/92/14 16/7/7
f 87/58/42 40/57/41 42/111/54 60/112/71
f 64/113/72 66/114/43 70/115/46 68/116/73
f 67/78/51 69/117/21 1/118/19
f 71/60/44 74/119/74 77/120/75 76/61/45
f 74/121/74 80/122/76 84/123/77 77/124/75
f 80/122/76 82/125/78 85/126/79 84/123/77
f 82/127/78 88/86/56 89/89/59 85/128/79
f 59/129/57 64/113/72 68/116/73 62/130/58
f 56/131/80 50/132/28 44/133/29 58/134/81
f 55/135/82 49/136/25 50/132/28 56/131/80
f 54/137/38 48/138/24 49/139/25 55/140/82
f 57/141/37 43/142/54 48/138/24 54/137/38
f 53/143/48 47/144/41 43/145/54 57/146/37
f 52/147/50 46/148/33 47/144/41 53/143/48
f 51/149/55 45/150/32 46/151/33 52/152/50
f 58/153/81 44/154/29 45/150/32 51/149/55
f 9/99/65 3/98/39 44/155/29 50/156/28
f 6/71/49 2/102/52 43/157/54 47/72/41
f 39/41/33 38/40/32 54/50/38 55/158/82
f 40/57/41 39/56/33 55/159/82 56/160/80
f 8/105/68 9/99/65 50/156/28 49/161/25
f 42/111/54 40/57/41 56/160/80 58/162/81
f 35/32/24 42/163/54 58/164/81 51/84/55
f 7/81/53 8/108/68 49/165/25 48/82/24
f 76/61/45 77/120/75 78/68/35 75/29/22
f 64/113/72 59/129/57 60/166/71 63/31/23
f 66/114/43 64/113/72 63/31/23 65/34/26
f 86/46/17 83/44/36 84/123/77 85/126/79
f 90/24/18 86/23/17 85/128/79 89/89/59
f 75/29/22 69/28/21 70/62/46 76/61/45
f 72/35/27 73/38/30 74/119/74 71/60/44
f 80/122/76 74/121/74 73/67/30 79/39/31
f 82/125/78 80/122/76 79/39/31 81/42/34
f 69/117/21 67/78/51 68/116/73 70/115/46
f 71/60/44 66/59/43 65/76/26 72/35/27
f 67/78/51 61/77/20 62/130/58 68/116/73
f 83/44/36 78/43/35 77/124/75 84/123/77
f 88/86/56 82/127/78 81/55/34 87/58/42
f 89/89/59 62/88/58 61/26/20 90/24/18
f 87/58/42 60/112/71 59/87/57 88/86/56
f 60/166/71 42/163/54 35/32/24 63/31/23
