# Blender v2.93.5 OBJ File: 'kit.blend'
# www.blender.org
o Fence2_Cube.012
v 0.785885 0.634600 -0.194021
v 0.783621 0.583977 -0.194021
v 0.783895 0.590090 -0.089465
v 0.785881 0.634498 -0.089465
v 0.588258 0.617980 -0.194021
v 0.589937 0.617423 -0.089465
v -0.799487 0.208222 -0.194021
v -0.802116 0.238102 -0.194021
v -0.803469 0.232082 -0.089465
v -0.799698 0.213381 -0.089465
v -0.704845 0.234791 -0.089465
v -0.703487 0.235007 -0.194021
v -0.812012 0.391629 -0.109465
v -0.811296 0.371641 -0.089465
v -0.811022 0.371653 -0.194021
v -0.812012 0.391629 -0.174021
v 0.781325 0.412581 -0.089465
v 0.780506 0.432564 -0.109465
v 0.780506 0.432564 -0.174021
v 0.781325 0.412581 -0.194021
v -0.799982 0.187633 -0.089465
v -0.800202 0.167604 -0.109465
v -0.800202 0.167604 -0.174021
v -0.799849 0.187639 -0.194021
v 0.792316 0.208539 -0.109465
v 0.791496 0.228522 -0.089465
v 0.791496 0.228522 -0.194021
v 0.792316 0.208539 -0.174021
v -0.801893 0.761880 -0.109465
v -0.802786 0.741900 -0.089465
v -0.802786 0.741900 -0.194021
v -0.801893 0.761880 -0.174021
v 0.789572 0.697258 -0.089465
v 0.790466 0.717238 -0.109465
v 0.790466 0.717238 -0.174021
v 0.789572 0.697258 -0.194021
v -0.811382 0.569489 -0.089465
v -0.812276 0.549509 -0.109465
v -0.812276 0.549509 -0.174022
v -0.811382 0.569489 -0.194022
v 0.780083 0.504867 -0.109465
v 0.780977 0.524847 -0.089465
v 0.780977 0.524847 -0.194021
v 0.780083 0.504867 -0.174021
v -0.628868 -0.017104 -0.004442
v -0.602494 -0.015448 0.021996
v -0.602494 -0.015448 -0.060204
v -0.628868 -0.017104 -0.033766
v -0.643278 0.920483 0.055558
v -0.669764 0.921400 0.029120
v -0.669764 0.921400 -0.067327
v -0.643278 0.920483 -0.093765
v -0.520115 -0.012484 0.021996
v -0.493663 -0.010822 -0.004442
v -0.493663 -0.010822 -0.033765
v -0.520115 -0.012484 -0.060204
v -0.478591 0.915995 0.029119
v -0.505001 0.916911 0.055558
v -0.505001 0.916911 -0.093765
v -0.478591 0.915995 -0.067327
v 0.418054 -0.009612 -0.000419
v 0.444388 -0.011806 0.026019
v 0.442377 -0.011806 -0.060204
v 0.416043 -0.009612 -0.033766
v 0.539872 0.933224 0.059580
v 0.513797 0.937981 0.033142
v 0.511786 0.937981 -0.067327
v 0.537861 0.933224 -0.093765
v 0.531731 -0.015731 0.026019
v 0.558138 -0.017931 -0.000420
v 0.556127 -0.017931 -0.033766
v 0.529720 -0.015731 -0.060204
v 0.707556 0.909967 0.033142
v 0.681558 0.914710 0.059580
v 0.679548 0.914710 -0.093765
v 0.705545 0.909967 -0.067327
v 0.562511 0.928788 0.059580
v 0.604597 0.924766 0.059580
v 0.597287 0.925707 -0.093765
v 0.559159 0.930441 -0.093765
v 0.547430 0.756419 -0.089571
v 0.545780 0.745515 0.054515
vt 0.160497 0.623047
vt 0.165821 0.679000
vt 0.192221 0.679000
vt 0.197475 0.623047
vt 0.102959 0.623047
vt 0.107356 0.679000
vt 0.138737 0.679000
vt 0.143135 0.623047
vt 0.080275 0.679000
vt 0.085597 0.623047
vt 0.065512 0.623047
vt 0.061037 0.631513
vt 0.107356 0.511142
vt 0.102959 0.567094
vt 0.143135 0.567094
vt 0.138738 0.511142
vt 0.095071 0.613573
vt 0.151023 0.613573
vt 0.095071 0.730716
vt 0.105773 0.734952
vt 0.140320 0.734952
vt 0.151023 0.731589
vt 0.045164 0.623047
vt 0.068432 0.673231
vt 0.086604 0.638996
vt 0.095071 0.687246
vt 0.151023 0.687526
vt 0.140320 0.679000
vt 0.105773 0.679000
vt 0.159550 0.679000
vt 0.168309 0.679000
vt 0.179073 0.673262
vt 0.159916 0.638966
vt 0.105773 0.623047
vt 0.140320 0.623047
vt 0.095071 0.617001
vt 0.151023 0.617001
vt 0.095071 0.728906
vt 0.105773 0.734952
vt 0.140320 0.734952
vt 0.151023 0.728906
vt 0.067750 0.629505
vt 0.089782 0.669418
vt 0.089024 0.623047
vt 0.069281 0.623047
vt 0.157070 0.623047
vt 0.157070 0.670495
vt 0.182400 0.634866
vt 0.174963 0.623047
vt 0.046121 0.666893
vt 0.089024 0.679000
vt 0.105773 0.623047
vt 0.105773 0.679000
vt 0.140320 0.679000
vt 0.140320 0.623047
vt 0.200929 0.679000
vt 0.192221 0.679000
vt 0.197474 0.623047
vt 0.191916 0.623047
vt 0.188236 0.630054
vt 0.102959 0.623047
vt 0.107356 0.679000
vt 0.138738 0.679000
vt 0.143135 0.623047
vt 0.107356 0.511142
vt 0.102959 0.567094
vt 0.143135 0.567094
vt 0.138738 0.511142
vt 0.095071 0.576596
vt 0.151023 0.576596
vt 0.076224 0.679000
vt 0.086824 0.679000
vt 0.064644 0.679000
vt 0.151023 0.715689
vt 0.190283 0.623047
vt 0.095071 0.583818
vt 0.151023 0.599107
vt 0.095071 0.617001
vt 0.151023 0.617001
vt 0.095071 0.573141
vt 0.151023 0.573141
vt 0.140320 0.567094
vt 0.105773 0.567094
vt 0.095071 0.697847
vt 0.202401 0.631279
vt 0.187712 0.679000
vt 0.203613 0.679000
vt 0.045164 0.623047
vt 0.055842 0.623047
vt 0.105773 0.511142
vt 0.105773 0.567094
vt 0.140320 0.567094
vt 0.140320 0.511142
vt 0.157070 0.623047
vt 0.105773 0.511142
vt 0.140320 0.511142
vt 0.200929 0.668141
vt 0.200929 0.623047
vt 0.151023 0.696285
vt 0.095071 0.709426
vt 0.095071 0.573141
vt 0.151023 0.573141
vt 0.095071 0.685046
vt 0.151023 0.685046
vt 0.043918 0.631264
vt 0.039118 0.623047
vt 0.039118 0.679000
vt 0.043354 0.679000
vt 0.206976 0.679000
vt 0.206976 0.623047
vt 0.095071 0.567094
vt 0.095071 0.521965
vt 0.151023 0.522004
vt 0.151023 0.567094
vt 0.095071 0.597257
vt 0.151023 0.583787
vt 0.095071 0.566971
vt 0.095071 0.511172
vt 0.151023 0.511172
vt 0.151023 0.566971
vt 0.080272 0.679000
vt 0.085597 0.623047
vt 0.048620 0.623047
vt 0.039118 0.623102
vt 0.039118 0.679000
vt 0.053873 0.679000
vt 0.206976 0.679000
vt 0.206976 0.623102
vt 0.160497 0.623047
vt 0.165819 0.679000
vt 0.048619 0.623047
vt 0.053873 0.679000
vt 0.095071 0.593488
vt 0.095071 0.613573
vt 0.151023 0.613573
vt 0.151023 0.587406
vt 0.186664 0.623047
vt 0.151023 0.582154
vt 0.057946 0.623047
vt 0.095071 0.585922
vt 0.095071 0.576595
vt 0.151023 0.576595
vn -0.0001 -0.0360 -0.9994
vn 0.9999 -0.0163 -0.0000
vn 0.0079 -0.0363 0.9993
vn -0.9991 -0.0435 0.0000
vn 0.0346 0.9994 0.0000
vn -0.9991 -0.0426 -0.0016
vn -0.0000 0.0000 1.0000
vn -0.9999 0.0143 -0.0008
vn 0.0000 0.0000 -1.0000
vn 0.0257 -0.9997 0.0000
vn 0.9992 0.0410 -0.0000
vn -0.9990 0.0447 0.0000
vn -0.0280 -0.9996 0.0000
vn -0.0666 -0.0273 -0.9974
vn 0.9868 -0.1589 -0.0297
vn -0.9945 0.1005 0.0299
vn 0.1795 0.9838 -0.0028
vn -0.0020 -0.9996 -0.0298
vn 0.0853 -0.9963 -0.0038
vn 0.1556 0.9874 -0.0277
vn 0.9990 -0.0447 -0.0000
vn -0.2448 0.9693 -0.0248
vn -0.0257 0.9997 0.0000
vn 0.0280 0.9996 0.0000
vn -0.9999 0.0139 -0.0020
vn -0.9981 -0.0611 -0.0095
vn -0.9988 0.0498 0.0000
vn -0.0182 0.7069 0.7071
vn -0.0182 0.7069 -0.7070
vn 0.0182 -0.7067 0.7072
vn 0.0182 -0.7067 -0.7073
vn 0.0198 0.7069 0.7071
vn 0.0198 0.7069 -0.7071
vn -0.0198 -0.7069 0.7071
vn -0.0198 -0.7069 -0.7071
vn 0.9983 -0.0587 -0.0000
vn 0.9985 0.0552 -0.0000
vn -0.7057 -0.0560 0.7063
vn -0.7057 -0.0560 -0.7063
vn 0.7070 -0.0370 0.7063
vn 0.7070 -0.0370 -0.7063
vn -0.7064 0.0463 0.7063
vn -0.7064 0.0463 -0.7063
vn 0.6945 -0.1373 0.7063
vn 0.6945 -0.1373 -0.7063
vn -0.0001 -0.0360 0.9994
vn 0.1311 0.9914 -0.0009
vn -0.9543 0.2975 0.0300
vn 0.9968 -0.0794 -0.0091
vn 0.1621 0.9868 0.0025
vn 0.0258 0.9997 0.0000
vn -0.0017 -0.0374 0.9993
vn -0.0553 -0.0287 0.9981
vn -0.0017 -0.0380 -0.9993
vn 0.0120 -0.0365 -0.9993
s off
f 59/1/1 56/2/1 47/3/1 52/4/1
f 57/5/2 54/6/2 55/7/2 60/8/2
f 69/9/3 74/10/3 78/11/3 82/12/3
f 45/13/4 50/14/4 51/15/4 48/16/4
f 58/17/5 57/5/5 60/8/5 59/18/5
f 14/19/6 13/20/6 16/21/6 15/22/6
f 17/23/7 11/24/7 26/25/7
f 21/26/8 24/27/8 23/28/8 22/29/8
f 24/30/9 7/31/9 12/32/9 27/33/9
f 25/34/10 22/29/10 23/28/10 28/35/10
f 26/36/11 25/34/11 28/35/11 27/37/11
f 30/38/12 29/39/12 32/40/12 31/41/12
f 6/42/7 37/43/7 42/44/7 3/45/7
f 43/46/9 40/47/9 5/48/9 2/49/9
f 30/50/7 37/51/7 6/42/7
f 41/52/13 38/53/13 39/54/13 44/55/13
f 40/47/9 31/56/9 5/48/9
f 63/57/14 68/58/14 80/59/14 81/60/14
f 73/61/15 70/62/15 71/63/15 76/64/15
f 61/65/16 66/66/16 67/67/16 64/68/16
f 65/69/17 68/70/17 67/67/17 66/66/17
f 26/25/7 11/24/7 10/71/7 21/72/7
f 11/24/18 9/73/18 8/74/18 12/32/18
f 5/48/19 1/75/19 4/76/19 6/42/19
f 6/42/20 3/45/20 2/77/20 5/48/20
f 42/78/21 41/52/21 44/55/21 43/79/21
f 33/80/21 36/81/21 35/82/21 34/83/21
f 12/32/22 7/31/22 10/84/22 11/24/22
f 20/85/9 12/32/9 8/86/9 15/87/9
f 33/88/7 30/50/7 6/42/7 4/89/7
f 13/90/23 18/91/23 19/92/23 16/93/23
f 27/94/9 12/32/9 20/85/9
f 29/95/24 34/83/24 35/82/24 32/96/24
f 31/97/9 36/98/9 1/75/9 5/48/9
f 10/84/25 7/99/25 24/27/25 21/26/25
f 9/100/26 14/19/26 15/22/26 8/74/26
f 17/101/11 20/102/11 19/92/11 18/91/11
f 37/103/12 40/104/12 39/54/12 38/53/12
f 30/38/27 31/41/27 40/104/27 37/103/27
f 17/105/28 18/106/28 13/107/28 14/108/28
f 15/87/29 16/109/29 19/110/29 20/85/29
f 21/72/30 22/29/30 25/34/30 26/25/30
f 27/33/31 28/35/31 23/28/31 24/30/31
f 33/111/32 34/83/32 29/95/32 30/112/32
f 31/113/33 32/96/33 35/82/33 36/114/33
f 37/43/34 38/53/34 41/52/34 42/44/34
f 43/46/35 44/55/35 39/54/35 40/47/35
f 14/108/7 9/73/7 11/24/7 17/105/7
f 3/115/21 42/78/21 43/79/21 2/77/21
f 4/76/36 1/116/36 36/81/36 33/80/36
f 26/36/37 27/37/37 20/102/37 17/101/37
f 49/117/38 50/14/38 45/13/38 46/118/38
f 47/119/39 48/16/39 51/15/39 52/120/39
f 53/121/40 54/6/40 57/5/40 58/122/40
f 59/1/41 60/8/41 55/7/41 56/2/41
f 65/123/42 66/124/42 61/125/42 62/126/42
f 63/57/43 64/127/43 67/128/43 68/58/43
f 69/9/44 70/62/44 73/61/44 74/10/44
f 75/129/45 76/64/45 71/63/45 72/130/45
f 49/131/46 46/132/46 53/121/46 58/122/46
f 78/133/47 74/134/47 75/135/47 79/136/47
f 81/60/48 82/12/48 78/133/48 79/137/48
f 74/134/17 73/61/17 76/64/17 75/135/17
f 82/12/49 81/60/49 80/138/49 77/139/49
f 77/140/50 80/138/50 68/70/50 65/69/50
f 49/141/5 52/142/5 51/15/5 50/14/5
f 58/17/51 59/18/51 52/142/51 49/141/51
f 62/126/52 69/9/52 82/12/52
f 65/123/53 62/126/53 82/12/53 77/139/53
f 72/130/54 63/57/54 81/60/54
f 75/129/55 72/130/55 81/60/55 79/137/55
