# Blender v2.93.5 OBJ File: 'kit.blend'
# www.blender.org
o Gem
v 0.000000 0.200188 0.282667
v -0.000000 0.000388 0.399600
v -0.244797 0.200188 0.141333
v -0.346064 0.000388 0.199800
v -0.244797 0.200188 -0.141334
v -0.346064 0.000388 -0.199800
v -0.000000 0.200188 -0.000000
v 0.000000 0.200188 -0.282667
v 0.000000 0.000388 -0.399600
v 0.244797 0.200188 -0.141333
v 0.346064 0.000388 -0.199800
v 0.244797 0.200188 0.141334
v 0.346064 0.000388 0.199800
v -0.000000 -0.255627 -0.000000
vt 0.407844 0.158681
vt 0.393046 0.217874
vt 0.378248 0.158681
vt 0.407844 0.129085
vt 0.378248 0.129085
vt 0.393046 0.040295
vt 0.348651 0.129085
vt 0.348651 0.158681
vt 0.319055 0.158681
vt 0.319055 0.129085
vt 0.363450 0.040295
vt 0.363450 0.217874
vt 0.289458 0.158681
vt 0.289458 0.129085
vt 0.333853 0.217874
vt 0.333853 0.040295
vt 0.304256 0.217874
vt 0.467038 0.158681
vt 0.437441 0.158681
vt 0.437441 0.129085
vt 0.467038 0.129085
vt 0.304256 0.040295
vt 0.452239 0.040295
vt 0.452239 0.217874
vt 0.422643 0.217874
vt 0.422643 0.040295
vn 0.0000 1.0000 0.0000
vn -0.2974 -0.8039 0.5151
vn -0.4460 0.4521 -0.7725
vn -0.5947 -0.8039 -0.0000
vn 0.4460 0.4521 -0.7725
vn -0.2974 -0.8039 -0.5151
vn 0.8920 0.4521 0.0000
vn 0.2974 -0.8039 -0.5151
vn 0.4460 0.4521 0.7725
vn 0.5947 -0.8039 0.0000
vn -0.4460 0.4521 0.7725
vn 0.2974 -0.8039 0.5151
vn -0.8920 0.4521 -0.0000
s off
f 1/1/1 7/2/1 3/3/1
f 2/4/2 4/5/2 14/6/2
f 6/7/3 5/8/3 8/9/3 9/10/3
f 4/5/4 6/7/4 14/11/4
f 3/3/1 7/12/1 5/8/1
f 9/10/5 8/9/5 10/13/5 11/14/5
f 5/8/1 7/15/1 8/9/1
f 6/7/6 9/10/6 14/16/6
f 7/17/1 10/13/1 8/9/1
f 10/18/7 12/19/7 13/20/7 11/21/7
f 9/10/8 11/14/8 14/22/8
f 13/20/9 12/19/9 1/1/9 2/4/9
f 11/21/10 13/20/10 14/23/10
f 10/18/1 7/24/1 12/19/1
f 2/4/11 1/1/11 3/3/11 4/5/11
f 12/19/1 7/25/1 1/1/1
f 13/20/12 2/4/12 14/26/12
f 3/3/13 5/8/13 6/7/13 4/5/13
