# Blender v2.93.5 OBJ File: 'kit.blend'
# www.blender.org
o Grass4_Plane.012
v -0.595579 0.612850 0.232419
v -0.026820 0.000163 0.008917
v -0.067824 0.013636 -0.096726
v -0.286665 0.499136 0.208945
v -0.117839 0.289401 0.141703
v -0.202281 0.302722 -0.065634
v -0.368417 0.510453 0.010940
v 0.455059 0.335749 0.613632
v 0.039828 -0.004094 -0.008126
v 0.333038 0.353640 0.311022
v 0.168160 0.256718 0.138681
v 0.049768 0.254685 0.218990
v 0.184009 0.349247 0.416244
v 0.369669 0.505863 -0.418702
v 0.146375 0.461557 -0.331496
v 0.027232 0.287091 -0.213903
v 0.207797 0.249226 -0.078330
v 0.318083 0.425609 -0.201200
v -0.048726 0.064428 0.042508
v -0.104629 0.077950 -0.090666
v 0.071884 0.109034 0.046698
v 0.006671 0.109377 0.088844
v 0.081954 0.051391 -0.024488
v -0.044103 0.074195 -0.128187
v -0.024897 -0.008426 0.023334
v -0.073041 0.004953 -0.102877
v -0.293667 0.489835 0.210383
v -0.127564 0.283117 0.143984
v -0.212012 0.296451 -0.063347
v -0.375421 0.501155 0.012379
v 0.046732 -0.013080 -0.004593
v 0.343300 0.342871 0.317696
v 0.179726 0.246609 0.146478
v 0.057526 0.244155 0.230197
v 0.190701 0.338105 0.426084
v 0.145958 0.453604 -0.342956
v 0.028069 0.281970 -0.228151
v 0.208566 0.243951 -0.092437
v 0.317515 0.417328 -0.212246
v -0.058037 0.059280 0.046016
v -0.114713 0.072840 -0.089414
v 0.082388 0.100286 0.052821
v 0.013436 0.099805 0.099215
v 0.083990 0.046661 -0.037207
v -0.043478 0.069593 -0.141875
v -0.040921 0.014660 0.013346
v -0.407970 0.562928 0.212676
v -0.189887 0.405589 0.181712
v -0.143651 0.178261 -0.082267
v -0.277836 0.418624 -0.036082
v 0.051265 0.010765 0.010205
v 0.415487 0.362664 0.412005
v 0.246291 0.318307 0.216695
v 0.106144 0.314705 0.314364
v 0.139858 0.140075 -0.041702
v 0.217220 0.496725 -0.387088
v 0.081597 0.389495 -0.271685
v 0.019476 0.176775 0.141295
v 0.270506 0.349066 -0.131730
v -0.058774 0.026519 -0.109934
v -0.467410 0.570305 0.074470
v 0.272478 0.358866 0.511938
v 0.341676 0.472329 -0.286891
v -0.069767 0.164848 0.093590
v -0.084799 0.028288 -0.095050
v 0.109255 0.177333 0.082052
v -0.013970 0.014389 0.027967
v 0.051109 0.007535 -0.018788
v -0.015375 0.170516 -0.163924
v -0.045503 0.008148 0.021629
v -0.413499 0.552533 0.213594
v -0.198381 0.397780 0.183656
v -0.154058 0.173075 -0.080034
v -0.286335 0.410824 -0.034136
v 0.061915 0.009977 0.028047
v 0.425105 0.351748 0.418104
v 0.257245 0.307827 0.223985
v 0.113390 0.303830 0.324952
v 0.141105 0.135664 -0.056237
v 0.216106 0.487391 -0.396399
v 0.081861 0.383049 -0.284838
v 0.027420 0.166629 0.152694
v 0.270645 0.342343 -0.144563
v -0.060053 0.020268 -0.120814
v -0.472940 0.559911 0.075388
v 0.278673 0.347595 0.521072
v 0.340485 0.462771 -0.295871
v -0.080125 0.159649 0.096020
v -0.093223 0.021863 -0.096297
v 0.121030 0.167675 0.089876
v -0.007153 0.009264 0.046806
v 0.054930 0.000960 -0.025872
v -0.014237 0.166183 -0.178563
v -0.027136 -0.002881 0.035326
v -0.083196 0.015580 -0.115456
v -0.281678 0.492363 0.236639
v -0.113709 0.283760 0.171567
v -0.216139 0.302086 -0.093214
v -0.380406 0.507927 -0.015315
v 0.065418 -0.008971 0.002240
v 0.353696 0.351879 0.296716
v 0.190049 0.255478 0.124036
v 0.033138 0.249541 0.238635
v 0.167647 0.343821 0.434471
v 0.120826 0.464352 -0.351544
v 0.000642 0.291645 -0.236309
v 0.235190 0.239474 -0.070101
v 0.343139 0.414698 -0.192405
v -0.043679 0.059315 0.068179
v -0.114770 0.077934 -0.107126
v 0.085961 0.107086 0.038313
v -0.001545 0.104462 0.102988
v 0.103417 0.044739 -0.016244
v -0.061309 0.076181 -0.145292
v -0.034893 0.009256 0.039108
v -0.400496 0.556367 0.237806
v -0.184484 0.399240 0.213369
v -0.155918 0.178184 -0.104060
v -0.291735 0.417169 -0.065793
v 0.067378 0.012080 0.016190
v 0.431088 0.359699 0.402974
v 0.269149 0.317130 0.200560
v 0.087698 0.309426 0.334584
v 0.162757 0.132155 -0.036195
v 0.199502 0.496668 -0.401518
v 0.053162 0.393878 -0.294381
v 0.007373 0.171723 0.158450
v 0.299142 0.338098 -0.122026
v -0.074581 0.027268 -0.124920
v -0.475765 0.566512 0.057362
v 0.262061 0.353325 0.525776
v 0.361788 0.462970 -0.276562
v -0.067632 0.159732 0.118086
v -0.093779 0.027990 -0.110263
v 0.127642 0.175600 0.071004
v -0.021924 0.012640 0.042364
v 0.072977 0.001021 -0.007141
v -0.037081 0.174064 -0.184019
vt 0.838043 0.812740
vt 0.838043 0.900194
vt 0.815361 0.862168
vt 0.815361 0.805152
vt 0.936321 0.814377
vt 0.936321 0.921198
vt 0.927843 0.919061
vt 0.927843 0.816513
vt 0.887517 0.816513
vt 0.887517 0.919061
vt 0.862706 0.916703
vt 0.862706 0.816042
vt 0.814404 0.790877
vt 0.788767 0.799865
vt 0.814404 0.876776
vt 0.948729 0.805177
vt 0.948729 0.970506
vt 0.945854 0.945248
vt 0.945854 0.830436
vt 0.840383 0.829076
vt 0.840383 0.924673
vt 0.817516 0.887571
vt 0.817516 0.821687
vt 0.937032 0.942952
vt 0.937032 0.832732
vt 0.892992 0.832732
vt 0.892992 0.942952
vt 0.866220 0.940667
vt 0.866220 0.832275
vt 0.816576 0.805177
vt 0.789021 0.822040
vt 0.816576 0.904705
vt 0.838574 0.813005
vt 0.838574 0.901521
vt 0.816894 0.865994
vt 0.816894 0.805926
vt 0.936374 0.814377
vt 0.936374 0.921198
vt 0.927919 0.919061
vt 0.927919 0.816513
vt 0.887536 0.816513
vt 0.887536 0.919061
vt 0.862775 0.916869
vt 0.862775 0.816075
vt 0.815996 0.790877
vt 0.790359 0.804642
vt 0.815996 0.881553
vt 0.910639 0.919061
vt 0.910639 0.816514
vt 0.939592 0.790877
vt 0.910584 0.919061
vt 0.910584 0.816514
vt 0.934786 0.790876
vt 0.934786 0.944698
vt 0.937189 0.944698
vt 0.937189 0.790877
vt 0.918221 0.942952
vt 0.918221 0.832732
vt 0.934901 0.790877
vt 0.934901 0.944698
vt 0.937247 0.944698
vt 0.937247 0.790877
vt 0.939592 0.944698
vt 0.939592 0.790877
vt 0.789713 0.791511
vt 0.815192 0.792661
vt 0.837044 0.944698
vt 0.837044 0.790877
vt 0.862681 0.944698
vt 0.862681 0.790877
vt 0.888318 0.944698
vt 0.888318 0.790877
vt 0.944961 0.805177
vt 0.944961 0.970506
vt 0.946845 0.970507
vt 0.946845 0.805177
vt 0.948730 0.970507
vt 0.948730 0.805177
vt 0.790082 0.806313
vt 0.817341 0.807241
vt 0.838510 0.970506
vt 0.838510 0.805177
vt 0.866065 0.970507
vt 0.866065 0.805177
vt 0.893620 0.970506
vt 0.893620 0.805177
vt 0.939592 0.790877
vt 0.939592 0.944698
vt 0.791335 0.791812
vt 0.816730 0.792758
vt 0.837044 0.944698
vt 0.837044 0.790877
vt 0.862681 0.944698
vt 0.862681 0.790877
vt 0.888318 0.944698
vt 0.888318 0.790877
vt 0.911552 0.944698
vt 0.911552 0.790877
vt 0.911610 0.944698
vt 0.911610 0.790877
vt 0.792023 0.795125
vt 0.939592 0.944698
vt 0.919290 0.970507
vt 0.919290 0.805177
vt 0.939592 0.790877
vt 0.936466 0.793547
vt 0.939592 0.790877
vt 0.928421 0.794081
vt 0.837960 0.793609
vt 0.788767 0.790877
vt 0.815192 0.874685
vt 0.790224 0.801278
vt 0.862702 0.794022
vt 0.887584 0.794081
vt 0.910746 0.941493
vt 0.887584 0.941494
vt 0.928421 0.941493
vt 0.862702 0.939194
vt 0.837960 0.921211
vt 0.789713 0.802069
vt 0.946019 0.808047
vt 0.948730 0.805177
vt 0.937693 0.808621
vt 0.840227 0.808164
vt 0.789021 0.805177
vt 0.817341 0.902066
vt 0.790899 0.822551
vt 0.866194 0.808564
vt 0.893044 0.808621
vt 0.866194 0.964835
vt 0.840227 0.947413
vt 0.893044 0.967062
vt 0.790082 0.824088
vt 0.790224 0.793836
vt 0.910801 0.941493
vt 0.887602 0.941494
vt 0.928501 0.941493
vt 0.838447 0.793643
vt 0.790359 0.790877
vt 0.816730 0.879202
vt 0.792023 0.805387
vt 0.862759 0.794026
vt 0.887602 0.794081
vt 0.918399 0.967062
vt 0.937693 0.967062
vt 0.862759 0.939356
vt 0.838446 0.922638
vt 0.791335 0.806633
vt 0.790899 0.810301
vt 0.936519 0.793547
vt 0.939592 0.790877
vt 0.928501 0.794081
vt 0.910746 0.794081
vt 0.936466 0.942028
vt 0.939592 0.944698
vt 0.939592 0.944698
vt 0.918399 0.808621
vt 0.946019 0.967636
vt 0.948730 0.970507
vt 0.936519 0.942028
vt 0.939592 0.944698
vt 0.910801 0.794081
vn 0.5773 0.8151 -0.0474
vn 0.5068 0.8255 -0.2483
vn 0.2601 0.9462 -0.1925
vn 0.3667 0.9302 0.0157
vn 0.8385 0.5164 -0.1738
vn 0.7525 0.5517 -0.3597
vn 0.8408 0.3581 -0.4059
vn 0.9244 0.3062 -0.2272
vn 0.8603 0.4834 -0.1618
vn 0.7875 0.5065 -0.3511
vn 0.6856 0.6626 -0.3016
vn 0.7526 0.6476 -0.1193
vn -0.3694 -0.9049 0.2112
vn -0.8494 0.2792 0.4479
vn -0.5101 -0.8589 -0.0445
vn -0.0847 0.9963 0.0158
vn 0.2472 0.9551 -0.1631
vn -0.5654 0.6558 -0.5001
vn 0.0019 0.5796 -0.8149
vn -0.0723 0.9851 -0.1557
vn -0.2097 0.9767 -0.0450
vn -0.0893 0.9866 0.1367
vn 0.0816 0.9966 0.0039
vn -0.6321 0.5107 -0.5828
vn -0.3224 0.5048 -0.8007
vn -0.3232 0.7966 -0.5108
vn -0.4890 0.7752 -0.3999
vn -0.3381 0.9142 -0.2234
vn -0.2063 0.9241 -0.3215
vn 0.3484 -0.9301 -0.1158
vn 0.5826 -0.1050 0.8059
vn -0.1090 -0.9795 0.1696
vn -0.2455 0.8449 0.4753
vn -0.0589 0.8044 0.5911
vn 0.0697 0.9237 0.3766
vn -0.1026 0.9641 0.2448
vn -0.4862 0.6204 0.6153
vn -0.3335 0.6057 0.7224
vn -0.3839 0.3997 0.8323
vn -0.5577 0.4413 0.7030
vn -0.4574 0.5520 0.6971
vn -0.2649 0.5075 0.8199
vn -0.1868 0.6425 0.7431
vn -0.3677 0.6844 0.6296
vn 0.0017 -0.7706 -0.6373
vn 0.6905 0.2282 -0.6864
vn 0.1944 -0.9154 -0.3524
vn -0.3205 0.4191 0.8495
vn -0.5239 0.4664 0.7127
vn 0.1539 0.9737 0.1679
vn 0.8310 0.3967 -0.3900
vn 0.9140 0.3585 -0.1898
vn -0.8228 -0.3974 0.4062
vn -0.9156 -0.3820 0.1250
vn -0.8111 -0.5813 0.0643
vn -0.7466 -0.5869 0.3133
vn -0.6064 0.6080 -0.5124
vn -0.3896 0.6499 -0.6525
vn 0.2894 -0.4429 -0.8485
vn 0.5468 -0.4993 -0.6721
vn 0.4419 -0.6861 -0.5778
vn 0.2191 -0.6365 -0.7395
vn -0.2657 -0.9180 -0.2945
vn -0.2722 -0.9066 0.3222
vn 0.0587 0.1440 0.9878
vn -0.6107 -0.7907 0.0428
vn -0.5409 -0.7985 0.2643
vn -0.7530 -0.6471 0.1197
vn -0.6910 -0.6552 0.3053
vn -0.8483 -0.5061 0.1559
vn -0.7812 -0.5168 0.3502
vn 0.7261 -0.4981 0.4740
vn 0.1860 -0.5666 0.8027
vn 0.1009 -0.6452 0.7573
vn 0.5159 -0.6065 0.6049
vn 0.2414 -0.9704 0.0010
vn 0.8988 0.2125 -0.3833
vn -0.0152 -0.9735 0.2280
vn 0.2858 -0.9574 -0.0410
vn 0.0915 -0.9205 0.3799
vn 0.4042 -0.9082 0.1085
vn 0.1817 -0.8097 0.5579
vn 0.5484 -0.7959 0.2564
vn -0.4464 0.4483 -0.7744
vn 0.2841 -0.8141 -0.5065
vn 0.0672 -0.7688 -0.6359
vn 0.3715 -0.6792 -0.6330
vn 0.1880 -0.6381 -0.7466
vn 0.4473 -0.5708 -0.6885
vn 0.2557 -0.5244 -0.8121
vn -0.8995 -0.4090 0.1536
vn -0.8165 -0.4246 0.3912
vn 0.5104 -0.5074 -0.6942
vn 0.2852 -0.4519 -0.8452
vn 0.2311 -0.6875 0.6884
vn 0.6610 -0.6654 0.3468
vn 0.3338 -0.3005 0.8934
vn -0.5649 -0.2974 0.7696
vn 0.4319 -0.3632 0.8256
vn 0.2038 0.1017 0.9737
vn -0.5963 0.2784 -0.7529
vn 0.3350 -0.0269 0.9418
vn 0.3844 -0.1574 0.9096
vn -0.2149 -0.0147 -0.9765
vn -0.2244 0.0441 -0.9735
vn -0.2180 -0.0306 -0.9754
vn -0.2716 0.1387 -0.9524
vn -0.3823 0.2240 -0.8964
vn 0.8675 -0.2068 -0.4523
vn 0.8863 -0.4554 0.0841
vn 0.6195 0.0844 -0.7804
vn 0.7464 0.2369 -0.6219
vn -0.5579 0.0768 0.8263
vn 0.6608 0.2351 -0.7127
vn 0.5862 0.1907 -0.7874
vn -0.8205 0.0787 0.5661
vn -0.7328 0.0891 0.6746
vn -0.8897 -0.0022 0.4565
vn 0.7604 -0.3516 0.5460
vn 0.8006 -0.2838 0.5277
vn 0.7089 -0.3831 0.5922
vn -0.7191 0.4136 -0.5583
vn 0.9841 0.0365 0.1736
vn -0.8417 0.2997 -0.4491
vn -0.8944 0.1877 -0.4059
vn -0.8990 -0.1401 0.4149
vn -0.8919 -0.1383 0.4306
vn 0.8549 -0.1729 0.4890
vn 0.9312 -0.0279 0.3634
vn -0.8643 0.0290 -0.5020
vn -0.6021 -0.1581 -0.7826
vn -0.9055 0.0708 -0.4183
vn 0.4059 -0.2723 0.8724
vn -0.2976 -0.0396 -0.9539
vn 0.5575 0.1110 -0.8227
vn -0.8669 -0.0742 0.4929
vn 0.7254 -0.3792 0.5744
vn -0.9082 0.1125 -0.4031
s 1
f 4/1/1 7/2/2 61/3/3 47/4/4
f 46/5/5 65/6/6 20/7/7 19/8/8
f 5/9/9 6/10/10 50/11/11 48/12/12
f 71/13/13 1/14/14 85/15/15
f 9/16/16 2/17/17 67/18/18 51/19/19
f 48/12/12 50/11/11 7/2/2 4/1/1
f 10/20/20 13/21/21 62/22/22 52/23/23
f 51/19/19 67/18/18 22/24/24 21/25/25
f 11/26/26 12/27/27 54/28/28 53/29/29
f 76/30/30 8/31/31 86/32/32
f 53/29/29 54/28/28 13/21/21 10/20/20
f 15/33/33 18/34/34 63/35/35 56/36/36
f 60/37/37 68/38/38 23/39/39 24/40/40
f 16/41/41 17/42/42 59/43/43 57/44/44
f 80/45/45 14/46/46 87/47/47
f 24/40/40 23/39/39 55/48/48 69/49/49
f 57/44/44 59/43/43 18/34/34 15/33/33
f 9/16/16 3/50/50 2/17/17
f 19/8/8 20/7/7 49/51/51 64/52/52
f 40/53/53 41/54/54 89/55/55 70/56/56
f 21/25/25 22/24/24 58/57/57 66/58/58
f 64/52/52 49/51/51 6/10/10 5/9/9
f 45/59/59 44/60/60 92/61/61 84/62/62
f 66/58/58 58/57/57 12/27/27 11/26/26
f 69/49/49 55/48/48 17/42/42 16/41/41
f 70/56/56 89/55/55 26/63/63 25/64/64
f 47/4/4 1/65/14 116/66/65
f 71/13/13 85/15/15 30/67/66 27/68/67
f 27/68/67 30/67/66 74/69/68 72/70/69
f 72/70/69 74/69/68 29/71/70 28/72/71
f 42/73/72 43/74/73 91/75/74 75/76/75
f 75/76/75 91/75/74 25/77/64 31/78/76
f 52/23/23 8/79/31 121/80/77
f 76/30/30 86/32/32 35/81/78 32/82/79
f 32/82/79 35/81/78 78/83/80 77/84/81
f 77/84/81 78/83/80 34/85/82 33/86/83
f 31/78/76 25/77/64 26/87/63
f 84/62/62 92/61/61 31/88/76 26/87/63
f 56/36/36 14/89/46 125/90/84
f 80/45/45 87/47/47 39/91/85 36/92/86
f 36/92/86 39/91/85 83/93/87 81/94/88
f 81/94/88 83/93/87 38/95/89 37/96/90
f 28/72/71 29/71/70 73/97/91 88/98/92
f 37/96/90 38/95/89 79/99/93 93/100/94
f 63/35/35 14/101/46 56/36/36
f 3/50/50 9/102/16 68/38/38 60/37/37
f 88/98/92 73/97/91 41/54/54 40/53/53
f 33/86/83 34/85/82 82/103/95 90/104/96
f 90/104/96 82/103/95 43/74/73 42/73/72
f 93/100/94 79/99/93 44/60/60 45/59/59
f 2/105/17 46/5/5 115/106/97 94/107/98
f 46/5/5 19/8/8 109/108/99 115/106/97
f 115/106/97 109/108/99 40/53/53 70/56/56
f 94/107/98 115/106/97 70/56/56 25/64/64
f 4/1/1 47/4/4 116/66/65 96/109/100
f 116/66/65 1/110/14 71/13/13
f 61/3/3 130/111/101 1/112/14
f 96/109/100 116/66/65 71/13/13 27/68/67
f 5/9/9 48/12/12 117/113/102 97/114/103
f 48/12/12 4/1/1 96/109/100 117/113/102
f 117/113/102 96/109/100 27/68/67 72/70/69
f 97/114/103 117/113/102 72/70/69 28/72/71
f 6/10/10 49/51/51 118/115/104 98/116/105
f 49/51/51 20/7/7 110/117/106 118/115/104
f 118/115/104 110/117/106 41/54/54 73/97/91
f 98/116/105 118/115/104 73/97/91 29/71/70
f 7/2/2 50/11/11 119/118/107 99/119/108
f 50/11/11 6/10/10 98/116/105 119/118/107
f 119/118/107 98/116/105 29/71/70 74/69/68
f 99/119/108 119/118/107 74/69/68 30/67/66
f 130/111/101 85/15/15 1/120/14
f 9/16/16 51/19/19 120/121/109 100/122/110
f 51/19/19 21/25/25 111/123/111 120/121/109
f 120/121/109 111/123/111 42/73/72 75/76/75
f 100/122/110 120/121/109 75/76/75 31/78/76
f 10/20/20 52/23/23 121/80/77 101/124/112
f 121/80/77 8/125/31 76/30/30
f 62/22/22 131/126/113 8/127/31
f 101/124/112 121/80/77 76/30/30 32/82/79
f 11/26/26 53/29/29 122/128/114 102/129/115
f 53/29/29 10/20/20 101/124/112 122/128/114
f 122/128/114 101/124/112 32/82/79 77/84/81
f 102/129/115 122/128/114 77/84/81 33/86/83
f 13/21/21 54/28/28 123/130/116 104/131/117
f 54/28/28 12/27/27 103/132/118 123/130/116
f 123/130/116 103/132/118 34/85/82 78/83/80
f 104/131/117 123/130/116 78/83/80 35/81/78
f 8/133/31 131/126/113 86/32/32
f 61/3/3 1/134/14 47/4/4
f 17/42/42 55/48/48 124/135/119 107/136/120
f 55/48/48 23/39/39 113/137/121 124/135/119
f 124/135/119 113/137/121 44/60/60 79/99/93
f 107/136/120 124/135/119 79/99/93 38/95/89
f 15/33/33 56/36/36 125/90/84 105/138/122
f 125/90/84 14/139/46 80/45/45
f 63/35/35 132/140/123 14/141/46
f 105/138/122 125/90/84 80/45/45 36/92/86
f 16/41/41 57/44/44 126/142/124 106/143/125
f 57/44/44 15/33/33 105/138/122 126/142/124
f 126/142/124 105/138/122 36/92/86 81/94/88
f 106/143/125 126/142/124 81/94/88 37/96/90
f 12/27/27 58/57/57 127/144/126 103/132/118
f 58/57/57 22/24/24 112/145/127 127/144/126
f 127/144/126 112/145/127 43/74/73 82/103/95
f 103/132/118 127/144/126 82/103/95 34/85/82
f 18/34/34 59/43/43 128/146/128 108/147/129
f 59/43/43 17/42/42 107/136/120 128/146/128
f 128/146/128 107/136/120 38/95/89 83/93/87
f 108/147/129 128/146/128 83/93/87 39/91/85
f 132/140/123 87/47/47 14/148/46
f 62/22/22 8/149/31 52/23/23
f 3/50/50 60/37/37 129/150/130 95/151/131
f 60/37/37 24/40/40 114/152/132 129/150/130
f 129/150/130 114/152/132 45/59/59 84/62/62
f 95/151/131 129/150/130 84/62/62 26/87/63
f 61/3/3 7/2/2 99/119/108 130/111/101
f 130/111/101 99/119/108 30/67/66 85/15/15
f 62/22/22 13/21/21 104/131/117 131/126/113
f 131/126/113 104/131/117 35/81/78 86/32/32
f 63/35/35 18/34/34 108/147/129 132/140/123
f 132/140/123 108/147/129 39/91/85 87/47/47
f 19/8/8 64/52/52 133/153/133 109/108/99
f 64/52/52 5/9/9 97/114/103 133/153/133
f 133/153/133 97/114/103 28/72/71 88/98/92
f 109/108/99 133/153/133 88/98/92 40/53/53
f 20/7/7 65/6/6 134/154/134 110/117/106
f 65/6/6 3/155/50 95/156/131 134/154/134
f 134/154/134 95/156/131 26/63/63 89/55/55
f 110/117/106 134/154/134 89/55/55 41/54/54
f 21/25/25 66/58/58 135/157/135 111/123/111
f 66/58/58 11/26/26 102/129/115 135/157/135
f 135/157/135 102/129/115 33/86/83 90/104/96
f 111/123/111 135/157/135 90/104/96 42/73/72
f 22/24/24 67/18/18 136/158/136 112/145/127
f 67/18/18 2/17/17 94/159/98 136/158/136
f 136/158/136 94/159/98 25/77/64 91/75/74
f 112/145/127 136/158/136 91/75/74 43/74/73
f 23/39/39 68/38/38 137/160/137 113/137/121
f 68/38/38 9/102/16 100/161/110 137/160/137
f 137/160/137 100/161/110 31/88/76 92/61/61
f 113/137/121 137/160/137 92/61/61 44/60/60
f 24/40/40 69/49/49 138/162/138 114/152/132
f 69/49/49 16/41/41 106/143/125 138/162/138
f 138/162/138 106/143/125 37/96/90 93/100/94
f 114/152/132 138/162/138 93/100/94 45/59/59
f 2/105/17 3/155/50 65/6/6 46/5/5
