# Blender v2.93.5 OBJ File: 'kit.blend'
# www.blender.org
o Grass3_Plane.003
v -0.230542 0.612850 0.616780
v -0.028720 0.000163 0.055501
v -0.134584 0.013636 0.034121
v -0.023589 0.499136 0.381566
v 0.034414 0.289401 0.207694
v -0.196696 0.302722 0.163806
v -0.242599 0.510453 0.340887
v 0.502325 1.061517 -0.002550
v -0.021424 -0.004094 -0.051819
v 0.225312 0.783755 -0.086981
v 0.073641 0.420215 -0.092428
v 0.069743 0.420774 0.097804
v 0.220603 0.783752 0.097519
v -0.356630 0.505863 -0.450859
v -0.297160 0.461557 -0.238949
v -0.219166 0.287091 -0.090827
v -0.015482 0.249226 -0.221433
v -0.103395 0.425609 -0.362161
v -0.021004 0.064428 0.099659
v -0.154252 0.077950 0.072368
v 0.035896 0.080127 -0.075138
v 0.034214 0.083036 0.056933
v -0.022355 0.051391 -0.082870
v -0.157816 0.074195 0.002297
v -0.014467 -0.008426 0.066772
v -0.141984 0.004953 0.037330
v -0.026909 0.489835 0.387897
v 0.030022 0.283117 0.216666
v -0.201087 0.296451 0.172787
v -0.245919 0.501155 0.347220
v -0.014341 -0.013080 -0.057048
v 0.241331 0.778454 -0.087089
v 0.090793 0.417445 -0.092654
v 0.086892 0.417989 0.097581
v 0.236620 0.778445 0.097411
v -0.308249 0.453604 -0.241872
v -0.232559 0.281970 -0.095760
v -0.028754 0.243951 -0.226260
v -0.114089 0.417328 -0.364828
v -0.024017 0.059280 0.108798
v -0.159666 0.072840 0.080966
v 0.051080 0.077513 -0.076249
v 0.050795 0.080493 0.057132
v -0.033644 0.046661 -0.087990
v -0.170734 0.069593 -0.002270
v -0.039155 0.014660 0.092374
v -0.116362 0.562928 0.484825
v 0.021886 0.405589 0.288384
v -0.172454 0.178261 0.107892
v -0.221653 0.418624 0.241002
v 0.002914 0.010765 -0.063419
v 0.328884 0.918725 -0.067267
v 0.135628 0.612789 -0.094943
v 0.131020 0.612853 0.104823
v -0.009891 0.140075 -0.143893
v -0.333039 0.496725 -0.321511
v -0.258702 0.389495 -0.159611
v 0.042709 0.229771 0.078952
v -0.047638 0.349066 -0.297080
v -0.144601 0.026519 0.021630
v -0.256092 0.570305 0.457737
v 0.324237 0.918724 0.076573
v -0.209067 0.472329 -0.402033
v 0.013842 0.164848 0.142830
v -0.145092 0.028288 0.054242
v 0.044931 0.228067 -0.083887
v -0.006123 0.014389 0.052900
v -0.027889 0.007535 -0.065281
v -0.183688 0.170516 -0.035559
v -0.037113 0.008148 0.098560
v -0.119211 0.552533 0.489656
v 0.018014 0.397780 0.296189
v -0.177314 0.173075 0.117362
v -0.225527 0.410824 0.248812
v 0.022630 0.005406 -0.068722
v 0.344241 0.912421 -0.067358
v 0.152290 0.608758 -0.095090
v 0.147678 0.608810 0.104677
v -0.023362 0.135664 -0.149317
v -0.342030 0.487391 -0.323247
v -0.271213 0.383049 -0.163677
v 0.059875 0.227799 0.078686
v -0.059878 0.342343 -0.300934
v -0.155384 0.020268 0.019700
v -0.258881 0.559911 0.462598
v 0.339593 0.912417 0.076482
v -0.219811 0.462771 -0.402724
v 0.009245 0.159649 0.152364
v -0.151390 0.021863 0.059974
v 0.062010 0.226097 -0.084299
v 0.016621 0.009264 0.053285
v -0.033137 0.000960 -0.066643
v -0.197368 0.166183 -0.040893
v -0.004194 -0.002881 0.073046
v -0.156967 0.015580 0.043402
v 0.006518 0.492363 0.394167
v 0.062725 0.283760 0.222902
v -0.226819 0.302086 0.157073
v -0.270513 0.507927 0.333547
v 0.000340 -0.008971 -0.079165
v 0.233322 0.781106 -0.110815
v 0.082065 0.418727 -0.117396
v 0.078469 0.419485 0.122547
v 0.228611 0.781097 0.121245
v -0.323755 0.464352 -0.220310
v -0.248319 0.291645 -0.071877
v 0.001105 0.239474 -0.245412
v -0.084645 0.414698 -0.384187
v 0.005294 0.059315 0.108891
v -0.173413 0.077934 0.069797
v 0.042741 0.078268 -0.090426
v 0.043505 0.082317 0.074138
v -0.001712 0.044739 -0.101357
v -0.179175 0.076181 0.013804
v -0.014931 0.009256 0.103682
v -0.088183 0.556367 0.491763
v 0.050277 0.399240 0.304152
v -0.197090 0.178184 0.103591
v -0.253451 0.417169 0.232951
v 0.013264 0.007510 -0.080883
v 0.336667 0.915677 -0.083701
v 0.143941 0.610762 -0.121659
v 0.139368 0.610843 0.131393
v 0.010268 0.132155 -0.165815
v -0.349277 0.496668 -0.309882
v -0.288668 0.393878 -0.138978
v 0.051766 0.229104 0.098551
v -0.030046 0.338098 -0.321674
v -0.163527 0.027268 0.032413
v -0.274624 0.566512 0.453373
v 0.331958 0.915674 0.094156
v -0.182085 0.462970 -0.420864
v 0.043979 0.159732 0.154644
v -0.162552 0.027990 0.051563
v 0.052996 0.226763 -0.103825
v 0.006126 0.012640 0.068573
v -0.006414 0.001021 -0.085002
v -0.209213 0.174064 -0.020612
vt 0.840504 0.284902
vt 0.840504 0.372356
vt 0.817822 0.334330
vt 0.817822 0.277314
vt 0.938782 0.286539
vt 0.938782 0.393360
vt 0.930303 0.391223
vt 0.930303 0.288676
vt 0.889978 0.288676
vt 0.889978 0.391223
vt 0.865167 0.388865
vt 0.865167 0.288204
vt 0.816865 0.263039
vt 0.791228 0.272027
vt 0.816865 0.348938
vt 0.951190 0.277339
vt 0.951190 0.442669
vt 0.948315 0.417410
vt 0.948315 0.302598
vt 0.842844 0.301238
vt 0.842844 0.396836
vt 0.819977 0.359733
vt 0.819977 0.293849
vt 0.939493 0.415114
vt 0.939493 0.304894
vt 0.895452 0.304894
vt 0.895452 0.415114
vt 0.868681 0.412829
vt 0.868681 0.304437
vt 0.819037 0.277339
vt 0.791482 0.294202
vt 0.819037 0.376867
vt 0.841035 0.285168
vt 0.841035 0.373683
vt 0.819355 0.338156
vt 0.819355 0.278088
vt 0.938835 0.286539
vt 0.938835 0.393360
vt 0.930380 0.391223
vt 0.930380 0.288676
vt 0.889997 0.288676
vt 0.889997 0.391223
vt 0.865236 0.389031
vt 0.865236 0.288237
vt 0.818457 0.263039
vt 0.792820 0.276804
vt 0.818457 0.353715
vt 0.913100 0.391223
vt 0.913100 0.288676
vt 0.942053 0.263039
vt 0.913045 0.391223
vt 0.913045 0.288676
vt 0.937247 0.263039
vt 0.937247 0.416860
vt 0.939650 0.416860
vt 0.939650 0.263039
vt 0.920682 0.415114
vt 0.920682 0.304894
vt 0.937362 0.263039
vt 0.937362 0.416860
vt 0.939707 0.416860
vt 0.939707 0.263039
vt 0.942053 0.416860
vt 0.942053 0.263039
vt 0.792173 0.263673
vt 0.817652 0.264823
vt 0.839505 0.416860
vt 0.839505 0.263039
vt 0.865142 0.416860
vt 0.865142 0.263039
vt 0.890779 0.416860
vt 0.890779 0.263039
vt 0.947422 0.277339
vt 0.947422 0.442669
vt 0.949306 0.442669
vt 0.949306 0.277339
vt 0.951190 0.442669
vt 0.951190 0.277339
vt 0.792543 0.278475
vt 0.819802 0.279403
vt 0.840970 0.442669
vt 0.840970 0.277339
vt 0.868525 0.442669
vt 0.868525 0.277339
vt 0.896080 0.442669
vt 0.896080 0.277339
vt 0.942053 0.263039
vt 0.942053 0.416860
vt 0.793796 0.263974
vt 0.819191 0.264920
vt 0.839505 0.416860
vt 0.839505 0.263039
vt 0.865142 0.416860
vt 0.865142 0.263039
vt 0.890779 0.416860
vt 0.890779 0.263039
vt 0.914013 0.416860
vt 0.914013 0.263039
vt 0.914070 0.416860
vt 0.914070 0.263039
vt 0.794484 0.267287
vt 0.942053 0.416860
vt 0.921751 0.442669
vt 0.921751 0.277339
vt 0.942053 0.263039
vt 0.938927 0.265709
vt 0.942053 0.263039
vt 0.930882 0.266243
vt 0.840421 0.265772
vt 0.791228 0.263039
vt 0.817652 0.346847
vt 0.792685 0.273440
vt 0.865163 0.266184
vt 0.890045 0.266243
vt 0.913206 0.413656
vt 0.890045 0.413656
vt 0.930882 0.413656
vt 0.865163 0.411356
vt 0.840421 0.393373
vt 0.792173 0.274231
vt 0.948480 0.280209
vt 0.951190 0.277339
vt 0.940154 0.280783
vt 0.842688 0.280326
vt 0.791482 0.277339
vt 0.819801 0.374228
vt 0.793360 0.294713
vt 0.868655 0.280726
vt 0.895505 0.280783
vt 0.868655 0.436997
vt 0.842688 0.419575
vt 0.895505 0.439224
vt 0.792543 0.296250
vt 0.792685 0.265998
vt 0.913262 0.413656
vt 0.890062 0.413656
vt 0.930962 0.413656
vt 0.840907 0.265805
vt 0.792820 0.263039
vt 0.819191 0.351364
vt 0.794484 0.277549
vt 0.865220 0.266188
vt 0.890062 0.266243
vt 0.920860 0.439224
vt 0.940154 0.439224
vt 0.865220 0.411518
vt 0.840907 0.394800
vt 0.793796 0.278795
vt 0.793360 0.282463
vt 0.938980 0.265709
vt 0.942053 0.263039
vt 0.930962 0.266243
vt 0.913206 0.266243
vt 0.938927 0.414190
vt 0.942053 0.416860
vt 0.942053 0.416860
vt 0.920860 0.280783
vt 0.948480 0.439798
vt 0.951190 0.442669
vt 0.938980 0.414190
vt 0.942053 0.416860
vt 0.913262 0.266243
vn 0.2661 0.8322 -0.4865
vn 0.0979 0.8292 -0.5502
vn 0.0069 0.9382 -0.3460
vn 0.1986 0.9363 -0.2896
vn 0.3432 0.5903 -0.7306
vn 0.1370 0.5746 -0.8068
vn 0.1884 0.3225 -0.9276
vn 0.3092 0.1955 -0.9306
vn 0.3406 0.4808 -0.8079
vn 0.1816 0.5042 -0.8443
vn 0.1603 0.6643 -0.7300
vn 0.3296 0.6532 -0.6816
vn -0.0348 -0.8893 0.4559
vn -0.2552 0.3253 0.9105
vn -0.3414 -0.8571 0.3857
vn 0.0144 0.9924 0.1221
vn -0.0524 0.9955 -0.0782
vn -0.7003 0.6582 0.2762
vn -0.7672 0.5450 -0.3381
vn -0.8202 0.5413 -0.1850
vn -0.8240 0.5427 0.1625
vn -0.6765 0.7139 0.1807
vn -0.6773 0.7056 -0.2082
vn -0.9384 0.2432 0.2455
vn -0.9421 0.2171 -0.2556
vn -0.9597 0.2170 -0.1785
vn -0.9635 0.2067 0.1700
vn -0.9122 0.3801 0.1530
vn -0.9082 0.3822 -0.1704
vn 0.7574 -0.6167 -0.2146
vn 0.7543 0.6560 -0.0249
vn 0.7573 -0.6122 0.2274
vn 0.3667 0.8533 0.3706
vn 0.4933 0.8365 0.2385
vn 0.3020 0.9519 0.0512
vn 0.1987 0.9683 0.1511
vn 0.4642 0.5975 0.6538
vn 0.6048 0.5296 0.5947
vn 0.6276 0.3292 0.7055
vn 0.5090 0.4133 0.7550
vn 0.5133 0.5528 0.6564
vn 0.6714 0.5131 0.5347
vn 0.6335 0.6517 0.4171
vn 0.4753 0.6885 0.5478
vn -0.5744 -0.8133 -0.0921
vn -0.6176 0.2059 -0.7590
vn -0.2499 -0.9256 -0.2841
vn 0.6504 0.4188 0.6337
vn 0.5126 0.4606 0.7246
vn 0.2914 0.9562 0.0275
vn 0.1791 0.3893 -0.9035
vn 0.3104 0.3495 -0.8840
vn -0.1571 -0.2775 0.9478
vn -0.4561 -0.3538 0.8166
vn -0.4400 -0.6063 0.6624
vn -0.1776 -0.6222 0.7624
vn -0.9761 0.0694 0.2058
vn -0.9763 0.0905 -0.1968
vn -0.7254 -0.4245 -0.5418
vn -0.4884 -0.4194 -0.7652
vn -0.4776 -0.6201 -0.6223
vn -0.6550 -0.6171 -0.4360
vn -0.4054 -0.9133 0.0382
vn 0.1440 -0.9543 0.2620
vn 0.7486 0.2091 0.6292
vn -0.3245 -0.8003 0.5041
vn -0.0886 -0.7994 0.5942
vn -0.3461 -0.6541 0.6726
vn -0.1521 -0.6531 0.7418
vn -0.3739 -0.5087 0.7754
vn -0.1581 -0.5101 0.8455
vn 0.9371 -0.2428 -0.2506
vn 0.9386 -0.2581 0.2290
vn 0.7437 -0.6361 0.2055
vn 0.7532 -0.6391 -0.1559
vn 0.0108 -0.9758 -0.2183
vn 0.1242 0.2340 -0.9643
vn 0.8361 -0.5144 0.1905
vn 0.8387 -0.5165 -0.1723
vn 0.9084 -0.3802 0.1741
vn 0.9117 -0.3807 -0.1546
vn 0.9547 -0.2344 0.1830
vn 0.9578 -0.2317 -0.1698
vn -0.8375 0.4665 0.2846
vn -0.3653 -0.8255 -0.4301
vn -0.5777 -0.7794 -0.2421
vn -0.4740 -0.6826 -0.5562
vn -0.6425 -0.6459 -0.4122
vn -0.4975 -0.5706 -0.6533
vn -0.6857 -0.5286 -0.5003
vn -0.4091 -0.4065 0.8169
vn -0.1296 -0.4105 0.9026
vn -0.4747 -0.4979 -0.7257
vn -0.7125 -0.4495 -0.5387
vn 0.9714 -0.1274 0.2001
vn 0.9705 -0.1205 -0.2087
vn 0.7950 -0.2912 0.5320
vn 0.5285 -0.1800 0.8296
vn 0.9123 -0.4092 0.0139
vn 0.8730 0.1609 0.4605
vn -0.9633 0.2669 -0.0279
vn 0.9484 -0.0034 0.3171
vn 0.9656 -0.1536 0.2095
vn -0.8919 -0.0147 -0.4519
vn -0.8957 0.0441 -0.4425
vn -0.8931 -0.0306 -0.4487
vn -0.9091 0.1387 -0.3927
vn -0.9360 0.2240 -0.2716
vn -0.0367 -0.3158 -0.9481
vn 0.0694 -0.5627 -0.8237
vn 0.0259 -0.0999 -0.9946
vn 0.0161 0.1153 -0.9932
vn 0.1396 0.2523 0.9575
vn -0.0374 0.0415 -0.9984
vn -0.0608 -0.0212 -0.9979
vn -0.0386 0.0282 0.9988
vn 0.0162 0.1149 0.9932
vn -0.0540 -0.0614 0.9966
vn 0.8106 -0.3554 -0.4653
vn 0.7679 -0.2748 -0.5786
vn 0.8382 -0.4116 -0.3578
vn -0.7368 0.4178 0.5316
vn 0.3431 0.1307 -0.9301
vn -0.6739 0.2997 0.6753
vn -0.6478 0.1877 0.7383
vn -0.0161 -0.1327 0.9910
vn 0.1161 -0.1353 0.9840
vn 0.7236 -0.1596 -0.6714
vn 0.5988 0.0543 -0.7990
vn -0.7311 0.0290 0.6817
vn -0.9729 -0.2150 0.0844
vn -0.6629 0.0708 0.7454
vn 0.9504 -0.2932 0.1035
vn -0.9296 -0.0645 -0.3628
vn -0.0563 -0.0636 -0.9964
vn 0.1170 -0.0814 0.9898
vn 0.7190 -0.3612 -0.5937
vn -0.6491 0.1125 0.7523
s 1
f 4/1/1 7/2/2 61/3/3 47/4/4
f 46/5/5 65/6/6 20/7/7 19/8/8
f 5/9/9 6/10/10 50/11/11 48/12/12
f 71/13/13 1/14/14 85/15/15
f 9/16/16 2/17/17 67/18/18 51/19/19
f 48/12/12 50/11/11 7/2/2 4/1/1
f 10/20/20 13/21/21 62/22/22 52/23/23
f 51/19/19 67/18/18 22/24/24 21/25/25
f 11/26/26 12/27/27 54/28/28 53/29/29
f 76/30/30 8/31/31 86/32/32
f 53/29/29 54/28/28 13/21/21 10/20/20
f 15/33/33 18/34/34 63/35/35 56/36/36
f 60/37/37 68/38/38 23/39/39 24/40/40
f 16/41/41 17/42/42 59/43/43 57/44/44
f 80/45/45 14/46/46 87/47/47
f 24/40/40 23/39/39 55/48/48 69/49/49
f 57/44/44 59/43/43 18/34/34 15/33/33
f 9/16/16 3/50/50 2/17/17
f 19/8/8 20/7/7 49/51/51 64/52/52
f 40/53/53 41/54/54 89/55/55 70/56/56
f 21/25/25 22/24/24 58/57/57 66/58/58
f 64/52/52 49/51/51 6/10/10 5/9/9
f 45/59/59 44/60/60 92/61/61 84/62/62
f 66/58/58 58/57/57 12/27/27 11/26/26
f 69/49/49 55/48/48 17/42/42 16/41/41
f 70/56/56 89/55/55 26/63/63 25/64/64
f 47/4/4 1/65/14 116/66/65
f 71/13/13 85/15/15 30/67/66 27/68/67
f 27/68/67 30/67/66 74/69/68 72/70/69
f 72/70/69 74/69/68 29/71/70 28/72/71
f 42/73/72 43/74/73 91/75/74 75/76/75
f 75/76/75 91/75/74 25/77/64 31/78/76
f 52/23/23 8/79/31 121/80/77
f 76/30/30 86/32/32 35/81/78 32/82/79
f 32/82/79 35/81/78 78/83/80 77/84/81
f 77/84/81 78/83/80 34/85/82 33/86/83
f 31/78/76 25/77/64 26/87/63
f 84/62/62 92/61/61 31/88/76 26/87/63
f 56/36/36 14/89/46 125/90/84
f 80/45/45 87/47/47 39/91/85 36/92/86
f 36/92/86 39/91/85 83/93/87 81/94/88
f 81/94/88 83/93/87 38/95/89 37/96/90
f 28/72/71 29/71/70 73/97/91 88/98/92
f 37/96/90 38/95/89 79/99/93 93/100/94
f 63/35/35 14/101/46 56/36/36
f 3/50/50 9/102/16 68/38/38 60/37/37
f 88/98/92 73/97/91 41/54/54 40/53/53
f 33/86/83 34/85/82 82/103/95 90/104/96
f 90/104/96 82/103/95 43/74/73 42/73/72
f 93/100/94 79/99/93 44/60/60 45/59/59
f 2/105/17 46/5/5 115/106/97 94/107/98
f 46/5/5 19/8/8 109/108/99 115/106/97
f 115/106/97 109/108/99 40/53/53 70/56/56
f 94/107/98 115/106/97 70/56/56 25/64/64
f 4/1/1 47/4/4 116/66/65 96/109/100
f 116/66/65 1/110/14 71/13/13
f 61/3/3 130/111/101 1/112/14
f 96/109/100 116/66/65 71/13/13 27/68/67
f 5/9/9 48/12/12 117/113/102 97/114/103
f 48/12/12 4/1/1 96/109/100 117/113/102
f 117/113/102 96/109/100 27/68/67 72/70/69
f 97/114/103 117/113/102 72/70/69 28/72/71
f 6/10/10 49/51/51 118/115/104 98/116/105
f 49/51/51 20/7/7 110/117/106 118/115/104
f 118/115/104 110/117/106 41/54/54 73/97/91
f 98/116/105 118/115/104 73/97/91 29/71/70
f 7/2/2 50/11/11 119/118/107 99/119/108
f 50/11/11 6/10/10 98/116/105 119/118/107
f 119/118/107 98/116/105 29/71/70 74/69/68
f 99/119/108 119/118/107 74/69/68 30/67/66
f 130/111/101 85/15/15 1/120/14
f 9/16/16 51/19/19 120/121/109 100/122/110
f 51/19/19 21/25/25 111/123/111 120/121/109
f 120/121/109 111/123/111 42/73/72 75/76/75
f 100/122/110 120/121/109 75/76/75 31/78/76
f 10/20/20 52/23/23 121/80/77 101/124/112
f 121/80/77 8/125/31 76/30/30
f 62/22/22 131/126/113 8/127/31
f 101/124/112 121/80/77 76/30/30 32/82/79
f 11/26/26 53/29/29 122/128/114 102/129/115
f 53/29/29 10/20/20 101/124/112 122/128/114
f 122/128/114 101/124/112 32/82/79 77/84/81
f 102/129/115 122/128/114 77/84/81 33/86/83
f 13/21/21 54/28/28 123/130/116 104/131/117
f 54/28/28 12/27/27 103/132/118 123/130/116
f 123/130/116 103/132/118 34/85/82 78/83/80
f 104/131/117 123/130/116 78/83/80 35/81/78
f 8/133/31 131/126/113 86/32/32
f 61/3/3 1/134/14 47/4/4
f 17/42/42 55/48/48 124/135/119 107/136/120
f 55/48/48 23/39/39 113/137/121 124/135/119
f 124/135/119 113/137/121 44/60/60 79/99/93
f 107/136/120 124/135/119 79/99/93 38/95/89
f 15/33/33 56/36/36 125/90/84 105/138/122
f 125/90/84 14/139/46 80/45/45
f 63/35/35 132/140/123 14/141/46
f 105/138/122 125/90/84 80/45/45 36/92/86
f 16/41/41 57/44/44 126/142/124 106/143/125
f 57/44/44 15/33/33 105/138/122 126/142/124
f 126/142/124 105/138/122 36/92/86 81/94/88
f 106/143/125 126/142/124 81/94/88 37/96/90
f 12/27/27 58/57/57 127/144/126 103/132/118
f 58/57/57 22/24/24 112/145/127 127/144/126
f 127/144/126 112/145/127 43/74/73 82/103/95
f 103/132/118 127/144/126 82/103/95 34/85/82
f 18/34/34 59/43/43 128/146/128 108/147/129
f 59/43/43 17/42/42 107/136/120 128/146/128
f 128/146/128 107/136/120 38/95/89 83/93/87
f 108/147/129 128/146/128 83/93/87 39/91/85
f 132/140/123 87/47/47 14/148/46
f 62/22/22 8/149/31 52/23/23
f 3/50/50 60/37/37 129/150/130 95/151/131
f 60/37/37 24/40/40 114/152/132 129/150/130
f 129/150/130 114/152/132 45/59/59 84/62/62
f 95/151/131 129/150/130 84/62/62 26/87/63
f 61/3/3 7/2/2 99/119/108 130/111/101
f 130/111/101 99/119/108 30/67/66 85/15/15
f 62/22/22 13/21/21 104/131/117 131/126/113
f 131/126/113 104/131/117 35/81/78 86/32/32
f 63/35/35 18/34/34 108/147/129 132/140/123
f 132/140/123 108/147/129 39/91/85 87/47/47
f 19/8/8 64/52/52 133/153/133 109/108/99
f 64/52/52 5/9/9 97/114/103 133/153/133
f 133/153/133 97/114/103 28/72/71 88/98/92
f 109/108/99 133/153/133 88/98/92 40/53/53
f 20/7/7 65/6/6 134/154/134 110/117/106
f 65/6/6 3/155/50 95/156/131 134/154/134
f 134/154/134 95/156/131 26/63/63 89/55/55
f 110/117/106 134/154/134 89/55/55 41/54/54
f 21/25/25 66/58/58 135/157/135 111/123/111
f 66/58/58 11/26/26 102/129/115 135/157/135
f 135/157/135 102/129/115 33/86/83 90/104/96
f 111/123/111 135/157/135 90/104/96 42/73/72
f 22/24/24 67/18/18 136/158/136 112/145/127
f 67/18/18 2/17/17 94/159/98 136/158/136
f 136/158/136 94/159/98 25/77/64 91/75/74
f 112/145/127 136/158/136 91/75/74 43/74/73
f 23/39/39 68/38/38 137/160/137 113/137/121
f 68/38/38 9/102/16 100/161/110 137/160/137
f 137/160/137 100/161/110 31/88/76 92/61/61
f 113/137/121 137/160/137 92/61/61 44/60/60
f 24/40/40 69/49/49 138/162/138 114/152/132
f 69/49/49 16/41/41 106/143/125 138/162/138
f 138/162/138 106/143/125 37/96/90 93/100/94
f 114/152/132 138/162/138 93/100/94 45/59/59
f 2/105/17 3/155/50 65/6/6 46/5/5
