# Blender v2.93.5 OBJ File: 'kit.blend'
# www.blender.org
o GroundWood2_Cylinder.022
v 0.950140 -0.202041 -0.982441
v 0.952259 0.000000 -0.982516
v 0.387598 -0.197960 -0.962685
v 0.389718 0.000000 -0.962760
v -0.960073 0.000000 1.055573
v -0.962194 -0.197960 1.055573
v -0.419052 0.000000 1.075097
v -0.421173 -0.202041 1.075097
v -0.962514 0.000000 -0.977477
v -0.964634 -0.197960 -0.977477
v -0.484012 0.000000 -0.953813
v -0.486132 -0.202041 -0.953813
v 0.919319 -0.202041 1.026287
v 0.921439 0.000000 1.026287
v 0.451854 -0.197960 1.026287
v 0.453974 0.000000 1.026287
v 0.295139 -0.202041 -0.923786
v 0.297260 0.000000 -0.923786
v -0.380905 -0.197960 -0.923786
v -0.378785 0.000000 -0.923786
v 0.338416 -0.202041 0.935693
v 0.340531 0.000000 0.935548
v -0.324386 -0.197960 0.981238
v -0.322271 0.000000 0.981092
v -0.390353 -0.040008 1.075097
v -0.990841 -0.037967 1.055573
v -0.455312 -0.040008 -0.953813
v -0.993281 -0.037967 -0.977477
v 0.325717 -0.040008 -0.923786
v -0.409310 -0.037967 -0.923786
v -0.352724 -0.037967 0.983185
v 0.368921 -0.040008 0.933597
v 0.983530 -0.040008 -0.983614
v 0.356385 -0.037967 -0.961589
v 0.420622 -0.037967 1.026287
v 0.952729 -0.040008 1.026287
v -0.991424 -0.153554 1.055573
v -0.993864 -0.153554 -0.977477
v -0.390935 -0.156615 1.075097
v -0.455895 -0.156615 -0.953813
v -0.409892 -0.153554 -0.923786
v -0.353305 -0.153554 0.983225
v 0.325134 -0.156615 -0.923786
v 0.368340 -0.156615 0.933637
v 0.355798 -0.153554 -0.961569
v 0.420034 -0.153554 1.026287
v 0.952141 -0.156615 1.026287
v 0.982943 -0.156615 -0.983593
v -0.194891 0.000000 -0.923786
v 0.182926 0.000000 0.946378
v -0.170624 -0.198806 0.971771
v -0.175175 -0.111554 -0.923786
v -0.144902 0.000000 -0.923786
v -0.170482 0.000000 -0.592828
v -0.184913 -0.038470 0.971654
v -0.589343 0.000000 1.068952
v -0.569964 -0.155651 1.068952
v 0.782546 -0.200173 -0.973399
v 0.516098 0.000000 1.026287
v 0.815651 -0.039074 -0.973533
v 0.528007 -0.113972 1.026287
v -0.534732 0.000000 1.070922
v -0.592952 0.000000 0.532119
v 0.813849 -0.200173 -0.655335
v 0.844733 -0.200624 -0.975583
v -0.217640 -0.198517 0.975002
v -0.207601 -0.198806 0.374106
v 0.128139 0.000000 0.478683
v 0.222267 -0.125421 0.943674
v 0.232715 0.000000 0.942956
v 0.543203 0.000000 1.026287
v 0.543908 0.000000 0.880429
vt 0.128906 0.655806
vt 0.153853 0.655806
vt 0.153853 0.680752
vt 0.128906 0.680752
vt 0.069771 0.655806
vt 0.103960 0.655806
vt 0.103960 0.680752
vt 0.069771 0.680052
vt 0.182433 0.655806
vt 0.128906 0.587428
vt 0.188042 0.658998
vt 0.128906 0.655806
vt 0.153853 0.655806
vt 0.153853 0.680752
vt 0.128906 0.680752
vt 0.128906 0.707810
vt 0.153853 0.730646
vt 0.128906 0.730646
vt 0.103960 0.680752
vt 0.081681 0.680752
vt 0.076902 0.676785
vt 0.180910 0.657600
vt 0.153853 0.601691
vt 0.128906 0.601691
vt 0.128906 0.532095
vt 0.153853 0.532095
vt 0.153853 0.556020
vt 0.128906 0.556020
vt 0.128906 0.531073
vt 0.153853 0.531073
vt 0.153853 0.556020
vt 0.128906 0.556020
vt 0.128906 0.655806
vt 0.153853 0.655806
vt 0.153853 0.680752
vt 0.128906 0.680752
vt 0.121025 0.691098
vt 0.153853 0.694747
vt 0.153853 0.730646
vt 0.128906 0.730646
vt 0.093614 0.659976
vt 0.093614 0.655806
vt 0.116433 0.631299
vt 0.164198 0.675844
vt 0.203746 0.680752
vt 0.167847 0.680752
vt 0.128906 0.531073
vt 0.153853 0.531073
vt 0.153853 0.556020
vt 0.128906 0.556020
vt 0.116433 0.532095
vt 0.116433 0.556020
vt 0.116433 0.655806
vt 0.116433 0.680752
vt 0.116433 0.531073
vt 0.116433 0.556020
vt 0.116433 0.691098
vt 0.116433 0.730646
vt 0.116433 0.655806
vt 0.116433 0.680752
vt 0.116433 0.531073
vt 0.116433 0.556020
vt 0.116433 0.655806
vt 0.116433 0.680752
vt 0.103960 0.532095
vt 0.103960 0.556020
vt 0.103960 0.655806
vt 0.103960 0.680752
vt 0.103960 0.730646
vt 0.103960 0.531073
vt 0.103960 0.556020
vt 0.103960 0.655806
vt 0.103960 0.703031
vt 0.116433 0.704539
vt 0.103960 0.531073
vt 0.103960 0.556020
vt 0.054067 0.655806
vt 0.076902 0.655806
vt 0.054067 0.680752
vt 0.164198 0.680752
vt 0.054067 0.655806
vt 0.153853 0.691098
vt 0.116433 0.601691
vt 0.191875 0.655806
vt 0.128906 0.631204
vt 0.116433 0.575895
vt 0.203746 0.655806
vt 0.195625 0.655806
vt 0.128906 0.574957
vt 0.116433 0.587428
vt 0.186286 0.659852
vt 0.103960 0.587428
vt 0.116439 0.714350
vt 0.103970 0.714248
vt 0.128955 0.714356
vt 0.153993 0.714264
vt 0.188042 0.680052
vt 0.153853 0.592231
vt 0.103960 0.601691
vt 0.180910 0.680752
vt 0.071387 0.680753
vt 0.153853 0.707810
vt 0.193078 0.655806
vt 0.203746 0.655806
vt 0.103960 0.713326
vt 0.116433 0.711200
vt 0.116433 0.730646
vt 0.103960 0.730646
vt 0.097145 0.655806
vt 0.116433 0.636281
vt 0.128906 0.579588
vt 0.054067 0.680752
vt 0.093614 0.680752
vt 0.185640 0.655806
vt 0.203746 0.655806
vt 0.180910 0.655806
vn -0.7769 0.6296 0.0009
vn -0.0080 -1.0000 0.0001
vn 0.9923 0.1235 -0.0067
vn -0.7510 0.6599 0.0243
vn -0.0600 -0.0195 -0.9980
vn -0.0056 -1.0000 0.0005
vn 0.9772 0.1021 0.1863
vn 0.8123 0.5827 -0.0260
vn 0.7878 0.6158 0.0121
vn -0.7792 0.6264 0.0231
vn 0.0000 -0.0000 -1.0000
vn -0.9942 -0.0886 0.0615
vn 0.0000 1.0000 0.0000
vn 0.8148 0.5794 -0.0190
vn 0.9995 -0.0050 -0.0320
vn -1.0000 0.0050 0.0012
vn 0.9997 -0.0050 -0.0233
vn -0.9995 0.0050 0.0297
vn 0.9999 -0.0050 0.0153
vn -0.9995 0.0051 0.0323
vn -0.8353 -0.5498 0.0010
vn 0.8321 -0.5539 -0.0266
vn -0.8372 -0.5464 0.0248
vn 0.8344 -0.5508 -0.0194
vn -0.8125 -0.5824 0.0263
vn 0.9750 -0.2004 -0.0960
vn 0.8106 -0.5854 0.0124
vn -0.0101 -0.9999 -0.0005
vn -0.0063 -1.0000 0.0004
vn 0.9822 0.1736 -0.0724
vn -0.9624 0.2612 -0.0744
vn -0.0053 -1.0000 0.0002
vn 0.0000 0.0000 1.0000
vn 0.0686 0.0000 0.9976
vn 0.0703 0.0056 0.9975
vn -0.0343 0.0002 0.9994
vn -0.0342 0.0227 0.9992
vn -0.9723 0.0822 0.2190
vn -0.0342 0.0007 0.9994
vn -0.0317 0.0002 0.9995
vn -0.0335 0.0020 0.9994
vn 0.0465 -0.0005 -0.9989
vn 0.0439 -0.0002 -0.9990
vn 0.0465 -0.0012 -0.9989
vn -0.0272 0.0050 -0.9996
vn -0.0260 -0.0000 -0.9997
vn -0.0134 -0.9999 0.0001
vn -0.0310 -0.0630 -0.9975
vn -0.0314 -0.0090 0.9995
vn -0.9702 0.2183 0.1048
vn -0.0596 0.0054 -0.9982
vn -0.0599 0.0001 -0.9982
vn -0.9800 -0.1752 -0.0943
vn 0.0623 0.0055 0.9980
vn -0.0052 -1.0000 0.0004
vn 0.9797 -0.2000 0.0165
vn 0.9476 0.2996 -0.1110
vn -0.0061 -1.0000 0.0001
vn -0.0063 -1.0000 0.0002
vn -0.9912 0.1322 -0.0048
s off
f 26/1/1 5/2/1 9/3/1 28/4/1
f 8/5/2 6/6/2 10/7/2 12/8/2
f 56/9/3 57/10/3 63/11/3
f 35/12/4 16/13/4 4/14/4 34/15/4
f 60/16/5 2/17/5 33/18/5
f 3/19/6 58/20/6 64/21/6
f 72/22/7 59/23/7 61/24/7
f 27/25/8 11/26/8 7/27/8 25/28/8
f 33/29/9 2/30/9 14/31/9 36/32/9
f 31/33/10 24/34/10 20/35/10 30/36/10
f 52/37/11 53/38/11 18/39/11 29/40/11
f 67/41/12 51/42/12 55/43/12
f 54/44/13 18/45/13 53/46/13
f 29/47/14 18/48/14 22/49/14 32/50/14
f 40/51/15 27/25/15 25/28/15 39/52/15
f 37/53/16 26/1/16 28/4/16 38/54/16
f 43/55/17 29/47/17 32/50/17 44/56/17
f 19/57/11 52/37/11 29/40/11 43/58/11
f 42/59/18 31/33/18 30/36/18 41/60/18
f 48/61/19 33/29/19 36/32/19 47/62/19
f 46/63/20 35/12/20 34/15/20 45/64/20
f 6/6/21 37/53/21 38/54/21 10/7/21
f 12/65/22 40/51/22 39/52/22 8/66/22
f 23/67/23 42/59/23 41/60/23 19/68/23
f 19/57/11 43/58/11 17/69/11
f 17/70/24 43/55/24 44/56/24 21/71/24
f 15/72/25 46/63/25 45/64/25 3/19/25
f 58/73/26 60/74/26 64/21/26
f 1/75/27 48/61/27 47/62/27 13/76/27
f 13/77/28 15/78/28 64/21/28 1/79/28
f 41/60/11 30/36/11 52/37/11 19/57/11
f 20/35/13 54/44/13 49/80/13
f 21/81/29 51/42/29 67/41/29
f 30/36/11 20/35/11 49/82/11 52/37/11
f 49/80/30 54/44/30 52/37/30
f 54/44/31 53/38/31 52/37/31
f 15/72/32 3/19/32 64/21/32
f 59/23/33 16/13/33 35/12/33 61/24/33
f 61/24/33 35/12/33 46/83/33
f 50/84/34 24/34/34 31/33/34 55/85/34
f 32/50/34 69/86/34 44/56/34
f 69/86/35 55/43/35 51/42/35 21/71/35
f 22/87/34 70/88/34 69/89/34 32/50/34
f 57/90/36 39/52/36 25/28/36
f 8/66/37 39/52/37 57/90/37
f 69/89/38 70/88/38 68/91/38
f 24/34/13 50/84/13 68/91/13
f 6/6/39 8/92/39 57/90/39 37/53/39
f 37/53/40 57/10/40 26/1/40
f 26/1/41 57/10/41 56/9/41 5/2/41
f 10/7/42 38/54/42 40/93/42 12/94/42
f 38/54/43 28/4/43 27/95/43 40/93/43
f 28/4/44 9/3/44 11/96/44 27/95/44
f 9/3/13 63/11/13 11/97/13
f 36/32/33 61/24/33 46/83/33 47/62/33
f 14/31/33 71/98/33 61/24/33 36/32/33
f 47/62/33 46/83/33 15/99/33 13/76/33
f 3/19/45 45/64/45 60/74/45 58/73/45
f 45/64/46 34/15/46 60/74/46
f 4/14/13 72/22/13 2/100/13
f 1/79/47 64/21/47 65/101/47
f 34/15/48 4/14/48 2/102/48 60/16/48
f 62/103/49 57/10/49 25/28/49 7/104/49
f 62/103/50 63/11/50 57/10/50
f 63/11/13 62/103/13 7/104/13 11/97/13
f 65/105/51 60/106/51 48/107/51 1/108/51
f 60/16/52 33/18/52 48/107/52
f 60/106/53 65/101/53 64/21/53
f 55/85/34 31/33/34 42/59/34
f 66/109/54 55/110/54 42/59/54 23/67/54
f 67/41/55 66/109/55 23/67/55
f 55/110/56 66/109/56 67/41/56
f 50/84/57 69/111/57 68/91/57
f 68/91/13 70/88/13 22/87/13
f 69/111/34 50/84/34 55/85/34
f 20/35/13 24/34/13 68/91/13 54/44/13
f 54/44/13 68/91/13 22/87/13 18/45/13
f 44/56/34 69/86/34 21/71/34
f 17/112/58 21/81/58 67/41/58 19/113/58
f 19/113/59 67/41/59 23/67/59
f 72/22/13 71/114/13 14/115/13 2/100/13
f 61/24/60 71/114/60 72/22/60
f 5/2/13 56/9/13 63/11/13 9/3/13
f 16/13/13 59/116/13 72/22/13 4/14/13
