# Blender v2.93.5 OBJ File: 'kit.blend'
# www.blender.org
o GroundDirt8_Cube.032
v 4.000000 0.000000 -3.999999
v 4.000000 0.000000 3.999999
v -4.000000 0.000000 -3.999999
v -4.000000 0.000000 3.999999
v 4.000000 -1.000000 3.999999
v -2.776760 -1.000000 3.999999
v 4.000000 -0.577062 3.999999
v 4.000000 -0.450609 3.999999
v 4.000000 -1.000000 -3.999999
v 4.000000 -1.000000 -0.980477
v -4.000000 -0.480468 -3.999999
v -4.000000 -0.719532 -3.999999
v 0.000000 -1.000000 3.999999
v -1.148067 -0.600000 -3.999999
v -4.000000 -0.474877 0.000000
v -0.845753 -0.445000 3.999999
v 4.000000 -1.000000 1.374931
v 4.000000 -0.569171 1.199422
v 0.000000 -1.000000 0.000000
v 4.000000 -1.000000 -1.275067
v 2.459210 -1.000000 -0.716753
v 4.000000 -0.611620 -1.575696
v -2.584296 -1.000000 3.999999
v -2.461990 -0.266587 3.999999
v -2.825406 -1.000000 3.149799
v -4.000000 -1.000000 -4.000000
v -4.000000 -1.000000 4.000000
v 4.020000 -0.263436 3.147530
v 4.020000 -0.218698 -2.140277
v 4.020000 -0.162804 3.158515
v 4.020000 -0.148548 2.992232
v 4.020000 -0.170819 -2.112921
v 4.020000 -0.763827 2.347626
v 4.020000 -0.789714 2.432836
v 4.020000 -0.796417 2.309452
v 4.020000 -0.815620 2.378139
v 3.203412 0.000000 2.503084
v 3.191593 0.000000 2.563169
v 3.249534 0.000000 2.514832
v 3.257417 0.000000 2.569910
v 1.261249 0.000000 3.348776
v 1.243006 0.000000 3.221299
v 1.108901 0.000000 3.333174
v 1.136254 0.000000 3.194107
v 2.203583 -0.290609 -4.020002
v 2.293738 -0.361002 -4.020002
v 2.170354 -0.367706 -4.020001
v 2.239042 -0.386909 -4.020001
v -1.847305 -0.788755 -4.020001
v -1.762607 -0.780416 -4.000000
v -1.803412 -0.876021 -4.020001
v -1.712944 -0.840190 -4.000000
v -1.173432 -0.308837 4.019997
v -1.113856 -0.338458 4.019998
v -1.179684 -0.251560 4.019998
v -1.104782 -0.220572 4.019998
v -1.061379 -0.281628 4.019998
v -2.886712 -0.311447 4.019997
v -2.976867 -0.381841 4.019997
v -2.853483 -0.388545 4.019997
v -2.922171 -0.407747 4.019997
v 0.082455 -0.738197 4.019998
v 0.016598 -0.765241 4.019998
v 0.105784 -0.802083 4.019998
v 0.024060 -0.812516 4.019998
v 4.020000 -0.440605 0.117886
v 4.020000 -0.473021 0.073277
v 4.020000 -0.410973 0.071368
v 4.020000 -0.453362 0.034499
v -4.020001 -0.415753 -1.585867
v -4.020001 -0.413806 -1.523713
v -4.020001 -0.315121 -1.596852
v -4.020001 -0.295920 -1.514638
v -4.020001 -0.356976 -1.471235
v -4.020001 -0.798949 -0.795798
v -4.020001 -0.849561 -0.772213
v -4.032001 -0.838868 -0.615105
v -4.020001 -0.875468 -0.717516
v -4.020000 -0.391660 3.213719
v -4.020000 -0.388597 3.126103
v -4.020000 -0.450166 3.183624
v -4.020000 -0.435873 3.137121
v 3.454870 -0.113343 4.019998
v 3.403289 -0.140387 4.019998
v 3.473143 -0.177229 4.019998
v 3.409134 -0.187662 4.019999
v -4.016448 -0.275645 0.008263
v -4.018855 -0.337888 0.078215
v -4.024934 -0.245288 0.010597
v -4.031771 -0.284724 0.072631
v 0.787269 0.000000 1.751439
v 0.845075 0.000000 1.751565
v 0.804036 0.000000 1.684770
v 0.864046 0.000000 1.705899
v 2.381739 0.000000 2.044213
v 2.191205 0.000000 1.981019
v 2.320125 0.000000 2.313738
v 2.090096 0.000000 2.288461
v 2.079037 0.000000 2.111042
v 1.902199 0.000000 2.100529
v 1.816887 0.000000 2.097030
v 1.908607 0.000000 2.217952
v 1.811593 0.000000 2.234586
v 1.786270 0.000000 2.163343
v 1.881732 0.000000 1.515035
v 1.934332 0.000000 1.432895
v 1.862346 0.000000 1.425073
v 1.902420 0.000000 1.402666
v 2.081125 0.000000 -2.429733
v 2.082629 0.000000 -2.356575
v 2.181228 0.000000 -2.441404
v 2.200571 0.000000 -2.359297
v 2.140966 0.000000 -2.333881
v 2.027931 0.000000 -2.759858
v 2.055077 0.000000 -2.711291
v 2.091780 0.000000 -2.777218
v 2.102341 0.000000 -2.716900
v 0.151935 0.000000 2.341016
v 0.237025 0.000000 2.293690
v 0.121791 0.000000 2.229217
v 0.227385 0.000000 2.210959
v 1.929800 0.000000 -1.088889
v 1.978425 0.000000 -1.115933
v 1.912575 0.000000 -1.152775
v 1.972916 0.000000 -1.163208
v 2.326274 0.000000 -2.823126
v 2.240836 0.000000 -2.673807
v 2.528696 0.000000 -2.662759
v 2.331010 0.000000 -2.557506
v -0.095333 0.000000 -0.829502
v -0.019669 0.000000 -0.829337
v -0.073387 0.000000 -0.916767
v 0.005163 0.000000 -0.889111
v -0.264590 0.000000 3.058563
v -0.176165 0.000000 3.058756
v -0.238943 0.000000 2.956580
v -0.147146 0.000000 2.988901
v -0.758651 0.000000 -1.359000
v -0.815492 0.000000 -1.348481
v -0.762856 0.000000 -1.290384
v -0.825730 0.000000 -1.300103
v -2.394568 0.000000 -1.688803
v -2.224101 0.000000 -1.665637
v -2.385198 0.000000 -1.925559
v -2.187444 0.000000 -1.940564
v -2.150134 0.000000 -1.792861
v -1.534677 0.000000 -1.788071
v -1.462263 0.000000 -1.798586
v -1.558604 0.000000 -1.885971
v -1.479509 0.000000 -1.915291
v -1.446937 0.000000 -1.859275
v -2.061130 0.000000 -1.670225
v -2.092476 0.000000 -1.592735
v -2.030604 0.000000 -1.597505
v -2.060825 0.000000 -1.572307
v -0.600866 0.000000 -2.461762
v -0.643680 0.000000 -2.426228
v -0.572172 0.000000 -2.402140
v -0.629560 0.000000 -2.380775
v -2.886065 0.000000 -0.140347
v -2.982132 0.000000 -0.060613
v -2.821680 0.000000 -0.006562
v -2.950450 0.000000 0.041377
v 0.244908 0.000000 -1.655439
v 0.157959 0.000000 -1.639347
v 0.238476 0.000000 -1.550478
v 0.142298 0.000000 -1.565344
v -0.666713 0.000000 0.933539
v -0.597848 0.000000 0.958276
v -0.641843 0.000000 0.835874
v -0.558245 0.000000 0.847149
v -0.555807 0.000000 0.911901
v -2.377941 0.000000 1.458012
v -2.322881 0.000000 1.450013
v -2.371339 0.000000 1.392174
v -2.311230 0.000000 1.403866
v -0.610672 0.000000 -0.189503
v -0.625813 0.000000 -0.295300
v -0.737109 0.000000 -0.202452
v -0.714408 0.000000 -0.317866
v -2.330421 0.000000 1.156759
v -2.221492 0.000000 1.289913
v -2.108308 0.000000 1.025008
v -2.080646 0.000000 1.247254
v -1.005411 0.000000 2.361239
v -0.978219 0.000000 2.290629
v -1.079073 0.000000 2.309558
v -1.025173 0.000000 2.246077
v -3.281490 0.000000 2.437278
v -3.263601 0.000000 2.489963
v -3.215550 0.000000 2.431785
v -3.216104 0.000000 2.493018
v 2.621737 0.000000 0.344122
v 2.661752 0.000000 0.282859
v 2.532489 0.000000 0.297308
v 2.562819 0.000000 0.218595
v 2.626375 0.000000 0.231220
v -2.021276 0.000000 2.939647
v -2.016305 0.000000 2.884231
v -2.083794 0.000000 2.917976
v -2.058499 0.000000 2.862209
v 1.493904 0.000000 -0.597395
v 1.352432 0.000000 -0.610387
v 1.438232 0.000000 -0.437878
v 1.295973 0.000000 -0.502768
v -2.792008 0.000000 3.157376
v -2.637245 0.000000 3.082249
v -2.868733 0.000000 2.910789
v -2.646124 0.000000 2.935353
v 1.286634 -0.386513 -4.020001
v 1.360271 -0.434494 -4.020001
v 1.197072 -0.442796 -4.020001
v 1.308434 -0.479270 -4.020001
v 1.833713 -0.729547 -4.020001
v 1.911209 -0.739035 -4.020001
v 1.834098 -0.776989 -4.020001
v 1.921503 -0.772771 -4.020001
v -4.031771 -0.699077 2.133145
v -4.024934 -0.734001 2.068463
v -4.018855 -0.720130 2.182281
v -4.016448 -0.750843 2.093827
v 0.865646 0.000000 0.708235
v 0.846562 0.000000 0.805262
v 0.940127 0.000000 0.727206
v 0.952856 0.000000 0.816148
v -2.388950 0.000000 -3.153639
v -2.400768 0.000000 -3.093554
v -2.342827 0.000000 -3.141891
v -2.334945 0.000000 -3.086813
v -3.551070 0.000000 -2.947097
v -3.498187 0.000000 -2.848442
v -3.422758 0.000000 -3.032557
v -3.339347 0.000000 -2.934101
v -3.402918 0.000000 -2.858049
v 1.042389 0.000000 -3.447897
v 0.950549 0.000000 -3.538168
v 0.911813 0.000000 -3.367875
v 0.849190 0.000000 -3.495021
v 3.358626 0.000000 -1.025712
v 3.460570 0.000000 -0.939052
v 3.487940 0.000000 -1.118431
v 3.562371 0.000000 -0.991367
v -1.814191 0.000000 -0.732541
v -1.871032 0.000000 -0.722022
v -1.818396 0.000000 -0.663925
v -1.881271 0.000000 -0.673644
v -0.603792 -0.285251 -4.016288
v -0.586117 -0.335759 -4.003713
v -0.650588 -0.325029 -4.016288
v -0.615260 -0.374979 -4.003713
v 3.220288 -0.646486 -4.016288
v 3.273790 -0.645549 -4.003713
v 3.243376 -0.703398 -4.016288
v 3.301887 -0.685525 -4.003713
v -4.016448 -0.858615 -3.264163
v -4.018855 -0.861897 -3.170586
v -4.024934 -0.833753 -3.281738
v -4.031771 -0.824529 -3.208812
v 4.020000 -0.162911 -2.167505
v 4.020000 -0.216703 -2.183707
vt 0.938459 0.121684
vt 0.937208 0.162133
vt 0.929177 0.153266
vt 0.930846 0.123090
vt 0.845178 0.170200
vt 0.847561 0.127256
vt 0.890140 0.125000
vt 0.888079 0.167511
vt 0.891637 0.076588
vt 0.939955 0.073272
vt 0.933091 0.082505
vt 0.892385 0.084415
vt 0.849622 0.084745
vt 0.870042 0.101060
vt 0.930658 0.165255
vt 0.911419 0.152594
vt 0.928951 0.157354
vt 0.890140 0.189067
vt 0.826597 0.195193
vt 0.833461 0.185960
vt 0.889392 0.181239
vt 0.953683 0.054807
vt 0.946819 0.064040
vt 0.890889 0.068761
vt 0.939955 0.073272
vt 0.953683 0.118874
vt 0.946071 0.120279
vt 0.834209 0.129721
vt 0.833461 0.185960
vt 0.826597 0.131126
vt 0.888644 0.173412
vt 0.840325 0.176728
vt 0.841822 0.128316
vt 0.890140 0.060933
vt 0.848976 0.072298
vt 0.838274 0.069793
vt 0.834958 0.073482
vt 0.888008 0.163540
vt 0.841822 0.128316
vt 0.890889 0.068761
vt 0.855429 0.079073
vt 0.865095 0.085696
vt 0.865095 0.085696
vt 0.860335 0.085919
vt 0.864443 0.093937
vt 0.928951 0.157354
vt 0.936962 0.170096
vt 0.953683 0.182940
vt 0.945446 0.167267
vt 0.911419 0.152594
vt 0.843319 0.079904
vt 0.831729 0.092503
vt 0.832301 0.071441
vt 0.851679 0.086326
vt 0.066990 0.563084
vt 0.202541 0.563084
vt 0.202541 0.630859
vt 0.202541 0.698635
vt 0.066990 0.698635
vt 0.066990 0.563084
vt 0.202541 0.698635
vt 0.066990 0.563084
vt 0.202541 0.563084
vt 0.202541 0.630859
vt 0.202541 0.698635
vt 0.066990 0.563084
vt 0.202541 0.563084
vt 0.202541 0.630859
vt 0.202541 0.698635
vt 0.066990 0.563084
vt 0.202541 0.563084
vt 0.202541 0.630859
vt 0.202541 0.698635
vt 0.066990 0.563084
vt 0.202541 0.563084
vt 0.202541 0.630859
vt 0.202541 0.698635
vt 0.066990 0.563084
vt 0.202541 0.563084
vt 0.202541 0.630859
vt 0.202541 0.698635
vt 0.066990 0.563084
vt 0.202541 0.563084
vt 0.202541 0.630859
vt 0.202541 0.698635
vt 0.066990 0.698635
vt 0.066990 0.563084
vt 0.202541 0.563084
vt 0.202541 0.630859
vt 0.202541 0.698635
vt 0.066990 0.563084
vt 0.202541 0.563084
vt 0.202541 0.630859
vt 0.202541 0.698635
vt 0.066990 0.563084
vt 0.202541 0.563084
vt 0.202541 0.630859
vt 0.202541 0.698635
vt 0.066990 0.563084
vt 0.202541 0.563084
vt 0.202541 0.630859
vt 0.202541 0.698635
vt 0.066990 0.698635
vt 0.066990 0.563084
vt 0.202541 0.563084
vt 0.202541 0.630859
vt 0.202541 0.698635
vt 0.066990 0.563084
vt 0.202541 0.563084
vt 0.202541 0.630859
vt 0.202541 0.698635
vt 0.066990 0.563084
vt 0.202541 0.563084
vt 0.202541 0.630859
vt 0.202541 0.698635
vt 0.066990 0.563084
vt 0.202541 0.563084
vt 0.202541 0.630859
vt 0.202541 0.698635
vt 0.066990 0.563084
vt 0.202541 0.563084
vt 0.202541 0.630859
vt 0.202541 0.698635
vt 0.066990 0.563084
vt 0.202541 0.563084
vt 0.202541 0.630859
vt 0.202541 0.698635
vt 0.066990 0.698635
vt 0.066990 0.563084
vt 0.202541 0.563084
vt 0.202541 0.630859
vt 0.202541 0.698635
vt 0.066990 0.698635
vt 0.066990 0.563084
vt 0.202541 0.563084
vt 0.202541 0.630859
vt 0.202541 0.698635
vt 0.066990 0.563084
vt 0.202541 0.563084
vt 0.202541 0.630859
vt 0.202541 0.698635
vt 0.066990 0.698635
vt 0.066990 0.563084
vt 0.202541 0.563084
vt 0.202541 0.630859
vt 0.202541 0.698635
vt 0.066990 0.563084
vt 0.202541 0.563084
vt 0.202541 0.630859
vt 0.202541 0.698635
vt 0.066990 0.563084
vt 0.202541 0.563084
vt 0.202541 0.630859
vt 0.202541 0.698635
vt 0.066990 0.563084
vt 0.202541 0.563084
vt 0.202541 0.630859
vt 0.202541 0.698635
vt 0.066990 0.563084
vt 0.202541 0.563084
vt 0.202541 0.630859
vt 0.202541 0.698635
vt 0.066990 0.563084
vt 0.202541 0.563084
vt 0.202541 0.630859
vt 0.202541 0.698635
vt 0.066990 0.563084
vt 0.202541 0.563084
vt 0.202541 0.630859
vt 0.202541 0.698635
vt 0.066990 0.563084
vt 0.202541 0.563084
vt 0.202541 0.630859
vt 0.202541 0.698635
vt 0.066990 0.698635
vt 0.066990 0.563084
vt 0.202541 0.563084
vt 0.202541 0.630859
vt 0.202541 0.698635
vt 0.066990 0.698635
vt 0.066990 0.563084
vt 0.202541 0.563084
vt 0.202541 0.630859
vt 0.202541 0.698635
vt 0.066990 0.563084
vt 0.202541 0.563084
vt 0.202541 0.630859
vt 0.202541 0.698635
vt 0.066990 0.563084
vt 0.202541 0.563084
vt 0.202541 0.630859
vt 0.202541 0.698635
vt 0.066990 0.563084
vt 0.202541 0.563084
vt 0.202541 0.630859
vt 0.202541 0.698635
vt 0.066990 0.563084
vt 0.202541 0.563084
vt 0.202541 0.630859
vt 0.202541 0.698635
vt 0.066990 0.698635
vt 0.066990 0.563084
vt 0.202541 0.563084
vt 0.202541 0.630859
vt 0.202541 0.698635
vt 0.066990 0.563084
vt 0.202541 0.563084
vt 0.202541 0.630859
vt 0.202541 0.698635
vt 0.066990 0.563084
vt 0.202541 0.563084
vt 0.202541 0.630859
vt 0.202541 0.698635
vt 0.066990 0.563084
vt 0.202541 0.563084
vt 0.202541 0.630859
vt 0.202541 0.698635
vt 0.066990 0.563084
vt 0.202541 0.563084
vt 0.202541 0.630859
vt 0.202541 0.698635
vt 0.066990 0.563084
vt 0.202541 0.563084
vt 0.202541 0.630859
vt 0.202541 0.698635
vt 0.066990 0.698635
vt 0.066990 0.563084
vt 0.202541 0.563084
vt 0.202541 0.630859
vt 0.202541 0.698635
vt 0.066990 0.563084
vt 0.202541 0.563084
vt 0.202541 0.630859
vt 0.202541 0.698635
vt 0.066990 0.563084
vt 0.202541 0.563084
vt 0.202541 0.630859
vt 0.202541 0.698635
vt 0.066990 0.563084
vt 0.202541 0.563084
vt 0.202541 0.630859
vt 0.202541 0.698635
vt 0.066990 0.563084
vt 0.202541 0.563084
vt 0.202541 0.630859
vt 0.202541 0.698635
vt 0.066990 0.563084
vt 0.202541 0.563084
vt 0.202541 0.630859
vt 0.202541 0.698635
vt 0.066990 0.563084
vt 0.202541 0.563084
vt 0.202541 0.630859
vt 0.202541 0.698635
vt 0.066990 0.563084
vt 0.202541 0.563084
vt 0.202541 0.630859
vt 0.202541 0.698635
vt 0.066990 0.563084
vt 0.202541 0.563084
vt 0.202541 0.630859
vt 0.202541 0.698635
vt 0.066990 0.698635
vt 0.066990 0.563084
vt 0.202541 0.563084
vt 0.202541 0.630859
vt 0.202541 0.698635
vt 0.066990 0.563084
vt 0.202541 0.563084
vt 0.202541 0.630859
vt 0.202541 0.698635
vt 0.066990 0.563084
vt 0.202541 0.563084
vt 0.202541 0.630859
vt 0.202541 0.698635
vt 0.066990 0.563084
vt 0.202541 0.563084
vt 0.202541 0.630859
vt 0.202541 0.698635
vt 0.066990 0.563084
vt 0.202541 0.563084
vt 0.202541 0.630859
vt 0.202541 0.698635
vt 0.066990 0.563084
vt 0.202541 0.563084
vt 0.202541 0.630859
vt 0.202541 0.698635
vn 0.0000 0.0000 1.0000
vn 0.0000 -1.0000 0.0000
vn 1.0000 0.0000 0.0000
vn -1.0000 0.0000 0.0000
vn 0.0272 0.9996 0.0028
vn -0.0419 -0.9991 0.0014
vn 0.0000 0.0000 -1.0000
vn -0.0418 0.9973 -0.0610
vn -0.0012 -0.9991 0.0423
vn -0.0931 -0.8338 -0.5441
vn 0.2755 0.5884 0.7602
vn 0.9177 -0.3939 -0.0525
vn -0.9499 0.1584 0.2694
vn 0.0000 1.0000 0.0000
vn 0.1916 0.1219 -0.9739
vn -0.9948 -0.0727 -0.0710
vn -0.9336 -0.2492 -0.2574
vn -0.9336 -0.3463 0.0921
vn 0.1638 -0.1574 -0.9739
vn 0.2008 0.1061 -0.9739
vn -0.9336 -0.3562 -0.0391
s off
f 16/1/1 24/2/1 23/3/1 13/4/1
f 26/5/2 9/6/2 19/7/2 27/8/2
f 18/9/3 7/10/3 5/11/3 17/12/3
f 9/13/2 21/14/2 19/7/2
f 27/15/2 25/16/2 6/17/2
f 17/12/2 19/7/2 21/14/2
f 4/18/4 3/19/4 11/20/4 15/21/4
f 2/22/3 8/23/3 18/24/3
f 7/10/5 18/9/5 16/25/5
f 2/22/1 4/26/1 16/27/1 8/23/1
f 11/20/6 14/28/6 15/29/6
f 3/30/7 14/28/7 11/20/7
f 15/31/4 12/32/4 26/5/4 27/8/4
f 12/32/7 14/33/7 9/6/7 26/5/7
f 7/10/1 16/1/1 13/4/1 5/11/1
f 5/11/2 13/4/2 19/7/2 17/12/2
f 2/34/3 18/24/3 22/35/3 1/36/3
f 9/37/3 1/36/3 22/35/3
f 19/7/2 25/16/2 27/38/2
f 14/33/8 12/32/8 15/39/8
f 18/24/9 8/23/9 16/40/9
f 22/41/3 18/9/3 17/12/3 10/42/3
f 10/42/10 21/14/10 22/43/10
f 21/14/11 20/44/11 22/45/11
f 6/17/12 25/16/12 24/46/12
f 4/47/4 15/31/4 27/15/4
f 13/4/2 23/3/2 25/16/2 19/7/2
f 4/48/1 24/49/1 16/27/1
f 25/16/13 23/3/13 24/50/13
f 6/17/1 24/2/1 4/47/1 27/15/1
f 10/42/2 17/12/2 21/14/2
f 20/44/3 9/51/3 22/41/3
f 14/28/7 3/30/7 1/52/7
f 9/37/7 14/28/7 1/53/7
f 9/54/2 20/44/2 21/14/2
f 4/18/14 2/34/14 1/52/14 3/19/14
f 260/55/3 259/56/3 32/57/3 29/58/3
f 30/59/3 28/60/3 31/61/3
f 33/62/3 34/63/3 36/64/3 35/65/3
f 40/66/14 39/67/14 37/68/14 38/69/14
f 41/70/14 42/71/14 44/72/14 43/73/14
f 45/74/7 46/75/7 48/76/7 47/77/7
f 49/78/15 50/79/15 52/80/15 51/81/15
f 53/82/1 54/83/1 57/84/1 56/85/1
f 55/86/1 53/82/1 56/85/1
f 58/87/1 59/88/1 61/89/1 60/90/1
f 62/91/1 63/92/1 65/93/1 64/94/1
f 69/95/3 68/96/3 66/97/3 67/98/3
f 70/99/4 71/100/4 74/101/4 73/102/4
f 72/103/4 70/99/4 73/102/4
f 75/104/16 76/105/16 78/106/16 77/107/16
f 79/108/4 80/109/4 82/110/4 81/111/4
f 83/112/1 84/113/1 86/114/1 85/115/1
f 90/116/17 89/117/17 87/118/17 88/119/17
f 91/120/14 92/121/14 94/122/14 93/123/14
f 95/124/14 96/125/14 99/126/14 98/127/14
f 97/128/14 95/124/14 98/127/14
f 100/129/14 101/130/14 104/131/14 103/132/14
f 102/133/14 100/129/14 103/132/14
f 105/134/14 106/135/14 108/136/14 107/137/14
f 109/138/14 110/139/14 113/140/14 112/141/14
f 111/142/14 109/138/14 112/141/14
f 114/143/14 115/144/14 117/145/14 116/146/14
f 118/147/14 119/148/14 121/149/14 120/150/14
f 122/151/14 123/152/14 125/153/14 124/154/14
f 126/155/14 127/156/14 129/157/14 128/158/14
f 130/159/14 131/160/14 133/161/14 132/162/14
f 134/163/14 135/164/14 137/165/14 136/166/14
f 138/167/14 139/168/14 141/169/14 140/170/14
f 142/171/14 143/172/14 146/173/14 145/174/14
f 144/175/14 142/171/14 145/174/14
f 147/176/14 148/177/14 151/178/14 150/179/14
f 149/180/14 147/176/14 150/179/14
f 152/181/14 153/182/14 155/183/14 154/184/14
f 156/185/14 157/186/14 159/187/14 158/188/14
f 160/189/14 161/190/14 163/191/14 162/192/14
f 164/193/14 165/194/14 167/195/14 166/196/14
f 168/197/14 169/198/14 172/199/14 171/200/14
f 170/201/14 168/197/14 171/200/14
f 173/202/14 174/203/14 176/204/14 175/205/14
f 177/206/14 178/207/14 180/208/14 179/209/14
f 181/210/14 182/211/14 184/212/14 183/213/14
f 185/214/14 186/215/14 188/216/14 187/217/14
f 189/218/14 190/219/14 192/220/14 191/221/14
f 193/222/14 194/223/14 197/224/14 196/225/14
f 195/226/14 193/222/14 196/225/14
f 198/227/14 199/228/14 201/229/14 200/230/14
f 202/231/14 203/232/14 205/233/14 204/234/14
f 206/235/14 207/236/14 209/237/14 208/238/14
f 210/239/7 211/240/7 213/241/7 212/242/7
f 214/243/7 215/244/7 217/245/7 216/246/7
f 218/247/18 219/248/18 221/249/18 220/250/18
f 225/251/14 224/252/14 222/253/14 223/254/14
f 229/255/14 228/256/14 226/257/14 227/258/14
f 230/259/14 231/260/14 234/261/14 233/262/14
f 232/263/14 230/259/14 233/262/14
f 235/264/14 236/265/14 238/266/14 237/267/14
f 239/268/14 240/269/14 242/270/14 241/271/14
f 243/272/14 244/273/14 246/274/14 245/275/14
f 247/276/19 248/277/19 250/278/19 249/279/19
f 251/280/20 252/281/20 254/282/20 253/283/20
f 258/284/21 257/285/21 255/286/21 256/287/21
