# Blender v2.93.5 OBJ File: 'kit.blend'
# www.blender.org
o Key
v -0.499734 0.062500 0.043525
v -0.499734 -0.000000 0.043525
v -0.499734 -0.000000 -0.043525
v -0.499734 -0.062500 -0.043525
v -0.499734 -0.062500 0.043525
v -0.499734 0.062500 -0.043525
v -0.398201 -0.062500 -0.043525
v -0.366282 -0.000000 -0.043525
v -0.366282 0.062500 -0.043525
v -0.366282 0.062500 0.043525
v -0.366282 -0.000000 0.043525
v -0.398201 -0.062500 0.043525
v -0.398201 -0.154941 -0.023028
v -0.499734 -0.154941 -0.023028
v -0.499734 -0.154941 0.023028
v -0.398201 -0.154941 0.023028
v -0.310000 -0.000000 -0.043525
v -0.310000 0.062500 -0.043525
v -0.310000 -0.000000 0.043525
v -0.310000 -0.062500 -0.043525
v -0.310000 0.062500 0.043525
v -0.310000 -0.062500 0.043525
v -0.358506 -0.062500 -0.043525
v -0.358506 -0.062500 0.043525
v -0.310000 -0.110000 0.023028
v -0.310000 -0.110000 -0.023028
v -0.358506 -0.110000 -0.023028
v -0.358506 -0.110000 0.023028
v -0.007816 0.126654 0.043525
v -0.071143 0.109686 0.043525
v -0.071143 0.109686 -0.043525
v -0.007816 0.126654 -0.043525
v -0.117502 0.063327 0.043525
v -0.117502 0.063327 -0.043525
v -0.125986 0.031664 0.043525
v -0.134470 0.000000 0.043525
v -0.125986 0.031664 -0.043525
v -0.125986 -0.031663 0.043525
v -0.117502 -0.063327 0.043525
v -0.125986 -0.031663 -0.043525
v -0.134470 0.000000 -0.043525
v -0.071143 -0.109686 0.043525
v -0.071143 -0.109686 -0.043525
v -0.117502 -0.063327 -0.043525
v -0.007816 -0.126654 0.043525
v -0.007816 -0.126654 -0.043525
v 0.055511 -0.109686 0.043525
v 0.055511 -0.109686 -0.043525
v 0.101869 -0.063327 0.043525
v 0.101869 -0.063327 -0.043525
v 0.118838 0.000000 0.043525
v 0.118838 0.000000 -0.043525
v 0.101869 0.063327 0.043525
v 0.101869 0.063327 -0.043525
v 0.055511 0.109686 0.043525
v 0.055511 0.109686 -0.043525
v -0.125000 0.216506 -0.043525
v 0.000000 0.250000 -0.043525
v -0.216506 0.125000 -0.043525
v -0.233253 0.062500 -0.043525
v -0.233253 -0.062500 -0.043525
v -0.250000 -0.000000 -0.043525
v -0.125000 -0.216506 -0.043525
v -0.216506 -0.125000 -0.043525
v 0.000000 -0.250000 -0.043525
v 0.125000 -0.216506 -0.043525
v 0.216506 -0.125000 -0.043525
v 0.250000 0.000000 -0.043525
v 0.216506 0.125000 -0.043525
v 0.125000 0.216506 -0.043525
v 0.000000 0.250000 0.043525
v -0.125000 0.216506 0.043525
v -0.216506 0.125000 0.043525
v -0.233253 0.062500 0.043525
v -0.250000 -0.000000 0.043525
v -0.233253 -0.062500 0.043525
v -0.216506 -0.125000 0.043525
v -0.125000 -0.216506 0.043525
v 0.000000 -0.250000 0.043525
v 0.125000 -0.216506 0.043525
v 0.216506 -0.125000 0.043525
v 0.250000 0.000000 0.043525
v 0.216506 0.125000 0.043525
v 0.125000 0.216506 0.043525
vt 0.623110 0.362384
vt 0.625356 0.354004
vt 0.625356 0.354004
vt 0.623110 0.362384
vt 0.623110 0.345625
vt 0.623110 0.345625
vt 0.667487 0.388920
vt 0.667487 0.458750
vt 0.661668 0.458750
vt 0.661668 0.388920
vt 0.655848 0.458750
vt 0.655848 0.388920
vt 0.695186 0.354004
vt 0.692941 0.362384
vt 0.692941 0.362384
vt 0.695186 0.354004
vt 0.655848 0.458750
vt 0.655848 0.388920
vt 0.692941 0.345625
vt 0.692941 0.345625
vt 0.667487 0.388920
vt 0.667487 0.458750
vt 0.692941 0.345625
vt 0.655848 0.458750
vt 0.655848 0.388920
vt 0.655848 0.388920
vt 0.655848 0.458750
vt 0.623110 0.345625
vt 0.655848 0.458750
vt 0.655848 0.388920
vt 0.623110 0.345625
vt 0.623110 0.345625
vt 0.692941 0.345625
vt 0.692941 0.345625
vt 0.623110 0.362384
vt 0.625356 0.354004
vt 0.625356 0.354004
vt 0.623110 0.362384
vt 0.623110 0.345625
vt 0.623110 0.345625
vt 0.695186 0.354004
vt 0.692941 0.362384
vt 0.692941 0.362384
vt 0.695186 0.354004
vt 0.655848 0.458750
vt 0.655848 0.388920
vt 0.655848 0.388920
vt 0.655848 0.458750
vt 0.692941 0.345625
vt 0.692941 0.345625
vt 0.667487 0.388920
vt 0.667487 0.458750
vt 0.667487 0.458750
vt 0.667487 0.388920
vt 0.692941 0.345625
vt 0.692941 0.345625
vt 0.655848 0.458750
vt 0.655848 0.388920
vt 0.655848 0.388920
vt 0.655848 0.458750
vt 0.623110 0.345625
vt 0.623110 0.345625
vt 0.591614 0.385187
vt 0.609665 0.378773
vt 0.608596 0.383032
vt 0.591837 0.387523
vt 0.619236 0.368064
vt 0.620865 0.370764
vt 0.621339 0.360215
vt 0.623003 0.354004
vt 0.620461 0.344517
vt 0.618797 0.338306
vt 0.604033 0.326061
vt 0.608596 0.324976
vt 0.620865 0.337245
vt 0.588444 0.323671
vt 0.591837 0.320486
vt 0.573770 0.329357
vt 0.575078 0.324976
vt 0.563881 0.341583
vt 0.562809 0.337245
vt 0.561386 0.357116
vt 0.558318 0.354004
vt 0.566969 0.371851
vt 0.562809 0.370764
vt 0.579192 0.381859
vt 0.575078 0.383032
vt 0.677114 0.381154
vt 0.658275 0.384338
vt 0.661668 0.387523
vt 0.678427 0.383032
vt 0.688627 0.369702
vt 0.690696 0.370764
vt 0.692833 0.354004
vt 0.690291 0.363492
vt 0.688589 0.338329
vt 0.691169 0.347794
vt 0.690696 0.337245
vt 0.677077 0.326923
vt 0.678427 0.324976
vt 0.661445 0.322822
vt 0.661668 0.320486
vt 0.645893 0.327064
vt 0.644908 0.324976
vt 0.634545 0.338471
vt 0.632640 0.337245
vt 0.630383 0.354004
vt 0.628149 0.354004
vt 0.634507 0.369558
vt 0.632640 0.370764
vt 0.645853 0.381009
vt 0.644908 0.383032
vt 0.696583 0.388920
vt 0.696583 0.458750
vt 0.684945 0.458750
vt 0.684945 0.388920
vt 0.673306 0.458750
vt 0.673306 0.388920
vt 0.650029 0.458750
vt 0.650029 0.388920
vt 0.638391 0.458750
vt 0.638391 0.388920
vt 0.626752 0.458750
vt 0.626752 0.388920
vt 0.615114 0.458750
vt 0.615114 0.388920
vt 0.603475 0.458750
vt 0.603475 0.388920
vt 0.591837 0.458750
vt 0.591837 0.388920
vt 0.580198 0.458750
vt 0.580198 0.388920
vt 0.568560 0.458750
vt 0.568560 0.388920
vt 0.556922 0.458750
vt 0.556922 0.388920
vn 0.0000 -0.0000 -1.0000
vn -1.0000 0.0000 0.0000
vn 0.0000 0.0000 1.0000
vn -0.0000 1.0000 -0.0000
vn 0.0000 -1.0000 0.0000
vn 0.0000 -0.2165 -0.9763
vn 0.0000 -0.2165 0.9763
vn 1.0000 0.0000 0.0000
vn 0.0000 -0.3962 0.9182
vn 0.0000 -0.3962 -0.9182
vn 0.0000 0.7571 0.6532
vn 0.0000 0.7571 -0.6532
vn -0.3786 0.6557 -0.6532
vn -0.3786 0.6557 0.6532
vn -0.6557 0.3786 -0.6532
vn -0.6557 0.3786 0.6532
vn -0.2974 -0.3876 0.8725
vn -0.2974 -0.3876 -0.8725
vn -0.6557 -0.3786 -0.6532
vn -0.6557 -0.3786 0.6532
vn -0.3786 -0.6557 -0.6532
vn -0.3786 -0.6557 0.6532
vn 0.0000 -0.7571 -0.6532
vn 0.0000 -0.7571 0.6532
vn 0.3786 -0.6557 -0.6532
vn 0.3786 -0.6557 0.6532
vn 0.6557 -0.3786 -0.6532
vn 0.6557 -0.3786 0.6532
vn 0.7571 0.0000 -0.6532
vn 0.7571 0.0000 0.6532
vn 0.6557 0.3786 -0.6532
vn 0.6557 0.3786 0.6532
vn 0.3786 0.6557 -0.6532
vn 0.3786 0.6557 0.6532
vn -0.2974 0.3876 -0.8725
vn -0.2974 0.3876 0.8725
vn 0.3189 0.5523 0.7703
vn 0.0000 0.6377 0.7703
vn 0.0000 0.6377 -0.7703
vn 0.3189 0.5523 -0.7703
vn -0.5523 0.3189 0.7703
vn -0.6377 0.0000 0.7703
vn -0.6377 0.0000 -0.7703
vn -0.5523 0.3189 -0.7703
vn -0.3189 -0.5523 0.7703
vn 0.0000 -0.6377 0.7703
vn 0.0000 -0.6377 -0.7703
vn -0.3189 -0.5523 -0.7703
vn -0.5523 -0.3189 0.7703
vn -0.5523 -0.3189 -0.7703
vn 0.6830 -0.1830 0.7071
vn 0.6830 -0.1830 -0.7071
vn 0.5523 -0.3189 -0.7703
vn 0.5523 -0.3189 0.7703
vn 0.3189 -0.5523 0.7703
vn 0.3189 -0.5523 -0.7703
vn -0.3189 0.5523 0.7703
vn -0.3189 0.5523 -0.7703
vn 0.5523 0.3189 0.7703
vn 0.5523 0.3189 -0.7703
vn 0.6830 0.1830 0.7071
vn 0.6830 0.1830 -0.7071
vn 0.6377 0.0000 -0.7703
vn 0.6377 0.0000 0.7703
s off
f 9/1/1 8/2/1 3/3/1 6/4/1
f 8/2/1 7/5/1 4/6/1 3/3/1
f 1/7/2 6/8/2 3/9/2 2/10/2
f 2/10/2 3/9/2 4/11/2 5/12/2
f 11/13/3 10/14/3 1/15/3 2/16/3
f 5/12/2 4/11/2 14/17/2 15/18/2
f 12/19/3 11/13/3 2/16/3 5/20/3
f 10/21/4 9/22/4 6/8/4 1/7/4
f 24/23/3 11/13/3 12/19/3
f 23/24/5 24/25/5 12/26/5 7/27/5
f 8/2/1 23/28/1 7/5/1
f 13/29/5 16/30/5 15/18/5 14/17/5
f 4/6/6 7/5/6 13/31/6 14/32/6
f 12/19/7 5/20/7 15/33/7 16/34/7
f 7/27/8 12/26/8 16/30/8 13/29/8
f 60/35/1 62/36/1 17/37/1 18/38/1
f 62/36/1 61/39/1 20/40/1 17/37/1
f 75/41/3 74/42/3 21/43/3 19/44/3
f 61/45/5 76/46/5 22/47/5 20/48/5
f 76/49/3 75/41/3 19/44/3 22/50/3
f 74/51/4 60/52/4 18/53/4 21/54/4
f 18/38/1 17/37/1 8/2/1 9/1/1
f 17/37/1 20/40/1 23/28/1 8/2/1
f 19/44/3 21/43/3 10/14/3 11/13/3
f 22/50/9 24/23/9 28/55/9 25/56/9
f 22/50/3 19/44/3 11/13/3 24/23/3
f 21/54/4 18/53/4 9/22/4 10/21/4
f 26/57/5 25/58/5 28/59/5 27/60/5
f 23/28/10 20/40/10 26/61/10 27/62/10
f 24/25/2 23/24/2 27/60/2 28/59/2
f 20/48/8 22/47/8 25/58/8 26/57/8
f 32/63/1 31/64/1 57/65/1 58/66/1
f 31/64/1 34/67/1 59/68/1 57/65/1
f 34/67/1 37/69/1 60/35/1 59/68/1
f 41/70/1 40/71/1 61/39/1 62/36/1
f 44/72/1 43/73/1 63/74/1 64/75/1
f 43/73/1 46/76/1 65/77/1 63/74/1
f 46/76/1 48/78/1 66/79/1 65/77/1
f 48/78/1 50/80/1 67/81/1 66/79/1
f 50/80/1 52/82/1 68/83/1 67/81/1
f 52/82/1 54/84/1 69/85/1 68/83/1
f 54/84/1 56/86/1 70/87/1 69/85/1
f 56/86/1 32/63/1 58/66/1 70/87/1
f 40/71/1 44/72/1 64/75/1 61/39/1
f 37/69/1 41/70/1 62/36/1 60/35/1
f 30/88/3 29/89/3 71/90/3 72/91/3
f 33/92/3 30/88/3 72/91/3 73/93/3
f 36/94/3 35/95/3 74/42/3 75/41/3
f 39/96/3 38/97/3 76/49/3 77/98/3
f 42/99/3 39/96/3 77/98/3 78/100/3
f 45/101/3 42/99/3 78/100/3 79/102/3
f 47/103/3 45/101/3 79/102/3 80/104/3
f 49/105/3 47/103/3 80/104/3 81/106/3
f 51/107/3 49/105/3 81/106/3 82/108/3
f 53/109/3 51/107/3 82/108/3 83/110/3
f 55/111/3 53/109/3 83/110/3 84/112/3
f 29/89/3 55/111/3 84/112/3 71/90/3
f 38/97/3 36/94/3 75/41/3 76/49/3
f 35/95/3 33/92/3 73/93/3 74/42/3
s 1
f 71/113/11 58/114/12 57/115/13 72/116/14
f 72/116/14 57/115/13 59/117/15 73/118/16
f 76/46/17 61/45/18 64/119/19 77/120/20
f 77/120/20 64/119/19 63/121/21 78/122/22
f 78/122/22 63/121/21 65/123/23 79/124/24
f 79/124/24 65/123/23 66/125/25 80/126/26
f 80/126/26 66/125/25 67/127/27 81/128/28
f 81/128/28 67/127/27 68/129/29 82/130/30
f 82/130/30 68/129/29 69/131/31 83/132/32
f 83/132/32 69/131/31 70/133/33 84/134/34
f 84/134/34 70/133/33 58/135/12 71/136/11
f 73/118/16 59/117/15 60/52/35 74/51/36
f 42/99/37 45/101/38 46/76/39 43/73/40
f 49/105/41 51/107/42 52/82/43 50/80/44
f 55/111/45 29/89/46 32/63/47 56/86/48
f 53/109/49 55/111/45 56/86/48 54/84/50
f 35/95/51 37/69/52 34/67/53 33/92/54
f 30/88/55 31/64/56 32/63/47 29/89/46
f 53/109/49 54/84/50 52/82/43 51/107/42
f 45/101/38 47/103/57 48/78/58 46/76/39
f 39/96/59 42/99/37 43/73/40 44/72/60
f 38/97/61 39/96/59 44/72/60 40/71/62
f 38/97/61 40/71/62 41/70/63 36/94/64
f 47/103/57 49/105/41 50/80/44 48/78/58
f 35/95/51 36/94/64 41/70/63 37/69/52
f 30/88/55 33/92/54 34/67/53 31/64/56
