# Blender v2.93.5 OBJ File: 'kit.blend'
# www.blender.org
o Rock3_Plane.004
v 0.057916 -0.001604 0.297766
v -0.212710 -0.001604 0.194324
v -0.241196 -0.001604 -0.238864
v -0.122821 0.203325 0.092559
v -0.112558 0.226896 0.057774
v -0.144374 0.204614 0.053286
v -0.129703 0.209859 -0.171216
v -0.171338 0.209466 -0.117378
v -0.116598 0.249089 -0.117053
v 0.069649 0.176354 0.206659
v 0.040556 0.214607 0.163482
v 0.021856 0.183032 0.215441
v 0.185650 0.158685 -0.016988
v 0.184603 0.159951 -0.062680
v 0.154332 0.186204 -0.035951
v 0.276659 -0.001604 -0.016409
v 0.156840 -0.001604 -0.247646
v 0.065587 0.205886 -0.177988
v 0.083461 0.213009 -0.157156
v 0.119879 0.194958 -0.153876
vt 0.521659 0.645356
vt 0.557116 0.634806
vt 0.566540 0.651951
vt 0.518508 0.668161
vt 0.587310 0.646799
vt 0.595012 0.632269
vt 0.544270 0.580744
vt 0.561732 0.575531
vt 0.653822 0.644657
vt 0.668315 0.593203
vt 0.669475 0.640035
vt 0.645638 0.653149
vt 0.683983 0.665275
vt 0.698951 0.680048
vt 0.689908 0.691365
vt 0.594070 0.638219
vt 0.587438 0.653031
vt 0.572968 0.650781
vt 0.568966 0.634196
vt 0.626049 0.620094
vt 0.646340 0.587925
vt 0.675101 0.611366
vt 0.680272 0.654993
vt 0.642325 0.646438
vt 0.647151 0.621004
vt 0.938085 0.674525
vt 0.943774 0.682975
vt 0.940836 0.682463
vt 0.961038 0.702533
vt 0.960450 0.701971
vt 0.959178 0.699051
vt 0.802082 0.600275
vt 0.802866 0.603290
vt 0.795424 0.593962
vt 0.852824 0.651800
vt 0.859215 0.657135
vt 0.854415 0.650910
vt 0.814928 0.654337
vt 0.814029 0.651620
vt 0.820413 0.652950
vt 0.960331 0.702137
vt 0.947721 0.710896
vt 0.956763 0.699579
vt 0.900138 0.665969
vt 0.941795 0.684806
vt 0.945658 0.685283
vt 0.906839 0.636586
vt 0.933295 0.623559
vt 0.932914 0.630897
vt 0.937829 0.632421
vt 0.845251 0.672562
vt 0.851882 0.657750
vt 0.824353 0.671482
vt 0.826779 0.653727
vt 0.821142 0.650423
vt 0.855659 0.655442
vt 0.779191 0.662114
vt 0.779472 0.664887
vn -0.0228 0.3123 -0.9497
vn 0.8082 0.3229 0.4924
vn 0.1993 0.9727 0.1189
vn -0.9443 0.3169 0.0893
vn 0.8273 0.3557 -0.4349
vn 0.1562 0.9876 0.0160
vn -0.4144 0.4350 0.7994
vn -0.5044 0.6759 0.5374
vn -0.2611 0.9395 0.2215
vn -0.7688 0.6026 0.2137
vn -0.2952 0.6292 -0.7190
vn -0.7830 0.6054 -0.1425
vn -0.2084 0.9640 -0.1653
vn 0.5366 0.5879 0.6053
vn 0.1886 0.9291 0.3179
vn -0.1146 0.6453 0.7552
vn 0.7789 0.5875 0.2196
vn 0.7753 0.5994 -0.1990
vn 0.4589 0.8872 0.0478
vn 0.1364 0.6172 -0.7749
vn 0.2973 0.8993 -0.3205
vn 0.6186 0.6478 -0.4446
vn -0.6577 0.4501 -0.6040
vn -0.7153 0.4369 0.5454
vn 0.2195 0.4856 0.8462
vn 0.9174 0.3932 0.0613
vn 0.4782 0.3933 -0.7852
s off
f 7/1/1 18/2/1 17/3/1 3/4/1
f 16/5/2 13/6/2 10/7/2 1/8/2
f 5/9/3 19/10/3 9/11/3
f 2/12/4 6/13/4 8/14/4 3/15/4
f 14/16/5 16/17/5 17/18/5 20/19/5
f 5/9/6 11/20/6 15/21/6 19/10/6
f 12/22/7 4/23/7 2/24/7 1/25/7
s 1
f 4/26/8 5/27/9 6/28/10
f 7/29/11 8/30/12 9/31/13
f 10/32/14 11/33/15 12/34/16
f 13/35/17 14/36/18 15/37/19
f 18/38/20 19/39/21 20/40/22
f 7/41/11 3/42/23 8/43/12
f 2/44/24 4/26/8 6/45/10
f 5/46/9 9/31/13 8/43/12 6/45/10
f 1/47/25 10/48/14 12/49/16
f 4/26/8 12/49/16 11/50/15 5/27/9
f 13/35/17 16/51/26 14/52/18
f 17/53/27 18/38/20 20/54/22
f 14/52/18 20/54/22 19/55/21 15/56/19
f 10/32/14 13/35/17 15/37/19 11/33/15
f 9/57/13 19/39/21 18/38/20 7/58/11
