# Blender v2.93.5 OBJ File: 'kit.blend'
# www.blender.org
o Sign_Cube
v 0.076155 1.390430 -0.138092
v 0.042701 1.389211 -0.137089
v 0.078202 1.390430 0.031792
v -0.596874 0.884183 -0.255699
v -0.594360 0.919311 -0.219710
v 0.573130 0.867083 -0.219710
v 0.570213 0.831973 -0.255699
v 0.630942 1.190106 -0.123590
v -0.535505 1.186604 -0.123590
v 0.630942 1.190106 -0.262633
v -0.535505 1.186604 -0.262633
v -0.365163 1.161831 -0.123590
v -0.537856 1.158169 -0.262633
v -0.297834 1.158815 -0.262633
v -0.537895 1.157442 -0.123590
v 0.551922 0.611818 -0.260562
v 0.632816 1.225271 -0.227420
v -0.530668 1.277383 -0.227420
v -0.532542 1.242218 -0.262633
v 0.632816 1.225271 -0.158803
v -0.616837 0.605297 -0.261857
v -0.532542 1.242218 -0.123590
v -0.530668 1.277383 -0.158803
v 0.613653 0.865664 -0.227420
v 0.615527 0.900829 -0.262633
v -0.547956 0.952941 -0.262633
v -0.549830 0.917777 -0.227420
v 0.615527 0.900829 -0.123590
v 0.613653 0.865664 -0.158803
v -0.549830 0.917777 -0.158803
v -0.547956 0.952941 -0.123590
v 0.573130 0.867083 -0.151094
v 0.570213 0.831973 -0.116656
v -0.596874 0.884183 -0.116656
v -0.594360 0.919311 -0.151094
v 0.544132 0.518057 -0.227420
v 0.547049 0.553166 -0.261857
v -0.619352 0.570169 -0.227420
v 0.547049 0.553166 -0.122814
v 0.544132 0.518057 -0.158803
v -0.619352 0.570169 -0.158803
v -0.616837 0.605297 -0.122814
v 0.551922 0.611818 -0.121519
v 0.447102 0.645322 -0.260237
v 0.557479 0.678713 -0.120041
v 0.556907 0.671819 -0.259237
v 0.443779 0.645471 -0.121194
v 0.044176 1.115638 0.027025
v 0.056431 1.389211 0.031792
v 0.041318 1.102136 -0.134541
v 0.070034 0.000000 -0.092741
v 0.092741 0.000000 -0.070021
v 0.092741 0.000000 -0.037229
v 0.070034 0.000000 -0.014509
v -0.092741 0.000000 -0.070024
v -0.070034 0.000000 -0.092741
v -0.070034 0.000000 -0.014509
v -0.092741 0.000000 -0.037229
v 0.139043 1.390430 -0.116323
v 0.116325 1.390430 -0.138700
v 0.116323 1.390430 0.031792
v 0.139043 1.390430 0.009072
v -0.139004 1.390430 0.009072
v -0.116318 1.390288 0.031792
v -0.116037 1.390277 -0.135124
v -0.138798 1.390430 -0.112125
vt 0.096027 0.730370
vt 0.096027 0.689562
vt 0.102687 0.688037
vt 0.146081 0.721209
vt 0.199691 0.628906
vt 0.204106 0.636093
vt 0.204106 0.675759
vt 0.199687 0.682573
vt 0.150067 0.690928
vt 0.150067 0.714019
vt 0.108859 0.580147
vt 0.150067 0.579282
vt 0.150067 0.586690
vt 0.144503 0.594815
vt 0.096027 0.720774
vt 0.138985 0.720774
vt 0.150067 0.723344
vt 0.150067 0.731701
vt 0.198669 0.628906
vt 0.204106 0.642592
vt 0.204106 0.669260
vt 0.198669 0.682946
vt 0.096027 0.688230
vt 0.150067 0.688230
vt 0.150067 0.714725
vt 0.198822 0.628906
vt 0.204106 0.642592
vt 0.204106 0.669260
vt 0.198822 0.682946
vt 0.096027 0.642592
vt 0.150067 0.642592
vt 0.150067 0.669260
vt 0.096027 0.669260
vt 0.096027 0.580151
vt 0.150067 0.580151
vt 0.150067 0.588508
vt 0.142113 0.591079
vt 0.096027 0.614389
vt 0.106813 0.612111
vt 0.150067 0.623469
vt 0.096027 0.623470
vt 0.096027 0.534513
vt 0.150067 0.534513
vt 0.150067 0.561181
vt 0.096027 0.561181
vt 0.096027 0.731550
vt 0.150067 0.731548
vt 0.150067 0.736986
vt 0.096027 0.736986
vt 0.090591 0.628906
vt 0.096027 0.642592
vt 0.096027 0.669260
vt 0.090591 0.682946
vt 0.150067 0.642592
vt 0.150067 0.669260
vt 0.096027 0.591079
vt 0.150067 0.597236
vt 0.150067 0.623622
vt 0.096027 0.623622
vt 0.096027 0.534513
vt 0.150067 0.534513
vt 0.150067 0.561181
vt 0.096027 0.561181
vt 0.155351 0.628906
vt 0.181737 0.628906
vt 0.181846 0.682946
vt 0.155351 0.682946
vt 0.090743 0.628906
vt 0.090743 0.682946
vt 0.096027 0.731701
vt 0.150067 0.736986
vt 0.096027 0.736986
vt 0.150067 0.580304
vt 0.096027 0.580303
vt 0.150067 0.688383
vt 0.096027 0.688382
vt 0.041987 0.642592
vt 0.058199 0.628906
vt 0.047272 0.682946
vt 0.041987 0.669260
vt 0.058199 0.682946
vt 0.041987 0.642592
vt 0.047423 0.628906
vt 0.047424 0.682946
vt 0.041987 0.669260
vt 0.081510 0.628906
vt 0.081510 0.682946
vt 0.155504 0.628906
vt 0.155504 0.682946
vt 0.166862 0.628906
vt 0.166862 0.682946
vt 0.190465 0.628906
vt 0.190465 0.682946
vt 0.071153 0.628906
vt 0.072220 0.682946
vt 0.150067 0.699741
vt 0.106658 0.699741
vt 0.096027 0.697463
vt 0.150067 0.612111
vt 0.096027 0.604032
vt 0.096027 0.622291
vt 0.150067 0.725811
vt 0.096027 0.644600
vt 0.150067 0.635652
vt 0.150067 0.671639
vt 0.096027 0.667253
vt 0.108909 0.732925
vt 0.150067 0.732949
vt 0.102352 0.624458
vt 0.150067 0.597315
vt 0.150067 0.625234
vt 0.192283 0.628906
vt 0.191873 0.681913
vt 0.153739 0.628906
vt 0.153685 0.678690
vt 0.178964 0.680824
vt 0.181658 0.628906
vt 0.107024 0.520827
vt 0.150037 0.520827
vt 0.150067 0.528014
vt 0.096027 0.536521
vt 0.096027 0.559173
vt 0.150067 0.567680
vt 0.096027 0.682946
vt 0.150040 0.687620
vt 0.096027 0.706753
vn -0.1382 -0.0236 -0.9901
vn 0.0000 1.0000 0.0000
vn -0.0716 -0.0411 -0.9966
vn 0.0620 -0.0336 0.9975
vn -0.0000 -0.0000 -1.0000
vn -0.9974 0.0714 0.0000
vn -0.9986 0.0532 0.0000
vn -0.0447 -0.9990 0.0000
vn 0.0000 -0.0000 1.0000
vn -0.0010 -0.0187 0.9998
vn 0.0447 0.9990 0.0000
vn 0.0319 0.7141 -0.6993
vn 0.9966 -0.0828 0.0000
vn -0.9988 0.0491 -0.0000
vn 0.9986 -0.0532 -0.0000
vn -0.1277 -0.9916 -0.0202
vn -0.0122 0.9999 -0.0112
vn 0.0316 0.7064 -0.7071
vn 0.0316 0.7064 0.7071
vn -0.0316 -0.7064 0.7071
vn -0.0316 -0.7064 -0.7071
vn 0.0313 0.6986 0.7148
vn -0.0320 -0.7141 0.6993
vn -0.0313 -0.6986 -0.7149
vn 0.0010 0.0187 -0.9998
vn -0.0007 -0.0220 0.9998
vn 0.3008 0.9537 0.0031
vn 0.2579 -0.9658 0.0270
vn 0.0007 0.0220 -0.9998
vn 0.0000 -0.0372 0.9993
vn -0.9926 0.1214 0.0097
vn -0.9994 -0.0332 -0.0013
vn 0.0709 -0.0328 -0.9969
vn -0.0236 -0.0312 0.9992
vn 0.0065 1.0000 -0.0000
vn 0.9985 -0.0241 -0.0491
vn 0.7038 -0.0470 -0.7089
vn 0.7064 -0.0470 0.7062
vn -0.7068 -0.0470 0.7059
vn -0.7102 -0.0448 -0.7026
vn 0.9994 -0.0333 0.0000
vn 0.0065 1.0000 -0.0003
vn 0.0013 0.0235 -0.9997
vn -0.0012 -0.0235 0.9997
s off
f 51/1/1 56/2/1 55/3/1 50/4/1
f 61/5/2 62/6/2 59/7/2 60/8/2
f 55/3/3 65/9/3 2/10/3 50/4/3
f 54/11/4 61/12/4 3/13/4 48/14/4
f 10/15/5 14/16/5 11/17/5 19/18/5
f 34/19/6 35/20/6 5/21/6 4/22/6
f 25/23/5 26/24/5 13/25/5 14/16/5
f 22/26/7 23/27/7 18/28/7 19/29/7
f 29/30/8 30/31/8 27/32/8 24/33/8
f 8/34/9 22/35/9 9/36/9 12/37/9
f 43/38/10 47/39/10 42/40/10 39/41/10
f 6/42/11 5/43/11 35/44/11 32/45/11
f 7/46/12 4/47/12 5/48/12 6/49/12
f 39/50/13 40/51/13 36/52/13 37/53/13
f 40/51/8 41/54/8 38/55/8 36/52/8
f 8/56/9 12/37/9 15/57/9 31/58/9 28/59/9
f 17/60/11 18/61/11 23/62/11 20/63/11
f 31/64/14 15/65/14 13/66/14 26/67/14
f 28/68/15 29/30/15 24/33/15 25/69/15
f 9/36/16 11/17/16 14/16/16 12/37/16
f 12/37/17 14/16/17 13/66/17 15/57/17
f 10/70/18 19/18/18 18/71/18 17/72/18
f 22/35/19 8/34/19 20/63/19 23/62/19
f 30/31/20 29/30/20 28/59/20 31/58/20
f 26/24/21 25/23/21 24/33/21 27/32/21
f 34/73/22 33/74/22 32/45/22 35/44/22
f 41/54/23 40/51/23 39/41/23 42/40/23
f 21/75/24 37/76/24 36/52/24 38/55/24
f 20/77/15 8/78/15 10/79/15 17/80/15
f 8/78/15 28/68/15 25/69/15 10/81/15
f 32/82/13 33/83/13 7/84/13 6/85/13
f 43/86/13 39/50/13 37/53/13 16/87/13
f 41/54/6 42/88/6 21/89/6 38/55/6
f 42/90/6 34/19/6 4/22/6 21/91/6
f 30/31/7 31/64/7 26/67/7 27/32/7
f 9/92/7 22/26/7 19/29/7 11/93/7
f 33/83/13 45/94/13 46/95/13 7/84/13
f 37/76/25 21/96/25 44/97/25 16/98/25
f 34/73/26 42/99/26 47/39/26
f 44/97/27 47/39/27 43/86/27 16/98/27
f 47/39/28 44/97/28 46/95/28 45/100/28
f 44/97/29 21/96/29 4/47/29
f 57/101/30 54/11/30 48/14/30
f 3/13/31 1/102/31 50/4/31 48/14/31
f 58/103/32 63/104/32 66/105/32 55/106/32
f 51/107/33 50/4/33 1/102/33 60/108/33
f 57/109/34 48/14/34 49/110/34 64/111/34
f 3/112/2 61/5/2 60/8/2 1/113/2
f 64/114/35 65/115/35 66/105/35 63/104/35
f 2/116/36 49/117/36 48/14/36 50/4/36
f 51/118/37 60/119/37 59/120/37 52/121/37
f 61/12/38 54/11/38 53/122/38 62/123/38
f 63/104/39 58/103/39 57/109/39 64/111/39
f 55/124/40 66/125/40 65/9/40
f 52/121/41 59/120/41 62/123/41 53/122/41
f 49/117/42 2/116/42 65/115/42 64/114/42
f 10/15/5 25/23/5 14/16/5
f 46/126/43 44/97/43 4/47/43 7/46/43
f 33/74/44 34/73/44 47/39/44 45/100/44
