# Blender v2.93.5 OBJ File: 'kit.blend'
# www.blender.org
o SignArrow_Cube.038
v -0.125558 0.548059 -0.088159
v 0.380692 0.571336 -0.088159
v -0.125558 0.548059 -0.237740
v 0.380692 0.571336 -0.237740
v 0.296562 0.591694 -0.088159
v 0.383221 0.601926 -0.237740
v 0.224129 0.594938 -0.237740
v 0.383263 0.602708 -0.088159
v -0.127574 0.510229 -0.199858
v 0.375488 0.473677 -0.199858
v 0.377504 0.511507 -0.237740
v -0.127574 0.510229 -0.126041
v 0.377504 0.511507 -0.088159
v 0.375488 0.473677 -0.126041
v 0.394087 0.822708 -0.237740
v 0.396103 0.860538 -0.199858
v 0.396103 0.860538 -0.126041
v 0.394087 0.822708 -0.088159
v -0.125290 0.899766 -0.126042
v -0.127306 0.861936 -0.088160
v -0.127306 0.861936 -0.237741
v -0.125290 0.899766 -0.199858
v -0.145905 0.512905 -0.126042
v -0.145905 0.512905 -0.199858
v -0.143889 0.550735 -0.237741
v -0.143889 0.550735 -0.088159
v -0.132645 1.155749 -0.077410
v -0.137317 1.068074 -0.044219
v -0.137317 1.068074 -0.281680
v -0.132645 1.155749 -0.248489
v -0.180422 0.259153 -0.077410
v -0.180422 0.259153 -0.248489
v -0.175750 0.346828 -0.281680
v -0.175750 0.346828 -0.044219
v -0.774436 0.770021 -0.077410
v -0.656497 0.767944 -0.044219
v -0.656497 0.767944 -0.281680
v -0.774436 0.770021 -0.248489
v 0.038814 0.000000 -0.074193
v 0.059772 0.000000 -0.053381
v 0.055625 0.000000 -0.034868
v 0.038815 0.000000 -0.018148
v -0.062034 0.000000 -0.051222
v -0.039066 0.000000 -0.074193
v -0.039067 0.000000 -0.018148
v -0.056956 0.000000 -0.036070
v 0.198368 1.022190 -0.067933
v 0.163195 1.023880 -0.102851
v 0.162990 1.022190 0.046086
v 0.198368 1.022190 0.010897
v -0.056258 1.025078 0.011079
v -0.021503 1.022190 0.046086
v -0.019970 1.032681 -0.101720
v -0.055438 1.031462 -0.066295
v 0.124557 1.023027 0.010950
v 0.112597 1.026311 -0.102538
v 0.145375 1.024736 -0.102741
v 0.110846 0.889186 -0.098889
vt 0.096027 0.724101
vt 0.142873 0.721954
vt 0.150067 0.726664
vt 0.150067 0.730135
vt 0.096033 0.643058
vt 0.149594 0.641724
vt 0.148551 0.670054
vt 0.096006 0.657133
vt 0.150067 0.698797
vt 0.150067 0.692903
vt 0.096027 0.587751
vt 0.150067 0.582364
vt 0.150067 0.621462
vt 0.096027 0.616114
vt 0.096027 0.720774
vt 0.138985 0.720774
vt 0.150067 0.723344
vt 0.150067 0.731701
vt 0.198822 0.628906
vt 0.204106 0.642592
vt 0.204106 0.669260
vt 0.198822 0.682946
vt 0.096027 0.720774
vt 0.096027 0.688230
vt 0.150067 0.688230
vt 0.150067 0.714725
vt 0.096027 0.580151
vt 0.150067 0.580151
vt 0.150067 0.588508
vt 0.142113 0.591079
vt 0.096027 0.561181
vt 0.096027 0.580151
vt 0.096027 0.580151
vt 0.096027 0.561181
vt 0.096027 0.534513
vt 0.096027 0.561181
vt 0.096027 0.534513
vt 0.096027 0.669260
vt 0.150067 0.669260
vt 0.096027 0.642592
vt 0.150067 0.642592
vt 0.150067 0.534513
vt 0.150067 0.561181
vt 0.155351 0.628906
vt 0.181737 0.628906
vt 0.181846 0.682946
vt 0.155351 0.682946
vt 0.150067 0.597236
vt 0.096027 0.731701
vt 0.150067 0.736986
vt 0.096027 0.736986
vt 0.150067 0.623622
vt 0.096027 0.623622
vt 0.096027 0.591079
vt 0.096027 0.591079
vt 0.096027 0.623622
vt 0.096027 0.591079
vt 0.190465 0.628906
vt 0.190465 0.682946
vt 0.096027 0.736986
vt 0.096027 0.731701
vt 0.096027 0.642592
vt 0.096027 0.669260
vt 0.096027 0.688230
vt 0.096027 0.688230
vt 0.096027 0.669260
vt 0.096027 0.534513
vt 0.096027 0.561181
vt 0.096027 0.534513
vt 0.096027 0.720774
vt 0.096027 0.736986
vt 0.096027 0.731701
vt 0.090743 0.628906
vt 0.096027 0.642592
vt 0.090743 0.682946
vt 0.096027 0.736986
vt 0.096027 0.731701
vt 0.096027 0.623622
vt 0.096027 0.580151
vt 0.096027 0.591079
vt 0.096027 0.520827
vt 0.149932 0.520827
vt 0.150067 0.533556
vt 0.096027 0.540895
vt 0.095970 0.562395
vt 0.150067 0.562117
vt 0.150067 0.694458
vt 0.096027 0.695738
vt 0.096027 0.687374
vt 0.149866 0.687605
vt 0.150067 0.613114
vt 0.150067 0.621729
vt 0.150067 0.690650
vt 0.150067 0.673615
vt 0.150067 0.642833
vt 0.150067 0.720279
vn -0.0055 -0.0273 -0.9996
vn -0.9989 0.0028 0.0462
vn 0.0352 0.9992 0.0194
vn 0.0000 -0.0627 0.9980
vn 0.0000 0.0000 -1.0000
vn 0.9986 -0.0532 0.0000
vn -0.0000 0.0000 1.0000
vn 0.9859 -0.1192 0.1177
vn -0.1444 -0.9895 0.0000
vn 0.0531 0.7052 -0.7070
vn 0.0750 0.9972 0.0000
vn -0.0725 -0.9974 0.0000
vn 0.9988 -0.0491 -0.0000
vn 0.1796 0.9832 -0.0328
vn 0.0730 -0.9970 -0.0259
vn -0.0512 -0.7053 -0.7071
vn -0.0512 -0.7053 0.7071
vn 0.9012 -0.0480 0.4306
vn -0.1024 -0.7011 0.7056
vn -0.1023 -0.7012 -0.7056
vn 0.9930 0.0137 0.1177
vn -0.2246 0.3802 -0.8972
vn -0.6521 -0.7582 0.0000
vn 0.9996 0.0287 0.0000
vn 0.9859 -0.1192 -0.1177
vn 0.9909 -0.1348 0.0000
vn 0.9930 0.0137 -0.1177
vn 0.9012 -0.0480 -0.4306
vn 0.0531 0.7052 0.7070
vn -0.0176 -0.9998 0.0000
vn -0.2727 -0.3145 -0.9092
vn -0.5151 0.8571 0.0000
vn -0.2246 0.3802 0.8972
vn -0.2727 -0.3145 0.9092
vn 0.6991 -0.1048 -0.7073
vn 0.6993 -0.1291 0.7031
vn -0.7095 -0.0320 0.7040
vn -0.7068 -0.0058 -0.7074
vn 0.9897 -0.1368 0.0422
vn 0.0113 0.9999 0.0000
vn 0.0113 0.9999 0.0114
vn 0.0114 0.9965 0.0823
vn 0.9943 -0.0155 -0.1052
vn 0.0000 -0.0278 -0.9996
vn 0.0384 0.9986 0.0363
vn -0.9559 0.2386 -0.1714
vn 0.0056 0.9989 0.0472
vn -0.0074 -0.0265 -0.9996
s off
f 39/1/1 58/2/1 57/3/1 48/4/1
f 46/5/2 51/6/2 54/7/2 43/8/2
f 47/9/3 48/4/3 57/3/3 55/10/3
f 42/11/4 49/12/4 52/13/4 45/14/4
f 3/15/5 7/16/5 4/17/5 11/18/5
f 13/19/6 14/20/6 10/21/6 11/22/6
f 3/15/5 25/23/5 21/24/5 15/25/5 6/26/5 7/16/5
f 1/27/7 13/28/7 2/29/7 5/30/7
f 23/31/8 26/32/8 34/33/8 31/34/8
f 9/35/9 12/36/9 23/31/9 24/37/9
f 21/24/10 22/38/10 16/39/10 15/25/10
f 16/39/11 22/38/11 19/40/11 17/41/11
f 9/35/12 10/42/12 14/43/12 12/36/12
f 18/44/13 8/45/13 6/46/13 15/47/13
f 2/29/14 4/17/14 7/16/14 5/30/14
f 5/30/15 7/16/15 6/46/15 8/48/15
f 3/49/16 11/18/16 10/50/16 9/51/16
f 13/28/17 1/27/17 12/36/17 14/43/17
f 18/52/7 20/53/7 26/54/7 1/55/7 5/30/7 8/48/7
f 26/54/18 20/53/18 28/56/18 34/57/18
f 12/36/19 1/27/19 26/32/19 23/31/19
f 17/41/6 18/44/6 15/47/6 16/39/6
f 2/58/6 13/19/6 11/22/6 4/59/6
f 3/49/20 9/51/20 24/60/20 25/61/20
f 20/53/21 19/40/21 27/62/21 28/56/21
f 30/63/22 29/64/22 37/65/22 38/66/22
f 32/67/23 31/34/23 35/68/23 38/69/23
f 29/64/5 33/70/5 37/65/5
f 19/40/24 22/38/24 30/63/24 27/62/24
f 25/61/25 24/60/25 32/71/25 33/72/25
f 24/37/26 23/31/26 31/34/26 32/67/26
f 22/38/27 21/24/27 29/64/27 30/63/27
f 21/24/28 25/23/28 33/70/28 29/64/28
f 17/41/29 19/40/29 20/53/29 18/52/29
f 36/73/30 35/74/30 38/66/30 37/75/30
f 33/72/31 32/71/31 38/76/31 37/77/31
f 27/62/32 30/63/32 38/66/32 35/74/32
f 28/56/33 27/62/33 35/74/33 36/78/33
f 31/34/34 34/33/34 36/79/34 35/68/34
f 34/57/7 28/56/7 36/80/7
f 39/81/35 48/82/35 47/83/35 40/84/35
f 49/12/36 42/11/36 41/85/36 50/86/36
f 51/6/37 46/5/37 45/14/37 52/13/37
f 53/87/38 44/88/38 43/89/38 54/90/38
f 40/84/39 47/83/39 50/86/39 41/85/39
f 50/91/40 47/9/40 55/92/40
f 49/12/41 50/91/41 55/92/41
f 55/93/42 54/94/42 51/95/42
f 56/96/43 55/93/43 58/2/43
f 39/1/44 44/88/44 58/2/44
f 55/93/45 56/96/45 53/87/45 54/94/45
f 55/10/46 57/3/46 58/2/46
f 52/13/47 49/12/47 55/92/47 51/95/47
f 44/88/48 53/87/48 56/96/48 58/2/48
