# Blender v2.93.5 OBJ File: 'kit.blend'
# www.blender.org
o TrailDirtEnd1_Cylinder.016
v 0.800000 -0.000001 0.000000
v -0.800000 -0.000001 0.000000
v 0.700000 0.000000 0.800000
v -0.700000 0.000000 0.800000
v 0.400000 0.019999 0.000000
v 0.000000 0.019999 0.000000
v -0.400000 0.019999 0.000000
v 0.400000 0.000000 1.000000
v 0.010543 0.000000 0.943771
v -0.400000 0.000000 1.000000
v -0.800000 -0.000001 0.500000
v 0.800000 -0.000001 0.500000
v 0.400000 0.019999 0.500000
v 0.000000 0.019999 0.500000
v -0.400000 0.019999 0.500000
v 0.700000 0.020000 0.000000
v -0.400000 0.020000 0.879560
v 0.008085 0.020000 0.840306
v -0.669282 0.019999 0.500000
v -0.701009 0.019999 0.000000
v 0.400000 0.020000 0.867357
v 0.697393 0.019999 0.500000
v 0.600000 0.020000 0.700000
v -0.630000 0.020000 0.720000
v 0.057884 0.026602 0.249478
v -0.015228 0.026602 0.246479
v 0.063376 0.026602 0.350109
v -0.019765 0.026602 0.364365
v -0.041467 0.026602 0.303310
v -0.450950 0.026602 0.567932
v -0.362524 0.026602 0.568125
v -0.425302 0.026602 0.465949
v -0.333505 0.026602 0.498270
vt 0.933665 0.117352
vt 0.973370 0.117352
vt 0.956899 0.140568
vt 0.771472 0.161587
vt 0.791466 0.141576
vt 0.815706 0.171519
vt 0.815706 0.191076
vt 0.815706 0.117352
vt 0.874685 0.117352
vt 0.873493 0.167530
vt 0.933665 0.173318
vt 0.874685 0.043628
vt 0.933665 0.043628
vt 0.815706 0.043628
vt 0.756727 0.043628
vt 0.773616 0.043628
vt 0.771856 0.117352
vt 0.756727 0.117352
vt 0.978048 0.043628
vt 0.933665 0.191076
vt 0.873131 0.182786
vt 0.992644 0.117352
vt 0.977899 0.161587
vt 0.992644 0.043628
vt 0.066990 0.563084
vt 0.202541 0.563084
vt 0.202541 0.630859
vt 0.202541 0.698635
vt 0.066990 0.698635
vt 0.066990 0.563084
vt 0.202541 0.563084
vt 0.202541 0.630859
vt 0.202541 0.698635
vn 0.0000 1.0000 -0.0000
vn 0.0948 0.9871 0.1290
vn 0.1937 0.9811 0.0005
vn 0.0205 0.9842 0.1756
vn -0.1770 0.9831 0.0474
vn -0.1715 0.9852 0.0054
vn -0.0178 0.9858 0.1672
vn 0.1627 0.9846 0.0642
vn -0.1074 0.9815 0.1584
s off
f 15/1/1 19/2/1 24/3/1
f 3/4/2 23/5/2 21/6/2 8/7/2
f 13/8/1 14/9/1 18/10/1 21/6/1
f 14/9/1 15/1/1 17/11/1 18/10/1
f 6/12/1 7/13/1 15/1/1 14/9/1
f 5/14/1 6/12/1 14/9/1 13/8/1
f 1/15/3 16/16/3 22/17/3 12/18/3
f 7/13/1 20/19/1 19/2/1 15/1/1
f 22/17/1 16/16/1 5/14/1 13/8/1
f 18/10/4 17/11/4 10/20/4 9/21/4
f 24/3/5 19/2/5 11/22/5 4/23/5
f 19/2/6 20/19/6 2/24/6 11/22/6
f 23/5/1 22/17/1 13/8/1
f 21/6/7 18/10/7 9/21/7 8/7/7
f 21/6/1 23/5/1 13/8/1
f 12/18/8 22/17/8 23/5/8 3/4/8
f 17/11/1 15/1/1 24/3/1
f 17/11/9 24/3/9 4/23/9 10/20/9
f 25/25/1 26/26/1 29/27/1 28/28/1
f 27/29/1 25/25/1 28/28/1
f 30/30/1 31/31/1 33/32/1 32/33/1
