# Blender v2.93.5 OBJ File: 'kit.blend'
# www.blender.org
o TrailStoneCurved_Cube.030
v -0.651441 0.104216 0.596500
v 0.317749 0.081482 0.068438
v 0.316496 0.081482 0.141820
v 0.289118 0.124565 0.104651
v -0.821948 0.087254 0.508621
v -0.822667 0.087497 0.465244
v -0.793472 0.122391 0.486225
v -0.168817 0.079177 -0.320390
v -0.207277 0.129177 -0.287204
v -0.232568 0.079177 -0.331259
v -0.708594 0.006981 0.546601
v 0.276633 0.006981 0.085094
v -0.761914 0.006981 0.539910
v -0.191345 -0.005598 -0.261149
v -0.868686 0.054131 0.502742
v -0.910969 0.054131 0.535600
v -0.903370 0.087966 0.501743
v -0.980448 0.049457 0.608478
v -1.034009 0.049457 0.558744
v -0.983900 0.099457 0.558487
v -0.916982 -0.005598 0.459913
v -0.363221 0.091234 -0.533294
v -0.927989 0.060123 -0.783593
v -0.885115 0.059383 -0.816123
v -0.889101 0.102570 -0.773479
v -0.970917 -0.005598 0.521724
v -0.436781 -0.005598 -0.466706
v -0.893085 -0.005598 -0.806947
v 0.498088 -0.005598 0.856980
v 0.525724 0.051433 0.832062
v 0.479611 0.051433 0.889283
v 0.474944 0.102572 0.838331
v 0.518763 0.068479 0.318811
v -0.867570 0.057485 0.969348
v -0.922007 0.034903 0.801871
v -0.882431 0.034903 0.743226
v -0.879581 0.077063 0.787825
v 0.518763 -0.005598 0.318811
v -0.867569 -0.005598 0.969348
v -0.914908 -0.005598 0.734671
vt 0.412115 0.661213
vt 0.412115 0.661213
vt 0.429509 0.610124
vt 0.429509 0.610124
vt 0.438419 0.620305
vt 0.438419 0.620305
vt 0.438419 0.664267
vt 0.438419 0.664267
vt 0.442038 0.676840
vt 0.442038 0.676840
vt 0.400984 0.672949
vt 0.400984 0.672949
vt 0.434588 0.663876
vt 0.395104 0.660223
vt 0.412119 0.610334
vt 0.434501 0.619185
vt 0.434203 0.711996
vt 0.434203 0.711996
vt 0.386159 0.711996
vt 0.386159 0.711996
vt 0.438419 0.674334
vt 0.438419 0.674334
vt 0.438419 0.706246
vt 0.438419 0.706246
vt 0.380932 0.709768
vt 0.380932 0.709768
vt 0.371361 0.688668
vt 0.371361 0.688668
vt 0.385123 0.709060
vt 0.375441 0.685456
vt 0.433823 0.673752
vt 0.433986 0.706716
vt 0.438419 0.565129
vt 0.438419 0.565129
vt 0.438419 0.611646
vt 0.438419 0.611646
vt 0.455414 0.615690
vt 0.455414 0.615690
vt 0.408401 0.597373
vt 0.408401 0.597373
vt 0.386820 0.560787
vt 0.386820 0.560787
vt 0.434539 0.560787
vt 0.434539 0.560787
vt 0.404409 0.592066
vt 0.404409 0.592066
vt 0.403926 0.565797
vt 0.403926 0.565797
vt 0.434338 0.609879
vt 0.387653 0.591959
vt 0.386990 0.564693
vt 0.434477 0.565043
vt 0.711566 0.615383
vt 0.707648 0.614264
vt 0.708024 0.609686
vt 0.664346 0.655061
vt 0.668251 0.655302
vt 0.666748 0.659414
vt 0.711566 0.659345
vt 0.707802 0.663305
vt 0.707735 0.658955
vt 0.707350 0.707075
vt 0.707133 0.701794
vt 0.711566 0.701325
vt 0.711566 0.669412
vt 0.706970 0.668830
vt 0.706862 0.663216
vt 0.647386 0.677036
vt 0.648588 0.680534
vt 0.644508 0.683746
vt 0.711566 0.560207
vt 0.707624 0.560121
vt 0.707686 0.555865
vt 0.656640 0.585914
vt 0.660800 0.587037
vt 0.660631 0.591221
vt 0.685266 0.605412
vt 0.681739 0.603972
vt 0.666748 0.659414
vt 0.711566 0.659345
vt 0.708024 0.609686
vt 0.659306 0.707075
vt 0.658270 0.704138
vt 0.433715 0.668138
vt 0.374239 0.681958
vt 0.374239 0.681958
vt 0.433715 0.668138
vt 0.644508 0.683746
vt 0.711566 0.701325
vt 0.706862 0.663216
vt 0.711566 0.606724
vt 0.660136 0.559772
vt 0.656156 0.559645
vt 0.707485 0.604957
vt 0.660631 0.591221
vt 0.711566 0.560207
vt 0.413495 0.606277
vt 0.413495 0.606277
vt 0.434877 0.614608
vt 0.434877 0.614608
vn -0.3805 -0.1025 0.9191
vn 0.5234 -0.5279 -0.6689
vn -0.5735 -0.7107 -0.4074
vn 0.0097 0.9994 0.0331
vn 0.7592 -0.5346 0.3712
vn 0.5572 -0.6724 0.4872
vn 0.4594 -0.5559 -0.6928
vn 0.0340 0.9994 0.0118
vn 0.9788 -0.2045 0.0095
vn -0.2826 0.1508 -0.9473
vn 0.0680 -0.2493 0.9660
vn -0.9410 -0.2273 0.2509
vn -0.0180 0.9996 -0.0215
vn 0.8383 0.5451 0.0143
vn -0.7717 0.6358 0.0163
vn 0.1323 0.6168 -0.7759
vn 0.5139 0.5463 0.6613
vn -0.5612 0.5655 0.6044
vn -0.4799 0.5936 -0.6460
vn 0.6390 0.5714 0.5150
vn -0.6957 0.5437 -0.4695
vn 0.4338 0.7182 -0.5440
vn 0.3063 0.7259 0.6158
vn -0.3822 0.6967 0.6071
vn -0.5732 0.6974 -0.4302
vn -0.8026 -0.5964 0.0100
vn 0.1355 -0.5915 -0.7949
vn 0.8768 -0.4806 0.0150
vn 0.6511 0.6776 0.3419
vn 0.5486 0.5775 0.6046
vn 0.3163 0.6812 -0.6603
vn -0.7890 -0.6118 -0.0568
vn -0.6044 -0.0382 -0.7957
vn 0.4206 -0.7282 0.5412
vn -0.4204 -0.7863 0.4528
vn 0.7104 0.7037 0.0137
vn 0.0451 0.7072 0.7056
vn -0.6787 0.7240 0.1230
vn -0.2180 0.7161 -0.6630
vn -0.6527 0.6164 -0.4405
vn 0.7745 -0.1026 0.6242
vn 0.3257 -0.6246 0.7098
vn -0.7168 0.6954 -0.0502
s off
f 5/1/1 13/2/1 11/3/1 1/4/1
f 2/5/2 12/6/2 14/7/2 8/8/2
f 10/9/3 14/10/3 13/11/3 6/12/3
f 9/13/4 7/14/4 1/15/4 4/16/4
f 15/17/5 21/18/5 27/19/5 22/20/5
f 18/21/6 26/22/6 21/23/6 16/24/6
f 22/25/7 27/26/7 28/27/7 24/28/7
f 22/29/8 25/30/8 20/31/8 17/32/8
f 30/33/9 29/34/9 38/35/9 33/36/9
f 33/37/10 38/38/10 40/39/10 36/40/10
f 34/41/11 39/42/11 29/43/11 31/44/11
f 35/45/12 40/46/12 39/47/12 34/48/12
f 33/49/13 37/50/13 34/51/13 32/52/13
f 2/53/14 4/54/14 3/55/14
f 5/56/15 7/57/15 6/58/15
f 8/59/16 10/60/16 9/61/16
f 15/62/17 17/63/17 16/64/17
f 18/65/18 20/66/18 19/67/18
f 23/68/19 25/69/19 24/70/19
f 30/71/20 32/72/20 31/73/20
f 35/74/21 37/75/21 36/76/21
f 8/59/22 9/61/22 4/54/22 2/53/22
f 1/77/23 3/55/23 4/54/23
f 7/57/24 5/56/24 1/78/24
f 6/58/25 7/57/25 9/61/25 10/60/25
f 5/56/26 6/58/26 13/79/26
f 14/80/27 10/60/27 8/59/27
f 12/81/28 2/53/28 3/55/28
f 22/82/29 17/63/29 15/62/29
f 16/64/30 17/63/30 20/66/30 18/65/30
f 24/70/31 25/69/31 22/83/31
f 19/84/32 23/85/32 28/86/32 26/87/32
f 28/88/33 23/68/33 24/70/33
f 21/89/34 15/62/34 16/64/34
f 18/65/35 19/67/35 26/90/35
f 33/91/36 32/72/36 30/71/36
f 31/73/37 32/72/37 34/92/37
f 34/93/38 37/75/38 35/74/38
f 36/76/39 37/75/39 33/94/39
f 40/95/40 35/74/40 36/76/40
f 30/71/41 31/73/41 29/96/41
f 1/97/42 11/98/42 12/99/42 3/100/42
f 19/67/43 20/66/43 25/69/43 23/68/43
