# Blender v2.93.5 OBJ File: 'kit.blend'
# www.blender.org
o TrailDirt1_Cylinder.015
v 0.800000 -0.000001 -1.000000
v -0.800000 -0.000001 -1.000000
v 0.800000 0.000000 1.000000
v -0.800000 0.000000 1.000000
v -0.729714 -0.000001 -0.635143
v -0.807029 -0.000001 -0.203514
v -0.668604 -0.000000 0.213081
v -0.750800 -0.000000 0.571886
v 0.761343 -0.000000 0.568371
v 0.810543 -0.000000 0.231629
v 0.716047 -0.000001 -0.198536
v 0.821086 -0.000001 -0.628114
v 0.689179 0.019999 -0.628712
v 0.632724 0.020000 0.568670
v -0.653119 0.019999 -0.636982
v -0.653011 0.020000 0.578613
v 0.676842 0.020000 0.227145
v -0.700000 0.020000 1.000000
v -0.579759 0.020000 0.231650
v 0.700000 0.020000 1.000000
v 0.548180 0.019999 -0.149476
v -0.700000 0.019999 -1.000000
v -0.621248 0.019999 -0.213543
v 0.700000 0.020000 -1.000000
v -0.021446 0.026602 -0.814590
v 0.036360 0.026602 -0.814465
v -0.004679 0.026602 -0.881259
v 0.055331 0.026602 -0.860130
v 0.388159 0.026602 -0.378937
v 0.433236 0.026602 -0.449331
v 0.371545 0.026602 -0.456034
v 0.405888 0.026602 -0.475237
v -0.212272 0.026602 0.488600
v -0.210768 0.026602 0.561757
v -0.112169 0.026602 0.476928
v -0.092826 0.026602 0.559035
v -0.152431 0.026602 0.584451
v -0.355059 0.026602 -0.142554
v -0.306434 0.026602 -0.169597
v -0.372284 0.026602 -0.206440
v -0.311943 0.026602 -0.216873
v 0.456740 0.026602 0.804908
v 0.505364 0.026602 0.777864
v 0.439514 0.026602 0.741022
v 0.499855 0.026602 0.730589
vt 0.924082 0.156901
vt 0.924053 0.169380
vt 0.891383 0.174153
vt 0.890948 0.161181
vt 0.965929 0.031186
vt 0.965929 0.159927
vt 0.924365 0.035230
vt 0.771892 0.173130
vt 0.771892 0.159926
vt 0.807914 0.162378
vt 0.807972 0.175176
vt 0.771892 0.031186
vt 0.807349 0.037596
vt 0.849166 0.017219
vt 0.848904 0.030270
vt 0.807290 0.024719
vt 0.846098 0.169720
vt 0.846359 0.156749
vt 0.886707 0.034703
vt 0.924394 0.022674
vt 0.886269 0.021651
vt 0.771892 0.017900
vt 0.965929 0.173130
vt 0.965929 0.017900
vt 0.066990 0.563084
vt 0.202541 0.563084
vt 0.202541 0.630859
vt 0.202541 0.698635
vt 0.066990 0.563084
vt 0.202541 0.563084
vt 0.202541 0.630859
vt 0.202541 0.698635
vt 0.066990 0.563084
vt 0.202541 0.563084
vt 0.202541 0.630859
vt 0.202541 0.698635
vt 0.066990 0.698635
vt 0.066990 0.563084
vt 0.202541 0.563084
vt 0.202541 0.630859
vt 0.202541 0.698635
vt 0.066990 0.563084
vt 0.202541 0.563084
vt 0.202541 0.630859
vt 0.202541 0.698635
vn 0.1504 0.9884 0.0207
vn -0.0000 1.0000 -0.0000
vn 0.1700 0.9854 -0.0023
vn -0.1511 0.9885 -0.0080
vn 0.1263 0.9914 -0.0349
vn 0.1381 0.9897 0.0374
vn -0.2035 0.9780 -0.0448
vn -0.2204 0.9748 0.0355
vn 0.1723 0.9848 -0.0211
vn -0.1450 0.9890 0.0303
vn -0.1974 0.9801 -0.0224
s off
f 14/1/1 9/2/1 10/3/1 17/4/1
f 18/5/2 20/6/2 14/1/2 16/7/2
f 1/8/3 24/9/3 13/10/3 12/11/3
f 24/9/2 22/12/2 15/13/2 13/10/2
f 6/14/4 23/15/4 15/13/4 5/16/4
f 17/4/5 10/3/5 11/17/5 21/18/5
f 16/7/2 14/1/2 17/4/2 19/19/2
f 21/18/6 11/17/6 12/11/6 13/10/6
f 8/20/7 16/7/7 19/19/7 7/21/7
f 22/12/8 2/22/8 5/16/8 15/13/8
f 19/19/2 17/4/2 21/18/2 23/15/2
f 20/6/9 3/23/9 9/2/9 14/1/9
f 7/21/10 19/19/10 23/15/10 6/14/10
f 4/24/11 18/5/11 16/7/11 8/20/11
f 23/15/2 21/18/2 13/10/2 15/13/2
f 25/25/2 26/26/2 28/27/2 27/28/2
f 29/29/2 30/30/2 32/31/2 31/32/2
f 33/33/2 34/34/2 37/35/2 36/36/2
f 35/37/2 33/33/2 36/36/2
f 38/38/2 39/39/2 41/40/2 40/41/2
f 42/42/2 43/43/2 45/44/2 44/45/2
