# Blender v2.93.5 OBJ File: 'kit.blend'
# www.blender.org
o TrailDirtEnd2_Cylinder.005
v 0.800000 -0.000001 0.000000
v -0.800000 -0.000001 0.000000
v 0.636741 0.000000 0.768371
v -0.752716 0.000000 0.849201
v 0.400000 0.019999 0.000000
v 0.000000 0.019999 0.000000
v -0.400000 0.019999 0.000000
v 0.400000 0.000000 1.000000
v -0.033916 -0.010000 1.065790
v -0.347284 0.000000 0.961342
v -0.849201 -0.000001 0.496486
v 0.884345 -0.000001 0.489457
v 0.400000 0.019999 0.500000
v 0.000000 0.019999 0.500000
v -0.400000 0.019999 0.500000
v 0.700000 0.020000 0.000000
v -0.347284 0.020000 0.840901
v -0.036375 0.010000 0.962325
v -0.718484 0.019999 0.496486
v -0.701009 0.019999 0.000000
v 0.400000 0.020000 0.867357
v 0.781738 0.019999 0.489457
v 0.536741 0.020000 0.668370
v -0.682716 0.020000 0.769202
v -0.218435 0.026602 0.549343
v -0.252257 0.026602 0.497409
v -0.285194 0.026602 0.602534
v -0.335848 0.026602 0.552149
v -0.304362 0.026602 0.507197
v 0.346114 0.026602 0.214792
v 0.374330 0.026602 0.188929
v 0.324383 0.026602 0.174795
v 0.363092 0.026602 0.158176
vt 0.933665 0.117352
vt 0.973370 0.117352
vt 0.956899 0.140568
vt 0.771472 0.161587
vt 0.791466 0.141576
vt 0.815706 0.171519
vt 0.815706 0.191076
vt 0.815706 0.117352
vt 0.874685 0.117352
vt 0.873493 0.167530
vt 0.933665 0.173318
vt 0.874685 0.043628
vt 0.933665 0.043628
vt 0.815706 0.043628
vt 0.756727 0.043628
vt 0.773616 0.043628
vt 0.771856 0.117352
vt 0.756727 0.117352
vt 0.978048 0.043628
vt 0.933665 0.191076
vt 0.873131 0.182786
vt 0.992644 0.117352
vt 0.977899 0.161587
vt 0.992644 0.043628
vt 0.066990 0.563084
vt 0.202541 0.563084
vt 0.202541 0.630859
vt 0.202541 0.698635
vt 0.066990 0.698635
vt 0.066990 0.563084
vt 0.202541 0.563084
vt 0.202541 0.630859
vt 0.202541 0.698635
vn 0.0000 1.0000 -0.0000
vn 0.1306 0.9850 0.1132
vn -0.0106 0.9999 0.0116
vn 0.0120 0.9999 0.0122
vn 0.1936 0.9805 -0.0328
vn -0.0322 0.9838 0.1761
vn -0.1806 0.9828 0.0382
vn -0.1715 0.9851 -0.0115
vn 0.0082 0.9859 0.1669
vn 0.1267 0.9825 0.1363
vn -0.0448 0.9826 0.1804
s off
f 15/1/1 19/2/1 24/3/1
f 3/4/2 23/5/2 21/6/2 8/7/2
f 13/8/3 14/9/3 18/10/3 21/6/3
f 14/9/4 15/1/4 17/11/4 18/10/4
f 6/12/1 7/13/1 15/1/1 14/9/1
f 5/14/1 6/12/1 14/9/1 13/8/1
f 1/15/5 16/16/5 22/17/5 12/18/5
f 7/13/1 20/19/1 19/2/1 15/1/1
f 22/17/1 16/16/1 5/14/1 13/8/1
f 18/10/6 17/11/6 10/20/6 9/21/6
f 24/3/7 19/2/7 11/22/7 4/23/7
f 19/2/8 20/19/8 2/24/8 11/22/8
f 23/5/1 22/17/1 13/8/1
f 21/6/9 18/10/9 9/21/9 8/7/9
f 21/6/1 23/5/1 13/8/1
f 12/18/10 22/17/10 23/5/10 3/4/10
f 17/11/1 15/1/1 24/3/1
f 17/11/11 24/3/11 4/23/11 10/20/11
f 25/25/1 26/26/1 29/27/1 28/28/1
f 27/29/1 25/25/1 28/28/1
f 30/30/1 31/31/1 33/32/1 32/33/1
