# Blender v2.93.5 OBJ File: 'kit.blend'
# www.blender.org
o TrailDirt2_Cylinder.018
v -0.800000 -0.000001 1.000000
v 0.800000 -0.000001 1.000000
v -0.800000 0.000000 -1.000000
v 0.800000 0.000000 -1.000000
v 0.729714 -0.000001 0.635143
v 0.697382 -0.000001 0.169777
v 0.596912 -0.000000 -0.246818
v 0.645371 -0.000000 -0.626709
v -0.681216 -0.000000 -0.618978
v -0.810543 -0.000000 -0.231629
v -0.917671 -0.010000 0.279353
v -0.715657 -0.000001 0.636549
v -0.583749 0.019999 0.637146
v -0.552597 0.020000 -0.619277
v 0.653119 0.019999 0.636982
v 0.547582 0.020000 -0.633436
v -0.676842 0.020000 -0.227145
v 0.700000 0.020000 -1.000000
v 0.508067 0.020000 -0.265387
v -0.700000 0.020000 -1.000000
v -0.749804 0.010000 0.230293
v 0.700000 0.019999 1.000000
v 0.511601 0.019999 0.179805
v -0.700000 0.020000 1.000000
v -0.201738 0.026602 -0.555360
v -0.201720 0.026602 -0.594707
v -0.237702 0.026602 -0.544149
v -0.277110 0.026602 -0.617866
v -0.348522 0.026602 0.699410
v -0.348687 0.026602 0.775075
v -0.261256 0.026602 0.721357
v -0.288913 0.026602 0.799906
v 0.199420 0.026602 0.229732
v 0.247168 0.026602 0.187687
v 0.168838 0.026602 0.190874
v 0.197181 0.026602 0.140493
vt 0.924082 0.156901
vt 0.924053 0.169380
vt 0.891383 0.174153
vt 0.890948 0.161181
vt 0.965929 0.031186
vt 0.965929 0.159927
vt 0.924365 0.035230
vt 0.771892 0.173130
vt 0.771892 0.159926
vt 0.807914 0.162378
vt 0.807972 0.175176
vt 0.771892 0.031186
vt 0.807349 0.037596
vt 0.849166 0.017219
vt 0.848904 0.030270
vt 0.807290 0.024719
vt 0.846098 0.169720
vt 0.846359 0.156749
vt 0.886707 0.034703
vt 0.924394 0.022674
vt 0.886269 0.021651
vt 0.771892 0.017900
vt 0.965929 0.173130
vt 0.965929 0.017900
vt 0.066990 0.563084
vt 0.202541 0.563084
vt 0.202541 0.630859
vt 0.202541 0.698635
vt 0.066990 0.563084
vt 0.202541 0.563084
vt 0.202541 0.630859
vt 0.202541 0.698635
vt 0.066990 0.563084
vt 0.202541 0.563084
vt 0.202541 0.630859
vt 0.202541 0.698635
vn -0.1498 0.9875 -0.0487
vn 0.0000 1.0000 0.0000
vn -0.1697 0.9844 -0.0469
vn 0.1494 0.9884 -0.0282
vn -0.1321 0.9912 -0.0041
vn -0.1266 0.9913 0.0350
vn 0.2064 0.9782 0.0243
vn 0.2204 0.9748 -0.0355
vn -0.0037 0.9999 0.0108
vn -0.1720 0.9833 0.0601
vn 0.1446 0.9893 -0.0175
vn 0.1949 0.9775 0.0809
vn -0.0042 0.9999 -0.0101
s off
f 14/1/1 9/2/1 10/3/1 17/4/1
f 18/5/2 20/6/2 14/1/2 16/7/2
f 1/8/3 24/9/3 13/10/3 12/11/3
f 24/9/2 22/12/2 15/13/2 13/10/2
f 6/14/4 23/15/4 15/13/4 5/16/4
f 17/4/5 10/3/5 11/17/5 21/18/5
f 16/7/2 14/1/2 17/4/2 19/19/2
f 21/18/6 11/17/6 12/11/6 13/10/6
f 8/20/7 16/7/7 19/19/7 7/21/7
f 22/12/8 2/22/8 5/16/8 15/13/8
f 19/19/9 17/4/9 21/18/9 23/15/9
f 20/6/10 3/23/10 9/2/10 14/1/10
f 7/21/11 19/19/11 23/15/11 6/14/11
f 4/24/12 18/5/12 16/7/12 8/20/12
f 23/15/13 21/18/13 13/10/13 15/13/13
f 28/25/2 27/26/2 25/27/2 26/28/2
f 29/29/2 30/30/2 32/31/2 31/32/2
f 36/33/2 35/34/2 33/35/2 34/36/2
