# Blender v2.93.5 OBJ File: 'kit.blend'
# www.blender.org
o WallLogs1_Cylinder.020
v 0.290258 -0.023300 0.237715
v 0.269326 1.759615 0.249712
v 0.060660 -0.023300 0.118858
v 0.053067 1.759615 0.124855
v 0.060660 -0.023300 -0.118858
v 0.053067 1.759615 -0.124859
v 0.290258 -0.023300 -0.237715
v 0.269326 1.759615 -0.249716
v 0.496126 -0.023300 -0.118858
v 0.453224 1.759615 -0.124859
v 0.496126 -0.023300 0.118858
v 0.453224 1.759615 0.124855
v -0.004598 1.762371 0.158150
v 0.269325 1.733976 0.316299
v -0.004598 1.679141 -0.158150
v 0.269325 1.762371 -0.316299
v 0.510888 1.727231 -0.158150
v 0.510888 1.739576 0.158150
v -0.263557 1.939958 0.000279
v 0.269325 1.834553 -0.316299
v -0.004598 1.834553 -0.158150
v 0.269326 1.834553 -0.249716
v 0.053067 1.834553 -0.124859
v -0.004041 1.751085 -0.152255
v -0.004041 1.800008 0.152255
v 0.052574 1.798388 -0.120205
v 0.052574 1.798388 0.120201
v 0.007137 1.814488 0.163524
v 0.258804 1.814488 0.308824
v 0.061315 1.814488 0.130858
v 0.260003 1.814488 0.245571
v 0.269325 1.783897 0.316299
v 0.510888 1.787385 0.158150
v 0.269326 1.799872 0.249712
v 0.453224 1.799872 0.124855
v 0.509633 1.812875 0.144855
v 0.509633 1.812875 -0.144855
v 0.454337 1.812875 0.114359
v 0.454337 1.812875 -0.114363
v 0.494844 1.805816 -0.165497
v 0.283711 1.805816 -0.306078
v 0.441947 1.805816 -0.133067
v 0.282073 1.805816 -0.244053
v 0.062258 -0.019174 0.117018
v -0.065458 1.938607 0.118161
v -0.199265 -0.019174 0.227856
v -0.269728 1.937861 0.231518
v -0.463577 -0.019174 0.112731
v -0.458606 1.939183 0.115483
v -0.460770 -0.019174 -0.113232
v -0.464767 1.941319 -0.118225
v -0.193650 -0.019174 -0.224071
v -0.259751 1.942062 -0.231433
v 0.065065 -0.019174 -0.108946
v -0.063033 1.940716 -0.113828
v -0.270305 1.941783 0.293432
v -0.012805 1.930318 0.149491
v -0.516728 1.852288 0.144214
v -0.518615 1.926651 -0.149994
v -0.260667 1.909115 -0.293899
v -0.009528 1.934831 -0.144300
v 0.269326 1.759615 -0.000002
v -0.523417 1.991599 -0.150383
v -0.527067 1.992124 0.143377
v -0.469402 1.993014 -0.118697
v -0.472263 1.993753 0.113230
v -0.516308 2.010029 0.148962
v -0.287133 2.023315 0.285094
v -0.464831 2.011527 0.119482
v -0.283802 2.023523 0.226989
v -0.263938 1.989216 0.286316
v -0.029095 2.002155 0.153929
v -0.263497 1.989429 0.227726
v -0.078013 2.000868 0.123236
v -0.017563 1.994671 0.149106
v -0.014085 1.996464 -0.144668
v -0.069539 1.997716 0.117865
v -0.066879 1.998287 -0.114090
v -0.025589 2.000139 -0.149982
v -0.256368 1.986759 -0.287066
v -0.075193 1.998625 -0.120035
v -0.257489 1.986544 -0.228294
v -0.279341 1.979088 -0.284976
v -0.506556 1.966569 -0.156889
v -0.277892 1.978869 -0.227228
v -0.457352 1.967803 -0.126131
vt 0.200482 0.601809
vt 0.200482 0.684365
vt 0.172963 0.684365
vt 0.172963 0.601809
vt 0.145445 0.684365
vt 0.145445 0.601809
vt 0.117926 0.684365
vt 0.117926 0.601809
vt 0.090407 0.684365
vt 0.090407 0.601809
vt 0.062889 0.684365
vt 0.062889 0.601809
vt 0.035370 0.684365
vt 0.035370 0.601809
vt 0.125000 0.652919
vt 0.149179 0.638960
vt 0.149179 0.638960
vt 0.125000 0.652919
vt 0.107224 0.542877
vt 0.110966 0.540717
vt 0.110966 0.540717
vt 0.107224 0.542877
vt 0.107224 0.542877
vt 0.110966 0.540717
vt 0.076648 0.520904
vt 0.076648 0.525224
vt 0.076648 0.525224
vt 0.076648 0.520904
vt 0.046072 0.578184
vt 0.042330 0.580344
vt 0.042330 0.580344
vt 0.046072 0.578184
vt 0.046072 0.578184
vt 0.042330 0.580344
vt 0.076648 0.525224
vt 0.076648 0.520904
vt 0.149179 0.611040
vt 0.125000 0.597081
vt 0.125000 0.597081
vt 0.149179 0.611040
vt 0.145445 0.684365
vt 0.117926 0.684365
vt 0.107224 0.578184
vt 0.110966 0.580344
vt 0.172963 0.684365
vt 0.145445 0.684365
vt 0.110966 0.580344
vt 0.107224 0.578184
vt 0.149179 0.611040
vt 0.149179 0.638960
vt 0.076648 0.595837
vt 0.107224 0.578184
vt 0.110966 0.580344
vt 0.076648 0.600158
vt 0.200482 0.684365
vt 0.172963 0.684365
vt 0.076648 0.600158
vt 0.076648 0.595837
vt 0.076648 0.595837
vt 0.076648 0.600158
vt 0.100821 0.638960
vt 0.125000 0.652919
vt 0.100821 0.638960
vt 0.062889 0.684365
vt 0.035370 0.684365
vt 0.046072 0.542877
vt 0.042330 0.540717
vt 0.090407 0.684365
vt 0.062889 0.684365
vt 0.042330 0.540717
vt 0.046072 0.542877
vt 0.100821 0.611040
vt 0.100821 0.638960
vt 0.100821 0.611040
vt 0.046072 0.542877
vt 0.042330 0.540717
vt 0.100821 0.611040
vt 0.125000 0.597081
vt 0.117926 0.684365
vt 0.090407 0.684365
vt 0.200482 0.601809
vt 0.200482 0.684365
vt 0.172963 0.684365
vt 0.172963 0.601809
vt 0.145445 0.684365
vt 0.145445 0.601809
vt 0.117926 0.684365
vt 0.117926 0.601809
vt 0.090407 0.684365
vt 0.090407 0.601809
vt 0.850821 0.138960
vt 0.850821 0.111040
vt 0.850821 0.138960
vt 0.062889 0.684365
vt 0.062889 0.601809
vt 0.035370 0.684365
vt 0.035370 0.601809
vt 0.125000 0.652919
vt 0.149179 0.638960
vt 0.149179 0.638960
vt 0.125000 0.652919
vt 0.107224 0.542877
vt 0.110966 0.540717
vt 0.110966 0.540717
vt 0.107224 0.542877
vt 0.107224 0.542877
vt 0.110966 0.540717
vt 0.076648 0.520904
vt 0.076648 0.525224
vt 0.076648 0.525224
vt 0.076648 0.520904
vt 0.046072 0.578184
vt 0.042330 0.580344
vt 0.042330 0.580344
vt 0.046072 0.578184
vt 0.046072 0.578184
vt 0.042330 0.580344
vt 0.875000 0.097081
vt 0.850821 0.111040
vt 0.899179 0.138960
vt 0.875000 0.152919
vt 0.899179 0.138960
vt 0.875000 0.152919
vt 0.899179 0.111040
vt 0.875000 0.097081
vt 0.899179 0.111040
vt 0.076648 0.525224
vt 0.076648 0.520904
vt 0.149179 0.611040
vt 0.125000 0.597081
vt 0.125000 0.597081
vt 0.149179 0.611040
vt 0.145445 0.684365
vt 0.117926 0.684365
vt 0.107224 0.578184
vt 0.110966 0.580344
vt 0.172963 0.684365
vt 0.145445 0.684365
vt 0.110966 0.580344
vt 0.107224 0.578184
vt 0.149179 0.611040
vt 0.149179 0.638960
vt 0.076648 0.595837
vt 0.107224 0.578184
vt 0.110966 0.580344
vt 0.076648 0.600158
vt 0.200482 0.684365
vt 0.172963 0.684365
vt 0.076648 0.600158
vt 0.076648 0.595837
vt 0.076648 0.595837
vt 0.076648 0.600158
vt 0.100821 0.638960
vt 0.125000 0.652919
vt 0.100821 0.638960
vt 0.062889 0.684365
vt 0.035370 0.684365
vt 0.046072 0.542877
vt 0.042330 0.540717
vt 0.090407 0.684365
vt 0.062889 0.684365
vt 0.042330 0.540717
vt 0.046072 0.542877
vt 0.100821 0.611040
vt 0.100821 0.638960
vt 0.100821 0.611040
vt 0.046072 0.542877
vt 0.042330 0.540717
vt 0.100821 0.611040
vt 0.125000 0.597081
vt 0.117926 0.684365
vt 0.090407 0.684365
vt 0.899179 0.111040
vt 0.899179 0.138960
vt 0.899179 0.111040
vt 0.875000 0.152919
vt 0.850821 0.138960
vt 0.875000 0.152919
vt 0.875000 0.097081
vt 0.875000 0.097081
vt 0.899179 0.138960
vt 0.850821 0.111040
vt 0.850821 0.138960
vt 0.850821 0.111040
vn -0.4834 -0.0409 0.8745
vn -0.9993 -0.0374 0.0056
vn -0.4763 -0.0415 -0.8783
vn 0.5246 -0.0274 -0.8509
vn 1.0000 -0.0084 0.0002
vn 0.5264 -0.0275 0.8498
vn 0.4999 0.0196 -0.8659
vn 0.4205 0.0858 -0.9032
vn -0.5000 -0.0000 0.8660
vn -0.9568 0.2907 -0.0060
vn -0.4630 0.1632 0.8712
vn 0.5000 0.0000 -0.8660
vn 0.0000 1.0000 -0.0000
vn 0.5000 -0.0000 0.8660
vn 1.0000 0.0000 -0.0000
vn -0.5000 0.0000 -0.8660
vn -0.3729 0.9242 -0.0830
vn -0.9999 0.0102 -0.0022
vn 0.4963 0.1183 0.8600
vn 0.9999 0.0127 0.0000
vn -0.4961 0.1829 -0.8488
vn -0.4992 0.0183 0.8663
vn 0.9882 0.1481 0.0384
vn 0.1272 0.9708 0.2032
vn -0.5617 -0.0000 -0.8273
vn 0.5477 0.0000 0.8366
vn -1.0000 0.0000 -0.0000
vn 0.9999 0.0158 -0.0003
vn -0.4532 0.1500 -0.8787
vn -0.9998 0.0209 0.0000
vn -0.5654 0.0317 0.8242
vn 0.5453 0.2202 0.8088
vn 0.5520 0.0271 -0.8334
vn 0.4405 -0.0060 0.8977
vn -0.4542 -0.0373 0.8901
vn -0.9996 -0.0291 -0.0059
vn -0.4372 -0.0388 -0.8985
vn 0.4611 -0.0072 -0.8873
vn 0.9992 0.0383 0.0120
vn -0.4874 -0.0172 -0.8730
vn -0.4822 0.0211 -0.8758
vn 0.4200 0.0662 0.9051
vn -0.5264 0.3291 0.7839
vn 0.5019 0.1962 0.8424
vn -0.4998 -0.0398 -0.8652
vn -0.0279 0.9996 -0.0027
vn 0.9855 0.1695 -0.0065
vn 0.5030 0.0343 -0.8636
vn -0.9972 -0.0738 -0.0123
vn -0.0533 0.9985 -0.0139
vn -0.5108 -0.0221 0.8594
vn 0.9826 0.1836 0.0263
vn 0.5148 0.0633 -0.8549
vn -0.0495 0.9987 0.0149
vn -0.9921 0.1249 -0.0122
vn 0.4884 0.0602 0.8705
vn 0.5220 0.1716 -0.8355
vn 0.0464 0.9989 0.0050
vn -0.9976 -0.0678 -0.0113
vn 0.9972 0.0738 0.0123
vn -0.5155 -0.0322 0.8563
vn -0.0546 0.9984 -0.0117
vn 0.5077 0.0487 -0.8601
vn -0.9984 0.0550 -0.0165
vn -0.5113 -0.0237 0.8591
vn -0.0487 0.9987 0.0164
vn 0.4795 0.1320 0.8676
vn 0.9354 0.3360 -0.1099
vn -0.4891 -0.0133 -0.8721
vn 0.0014 1.0000 0.0091
s off
f 1/1/1 14/2/1 13/3/1 3/4/1
f 3/4/2 13/3/2 15/5/2 5/6/2
f 5/6/3 15/5/3 16/7/3 7/8/3
f 7/8/4 16/7/4 17/9/4 9/10/4
f 9/10/5 17/9/5 18/11/5 11/12/5
f 11/12/6 18/11/6 14/13/6 1/14/6
f 2/15/7 4/16/7 30/17/7 31/18/7
f 6/19/8 15/20/8 24/21/8 26/22/8
f 15/20/9 6/19/9 23/23/9 21/24/9
f 16/25/10 8/26/10 43/27/10 41/28/10
f 12/29/11 18/30/11 36/31/11 38/32/11
f 18/30/12 12/29/12 35/33/12 33/34/12
f 23/23/13 22/35/13 20/36/13 21/24/13
f 6/37/14 8/38/14 22/39/14 23/40/14
f 8/26/15 16/25/15 20/36/15 22/35/15
f 16/7/16 15/5/16 21/41/16 20/42/16
f 27/43/17 26/22/17 24/21/17 25/44/17
f 15/5/18 13/3/18 25/45/18 24/46/18
f 13/47/19 4/48/19 27/43/19 25/44/19
f 4/16/20 6/37/20 26/49/20 27/50/20
f 31/51/13 30/52/13 28/53/13 29/54/13
f 4/48/21 13/47/21 28/53/21 30/52/21
f 13/3/22 14/2/22 29/55/22 28/56/22
f 14/57/23 2/58/23 31/51/23 29/54/23
f 35/33/24 34/59/24 32/60/24 33/34/24
f 12/61/25 2/15/25 34/62/25 35/63/25
f 14/13/26 18/11/26 33/64/26 32/65/26
f 2/58/27 14/57/27 32/60/27 34/59/27
f 39/66/13 38/32/13 36/31/13 37/67/13
f 18/11/28 17/9/28 37/68/28 36/69/28
f 17/70/29 10/71/29 39/66/29 37/67/29
f 10/72/30 12/61/30 38/73/30 39/74/30
f 43/27/13 42/75/13 40/76/13 41/28/13
f 8/38/31 10/72/31 42/77/31 43/78/31
f 10/71/32 17/70/32 40/76/32 42/75/32
f 17/9/33 16/7/33 41/79/33 40/80/33
f 44/81/34 57/82/34 56/83/34 46/84/34
f 46/84/35 56/83/35 58/85/35 48/86/35
f 48/86/36 58/85/36 59/87/36 50/88/36
f 50/88/37 59/87/37 60/89/37 52/90/37
f 12/91/13 10/92/13 62/93/13
f 52/90/38 60/89/38 61/94/38 54/95/38
f 54/95/39 61/94/39 57/96/39 44/97/39
f 45/98/40 47/99/40 73/100/40 74/101/40
f 49/102/41 58/103/41 67/104/41 69/105/41
f 58/103/42 49/102/42 66/106/42 64/107/42
f 59/108/43 51/109/43 86/110/43 84/111/43
f 55/112/44 61/113/44 79/114/44 81/115/44
f 61/113/45 55/112/45 78/116/45 76/117/45
f 10/92/13 8/118/13 62/119/13
f 4/120/13 2/121/13 62/122/13
f 2/121/13 12/91/13 62/123/13
f 8/118/13 6/124/13 62/125/13
f 6/124/13 4/120/13 62/126/13
f 66/106/46 65/127/46 63/128/46 64/107/46
f 49/129/47 51/130/47 65/131/47 66/132/47
f 51/109/48 59/108/48 63/128/48 65/127/48
f 59/87/49 58/85/49 64/133/49 63/134/49
f 70/135/50 69/105/50 67/104/50 68/136/50
f 58/85/51 56/83/51 68/137/51 67/138/51
f 56/139/52 47/140/52 70/135/52 68/136/52
f 47/99/53 49/129/53 69/141/53 70/142/53
f 74/143/54 73/144/54 71/145/54 72/146/54
f 47/140/55 56/139/55 71/145/55 73/144/55
f 56/83/56 57/82/56 72/147/56 71/148/56
f 57/149/57 45/150/57 74/143/57 72/146/57
f 78/116/58 77/151/58 75/152/58 76/117/58
f 55/153/59 45/98/59 77/154/59 78/155/59
f 57/96/60 61/94/60 76/156/60 75/157/60
f 45/150/61 57/149/61 75/152/61 77/151/61
f 82/158/62 81/115/62 79/114/62 80/159/62
f 61/94/63 60/89/63 80/160/63 79/161/63
f 60/162/64 53/163/64 82/158/64 80/159/64
f 53/164/65 55/153/65 81/165/65 82/166/65
f 86/110/66 85/167/66 83/168/66 84/111/66
f 51/130/67 53/164/67 85/169/67 86/170/67
f 53/163/68 60/162/68 83/168/68 85/167/68
f 60/89/69 59/87/69 84/171/69 83/172/69
f 49/173/70 47/174/70 19/175/70
f 45/176/70 55/177/70 19/178/70
f 51/179/70 49/173/70 19/180/70
f 47/174/70 45/176/70 19/181/70
f 55/177/70 53/182/70 19/183/70
f 53/182/70 51/179/70 19/184/70
