# Exported from ProBuilder
# http://www.procore3d.com/probuilder
# 5/5/2020 7:55:57 PM

mtllib ./Icosphere.mtl
o Icosphere

g Icosphere
v 0.002134472 0.2665401 0.4253254
v 0.265 0.429 0
v 0.4274599 0.003674597 0.2628655
v -0.2607311 0.429 0
v 0.265 0.429 0
v 0.002134472 0.2665401 0.4253254
v 0.002134472 0.2665401 -0.4253254
v 0.265 0.429 0
v -0.2607311 0.429 0
v 0.4274599 0.003674597 -0.2628655
v 0.265 0.429 0
v 0.002134472 0.2665401 -0.4253254
v 0.4274599 0.003674597 0.2628655
v 0.265 0.429 0
v 0.4274599 0.003674597 -0.2628655
v -0.4231909 0.003674597 0.2628655
v -0.2607311 0.429 0
v 0.002134472 0.2665401 0.4253254
v 0.002134472 -0.2591909 0.4253254
v 0.002134472 0.2665401 0.4253254
v 0.4274599 0.003674597 0.2628655
v 0.265 -0.4216508 0
v 0.4274599 0.003674597 0.2628655
v 0.4274599 0.003674597 -0.2628655
v 0.002134472 -0.2591909 -0.4253254
v 0.4274599 0.003674597 -0.2628655
v 0.002134472 0.2665401 -0.4253254
v -0.4231909 0.003674597 -0.2628655
v 0.002134472 0.2665401 -0.4253254
v -0.2607311 0.429 0
v 0.002134472 -0.2591909 0.4253254
v -0.2607311 -0.4216508 0
v -0.4231909 0.003674597 0.2628655
v 0.265 -0.4216508 0
v -0.2607311 -0.4216508 0
v 0.002134472 -0.2591909 0.4253254
v 0.002134472 -0.2591909 -0.4253254
v -0.2607311 -0.4216508 0
v 0.265 -0.4216508 0
v -0.4231909 0.003674597 -0.2628655
v -0.2607311 -0.4216508 0
v 0.002134472 -0.2591909 -0.4253254
v -0.4231909 0.003674597 0.2628655
v -0.2607311 -0.4216508 0
v -0.4231909 0.003674597 -0.2628655
v 0.002134472 0.2665401 0.4253254
v 0.002134472 -0.2591909 0.4253254
v -0.4231909 0.003674597 0.2628655
v 0.4274599 0.003674597 0.2628655
v 0.265 -0.4216508 0
v 0.002134472 -0.2591909 0.4253254
v 0.4274599 0.003674597 -0.2628655
v 0.002134472 -0.2591909 -0.4253254
v 0.265 -0.4216508 0
v 0.002134472 0.2665401 -0.4253254
v -0.4231909 0.003674597 -0.2628655
v 0.002134472 -0.2591909 -0.4253254
v -0.2607311 0.429 0
v -0.4231909 0.003674597 0.2628655
v -0.4231909 0.003674597 -0.2628655

vn 0.5773502 0.5773503 0.5773503
vn 0.5773502 0.5773503 0.5773503
vn 0.5773502 0.5773503 0.5773503
vn 0 0.9341723 0.3568222
vn 0 0.9341723 0.3568222
vn 0 0.9341723 0.3568222
vn 0 0.9341723 -0.3568222
vn 0 0.9341723 -0.3568222
vn 0 0.9341723 -0.3568222
vn 0.5773502 0.5773503 -0.5773503
vn 0.5773502 0.5773503 -0.5773503
vn 0.5773502 0.5773503 -0.5773503
vn 0.9341724 0.3568223 0
vn 0.9341724 0.3568223 0
vn 0.9341724 0.3568223 0
vn -0.5773503 0.5773501 0.5773503
vn -0.5773503 0.5773501 0.5773503
vn -0.5773503 0.5773501 0.5773503
vn 0.3568222 0 0.9341724
vn 0.3568222 0 0.9341724
vn 0.3568222 0 0.9341724
vn 0.9341724 -0.3568223 0
vn 0.9341724 -0.3568223 0
vn 0.9341724 -0.3568223 0
vn 0.3568222 0 -0.9341724
vn 0.3568222 0 -0.9341724
vn 0.3568222 0 -0.9341724
vn -0.5773503 0.5773501 -0.5773503
vn -0.5773503 0.5773501 -0.5773503
vn -0.5773503 0.5773501 -0.5773503
vn -0.5773503 -0.5773501 0.5773504
vn -0.5773503 -0.5773501 0.5773504
vn -0.5773503 -0.5773501 0.5773504
vn 0 -0.9341723 0.3568222
vn 0 -0.9341723 0.3568222
vn 0 -0.9341723 0.3568222
vn 0 -0.9341723 -0.3568222
vn 0 -0.9341723 -0.3568222
vn 0 -0.9341723 -0.3568222
vn -0.5773503 -0.5773501 -0.5773503
vn -0.5773503 -0.5773501 -0.5773503
vn -0.5773503 -0.5773501 -0.5773503
vn -0.9341724 -0.356822 0
vn -0.9341724 -0.356822 0
vn -0.9341724 -0.356822 0
vn -0.3568222 0 0.9341723
vn -0.3568222 0 0.9341723
vn -0.3568222 0 0.9341723
vn 0.5773502 -0.5773503 0.5773503
vn 0.5773502 -0.5773503 0.5773503
vn 0.5773502 -0.5773503 0.5773503
vn 0.5773502 -0.5773503 -0.5773503
vn 0.5773502 -0.5773503 -0.5773503
vn 0.5773502 -0.5773503 -0.5773503
vn -0.3568222 0 -0.9341723
vn -0.3568222 0 -0.9341723
vn -0.3568222 0 -0.9341723
vn -0.9341724 0.356822 0
vn -0.9341724 0.356822 0
vn -0.9341724 0.356822 0

vt 0 0.2628655
vt 0.2628655 0.4253254
vt 0.4253254 0
vt 0.2628655 0
vt -0.2628655 0
vt 0 0.4253254
vt 0 -0.4253254
vt -0.2628655 0
vt 0.2628655 0
vt -0.4253254 0
vt -0.2628655 0.4253254
vt 0 0.2628655
vt -0.2628655 0
vt 0 0.4253254
vt 0.2628655 0
vt -0.4253254 0
vt -0.2628655 0.4253254
vt 0 0.2628655
vt 0 -0.2628655
vt 0 0.2628655
vt 0.4253254 0
vt 0 -0.4253254
vt -0.2628655 0
vt 0.2628655 0
vt 0 -0.2628655
vt -0.4253254 0
vt 0 0.2628655
vt 0.4253254 0
vt 0 0.2628655
vt 0.2628655 0.4253254
vt 0 -0.2628655
vt -0.2628655 -0.4253254
vt -0.4253254 0
vt 0.2628655 0
vt -0.2628655 0
vt 0 0.4253254
vt 0 -0.4253254
vt -0.2628655 0
vt 0.2628655 0
vt 0.4253254 0
vt 0.2628655 -0.4253254
vt 0 -0.2628655
vt 0.2628655 0
vt 0 -0.4253254
vt -0.2628655 0
vt 0 0.2628655
vt 0 -0.2628655
vt -0.4253254 0
vt 0.4253254 0
vt 0.2628655 -0.4253254
vt 0 -0.2628655
vt -0.4253254 0
vt 0 -0.2628655
vt -0.2628655 -0.4253254
vt 0 0.2628655
vt 0.4253254 0
vt 0 -0.2628655
vt 0 0.4253254
vt 0.2628655 0
vt -0.2628655 0

g Icosphere
usemtl IcosphereMat
f 3/3/3 2/2/2 1/1/1
f 6/6/6 5/5/5 4/4/4
f 9/9/9 8/8/8 7/7/7
f 12/12/12 11/11/11 10/10/10
f 15/15/15 14/14/14 13/13/13
f 18/18/18 17/17/17 16/16/16
f 21/21/21 20/20/20 19/19/19
f 24/24/24 23/23/23 22/22/22
f 27/27/27 26/26/26 25/25/25
f 30/30/30 29/29/29 28/28/28
f 33/33/33 32/32/32 31/31/31
f 36/36/36 35/35/35 34/34/34
f 39/39/39 38/38/38 37/37/37
f 42/42/42 41/41/41 40/40/40
f 45/45/45 44/44/44 43/43/43
f 48/48/48 47/47/47 46/46/46
f 51/51/51 50/50/50 49/49/49
f 54/54/54 53/53/53 52/52/52
f 57/57/57 56/56/56 55/55/55
f 60/60/60 59/59/59 58/58/58

